<svg xmlns="http://www.w3.org/2000/svg" viewBox="0 0 512 512"><!--! Font Awesome Pro 6.5.1 by @fontawesome - https://fontawesome.com License - https://fontawesome.com/license (Commercial License) Copyright 2023 Fonticons, Inc. --><path d="M134.4 381.1l-16.3-17.6 35.2-32.7 16.3 17.6L232 415.6l0-231.7v-24h48l0 24V415.6l62.4-67.2 16.3-17.6 35.2 32.7-16.3 17.6-104 112L256 512l-17.6-18.9-104-112zM256 47.9c-114.9 0-208 93.1-208 208H0C0 114.5 114.6-.1 256-.1s256 114.6 256 256v24H464v-24c0-114.9-93.1-208-208-208z"/></svg>