<svg xmlns="http://www.w3.org/2000/svg" viewBox="0 0 512 512"><!--! Font Awesome Pro 6.5.1 by @fontawesome - https://fontawesome.com License - https://fontawesome.com/license (Commercial License) Copyright 2023 Fonticons, Inc. --><path d="M256 48C141.1 48 48 141.1 48 256v24H0V256C0 114.6 114.6 0 256 0S512 114.6 512 256H464c0-114.9-93.1-208-208-208zM134.4 279.7l104-112L256 148.7l17.6 18.9 104 112 16.3 17.6-35.2 32.7-16.3-17.6L280 245.1 280 488v24H232V488l0-242.9-62.4 67.2-16.3 17.6-35.2-32.7 16.3-17.6z"/></svg>