<svg xmlns="http://www.w3.org/2000/svg" viewBox="0 0 512 512"><!--! Font Awesome Pro 6.5.1 by @fontawesome - https://fontawesome.com License - https://fontawesome.com/license (Commercial License) Copyright 2023 Fonticons, Inc. --><path d="M394 187.1C367.2 124.1 304.7 80 232 80c-39.7 0-77.8 15.8-105.9 43.9L73.9 176H128h24v48H128 16-8V200 88 64H40V88v54.1L92.1 89.9C129.2 52.8 179.5 32 232 32c92.6 0 172.1 56.2 206.2 136.3L394 187.1zm30 182.8l-52.1 52.1C334.8 459.2 284.5 480 232 480c-92.5 0-171.8-56-206-135.9l44.1-18.9C97 388.1 159.4 432 232 432c39.7 0 77.8-15.8 105.9-43.9L390.1 336H336 312V288h24H448h24v24V424v24H424V424 369.9z"/></svg>