<svg xmlns="http://www.w3.org/2000/svg" viewBox="0 0 448 512"><!--! Font Awesome Pro 6.5.1 by @fontawesome - https://fontawesome.com License - https://fontawesome.com/license (Commercial License) Copyright 2023 Fonticons, Inc. --><path d="M160 112v48H288V112c0-35.3-28.7-64-64-64s-64 28.7-64 64zm-48 48V112C112 50.1 162.1 0 224 0h24V2.6c50.3 11 88 55.8 88 109.4v48h64 48v48V464v48H400 48 0V464 208 160H48h64zm0 48H48V464H400V208H336 288 160 112zm8 104h24 56V256 232h48v24 56h56 24v48H304 248v56l0 24H200l0-24V360H144 120V312z"/></svg>