<svg xmlns="http://www.w3.org/2000/svg" viewBox="0 0 512 512"><!--! Font Awesome Pro 6.5.1 by @fontawesome - https://fontawesome.com License - https://fontawesome.com/license (Commercial License) Copyright 2023 Fonticons, Inc. --><path d="M288 0H224V51.2C151 66 96 130.6 96 208v88L32 368v48H80 432h48V368l-64-72V208c0-77.4-55-142-128-156.8V0zm80 314.2l12.1 13.6L415.8 368H96.2l35.7-40.1L144 314.2V296 208c0-61.9 50.1-112 112-112s112 50.1 112 112v88 18.2zM320 448H256 192c0 17 6.7 33.3 18.7 45.3s28.3 18.7 45.3 18.7s33.3-6.7 45.3-18.7s18.7-28.3 18.7-45.3zM112.6 49.4L79.4 14.6C30.5 61.2 0 127.1 0 200H48c0-59.3 24.8-112.7 64.6-150.6zM464 200h48c0-72.9-30.5-138.8-79.4-185.4L399.4 49.4C439.2 87.3 464 140.7 464 200z"/></svg>