<svg xmlns="http://www.w3.org/2000/svg" viewBox="0 0 640 512"><!--! Font Awesome Pro 6.5.1 by @fontawesome - https://fontawesome.com License - https://fontawesome.com/license (Commercial License) Copyright 2023 Fonticons, Inc. --><path d="M24 0H0V24 224v24 24V424v24H24 313.8c-8.6-14.9-15.3-31-19.7-48H48V272H306c7.8-17.4 17.6-33.5 28.1-48H48V48H400V155.1c11.3-9.2 21.9-16.7 31-22.4l17-10.6V24 0H424 24zM288 351.8c0-13.7 1.6-27 4.5-39.8H120 96v48h24H288.2c-.1-2.7-.2-5.4-.2-8.2zM448 160c-42.7 26.7-128 102.4-128 192c0 88.4 71.6 160 160 160s160-71.6 160-160c0-26.7-19.2-96-96-160l-32 32-64-64zm96 240.2c0 35.3-28.7 64-64 64s-64-28.7-64-64c0-48 64-96 64-96s64 48 64 96z"/></svg>