<svg xmlns="http://www.w3.org/2000/svg" viewBox="0 0 640 512"><!--! Font Awesome Pro 6.5.1 by @fontawesome - https://fontawesome.com License - https://fontawesome.com/license (Commercial License) Copyright 2023 Fonticons, Inc. --><path d="M176 80v48h56 48 56V80H176zm-48 48V80H80v48h48zM80 176v56H232V176H80zm0 160h48V280H80v56zm0 48v48H232V384H176 128 80zm96-48H288.7c-.5 5.2-.7 10.5-.7 15.8c0 11 .9 21.7 2.7 32.2H280v48h25.5c8.1 17.6 18.8 33.8 31.5 48H80 32V432 80 32H80 432h48V80v66.6l-27.4-27.4L431 132.7c-15.3 9.6-35 24.4-54.8 43.3H280v56h48.5c-9.9 14.6-18.9 30.7-25.9 48H176v56zM432 128V80H384v48h48zm16 32l64 64 32-32c76.8 64 96 133.3 96 160c0 88.4-71.6 160-160 160s-160-71.6-160-160c0-89.6 85.3-165.3 128-192zm96 240.2c0-48-64-96-64-96s-64 48-64 96c0 35.3 28.7 64 64 64s64-28.7 64-64z"/></svg>