<svg xmlns="http://www.w3.org/2000/svg" viewBox="0 0 512 512"><!--! Font Awesome Pro 6.5.1 by @fontawesome - https://fontawesome.com License - https://fontawesome.com/license (Commercial License) Copyright 2023 Fonticons, Inc. --><path d="M0 0H24 144V48H48V488v24H0V488 24 0zM416 0h72 24V24 96 392v96 24H464V488 459.9c-7.5 2.7-15.6 4.1-24 4.1c-18.4 0-35.3-6.9-48-18.3c-12.7 11.4-29.6 18.3-48 18.3s-35.3-6.9-48-18.3c-12.7 11.4-29.6 18.3-48 18.3c-39.8 0-72-32.2-72-72V48 0h48 48 48 48 7.8H416zM368 48H320V392c0 13.3 10.7 24 24 24s24-10.7 24-24V48zm96 344V96 48H416V96 392c0 13.3 10.7 24 24 24s24-10.7 24-24zM224 48V392c0 13.3 10.7 24 24 24s24-10.7 24-24V48H224z"/></svg>