<svg xmlns="http://www.w3.org/2000/svg" viewBox="0 0 640 512"><!--! Font Awesome Pro 6.5.1 by @fontawesome - https://fontawesome.com License - https://fontawesome.com/license (Commercial License) Copyright 2023 Fonticons, Inc. --><path d="M48 48H336V205.7c13.8-13.5 30-24.6 48-32.4V48 0H336 48 0V48 464v48H48 336h48V466.7c-18-7.8-34.2-18.9-48-32.4V464H240V352H144V464H48V48zM296 216H216v80h73.8c1.3-9 3.4-17.7 6.2-26.1V216zM88 88v80h80V88H88zm208 0H216v80h80V88zM88 216v80h80V216H88zm360 24.1a80 80 0 1 1 0 160 80 80 0 1 1 0-160zm0 208c26.7 0 51.5-8.2 72-22.1l63.1 62.7 17 16.9 33.8-34-17-16.9-63-62.6c13.9-20.5 22.1-45.3 22.1-71.9c0-70.7-57.3-128-128-128s-128 57.3-128 128s57.3 128 128 128z"/></svg>