<svg xmlns="http://www.w3.org/2000/svg" viewBox="0 0 640 512"><!--! Font Awesome Pro 6.5.1 by @fontawesome - https://fontawesome.com License - https://fontawesome.com/license (Commercial License) Copyright 2023 Fonticons, Inc. --><path d="M48 48H336V64h48V48 0H336 48 0V48 464v48H48 288V464H240V352H144V464H48V48zM216 88v80h72V88H216zm0 128v80h72V216H216zM88 88v80h80V88H88zm0 128v80h80V216H88zM640 96H320V512H640V96zM400 184a24 24 0 1 1 0 48 24 24 0 1 1 0-48zM376 304a24 24 0 1 1 48 0 24 24 0 1 1 -48 0zm24 72a24 24 0 1 1 0 48 24 24 0 1 1 0-48zm64-184h16 96 16v32H576 480 464V192zm16 96h96 16v32H576 480 464V288h16zm-16 96h16 96 16v32H576 480 464V384z"/></svg>