<svg xmlns="http://www.w3.org/2000/svg" viewBox="0 0 640 512"><!--! Font Awesome Pro 6.5.1 by @fontawesome - https://fontawesome.com License - https://fontawesome.com/license (Commercial License) Copyright 2023 Fonticons, Inc. --><path d="M56 32H32V56 176v24 24 97.6C12.2 341.8 0 369.5 0 400c0 61.9 50.1 112 112 112H368c61.9 0 112-50.1 112-112c0-20.4-5.5-39.5-15-56h47v56 9.3l6.2 6.9 80 88 35.5-32.3L560 390.7V249.3l73.8-81.1-35.5-32.3-80 88-6.2 6.9V240v56H448V200 176H424 376V120 96H328v24 56H275L213.7 45.8 207.2 32H192 56zM221.9 176H80V80h96.8l45.2 96zM400 292.6c-10.1-3-20.9-4.6-32-4.6H112c-11.1 0-21.9 1.6-32 4.6V224H400v68.6zM112 336H368c35.3 0 64 28.7 64 64s-28.7 64-64 64H112c-35.3 0-64-28.7-64-64s28.7-64 64-64zm32 64a24 24 0 1 0 -48 0 24 24 0 1 0 48 0zm216 24a24 24 0 1 0 0-48 24 24 0 1 0 0 48zm-56-24a24 24 0 1 0 -48 0 24 24 0 1 0 48 0zM200 424a24 24 0 1 0 0-48 24 24 0 1 0 0 48z"/></svg>