<svg xmlns="http://www.w3.org/2000/svg" viewBox="0 0 640 512"><!--! Font Awesome Pro 6.5.1 by @fontawesome - https://fontawesome.com License - https://fontawesome.com/license (Commercial License) Copyright 2023 Fonticons, Inc. --><path d="M592 512l0 0H524.1 172.8 112l37.3-48 52.3-67.3C142.8 358.1 104 291.6 104 216c0-12.2 1-24.1 2.9-35.7L152 215.8l0 .2c0 92.8 75.2 168 168 168c13.6 0 26.9-1.6 39.6-4.7L406.2 416h-4.4c-25.2 10.3-52.8 16-81.7 16c-26.2 0-51.4-4.7-74.7-13.3L210.1 464H467.1L528 512h64zM144.8 89.6C184 35.3 247.9 0 320 0C439.3 0 536 96.7 536 216c0 52.7-18.8 100.9-50.2 138.4L620.9 459.3l19 14.7-29.4 37.9-19-14.7L19 52.7 0 38 29.4 .1l19 14.7 96.4 74.8zM447.9 325c25-29.3 40.1-67.4 40.1-109c0-92.8-75.2-168-168-168c-56.7 0-106.8 28.1-137.3 71.1l38 29.5C242.3 116.8 278.7 96 320 96c66.3 0 120 53.7 120 120c0 30.5-11.4 58.3-30.1 79.5l38 29.5zm-76-59C384.3 253 392 235.4 392 216c0-39.8-32.2-72-72-72c-25.9 0-48.5 13.6-61.2 34.1l113.1 87.8z"/></svg>