<svg xmlns="http://www.w3.org/2000/svg" viewBox="0 0 640 512"><!--! Font Awesome Pro 6.5.1 by @fontawesome - https://fontawesome.com License - https://fontawesome.com/license (Commercial License) Copyright 2023 Fonticons, Inc. --><path d="M448 140c0 72.9 59.1 132 132 132c20.8 0 40.5-4.8 58-13.4C608.7 296 563.2 320 512 320c-4 0-7.9-.1-11.8-.4c-11.2-9.8-24.2-17.7-38.4-23.1c-9.9-53.2-52.6-94.8-106.4-103c-2.3-10.8-3.5-22-3.5-33.5C352 71.6 423.6 0 512 0c18.5 0 36.2 3.1 52.7 8.9C499 16.5 448 72.3 448 140zM383.3 320c0-26.5-21.5-48-48-48s-48 21.5-48 48v8h-49c-3.5-13.8-16.1-24-31-24c-17.7 0-32 14.3-32 32v40 24h-24-7.4c-17.7 0-32 14.3-32 32v32h32 7.4 24v0h88 0H399.5l0 0h31.8 32.6V416c0-26.5-21.5-48-48-48h-8.6-24V344 320zm-256 192v0H87.9h-24V488 432c0-38.5 27.2-70.7 63.4-78.3V336c0-44.2 35.8-80 80-80c17 0 32.8 5.3 45.8 14.4c16.8-27.8 47.3-46.4 82.2-46.4c53 0 96 43 96 96v1.2c45.7 7.4 80.6 47 80.6 94.8v72 24h-24H463.1l0 0H431.3h-24-144 0-112-24zm106-335.9H202l-12.6-28.8c-5-11.4-16.3-19.2-29.3-19.2c-15.4 0-28.4 11-31.3 25.5l-7.8 38.5H81.7 72.1c-13.2 0-24 10.7-24 24v24h24 48l0 0h30.2c-18.8 11.4-33.9 28.1-43.4 48H72.1l0 0h-24H.1v-48-24c0-39.8 32.2-72 72-72h9.6c7.4-36.5 39.7-64 78.4-64c32.8 0 61 19.7 73.3 48H256c35.3 0 64 28.6 64 64v.9c-17.3 2.2-33.6 7.8-48 16.2V192.1c0-8.8-7.2-16-16-16H233.4z"/></svg>