<svg xmlns="http://www.w3.org/2000/svg" viewBox="0 0 640 512"><!--! Font Awesome Pro 6.5.1 by @fontawesome - https://fontawesome.com License - https://fontawesome.com/license (Commercial License) Copyright 2023 Fonticons, Inc. --><path d="M550.4 24.7c-61.2 16.6-106.2 72.5-106.2 139c0 79.5 64.5 144 144 144c16.3 0 32-2.7 46.7-7.7c-32.1 41.6-82.5 68.4-139.1 68.4c-13.3 0-26.3-1.5-38.8-4.3c-10.8-14.2-24.9-25.7-41.2-33.4c-2.5-52.9-41.6-96.2-92.6-105.1c-2.1-10.8-3.2-22-3.2-33.4C320 94.9 398.7 16 495.8 16c19.1 0 37.4 3 54.6 8.7zM176.6 272c-26.5 0-48 21.5-48 48v24 24h-24H96c-26.5 0-48 21.5-48 48v48H80.6h31.8l0 0H248.6h0 88v0h24H368h32V432c0-17.7-14.3-32-32-32h-7.4-24V376 336c0-17.7-14.3-32-32-32c-14.9 0-27.5 10.2-31 24h-49v-8c0-26.5-21.5-48-48-48zm208 240v0h-24-112 0-144-24H48.8l0 0H24 0V488 416c0-47.8 34.9-87.4 80.6-94.8V320c0-53 43-96 96-96c34.9 0 65.4 18.6 82.2 46.4c13-9.1 28.7-14.4 45.8-14.4c44.2 0 80 35.8 80 80v17.7c36.2 7.6 63.4 39.8 63.4 78.3v56 24H424 384.6z"/></svg>