<svg xmlns="http://www.w3.org/2000/svg" viewBox="0 0 576 512"><!--! Font Awesome Pro 6.5.1 by @fontawesome - https://fontawesome.com License - https://fontawesome.com/license (Commercial License) Copyright 2023 Fonticons, Inc. --><path d="M572.7 178.3c-12.1 5.6-25.6 8.7-39.9 8.7c-52.8 0-95.6-43-95.6-96c0-37.8 21.7-70.5 53.4-86.1C479.4 1.7 467.7 0 455.5 0c-49.8 0-92.9 28.7-113.9 70.5c41.7 14.9 72.1 53.9 74.2 100.2c32.7 15.5 56.7 46.3 62.7 83.2c42.5-7.8 77.7-36.7 94.2-75.6zM128.6 160c0-26.5 21.5-48 48-48s48 21.5 48 48v8h49c3.5-13.8 16.1-24 31-24c17.7 0 32 14.3 32 32v40 24h24H368c17.7 0 32 14.3 32 32v32H368h-7.4H352V320v32h8.6 24V352H424h24V328 272c0-38.5-27.2-70.7-63.4-78.3V176c0-44.2-35.8-80-80-80c-17 0-32.8 5.3-45.8 14.4C242 82.6 211.4 64 176.6 64c-53 0-96 43-96 96v1.2C34.9 168.6 0 208.2 0 256v72 24H24 48.8l0 0H64v-7.7L117.1 304h-4.7l0 0H80.6 48V256c0-26.5 21.5-48 48-48h8.6 24V184 160zM144 512L320 376V352H232l40-128L96 360v24h88L144 512z"/></svg>