<svg xmlns="http://www.w3.org/2000/svg" viewBox="0 0 512 512"><!--! Font Awesome Pro 6.5.1 by @fontawesome - https://fontawesome.com License - https://fontawesome.com/license (Commercial License) Copyright 2023 Fonticons, Inc. --><path d="M101.9 387.7l10.8-28.9L90.9 336.9C63 308.9 48 275.1 48 240c0-79.5 83.3-160 208-160s208 80.5 208 160s-83.3 160-208 160c-26.8 0-52.3-3.9-75.7-11l-13.9-4.2-13.9 4.2L94.9 406.2l7-18.5zM16 480l57.8-17.3 92.6-27.8c27.9 8.5 58.1 13.1 89.6 13.1c141.4 0 256-93.1 256-208S397.4 32 256 32S0 125.1 0 240c0 49.6 21.3 95.1 56.9 130.8L37.2 423.5 16 480zM152 176H132.8C112.5 176 96 192.5 96 212.8c0 12.3 6.2 23.8 16.4 30.7l29.4 19.6c1.3 .9 2.2 2.4 2.2 4c0 2.7-2.2 4.8-4.8 4.8H112 96v32h16 27.2c20.3 0 36.8-16.5 36.8-36.8c0-12.3-6.2-23.8-16.4-30.7l-29.4-19.6c-1.3-.9-2.2-2.4-2.2-4c0-2.7 2.2-4.8 4.8-4.8H152h16V176h-8v0h-8zm40 16v96 16h32V288 240l19.2 25.6L256 282.7l12.8-17.1L288 240v48 16h32V288 192 176H296l-4.8 6.4L256 229.3l-35.2-46.9L216 176H192v16zm144 20.8c0 12.3 6.2 23.8 16.4 30.7l29.4 19.6c1.3 .9 2.2 2.4 2.2 4c0 2.7-2.2 4.8-4.8 4.8H352 336v32h16 27.2c20.3 0 36.8-16.5 36.8-36.8c0-12.3-6.2-23.8-16.4-30.7l-29.4-19.6c-1.3-.9-2.2-2.4-2.2-4c0-2.7 2.2-4.8 4.8-4.8H392h16V176H392h-8v0H372.7c-20.3 .1-36.7 16.6-36.7 36.8z"/></svg>