<svg xmlns="http://www.w3.org/2000/svg" viewBox="0 0 640 512"><!--! Font Awesome Pro 6.5.1 by @fontawesome - https://fontawesome.com License - https://fontawesome.com/license (Commercial License) Copyright 2023 Fonticons, Inc. --><path d="M48 80v48H80h48v48V336v48H80 48v48H296V365.4c-50.3-11-88-55.8-88-109.4s37.7-98.4 88-109.4V80H48zM344 365.4V432H592V384H560 512V336 176 128h48 32V80H344v66.6c50.3 11 88 55.8 88 109.4s-37.7 98.4-88 109.4zm0-168.8V315.3c23.5-9.5 40-32.5 40-59.3s-16.5-49.9-40-59.3zm-48 0c-23.5 9.5-40 32.5-40 59.3s16.5 49.9 40 59.3V196.7zM48 176V336H80V176H48zM560 336h32V176H560V336zM0 32H48 592h48V80 432v48H592 48 0V432 80 32z"/></svg>