<svg xmlns="http://www.w3.org/2000/svg" viewBox="0 0 512 512"><!--! Font Awesome Pro 6.5.1 by @fontawesome - https://fontawesome.com License - https://fontawesome.com/license (Commercial License) Copyright 2023 Fonticons, Inc. --><path d="M80 160C80 98.1 130.1 48 192 48h30.3c42.2 0 81.9 10.8 116.4 29.8l8.6 4.7 9.4-2.6L420.6 62l-21.2 39.3-8 14.8 11.2 12.6c38.2 42.8 61.4 99.1 61.4 160.9c0 31.3-12.2 59.8-32 81c0-.9 0-1.8 0-2.6v-8c0-48.6-39.4-88-88-88H328 304v24 20.3l-38.3-37.5-7-6.8h-9.8H216 192 56 48v-8V248v-4.5l3.9-2.3 24.4-14.6 16.9-10.1-6.7-18.5C82.3 186 80 173.3 80 160zM384 368c0 22.1-17.9 40-40 40H238.4L216 352H128l32 80-32 80h88l22.4-56H344h1.7C437.5 456 512 381.5 512 289.7c0-68-23.4-130.5-62.6-179.9l35.8-66.4L496 23.2 476.3 11.4l-8-4.8-8.9-5.3-10 2.8L353 31.1C313.7 11.2 269.3 0 222.3 0H192C103.6 0 32 71.6 32 160c0 11.9 1.3 23.6 3.8 34.8L27.2 200l-15.5 9.3L0 216.3v13.6V248v16 32 24H24 56 192h24 23.1l42.1 41.2 7 6.8H298h30 24V344 320.8c18.3 3.7 32 19.8 32 39.2v8zM184 160a24 24 0 1 0 -48 0 24 24 0 1 0 48 0z"/></svg>