<svg xmlns="http://www.w3.org/2000/svg" viewBox="0 0 640 512"><!--! Font Awesome Pro 6.5.1 by @fontawesome - https://fontawesome.com License - https://fontawesome.com/license (Commercial License) Copyright 2023 Fonticons, Inc. --><path d="M96 0h24H264h12.4l7.2 10.2 96 136 4.4 6.2V160v48 16 48 48H336 48 0V272 208 160H48 96V24 0zM251.6 48H144V160H330.6L251.6 48zM48 208v64H336V224 208H48zM80 400c-17.7 0-32 14.3-32 32s14.3 32 32 32H336c17.7 0 32-14.3 32-32s-14.3-32-32-32H80zM0 432c0-44.2 35.8-80 80-80H336c44.2 0 80 35.8 80 80s-35.8 80-80 80H80c-44.2 0-80-35.8-80-80zm448 32L592 320V207.8 144l-48 42L416 298V234.2L560.4 107.9 592 80.2V49.7L416 202.2V138.7L576 0h16 48V38.2 48v96V320v16 48 48c0 44.2-35.8 80-80 80H448V464z"/></svg>