<svg xmlns="http://www.w3.org/2000/svg" viewBox="0 0 512 512"><!--! Font Awesome Pro 6.5.1 by @fontawesome - https://fontawesome.com License - https://fontawesome.com/license (Commercial License) Copyright 2023 Fonticons, Inc. --><path d="M348.3 442.4c2.4-8.4 3.7-17.3 3.7-26.4V363.5c19.9-18 34.3-41.6 40.4-68.1c-39.3 14.9-86.2 23.5-136.5 23.5s-97.2-8.6-136.5-23.5c6.1 26.6 20.6 50.2 40.6 68.2V416c0 9.2 1.3 18 3.7 26.4C95.1 408.4 48 337.7 48 256C48 141.1 141.1 48 256 48s208 93.1 208 208c0 81.7-47.1 152.4-115.7 186.4zM256 512A256 256 0 1 0 256 0a256 256 0 1 0 0 512zM199.5 234.3l32.2-23.8c-36-48.7-108.2-48.7-144.2 0l32.2 23.8c20-27.1 59.8-27.1 79.8 0zM336.4 232a24 24 0 1 0 0-48 24 24 0 1 0 0 48zm-.4-72a48 48 0 1 1 0 96 48 48 0 1 1 0-96zm0 128a80 80 0 1 0 0-160 80 80 0 1 0 0 160zM320 416c0 35.3-28.7 64-64 64s-64-28.7-64-64V352h48v24h32V352h48v64z"/></svg>