<svg xmlns="http://www.w3.org/2000/svg" viewBox="0 0 512 512"><!--! Font Awesome Pro 6.5.1 by @fontawesome - https://fontawesome.com License - https://fontawesome.com/license (Commercial License) Copyright 2023 Fonticons, Inc. --><path d="M512 80C512 35.8 397.4 0 256 0S0 35.8 0 80s114.6 80 256 80s256-35.8 256-80zm-64 0c0 17.7-86 32-192 32S64 97.7 64 80s86-32 192-32s192 14.3 192 32zM45.6 156.5C26.7 190.7 16 230.1 16 272c0 132.5 107.5 240 240 240s240-107.5 240-240c0-41.9-10.7-81.3-29.6-115.5c-14 5.8-29.6 11.1-46.4 15.6c17.8 29.1 28 63.3 28 99.9c0 106-86 192-192 192S64 378 64 272c0-36.6 10.2-70.8 28-99.9c-16.9-4.6-32.4-9.8-46.4-15.6zM176 208c-28 0-56 40-56 80c0 0 28-32 56-32s56 32 56 32c0-40-28-80-56-80zm80 208c61.9 0 112-36.8 132-66.7L348 322.7C336 340.8 300.1 368 256 368s-80-27.2-92-45.3L124 349.3c19.9 29.9 70 66.7 132 66.7zm24-128s28-32 56-32s56 32 56 32c0-40-28-80-56-80s-56 40-56 80z"/></svg>