<svg xmlns="http://www.w3.org/2000/svg" viewBox="0 0 512 512"><!--! Font Awesome Pro 6.5.1 by @fontawesome - https://fontawesome.com License - https://fontawesome.com/license (Commercial License) Copyright 2023 Fonticons, Inc. --><path d="M464 256c0-114.9-93.1-208-208-208S48 141.1 48 256c0 81.7 47.1 152.4 115.7 186.4c-2.4-8.4-3.7-17.3-3.7-26.4V363.6c-20-18-34.4-41.6-40.6-68.2c39.3 14.9 86.2 23.5 136.5 23.5s97.2-8.6 136.5-23.5c-6.1 26.5-20.5 50.1-40.4 68.1V416c0 9.2-1.3 18-3.7 26.4C416.9 408.4 464 337.7 464 256zM0 256a256 256 0 1 1 512 0A256 256 0 1 1 0 256zm176.4-80a32 32 0 1 1 0 64 32 32 0 1 1 0-64zm128 32a32 32 0 1 1 64 0 32 32 0 1 1 -64 0zM320 416V352H272v24H240V352H192v64c0 35.3 28.7 64 64 64s64-28.7 64-64z"/></svg>