<svg xmlns="http://www.w3.org/2000/svg" viewBox="0 0 512 512"><!--! Font Awesome Pro 6.5.1 by @fontawesome - https://fontawesome.com License - https://fontawesome.com/license (Commercial License) Copyright 2023 Fonticons, Inc. --><path d="M48 464H96v48H48 0V464 48 0H48 256L384 128V288H336V160H224V48H48V464zM160 352h16 64 16v32H240 192v32h32 16v32H224 192v32h48 16v32H240 176 160V496 432 368 352zm144 0h32c30.9 0 56 25.1 56 56s-25.1 56-56 56H320v32 16H288V496 448 368 352h16zm32 80c13.3 0 24-10.7 24-24s-10.7-24-24-24H320v48h16zm117.7-80H480h16v32H480 453.7c-7.5 0-13.7 6.1-13.7 13.7c0 5.2 2.9 9.9 7.6 12.2l31.2 15.6c15.5 7.7 25.2 23.5 25.2 40.8c0 25.2-20.4 45.7-45.7 45.7H424 408V480h16 34.3c7.5 0 13.7-6.1 13.7-13.7c0-5.2-2.9-9.9-7.6-12.2l-31.2-15.6C417.8 430.8 408 415 408 397.7c0-25.2 20.4-45.7 45.7-45.7z"/></svg>