<svg xmlns="http://www.w3.org/2000/svg" viewBox="0 0 512 512"><!--! Font Awesome Pro 6.5.1 by @fontawesome - https://fontawesome.com License - https://fontawesome.com/license (Commercial License) Copyright 2023 Fonticons, Inc. --><path d="M48 464H160v48H48 0V464 48 0H48 256L384 128V288H336V160H224V48H48V464zm176-72c0-22.1 17.9-40 40-40h16c22.1 0 40 17.9 40 40v16H288V392c0-4.4-3.6-8-8-8H264c-4.4 0-8 3.6-8 8v80c0 4.4 3.6 8 8 8h16c4.4 0 8-3.6 8-8v-8H272V432h16 16 16v16 24c0 22.1-17.9 40-40 40H264c-22.1 0-40-17.9-40-40V392zm160-24V496v16H352V496 368 352h32v16zm48-16h48 16v32H480 448v32h32 16v32H480 448v48 16H416V496 432 368 352h16z"/></svg>