<svg xmlns="http://www.w3.org/2000/svg" viewBox="0 0 512 512"><!--! Font Awesome Pro 6.5.1 by @fontawesome - https://fontawesome.com License - https://fontawesome.com/license (Commercial License) Copyright 2023 Fonticons, Inc. --><path d="M48 464H64v48H48 0V464 48 0H48 256L384 128V288H336V160H224V48H48V464zm208-96V496v16H224V496 421.8l-17.9 33.7-13.9 26.2-14.3-26L160 423v73 16H128V496 368 352l16 0 4 0 9.5 0 4.6 8.3 29.7 54 28.5-53.8 4.5-8.5 9.6 0 5.6 0 16 0v16zm192 0v35c0 17.3 3.1 34.4 9.2 50.6l6.8 18.2 6.8-18.2c6.1-16.2 9.2-33.3 9.2-50.6V368 352h32v16 35c0 21.1-3.8 42-11.2 61.8L487 501.6 483.1 512H472 456 444.9L441 501.6l-13.8-36.8C419.8 445 416 424.1 416 403V368 352h32v16zM288 392c0-22.1 17.9-40 40-40h16c22.1 0 40 17.9 40 40v80c0 22.1-17.9 40-40 40H328c-22.1 0-40-17.9-40-40V392zm40-8c-4.4 0-8 3.6-8 8v80c0 4.4 3.6 8 8 8h16c4.4 0 8-3.6 8-8V392c0-4.4-3.6-8-8-8H328z"/></svg>