<svg xmlns="http://www.w3.org/2000/svg" viewBox="0 0 512 512"><!--! Font Awesome Pro 6.5.1 by @fontawesome - https://fontawesome.com License - https://fontawesome.com/license (Commercial License) Copyright 2023 Fonticons, Inc. --><path d="M48 464H96v48H48 0V464 48 0H48 256L384 128V288H336V160H224V48H48V464zM205.7 352H232h16v32H232 205.7c-7.5 0-13.7 6.1-13.7 13.7c0 5.2 2.9 9.9 7.6 12.2l31.2 15.6c15.5 7.7 25.2 23.5 25.2 40.8c0 25.2-20.4 45.7-45.7 45.7H176 160V480h16 34.3c7.5 0 13.7-6.1 13.7-13.7c0-5.2-2.9-9.9-7.6-12.2l-31.2-15.6C169.8 430.8 160 415 160 397.7c0-25.2 20.4-45.7 45.7-45.7zM320 368v35c0 17.3 3.1 34.4 9.2 50.6l6.8 18.2 6.8-18.2c6.1-16.2 9.2-33.3 9.2-50.6V368 352h32v16 35c0 21.1-3.8 42-11.2 61.8L359 501.6 355.1 512H344 328 316.9L313 501.6l-13.8-36.8C291.8 445 288 424.1 288 403V368 352h32v16zm96 24c0-22.1 17.9-40 40-40h16c22.1 0 40 17.9 40 40v16H480V392c0-4.4-3.6-8-8-8H456c-4.4 0-8 3.6-8 8v80c0 4.4 3.6 8 8 8h16c4.4 0 8-3.6 8-8v-8H464V432h16 16 16v16 24c0 22.1-17.9 40-40 40H456c-22.1 0-40-17.9-40-40V392z"/></svg>