<svg xmlns="http://www.w3.org/2000/svg" viewBox="0 0 512 512"><!--! Font Awesome Pro 6.5.1 by @fontawesome - https://fontawesome.com License - https://fontawesome.com/license (Commercial License) Copyright 2023 Fonticons, Inc. --><path d="M48 464h80v48H48 0V464 48 0H48 256L384 128V288H336V160H224V48H48V464zm176-96c0 7.3 2.2 14.4 6.2 20.4l9.8 14.7 9.8-14.7c4-6.1 6.2-13.2 6.2-20.4V352h32v16c0 13.6-4 26.9-11.6 38.2L259.2 432l17.2 25.8C284 469.1 288 482.4 288 496v16H256V496c0-7.3-2.2-14.4-6.2-20.4L240 460.8l-9.8 14.7c-4 6.1-6.2 13.2-6.2 20.4v16H192V496c0-13.6 4-26.9 11.6-38.2L220.8 432l-17.2-25.8C196 394.9 192 381.6 192 368V352h32v16zm96 144V496 368 352h32v16V480h24 16v32H376 336 320zm88-114.3c0-25.2 20.4-45.7 45.7-45.7H480h16v32H480 453.7c-7.5 0-13.7 6.1-13.7 13.7c0 5.2 2.9 9.9 7.6 12.2l31.2 15.6c15.5 7.7 25.2 23.5 25.2 40.8c0 25.2-20.4 45.7-45.7 45.7H432 416V480h16 26.3c7.5 0 13.7-6.1 13.7-13.7c0-5.2-2.9-9.9-7.6-12.2l-31.2-15.6C417.8 430.8 408 415 408 397.7z"/></svg>