<svg xmlns="http://www.w3.org/2000/svg" viewBox="0 0 640 512"><!--! Font Awesome Pro 6.5.1 by @fontawesome - https://fontawesome.com License - https://fontawesome.com/license (Commercial License) Copyright 2023 Fonticons, Inc. --><path d="M288 0l64 64 32-32c76.8 64 96 133.3 96 160c0 88.4-71.6 160-160 160s-160-71.6-160-160c0-89.6 85.3-165.3 128-192zm96 240.2c0-48-64-96-64-96s-64 48-64 96c0 35.3 28.7 64 64 64s64-28.7 64-64zM32 256H56h48 24v48H104 80v80H560V304H536 512V256h24 48 24v24V384h32v48 32 48H592 48 0V464 432 384H32V280 256zM352 448c0 5.8-1.6 11.3-4.3 16h72.6c-2.7-4.7-4.3-10.2-4.3-16s1.6-11.3 4.3-16H347.7c2.7 4.7 4.3 10.2 4.3 16zm128 0c0 5.8-1.6 11.3-4.3 16H592V432H475.7c2.7 4.7 4.3 10.2 4.3 16zM164.3 432H48v32H164.3c-2.7-4.7-4.3-10.2-4.3-16s1.6-11.3 4.3-16zm55.4 0c2.7 4.7 4.3 10.2 4.3 16s-1.6 11.3-4.3 16h72.6c-2.7-4.7-4.3-10.2-4.3-16s1.6-11.3 4.3-16H219.7z"/></svg>