<svg xmlns="http://www.w3.org/2000/svg" viewBox="0 0 640 512"><!--! Font Awesome Pro 6.5.1 by @fontawesome - https://fontawesome.com License - https://fontawesome.com/license (Commercial License) Copyright 2023 Fonticons, Inc. --><path d="M592 48V80H48V48H592zM48 0H0V48 80v48H32V488v24H56h80 24V488 368c0-88.4 71.6-160 160-160s160 71.6 160 160V488v24h24 80 24V488 128h32V80 48 0H592 48zM80 464V128H560V464H528V368c0-114.9-93.1-208-208-208s-208 93.1-208 208v96H80zM297.5 265.6c-29.9 18.7-89.6 71.7-89.6 134.4c0 61.9 50.1 112 112 112s112-50.1 112-112c0-18.7-13.4-67.2-67.2-112l-22.4 22.4-44.8-44.8zm67.2 168.1c0 24.7-20.1 44.8-44.8 44.8s-44.8-20.1-44.8-44.8c0-33.6 44.8-67.2 44.8-67.2s44.8 33.6 44.8 67.2z"/></svg>