<svg xmlns="http://www.w3.org/2000/svg" viewBox="0 0 576 512"><!--! Font Awesome Pro 6.5.1 by @fontawesome - https://fontawesome.com License - https://fontawesome.com/license (Commercial License) Copyright 2023 Fonticons, Inc. --><path d="M57.3 7.3L232 188.5c.1 21.7 5.1 42.8 14.4 61.9l-10.9 10.9L48 66.9V83.6c0 52.8 20.9 103.5 58.2 141l82.8 83.2L155 341.8 72.1 258.5C25.9 212 0 149.1 0 83.6V24 0H24 40 50.2l7.1 7.3zM454.7 488.7L313.3 341.9l12.3-12.3c17.4 8.5 36.6 13.4 56.2 14.2L489.3 455.3l16.7 17.3-34.6 33.3-16.7-17.3zm87-386.9L576 136l0 0L479.2 265.1c-3.3 4.4-7 8.6-10.9 12.6l-1.9 1.9c-20.8 20.8-49 32.5-78.4 32.5c-24.5 0-48.1-8.1-67.3-22.8L116.2 493.8l-17 17L65.3 476.8l17-17L286.8 255.3C272.1 236.1 264 212.5 264 188c0-29.4 11.7-57.6 32.5-78.4l1.9-1.9c3.9-3.9 8.1-7.6 12.6-10.9L440 0l34.3 34.3L339.7 135.2c-2.6 2-5.1 4.1-7.4 6.4l-1.9 1.9C318.6 155.3 312 171.3 312 188c0 16.4 6.4 32.2 17.9 44L344 246.1c11.8 11.5 27.5 17.9 44 17.9c16.7 0 32.7-6.6 44.5-18.4l1.9-1.9c2.3-2.3 4.5-4.8 6.4-7.4L541.7 101.7zM525 85l-4 4L405 205l-17 17L354.1 188l17-17L487 55l4-4L525 85z"/></svg>