<svg xmlns="http://www.w3.org/2000/svg" viewBox="0 0 640 512"><!--! Font Awesome Pro 6.5.1 by @fontawesome - https://fontawesome.com License - https://fontawesome.com/license (Commercial License) Copyright 2023 Fonticons, Inc. --><path d="M564.3 415.3C571.7 404 576 390.5 576 376V136v-9.9l-7-7L481 31l-17-17L430.1 48l17 17 33 33V160c0 29.8 20.4 54.9 48 62V376c0 3.4-.7 6.7-2 9.6L384 275.4V48 0H336 144 96V48v3.8l-47.6-37L29.4 .1 0 38 19 52.7 591.5 497.2l19 14.7L639.9 474l-19-14.7-56.6-43.9zM144 89V48H336V238.1L144 89zM384 398.5l-48-37.8V464H144V209.5L96 171.6V464l-32 0v48H96h48H336h48 32V464l-32 0V398.5z"/></svg>