<svg xmlns="http://www.w3.org/2000/svg" viewBox="0 0 576 512"><!--! Font Awesome Pro 6.5.1 by @fontawesome - https://fontawesome.com License - https://fontawesome.com/license (Commercial License) Copyright 2023 Fonticons, Inc. --><path d="M400 80H48V96c0 97.2 78.8 176 176 176c6.2 0 12.4-.3 18.4-1c-7 15.3-12.4 31.7-15.5 48.9c-1 0-1.9 0-2.9 0c-16.9 0-33.4-1.9-49.3-5.4L151.8 368h72.8c1.4 16.7 4.9 32.8 10.3 48H160c0 35.3-28.7 64-64 64s-64-28.7-64-64s28.7-64 64-64c3.4 0 6.8 .3 10.1 .8L129.2 299C52.9 263.3 0 185.8 0 96V80 32H48 400h48V80 96c0 24.8-4 48.7-11.5 71.1l-39.3-39.3C399 117.4 400 106.8 400 96V80zM96 440a24 24 0 1 0 0-48 24 24 0 1 0 0 48zM384 160l64 64 32-32c76.8 64 96 133.3 96 160c0 88.4-71.6 160-160 160s-160-71.6-160-160c0-89.6 85.3-165.3 128-192zm96 240.2c0-48-64-96-64-96s-64 48-64 96c0 35.3 28.7 64 64 64s64-28.7 64-64z"/></svg>