<svg xmlns="http://www.w3.org/2000/svg" viewBox="0 0 640 512"><!--! Font Awesome Pro 6.5.1 by @fontawesome - https://fontawesome.com License - https://fontawesome.com/license (Commercial License) Copyright 2023 Fonticons, Inc. --><path d="M136 0C60.9 0 0 60.9 0 136v32 36.4l33.5-14.3 41.1-17.6L87 185l7 7H104h13.8L96 512H224L202.2 192H248h24V168v-8h32v32h48V160h0V136 56 32h0V0H304V32H272V24 0H248 136zM304 112H248 224v24 8H113.9L97 127 85.5 115.5l-14.9 6.4-22.4 9.6C50.4 85 88.9 48 136 48h88v8V80h24 56v32zm96 208H592V464H480V416 400H448v16 48H400V320zm48-128l-96 64V464v48h48H592h48V464 256l-96-64V0H448V192zM480 48a16 16 0 1 1 32 0 16 16 0 1 1 -32 0z"/></svg>