<svg xmlns="http://www.w3.org/2000/svg" viewBox="0 0 640 512"><!--! Font Awesome Pro 6.5.1 by @fontawesome - https://fontawesome.com License - https://fontawesome.com/license (Commercial License) Copyright 2023 Fonticons, Inc. --><path d="M199.2 135.1L224 159.9l96 96 96-96 24.8-24.8c14.9-14.9 23.2-35 23.2-56V75.6C464 33.8 430.1-.1 388.4-.1c-23 0-44.7 10.4-59.1 28.4L320 39.9l-9.3-11.6C296.4 10.4 274.6-.1 251.6-.1C209.9-.1 176 33.8 176 75.6v3.6c0 21 8.3 41.1 23.2 56zM144 64H120 24 0V88 392v9.9l7 7 84.8 84.8 17 17 33.9-33.9-17-17L48 382.1V112H96V312v9.9l7 7 7 7 17 17 40 40 16 16 1 1 16 16L233.9 392l-16-16-1-1-16-16-23-23L208 305.9l88 88V488v24h24 24V488 393.9l88-88L462.1 336l-23 23 0 0-16 16-17 17L440 425.9l17-17 16-16 0 0 40-40 17-17 7-7 7-7V312 112h48V382.1l-77.8 77.8-17 17 33.9 33.9 17-17L633 409l7-7V392 88 64H616 520 496V88 302.1l-47-47-17-17-17 17-95 95-95-95-17-17-17 17-47 47V88 64z"/></svg>