<svg xmlns="http://www.w3.org/2000/svg" viewBox="0 0 512 512"><!--! Font Awesome Pro 6.5.1 by @fontawesome - https://fontawesome.com License - https://fontawesome.com/license (Commercial License) Copyright 2023 Fonticons, Inc. --><path d="M112 361.7v19.6V448v16 48H96 64V480 464 381.2c-41-41.9-64-98.3-64-157C0 100.6 100.2 0 224 0h32C357.8 0 441.1 79.2 447.6 179.4l56.3 63.4 8.1 9.1V264v24 16 32H496 480 464 448v48 16 16 32H416 400 368 320v16 16 16 16H288 272V464 448 400h48 80V336 288h48 16V270.1l-52.3-58.8-11-12.3-1.1-16.5C394.8 107.4 332.3 48 256 48H224C126.8 48 48 127 48 224.2c0 46.1 18.1 90.5 50.3 123.4l13.7 14zM256 133.5c11.2 4 21.5 10 30.4 17.6l32.5-18.7 32 55.4-32.5 18.7c1.1 5.7 1.6 11.6 1.6 17.6s-.5 11.9-1.6 17.5l32.5 18.7-32 55.4L286.4 297c-8.9 7.6-19.2 13.6-30.4 17.6V352H192V314.5c-11.2-4-21.5-10-30.4-17.6l-32.5 18.7-32-55.4 32.5-18.7c-1.1-5.7-1.6-11.6-1.6-17.5s.5-11.9 1.6-17.6L97.1 187.7l32-55.4L161.6 151c8.9-7.6 19.1-13.6 30.4-17.6V96h64v37.5zm8 90.5a40 40 0 1 0 -80 0 40 40 0 1 0 80 0z"/></svg>