<svg xmlns="http://www.w3.org/2000/svg" viewBox="0 0 640 512"><!--! Font Awesome Pro 6.5.1 by @fontawesome - https://fontawesome.com License - https://fontawesome.com/license (Commercial License) Copyright 2023 Fonticons, Inc. --><path d="M128 48H336v80H137.9L81 71l-7-7H64 32 2.7L8.5 92.7l24 120 2.4 12.2 11.4 5 139.9 62.2L287 393l7 7H304 552h24V376 280c0-83.9-68.1-152-152-152H384V48H576V0H128V48zm0 128H336V352H313.9l-97-97c-2.1-2.1-4.5-3.8-7.2-5l-132.6-59L63.1 121l48 48c4.5 4.5 10.6 7 17 7zM528 352H384V176h40c57.4 0 104 46.6 104 104v72zM640 488V432H592v32H224v48H616h24V488z"/></svg>