<svg xmlns="http://www.w3.org/2000/svg" viewBox="0 0 576 512"><!--! Font Awesome Pro 6.5.1 by @fontawesome - https://fontawesome.com License - https://fontawesome.com/license (Commercial License) Copyright 2023 Fonticons, Inc. --><path d="M24 0H0V48H24h8v72 9.9l7 7 119 119L39 375l-7 7V392v72H24 0v48H24 330.8c-18.3-12.9-34.1-29.2-46.3-48H80V401.9l112-112 64.5 64.5c1.5-19.3 6-37.7 13.2-54.7L225.9 256 345 137l7-7V120 48h8 24V0H360 24zM304 48v62.1l-112 112L80 110.1V48H304zM576 368a144 144 0 1 0 -288 0 144 144 0 1 0 288 0zM448 288v16 48h32 16v32H480 432 416V368 304 288h32z"/></svg>