<svg xmlns="http://www.w3.org/2000/svg" viewBox="0 0 640 512"><!--! Font Awesome Pro 6.5.1 by @fontawesome - https://fontawesome.com License - https://fontawesome.com/license (Commercial License) Copyright 2023 Fonticons, Inc. --><path d="M288 .5l15.5 13.2L485.7 168.3c-15.6 6.4-29.5 16.2-40.6 28.5L288 63.5 112 212.8V464h80V296 272h24H360h24v24V464h0l0 48H88 64V488 253.5L39.5 274.3 8.5 237.7l264-224L288 .5zM336 464V320H240V464h96zM528 240c-17.7 0-32 14.3-32 32v48h64V272c0-17.7-14.3-32-32-32zm-80 32c0-44.2 35.8-80 80-80s80 35.8 80 80v48h32V512H416V320h32V272z"/></svg>