<svg xmlns="http://www.w3.org/2000/svg" viewBox="0 0 640 512"><!--! Font Awesome Pro 6.5.1 by @fontawesome - https://fontawesome.com License - https://fontawesome.com/license (Commercial License) Copyright 2023 Fonticons, Inc. --><path d="M303.5 13.7L288 .5 272.5 13.7l-264 224 31.1 36.6L64 253.5V488v24H88 394.8c-18.3-12.9-34.1-29.2-46.3-48H336v0H240V320h86.6c4.9-17.2 12.3-33.4 21.8-48H216 192v24V464H112V212.8L288 63.5 447.5 198.8c15.4-4.4 31.7-6.8 48.5-6.8c6.4 0 12.7 .3 18.8 1L303.5 13.7zM496 512a144 144 0 1 0 0-288 144 144 0 1 0 0 288zm16-64H480V416h32v32zm0-176v16 80 16H480V368 288 272h32z"/></svg>