<svg xmlns="http://www.w3.org/2000/svg" viewBox="0 0 576 512"><!--! Font Awesome Pro 6.5.1 by @fontawesome - https://fontawesome.com License - https://fontawesome.com/license (Commercial License) Copyright 2023 Fonticons, Inc. --><path d="M288 .5l15.5 13.2 264 224-31.1 36.6L512 253.5V390.9c-3.8-2.6-7.8-5.5-12.3-8.7l0 0L480 368l-16 11.5V212.8L288 63.5 112 212.8V379.5L96 368 77.4 381.4l-1.1 .8c-4.4 3.2-8.5 6.1-12.3 8.7V253.5L39.5 274.3 8.5 237.7l264-224L288 .5zM256 224v64h64V224H256zm0-48h64 48v48 64 48H320 256 208V288 224 176h48zM79 488.9C59.7 499.8 31.5 512 0 512V464c19.7 0 39.4-7.8 55.3-16.9c15.4-8.7 27.2-19.3 40.2-30.9l.4-.4 .4 .4c13 11.6 24.9 22.2 40.3 30.9c15.9 9 35.6 16.9 55.3 16.9s39.5-7.8 55.3-16.9c15.4-8.7 27-19.1 40-30.7l.7-.6 .7 .6c13 11.6 24.6 22 40 30.7c15.9 9 35.6 16.9 55.3 16.9s39.5-7.8 55.3-16.9c15.4-8.7 27-19.1 40-30.7l.7-.6 .7 .6c13 11.6 24.6 22 40 30.7c15.9 9 35.7 16.9 55.4 16.9v48c-31.5 0-59.8-12.2-79.1-23.1c-6.5-3.7-12.2-7.4-17-10.7c-4.7 3.3-10.5 7-16.9 10.7c-19.3 11-47.6 23.1-79.1 23.1s-59.7-12.2-79.1-23.1c-6.5-3.7-12.2-7.4-16.9-10.7c-4.7 3.3-10.5 7-16.9 10.7c-19.3 11-47.6 23.1-79.1 23.1s-59.7-12.2-79.1-23.1c-6.5-3.7-12.2-7.4-16.9-10.7c-4.7 3.3-10.4 7-16.9 10.7z"/></svg>