<svg xmlns="http://www.w3.org/2000/svg" viewBox="0 0 640 512"><!--! Font Awesome Pro 6.5.1 by @fontawesome - https://fontawesome.com License - https://fontawesome.com/license (Commercial License) Copyright 2023 Fonticons, Inc. --><path d="M288 .5l15.5 13.2L438.4 128.1l-7.3 4.6c-9.6 6-21 14.1-33.1 24.1L288 63.5 112 212.8V464h80V296 272h24 90c-6.8 15.1-12.1 31.1-15.1 48H240V464h84.1c13.6 18.9 30.5 35.1 49.9 48H88 64V488 253.5L39.5 274.3 8.5 237.7l264-224L288 .5zM448 160l64 64 32-32c76.8 64 96 133.3 96 160c0 88.4-71.6 160-160 160s-160-71.6-160-160c0-89.6 85.3-165.3 128-192zm96 240.2c0-48-64-96-64-96s-64 48-64 96c0 35.3 28.7 64 64 64s64-28.7 64-64z"/></svg>