<svg xmlns="http://www.w3.org/2000/svg" viewBox="0 0 640 512"><!--! Font Awesome Pro 6.5.1 by @fontawesome - https://fontawesome.com License - https://fontawesome.com/license (Commercial License) Copyright 2023 Fonticons, Inc. --><path d="M448 288c-16.7 0-32.8-2.6-48-7.3V384H336V242.3c-5.8-5.7-11.1-11.8-16-18.3H288V384H224V224H176V384H112V224H64V384H56 32v48H56 456h24V384H456h-8V288zM256 0L0 144v48H48 301.3c-6.5-14.9-10.8-31.1-12.5-48H97.9L256 55.1l40.1 22.6c5.1-15.4 12.5-29.8 21.8-42.8L256 0zM0 464v48H24 488h24V464H488 24 0zM448 48.1a80 80 0 1 1 0 160 80 80 0 1 1 0-160zm0 208c26.7 0 51.5-8.2 72-22.1l63.1 62.7 17 16.9 33.8-34-17-16.9-63-62.6c13.9-20.5 22.1-45.3 22.1-71.9c0-70.7-57.3-128-128-128s-128 57.3-128 128s57.3 128 128 128z"/></svg>