<svg xmlns="http://www.w3.org/2000/svg" viewBox="0 0 640 512"><!--! Font Awesome Pro 6.5.1 by @fontawesome - https://fontawesome.com License - https://fontawesome.com/license (Commercial License) Copyright 2023 Fonticons, Inc. --><path d="M416 160H368 272 224h-8H192v48h23.3L168.7 464 152 464H128v48h24H288h64H488h24V464H488l-16.7 0L424.7 208H448V160H424h-8zm0-32V101.7 96h16 16V64L416 48 320 0 224 48 192 64V96h16 16v5.7V128h48V96 77.7l48-24 48 24V96v32h48zm-48 80l7.9 0 46.5 256H352V416c0-17.7-14.3-32-32-32s-32 14.3-32 32v48H217.5l46.5-256 7.9 0h96zM33.5 1.9L14.6 46.1l112 48 22.1 9.5 18.9-44.1-22.1-9.5-112-48zM167.5 196.6l-18.9-44.1-22.1 9.5-112 48 18.9 44.1 112-48 22.1-9.5zm327-146.7l-22.1 9.5 18.9 44.1 22.1-9.5 112-48L606.6 1.9l-112 48zm0 156.1l112 48 18.9-44.1-112-48-22.1-9.5-18.9 44.1 22.1 9.5z"/></svg>