<svg xmlns="http://www.w3.org/2000/svg" viewBox="0 0 640 512"><!--! Font Awesome Pro 6.5.1 by @fontawesome - https://fontawesome.com License - https://fontawesome.com/license (Commercial License) Copyright 2023 Fonticons, Inc. --><path d="M457.5 332.4L620.9 459.3l19 14.7-29.4 37.9-19-14.7L19 52.7 0 38 29.4 .1l19 14.7L153.5 96.4C186.6 38.8 248.8 0 320 0C426 0 512 86 512 192c0 39.4-23.7 90.6-54.5 140.4zM191.9 126.2l52.2 40.5C254.7 134.9 284.7 112 320 112c44.2 0 80 35.8 80 80c0 28.2-14.6 53-36.7 67.3l56.1 43.5c7.2-11.9 13.9-23.8 19.9-35.4C456.3 234 464 208.3 464 192c0-79.5-64.5-144-144-144c-55.8 0-104.2 31.8-128.1 78.2zm125.9 97.7c.7 .1 1.5 .1 2.2 .1c17.7 0 32-14.3 32-32s-14.3-32-32-32s-32 14.3-32 32c0 3.5 .6 6.9 1.6 10.1l28.1 21.8zm84.3 188.9c-18.4 24.3-36.1 46-50.3 62.8C332.8 498.1 320 512 320 512s-12.8-13.9-31.8-36.4c-53.5-63.4-156.1-195.2-160.1-278.7l62.6 49.3c2.9 6.7 6.2 13.7 10 21.1c16.4 32.2 38.8 66.4 62.1 98.3c20.3 27.9 40.7 53.3 57.2 73.1c13-15.6 28.5-34.7 44.4-55.8l37.7 29.7z"/></svg>