<svg xmlns="http://www.w3.org/2000/svg" viewBox="0 0 512 512"><!--! Font Awesome Pro 6.5.1 by @fontawesome - https://fontawesome.com License - https://fontawesome.com/license (Commercial License) Copyright 2023 Fonticons, Inc. --><path d="M160 512l48-32 96-64H464h48V368 48 0H464 48 0V48 368v48H48h64 48v38.3V464v48zM277.4 376.1L208 422.3V416 368H160 48V48H464V368H304 289.5l-12.1 8.1zM152 144H132.8C112.5 144 96 160.5 96 180.8c0 12.3 6.2 23.8 16.4 30.7l29.4 19.6c1.3 .9 2.2 2.4 2.2 4c0 2.7-2.2 4.8-4.8 4.8H112 96v32h16 27.2c20.3 0 36.8-16.5 36.8-36.8c0-12.3-6.2-23.8-16.4-30.7l-29.4-19.6c-1.3-.9-2.2-2.4-2.2-4c0-2.7 2.2-4.8 4.8-4.8H152h16V144h-8v0h-8zm40 16v96 16h32V256 208l19.2 25.6L256 250.7l12.8-17.1L288 208v48 16h32V256 160 144H296l-4.8 6.4L256 197.3l-35.2-46.9L216 144H192v16zm144 20.8c0 12.3 6.2 23.8 16.4 30.7l29.4 19.6c1.3 .9 2.2 2.4 2.2 4c0 2.7-2.2 4.8-4.8 4.8H352 336v32h16 27.2c20.3 0 36.8-16.5 36.8-36.8c0-12.3-6.2-23.8-16.4-30.7l-29.4-19.6c-1.3-.9-2.2-2.4-2.2-4c0-2.7 2.2-4.8 4.8-4.8H392h16V144H392h-8v0H372.7c-20.3 .1-36.7 16.6-36.7 36.8z"/></svg>