<svg xmlns="http://www.w3.org/2000/svg" viewBox="0 0 576 512"><!--! Font Awesome Pro 6.5.1 by @fontawesome - https://fontawesome.com License - https://fontawesome.com/license (Commercial License) Copyright 2023 Fonticons, Inc. --><path d="M264 0h24 72 24V48H360 312V96h48 24v48H360 312v83.7c32.5 10.2 56 40.5 56 76.3c0 44.2-35.8 80-80 80s-80-35.8-80-80c0-35.8 23.5-66.1 56-76.3V120 24 0zm24 336a32 32 0 1 0 0-64 32 32 0 1 0 0 64zM136.6 303.1c11.8 6.7 25.8 12.8 40.3 15.4c2.4 18.2 9.1 35 19.1 49.4c-1.3 0-2.7 .1-4.1 .1c-31.5 0-59.7-12.2-79.1-23.1c-6.5-3.7-12.2-7.4-16.9-10.7c-4.7 3.3-10.4 7-16.9 10.7C59.7 355.8 31.5 368 0 368V320c19.7 0 39.4-7.8 55.3-16.9c15.4-8.7 27.2-19.3 40.2-30.9l.4-.4 .4 .4c13 11.6 24.9 22.2 40.3 30.9zM288 416l-.2 0-.5 .4c-13 11.6-24.6 22-40 30.7c-15.9 9-35.6 16.9-55.3 16.9s-39.5-7.8-55.3-16.9c-15.4-8.7-27.2-19.3-40.3-30.9l-.4-.4m192.2 .2l-.2 0zm.5 .4l-.5-.4zm0 0l0 0zm0 0l0 0zm40 30.7c-15.4-8.7-27-19.1-40-30.7zM384 464c-19.7 0-39.5-7.8-55.3-16.9zm55.3-16.9c-15.9 9-35.6 16.9-55.3 16.9zm40-30.7c-13 11.6-24.6 22-40 30.7zm0 0l0 0zm.7-.6l-.7 .6zm.7 .6l-.7-.6zm40 30.7c-15.4-8.7-27-19.1-40-30.7zm0 0c15.9 9 35.7 16.9 55.4 16.9zM576 512V464zm-79.1-23.1c19.3 11 47.6 23.1 79.1 23.1zm-17-10.7c4.8 3.3 10.5 7 17 10.7zM463 488.9c6.5-3.7 12.2-7.4 16.9-10.7zM384 512c31.5 0 59.7-12.2 79.1-23.1zm-79.1-23.1c19.3 11 47.6 23.1 79.1 23.1zM288 478.2c4.7 3.3 10.5 7 16.9 10.7zM271 488.9c6.5-3.7 12.2-7.4 16.9-10.7zM192 512c31.5 0 59.7-12.2 79.1-23.1zm-79.1-23.1c19.3 11 47.6 23.1 79.1 23.1zM96 478.2c4.7 3.3 10.5 7 16.9 10.7zM79 488.9c6.5-3.7 12.2-7.4 16.9-10.7zM0 512c31.5 0 59.7-12.2 79-23.1zm0-48v48zm55.3-16.9C39.4 456.2 19.7 464 0 464zm40.2-30.9c-13 11.6-24.8 22.2-40.2 30.9zm303.5-97.6c14.5-2.7 28.4-8.7 40.3-15.4c15.4-8.7 27-19.1 40-30.7l.7-.6 .7 .6 0 0 0 0c13 11.6 24.6 22 40 30.7c15.9 9 35.7 16.9 55.4 16.9v48c-31.5 0-59.7-12.2-79.1-23.1c-6.5-3.7-12.2-7.4-17-10.7c-4.8 3.3-10.5 7-16.9 10.7c-19.3 11-47.6 23.1-79.1 23.1c-1.3 0-2.7 0-4-.1c10-14.4 16.7-31.2 19.1-49.4z"/></svg>