<svg xmlns="http://www.w3.org/2000/svg" viewBox="0 0 512 512"><!--! Font Awesome Pro 6.5.1 by @fontawesome - https://fontawesome.com License - https://fontawesome.com/license (Commercial License) Copyright 2023 Fonticons, Inc. --><path d="M192 64A64 64 0 1 0 64 64a64 64 0 1 0 128 0zM78 208H178l4 96H144 112 74l4-96zM24 352H64V488v24h48V488 352h32V488v24h48V488 352h40l-2-48-6-144H32L26 304l-2 48zM448 64A64 64 0 1 0 320 64a64 64 0 1 0 128 0zM356.2 208h55.6l36.6 128H319.6l36.6-128zM448 160H320L269.7 336 256 384h49.9H320V488v24h48V488 384h32V488v24h48V488 384h14.1H512l-13.7-48L448 160z"/></svg>