<svg xmlns="http://www.w3.org/2000/svg" viewBox="0 0 512 512"><!--! Font Awesome Pro 6.5.1 by @fontawesome - https://fontawesome.com License - https://fontawesome.com/license (Commercial License) Copyright 2023 Fonticons, Inc. --><path d="M192 64A64 64 0 1 0 64 64a64 64 0 1 0 128 0zM78 208H178l4 96H144 112 74l4-96zM24 352H64V488v24h48V488 352h32V488v24h48V488 352h40l-2-48-6-144H32L26 304l-2 48zM448 64A64 64 0 1 0 320 64a64 64 0 1 0 128 0zM334 208H434l4 96H400 368 330l4-96zM280 352h40V488v24h48V488 352h32V488v24h48V488 352h40l-2-48-6-144H288l-6 144-2 48z"/></svg>