<svg xmlns="http://www.w3.org/2000/svg" viewBox="0 0 640 512"><!--! Font Awesome Pro 6.5.1 by @fontawesome - https://fontawesome.com License - https://fontawesome.com/license (Commercial License) Copyright 2023 Fonticons, Inc. --><path d="M384 64A64 64 0 1 0 256 64a64 64 0 1 0 128 0zM292.2 208h55.6l36.6 128H255.6l36.6-128zM384 160H256L205.7 336 192 384h49.9H256V488v24h48V488 384h32V488v24h48V488 384h14.1H448l-13.7-48L384 160zM34.9 32H24 0V56v56c0 86.7 40.6 163.9 103.7 213.7C78.7 360 64 402.3 64 448v8 24H88h24c41.2 0 79.7-12 112-32.7V416H181.8c-20.9 10.2-44.3 15.9-69.1 16c2.9-29 13.5-55.7 29.7-78l13.6-18.7 13.6-18.7-18.1-14.3L133.4 288C81.3 246.9 48 183.4 48 112V80.4c69.6 3.8 131.2 37.6 172.1 88.7l15.5-54.4C184.1 63.6 113.2 32 34.9 32zM527.2 432c-24.7-.1-48.2-5.8-69.1-16H416v31.3C448.3 468 486.8 480 528 480h24 24V456v-8c0-45.7-14.7-88-39.7-122.3C599.4 275.9 640 198.7 640 112V56 32H616 605.1c-78.3 0-149.3 31.6-200.8 82.7l15.5 54.4C460.8 118 522.4 84.2 592 80.4V112c0 71.4-33.3 134.9-85.4 176l-18.1 14.3-18.1 14.3 13.6 18.7L497.5 354c16.3 22.3 26.9 49 29.7 78z"/></svg>