<svg xmlns="http://www.w3.org/2000/svg" viewBox="0 0 640 512"><!--! Font Awesome Pro 6.5.1 by @fontawesome - https://fontawesome.com License - https://fontawesome.com/license (Commercial License) Copyright 2023 Fonticons, Inc. --><path d="M462.1 336H502c20.2 0 44.9-7.8 64.5-19.6C585 305.4 608 285.1 608 256c0-14.7-6.3-27.2-13.9-36.7c-7.6-9.5-17.4-17.3-27.5-23.3c-19.6-11.9-44.3-20-64.6-20l-99.5 0L308.8 12.1 301.9 0H288 208 176.2l8.7 30.6L218 146.5 48.4 14.8 29.4 .1 0 38 19 52.7 591.5 497.2l19 14.7L639.9 474l-19-14.7L462.1 336zM282.2 196.3l-.8-2.9L239.8 48h34.3l93.7 163.9 6.9 12.1h13.9L502 224c9.6 0 25.8 4.6 39.7 13c6.7 4.1 11.8 8.4 14.9 12.3c3.1 3.9 3.3 6.1 3.3 6.7c0 2.4-3 10.1-18.1 19.2C528 283.6 511.8 288 502 288H400.3L282.2 196.3zm89.9 192.9l-38.1-30L274.1 464H239.8l41.5-145.4 .2-.7L243.7 288 184 288H172l-7.2 9.6L124 352H97.3l29.5-88.4 2.5-7.6-2.5-7.6L103 177.2 34.4 123.1l6.8 20.5L78.7 256 41.2 368.4 30.7 400H64h72 12l7.2-9.6L196 336l30.5 0L184.9 481.4 176.2 512H208l80 0h13.9l6.9-12.1 63.3-110.7z"/></svg>