<svg xmlns="http://www.w3.org/2000/svg" viewBox="0 0 640 512"><!--! Font Awesome Pro 6.5.1 by @fontawesome - https://fontawesome.com License - https://fontawesome.com/license (Commercial License) Copyright 2023 Fonticons, Inc. --><path d="M493.3 360.2l52.2 14.9 30.6 8.7V352 272 258.1l-12.1-6.9L400 157.5V106c0-20.2-7.8-44.9-19.6-64.5C369.4 23.1 349.1 0 320 0c-14.7 0-27.2 6.3-36.7 13.9c-9.5 7.6-17.3 17.4-23.3 27.5c-11.9 19.6-20 44.3-20 64.6v51.5l-4.5 2.6L48.4 14.8 29.4 .1 0 38 19 52.7 591.5 497.2l19 14.7L639.9 474l-19-14.7L493.3 360.2zM276.5 191.9l11.5-6.6V171.4 106c0-9.6 4.6-25.8 13-39.7c4.1-6.7 8.4-11.8 12.3-14.9c3.9-3.1 6.1-3.3 6.7-3.3c2.4 0 10.1 3 19.2 18.1C347.6 80 352 96.2 352 106v65.5 13.9l12.1 6.9L528 285.9v34.3l-136.5-39-115-89.3zM464 461.6l-48-37.8v36.7l-88.9-27.4-7.1-2.2-7.1 2.2L224 460.4V428l54.4-40.8L288 380V368l0-45.1L238.6 284 112 320.2V285.9l74.8-42.7-40.7-32-70 40L64 258.1V272v80 31.8l30.6-8.7L240 333.5l0 22.5-54.4 40.8L176 404v12 72 24h24 16 3.6l3.4-1.1L320 481.1l96.9 29.8 3.4 1.1H424h16 24V488 461.6z"/></svg>