<svg xmlns="http://www.w3.org/2000/svg" viewBox="0 0 512 512"><!--! Font Awesome Pro 6.5.1 by @fontawesome - https://fontawesome.com License - https://fontawesome.com/license (Commercial License) Copyright 2023 Fonticons, Inc. --><path d="M201.1 57.3C194.1 62.5 192 68 192 72c0 4.5 2.8 11.2 12.4 16.9l11.6 7v13.6V120v24H192 48v60.5c7.4-2.9 15.5-4.5 24-4.5c43.1 0 72 39.4 72 80s-28.9 80-72 80c-8.5 0-16.6-1.6-24-4.5V464H156.5c-2.9-7.4-4.5-15.5-4.5-24c0-43.1 39.4-72 80-72s80 28.9 80 72c0 8.5-1.6 16.6-4.5 24H368V320 296h24 10.5 13.6l7 11.6c5.8 9.6 12.4 12.4 16.9 12.4c4 0 9.5-2.1 14.7-9.1s9.3-17.9 9.3-30.9s-4-23.8-9.3-30.9s-10.7-9.1-14.7-9.1c-4.5 0-11.2 2.8-16.9 12.4l-7 11.6H402.5 392 368V240 144H272 248V120 109.5 95.9l11.6-7C269.2 83.2 272 76.5 272 72c0-4-2.1-9.5-9.1-14.7S245 48 232 48s-23.8 4-30.9 9.3zM172.3 18.9C188.5 6.8 209.6 0 232 0s43.5 6.8 59.7 18.9S320 49.5 320 72c0 8.6-1.8 16.7-4.9 24H392h24v24 76.9c7.3-3.1 15.4-4.9 24-4.9c22.5 0 41 12.2 53.1 28.3S512 257.6 512 280s-6.8 43.5-18.9 59.7S462.5 368 440 368c-8.6 0-16.7-1.8-24-4.9V488v24H392 272 248V488 473.6 462.7l8.2-7.2c5.4-4.7 7.8-10.3 7.8-15.5c0-9.9-10.7-24-32-24s-32 14.1-32 24c0 5.3 2.4 10.8 7.8 15.5l8.2 7.2v10.9V488v24H192 24 0V488 320 296H24 38.4 49.3l7.2 8.2c4.7 5.4 10.3 7.8 15.5 7.8c9.9 0 24-10.7 24-32s-14.1-32-24-32c-5.3 0-10.8 2.4-15.5 7.8L49.3 264H38.4 24 0V240 120 96H24 148.9c-3.1-7.3-4.9-15.4-4.9-24c0-22.5 12.2-41 28.3-53.1z"/></svg>