<svg xmlns="http://www.w3.org/2000/svg" viewBox="0 0 512 512"><!--! Font Awesome Pro 6.5.1 by @fontawesome - https://fontawesome.com License - https://fontawesome.com/license (Commercial License) Copyright 2023 Fonticons, Inc. --><path d="M296 0h-8-3.4H224h-9.9l-4.4 8.8-16 32-3 5.9 2.1 6.3L207 95.5l-33.6 41.4-5.4 6.6V152v40 17.9l17.1 5.1 76.6 23 45 30 6 4H320h32 7.3l6-4 45-30 76.6-23 17.1-5.1V192 152v-8l-4.8-6.4L465.8 93.1l13.3-40 2.1-6.3-3-5.9-16-32L457.9 0H448 396 384 296zM216 160.5l24.5-30.2 38.8-23.3c14.4-8.6 32.9-.4 36.2 16c1.8 8.9-1.6 18-8.6 23.7l-49.6 39.7L216 174.1V160.5zM336 93.1c-11.4-14.5-29.5-22.5-47.8-21.4L307.4 48H372l18.4 24.5c-20.6-3.8-41.6 4.4-54.4 20.6zm0 69.5c2.6 3.4 5.7 6.5 9.1 9.2l35.4 28.3-20.6 13.8C358.8 201.6 348.5 192 336 192s-22.8 9.6-23.9 21.9l-20.6-13.8 35.4-28.3c3.4-2.7 6.5-5.8 9.1-9.2zm78.8 23.9l-49.6-39.7c-7.1-5.7-10.4-14.8-8.6-23.7c3.3-16.4 21.9-24.7 36.2-16l42.9 25.7L456 160v14.1l-41.2 12.4zM144 244.4V56 32H120 24 0V56 200v24V392c0 66.3 53.7 120 120 120H456h24V488 464v-8c0-39.8-32.2-72-72-72H384v48h24c13.3 0 24 10.7 24 24v8H352v-8c0-39.8-32.2-72-72-72H232 208v48h24 48c13.3 0 24 10.7 24 24v8H120c-39.8 0-72-32.2-72-72V360H82.4c-1.6 10.4-2.4 21.1-2.4 32v24h48V392c0-54.6 27.3-102.8 69.1-131.7l-23.5-7L144 244.4zM96 311.9l-.1 .1H48V264H96v47.9zM96 216H48V200 168H96v48zm0-96H48V80H96v40zM332.7 323.6l-64-40-20.4-12.7-25.4 40.7 20.4 12.7 64 40 25.4-40.7zm102.6-40l-64 40 25.4 40.7 64-40 20.4-12.7-25.4-40.7-20.4 12.7zM288 144a16 16 0 1 0 0-32 16 16 0 1 0 0 32zm112-16a16 16 0 1 0 -32 0 16 16 0 1 0 32 0z"/></svg>