<svg xmlns="http://www.w3.org/2000/svg" viewBox="0 0 512 512"><!--! Font Awesome Pro 6.5.1 by @fontawesome - https://fontawesome.com License - https://fontawesome.com/license (Commercial License) Copyright 2023 Fonticons, Inc. --><path d="M418 187.1C391.2 124.1 328.7 80 256 80c-39.7 0-77.8 15.8-105.9 43.9L145 129l21.1 21.1L200 184l-33.9 33.9L160 224H64 16V176 80l6.1-6.1L56 40 89.9 73.9 111 95l5.1-5.1C153.2 52.8 203.5 32 256 32c92.6 0 172.1 56.2 206.2 136.3L418 187.1zM94.1 325.2C121 388.1 183.4 432 256 432c39.7 0 77.8-15.8 105.9-43.9L367 383l-21.1-21.1L312 328l33.9-33.9L352 288h96 48v48 96l-6.1 6.1L456 472l-33.9-33.9L401 417l-5.1 5.1C358.8 459.2 308.5 480 256 480c-92.5 0-171.8-56-206-135.9l44.1-18.9zm30-149.2L64 115.9V176h60.1zM387.9 336L448 396.1V336H387.9z"/></svg>