<svg xmlns="http://www.w3.org/2000/svg" viewBox="0 0 512 512"><!--! Font Awesome Pro 6.5.1 by @fontawesome - https://fontawesome.com License - https://fontawesome.com/license (Commercial License) Copyright 2023 Fonticons, Inc. --><path d="M256 80c-72.7 0-135.2 44.1-162 107.1L49.8 168.3C83.9 88.2 163.4 32 256 32c52.5 0 102.8 20.8 139.9 57.9L448 142.1V88 64h48V88 200v24H472 360 336V176h24 54.1l-52.1-52.1C333.8 95.8 295.7 80 256 80zM116.1 422.1L64 369.9V424v24H16V424 312 288H40 152h24v48H152 97.9l52.1 52.1C178.2 416.2 216.3 432 256 432c72.6 0 135-43.9 161.9-106.8L462 344.1C427.8 424 348.5 480 256 480c-52.5 0-102.8-20.8-139.9-57.9zM280 128v24V264v24H232V264 152 128h48zM232 368V320h48v48H232z"/></svg>