<svg xmlns="http://www.w3.org/2000/svg" viewBox="0 0 640 512"><!--! Font Awesome Pro 6.5.1 by @fontawesome - https://fontawesome.com License - https://fontawesome.com/license (Commercial License) Copyright 2023 Fonticons, Inc. --><path d="M0 153.6C0 81.9 68.3 21.3 102.4 0l51.2 51.2 25.6-25.6c61.4 51.2 76.8 106.7 76.8 128c0 7.6-.7 15.1-2 22.4H176.4c-10.6-32.3-48.4-60.7-48.4-60.7s-37.8 28.3-48.4 60.7H2c-1.3-7.3-2-14.8-2-22.4zM478.1 64H488h88 9.9l7 7 40 40 7 7V128v32 24H616 539.1L312.2 449.8c-33.7 39.5-83 62.2-134.9 62.2h-5.5C76.9 512 0 435.1 0 340.2c0-9.5 .8-18.9 2.3-28.2l9.3-56H0V208H19.7 24 40 232h16 18.3H272v48H248.8l-20.2 55.4 1 .8L318 224l-16-16L336 174.1l16 16L366 176l-16-16L384 126.1l16 16L414 128l-16-16L432 78.1l16 16 23-23 7-7zM249 360.8l-14.7 14.7-16.6-12.4-32-23.8-14.3-10.7 6.1-16.8L197.7 256H60.3L49.7 319.9c-1.1 6.7-1.7 13.5-1.7 20.3C48 408.6 103.4 464 171.8 464h5.5c37.8 0 73.8-16.6 98.3-45.4L509.7 144.4l7.2-8.4H528h62.1l-24-24H497.9l-16 16 0 0L448 161.9l0 0L433.9 176l0 0L400 209.9l0 0L385.9 224l0 0L352 257.9l0 0L249 360.8zM120 288a24 24 0 1 1 0 48 24 24 0 1 1 0-48z"/></svg>