<svg xmlns="http://www.w3.org/2000/svg" viewBox="0 0 640 512"><!--! Font Awesome Pro 6.5.1 by @fontawesome - https://fontawesome.com License - https://fontawesome.com/license (Commercial License) Copyright 2023 Fonticons, Inc. --><path d="M48 80H400v75.1c11.3-9.2 21.9-16.7 31-22.4l17-10.6V80 32H400 48 0V80 432v48H48 337c-12.8-14.2-23.5-30.4-31.5-48H48V80zm96 72V128H96v24V264v24h48V264 152zm96 0V128H192v24V264v24h48V264 152zm208 8c-42.7 26.7-128 102.4-128 192c0 88.4 71.6 160 160 160s160-71.6 160-160c0-26.7-19.2-96-96-160l-32 32-64-64zm96 240.2c0 35.3-28.7 64-64 64s-64-28.7-64-64c0-48 64-96 64-96s64 48 64 96z"/></svg>