<svg xmlns="http://www.w3.org/2000/svg" viewBox="0 0 640 512"><!--! Font Awesome Pro 6.5.1 by @fontawesome - https://fontawesome.com License - https://fontawesome.com/license (Commercial License) Copyright 2023 Fonticons, Inc. --><path d="M624 512v0H576 544v0h80zm0-50.3L639.9 474l-29.4 37.9-19-14.7L19 52.7 0 38 29.4 .1l19 14.7L336 238.1V176 128h48 32 48v48V337.5l32 24.8V48 0h48 32 48V48 461.7zm-80-62.1l32 24.8V48H544V399.6zM416 300.2V176H384v99.4l32 24.8zm-32 98.3V464h32V423.8l48 37.8V464v48H416 384 336V464 360.7l48 37.8zM203.1 256L304 335.5V464v48H256 224 176V464 304 256h27.1zM224 304V464h32V304H224zM96 432H64v32H96V432zM64 384H96h48v48 32 48H96 64 16V464 432 384H64z"/></svg>