<svg xmlns="http://www.w3.org/2000/svg" viewBox="0 0 640 512"><!--! Font Awesome Pro 6.5.1 by @fontawesome - https://fontawesome.com License - https://fontawesome.com/license (Commercial License) Copyright 2023 Fonticons, Inc. --><path d="M544 48V464h32V48H544zM496 0h48 32 48V48 464v48H576 544 496V464 48 0zM384 176V464h32V176H384zm-48-48h48 32 48v48V464v48H416 384 336V464 176 128zM256 304H224V464h32V304zm-32-48h32 48v48V464v48H256 224 176V464 304 256h48zM64 432v32H96V432H64zM16 384H64 96h48v48 32 48H96 64 16V464 432 384z"/></svg>