<svg xmlns="http://www.w3.org/2000/svg" viewBox="0 0 640 512"><!--! Font Awesome Pro 6.5.1 by @fontawesome - https://fontawesome.com License - https://fontawesome.com/license (Commercial License) Copyright 2023 Fonticons, Inc. --><path d="M48.4 14.8L29.4 .1 0 38 19 52.7 591.5 497.2l19 14.7L639.9 474l-19-14.7-12.9-10V432 80 32H560 80 70.5L48.4 14.8zm84 65.2H560V412l-48-37.3V336H488 462.1l-61.8-48H408h80 24V240H488 408 384v35.4L132.4 80zM32 432v48H80 487.4l-60.9-48H80V159L32 121.2V432zM152 240H128v48h24 91.7l-60.9-48H152zm136 96v48h24 53.5l-60.9-48H288zm-160 0v48h24 80 24V336H232 152 128z"/></svg>