<svg xmlns="http://www.w3.org/2000/svg" viewBox="0 0 640 512"><!--! Font Awesome Pro 6.5.1 by @fontawesome - https://fontawesome.com License - https://fontawesome.com/license (Commercial License) Copyright 2023 Fonticons, Inc. --><path d="M64 160H16V120l7.5-8L95.2 35.2 128 0l32.8 35.2L232.5 112l7.5 8v40H192 152V432H296V56 32h24l192 0h24V56 212 352h40 48v40l-7.5 8-71.7 76.8L512 512l-32.8-35.2L407.5 400l-7.5-8V352h48 40V212l0-132L344 80V456v24H320 128 104V456 160H64zm102.9-48L128 70.3 89.1 112h77.7zm384 288H473.1L512 441.7 550.9 400z"/></svg>