<svg xmlns="http://www.w3.org/2000/svg" viewBox="0 0 640 512"><!--! Font Awesome Pro 6.5.1 by @fontawesome - https://fontawesome.com License - https://fontawesome.com/license (Commercial License) Copyright 2023 Fonticons, Inc. --><path d="M423.9 48l-.1 0C393.1 48 368 73.1 368 104v8.7l-5.6 6.7-40 48-7.2 8.6H304 288c-61.9 0-112 50.1-112 112v24H152 112 96.6l-6.4-13.9L61.3 235.4l-4.7 11.8c-5.7 14.2-8.6 29.3-8.6 44.6V296c0 57.4 46.6 104 104 104h40V376 352h48v24 30.1L297.9 464H384V448c0-8.8-7.2-16-16-16H344 331.2L324 421.3l-16-24L299.8 385l7.4-12.9L336 321.6V320c0-26.5-21.5-48-48-48H272V224h16c53 0 96 43 96 96v8 6.4l-3.2 5.5L356.2 383l.6 1H368c35.3 0 64 28.7 64 64v40 24H408 288h-9.9l-7-7-57-57H152C68.1 448 0 379.9 0 296v-4.3c0-21.4 4.1-42.5 12-62.4l21.7-54.3 6-15.1H56h8H79.4l6.4 13.9L127.4 264h2.4c11.6-77 78-136 158.2-136h4.8l27.6-33.2C325 41.8 369.5 0 423.8 0h.1 .1 88 14.8l6.6 13.3 9.5 19C597.1 35.8 640 80.9 640 136v64 24H616 588l-16.8 22.4L564 256H552 460l-15.3 20.5 55 30.6 12.3 6.9V328v32 24H464V360 342.1l-48.1-26.7c-.7-21.5-6.4-41.6-15.9-59.4l28.8-38.4L436 208h12 92l-12 0h-6.6l-4.7-4.7L489.4 176H464 448V144h16 32 6.6l4.7 4.7L534.6 176l57.4 0V136c0-30.9-25.1-56-56-56h-8H513.2l-6.6-13.3L497.2 48H424l-.1 0 0 0zM456 88a16 16 0 1 1 32 0 16 16 0 1 1 -32 0z"/></svg>