<svg xmlns="http://www.w3.org/2000/svg" viewBox="0 0 640 512"><!--! Font Awesome Pro 6.5.1 by @fontawesome - https://fontawesome.com License - https://fontawesome.com/license (Commercial License) Copyright 2023 Fonticons, Inc. --><path d="M0 64v48V400v48H48 592h48V400 352 304H616c-26.5 0-48-21.5-48-48s21.5-48 48-48h24V160 112 64H592 48 0zM592 400H48V112H592v51c-41.4 10.7-72 48.2-72 93s30.6 82.3 72 93v51zM448 160a16 16 0 1 0 -32 0 16 16 0 1 0 32 0zm0 64a16 16 0 1 0 -32 0 16 16 0 1 0 32 0zm-16 80a16 16 0 1 0 0-32 16 16 0 1 0 0 32zm16 48a16 16 0 1 0 -32 0 16 16 0 1 0 32 0z"/></svg>