<svg xmlns="http://www.w3.org/2000/svg" viewBox="0 0 640 512"><!--! Font Awesome Pro 6.5.1 by @fontawesome - https://fontawesome.com License - https://fontawesome.com/license (Commercial License) Copyright 2023 Fonticons, Inc. --><path d="M96 80V32h48H592h48V80v40 48c-22.1 0-40 17.9-40 40s17.9 40 40 40v48 40 48H592 144 96V336 296 248c22.1 0 40-17.9 40-40s-17.9-40-40-40V120 80zm48 54.2c24.1 15.7 40 42.9 40 73.8s-15.9 58.1-40 73.8V336H592V281.8c-24.1-15.7-40-42.9-40-73.8s15.9-58.1 40-73.8V80H144v54.2zM48 96v24V432H520h24v48H520 24 0V456 120 96H48zm224 80v64H464V176H272zm-48-48h48H464h48v48 64 48H464 272 224V240 176 128z"/></svg>