<svg xmlns="http://www.w3.org/2000/svg" viewBox="0 0 640 512"><!--! Font Awesome Pro 6.5.1 by @fontawesome - https://fontawesome.com License - https://fontawesome.com/license (Commercial License) Copyright 2023 Fonticons, Inc. --><path d="M96 32V80v40 48c22.1 0 40 17.9 40 40s-17.9 40-40 40v48 40 48h48H592h48V336 296 248c-22.1 0-40-17.9-40-40s17.9-40 40-40V120 80 32H592 144 96zm88 176c0-30.9-15.9-58.1-40-73.8V80H592v54.2c-24.1 15.7-40 42.9-40 73.8s15.9 58.1 40 73.8V336H144V281.8c24.1-15.7 40-42.9 40-73.8zM48 120V96H0v24V456v24H24 520h24V432H520 48V120z"/></svg>