<svg xmlns="http://www.w3.org/2000/svg" viewBox="0 0 640 512"><!--! Font Awesome Pro 6.5.1 by @fontawesome - https://fontawesome.com License - https://fontawesome.com/license (Commercial License) Copyright 2023 Fonticons, Inc. --><path d="M512 374.7V128h32V80H512 464 450.2L404 10.7 396.8 0H384 256 243.2L236 10.7 189.8 80H176 132.4l-84-65.2L29.4 .1 0 38 19 52.7 591.5 497.2l19 14.7L639.9 474l-19-14.7L512 374.7zm-48-37.3l-48-37.3V192 176H384v16 83.4l-48-37.3V192 176H304v16 21.2L194.2 128H464V337.5zm0 124.1V464H176V234.7l-48-37.8V464v48h48H464h48V499.4l-48-37.8zM304 335.5V400v16h32V400 360.7l-32-25.2zm-80-63V400v16h32V400 297.7l-32-25.2zM247.5 80l21.3-32H371.2l21.3 32h-145z"/></svg>