<svg xmlns="http://www.w3.org/2000/svg" viewBox="0 0 640 512"><!--! Font Awesome Pro 6.5.1 by @fontawesome - https://fontawesome.com License - https://fontawesome.com/license (Commercial License) Copyright 2023 Fonticons, Inc. --><path d="M640 0H0V48H32V96H0v48V368v48H48 64c0 53 43 96 96 96s96-43 96-96H384c0 53 43 96 96 96s96-43 96-96h16 48V368 144 96H592 544c0-17.7-14.3-32-32-32s-32 14.3-32 32H384V48H640V0zM336 48V96H280V48h56zm0 96h48v80H48V144H336zM48 368V272H408h24V248 144H592V368H563.2c-16.6-28.7-47.6-48-83.2-48s-66.6 19.3-83.2 48H243.2c-16.6-28.7-47.6-48-83.2-48s-66.6 19.3-83.2 48H48zM232 48V96H184V48h48zm-96 0V96H80V48h56zM112 416a48 48 0 1 1 96 0 48 48 0 1 1 -96 0zm368-48a48 48 0 1 1 0 96 48 48 0 1 1 0-96zm80-192H464v96h96V176z"/></svg>