<svg xmlns="http://www.w3.org/2000/svg" viewBox="0 0 640 512"><!--! Font Awesome Pro 6.5.1 by @fontawesome - https://fontawesome.com License - https://fontawesome.com/license (Commercial License) Copyright 2023 Fonticons, Inc. --><path d="M48 48V368H76.8c16.6-28.7 47.6-48 83.2-48s66.6 19.3 83.2 48H320h48V48H48zM480 512c-53 0-96-43-96-96h-8-8H320 256c0 53-43 96-96 96s-96-43-96-96H48 0V368 48 0H48 368h48V48 96h56 9.9l7 7L601 215l7 7V232 368h8 24v48H616 576c0 53-43 96-96 96zm78.1-272l-96-96H416v96H558.1zM160 464a48 48 0 1 0 0-96 48 48 0 1 0 0 96zm368-48a48 48 0 1 0 -96 0 48 48 0 1 0 96 0zM97.2 167.7L112 80h16l5.3 94.9H144L152 80h16l8 94.9h10.7L192 80h16l14.8 87.7c.8 4.8 1.2 9.6 1.2 14.5c0 27.9-21 50.9-48 54.2V272v16H144V272 236.4c-27-3.2-48-26.3-48-54.2c0-4.9 .4-9.7 1.2-14.5zM304 112v16V240v64 16H272V304 240H240v-69c0-70.7 52-90.9 52-90.9h12v32z"/></svg>