<svg xmlns="http://www.w3.org/2000/svg" viewBox="0 0 640 512"><!--! Font Awesome Pro 6.5.1 by @fontawesome - https://fontawesome.com License - https://fontawesome.com/license (Commercial License) Copyright 2023 Fonticons, Inc. --><path d="M0 0V48H32v96H0v48H352V144H320V48h32V0H0zM272 144H240V48h32v96zM160 48h32v96H160V48zm-48 96H80V48h32v96zM408 96H384v24V224H24 0v24V392v24H24 64c0 53 43 96 96 96s96-43 96-96H384c0 53 43 96 96 96s96-43 96-96h40 24V392 240v-8.4l-5.3-6.6-96-120-7.2-9H520 408zM76.8 368H48V272H384h48H592v96H563.2c-16.6-28.7-47.6-48-83.2-48s-66.6 19.3-83.2 48H243.2c-16.6-28.7-47.6-48-83.2-48s-66.6 19.3-83.2 48zM432 224V144h76.5l64 80H432zM112 416a48 48 0 1 1 96 0 48 48 0 1 1 -96 0zm368-48a48 48 0 1 1 0 96 48 48 0 1 1 0-96z"/></svg>