<svg xmlns="http://www.w3.org/2000/svg" viewBox="0 0 640 512"><!--! Font Awesome Pro 6.5.1 by @fontawesome - https://fontawesome.com License - https://fontawesome.com/license (Commercial License) Copyright 2023 Fonticons, Inc. --><path d="M224 208a80 80 0 1 0 0-160 80 80 0 1 0 0 160zM224 0a128 128 0 1 1 0 256A128 128 0 1 1 224 0zM99.5 352L65 464H320h63 1l0 48H50.2 0l14.8-48L64 304H384l0 0 0 48H348.5 320 99.5zM528 240c-17.7 0-32 14.3-32 32v48h64V272c0-17.7-14.3-32-32-32zm-80 32c0-44.2 35.8-80 80-80s80 35.8 80 80v48h32V512H416V320h32V272z"/></svg>