<svg xmlns="http://www.w3.org/2000/svg" viewBox="0 0 640 512"><!--! Font Awesome Pro 6.5.1 by @fontawesome - https://fontawesome.com License - https://fontawesome.com/license (Commercial License) Copyright 2023 Fonticons, Inc. --><path d="M224 48a80 80 0 1 1 0 160 80 80 0 1 1 0-160zm0 208A128 128 0 1 0 224 0a128 128 0 1 0 0 256zM99.5 352H348.5L383 464H65L99.5 352zM384 304H64L14.8 464 0 512H50.2 397.8 448l-14.8-48L384 304zM633.9 160L600 126.1l-17 17-47 47-47-47-17-17L438.1 160l17 17 47 47-47 47-17 17L472 321.9l17-17 47-47 47 47 17 17L633.9 288l-17-17-47-47 47-47 17-17z"/></svg>