<svg xmlns="http://www.w3.org/2000/svg" viewBox="0 0 640 512"><!--! Font Awesome Pro 6.5.1 by @fontawesome - https://fontawesome.com License - https://fontawesome.com/license (Commercial License) Copyright 2023 Fonticons, Inc. --><path d="M144 128a80 80 0 1 1 160 0 80 80 0 1 1 -160 0zm208 0A128 128 0 1 0 96 128a128 128 0 1 0 256 0zM65 464L99.5 352H320h28.5H384l0-48H64L14.8 464 0 512H50.2 384l0-48h-1H320 65zM496 272c0-17.7 14.3-32 32-32s32 14.3 32 32h48c0-44.2-35.8-80-80-80s-80 35.8-80 80v48H416V512H640V320H608 560 512 496V272z"/></svg>