<svg xmlns="http://www.w3.org/2000/svg" viewBox="0 0 640 512"><!--! Font Awesome Pro 6.5.1 by @fontawesome - https://fontawesome.com License - https://fontawesome.com/license (Commercial License) Copyright 2023 Fonticons, Inc. --><path d="M144 128a80 80 0 1 1 160 0 80 80 0 1 1 -160 0zm208 0A128 128 0 1 0 96 128a128 128 0 1 0 256 0zM65 464L99.5 352H320V304H64L14.8 464 0 512H50.2 397.8 448l-8.3-27.1-72.5-72.5L383 464H65zm447 48L640 384 480 224H384l-32 32v96L512 512zM408 304a24 24 0 1 1 48 0 24 24 0 1 1 -48 0z"/></svg>