<svg xmlns="http://www.w3.org/2000/svg" viewBox="0 0 640 512"><!--! Font Awesome Pro 6.5.1 by @fontawesome - https://fontawesome.com License - https://fontawesome.com/license (Commercial License) Copyright 2023 Fonticons, Inc. --><path d="M224 48a80 80 0 1 1 0 160 80 80 0 1 1 0-160zm0 208A128 128 0 1 0 224 0a128 128 0 1 0 0 256zM99.5 352H348.5L383 464H65L99.5 352zM384 304H64L14.8 464 0 512H50.2 397.8 448l-14.8-48L384 304zM640 512L576 320H422.4l56.2 182.6 2.9 9.4H640zM432 256c61.9 0 112-50.1 112-112s-50.1-112-112-112c-24.8 0-47.7 8.1-66.3 21.7C377.4 75.9 384 101.2 384 128c0 35.6-11.6 68.5-31.3 95.1C373 243.4 401 256 432 256z"/></svg>