<svg xmlns="http://www.w3.org/2000/svg" viewBox="0 0 640 512"><!--! Font Awesome Pro 6.5.1 by @fontawesome - https://fontawesome.com License - https://fontawesome.com/license (Commercial License) Copyright 2023 Fonticons, Inc. --><path d="M144 128a80 80 0 1 1 160 0 80 80 0 1 1 -160 0zm208 0A128 128 0 1 0 96 128a128 128 0 1 0 256 0zM65 464L99.5 352H348.5l11.3 36.6 38.4-38.4L384 304H64L14.8 464 0 512H50.2 317.4l6.9-48H65zM569 223.8l-41.3 41.3 71 71L640 294.8l-71-71zm-63.9 63.9L363.9 429 352 511.9 434.9 500 576.1 358.7l-71-71z"/></svg>