<svg xmlns="http://www.w3.org/2000/svg" viewBox="0 0 640 512"><!--! Font Awesome Pro 6.5.1 by @fontawesome - https://fontawesome.com License - https://fontawesome.com/license (Commercial License) Copyright 2023 Fonticons, Inc. --><path d="M320 208c-10.8 0-21.1-2.1-30.5-6l-33.5-26c-10-13.4-15.9-30-15.9-47.9c0-44.2 35.8-80 80-80s80 35.8 80 80s-35.8 80-80 80zM192 126.3L48.4 14.8 29.4 .1 0 38 19 52.7 591.5 497.2l19 14.7L639.9 474l-19-14.7L353.4 251.6C407.9 236.9 448 187.1 448 128C448 57.3 390.7 0 320 0C249.9 0 192.9 56.4 192 126.3zM264 304H160L110.8 464 96 512h50.2H493.8 544l-16 0-60.9-48H161l34.5-112H324.9L264 304z"/></svg>