<svg xmlns="http://www.w3.org/2000/svg" viewBox="0 0 640 512"><!--! Font Awesome Pro 6.5.1 by @fontawesome - https://fontawesome.com License - https://fontawesome.com/license (Commercial License) Copyright 2023 Fonticons, Inc. --><path d="M476.4 347.1c-1.4-29.7 21.2-59.1 56-59.1H576V224H532.5c-49.9 0-74.9-60.3-39.6-95.6l30.8-30.8L478.4 52.4 447.6 83.1C412.3 118.4 352 93.4 352 43.5V0H288V43.5c0 49.9-60.3 74.9-95.6 39.6L161.6 52.4 133.3 80.7 48.4 14.8 29.4 .1 0 38 19 52.7 591.5 497.2l19 14.7L639.9 474l-19-14.7L476.4 347.1zM218.6 147c39.4 4.9 79.8-13.6 101.4-47.4c11.6 18.2 28.6 31.9 48 40c19.5 8.1 41.4 10.5 62.6 5.8c-9.3 42.2 9.4 87.3 45.8 110.6c-21 13.5-36.2 34.2-43.4 57.4L218.6 147zM402 412.7l-44.6-35.1c-14.9 8.2-27.9 20.1-37.4 34.8c-23.3-36.4-68.4-55.1-110.6-45.8c9.3-42.2-9.4-87.3-45.8-110.6c7.1-4.6 13.6-9.9 19.2-16l-38.1-30c-9.5 8.5-22.2 14-37.2 14H64v64h43.5c49.9 0 74.9 60.3 39.6 95.6l-30.8 30.8 45.3 45.3 30.8-30.8c35.3-35.2 95.6-10.3 95.6 39.6V512h64V468.5c0-31.2 23.6-52.7 50-55.7z"/></svg>