<svg xmlns="http://www.w3.org/2000/svg" viewBox="0 0 512 512"><!--! Font Awesome Pro 6.5.1 by @fontawesome - https://fontawesome.com License - https://fontawesome.com/license (Commercial License) Copyright 2023 Fonticons, Inc. --><path d="M448 256c0-106-86-192-192-192c-17.7 0-32-14.3-32-32s14.3-32 32-32C397.4 0 512 114.6 512 256s-114.6 256-256 256c-17.7 0-32-14.3-32-32s14.3-32 32-32c106 0 192-86 192-192zM121.4 121.4c12.5-12.5 32.8-12.5 45.3 0s12.5 32.8 0 45.3L109.3 224H320c17.7 0 32 14.3 32 32s-14.3 32-32 32H109.3l57.4 57.4c12.5 12.5 12.5 32.8 0 45.3s-32.8 12.5-45.3 0l-112-112c-12.5-12.5-12.5-32.8 0-45.3l112-112z"/></svg>