<svg xmlns="http://www.w3.org/2000/svg" viewBox="0 0 640 512"><!--! Font Awesome Pro 6.5.1 by @fontawesome - https://fontawesome.com License - https://fontawesome.com/license (Commercial License) Copyright 2023 Fonticons, Inc. --><path d="M0 128V352c0 70.7 57.3 128 128 128H337.6c-16.5-18.6-29.6-40.3-38.1-64H128c-35.3 0-64-28.7-64-64s28.7-64 64-64H301.8c6.3-15.5 14.4-30.8 23.3-45.3c21.7-35.2 51.9-71.2 87.3-102.8c10-8.9 23-12.8 35.5-11.7V128c0-53-43-96-96-96H96C43 32 0 75 0 128zM288 350.1c0-9.8 1.3-19.9 3.6-30.1H128c-17.7 0-32 14.3-32 32s14.3 32 32 32H291c-2-11.1-3-22.4-3-33.9zM480 512c88.4 0 160-71.6 160-160c0-31.8-15.5-84-74.4-142.4c-11.8-11.7-30.6-10.7-42.3 1L512 221.9l-46-46c-6.1-6.1-14.1-9.3-22-9.2c-5.9 .1-11.8 1.9-16.8 5.8C382.5 207.3 320 275.3 320 352c0 88.4 71.6 160 160 160zm64-111.8c0 35.3-28.7 64-64 64s-64-28.7-64-64c0-36.5 37-73 54.8-88.4c5.4-4.7 13.1-4.7 18.5 0C507 327.1 544 363.6 544 400.2z"/></svg>