<svg xmlns="http://www.w3.org/2000/svg" viewBox="0 0 640 512"><!--! Font Awesome Pro 6.5.1 by @fontawesome - https://fontawesome.com License - https://fontawesome.com/license (Commercial License) Copyright 2023 Fonticons, Inc. --><path d="M128 32v80H384V32H128zM96 112V32C60.7 32 32 60.7 32 96v16H96zM32 144v96H240V144H32zm0 224H96V272H32v96zm0 32v16c0 35.3 28.7 64 64 64H240V400H32zm240 0v80h65.6c-20.2-22.6-35.1-50-43.1-80H272zM480 144h-.6l.6 .6V144zm-208 0v96h54.9c20.6-32.8 48.5-66.2 81-96H272zM128 272v96H288.8c-.5-5.9-.8-11.9-.8-17.9c0-25.4 8.5-52.4 21-78.1H128zM480 112V96c0-35.3-28.7-64-64-64v80h64zm0 400c88.4 0 160-71.6 160-160c0-31.8-15.5-84-74.4-142.4c-11.8-11.7-30.6-10.7-42.3 1L512 221.9l-46-46c-6.1-6.1-14.1-9.3-22-9.2c-5.9 .1-11.8 1.9-16.8 5.8C382.5 207.3 320 275.3 320 352c0 88.4 71.6 160 160 160zm64-111.8c0 35.3-28.7 64-64 64s-64-28.7-64-64c0-36.5 37-73 54.8-88.4c5.4-4.7 13.1-4.7 18.5 0C507 327.1 544 363.6 544 400.2z"/></svg>