<svg xmlns="http://www.w3.org/2000/svg" viewBox="0 0 603 512"><!--! Font Awesome Pro 6.5.1 by @fontawesome - https://fontawesome.com License - https://fontawesome.com/license (Commercial License) Copyright 2023 Fonticons, Inc. --><path d="M45.5 0C20.5 0 .3 20.2 .3 45.2V436.7c0 24.9 20.2 45.2 45.2 45.2h90.4V406.6c0-24.9 20.2-45.2 45.2-45.2s45.2 20.2 45.2 45.2v75.3h90.4c24.1 0 43.8-18.9 45.1-42.7c-53.1-23.3-90.3-76.3-90.3-138c0-10.3 1-20.4 3-30.1H256.3c-8.3 0-15.1-6.7-15.1-15.1V225.9c0-8.3 6.7-15.1 15.1-15.1h30.1c4.5 0 8.6 2 11.3 5.2c15.9-23.1 38-41.5 64-52.9V45.2c0-25-20.2-45.2-45.2-45.2H45.5zM60.6 225.9c0-8.3 6.7-15.1 15.1-15.1h30.1c8.3 0 15.1 6.7 15.1 15.1V256c0 8.3-6.7 15.1-15.1 15.1H75.6c-8.3 0-15.1-6.7-15.1-15.1V225.9zM166 210.8h30.1c8.3 0 15.1 6.7 15.1 15.1V256c0 8.3-6.7 15.1-15.1 15.1H166c-8.3 0-15.1-6.7-15.1-15.1V225.9c0-8.3 6.7-15.1 15.1-15.1zM75.6 90.4h30.1c8.3 0 15.1 6.7 15.1 15.1v30.1c0 8.3-6.7 15.1-15.1 15.1H75.6c-8.3 0-15.1-6.7-15.1-15.1V105.4c0-8.3 6.7-15.1 15.1-15.1zm75.3 15.1c0-8.3 6.7-15.1 15.1-15.1h30.1c8.3 0 15.1 6.7 15.1 15.1v30.1c0 8.3-6.7 15.1-15.1 15.1H166c-8.3 0-15.1-6.7-15.1-15.1V105.4zM256.3 90.4h30.1c8.3 0 15.1 6.7 15.1 15.1v30.1c0 8.3-6.7 15.1-15.1 15.1H256.3c-8.3 0-15.1-6.7-15.1-15.1V105.4c0-8.3 6.7-15.1 15.1-15.1zM422 226a75.3 75.3 0 1 1 0 150.6A75.3 75.3 0 1 1 422 226zm0 195.8c25.1 0 48.4-7.7 67.7-20.8l74.4 74.4c8.8 8.8 23.1 8.8 31.9 0s8.8-23.1 0-31.9L521.6 369c13.1-19.3 20.8-42.6 20.8-67.7c0-66.5-53.9-120.5-120.5-120.5s-120.5 53.9-120.5 120.5s53.9 120.5 120.5 120.5z"/></svg>