<svg xmlns="http://www.w3.org/2000/svg" viewBox="0 0 640 512"><!--! Font Awesome Pro 6.5.1 by @fontawesome - https://fontawesome.com License - https://fontawesome.com/license (Commercial License) Copyright 2023 Fonticons, Inc. --><path d="M48 0C21.5 0 0 21.5 0 48V464c0 26.5 21.5 48 48 48h96V432c0-26.5 21.5-48 48-48s48 21.5 48 48v80h68.1c-12.6-15.2-20.1-34.7-20.1-56V288H272c-8.8 0-16-7.2-16-16V240c0-8.8 7.2-16 16-16h16V160H272c-8.8 0-16-7.2-16-16V112c0-8.8 7.2-16 16-16h32c1.3 0 2.5 .2 3.8 .4C323.9 76.6 348.5 64 376 64h8V48c0-26.5-21.5-48-48-48H48zM64 240c0-8.8 7.2-16 16-16h32c8.8 0 16 7.2 16 16v32c0 8.8-7.2 16-16 16H80c-8.8 0-16-7.2-16-16V240zm112-16h32c8.8 0 16 7.2 16 16v32c0 8.8-7.2 16-16 16H176c-8.8 0-16-7.2-16-16V240c0-8.8 7.2-16 16-16zM80 96h32c8.8 0 16 7.2 16 16v32c0 8.8-7.2 16-16 16H80c-8.8 0-16-7.2-16-16V112c0-8.8 7.2-16 16-16zm80 16c0-8.8 7.2-16 16-16h32c8.8 0 16 7.2 16 16v32c0 8.8-7.2 16-16 16H176c-8.8 0-16-7.2-16-16V112zM384 96c-35.3 0-64 28.7-64 64V448c0 35.3 28.7 64 64 64H576c35.3 0 64-28.7 64-64V160c0-35.3-28.7-64-64-64H384zm16 88a24 24 0 1 1 0 48 24 24 0 1 1 0-48zM376 304a24 24 0 1 1 48 0 24 24 0 1 1 -48 0zm24 72a24 24 0 1 1 0 48 24 24 0 1 1 0-48zm64-168c0-8.8 7.2-16 16-16h96c8.8 0 16 7.2 16 16s-7.2 16-16 16H480c-8.8 0-16-7.2-16-16zm16 80h96c8.8 0 16 7.2 16 16s-7.2 16-16 16H480c-8.8 0-16-7.2-16-16s7.2-16 16-16zM464 400c0-8.8 7.2-16 16-16h96c8.8 0 16 7.2 16 16s-7.2 16-16 16H480c-8.8 0-16-7.2-16-16z"/></svg>