<svg xmlns="http://www.w3.org/2000/svg" viewBox="0 0 384 512"><!--! Font Awesome Pro 6.5.1 by @fontawesome - https://fontawesome.com License - https://fontawesome.com/license (Commercial License) Copyright 2023 Fonticons, Inc. --><path d="M64 0C28.7 0 0 28.7 0 64V448c0 35.3 28.7 64 64 64H320c35.3 0 64-28.7 64-64V160H256c-17.7 0-32-14.3-32-32V0H64zM256 0V128H384L256 0zM128 208v16H256V208c0-8.8 7.2-16 16-16h32c8.8 0 16 7.2 16 16v32c0 8.8-7.2 16-16 16H288V384h16c8.8 0 16 7.2 16 16v32c0 8.8-7.2 16-16 16H272c-8.8 0-16-7.2-16-16V416H128v16c0 8.8-7.2 16-16 16H80c-8.8 0-16-7.2-16-16V400c0-8.8 7.2-16 16-16H96V256H80c-8.8 0-16-7.2-16-16V208c0-8.8 7.2-16 16-16h32c8.8 0 16 7.2 16 16zm0 176H256V256H128V384z"/></svg>