<svg xmlns="http://www.w3.org/2000/svg" viewBox="0 0 640 512"><!--! Font Awesome Pro 6.5.1 by @fontawesome - https://fontawesome.com License - https://fontawesome.com/license (Commercial License) Copyright 2023 Fonticons, Inc. --><path d="M480 192c0-31.8-15.5-84-74.4-142.4c-11.8-11.7-30.6-10.7-42.3 1L352 61.9l-46-46c-6.1-6.1-14.1-9.3-22-9.2c-5.9 .1-11.8 1.9-16.8 5.8C222.5 47.3 160 115.3 160 192c0 30.3 8.4 58.6 23 82.7c4.5 2.5 8.8 5.3 12.9 8.3c16-19.6 36.6-35.4 60.2-45.7c1.9-35.5 37.4-70.6 54.7-85.5c5.4-4.7 13.1-4.7 18.5 0c17.3 15 52.8 50 54.7 85.5c23.5 10.3 44.1 26 60.2 45.7c4.1-3 8.5-5.7 12.9-8.3c14.6-24.1 23-52.4 23-82.7zM0 400c0 61.9 50.1 112 112 112l208 0 208 0c61.9 0 112-50.1 112-112s-50.1-112-112-112c-37 0-69.9 18-90.3 45.7C418.2 288 372.8 256 320 256s-98.2 32-117.7 77.7C181.9 306 149 288 112 288C50.1 288 0 338.1 0 400z"/></svg>