<svg xmlns="http://www.w3.org/2000/svg" viewBox="0 0 512 512"><!--! Font Awesome Pro 6.5.1 by @fontawesome - https://fontawesome.com License - https://fontawesome.com/license (Commercial License) Copyright 2023 Fonticons, Inc. --><path d="M160 86.6V9.3C67.4 36.9 0 122.8 0 224.2c0 49.9 16.6 98.2 46.9 137.3c10.2 13.2 17.1 29 17.1 45.8V480c0 17.7 14.3 32 32 32H288c17.7 0 32-14.3 32-32V448h64c35.3 0 64-28.7 64-64V320h20.2c24.2 0 43.8-19.6 43.8-43.8c0-10-3.4-19.6-9.6-27.4l-42-52.6c-8.3-10.3-12.8-23-15.1-36C429.6 71.8 348 3.9 256 .2V86.6c0 12.4 7.4 23.3 17.4 30.5C301.6 137.4 320 170.6 320 208c0 61.9-50.1 112-112 112s-112-50.1-112-112c0-37.4 18.4-70.6 46.6-90.9c10-7.2 17.4-18.2 17.4-30.5zM176 208a32 32 0 1 1 64 0 32 32 0 1 1 -64 0zm96 0a64 64 0 1 0 -128 0 64 64 0 1 0 128 0z"/></svg>