<svg xmlns="http://www.w3.org/2000/svg" viewBox="0 0 576 512"><!--! Font Awesome Pro 6.5.1 by @fontawesome - https://fontawesome.com License - https://fontawesome.com/license (Commercial License) Copyright 2023 Fonticons, Inc. --><path d="M0 32C0 14.3 14.3 0 32 0H64 320h32c17.7 0 32 14.3 32 32s-14.3 32-32 32V75c0 42.4-16.9 83.1-46.9 113.1L237.3 256l36 36c-10.7 22.2-16.8 47.1-17.2 73.3l-64-64-67.9 67.9c-18 18-28.1 42.4-28.1 67.9v11H275.2c13.1 25.6 32.2 47.6 55.6 64H320 64 32c-17.7 0-32-14.3-32-32s14.3-32 32-32V437c0-42.4 16.9-83.1 46.9-113.1L146.7 256 78.9 188.1C48.9 158.1 32 117.4 32 75V64C14.3 64 0 49.7 0 32zM96 64V75c0 25.5 10.1 49.9 28.1 67.9L192 210.7l67.9-67.9c18-18 28.1-42.4 28.1-67.9V64H96zM288 368a144 144 0 1 1 288 0 144 144 0 1 1 -288 0zm144-80c-8.8 0-16 7.2-16 16v64c0 8.8 7.2 16 16 16h48c8.8 0 16-7.2 16-16s-7.2-16-16-16H448V304c0-8.8-7.2-16-16-16z"/></svg>