<svg xmlns="http://www.w3.org/2000/svg" viewBox="0 0 640 512"><!--! Font Awesome Pro 6.5.1 by @fontawesome - https://fontawesome.com License - https://fontawesome.com/license (Commercial License) Copyright 2023 Fonticons, Inc. --><path d="M256 512c33.6 0 65.7-6.5 95.1-18.3c-39-35.9-63.1-87.5-63.1-143.7c0-35.2 16.3-73.6 37.2-107.4c4.4-7.1 9.1-14.2 14.1-21.3C327.9 216.5 320 205.2 320 192V160c0-17.7 14.3-32 32-32s32 14.3 32 32v7.4c9-9.4 18.5-18.6 28.5-27.5C430.2 124 457.3 124 475 140c5.6 5.1 11.1 10.2 16.6 15.5C452.5 64.1 361.7 0 256 0C114.6 0 0 114.6 0 256S114.6 512 256 512zM192 160v32c0 17.7-14.3 32-32 32s-32-14.3-32-32V160c0-17.7 14.3-32 32-32s32 14.3 32 32zm96 0v32c0 17.7-14.3 32-32 32s-32-14.3-32-32V160c0-17.7 14.3-32 32-32s32 14.3 32 32zM480 511.9c88.4 0 160-71.6 160-160c0-31.8-15.5-84-74.4-142.4c-11.8-11.7-30.6-10.7-42.3 1L512 221.8l-46-46c-6.1-6.1-14.1-9.3-22-9.2c-5.9 .1-11.8 1.9-16.8 5.8C382.5 207.2 320 275.2 320 351.9c0 88.4 71.6 160 160 160zM544 400c0 35.3-28.7 64-64 64s-64-28.7-64-64c0-36.5 37-73 54.8-88.4c5.4-4.7 13.1-4.7 18.5 0C507 327 544 363.5 544 400z"/></svg>