<svg xmlns="http://www.w3.org/2000/svg" viewBox="0 0 640 512"><!--! Font Awesome Pro 6.5.1 by @fontawesome - https://fontawesome.com License - https://fontawesome.com/license (Commercial License) Copyright 2023 Fonticons, Inc. --><path d="M0 96C0 60.7 28.7 32 64 32H384c35.3 0 64 28.7 64 64v32.2c-12.6-1.2-25.5 2.7-35.5 11.7c-9.9 8.9-19.4 18.1-28.5 27.5V128c0-17.7-14.3-32-32-32H96c-17.7 0-32 14.3-32 32v64c0 17.7 14.3 32 32 32H337.5c-4.4 6.2-8.5 12.5-12.3 18.7c-10.9 17.6-20.5 36.4-27.2 55.4c-3-1.4-6.4-2.1-9.9-2.1c-13.3 0-24 10.7-24 24s10.7 24 24 24l.2 0c-.1 2-.2 4.1-.2 6.1c0 49.3 18.6 95.2 49.6 129.9H64c-35.3 0-64-28.7-64-64V96zM120 320a24 24 0 1 0 -48 0 24 24 0 1 0 48 0zm72 24a24 24 0 1 0 0-48 24 24 0 1 0 0 48zM480 511.9c-88.4 0-160-71.6-160-160c0-76.7 62.5-144.7 107.2-179.4c5-3.9 10.9-5.8 16.8-5.8c7.9-.1 16 3.1 22 9.2l46 46 11.3-11.3c11.7-11.7 30.6-12.7 42.3-1C624.5 267.8 640 320 640 351.9c0 88.4-71.6 160-160 160zM544 400c0-36.5-37-73-54.8-88.4c-5.4-4.7-13.1-4.7-18.5 0C453 327 416 363.5 416 400c0 35.3 28.7 64 64 64s64-28.7 64-64z"/></svg>