<svg xmlns="http://www.w3.org/2000/svg" viewBox="0 0 640 512"><!--! Font Awesome Pro 6.5.1 by @fontawesome - https://fontawesome.com License - https://fontawesome.com/license (Commercial License) Copyright 2023 Fonticons, Inc. --><path d="M38.8 5.1C28.4-3.1 13.3-1.2 5.1 9.2S-1.2 34.7 9.2 42.9l592 464c10.4 8.2 25.5 6.3 33.7-4.1s6.3-25.5-4.1-33.7L409.9 296l75.7-75.7L355.7 90.3l-91.5 91.5L38.8 5.1zM341.2 364.8L195.8 250.3l-73.2 73.2c-10.4 10.4-18 23.3-22.2 37.4L65 481.2c-2.5 8.4-.2 17.5 6.1 23.7s15.3 8.5 23.7 6.1l120.3-35.4c14.1-4.2 27-11.8 37.4-22.2l88.6-88.6zM426.7 19.3L378.3 67.7 508.3 197.7l48.4-48.4c25-25 25-65.5 0-90.5L517.3 19.3c-25-25-65.5-25-90.5 0z"/></svg>