<svg xmlns="http://www.w3.org/2000/svg" viewBox="0 0 640 512"><!--! Font Awesome Pro 6.5.1 by @fontawesome - https://fontawesome.com License - https://fontawesome.com/license (Commercial License) Copyright 2023 Fonticons, Inc. --><path d="M64 32C28.7 32 0 60.7 0 96V416c0 35.3 28.7 64 64 64H337.6c-31-34.7-49.6-80.6-49.6-129.9c0-35.2 16.3-73.6 37.2-107.4c21.7-35.2 51.9-71.2 87.3-102.8c10-8.9 23-12.8 35.5-11.7V96c0-35.3-28.7-64-64-64H64zm48 88V264c0 13.3-10.7 24-24 24s-24-10.7-24-24V120c0-13.3 10.7-24 24-24s24 10.7 24 24zm96 0V264c0 13.3-10.7 24-24 24s-24-10.7-24-24V120c0-13.3 10.7-24 24-24s24 10.7 24 24zM480 511.9c88.4 0 160-71.6 160-160c0-31.8-15.5-84-74.4-142.4c-11.8-11.7-30.6-10.7-42.3 1L512 221.8l-46-46c-6.1-6.1-14.1-9.3-22-9.2c-5.9 .1-11.8 1.9-16.8 5.8C382.5 207.2 320 275.2 320 351.9c0 88.4 71.6 160 160 160zM544 400c0 35.3-28.7 64-64 64s-64-28.7-64-64c0-36.5 37-73 54.8-88.4c5.4-4.7 13.1-4.7 18.5 0C507 327 544 363.5 544 400z"/></svg>