<svg xmlns="http://www.w3.org/2000/svg" viewBox="0 0 640 512"><!--! Font Awesome Pro 6.5.1 by @fontawesome - https://fontawesome.com License - https://fontawesome.com/license (Commercial License) Copyright 2023 Fonticons, Inc. --><path d="M160 32c-35.3 0-64 28.7-64 64v48c0 8.8 7.4 15.7 15.7 18.6C130.5 169.1 144 187 144 208s-13.5 38.9-32.3 45.4C103.4 256.3 96 263.2 96 272v48c0 35.3 28.7 64 64 64H576c35.3 0 64-28.7 64-64V272c0-8.8-7.4-15.7-15.7-18.6C605.5 246.9 592 229 592 208s13.5-38.9 32.3-45.4c8.3-2.9 15.7-9.8 15.7-18.6V96c0-35.3-28.7-64-64-64H160zM48 120c0-13.3-10.7-24-24-24S0 106.7 0 120V360c0 66.3 53.7 120 120 120H520c13.3 0 24-10.7 24-24s-10.7-24-24-24H120c-39.8 0-72-32.2-72-72V120z"/></svg>