<svg xmlns="http://www.w3.org/2000/svg" viewBox="0 0 640 512"><!--! Font Awesome Pro 6.5.1 by @fontawesome - https://fontawesome.com License - https://fontawesome.com/license (Commercial License) Copyright 2023 Fonticons, Inc. --><path d="M0 24C0 37.3 10.7 48 24 48h8v96H24c-13.3 0-24 10.7-24 24s10.7 24 24 24H328c13.3 0 24-10.7 24-24s-10.7-24-24-24h-8V48h8c13.3 0 24-10.7 24-24s-10.7-24-24-24H24C10.7 0 0 10.7 0 24zM272 144H240V48h32v96zM160 48h32v96H160V48zm-48 96H80V48h32v96zM416 96c-17.7 0-32 14.3-32 32v96H48c-26.5 0-48 21.5-48 48v96c0 26.5 21.5 48 48 48H64c0 53 43 96 96 96s96-43 96-96H384c0 53 43 96 96 96s96-43 96-96h16c26.5 0 48-21.5 48-48V288 256 237.3c0-17-6.7-33.3-18.7-45.3L544 114.7c-12-12-28.3-18.7-45.3-18.7H416zM576 256H448V224 160h50.7L576 237.3V256zM112 416a48 48 0 1 1 96 0 48 48 0 1 1 -96 0zm368-48a48 48 0 1 1 0 96 48 48 0 1 1 0-96z"/></svg>