<svg xmlns="http://www.w3.org/2000/svg" viewBox="0 0 576 512"><!--! Font Awesome Pro 6.5.1 by @fontawesome - https://fontawesome.com License - https://fontawesome.com/license (Commercial License) Copyright 2023 Fonticons, Inc. --><path d="M440 48V96h24 16v16 32 16H464 440v40H560V48H440zM400 160H384V144 112 96h16 24V48H280V96h24 16v16 32 16H304 280v40H424V160H400zM264 96V48H152V96h24 16v16 32 16H176 152v40H264V160H240 224V144 112 96h16 24zM112 160H96V144 112 96h16 24V48H16V200H136V160H112zM144 32H272 432 560h16V48 208 464v16H560 432 272 144 16 0V464 208 48 32H16 144zM16 216V464H136V416H112 96V400 368 352h16 24V320H112 96V304 272 256h16 24V216H16zM152 464H264V416H240 224V400 368 352h16 24V320H240 224V304 272 256h16 24V216H152v40h24 16v16 32 16H176 152v32h24 16v16 32 16H176 152v48zm128-48v48H424V416H400 384V400 368 352h16 24V216H280v40h24 16v16 32 16H304 280v32h24 16v16 32 16H304 280zm160-64h24 16v16 32 16H464 440v48H560V216H440V352zM112 112v32h64V112H112zm0 192h64V272H112v32zm0 64v32h64V368H112zM240 144h64V112H240v32zm0 128v32h64V272H240zm0 128h64V368H240v32zM400 112v32h64V112H400zm0 288h64V368H400v32z"/></svg>