<svg xmlns="http://www.w3.org/2000/svg" viewBox="0 0 576 512"><!--! Font Awesome Pro 6.5.1 by @fontawesome - https://fontawesome.com License - https://fontawesome.com/license (Commercial License) Copyright 2023 Fonticons, Inc. --><path d="M16 48V464H560V48H16zM0 32H16 560h16V48 464v16H560 16 0V464 48 32zM360 176H504h8v16h-8H360h-8V176h8zm0 64H504h8v16h-8H360h-8V240h8zm0 64H504h8v16h-8H360h-8V304h8zM102.2 368H85.3L112 288H272l26.7 80H281.8l-21.3-64H123.5l-21.3 64zM240 192a48 48 0 1 0 -96 0 48 48 0 1 0 96 0zm-112 0a64 64 0 1 1 128 0 64 64 0 1 1 -128 0z"/></svg>