<svg xmlns="http://www.w3.org/2000/svg" viewBox="0 0 512 512"><!--! Font Awesome Pro 6.5.1 by @fontawesome - https://fontawesome.com License - https://fontawesome.com/license (Commercial License) Copyright 2023 Fonticons, Inc. --><path d="M48 16V496H432V16H48zM32 0H48 432h16V16 496v16H432 48 32V496 16 0zM504 80v64 8H488v-8V80 72h16v8zm0 120v8 64 8H488v-8V208v-8h16zm0 136v64 8H488v-8V336v-8h16v8zM150.2 368H133.3L160 288H320l26.7 80H329.8l-21.3-64H171.5l-21.3 64zM288 192a48 48 0 1 0 -96 0 48 48 0 1 0 96 0zm-112 0a64 64 0 1 1 128 0 64 64 0 1 1 -128 0z"/></svg>