<svg xmlns="http://www.w3.org/2000/svg" viewBox="0 0 576 512"><!--! Font Awesome Pro 6.5.1 by @fontawesome - https://fontawesome.com License - https://fontawesome.com/license (Commercial License) Copyright 2023 Fonticons, Inc. --><path d="M16 16V208H560V16H16zM0 0H16 560h16V16 208v16H560 16 0V208 16 0zM256 424c0 48.6-39.4 88-88 88s-88-39.4-88-88c0-28.9 13.9-54.5 35.4-70.5l9.6 12.8C107.4 379.4 96 400.4 96 424c0 39.8 32.2 72 72 72s72-32.2 72-72V256h16V424zm64-168h16V392c0 39.8 32.2 72 72 72s72-32.2 72-72c0-23.5-11.3-44.4-28.7-57.5l9.6-12.8c21.3 16 35.1 41.6 35.1 70.3c0 48.6-39.4 88-88 88s-88-39.4-88-88V256zM104 128H472h8v16h-8H104 96V128h8z"/></svg>