<svg xmlns="http://www.w3.org/2000/svg" viewBox="0 0 576 512"><!--! Font Awesome Pro 6.5.1 by @fontawesome - https://fontawesome.com License - https://fontawesome.com/license (Commercial License) Copyright 2023 Fonticons, Inc. --><path d="M432 48H16V464H284.5c3.6 5.6 7.6 10.9 11.8 16H16 0V464 48 32H16 432h16V48 192.7c-5.3-.5-10.6-.7-16-.7V48zM224 96c69.3 0 128.3 44 150.5 105.6c-5.1 1.8-10 3.7-14.9 5.9C339.7 151.8 286.5 112 224 112c-79.5 0-144 64.5-144 144s64.5 144 144 144c11.8 0 23.2-1.4 34.2-4.1c.8 5.3 1.9 10.5 3.2 15.7c-12 2.9-24.5 4.4-37.4 4.4c-88.4 0-160-71.6-160-160s71.6-160 160-160zm16 160a16 16 0 1 0 -32 0 16 16 0 1 0 32 0zm-48 0a32 32 0 1 1 64 0 32 32 0 1 1 -64 0zM560 368a128 128 0 1 0 -256 0 128 128 0 1 0 256 0zm-272 0a144 144 0 1 1 288 0 144 144 0 1 1 -288 0zm152-72v64h64 8v16h-8H440v64 8H424v-8V376H360h-8V360h8 64V296v-8h16v8z"/></svg>