<svg xmlns="http://www.w3.org/2000/svg" viewBox="0 0 576 512"><!--! Font Awesome Pro 6.5.1 by @fontawesome - https://fontawesome.com License - https://fontawesome.com/license (Commercial License) Copyright 2023 Fonticons, Inc. --><path d="M112 32h-8v8 64 8h8 56v48H80V128v-8H72 8 0v8V312v8H8 64v56 8h8 56v88 8h8H248h8v-8V424v-8h-8H200V384H376v32H328h-8v8 48 8h8H440h8v-8V384h56 8v-8V320h56 8v-8V128v-8h-8H504h-8v8 32H408V112h56 8v-8V40 32h-8H400h-8v8V96H344h-8v8 56H240V104 96h-8H184V40 32h-8H112zM496 176v64 8h16v-8V136h48V304H504h-8v8 56H448 432 392 376 200 184 144 128 80V312v-8H72 16V136H64V240v8H80v-8V176h96 8v-8V112h40v56 8h8H344h8v-8V112h40v56 8h8 96zM168 48V96H120V48h48zM456 96H408V48h48V96zM144 464V384h40v40 8h8 48v32H144zm248-40V384h40v80H336V432h48 8v-8zM208 232v-8H192v8 80 8h16v-8V232zm176 0v-8H368v8 80 8h16v-8V232z"/></svg>