<svg xmlns="http://www.w3.org/2000/svg" viewBox="0 0 640 512"><!--! Font Awesome Pro 6.5.1 by @fontawesome - https://fontawesome.com License - https://fontawesome.com/license (Commercial License) Copyright 2023 Fonticons, Inc. --><path d="M16.2 5L9.9 0 0 12.5l6.3 5L623.8 507l6.3 5 9.9-12.5-6.3-5L16.2 5zM274.7 312H104 96v16h8H295l-20.3-16zm252.7 16H536h8V312h-8H507.1l20.3 16zM536 200h8V184h-8H345l20.3 16H536zm-403.1 0l-20.3-16H104 96v16h8 28.9zM536 56H182.9l20.3 16H536h8V56h-8zM457.1 456l-20.3-16H104 96v16h8H457.1z"/></svg>