<svg xmlns="http://www.w3.org/2000/svg" viewBox="0 0 512 512"><!--! Font Awesome Pro 6.5.1 by @fontawesome - https://fontawesome.com License - https://fontawesome.com/license (Commercial License) Copyright 2023 Fonticons, Inc. --><path d="M256 0c-43 0-82.8 25.6-111.2 49.9c-14.3 12.3-26.1 24.6-34.3 33.8c-4.1 4.6-7.3 8.4-9.5 11.2c-.3 .4-.6 .8-.9 1.2H16 0v16V256v8 8V496v16H16 496h16V496 272v-8-8V112 96H496 411.9c-.3-.4-.6-.7-.9-1.2c-2.2-2.7-5.4-6.6-9.5-11.2c-8.2-9.2-19.9-21.5-34.3-33.8C338.8 25.6 299 0 256 0zM407.9 112c.1 0 .1 0 .2 0H496V256H16V112H407.9zM391 96H121c.5-.5 1-1.1 1.5-1.7c7.8-8.8 19.1-20.5 32.7-32.2C182.8 38.4 219 16 256 16s73.2 22.4 100.8 46.1c13.7 11.7 24.9 23.4 32.7 32.2c.5 .6 1 1.1 1.5 1.7zM496 496H16V272H496V496zM88 320v24h24V320H88zm0 104v24h24V424H88zm88-104H152v24h24V320zM152 424v24h24V424H152zm-8-52H120v24h24V372zm72-52v24h24V320H216zm24 104H216v24h24V424zm-56-52v24h24V372H184zm120-52H280v24h24V320zM280 424v24h24V424H280zm-8-52H248v24h24V372zm72-52v24h24V320H344zm88 0H408v24h24V320zM344 424v24h24V424H344zm88 0H408v24h24V424zM312 372v24h24V372H312zm88 0H376v24h24V372zM80 192a16 16 0 1 1 32 0 16 16 0 1 1 -32 0zm48 0a32 32 0 1 0 -64 0 32 32 0 1 0 64 0zm64-16a16 16 0 1 1 0 32 16 16 0 1 1 0-32zm0 48a32 32 0 1 0 0-64 32 32 0 1 0 0 64zm112-32a16 16 0 1 1 32 0 16 16 0 1 1 -32 0zm48 0a32 32 0 1 0 -64 0 32 32 0 1 0 64 0zm64-16a16 16 0 1 1 0 32 16 16 0 1 1 0-32zm0 48a32 32 0 1 0 0-64 32 32 0 1 0 0 64z"/></svg>