<svg xmlns="http://www.w3.org/2000/svg" viewBox="0 0 640 512"><!--! Font Awesome Pro 6.5.1 by @fontawesome - https://fontawesome.com License - https://fontawesome.com/license (Commercial License) Copyright 2023 Fonticons, Inc. --><path d="M352 80A64 64 0 1 1 224 80a64 64 0 1 1 128 0zM288 0c-44.2 0-80 35.8-80 80c0 41.5 31.6 75.6 72 79.6c0 .1 0 .3 0 .4v48H200h-8v16h8 80V496H88V291.3l58.3 58.3 11.3-11.3-72-72L80 260.7l-5.6 5.6 0 0-72 72 11.3 11.3L72 291.3V504v8h8H288h96l0-16H296V224h80 8V208h-8H296V160c0-.1 0-.3 0-.4c40.4-4 72-38.1 72-79.6c0-44.2-35.8-80-80-80zM528 208c26.5 0 48 21.5 48 48v64H480V256c0-26.5 21.5-48 48-48zm-64 48v64H432 416v16V496v16h16H624h16V496 336 320H624 592V256c0-35.3-28.7-64-64-64s-64 28.7-64 64zm-32 80h32 16 96 16 32V496H432V336z"/></svg>