<svg xmlns="http://www.w3.org/2000/svg" viewBox="0 0 640 512"><!--! Font Awesome Pro 6.5.1 by @fontawesome - https://fontawesome.com License - https://fontawesome.com/license (Commercial License) Copyright 2023 Fonticons, Inc. --><path d="M352 80A64 64 0 1 1 224 80a64 64 0 1 1 128 0zM288 0c-44.2 0-80 35.8-80 80c0 41.5 31.6 75.6 72 79.6c0 .1 0 .3 0 .4v48H200h-8v16h8 80V496H88V291.3l58.3 58.3 11.3-11.3-72-72L80 260.7l-5.6 5.6 0 0-72 72 11.3 11.3L72 291.3V504v8h8H288 394.8c-6.9-4.9-13.4-10.2-19.6-16H296V224h80 8V208h-8H296V160c0-.1 0-.3 0-.4c40.4-4 72-38.1 72-79.6c0-44.2-35.8-80-80-80zM496 240a128 128 0 1 1 0 256 128 128 0 1 1 0-256zm0 272a144 144 0 1 0 0-288 144 144 0 1 0 0 288zm75.3-184L560 316.7l-5.7 5.7L480 396.7l-42.3-42.3-5.7-5.7L420.7 360l5.7 5.7 48 48 5.7 5.7 5.7-5.7 80-80 5.7-5.7z"/></svg>