<svg xmlns="http://www.w3.org/2000/svg" viewBox="0 0 448 512"><!--! Font Awesome Pro 6.5.1 by @fontawesome - https://fontawesome.com License - https://fontawesome.com/license (Commercial License) Copyright 2023 Fonticons, Inc. --><path d="M16 40V32H0v8V472v8H8 440h8V464h-8H16V40zm48 88v16c42.8 0 83.3 9.9 119.4 27.5l8.4-13.7C153.3 138.7 109.9 128 64 128zm147.2 59.3c32.6 21 60.5 48.9 81.5 81.5l13.6-8.4c-22.4-34.8-52-64.4-86.7-86.7l-8.4 13.6zM336 416v0h16v0c0-45.9-10.7-89.3-29.8-127.8l-13.7 8.4c17.6 36 27.5 76.5 27.5 119.4z"/></svg>