<svg xmlns="http://www.w3.org/2000/svg" viewBox="0 0 576 512"><!--! Font Awesome Pro 6.5.1 by @fontawesome - https://fontawesome.com License - https://fontawesome.com/license (Commercial License) Copyright 2023 Fonticons, Inc. --><path d="M432 192h16 96 16v16V496v16H544 432 336h-8H296h-8H248h-8H144 32 16V496 112 96H32h96 16V80 16 0h16H416h16V16 176v16zM256 496h32 8 24V400H256v96zm80 0h96H544V208H432 416V192 16H160V96v16H144 32V496H144h96V392v-8h8 80 8v8V496zm152-72h-8H416h-8v-8V352v-8h8 64 8v8 64 8zM160 328H96 88v-8V256v-8h8 64 8v8 64 8h-8zm-8-64H104v48h48V264zm16 160h-8H96 88v-8V352v-8h8 64 8v8 64 8zm-16-16V360H104v48h48zm168-80H256h-8v-8V256v-8h8 64 8v8 64 8h-8zm-8-64H264v48h48V264zM328 56v8 64 8h-8H256h-8v-8V64 56h8 64 8zM312 72H264v48h48V72zM480 328H416h-8v-8V256v-8h8 64 8v8 64 8h-8zm-8-64H424v48h48V264zM168 232h-8H96 88v-8V160v-8h8 64 8v8 64 8zm-16-16V168H104v48h48zm168 16H256h-8v-8V160v-8h8 64 8v8 64 8h-8zm-8-64H264v48h48V168zM472 408V360H424v48h48z"/></svg>