<svg xmlns="http://www.w3.org/2000/svg" viewBox="0 0 512 512"><!--! Font Awesome Pro 6.5.1 by @fontawesome - https://fontawesome.com License - https://fontawesome.com/license (Commercial License) Copyright 2023 Fonticons, Inc. --><path d="M438.4 412l-1.1-2L357.6 272 316 344 229.1 494.5c8.8 1 17.8 1.5 26.9 1.5c73 0 138.4-32.6 182.4-84zm10.7-13.5C478.6 358.7 496 309.4 496 256c0-28.1-4.8-55-13.7-80H480 320.7l41.6 72 86.9 150.5zM302.2 176H217.8h-8l-42.2 73.1-4 6.9 42.2 73.1 4 6.9 0 0h0 84.4 8l0 0 42.2-73.1 4-6.9 0 0-42.2-73.1-4-6.9zM191.3 336l-41.6-72L62.9 113.5C33.4 153.3 16 202.6 16 256c0 28.1 4.8 55 13.7 80H32 191.3zM73.6 100l1.1 2 79.7 138L196 168 282.9 17.5C274 16.5 265.1 16 256 16c-73 0-138.4 32.6-182.4 84zM213.3 490L293 352H209.8 36c31.4 71.9 97 125.4 176.2 140l1.2-2zM476 160c-31.4-71.9-97-125.4-176.2-140l-1.2 2L219 160h83.1H476zM0 256a256 256 0 1 1 512 0A256 256 0 1 1 0 256z"/></svg>