<svg xmlns="http://www.w3.org/2000/svg" viewBox="0 0 512 512"><!--! Font Awesome Pro 6.5.1 by @fontawesome - https://fontawesome.com License - https://fontawesome.com/license (Commercial License) Copyright 2023 Fonticons, Inc. --><path d="M0 32H8 32 48 464h16 24 8V48h-8H480V464h24 8v16h-8H480 464 432h-8H368 352V464 352c0-53-43-96-96-96s-96 43-96 96V464v16H144 88 80 48 32 8 0V464H8 32V48H8 0V32zM48 48V464H80h8 56V352c0-61.9 50.1-112 112-112s112 50.1 112 112V464h56 8 32V48H48zm56 96H408h8v16h-8H104 96V144h8z"/></svg>