<svg xmlns="http://www.w3.org/2000/svg" viewBox="0 0 512 512"><!--! Font Awesome Pro 6.5.1 by @fontawesome - https://fontawesome.com License - https://fontawesome.com/license (Commercial License) Copyright 2023 Fonticons, Inc. --><path d="M400 16v96h96V16H400zM384 0h16 96 16V16v96 16H496 400 384V112 16 0zM287 12.7l6.1 5.1 48 40 7.4 6.1-7.4 6.1-48 40-6.1 5.1L276.7 103l6.1-5.1 31-25.9H16V248H504h8v8V448v8h-8H416v40 16H400 304 288V496 400 384h16 96 16v16 40h80V264H8 0v-8V64 56H8 313.9l-31-25.9L276.7 25 287 12.7zM128 400v40h89.9l-31-25.9-6.1-5.1L191 396.7l6.1 5.1 48 40 7.4 6.1-7.4 6.1-48 40-6.1 5.1L180.7 487l6.1-5.1 31-25.9H128v40 16H112 16 0V496 400 384H16h96 16v16zm-16 0H16v96h96V400zm192 0v96h96V400H304z"/></svg>