<svg xmlns="http://www.w3.org/2000/svg" viewBox="0 0 640 512"><!--! Font Awesome Pro 6.5.1 by @fontawesome - https://fontawesome.com License - https://fontawesome.com/license (Commercial License) Copyright 2023 Fonticons, Inc. --><path d="M296 0h-8V8 504v8h16v-8V16H496V200v8h8 56 16 48V504v8h16v-8V200v-8h-8H576V104 96H560v8 88H512V8 0h-8H296zm64 72v8 64 8h8 64 8v-8V80 72h-8H368h-8zm16 16h48v48H376V88zM496 264h-8v8 64 8h8 64 8v-8V272v-8h-8H496zm8 64V280h48v48H504zm-16 64v8 64 8h8 64 8v-8V400v-8h-8H496h-8zm16 16h48v48H504V408zM368 200h-8v8 64 8h8 64 8v-8V208v-8h-8H368zm8 64V216h48v48H376zm-16 64v8 64 8h8 64 8v-8V336v-8h-8H368h-8zm16 16h48v48H376V344zM157.7 154.3l-5.7-5.7L140.7 160l5.7 5.7L228.7 248H8 0v16H8 228.7l-82.3 82.3-5.7 5.7L152 363.3l5.7-5.7 96-96 5.7-5.7-5.7-5.7-96-96z"/></svg>