<svg xmlns="http://www.w3.org/2000/svg" viewBox="0 0 448 512"><!--! Font Awesome Pro 6.5.1 by @fontawesome - https://fontawesome.com License - https://fontawesome.com/license (Commercial License) Copyright 2023 Fonticons, Inc. --><path d="M224 4.7l5.7 5.7 88 88 5.7 5.7L312 115.3l-5.7-5.7L232 35.3V184v8H216v-8V35.3l-74.3 74.3-5.7 5.7L124.7 104l5.7-5.7 88-88L224 4.7zM48 240v32H16V240H48zm64 0h32v32H112V240zm128 0v32H208V240h32zm64 0h32v32H304V240zm128 0v32H400V240h32zM229.7 501.7l-5.7 5.7-5.7-5.7-88-88-5.7-5.7L136 396.7l5.7 5.7L216 476.7V328v-8h16v8V476.7l74.3-74.3 5.7-5.7L323.3 408l-5.7 5.7-88 88z"/></svg>