<svg xmlns="http://www.w3.org/2000/svg" viewBox="0 0 512 512"><!--! Font Awesome Pro 6.5.1 by @fontawesome - https://fontawesome.com License - https://fontawesome.com/license (Commercial License) Copyright 2023 Fonticons, Inc. --><path d="M496 256C496 123.5 388.5 16 256 16h-8V0h8C397.4 0 512 114.6 512 256s-114.6 256-256 256h-8V496h8c132.5 0 240-107.5 240-240zM197.2 121.9l152 128 7.3 6.1-7.3 6.1-152 128-6.1 5.2L180.7 383l6.1-5.2L322.1 264H8 0V248H8 322.1L186.8 134.1l-6.1-5.2L191 116.7l6.1 5.2z"/></svg>