<svg xmlns="http://www.w3.org/2000/svg" viewBox="0 0 448 512"><!--! Font Awesome Pro 6.5.1 by @fontawesome - https://fontawesome.com License - https://fontawesome.com/license (Commercial License) Copyright 2023 Fonticons, Inc. --><path d="M224 195.3l5.7-5.7 88-88 5.7-5.7L312 84.7l-5.7 5.7L232 164.7V8 0H216V8 164.7L141.7 90.3 136 84.7 124.7 96l5.7 5.7 88 88 5.7 5.7zm0 121.4l-5.7 5.7-88 88-5.7 5.7L136 427.3l5.7-5.7L216 347.3V504v8h16v-8V347.3l74.3 74.3 5.7 5.7L323.3 416l-5.7-5.7-88-88-5.7-5.7zM8 248H0v16H8 440h8V248h-8H8z"/></svg>