<svg xmlns="http://www.w3.org/2000/svg" viewBox="0 0 576 512"><!--! Font Awesome Pro 6.5.1 by @fontawesome - https://fontawesome.com License - https://fontawesome.com/license (Commercial License) Copyright 2023 Fonticons, Inc. --><path d="M133.7 469.7l-5.7 5.7-5.7-5.7-104-104L12.7 360 24 348.7l5.7 5.7L120 444.7V40 32h16v8V444.7l90.3-90.3 5.7-5.7L243.3 360l-5.7 5.7-104 104zM296 48h80 8V64h-8H296h-8V48h8zm0 144H440h8v16h-8H296h-8V192h8zm0 128H504h8v16h-8H296h-8V320h8zm0 128H568h8v16h-8H296h-8V448h8z"/></svg>