<svg xmlns="http://www.w3.org/2000/svg" viewBox="0 0 576 512"><!--! Font Awesome Pro 6.5.1 by @fontawesome - https://fontawesome.com License - https://fontawesome.com/license (Commercial License) Copyright 2023 Fonticons, Inc. --><path d="M368 32h8 56 8v8V208h48 8v16h-8H432 376h-8V208h8 48V48H376h-8V32zM160 36.7l5.7 5.7 112 112 5.7 5.7L272 171.3l-5.7-5.7L168 67.3V472v8H152v-8V67.3L53.7 165.7 48 171.3 36.7 160l5.7-5.7 112-112 5.7-5.7zM428 272a68 68 0 1 0 -.2 136.1A68 68 0 1 0 428 272zm0 152c-46.4 0-84-37.6-84-84s37.6-84 84-84c45 0 81.8 35.5 83.9 80h.1c0 .7 0 1.4 0 2.1c0 .6 0 1.3 0 1.9c0 10.8-2 21.1-5.8 30.6c-4 11.8-10.1 22.8-18 32.6l-62 76.7H405.7l48.6-60.2c-8.3 2.7-17.1 4.2-26.3 4.2z"/></svg>