<svg xmlns="http://www.w3.org/2000/svg" viewBox="0 0 512 512"><!--! Font Awesome Pro 6.5.1 by @fontawesome - https://fontawesome.com License - https://fontawesome.com/license (Commercial License) Copyright 2023 Fonticons, Inc. --><path d="M476.6 224c-8-55.2-36.4-107.5-83.8-144.5C295.3 3.3 154.5 20.6 78.4 118.1l-.1 .1 0 0L46.9 160V72 64h-16v8V184v8h8 112 8V176h-8-96L91 127.9C161.7 37.4 292.4 21.4 382.9 92.1c43.4 33.9 69.6 81.5 77.5 131.9h16.2zm-5.9 96h-112-8v16h8H456l-36.1 48.1c-70.7 90.5-201.4 106.5-291.9 35.8C84.6 386 58.3 338.4 50.5 288H34.3c8 55.2 36.4 107.5 83.8 144.5c97.5 76.2 238.3 58.9 314.4-38.6l.1-.1 0 0 30.1-40V440v8h16v-8V328v-8h-8z"/></svg>