<svg xmlns="http://www.w3.org/2000/svg" viewBox="0 0 512 512"><!--! Font Awesome Pro 6.5.1 by @fontawesome - https://fontawesome.com License - https://fontawesome.com/license (Commercial License) Copyright 2023 Fonticons, Inc. --><path d="M16 256C16 123.5 123.5 16 256 16h8V0h-8C114.6 0 0 114.6 0 256S114.6 512 256 512h8V496h-8C123.5 496 16 388.5 16 256zM314.8 121.9l-152 128-7.3 6.1 7.3 6.1 152 128 6.1 5.2L331.3 383l-6.1-5.2L189.9 264H504h8V248h-8H189.9L325.2 134.1l6.1-5.2L321 116.7l-6.1 5.2z"/></svg>