<svg xmlns="http://www.w3.org/2000/svg" viewBox="0 0 512 512"><!--! Font Awesome Pro 6.5.1 by @fontawesome - https://fontawesome.com License - https://fontawesome.com/license (Commercial License) Copyright 2023 Fonticons, Inc. --><path d="M127.9 419.9c90.5 70.7 221.2 54.7 292-35.8s54.7-221.2-35.8-292C293.6 21.4 162.9 37.4 92.1 127.9L56 176H184h8v16h-8H40 32v-8V40 32H48v8V160l31.4-41.8 0 0 .1-.1C155.6 20.6 296.4 3.3 393.9 79.5s114.8 216.9 38.6 314.4s-216.9 114.8-314.4 38.6C93.4 413.2 73.9 389.8 59.7 364l14-7.7c13.2 24 31.3 45.7 54.3 63.7z"/></svg>