<svg xmlns="http://www.w3.org/2000/svg" viewBox="0 0 512 512"><!--! Font Awesome Pro 6.5.1 by @fontawesome - https://fontawesome.com License - https://fontawesome.com/license (Commercial License) Copyright 2023 Fonticons, Inc. --><path d="M492.4 256c0-132.5-107.4-240-240-240h-8V0h8c141.4 0 256 114.6 256 256s-114.6 256-256 256h-8V496h8c132.5 0 240-107.5 240-240zM159.3 121.9l6.1-5.2L175.7 129l-6.1 5.2L34.3 248H340.4h8v16h-8H34.3L169.6 377.9l6.1 5.2-10.3 12.2-6.1-5.2-152-128L0 256l7.3-6.1 152-128z"/></svg>