<svg xmlns="http://www.w3.org/2000/svg" viewBox="0 0 448 512"><!--! Font Awesome Pro 6.5.1 by @fontawesome - https://fontawesome.com License - https://fontawesome.com/license (Commercial License) Copyright 2023 Fonticons, Inc. --><path d="M224 4.7l-5.7 5.7-88 88-5.7 5.7L136 115.3l5.7-5.7L216 35.3V184v8h16v-8V35.3l74.3 74.3 5.7 5.7L323.3 104l-5.7-5.7-88-88L224 4.7zm0 502.6l5.7-5.7 88-88 5.7-5.7L312 396.7l-5.7 5.7L232 476.7V328v-8H216v8V476.7l-74.3-74.3-5.7-5.7L124.7 408l5.7 5.7 88 88 5.7 5.7zM8 248H0v16H8 440h8V248h-8H8z"/></svg>