<svg xmlns="http://www.w3.org/2000/svg" viewBox="0 0 576 512"><!--! Font Awesome Pro 6.5.1 by @fontawesome - https://fontawesome.com License - https://fontawesome.com/license (Commercial License) Copyright 2023 Fonticons, Inc. --><path d="M160 507.3l5.7-5.7 96-96 5.7-5.7L256 388.7l-5.7 5.7L168 476.7V264H568h8V248h-8H424V35.3l82.3 82.3 5.7 5.7L523.3 112l-5.7-5.7-96-96L416 4.7l-5.7 5.7-96 96-5.7 5.7L320 123.3l5.7-5.7L408 35.3V248H8 0v16H8 152V476.7L69.7 394.3 64 388.7 52.7 400l5.7 5.7 96 96 5.7 5.7zM152 40V192h16V40 32H152v8zM408 320V472v8h16v-8V320H408z"/></svg>