<svg xmlns="http://www.w3.org/2000/svg" viewBox="0 0 512 512"><!--! Font Awesome Pro 6.5.1 by @fontawesome - https://fontawesome.com License - https://fontawesome.com/license (Commercial License) Copyright 2023 Fonticons, Inc. --><path d="M162.3 98.3l-5.7 5.7L168 115.3l5.7-5.7L248 35.3V248L35.3 248l74.3-74.3 5.7-5.7L104 156.7l-5.7 5.7-88 88L4.7 256l5.7 5.7 88 88 5.7 5.7L115.3 344l-5.7-5.7L35.3 264H248l0 212.7-74.3-74.3-5.7-5.7L156.7 408l5.7 5.7 88 88 5.7 5.7 5.7-5.7 88-88 5.7-5.7L344 396.7l-5.7 5.7L264 476.7 264 264l212.7 0-74.3 74.3-5.7 5.7L408 355.3l5.7-5.7 88-88 5.7-5.7-5.7-5.7-88-88-5.7-5.7L396.7 168l5.7 5.7L476.7 248 264 248V35.3l74.3 74.3 5.7 5.7L355.3 104l-5.7-5.7-88-88L256 4.7l-5.7 5.7-88 88z"/></svg>