<svg xmlns="http://www.w3.org/2000/svg" viewBox="0 0 512 512"><!--! Font Awesome Pro 6.5.1 by @fontawesome - https://fontawesome.com License - https://fontawesome.com/license (Commercial License) Copyright 2023 Fonticons, Inc. --><path d="M40 28.7l5.7 5.7L208 196.7V72 64h16v8V216v8h-8H72 64V208h8H196.7L34.3 45.7 28.7 40 40 28.7zM483.3 40l-5.7 5.7L315.3 208H440h8v16h-8H296h-8v-8V72 64h16v8V196.7L466.3 34.3l5.7-5.7L483.3 40zM64 288h8H216h8v8V440v8H208v-8V315.3L45.7 477.7 40 483.3 28.7 472l5.7-5.7L196.7 304H72 64V288zm224 0h8H440h8v16h-8H315.3L477.7 466.3l5.7 5.7L472 483.3l-5.7-5.7L304 315.3V440v8H288v-8V296v-8z"/></svg>