<svg xmlns="http://www.w3.org/2000/svg" viewBox="0 0 576 512"><!--! Font Awesome Pro 6.5.1 by @fontawesome - https://fontawesome.com License - https://fontawesome.com/license (Commercial License) Copyright 2023 Fonticons, Inc. --><path d="M133.7 42.3L128 36.7l-5.7 5.7-104 104L12.7 152 24 163.3l5.7-5.7L120 67.3V472v8h16v-8V67.3l90.3 90.3 5.7 5.7L243.3 152l-5.7-5.7-104-104zM296 464h80 8V448h-8H296h-8v16h8zm0-144H440h8V304h-8H296h-8v16h8zm0-128H504h8V176h-8H296h-8v16h8zm0-128H568h8V48h-8H296h-8V64h8z"/></svg>