<svg xmlns="http://www.w3.org/2000/svg" viewBox="0 0 640 512"><!--! Font Awesome Pro 6.5.1 by @fontawesome - https://fontawesome.com License - https://fontawesome.com/license (Commercial License) Copyright 2023 Fonticons, Inc. --><path d="M133.7 66.3L128 60.7l-5.7 5.7-88 88L28.7 160 40 171.3l5.7-5.7L120 91.3V408v8h8H344h8V400h-8H136V91.3l74.3 74.3 5.7 5.7L227.3 160l-5.7-5.7-88-88zM498.3 445.7l5.7 5.7 5.7-5.7 88-88 5.7-5.7L592 340.7l-5.7 5.7L512 420.7V104 96h-8H288h-8v16h8H496V420.7l-74.3-74.3-5.7-5.7L404.7 352l5.7 5.7 88 88z"/></svg>