<svg xmlns="http://www.w3.org/2000/svg" viewBox="0 0 576 512"><!--! Font Awesome Pro 6.5.1 by @fontawesome - https://fontawesome.com License - https://fontawesome.com/license (Commercial License) Copyright 2023 Fonticons, Inc. --><path d="M421.7 469.7l-5.7 5.7-5.7-5.7-112-112-5.7-5.7L304 340.7l5.7 5.7L408 444.7V40 32h16v8V444.7l98.3-98.3 5.7-5.7L539.3 352l-5.7 5.7-112 112zM165.7 42.3l112 112 5.7 5.7L272 171.3l-5.7-5.7L168 67.3V472v8H152v-8V67.3L53.7 165.7 48 171.3 36.7 160l5.7-5.7 112-112 5.7-5.7 5.7 5.7z"/></svg>