<svg xmlns="http://www.w3.org/2000/svg" viewBox="0 0 512 512"><!--! Font Awesome Pro 6.5.1 by @fontawesome - https://fontawesome.com License - https://fontawesome.com/license (Commercial License) Copyright 2023 Fonticons, Inc. --><path d="M86.6 64l-8 8 39.6 39.6 0 0 .8 .8 49 49 8-8V64H86.6zM67.3 83.3L56 72 67.3 60.7 80 48h96 16V64v96l-12.7 12.7L168 184l-11.3-11.3-38.2-38.2c-28.3 32.3-45.4 74.7-45.4 121c0 11.1 1 21.9 2.9 32.5H59.8c-1.7-10.6-2.6-21.4-2.6-32.5c0-50.7 18.9-97.1 50-132.3L67.3 83.3zM257.1 71.5c-11.3 0-22.4 1-33.1 3V58.3c10.8-1.8 21.8-2.7 33.1-2.7c51 0 97.5 19.1 132.8 50.5l38.7-38.7L440 56l11.3 11.3L464 80v96 16H448 352l-12.7-12.7L328 168l11.3-11.3 39.3-39.3c-32.4-28.5-74.9-45.8-121.5-45.8zm184 184c0-10.7-.9-21.3-2.7-31.5h16.2c1.6 10.3 2.5 20.8 2.5 31.5c0 51.6-19.5 98.6-51.6 134l39.1 39.1L456 440l-11.3 11.3L432 464H336 320V448 352l12.7-12.7L344 328l11.3 11.3 38.9 38.9c29.2-32.6 46.9-75.6 46.9-122.7zM394.3 401.1l-1.5-1.6L344 350.6l-8 8V448h89.4l8-8-39-39-.1 .1zM288 437v16.2c-10.1 1.6-20.4 2.4-30.9 2.4c-51.3 0-98.1-19.3-133.5-51.1L83.3 444.7 72 456 60.7 444.7 48 432V336 320H64h96l12.7 12.7L184 344l-11.3 11.3-37.8 37.8c32.5 28.9 75.3 46.5 122.2 46.5c10.5 0 20.8-.9 30.9-2.6zM440 78.6L350.6 168l8 8 89.4 0V86.6l-8-8zM72 433.4L161.4 344l-8-8H64l0 89.4 8 8z"/></svg>