<svg xmlns="http://www.w3.org/2000/svg" viewBox="0 0 576 512"><!--! Font Awesome Pro 6.5.1 by @fontawesome - https://fontawesome.com License - https://fontawesome.com/license (Commercial License) Copyright 2023 Fonticons, Inc. --><path d="M165.7 469.7l-5.7 5.7-5.7-5.7-112-112L36.7 352 48 340.7l5.7 5.7L152 444.7V40 32h16v8V444.7l98.3-98.3 5.7-5.7L283.3 352l-5.7 5.7-112 112zM344 288H488h8v8 8 3.1l-2.1 2.3L354.8 464H488h8v16h-8H344h-8v-8-8-3.1l2.1-2.3L477.2 304H344h-8V288h8zm17.8-112l-22.3 48H321.9L408.7 36.6l2.2-4.6h10.2l2.1 4.6L510.1 224H492.5l-22.3-48H361.8zm101.1-16L416 59 369.2 160h93.6z"/></svg>