<svg xmlns="http://www.w3.org/2000/svg" viewBox="0 0 640 512"><!--! Font Awesome Pro 6.5.1 by @fontawesome - https://fontawesome.com License - https://fontawesome.com/license (Commercial License) Copyright 2023 Fonticons, Inc. --><path d="M16 64v8l0 368v8H0v-8V72 64H16zm195.3 96l-5.7 5.7L123.3 248l393.4 0-82.3-82.3-5.7-5.7L440 148.7l5.7 5.7 96 96 5.7 5.7-5.7 5.7-96 96-5.7 5.7L428.7 352l5.7-5.7L516.7 264l-393.4 0 82.3 82.3 5.7 5.7L200 363.3l-5.7-5.7-96-96L92.7 256l5.7-5.7 96-96 5.7-5.7L211.3 160zM640 72V440v8H624v-8V72 64h16v8z"/></svg>