<svg xmlns="http://www.w3.org/2000/svg" viewBox="0 0 576 512"><!--! Font Awesome Pro 6.5.1 by @fontawesome - https://fontawesome.com License - https://fontawesome.com/license (Commercial License) Copyright 2023 Fonticons, Inc. --><path d="M410.9 32l-2.1 4.6L321.9 224h17.6l22.3-48H470.2l22.3 48h17.6L423.3 36.6 421.1 32H410.9zm51.9 128H369.2L416 59l46.8 101zM165.7 42.3L160 36.7l-5.7 5.7-112 112L36.7 160 48 171.3l5.7-5.7L152 67.3V472v8h16v-8V67.3l98.3 98.3 5.7 5.7L283.3 160l-5.7-5.7-112-112zM344 288h-8v16h8H477.2L338.1 458.6l-2.1 2.3V464v8 8h8H488h8V464h-8H354.8L493.9 309.4l2.1-2.3V304v-8-8h-8H344z"/></svg>