<svg xmlns="http://www.w3.org/2000/svg" viewBox="0 0 512 512"><!--! Font Awesome Pro 6.5.1 by @fontawesome - https://fontawesome.com License - https://fontawesome.com/license (Commercial License) Copyright 2023 Fonticons, Inc. --><path d="M229.7 117.7l-5.7 5.7L212.7 112l5.7-5.7 96-96L320 4.7l5.7 5.7 96 96 5.7 5.7L416 123.3l-5.7-5.7L328 35.3V280v8 96V496H504h8v16h-8H320h-8v-8V384 296H35.3l82.3 82.3 5.7 5.7L112 395.3l-5.7-5.7L12.7 296H8v-4.7L4.7 288 8 284.7V280h4.7l93.7-93.7 5.7-5.7L123.3 192l-5.7 5.7L35.3 280H312V35.3l-82.3 82.3z"/></svg>