<svg xmlns="http://www.w3.org/2000/svg" viewBox="0 0 576 512"><!--! Font Awesome Pro 6.5.1 by @fontawesome - https://fontawesome.com License - https://fontawesome.com/license (Commercial License) Copyright 2023 Fonticons, Inc. --><path d="M296 224h18.9H517.1 536l-10-16L425.4 47.1 416 32l-9.4 15.1L306 208l-10 16zm211.1-16H324.9L416 62.2 507.1 208zM336 304H496V464H336V304zm0-16H320v16V464v16h16H496h16V464 304 288H496 336zM165.7 42.3L160 36.7l-5.7 5.7-104 104L44.7 152 56 163.3l5.7-5.7L152 67.3V472v8h16v-8V67.3l90.3 90.3 5.7 5.7L275.3 152l-5.7-5.7-104-104z"/></svg>