<svg xmlns="http://www.w3.org/2000/svg" viewBox="0 0 512 512"><!--! Font Awesome Pro 6.5.1 by @fontawesome - https://fontawesome.com License - https://fontawesome.com/license (Commercial License) Copyright 2023 Fonticons, Inc. --><path d="M0 264v8H16v-8V104H419.3l-72.7 66.1-5.9 5.4 10.8 11.8 5.9-5.4 88-80 6.5-5.9-6.5-5.9-88-80-5.9-5.4L340.7 16.5l5.9 5.4L419.3 88H8 0v8V264zm512-16v-8H496v8V408H92.7l72.7-66.1 5.9-5.4-10.8-11.8-5.9 5.4-88 80L60.1 416l6.5 5.9 88 80 5.9 5.4 10.8-11.8-5.9-5.4L92.7 424H504h8v-8V248z"/></svg>