<svg xmlns="http://www.w3.org/2000/svg" viewBox="0 0 576 512"><!--! Font Awesome Pro 6.5.1 by @fontawesome - https://fontawesome.com License - https://fontawesome.com/license (Commercial License) Copyright 2023 Fonticons, Inc. --><path d="M336 192H320V176 48 32h16H464h16V48 176v16H464 336zm128-16V48H336V176H464zM160 36.7l5.7 5.7 104 104 5.7 5.7L264 163.3l-5.7-5.7L168 67.3V472v8H152v-8V67.3L61.7 157.7 56 163.3 44.7 152l5.7-5.7 104-104 5.7-5.7zM320 480V464 272 256h16H528h16v16V464v16H528 336 320zM528 272H336V464H528V272z"/></svg>