<svg xmlns="http://www.w3.org/2000/svg" viewBox="0 0 640 512"><!--! Font Awesome Pro 6.5.1 by @fontawesome - https://fontawesome.com License - https://fontawesome.com/license (Commercial License) Copyright 2023 Fonticons, Inc. --><path d="M128 507.3l5.7-5.7 96-96 5.7-5.7L224 388.7l-5.7 5.7L136 476.7V264H416.3c.4-5.5 1.2-10.8 2.3-16H328V35.3l82.3 82.3 5.7 5.7L427.3 112l-5.7-5.7-96-96L320 4.7l-5.7 5.7-96 96-5.7 5.7L224 123.3l5.7-5.7L312 35.3V248H8 0v16H8 120V476.7L37.7 394.3 32 388.7 20.7 400l5.7 5.7 96 96 5.7 5.7zM120 40V192h16V40 32H120v8zM312 320V472v8h16v-8V320H312zM528 208c26.5 0 48 21.5 48 48v64H480V256c0-26.5 21.5-48 48-48zm-64 48v64H432 416v16V496v16h16H624h16V496 336 320H624 592V256c0-35.3-28.7-64-64-64s-64 28.7-64 64zm-32 80h32 16 96 16 32V496H432V336z"/></svg>