<svg xmlns="http://www.w3.org/2000/svg" viewBox="0 0 576 512"><!--! Font Awesome Pro 6.5.1 by @fontawesome - https://fontawesome.com License - https://fontawesome.com/license (Commercial License) Copyright 2023 Fonticons, Inc. --><path d="M160 475.3l5.7-5.7 112-112 5.7-5.7L272 340.7l-5.7 5.7L168 444.7V40 32H152v8V444.7L53.7 346.3 48 340.7 36.7 352l5.7 5.7 112 112 5.7 5.7zM336 32V48h8H477.2L338.1 202.6l-2.1 2.3V208v8 8h8H488h8V208h-8H354.8L493.9 53.4l2.1-2.3V48 40 32h-8H344h-8zm72.7 260.6L321.9 480h17.6l22.3-48H470.2l22.3 48h17.6L423.3 292.6l-2.1-4.6H410.9l-2.1 4.6zM416 315l46.8 101H369.2L416 315z"/></svg>