<svg xmlns="http://www.w3.org/2000/svg" viewBox="0 0 576 512"><!--! Font Awesome Pro 6.5.1 by @fontawesome - https://fontawesome.com License - https://fontawesome.com/license (Commercial License) Copyright 2023 Fonticons, Inc. --><path d="M165.7 469.7l-5.7 5.7-5.7-5.7-104-104L44.7 360 56 348.7l5.7 5.7L152 444.7V40 32h16v8V444.7l90.3-90.3 5.7-5.7L275.3 360l-5.7 5.7-104 104zM496 48H336V208H496V48zM336 32H496h16V48 208v16H496 336 320V208 48 32h16zM296 480l10-16L406.6 303.1 416 288l9.4 15.1L526 464l10 16H517.1 314.9 296zm211.1-16L416 318.2 324.9 464H507.1z"/></svg>