<svg xmlns="http://www.w3.org/2000/svg" viewBox="0 0 512 512"><!--! Font Awesome Pro 6.5.1 by @fontawesome - https://fontawesome.com License - https://fontawesome.com/license (Commercial License) Copyright 2023 Fonticons, Inc. --><path d="M0 272v-8V96 88H8 419.3L346.6 21.9l-5.9-5.4L351.5 4.7l5.9 5.4 88 80 6.5 5.9-6.5 5.9-88 80-5.9 5.4-10.8-11.8 5.9-5.4L419.3 104H16V264v8H0zm512-32v8V416v8h-8H92.7l72.7 66.1 5.9 5.4-10.8 11.8-5.9-5.4-88-80L60.1 416l6.5-5.9 88-80 5.9-5.4 10.8 11.8-5.9 5.4L92.7 408H496V248v-8h16zM240 192h32 8v8V312v8H264v-8V208H240h-8V192h8z"/></svg>