<svg xmlns="http://www.w3.org/2000/svg" viewBox="0 0 576 512"><!--! Font Awesome Pro 6.5.1 by @fontawesome - https://fontawesome.com License - https://fontawesome.com/license (Commercial License) Copyright 2023 Fonticons, Inc. --><path d="M421.7 42.3L416 36.7l-5.7 5.7-112 112-5.7 5.7L304 171.3l5.7-5.7L408 67.3V472v8h16v-8V67.3l98.3 98.3 5.7 5.7L539.3 160l-5.7-5.7-112-112zm-256 427.3l112-112 5.7-5.7L272 340.7l-5.7 5.7L168 444.7V40 32H152v8V444.7L53.7 346.3 48 340.7 36.7 352l5.7 5.7 112 112 5.7 5.7 5.7-5.7z"/></svg>