<svg xmlns="http://www.w3.org/2000/svg" viewBox="0 0 576 512"><!--! Font Awesome Pro 6.5.1 by @fontawesome - https://fontawesome.com License - https://fontawesome.com/license (Commercial License) Copyright 2023 Fonticons, Inc. --><path d="M496 48V208H336V48H496zM336 32H320V48 208v16h16H496h16V208 48 32H496 336zM296 480h18.9H517.1 536l-10-16L425.4 303.1 416 288l-9.4 15.1L306 464l-10 16zm211.1-16H324.9L416 318.2 507.1 464zM165.7 42.3L160 36.7l-5.7 5.7-104 104L44.7 152 56 163.3l5.7-5.7L152 67.3V472v8h16v-8V67.3l90.3 90.3 5.7 5.7L275.3 152l-5.7-5.7-104-104z"/></svg>