<svg xmlns="http://www.w3.org/2000/svg" viewBox="0 0 576 512"><!--! Font Awesome Pro 6.5.1 by @fontawesome - https://fontawesome.com License - https://fontawesome.com/license (Commercial License) Copyright 2023 Fonticons, Inc. --><path d="M160 475.3l5.7-5.7 104-104 5.7-5.7L264 348.7l-5.7 5.7L168 444.7V40 32H152v8V444.7L61.7 354.3 56 348.7 44.7 360l5.7 5.7 104 104 5.7 5.7zM336 192H464h16V176 48 32H464 336 320V48 176v16h16zm128-16H336V48H464V176zM320 480h16H528h16V464 272 256H528 336 320v16V464v16zM528 272V464H336V272H528z"/></svg>