<svg xmlns="http://www.w3.org/2000/svg" viewBox="0 0 448 512"><!--! Font Awesome Pro 6.5.1 by @fontawesome - https://fontawesome.com License - https://fontawesome.com/license (Commercial License) Copyright 2023 Fonticons, Inc. --><path d="M229.7 189.7l-5.7 5.7-5.7-5.7-88-88L124.7 96 136 84.7l5.7 5.7L216 164.7V8 0h16V8 164.7l74.3-74.3 5.7-5.7L323.3 96l-5.7 5.7-88 88zM48 240v32H16V240H48zm64 0h32v32H112V240zm96 32V240h32v32H208zm96-32h32v32H304V240zm128 0v32H400V240h32zM224 316.7l5.7 5.7 88 88 5.7 5.7L312 427.3l-5.7-5.7L232 347.3V504v8H216v-8V347.3l-74.3 74.3-5.7 5.7L124.7 416l5.7-5.7 88-88 5.7-5.7z"/></svg>