<svg xmlns="http://www.w3.org/2000/svg" viewBox="0 0 576 512"><!--! Font Awesome Pro 6.5.1 by @fontawesome - https://fontawesome.com License - https://fontawesome.com/license (Commercial License) Copyright 2023 Fonticons, Inc. --><path d="M336 32h8H488h8v8 8 3.1l-2.1 2.3L354.8 208H488h8v16h-8H344h-8v-8-8-3.1l2.1-2.3L477.2 48H344h-8V32zM160 36.7l5.7 5.7 112 112 5.7 5.7L272 171.3l-5.7-5.7L168 67.3V472v8H152v-8V67.3L53.7 165.7 48 171.3 36.7 160l5.7-5.7 112-112 5.7-5.7zM408.7 292.6l2.1-4.6h10.2l2.2 4.6L510.1 480H492.5l-22.3-48H361.8l-22.3 48H321.9l86.9-187.4zM416 315L369.2 416h93.6L416 315z"/></svg>