<svg xmlns="http://www.w3.org/2000/svg" viewBox="0 0 512 512"><!--! Font Awesome Pro 6.5.1 by @fontawesome - https://fontawesome.com License - https://fontawesome.com/license (Commercial License) Copyright 2023 Fonticons, Inc. --><path d="M34.3 224c8-55.2 36.4-107.5 83.8-144.5c97.5-76.2 238.3-58.9 314.4 38.6l.1 .1 0 0L464 160V72 64h16v8V184v8h-8H360h-8V176h8 96l-36.1-48.1C349.1 37.4 218.4 21.4 127.9 92.1C84.6 126 58.3 173.6 50.5 224H34.3zm5.9 96h112 8v16h-8H54.9L91 384.1c70.7 90.5 201.4 106.5 291.9 35.8c43.4-33.9 69.6-81.5 77.5-131.9h16.2c-8 55.2-36.4 107.5-83.8 144.5c-97.5 76.2-238.3 58.9-314.4-38.6l-.1-.1 0 0-30.1-40V440v8h-16v-8V328v-8h8z"/></svg>