<svg xmlns="http://www.w3.org/2000/svg" viewBox="0 0 512 512"><!--! Font Awesome Pro 6.5.1 by @fontawesome - https://fontawesome.com License - https://fontawesome.com/license (Commercial License) Copyright 2023 Fonticons, Inc. --><path d="M384.1 419.9c-90.5 70.7-221.2 54.7-292-35.8s-54.7-221.2 35.8-292c90.5-70.7 221.2-54.7 291.9 35.8L456 176H328h-8v16h8H472h8v-8V40 32H464v8V160l-31.4-41.8 0 0-.1-.1C356.4 20.6 215.6 3.3 118.1 79.5S3.3 296.4 79.5 393.9s216.9 114.8 314.4 38.6c24.7-19.3 44.2-42.7 58.4-68.6l-14-7.7c-13.2 24-31.3 45.7-54.3 63.7z"/></svg>