<svg xmlns="http://www.w3.org/2000/svg" viewBox="0 0 512 512"><!--! Font Awesome Pro 6.5.1 by @fontawesome - https://fontawesome.com License - https://fontawesome.com/license (Commercial License) Copyright 2023 Fonticons, Inc. --><path d="M274.3 34.3l5.7-5.7L291.3 40l-5.7 5.7L211.3 120 504 120h8v8V248v8H496v-8V136l-284.7 0 74.3 74.3 5.7 5.7L280 227.3l-5.7-5.7-88-88-5.7-5.7 5.7-5.7 88-88zm-36.7 256l88 88 5.7 5.7-5.7 5.7-88 88-5.7 5.7L220.7 472l5.7-5.7L300.7 392 16 392l0 112v8H0v-8V384v-8H8l292.7 0-74.3-74.3-5.7-5.7L232 284.7l5.7 5.7zM448 432a48 48 0 1 0 0-96 48 48 0 1 0 0 96zm0-112a64 64 0 1 1 0 128 64 64 0 1 1 0-128zM16 128a48 48 0 1 0 96 0 48 48 0 1 0 -96 0zm112 0A64 64 0 1 1 0 128a64 64 0 1 1 128 0z"/></svg>