<svg xmlns="http://www.w3.org/2000/svg" viewBox="0 0 512 512"><!--! Font Awesome Pro 6.5.1 by @fontawesome - https://fontawesome.com License - https://fontawesome.com/license (Commercial License) Copyright 2023 Fonticons, Inc. --><path d="M16 256C16 123.5 123.5 16 256 16s240 107.5 240 240l0 20 0 68H428c-37.6 0-68-30.4-68-68V256 168v-8H344v8 32.5c-18.4-29.2-50.9-48.5-88-48.5c-57.4 0-104 46.6-104 104s46.6 104 104 104c40.4 0 75.3-23 92.6-56.6C359.9 336.4 391.2 360 428 360h76 8v-8l0-76 0-20C512 114.6 397.4 0 256 0S0 114.6 0 256S114.6 512 256 512h8V496h-8C123.5 496 16 388.5 16 256zm152 0a88 88 0 1 1 176 0 88 88 0 1 1 -176 0z"/></svg>