<svg xmlns="http://www.w3.org/2000/svg" viewBox="0 0 576 512"><!--! Font Awesome Pro 6.5.1 by @fontawesome - https://fontawesome.com License - https://fontawesome.com/license (Commercial License) Copyright 2023 Fonticons, Inc. --><path d="M16 48V464H560V48H16zM0 32H16 560h16V48 464v16H560 16 0V464 48 32zM186.9 160h10.2l2.1 4.6L286.1 352H268.5l-29.7-64H145.2l-29.7 64H97.9l86.9-187.4 2.1-4.6zm44.5 112L192 187l-39.4 85h78.8zM312 160h8 64c53 0 96 43 96 96s-43 96-96 96H320h-8v-8V168v-8zm16 16V336h56c44.2 0 80-35.8 80-80s-35.8-80-80-80H328z"/></svg>