<svg xmlns="http://www.w3.org/2000/svg" viewBox="0 0 640 512"><!--! Font Awesome Pro 6.5.1 by @fontawesome - https://fontawesome.com License - https://fontawesome.com/license (Commercial License) Copyright 2023 Fonticons, Inc. --><path d="M16.2 5L9.9 0 0 12.5l6.3 5L623.8 507l6.3 5 9.9-12.5-6.3-5L16.2 5zM487.5 480l-20.3-16H48V133L32 120.4V464v16H48 487.5zM152.5 32l20.3 16H592V379l16 12.6V48 32H592 152.5zM344 183.2l16 12.6V176h56c44.2 0 80 35.8 80 80c0 14.2-3.7 27.6-10.2 39.1l12.7 10C507.1 290.8 512 274 512 256c0-53-43-96-96-96H352h-8v8 15.2zM182.3 239L129.9 352h17.6l29.7-64h67.2l-20.3-16H184.6l10.6-22.8L182.3 239z"/></svg>