<svg xmlns="http://www.w3.org/2000/svg" viewBox="0 0 448 512"><!--! Font Awesome Pro 6.5.1 by @fontawesome - https://fontawesome.com License - https://fontawesome.com/license (Commercial License) Copyright 2023 Fonticons, Inc. --><path d="M210.6 32H216h15 5.4l2 4.9L322.2 240H440h8v16h-8H328.9l33 80H440h8v16h-8H368.5l52.9 128H404L351.2 352H96.5L43.9 480H26.6L79.2 352H8 0V336H8 85.8l32.9-80H8 0V240H8 125.2L208.6 37l2-5zm15 16h-4.3L142.5 240H304.9L225.6 48zM103.1 336H344.6l-33-80H135.9l-32.9 80z"/></svg>