<svg xmlns="http://www.w3.org/2000/svg" viewBox="0 0 320 512"><!--! Font Awesome Pro 6.5.1 by @fontawesome - https://fontawesome.com License - https://fontawesome.com/license (Commercial License) Copyright 2023 Fonticons, Inc. --><path d="M8 32H0v8V240v8 8V472v8H8 200c66.3 0 120-53.7 120-120c0-56.7-39.3-104.2-92.1-116.7C263.6 224.5 288 187.1 288 144c0-61.9-50.1-112-112-112H8zM176 240H16V48H176c53 0 96 43 96 96s-43 96-96 96zM16 256H176h24c57.4 0 104 46.6 104 104s-46.6 104-104 104H16V256z"/></svg>