<svg xmlns="http://www.w3.org/2000/svg" viewBox="0 0 448 512"><!--! Font Awesome Pro 6.5.1 by @fontawesome - https://fontawesome.com License - https://fontawesome.com/license (Commercial License) Copyright 2023 Fonticons, Inc. --><path d="M95.5 135.7L173 192H275l77.5-56.3 19.4-14.1 12.9-9.4 9.4 12.9 28.2 38.8 9.4 12.9-12.9 9.4-19.4 14.1L320 258.2V288l0 16v24 1l46.1 52.7L389 407.8l-22.7 26.3-40 46.4-15.7 18.2-10.4 12.1-12.1-10.4L251.7 469l-12.1-10.4L250 446.5l15.7-18.2L283 408.2 261.8 384H256 192h-5.8L165 408.2l17.3 20.1L198 446.5l10.4 12.1L196.3 469l-36.4 31.3-12.1 10.4-10.4-12.1-15.7-18.2-40-46.4L59 407.8l22.9-26.1L128 329v-1V304l0-16V258.2L48.5 200.3 29.1 186.2l-12.9-9.4 9.4-12.9 28.2-38.8 9.4-12.9 12.9 9.4 19.4 14.1zM144 304v16.7L198 368h52l54-47.3V304H144zm160-16V258.2 250l6.6-4.8 79.5-57.8 19.4-14.1-28.2-38.8-19.4 14.1-77.5 56.3-4.2 3.1H275 173h-5.2l-4.2-3.1L86.1 148.6 66.7 134.5 38.5 173.3l19.4 14.1 79.5 57.8L144 250v8.1V288l160 0zm3.5 51l-36.1 31.6 2.5 2.9 21.2 24.2 9.2 10.5-9.1 10.5-17.3 20.1-15.7 18.2 36.4 31.3 15.7-18.2 40-46.4 13.6-15.8-13.7-15.7L308 339.5l-.5-.6zM176.6 370.6L140.5 339l-.5 .6L93.9 392.2 80.2 407.9l13.6 15.8 40 46.4 15.7 18.2 36.4-31.3-15.7-18.2-17.3-20.1-9.1-10.5 9.2-10.5 21.2-24.2 2.5-2.9zM280 88A56 56 0 1 0 168 88a56 56 0 1 0 112 0zM152 88a72 72 0 1 1 144 0A72 72 0 1 1 152 88z"/></svg>