<svg xmlns="http://www.w3.org/2000/svg" viewBox="0 0 512 512"><!--! Font Awesome Pro 6.5.1 by @fontawesome - https://fontawesome.com License - https://fontawesome.com/license (Commercial License) Copyright 2023 Fonticons, Inc. --><path d="M117.2 .9C49.8 34.9 3 103.7 .1 183.7l-.3 8 16 .6 .3-8C18.6 112.8 59.2 50.9 118.2 18.4L236.1 188.6l4.6 6.6 13.2-9.1-4.6-6.6L127.4 3.4c-2.3-3.3-6.6-4.4-10.2-2.6zM48 464a32 32 0 1 1 64 0 32 32 0 1 1 -64 0zm80 0a48 48 0 1 0 -96 0 48 48 0 1 0 96 0zm208 0a32 32 0 1 1 64 0 32 32 0 1 1 -64 0zm80 0a48 48 0 1 0 -96 0 48 48 0 1 0 96 0zm24-352h-8v8V224H8-1.9l2.1 9.7C22.6 337.9 114.2 416 224 416s201.4-78.1 223.8-182.3l.2-.8V232 128h56 8V112h-8H440zM18.1 240H429.9C405.5 332.2 322.5 400 224 400s-181.5-67.8-205.9-160z"/></svg>