<svg xmlns="http://www.w3.org/2000/svg" viewBox="0 0 448 512"><!--! Font Awesome Pro 6.5.1 by @fontawesome - https://fontawesome.com License - https://fontawesome.com/license (Commercial License) Copyright 2023 Fonticons, Inc. --><path d="M144 0h8H296h8V8 80h16c70.7 0 128 57.3 128 128V496v16H432 368 352 96 80 16 0V496 208C0 137.3 57.3 80 128 80h16V8 0zM96 496H352V392H96V496zm272 0h64V208c0-61.9-50.1-112-112-112H128C66.1 96 16 146.1 16 208V496H80V384 296v-8h8H360h8v8 88V496zM288 16H160V80H288V16zM136 192H312h8v16h-8H136h-8V192h8zM352 376V304H96v72H352z"/></svg>