<svg xmlns="http://www.w3.org/2000/svg" viewBox="0 0 448 512"><!--! Font Awesome Pro 6.5.1 by @fontawesome - https://fontawesome.com License - https://fontawesome.com/license (Commercial License) Copyright 2023 Fonticons, Inc. --><path d="M144 96v32H304V96c0-44.2-35.8-80-80-80s-80 35.8-80 80zm-16 32V96c0-53 43-96 96-96h8V.3c49.3 4.1 88 45.3 88 95.7v32H432h16v16V496v16H432 16 0V496 144 128H16 128zm0 16H16V496H432V144H320 304 144 128zm8 168h8 72V240v-8h16v8 72h72 8v16h-8H232v72l0 8H216l0-8V328H144h-8V312z"/></svg>