<svg xmlns="http://www.w3.org/2000/svg" viewBox="0 0 512 512"><!--! Font Awesome Pro 6.5.1 by @fontawesome - https://fontawesome.com License - https://fontawesome.com/license (Commercial License) Copyright 2023 Fonticons, Inc. --><path d="M76.5 80h359l15.6 62.4c8.6 34.3 12.9 69.5 12.9 104.8v17.7c0 35.3-4.3 70.5-12.9 104.8L435.5 432H76.5L60.9 369.6C52.3 335.4 48 300.2 48 264.8V247.2c0-35.3 4.3-70.5 12.9-104.8L76.5 80zM437.2 64H74.8L55.6 16H456.4L437.2 64zM74.8 448H437.2l19.2 48H55.6l19.2-48zM32 0l6.4 16L61.5 73.8 45.4 138.5C36.5 174 32 210.5 32 247.2v17.7c0 36.6 4.5 73.1 13.4 108.7l16.2 64.6L38.4 496 32 512H49.2 462.8 480l-6.4-16-23.1-57.8 16.2-64.6c8.9-35.5 13.4-72 13.4-108.7V247.2c0-36.6-4.5-73.1-13.4-108.7L450.5 73.8 473.6 16 480 0H462.8 49.2 32zm96 160v8 8c0 68 53 123.6 120 127.8V368v8h16v-8V303.8C331 299.6 384 244 384 176v-8-8h-8H344.7c-38.8 0-71.2 21-88.7 50.9C238.5 181 206.1 160 167.3 160H136h-8zM264 287.7V230.9c12.5-31.5 43-54.9 80.7-54.9H368c0 59.2-45.9 107.6-104 111.7zm-16-56.9v56.9c-58.1-4.1-104-52.6-104-111.7h23.3c37.7 0 68.2 23.4 80.7 54.9z"/></svg>