<svg xmlns="http://www.w3.org/2000/svg" viewBox="0 0 576 512"><!--! Font Awesome Pro 6.5.1 by @fontawesome - https://fontawesome.com License - https://fontawesome.com/license (Commercial License) Copyright 2023 Fonticons, Inc. --><path d="M144 96c0-44.2 35.8-80 80-80s80 35.8 80 80v64H144V96zm-16 64H16 0v16V464v16H16 160V464H16V176H432v48h16V176 160H432 320V96c0-53-43-96-96-96s-96 43-96 96v64zm80 112H560V496H208V272zm-16-16v16V496v16h16H560h16V496 272 256H560 208 192zm128 72v-8H304v8 40c0 44.2 35.8 80 80 80s80-35.8 80-80V328v-8H448v8 40c0 35.3-28.7 64-64 64s-64-28.7-64-64V328z"/></svg>