<svg xmlns="http://www.w3.org/2000/svg" viewBox="0 0 640 512"><!--! Font Awesome Pro 6.5.1 by @fontawesome - https://fontawesome.com License - https://fontawesome.com/license (Commercial License) Copyright 2023 Fonticons, Inc. --><path d="M182.9 346.8l0 0 0 0 .2-.1 .9-.7c.8-.6 2.1-1.5 3.8-2.8c3.3-2.5 8.1-6.2 13.9-11c11.6-9.6 26.9-23.6 42.3-40.8c31.1-35 60-81.3 60-131.4c0-79.5-64.5-144-144-144S16 80.5 16 160c0 50.1 28.8 96.4 60 131.4c15.3 17.3 30.7 31.2 42.3 40.8c5.8 4.8 10.6 8.5 13.9 11c1.7 1.2 2.9 2.2 3.8 2.8l.9 .7 .2 .1 0 0 0 0 0 0 0 0 7.5 5.2h30.8l7.5-5.2 0 0 0 0zM118.8 432h82.3l-23.3-64H176 144h-1.9l-23.3 64zm99.3 0l5.8 16H207 113 96l5.8-16L128 360s-128-88-128-200C0 71.6 71.6 0 160 0s160 71.6 160 160c0 112-128 200-128 200l26.2 72zM324.7 261.8c4.3-8.2 8.3-16.8 11.8-25.6c4.1 45.4 30.8 87.1 59.4 119.2c15.3 17.3 30.7 31.2 42.3 40.8c5.8 4.8 10.6 8.5 13.9 11c1.7 1.2 2.9 2.2 3.8 2.8l.9 .7 .2 .1 0 0 0 0 0 0 0 0 7.5 5.2h30.8l7.5-5.2 0 0 0 0 0 0 0 0 .2-.1 .9-.7c.9-.6 2.1-1.5 3.8-2.8c3.3-2.5 8.1-6.2 13.9-11c11.6-9.6 26.9-23.6 42.3-40.8c31.1-35 60-81.3 60-131.4c0-79.5-64.5-144-144-144c-55.7 0-104.1 31.7-128 78c-.1-9.2-.8-18.2-2.2-27c29-40.5 76.5-67 130.2-67c88.4 0 160 71.6 160 160c0 112-128 200-128 200l26.2 72 5.8 16H527 433 416l5.8-16L448 424s-100.1-68.8-123.3-162.2zM462.1 432l-23.3 64h82.3l-23.3-64H496 464h-1.9zM96 152v8H80v-8c0-39.8 32.2-72 72-72h8V96h-8c-30.9 0-56 25.1-56 56zm320 64v8H400v-8c0-39.8 32.2-72 72-72h8v16h-8c-30.9 0-56 25.1-56 56z"/></svg>