<svg xmlns="http://www.w3.org/2000/svg" viewBox="0 0 448 512"><!--! Font Awesome Pro 6.5.1 by @fontawesome - https://fontawesome.com License - https://fontawesome.com/license (Commercial License) Copyright 2023 Fonticons, Inc. --><path d="M432 16V496H16V16H432zM16 0H0V16 496v16H16 432h16V496 16 0H432 16zM192 120v16h8H376h8V120h-8H200h-8zm0 128v16h8H376h8V248h-8H200h-8zm0 128v16h8H376h8V376h-8H200h-8zM72 344H56v16 48 16H72h48 16V408 360 344H120 72zm0 16H88h16 16v16 16 16H104 88 72V392 376 360zM56 216v16 48 16H72h48 16V280 232 216H120 72 56zm32 16h16 16v16 16 16H104 88 72V264 248 232H88zM72 88H56v16 48 16H72h48 16V152 104 88H120 72zm0 16H88h16 16v16 16 16H104 88 72V136 120 104z"/></svg>