<svg xmlns="http://www.w3.org/2000/svg" viewBox="0 0 384 512"><!--! Font Awesome Pro 6.5.1 by @fontawesome - https://fontawesome.com License - https://fontawesome.com/license (Commercial License) Copyright 2023 Fonticons, Inc. --><path d="M214.4 427.2l0 0 0 0 .1 0 .3-.2 1.2-.9c1.1-.9 2.7-2.1 4.8-3.8c4.2-3.4 10.3-8.4 17.6-14.9c14.6-12.9 34.1-31.4 53.5-53.8C331.4 308.1 368 249.9 368 192c0-97.2-78.8-176-176-176S16 94.8 16 192c0 57.9 36.6 116.1 76.1 161.5c19.4 22.3 38.9 40.8 53.5 53.8c7.3 6.5 13.4 11.5 17.6 14.9c2.1 1.7 3.7 3 4.8 3.8l1.2 .9 .3 .2 .1 0 0 0 0 0 0 0L176 432h32l6.4-4.8 0 0zM210 448H174l-21.3 48h78.8L210 448zm38.8 48l7.1 16H238.5h-93H128l7.1-16L160 440S0 320 0 192C0 86 86 0 192 0S384 86 384 192c0 128-160 248-160 248l24.9 56zM168 96c-39.8 0-72 32.2-72 72v8H80v-8c0-48.6 39.4-88 88-88h8V96h-8z"/></svg>