<svg xmlns="http://www.w3.org/2000/svg" viewBox="0 0 448 512"><!--! Font Awesome Pro 6.5.1 by @fontawesome - https://fontawesome.com License - https://fontawesome.com/license (Commercial License) Copyright 2023 Fonticons, Inc. --><path d="M432 16V496H16V16H432zM16 0H0V16 496v16H16 432h16V496 16 0H432 16zM192 120v16h8H376h8V120h-8H200h-8zm0 128v16h8H376h8V248h-8H200h-8zm0 128v16h8H376h8V376h-8H200h-8zm-56-32H120 72 56v16 48 16H72h48 16V408 360 344zM72 360H88h16 16v16 16 16H104 88 72V392 376 360zM56 88v16 48 16H72h48 16V152 104 88H120 72 56zm32 16h16 16v16 16 16H104 88 72V136 120 104H88zm69.7 125.7l5.7-5.7L152 212.7l-5.7 5.7L96 268.7 69.7 242.3 64 236.7 52.7 248l5.7 5.7 32 32 5.7 5.7 5.7-5.7 56-56z"/></svg>