<svg xmlns="http://www.w3.org/2000/svg" viewBox="0 0 512 512"><!--! Font Awesome Pro 6.5.1 by @fontawesome - https://fontawesome.com License - https://fontawesome.com/license (Commercial License) Copyright 2023 Fonticons, Inc. --><path d="M256 496C123.5 496 16 388.5 16 256c0-63.4 24.6-121.1 64.7-164L420 431.3C377.1 471.4 319.4 496 256 496zM92 80.7C134.9 40.6 192.6 16 256 16c132.5 0 240 107.5 240 240c0 63.4-24.6 121.1-64.7 164L92 80.7zM256 512A256 256 0 1 0 256 0a256 256 0 1 0 0 512zm40.4-159l-15 15H230.6L192 329.4V248.6l-31.6-31.6-30.2-8.6-7.7-2.2-4.4 15.4 7.7 2.2L176 238v43l-49.1 7-7.9 1.1 2.3 15.8 7.9-1.1 46.9-6.7V336l.6 .6-37.1 24.7-6.7 4.4 8.9 13.3 6.7-4.4 39.7-26.5L224 384h64l19.7-19.7L296.4 353zM224 128l-19.7 19.7L215.6 159l15-15h50.7L320 182.6v49.2 .3 31.3l16 16V238l50.2-14.3 7.7-2.2-4.4-15.4-7.7 2.2L336 221.4V176l-.6-.6 37.1-24.7 6.7-4.4-8.9-13.3-6.7 4.4-39.7 26.5L288 128H224zM385.1 288.1l-47.2-6.7 18.9 18.9 26.1 3.7 7.9 1.1 2.3-15.8-7.9-1.1z"/></svg>