<svg xmlns="http://www.w3.org/2000/svg" viewBox="0 0 384 512"><!--! Font Awesome Pro 6.5.1 by @fontawesome - https://fontawesome.com License - https://fontawesome.com/license (Commercial License) Copyright 2023 Fonticons, Inc. --><path d="M32 48h8c30.9 0 56 25.1 56 56v88H32v16H96V408c0 39.8 32.2 72 72 72h16c110.5 0 200-89.5 200-200V264c0-39.8-32.2-72-72-72H264h-8v16h8 48c30.9 0 56 25.1 56 56v16c0 101.6-82.4 184-184 184H168c-30.9 0-56-25.1-56-56V208h80V192H112V104c0-39.8-32.2-72-72-72H32V48z"/></svg>