<svg xmlns="http://www.w3.org/2000/svg" viewBox="0 0 512 512"><!--! Font Awesome Pro 6.5.1 by @fontawesome - https://fontawesome.com License - https://fontawesome.com/license (Commercial License) Copyright 2023 Fonticons, Inc. --><path d="M451.9 2.2l4.9 4.9 48 48 4.9 4.9-4.2 5.6-51.2 67.2-1.8 2.4-3 .6-77.6 15.5-77.3 77.3c24 26.5 39.3 61.2 41.2 99.3H344h8v16h-8-8.2c-1.9 38.2-17.1 72.8-41.2 99.3l5.8 5.8 5.7 5.7-11.3 11.3-5.7-5.7-5.8-5.8c-26.5 24-61.2 39.3-99.3 41.2V504v8H168v-8-8.2c-38.2-1.9-72.8-17.1-99.3-41.2l-5.8 5.8-5.7 5.7L45.9 454.8l5.7-5.7 5.8-5.8c-24-26.5-39.3-61.2-41.2-99.3H8 0V328H8h8.2c1.9-38.2 17.1-72.8 41.2-99.3l-5.8-5.8-5.7-5.7 11.3-11.3 5.7 5.7 5.8 5.8c26.5-24 61.2-39.3 99.3-41.2V168v-8h16v8 8.2c38.2 1.9 72.8 17.1 99.3 41.2l77.3-77.3 15.5-77.6 .6-3 2.4-1.8L446.4 6.4l5.6-4.2zM74.2 234.1A144 144 0 1 0 277.8 437.9 144 144 0 1 0 74.2 234.1zm304-100.3l65.3-13.1 45.1-59.2L450.5 23.4 391.3 68.5l-13.1 65.3zM117.7 330.3l64 64 5.7 5.7L176 411.3l-5.7-5.7-64-64-5.7-5.7L112 324.7l5.7 5.7z"/></svg>