<svg xmlns="http://www.w3.org/2000/svg" viewBox="0 0 576 512"><!--! Font Awesome Pro 6.5.1 by @fontawesome - https://fontawesome.com License - https://fontawesome.com/license (Commercial License) Copyright 2023 Fonticons, Inc. --><path d="M0 0H8 152h8V16h-8H16V152v8H0v-8V8 0zM144 128V384H128V128h16zm48 0V384H176V128h16zm48 0h16V384H240V128zm96 0V384H320V128h16zm32 0h16V384H368V128zm80 0V384H432V128h16zM568 0h8V8 152v8H560v-8V16H424h-8V0h8H568zM0 512v-8V360v-8H16v8V496H152h8v16h-8H8 0zm568 0H424h-8V496h8H560V360v-8h16v8V504v8h-8z"/></svg>