<svg xmlns="http://www.w3.org/2000/svg" viewBox="0 0 640 512"><!--! Font Awesome Pro 6.5.1 by @fontawesome - https://fontawesome.com License - https://fontawesome.com/license (Commercial License) Copyright 2023 Fonticons, Inc. --><path d="M64 32V192H80V32H64zm0 288V480H80V320H64zm64 0H112V480h16V320zM112 192h16V32H112V192zm64 288h16V320H176V480zm0-288h16V32H176V192zm72 288h16V320H248V480zm0-288h16V32H248V192zm72 288h16V320H320V480zm0-288h16V32H320V192zm48 288h16V320H368V480zm0-288h16V32H368V192zm80 288h16V320H448V480zm0-288h16V32H448V192zm64 288h16V320H512V480zm0-288h16V32H512V192zm48 288h16V320H560V480zm0-288h16V32H560V192zM0 248v16l640 0V248L0 248z"/></svg>