<svg xmlns="http://www.w3.org/2000/svg" viewBox="0 0 576 512"><!--! Font Awesome Pro 6.5.1 by @fontawesome - https://fontawesome.com License - https://fontawesome.com/license (Commercial License) Copyright 2023 Fonticons, Inc. --><path d="M242.9 13l-3.9 7L141.7 192H434.3L337 19.9l-3.9-7L347 5.1l3.9 7L452.7 192h74.8H544h32v16H540L464 512H112L36 208H0V192H32 48.5h74.8L225 12.1l3.9-7L242.9 13zM52.5 208l72 288h327l72-288H52.5zM208 296V408v8H192v-8V296v-8h16v8zm88-8v8V408v8H280v-8V296v-8h16zm88 8V408v8H368v-8V296v-8h16v8z"/></svg>