<svg xmlns="http://www.w3.org/2000/svg" viewBox="0 0 576 512"><!--! Font Awesome Pro 6.5.1 by @fontawesome - https://fontawesome.com License - https://fontawesome.com/license (Commercial License) Copyright 2023 Fonticons, Inc. --><path d="M242.9 13l-3.9 7L141.7 192H434.3L337 19.9l-3.9-7L347 5.1l3.9 7L452.7 192h74.8H544h32v16H540L464 512H112L36 208H0V192H32 48.5h74.8L225 12.1l3.9-7L242.9 13zM523.5 208H52.5l72 288h327l72-288zM160 272a16 16 0 1 0 0 32 16 16 0 1 0 0-32zm32 16a32 32 0 1 1 -64 0 32 32 0 1 1 64 0zm208 0a16 16 0 1 0 32 0 16 16 0 1 0 -32 0zm16 32a32 32 0 1 1 0-64 32 32 0 1 1 0 64z"/></svg>