<svg xmlns="http://www.w3.org/2000/svg" viewBox="0 0 640 512"><!--! Font Awesome Pro 6.5.1 by @fontawesome - https://fontawesome.com License - https://fontawesome.com/license (Commercial License) Copyright 2023 Fonticons, Inc. --><path d="M86.9 108.4C135.2 62.3 211 16 320 16s184.8 46.3 233.1 92.4c29 27.8 54.1 60.3 70.9 96.2V362.3L500.1 416.2l-2.5 18.5L640 372.8V201.1c-17.8-39.2-44.8-74.5-75.9-104.2C513.6 48.5 434 0 320 0S126.4 48.5 75.9 96.9c-31 29.7-58 64.9-75.9 104.2V372.8l142.4 61.9-2.5-18.5L16 362.3V204.6c16.8-35.8 41.9-68.4 70.9-96.2zM168 144h-8v8 72h16V160H464v64h16V152v-8h-8H168zM496 256H480 464 176 160 144 128h-8v16h8 25l31.1 233.1 .9 6.9h10.8l2.4-3 51.4-64.2 64.7 64.9 2.3 2.4h6.6l2.3-2.4 64.7-64.9L441.8 509l2.4 3H455l.9-6.9L487 272h25 8V256h-8H496zm-25.1 16l-10.6 79.7L400.1 272h70.8zm-103.5 0L320 331.2 272.6 272h94.7zm-127.4 0l-60.2 79.7L169.1 272h70.8zM197.5 484.4L183.3 378.2l55 55.2-40.8 51zM320 492.7l-60.3-60.5L320 356.8l60.3 75.4L320 492.7zm-71.7-71.9l-57.3-57.5L256.2 277l53.6 67-61.4 76.8zm143.3 0L330.2 344l53.6-67L449 363.3l-57.3 57.5zm10.1 12.6l55-55.2L442.5 484.4l-40.8-51z"/></svg>