<svg xmlns="http://www.w3.org/2000/svg" viewBox="0 0 576 512"><!--! Font Awesome Pro 6.5.1 by @fontawesome - https://fontawesome.com License - https://fontawesome.com/license (Commercial License) Copyright 2023 Fonticons, Inc. --><path d="M275.8 96l-3.7-2.1L234.4 72.4l-19.2 76.9-4.7 19-17.7-8.4-92.4-44C45.8 183.7 16 268.2 16 355.5v18.6l72.8-36.4 13.3-6.6 7.6 12.7 37.5 62.4 49.5-49.5 12.9-12.9 11.1 14.4L288 445.8l67.3-87.5 11.1-14.4 12.9 12.9 49.5 49.5 37.5-62.4 7.6-12.7 13.3 6.6L560 374.1V355.5c0-87.3-29.8-171.8-84.4-239.7l-92.4 44-17.7 8.4-4.7-19L341.6 72.4 303.9 93.9 300.2 96H296 280h-4.2zm61.8-39.8L352 48l4 16.1 16.3 65.4 4 15.8 14.7-7L480 96c61.9 72.3 96 164.3 96 259.5v26.6V400l-16-8-80-40-39.5 65.9L432 432l-11.7-11.7-40.9-40.9L368 368l-9.8 12.8-60.1 78.1L288 472l-10.1-13.1-60.1-78.1L208 368l-11.4 11.4-40.9 40.9L144 432l-8.5-14.1L96 352 16 392 0 400V382.1 355.5C0 260.3 34.1 168.3 96 96l88.9 42.3 14.7 7 4-15.8L220 64.1 224 48l14.4 8.2L280 80h16l41.6-23.8z"/></svg>