<svg xmlns="http://www.w3.org/2000/svg" viewBox="0 0 512 512"><!--! Font Awesome Pro 6.5.1 by @fontawesome - https://fontawesome.com License - https://fontawesome.com/license (Commercial License) Copyright 2023 Fonticons, Inc. --><path d="M32 0h8 64 3.3l2.3 2.3 45.4 45.4C167.4 37.9 183 32 200 32c23.1 0 43.7 10.9 56.9 27.8l1.5-1.5 5.7-5.7L275.3 64l-5.7 5.7-104 104-5.7 5.7L148.7 168l5.7-5.7 1.5-1.5C138.9 147.7 128 127.1 128 104c0-17 5.9-32.6 15.7-44.9L100.7 16H48V272H464h16 24 8v16h-8H480 464 48 32 8 0V272H8 32V8 0zm0 320H48v48c0 53 43 96 96 96H368c53 0 96-43 96-96V320h16v48c0 38.1-19 71.7-48 91.9V504v8H416v-8V469.2c-14.5 6.9-30.8 10.8-48 10.8H144c-17.2 0-33.5-3.9-48-10.8V504v8H80v-8V459.9C51 439.7 32 406.1 32 368V320zM200 48c-30.9 0-56 25.1-56 56c0 18.7 9.2 35.3 23.3 45.4l78.2-78.2C235.3 57.2 218.7 48 200 48z"/></svg>