<svg xmlns="http://www.w3.org/2000/svg" viewBox="0 0 576 512"><!--! Font Awesome Pro 6.5.1 by @fontawesome - https://fontawesome.com License - https://fontawesome.com/license (Commercial License) Copyright 2023 Fonticons, Inc. --><path d="M512 416H239.6l20.7-16H512V320 304 208 192 112H369l4-16H512h16v16 80h32 16v16 96 16H560 528v80 16H512zM16 112V400H175l-4 16H16 0V400 112 96H16 304.4l-20.7 16H16zm544 96H528v96h32V208zM214.3 374.9L236 288l4-16H223.5 176 160V256v-8L315.6 127.8 336 112l-6.3 25.1L308 224l-4 16h16.5H368h16v16 8L228.4 384.2 208 400l6.3-25.1zM240 256h20.5l-5 19.9-20.8 83.3L368 256.1V256H304 283.5l5-19.9 20.8-83.3L176 255.9v.1h64z"/></svg>