<svg xmlns="http://www.w3.org/2000/svg" viewBox="0 0 640 512"><!--! Font Awesome Pro 6.5.1 by @fontawesome - https://fontawesome.com License - https://fontawesome.com/license (Commercial License) Copyright 2023 Fonticons, Inc. --><path d="M464 0h8 5.5l1.9 5.2L501.5 64H632h8V80h-8H496h-5.5l-1.9-5.2-20.6-55L407.4 171l-2 5H400h-8-5.3l-2.1-4.9L346.7 80H200h-8V64h8H352h5.3l2.1 4.9 36.5 87.7L456.6 5l2-5H464zM280 160h65.3l6.7 16H288V352H624V264c0-48.6-39.4-88-88-88H439.9l6.4-16H536c57.4 0 104 46.6 104 104v96 80 64 8H624v-8V448H16v56 8H0v-8V440 360 72 64H16v8V352H272V168v-8h8zM624 432V368H280 16v64H624zM208 240A64 64 0 1 0 80 240a64 64 0 1 0 128 0zM64 240a80 80 0 1 1 160 0A80 80 0 1 1 64 240z"/></svg>