<svg xmlns="http://www.w3.org/2000/svg" viewBox="0 0 576 512"><!--! Font Awesome Pro 6.5.1 by @fontawesome - https://fontawesome.com License - https://fontawesome.com/license (Commercial License) Copyright 2023 Fonticons, Inc. --><path d="M16 8V0H0V8 200 439.7 504v8H16v-8V447.7H216 560V504v8h16v-8V439.7 280 200 136c0-57.4-46.6-104-104-104H216h-8v8V192H16V8zM208 280V431.7H16V208H216 560v64H216h-8v8zM560 136v56H224V48H472c48.6 0 88 39.4 88 88zM224 288H560V431.7H224V288zM112 48a48 48 0 1 1 0 96 48 48 0 1 1 0-96zm0 112a64 64 0 1 0 0-128 64 64 0 1 0 0 128zm0 128a48 48 0 1 1 0 96 48 48 0 1 1 0-96zm0 112a64 64 0 1 0 0-128 64 64 0 1 0 0 128z"/></svg>