<svg xmlns="http://www.w3.org/2000/svg" viewBox="0 0 512 512"><!--! Font Awesome Pro 6.5.1 by @fontawesome - https://fontawesome.com License - https://fontawesome.com/license (Commercial License) Copyright 2023 Fonticons, Inc. --><path d="M208 0c29 0 54.6 14 70.7 35.6C291.5 23.4 308.9 16 328 16c39.8 0 72 32.2 72 72s-32.2 72-72 72c-19.1 0-36.5-7.4-49.3-19.6C262.6 162 237 176 208 176s-54.6-14-70.7-35.6C124.5 152.6 107.1 160 88 160c-39.8 0-72-32.2-72-72s32.2-72 72-72c19.1 0 36.5 7.4 49.3 19.6C153.4 14 179 0 208 0zM145.3 52.5l-5.9 10.4-7.4-9.4C121.8 40.4 105.9 32 88 32C57.1 32 32 57.1 32 88s25.1 56 56 56c17.9 0 33.8-8.4 44.1-21.5l7.4-9.4 5.9 10.4C157.7 145.3 181.2 160 208 160s50.3-14.7 62.7-36.5l5.9-10.4 7.4 9.4C294.2 135.6 310.1 144 328 144c30.9 0 56-25.1 56-56s-25.1-56-56-56c-17.9 0-33.8 8.4-44.1 21.5l-7.4 9.4-5.9-10.4C258.3 30.7 234.8 16 208 16s-50.3 14.7-62.7 36.5zM368 496V192v-8-8h8 7.4l.6-.3v.3H504h8v8V376v5.2l-4.8 2.1L384 437.2V496v16H368 48 32V496 175.7c5.1 3.2 10.4 6 16 8.4V496H368zm16-76.2l112-49V192H384V419.8zM144 224v8V440v8H128v-8V232v-8h16zm72 0v8V440v8H200v-8V232v-8h16zm72 0v8V440v8H272v-8V232v-8h16z"/></svg>