<svg xmlns="http://www.w3.org/2000/svg" viewBox="0 0 512 512"><!--! Font Awesome Pro 6.5.1 by @fontawesome - https://fontawesome.com License - https://fontawesome.com/license (Commercial License) Copyright 2023 Fonticons, Inc. --><path d="M264 0H248V32.2C163.4 36.4 96 106.3 96 192v93.2L33.8 363 32 365.2V368v40 8h8H472h8v-8V368v-2.8l-1.8-2.2L416 285.2V192c0-85.7-67.4-155.6-152-159.8V0zM112 192c0-79.5 64.5-144 144-144s144 64.5 144 144v96 2.8l1.8 2.2L464 370.8V400H48V370.8L110.2 293l1.8-2.2V288 192zm96 256H192c0 17 6.7 33.3 18.7 45.3s28.3 18.7 45.3 18.7s33.3-6.7 45.3-18.7s18.7-28.3 18.7-45.3H304c0 12.7-5.1 24.9-14.1 33.9s-21.2 14.1-33.9 14.1s-24.9-5.1-33.9-14.1s-14.1-21.2-14.1-33.9zM32 176c0-61.1 26.3-116 68.3-154.1L89.5 10.1C44.4 51 16 110.2 16 176H32zM411.7 21.9C453.7 60 480 114.9 480 176h16c0-65.8-28.4-125-73.5-165.9L411.7 21.9z"/></svg>