<svg xmlns="http://www.w3.org/2000/svg" viewBox="0 0 512 512"><!--! Font Awesome Pro 6.5.1 by @fontawesome - https://fontawesome.com License - https://fontawesome.com/license (Commercial License) Copyright 2023 Fonticons, Inc. --><path d="M208 400a192 192 0 1 0 0-384 192 192 0 1 0 0 384zm0 16c-48.3 0-92.7-16.4-128-44V496H272h64V372c-35.3 27.6-79.7 44-128 44zm64 96H72 64v-8V358.1C24.6 320.2 0 267 0 208C0 93.1 93.1 0 208 0S416 93.1 416 208c0 59-24.6 112.2-64 150.1V496H456V447.3c-22.7-3.8-40-23.6-40-47.3c0-26.5 21.5-48 48-48s48 21.5 48 48c0 23.8-17.3 43.5-40 47.3V504v8h-8H352h-8H272zM208 272a64 64 0 1 0 0-128 64 64 0 1 0 0 128zm0-144a80 80 0 1 1 0 160 80 80 0 1 1 0-160zM496 400a32 32 0 1 0 -64 0 32 32 0 1 0 64 0z"/></svg>