<svg xmlns="http://www.w3.org/2000/svg" viewBox="0 0 640 512"><!--! Font Awesome Pro 6.5.1 by @fontawesome - https://fontawesome.com License - https://fontawesome.com/license (Commercial License) Copyright 2023 Fonticons, Inc. --><path d="M406.5 416l-20.3-16H112V370.8L174.2 293l1.8-2.2V288 234l-16-12.6v63.8L97.8 363 96 365.2V368v40 8h8H406.5zM209.1 76.7l12.7 10C247.5 62.7 282 48 320 48c79.5 0 144 64.5 144 144v86l16 12.6v-5.4V192c0-85.7-67.4-155.6-152-159.8V0H312V32.2c-39.9 2-76 18.5-102.9 44.5zM272 448H256c0 17 6.7 33.3 18.7 45.3s28.3 18.7 45.3 18.7s33.3-6.7 45.3-18.7s18.7-28.3 18.7-45.3H368c0 12.7-5.1 24.9-14.1 33.9s-21.2 14.1-33.9 14.1s-24.9-5.1-33.9-14.1s-14.1-21.2-14.1-33.9zM16.2 5L9.9 0 0 12.5l6.3 5L623.8 507l6.3 5 9.9-12.5-6.3-5L16.2 5z"/></svg>