<svg xmlns="http://www.w3.org/2000/svg" viewBox="0 0 640 512"><!--! Font Awesome Pro 6.5.1 by @fontawesome - https://fontawesome.com License - https://fontawesome.com/license (Commercial License) Copyright 2023 Fonticons, Inc. --><path d="M312 0h16V32.2c84.6 4.2 152 74.1 152 159.8v93.2L542.2 363l1.8 2.2V368v40 8h-8H104 96v-8V368v-2.8l1.8-2.2L160 285.2V192c0-85.7 67.4-155.6 152-159.8V0zm8 48c-79.5 0-144 64.5-144 144v96 2.8l-1.8 2.2L112 370.8V400H528V370.8L465.8 293l-1.8-2.2V288 192c0-79.5-64.5-144-144-144zM286.1 481.9c9 9 21.2 14.1 33.9 14.1s24.9-5.1 33.9-14.1s14.1-21.2 14.1-33.9h16c0 17-6.7 33.3-18.7 45.3s-28.3 18.7-45.3 18.7s-33.3-6.7-45.3-18.7s-18.7-28.3-18.7-45.3h16c0 12.7 5.1 24.9 14.1 33.9zM0 176H8h96 8v16h-8H8 0V176zm536 0h96 8v16h-8H536h-8V176h8zM610.7 43.6l-7.2 3.6-80 40-7.2 3.6-7.2-14.3 7.2-3.6 80-40 7.2-3.6 7.2 14.3zM36.4 47.2l-7.2-3.6 7.2-14.3 7.2 3.6 80 40 7.2 3.6-7.2 14.3-7.2-3.6-80-40z"/></svg>