<svg xmlns="http://www.w3.org/2000/svg" viewBox="0 0 448 512"><!--! Font Awesome Pro 6.5.1 by @fontawesome - https://fontawesome.com License - https://fontawesome.com/license (Commercial License) Copyright 2023 Fonticons, Inc. --><path d="M216 0h16V32.2c84.6 4.2 152 74.1 152 159.8v93.2L446.2 363l1.8 2.2V368v40 8h-8H8 0v-8V368v-2.8L1.8 363 64 285.2V192c0-85.7 67.4-155.6 152-159.8V0zm8 48C144.5 48 80 112.5 80 192v96 2.8L78.2 293 16 370.8V400H432V370.8L369.8 293l-1.8-2.2V288 192c0-79.5-64.5-144-144-144zM190.1 481.9c9 9 21.2 14.1 33.9 14.1s24.9-5.1 33.9-14.1s14.1-21.2 14.1-33.9h16c0 17-6.7 33.3-18.7 45.3s-28.3 18.7-45.3 18.7s-33.3-6.7-45.3-18.7s-18.7-28.3-18.7-45.3h16c0 12.7 5.1 24.9 14.1 33.9zM240 304v32H208V304h32zm-8-168V264v8H216v-8V136v-8h16v8z"/></svg>