<svg xmlns="http://www.w3.org/2000/svg" viewBox="0 0 640 512"><!--! Font Awesome Pro 6.5.1 by @fontawesome - https://fontawesome.com License - https://fontawesome.com/license (Commercial License) Copyright 2023 Fonticons, Inc. --><path d="M591 108.6c.6-4.1 1-8.3 1-12.6c0-44.2-35.8-80-80-80s-80 35.8-80 80c0 4.3 .3 8.5 1 12.6l1.5 9.7-8 5.8C410.4 135.7 400 154.7 400 176v64H624V176c0-21.3-10.4-40.3-26.6-51.9l-8-5.8 1.5-9.7zM384 176c0-26.7 13.1-50.3 33.2-64.9c-.8-4.9-1.2-10-1.2-15.1c0-53 43-96 96-96s96 43 96 96c0 5.1-.4 10.2-1.2 15.1C626.9 125.7 640 149.3 640 176v64 16H624 520V504v8H504v-8V256H400 384V240 176zM48 208v96H72 88 296h16 24V208H48zM72 320H48 32V304 208 192H48 336h16v16 96 16H336 312v64h24 40 8v16h-8H344V504v8H328v-8V400H304 80 56V504v8H40v-8V400H8 0V384H8 48 72V320zm16 0v64H296V320H88z"/></svg>