<svg xmlns="http://www.w3.org/2000/svg" viewBox="0 0 640 512"><!--! Font Awesome Pro 6.5.1 by @fontawesome - https://fontawesome.com License - https://fontawesome.com/license (Commercial License) Copyright 2023 Fonticons, Inc. --><path d="M368 80v41.4 16.1V176H272V137.5 121.4 80h96zm56.1 56H528c.2 0 .4 0 .6 0c3.9 27.1 27.2 48 55.4 48c30.9 0 56-25.1 56-56s-25.1-56-56-56c-28.2 0-51.6 20.9-55.4 48c-.2 0-.4 0-.6 0H384V80 64H368 272 256V80v40H112c-.2 0-.4 0-.6 0C107.6 92.9 84.2 72 56 72C25.1 72 0 97.1 0 128s25.1 56 56 56c28.2 0 51.6-20.9 55.4-48c.2 0 .4 0 .6 0H215.9C143.1 166.4 91.3 237 88.2 320H48 32v16 96 16H48h96 16V432 336 320H144 104.2c3.6-88.7 67.5-162 151.8-179.8V176v16h16 96 16V176 140.2C468.3 158 532.2 231.3 535.8 320H496 480v16 96 16h16 96 16V432 336 320H592 551.8c-3.1-83-54.9-153.6-127.7-184zM16 128a40 40 0 1 1 80 0 40 40 0 1 1 -80 0zm528 0a40 40 0 1 1 80 0 40 40 0 1 1 -80 0zM48 336h96v96H48V336zm448 96V336h96v96H496z"/></svg>