<svg xmlns="http://www.w3.org/2000/svg" viewBox="0 0 640 512"><!--! Font Awesome Pro 6.5.1 by @fontawesome - https://fontawesome.com License - https://fontawesome.com/license (Commercial License) Copyright 2023 Fonticons, Inc. --><path d="M384 0V8 32v8h16V32 16h96V32v8h16V32 8 0h-8H392h-8zM575.1 192h.5v-.1V176 94.1L511.3 64H383.9L321.8 93.1l18.2 9.1L387.4 80H507.8l51.8 24.3v83.8c-.3 1.3-.5 2.6-.5 3.9h16zM352 192l0-48-16.4-8.2v0l-16-8v0L256 96H128L32 144v48H48V153.9L131.8 112H252.2L336 153.9V192h16zm288 32H608 592h-.1H48.1 48 32 0v16H33.8L64 512H576l30.2-272H640V224zM78.3 496L49.9 240H590.1L561.7 496H78.3zM299.6 288l-2.4 3.7-28.4 44.2 13.6 8.5L308.4 304h23.2l26.7 42 13.6-8.5-29.2-45.8-2.4-3.7H336 304h-4.4zm75.9 85l23.7 37.3V432H337.7v16h69.5 8v-8V408v-2.3l-1.3-2-24.9-39.2L375.5 373zM240 432V410.3l25.1-39.1-13.6-8.5-26.3 40.9-1.3 2V408v32 8h8 73.7V432H240zM136 0h-8V8 48h-8-8V64h8 16 8V56 16h96V56v8h8 16 8V48h-8-8V8 0h-8H136z"/></svg>