<svg xmlns="http://www.w3.org/2000/svg" viewBox="0 0 576 512"><!--! Font Awesome Pro 6.5.1 by @fontawesome - https://fontawesome.com License - https://fontawesome.com/license (Commercial License) Copyright 2023 Fonticons, Inc. --><path d="M560 48v64H544 527.9 48.1 32 16V48H560zM16 128H33.4L64 480H512l30.6-352H560h16V112 48 32H560 16 0V48v64 16H16zm33.5 0H526.5L497.3 464H78.7L49.5 128zM288 192c7.5 0 14.6 3.6 19.1 9.6l40.2 54.5 13.6-8.5-40.9-55.5C312.5 182 300.6 176 288 176s-24.5 6-31.9 16.1l-40.9 55.5 13.6 8.5 40.2-54.5c4.5-6.1 11.5-9.6 19.1-9.6zm-91.9 81.5l-36.7 49.8c-4.8 6.5-7.4 14.5-7.4 22.6c0 21 17.1 38.1 38.1 38.1H272V368H190.1c-12.2 0-22.1-9.9-22.1-22.1c0-4.7 1.5-9.3 4.3-13.1L209.8 282l-13.6-8.5zM304 384h81.9c21 0 38.1-17.1 38.1-38.1c0-8.1-2.6-16.1-7.4-22.6l-36.7-49.8L366.2 282l37.4 50.8c2.8 3.8 4.3 8.4 4.3 13.1c0 12.2-9.9 22.1-22.1 22.1H304v16z"/></svg>