<svg xmlns="http://www.w3.org/2000/svg" viewBox="0 0 640 512"><!--! Font Awesome Pro 6.5.1 by @fontawesome - https://fontawesome.com License - https://fontawesome.com/license (Commercial License) Copyright 2023 Fonticons, Inc. --><path d="M384 0h8H504h8V8 32v8H496V32 16H400V32v8H384V32 8 0zM575.1 192h-16c0-1.3 .2-2.7 .5-3.9V104.3L507.8 80H387.4L340 102.2l-18.2-9.1L383.9 64H511.3l64.3 30.1V176v15.9 .1h-.5zM352 192H336V153.9L252.2 112H131.8L48 153.9V192H32V144l96-48H256l63.6 31.8v0l16 8v0L352 144l0 48zm256 32h32v16H606.2L576 512H64L33.8 240H0V224H32 48h.1H591.9h.1 16zM49.9 240L78.3 496H561.7l28.4-256H49.9zM136 0H248h8V8 48h8 8V64h-8H248h-8V56 16H144V56v8h-8H120h-8V48h8 8V8 0h8z"/></svg>