<svg xmlns="http://www.w3.org/2000/svg" viewBox="0 0 640 512"><!--! Font Awesome Pro 6.5.1 by @fontawesome - https://fontawesome.com License - https://fontawesome.com/license (Commercial License) Copyright 2023 Fonticons, Inc. --><path d="M232 0h-8V16h8 64V208H232h-8v16h8 72 72 5.4c.8-.7 1.7-1.3 2.6-2V208h-8H312V8 0h-8H232zM216 288h-8v8V504v8h8H360h8v-8-3.8c-5.7-5.5-11-11.4-16-17.6V496H224V304h99.4c2-5.5 4.3-10.8 6.8-16H216zM8 288H0v16H8 72V496H8 0v16H8 80h72 8V496h-8H88V296v-8H80 8zM16 0V8 216v8h8H168h8v-8V8 0h-8H24 16zM32 16H160V208H32V16zM496 240a128 128 0 1 1 0 256 128 128 0 1 1 0-256zm0 272a144 144 0 1 0 0-288 144 144 0 1 0 0 288zm75.3-184L560 316.7l-5.7 5.7L480 396.7l-42.3-42.3-5.7-5.7L420.7 360l5.7 5.7 48 48 5.7 5.7 5.7-5.7 80-80 5.7-5.7z"/></svg>