<svg xmlns="http://www.w3.org/2000/svg" viewBox="0 0 640 512"><!--! Font Awesome Pro 6.5.1 by @fontawesome - https://fontawesome.com License - https://fontawesome.com/license (Commercial License) Copyright 2023 Fonticons, Inc. --><path d="M224 0V16h8 64V208H232h-8v16h8 72 72 8V208h-8H312V8 0h-8H232h-8zM0 288v16H8 72V496H8 0v16H8 80h72 8V496h-8H88V296v-8H80 8 0zM24 0H16V8 216v8h8H168h8v-8V8 0h-8H24zm8 208V16H160V208H32zm176 80v8V504v8h8H360h8v-8V296v-8h-8H216h-8zm16 16H352V496H224V304zm304-96c26.5 0 48 21.5 48 48v64H480V256c0-26.5 21.5-48 48-48zm-64 48v64H432 416v16V496v16h16H624h16V496 336 320H624 592V256c0-35.3-28.7-64-64-64s-64 28.7-64 64zm-32 80h32 16 96 16 32V496H432V336z"/></svg>