<svg xmlns="http://www.w3.org/2000/svg" viewBox="0 0 640 512"><!--! Font Awesome Pro 6.5.1 by @fontawesome - https://fontawesome.com License - https://fontawesome.com/license (Commercial License) Copyright 2023 Fonticons, Inc. --><path d="M432 224h72 8V208h-8H440V8 0h-8H360h-8V16h8 64V208H375.4l20.3 16H432zM304 8V0h-8H152h-8V8 25.3L160 38V16H288V139l16 12.6V8zm32 496v8h8H488h8v-8V486.7L480 474v22H352V373l-16-12.6V504zM136 288h-8v16h8 64V496H136h-8v16h8 72 72 8V496h-8H216V296v-8h-8H136zM16.2 5L9.9 0 0 12.5l6.3 5L623.8 507l6.3 5 9.9-12.5-6.3-5L16.2 5z"/></svg>