<svg xmlns="http://www.w3.org/2000/svg" viewBox="0 0 512 512"><!--! Font Awesome Pro 6.5.1 by @fontawesome - https://fontawesome.com License - https://fontawesome.com/license (Commercial License) Copyright 2023 Fonticons, Inc. --><path d="M112 48V96h80V48H112zM96 96V48 32h16 80 16V48 96h16v16 16h64V112 96h16V48 32h16 80 16V48 96h32l16 128 48 80V464v16H496 304 288V464 288H224V464v16H208 16 0V464 304l48-80L64 96H96zm0 16H78.1L63.9 226l-.4 3.4-1.7 2.9L16 308.4V464H208V280 136 112H192 112 96zM400 96V48H320V96h80zm-80 16H304v24V280 464H496V308.4l-45.7-76.2-1.7-2.9-.4-3.4L433.9 112H416 400 320zM224 272h64V144H224V272z"/></svg>