<svg xmlns="http://www.w3.org/2000/svg" viewBox="0 0 320 512"><!--! Font Awesome Pro 6.5.1 by @fontawesome - https://fontawesome.com License - https://fontawesome.com/license (Commercial License) Copyright 2023 Fonticons, Inc. --><path d="M80 0H96V64h64V0h16V64.1c53.4 2.1 96 46 96 99.9c0 36.5-19.5 68.4-48.7 85.9c46 9 80.7 49.5 80.7 98.1c0 55.2-44.8 100-100 100H176v64H160V448H96l0 64H80l0-64H32 16V432 264 248 80 64H32 80V0zM32 80V248H172c46.4 0 84-37.6 84-84s-37.6-84-84-84H32zM172 264H32V432H204c46.4 0 84-37.6 84-84s-37.6-84-84-84H172z"/></svg>