<svg xmlns="http://www.w3.org/2000/svg" viewBox="0 0 512 512"><!--! Font Awesome Pro 6.5.1 by @fontawesome - https://fontawesome.com License - https://fontawesome.com/license (Commercial License) Copyright 2023 Fonticons, Inc. --><path d="M8 0H0V8 232v8H8 148l9.3 112H112 96v16V496v16h16H464h16V496 368 352H464 424L508 16l4-16H495.5 160 144.1 128 8zM129.3 16l17.3 208H16V16H129.3zM407.5 352H173.4l-28-336H160 491.5l-20 80H296h-8v16h8H467.5l-20 80H296h-8v16h8H443.5l-36 144zM112 496V368H464V496H112zm176-80a16 16 0 1 1 0 32 16 16 0 1 1 0-32zm0 48a32 32 0 1 0 0-64 32 32 0 1 0 0 64z"/></svg>