<svg xmlns="http://www.w3.org/2000/svg" viewBox="0 0 576 512"><!--! Font Awesome Pro 6.5.1 by @fontawesome - https://fontawesome.com License - https://fontawesome.com/license (Commercial License) Copyright 2023 Fonticons, Inc. --><path d="M83.2 241.4l3.4 11.4H98.5h31.3l26.8 68L99.1 363.4l-4.7-4.2c-104.4-92.6-104.4-241.9 0-334.5l4.7-4.2 57.5 42.6-26.8 68H98.5 86.7l-3.4 11.4c-9.8 32.3-9.8 66.5 0 98.9zm92.8 85l-35.3-89.6H98.5c-8.9-29.3-8.9-60.3 0-89.6h42.1L176 57.6 98.2 0 83.7 12.8c-111.6 99-111.6 259.4 0 358.4L98.2 384 176 326.4zM471.5 352H237.4l-28-336H555.5l-20 80H360h-8v16h8H531.5l-20 80H360h-8v16h8H507.5l-36 144zm16.5 0L572 16l4-16H559.5 208.1 192l1.3 16 28 336H208 192v16V496v16h16H528h16V496 368 352H528 488zM208 368H528V496H208V368zm144 48a16 16 0 1 1 0 32 16 16 0 1 1 0-32zm0 48a32 32 0 1 0 0-64 32 32 0 1 0 0 64z"/></svg>