<svg xmlns="http://www.w3.org/2000/svg" viewBox="0 0 512 512"><!--! Font Awesome Pro 6.5.1 by @fontawesome - https://fontawesome.com License - https://fontawesome.com/license (Commercial License) Copyright 2023 Fonticons, Inc. --><path d="M16 16V80H496V16H16zM0 0H16 496h16V16 80 96H496 152v80 16 80 16V416c0 .2 0 .4 0 .7c22.7 3.8 40 23.5 40 47.3c0 26.5-21.5 48-48 48s-48-21.5-48-48c0-23.8 17.3-43.5 40-47.3c0-.2 0-.4 0-.7V288 272 192 176 96H16 0V80 16 0zM104 176v16H17.1 0l6-16 18-48H41.1l-18 48H104zm80 16V176H488.9l-18-48H488l18 48 6 16H494.9 184zm304.9 80l-18-48H488l18 48 6 16H494.9 184V272H488.9zM104 272v16H17.1 0l6-16 18-48H41.1l-18 48H104zm40 224a32 32 0 1 0 0-64 32 32 0 1 0 0 64z"/></svg>