<svg xmlns="http://www.w3.org/2000/svg" viewBox="0 0 512 512"><!--! Font Awesome Pro 6.5.1 by @fontawesome - https://fontawesome.com License - https://fontawesome.com/license (Commercial License) Copyright 2023 Fonticons, Inc. --><path d="M496 16V80H152 136 16V16H496zM152 96H496h16V80 16 0H496 16 0V16 80 96H16 136V256.7c-22.7 3.8-40 23.6-40 47.3c0 26.5 21.5 48 48 48s48-21.5 48-48c0-23.8-17.3-43.5-40-47.3V96zm32 128H494.9 512l-6-16-30-80H458.9l30 80H184v16zm-80-16H23.1l30-80H36L6 208 0 224H17.1 104V208zM64 304H23.1l18-48H24L6 304 0 320H17.1 65.6c-1-5.2-1.6-10.5-1.6-16zm158.4 16H494.9 512l-6-16-18-48H470.9l18 48H224c0 5.5-.6 10.8-1.6 16zM24 352L6 400 0 416H17.1 494.9 512l-6-16-18-48H470.9l18 48H23.1l18-48H24zm0 96L6 496 0 512H17.1 494.9 512l-6-16-18-48H470.9l18 48H23.1l18-48H24zM176 304a32 32 0 1 1 -64 0 32 32 0 1 1 64 0z"/></svg>