<svg xmlns="http://www.w3.org/2000/svg" viewBox="0 0 512 512"><!--! Font Awesome Pro 6.5.1 by @fontawesome - https://fontawesome.com License - https://fontawesome.com/license (Commercial License) Copyright 2023 Fonticons, Inc. --><path d="M496 16V80H152 136 16V16H496zM16 96H136v80 16 64.7c-22.7 3.8-40 23.6-40 47.3c0 12.3 4.6 23.5 12.2 32c.6 .7 1.2 1.3 1.8 1.9c8.7 8.7 20.7 14.1 33.9 14.1c14.2 0 27-6.2 35.8-16c7.6-8.5 12.2-19.7 12.2-32c0-23.8-17.3-43.5-40-47.3V192 176 96H496h16V80 16 0H496 16 0V16 80 96H16zM144 272a32 32 0 1 1 0 64 32 32 0 1 1 0-64zM8 176H0v16H8h96V176H8zM8 336H0v16H8 80c-3.7-4.9-6.8-10.3-9.3-16H8zm496 16h8V336h-8H217.3c-2.5 5.7-5.6 11.1-9.3 16H504zm0-160h8V176h-8H184v16H504zM0 496v16H8 504h8V496h-8H8 0z"/></svg>