<svg xmlns="http://www.w3.org/2000/svg" viewBox="0 0 448 512"><!--! Font Awesome Pro 6.5.1 by @fontawesome - https://fontawesome.com License - https://fontawesome.com/license (Commercial License) Copyright 2023 Fonticons, Inc. --><path d="M128 48v80h88 16 88V48H128zm-16 80V48H16v80h96zM16 144V248H216V144H16zm0 224h96V264H16V368zm0 16v80H216V384H128 112 16zm112-16H320V264H128V368zm208 0h96V264H336V368zm96 16H336 320 232v80H432V384zm0-240H232V248H432V144zm0-16V48H336v80h96zM0 32H16 432h16V48 464v16H432 16 0V464 48 32z"/></svg>