<svg xmlns="http://www.w3.org/2000/svg" viewBox="0 0 640 512"><!--! Font Awesome Pro 6.5.1 by @fontawesome - https://fontawesome.com License - https://fontawesome.com/license (Commercial License) Copyright 2023 Fonticons, Inc. --><path d="M160 48v80h88 16 88V48H160zm-16 80V48H48v80h96zM48 144V248H248V144H48zm0 224h96V264H48V368zm0 16v80H248V384H160 144 48zm112-16H288.7c.4 5.4 1.1 10.7 2 16H264v80h60.1c4 5.6 8.3 10.9 12.9 16H48 32V464 48 32H48 464h16V48v98.6L461.4 128H464V48H368v80h70.6l-7.5 4.7c-5.1 3.2-10.7 7-16.6 11.3H264V248h54.4c-3 5.2-5.9 10.5-8.6 16H160V368zM500.7 212.8L512 224.2l11.3-11.3L544 192.2c76.8 64 96 133.3 96 160c0 88.4-71.6 160-160 160s-160-71.6-160-160c0-89.6 85.3-165.3 128-192l52.7 52.7zM576 422.6c0 18.2-5.8 35.1-15.7 49.2C598.7 445.9 624 402 624 352.2c0-20.2-14.9-79.7-79.2-138.1l-21.4 21.4L512 246.8l-11.3-11.3L446 180.7c-19.3 13.6-44.2 35.1-65.4 61.8C355 274.5 336 312.4 336 352.2c0 49.8 25.3 93.7 63.7 119.6c-9.9-14.1-15.7-31-15.7-49.2c0-70.4 96-134.4 96-134.4s96 64 96 134.4zm-96 73.6c45.2 0 80-34 80-73.6c0-28.5-20-58.2-43.5-82.5c-11.4-11.8-22.8-21.5-31.4-28.3c-1.8-1.5-3.5-2.8-5.1-3.9c-1.5 1.2-3.2 2.5-5.1 3.9c-8.6 6.8-20 16.5-31.4 28.3C420 364.4 400 394 400 422.6c0 39.6 34.8 73.6 80 73.6z"/></svg>