<svg xmlns="http://www.w3.org/2000/svg" viewBox="0 0 512 512"><!--! Font Awesome Pro 6.5.1 by @fontawesome - https://fontawesome.com License - https://fontawesome.com/license (Commercial License) Copyright 2023 Fonticons, Inc. --><path d="M192 48c150.2 0 272 121.8 272 272h16C480 160.9 351.1 32 192 32V48zM384 320c0-106-86-192-192-192v16c97.2 0 176 78.8 176 176h16zM16 104V96H0v8V368c0 79.5 64.5 144 144 144s144-64.5 144-144s-64.5-144-144-144h-8-8v16h8 8c70.7 0 128 57.3 128 128s-57.3 128-128 128S16 438.7 16 368V104z"/></svg>