<svg xmlns="http://www.w3.org/2000/svg" viewBox="0 0 512 512"><!--! Font Awesome Pro 6.5.1 by @fontawesome - https://fontawesome.com License - https://fontawesome.com/license (Commercial License) Copyright 2023 Fonticons, Inc. --><path d="M383.9 328.7c65-20.3 112.1-81 112.1-152.7c0-88.4-71.6-160-160-160c-71.7 0-132.4 47.1-152.7 112.1c-2.4-.1-4.8-.1-7.3-.1c-3.2 0-6.3 .1-9.4 .2C187.4 54.2 255.4 0 336 0c97.2 0 176 78.8 176 176c0 80.6-54.2 148.6-128.2 169.4c.1-3.1 .2-6.3 .2-9.4c0-2.4 0-4.9-.1-7.3zM336 336A160 160 0 1 0 16 336a160 160 0 1 0 320 0zM0 336a176 176 0 1 1 352 0A176 176 0 1 1 0 336zm168-96v40h40 8v16h-8H168v40 8H152v-8V296H112h-8V280h8 40V240v-8h16v8zM360 80v40h40 8v16h-8H360v40 8H344v-8V136H304h-8V120h8 40V80 72h16v8z"/></svg>