<svg xmlns="http://www.w3.org/2000/svg" viewBox="0 0 576 512"><!--! Font Awesome Pro 6.5.1 by @fontawesome - https://fontawesome.com License - https://fontawesome.com/license (Commercial License) Copyright 2023 Fonticons, Inc. --><path d="M291.4 203.7l52.9-178L352 0 330.5 16.1 32 240v48l112.7 3.9 16.5 .6-4.7 15.8-52.9 178L96 512l21.5-16.1L416 272V224l-112.7-3.9-16.5-.6 4.7-15.8zM400 239.5V264L125.1 470.2 176.6 297l5.9-19.8-20.7-.7L48 272.5V248L322.9 41.9 271.4 215l-5.9 19.8 20.7 .7L400 239.5zM384.4 448H384v.8L354.6 512h17.7l22.4-48H533.4l22.4 48h17.7L544 448.8V448h-.4L471.3 292.6l-2.2-4.6H458.9l-2.2 4.6L384.4 448zM526 448H402l62-133.1L526 448z"/></svg>