<svg xmlns="http://www.w3.org/2000/svg" viewBox="0 0 576 512"><!--! Font Awesome Pro 6.5.1 by @fontawesome - https://fontawesome.com License - https://fontawesome.com/license (Commercial License) Copyright 2023 Fonticons, Inc. --><path d="M144 192h16H416h16V176c0-35.3 28.7-64 64-64s64 28.7 64 64c0 26.2-15.8 48.8-38.4 58.7l-9.6 4.2v10.5 13.3 10.5l9.6 4.2c22.6 9.9 38.4 32.5 38.4 58.7c0 35.3-28.7 64-64 64s-64-28.7-64-64V320H416 160 144v16c0 35.3-28.7 64-64 64s-64-28.7-64-64c0-26.2 15.8-48.8 38.4-58.7l9.6-4.2V262.7 249.3 238.9l-9.6-4.2C31.8 224.8 16 202.2 16 176c0-35.3 28.7-64 64-64s64 28.7 64 64v16zm384 57.3c28.3-12.3 48-40.5 48-73.3c0-44.2-35.8-80-80-80s-80 35.8-80 80H400 176 160c0-44.2-35.8-80-80-80S0 131.8 0 176c0 32.8 19.7 61 48 73.3v13.3C19.7 275 0 303.2 0 336c0 44.2 35.8 80 80 80s80-35.8 80-80h16H400h16c0 44.2 35.8 80 80 80s80-35.8 80-80c0-32.8-19.7-61-48-73.3V249.3z"/></svg>