<svg xmlns="http://www.w3.org/2000/svg" viewBox="0 0 448 512"><!--! Font Awesome Pro 6.5.1 by @fontawesome - https://fontawesome.com License - https://fontawesome.com/license (Commercial License) Copyright 2023 Fonticons, Inc. --><path d="M118.7 224c-41.3 19-74.1 53.5-90.7 96H356c-16.6-42.6-49.3-77.1-90.7-96l-9.3-4.3V209.4 16H128V209.4v10.3l-9.3 4.3zM272 16V209.4c25.4 11.6 47.8 28.6 65.7 49.6l.6-.6L396.7 200l-26.3-26.3-5.7-5.7L376 156.7l5.7 5.7 32 32 32 32 5.7 5.7L440 243.3l-5.7-5.7L408 211.3l-58.3 58.3-2 2C370.5 303.2 384 342 384 384c0 49.2-18.5 94-48.9 128H48.9C18.5 478 0 433.2 0 384c0-77.5 45.9-144.3 112-174.6V16H88 80V0h8 24 16H256h16 24 8V16h-8H272zm88 320H24c-.5 0-.9 0-1.3-.1C18.3 351.2 16 367.3 16 384c0 42.6 15.1 81.6 40.2 112H327.8c25.1-30.4 40.2-69.4 40.2-112c0-16.7-2.3-32.8-6.7-48.1c-.4 .1-.9 .1-1.3 .1z"/></svg>