<svg xmlns="http://www.w3.org/2000/svg" viewBox="0 0 448 512"><!--! Font Awesome Pro 6.5.1 by @fontawesome - https://fontawesome.com License - https://fontawesome.com/license (Commercial License) Copyright 2023 Fonticons, Inc. --><path d="M0 56C0 25.1 25.1 0 56 0H440h8V8 408v8h-8H416v80h24 8v16h-8H56c-30.9 0-56-25.1-56-56V56zM56 416c-22.1 0-40 17.9-40 40s17.9 40 40 40H400V416H56zm-40 .8C26.2 406.4 40.3 400 56 400H432V16H56C33.9 16 16 33.9 16 56V416.8zM302.3 87.1C346 109.7 376 155.3 376 208c0 75.1-60.9 136-136 136s-136-60.9-136-136c0-52.7 30-98.3 73.7-120.9l10.2 11.8C180.4 109.3 176 122.1 176 136c0 17.3 6.9 33.1 18.1 44.6l4.7 4.9-4 5.5C188 200.2 184 211.6 184 224c0 28.2 20.9 51.6 48 55.4V246.9l-11.6 7.7-6.7 4.4-8.9-13.3 6.7-4.4 14-9.3-14-9.3-6.7-4.4 8.9-13.3 6.7 4.4 11.6 7.7V88 80h16v8V217.1l11.6-7.7 6.7-4.4 8.9 13.3-6.7 4.4-14 9.3 14 9.3 6.7 4.4-8.9 13.3-6.7-4.4L248 246.9v32.5c27.1-3.9 48-27.2 48-55.4c0-12.4-4-23.8-10.8-33.1l-4-5.5 4.7-4.9C297.1 169.1 304 153.3 304 136c0-13.9-4.4-26.7-11.9-37.2l10.2-11.8zM320 136c0 19.3-6.9 37.1-18.3 50.9c6.5 10.8 10.3 23.5 10.3 37.1c0 39.8-32.2 72-72 72s-72-32.2-72-72c0-13.6 3.8-26.3 10.3-37.1C166.9 173.1 160 155.3 160 136c0-6.7 .8-13.3 2.4-19.5c-15.2 12.9-27.1 29.4-34.4 48.3l21.6 21.6 5.7 5.7L144 203.3l-5.7-5.7-15.5-15.5c-1.6 7.3-2.5 14.9-2.8 22.6l29.6 29.6 5.7 5.7L144 251.3l-5.7-5.7-16.5-16.5C131.9 285.4 181 328 240 328s108.1-42.6 118.1-98.8l-16.5 16.5-5.7 5.7L324.7 240l5.7-5.7L360 204.7c-.2-7.7-1.1-15.3-2.8-22.6l-15.5 15.5-5.7 5.7L324.7 192l5.7-5.7L352 164.7c-7.3-18.9-19.2-35.4-34.4-48.3c1.6 6.3 2.4 12.8 2.4 19.5z"/></svg>