<svg xmlns="http://www.w3.org/2000/svg" viewBox="0 0 448 512"><!--! Font Awesome Pro 6.5.1 by @fontawesome - https://fontawesome.com License - https://fontawesome.com/license (Commercial License) Copyright 2023 Fonticons, Inc. --><path d="M56 0C25.1 0 0 25.1 0 56V456c0 30.9 25.1 56 56 56H192V496H56c-22.1 0-40-17.9-40-40s17.9-40 40-40H192V400H56c-15.7 0-29.8 6.4-40 16.8V56c0-22.1 17.9-40 40-40H432V400H288v16H400v80H288v16H440h8V496h-8H416V416h24 8v-8V8 0h-8H56zm74.3 234.3l-5.7 5.7L136 251.3l5.7-5.7L232 155.3 232 504v8h16v-8l0-348.7 90.3 90.3 5.7 5.7L355.3 240l-5.7-5.7-104-104-5.7-5.7-5.7 5.7-104 104z"/></svg>