<svg xmlns="http://www.w3.org/2000/svg" viewBox="0 0 448 512"><!--! Font Awesome Pro 6.5.1 by @fontawesome - https://fontawesome.com License - https://fontawesome.com/license (Commercial License) Copyright 2023 Fonticons, Inc. --><path d="M0 56C0 25.1 25.1 0 56 0H440h8V8 408v8h-8H416v80h24 8v16h-8H56c-30.9 0-56-25.1-56-56V56zM56 416c-22.1 0-40 17.9-40 40s17.9 40 40 40H400V416H56zm-40 .8C26.2 406.4 40.3 400 56 400H432V16H56C33.9 16 16 33.9 16 56V416.8zM200 96h64 8v8 64h64 8v8 64 8h-8H272v64 8h-8H200h-8v-8V248H128h-8v-8V176v-8h8 64V104 96h8zm8 80v8h-8H136v48h64 8v8 64h48V240v-8h8 64V184H264h-8v-8V112H208v64z"/></svg>