<svg xmlns="http://www.w3.org/2000/svg" viewBox="0 0 640 512"><!--! Font Awesome Pro 6.5.1 by @fontawesome - https://fontawesome.com License - https://fontawesome.com/license (Commercial License) Copyright 2023 Fonticons, Inc. --><path d="M56 0C25.1 0 0 25.1 0 56V456c0 30.9 25.1 56 56 56H440h8V496h-8H416V416h24 8v-8V256H432V400H56c-15.7 0-29.8 6.4-40 16.8V56c0-22.1 17.9-40 40-40H432V160h16V8 0h-8H56zM400 416v80H56c-22.1 0-40-17.9-40-40s17.9-40 40-40H400zM525.7 98.3L520 92.7 508.7 104l5.7 5.7L604.7 200H264h-8v16h8H604.7l-90.3 90.3-5.7 5.7L520 323.3l5.7-5.7 104-104 5.7-5.7-5.7-5.7-104-104z"/></svg>