<svg xmlns="http://www.w3.org/2000/svg" viewBox="0 0 448 512"><!--! Font Awesome Pro 6.5.1 by @fontawesome - https://fontawesome.com License - https://fontawesome.com/license (Commercial License) Copyright 2023 Fonticons, Inc. --><path d="M392 0c30.9 0 56 25.1 56 56V456c0 30.9-25.1 56-56 56H8 0V496H8 32V416H8 0v-8V8 0H8 392zM48 416v80H392c22.1 0 40-17.9 40-40s-17.9-40-40-40H48zm344-16c15.7 0 29.8 6.4 40 16.8V56c0-22.1-17.9-40-40-40H16V400H392zM216 64l9.2 16 32.3 56h64.7 18.5l-9.2 16-32.3 56 32.3 56 9.2 16H322.2 257.6l-32.3 56L216 352l-9.2-16-32.3-56H109.8 91.3l9.2-16 32.3-56-32.3-56-9.2-16h18.5 64.7l32.3-56L216 64zm32.3 88H183.7l-32.3 56 32.3 56h64.7l32.3-56-32.3-56zm-9.2-16L216 96l-23.1 40h46.2zm50.8 56L313 152H266.8l23.1 40zm0 32l-23.1 40H313l-23.1-40zm-50.8 56H192.9L216 320l23.1-40zm-73.9-16l-23.1-40L119 264h46.2zm-23.1-72l23.1-40H119l23.1 40z"/></svg>