<svg xmlns="http://www.w3.org/2000/svg" viewBox="0 0 448 512"><!--! Font Awesome Pro 6.5.1 by @fontawesome - https://fontawesome.com License - https://fontawesome.com/license (Commercial License) Copyright 2023 Fonticons, Inc. --><path d="M0 56C0 25.1 25.1 0 56 0H440h8V8 408v8h-8H416v80h24 8v16h-8H56c-30.9 0-56-25.1-56-56V56zM56 416c-22.1 0-40 17.9-40 40s17.9 40 40 40H400V416H56zm-40 .8C26.2 406.4 40.3 400 56 400H432V16H56C33.9 16 16 33.9 16 56V416.8zm200.2-91.2c-17.4-18.2-38.3-51.8-40-109.6H120.3c3.6 54.5 43.6 99.1 95.9 109.6zm4.5-19.3c7 9 13.8 14.9 18.8 18.5l.6 .4 .6-.4c5-3.6 11.8-9.6 18.8-18.5c13-16.8 27-45 28.5-90.4H192.1c1.5 45.4 15.5 73.6 28.5 90.4zM192.1 200h95.7c-1.5-45.4-15.5-73.6-28.5-90.4c-7-9-13.8-14.9-18.8-18.5l-.6-.4-.6 .4c-5 3.6-11.8 9.6-18.8 18.5c-13 16.8-27 45-28.5 90.4zm71.7 125.6c52.3-10.5 92.3-55.1 95.9-109.6H303.9c-1.8 57.8-22.6 91.5-40 109.6zm40-125.6h55.9c-3.6-54.5-43.6-99.1-95.9-109.6c17.4 18.2 38.3 51.8 40 109.6zm-183.6 0h55.9c1.8-57.8 22.6-91.5 40-109.6c-52.3 10.5-92.3 55.1-95.9 109.6zM240 72a136 136 0 1 1 0 272 136 136 0 1 1 0-272z"/></svg>