<svg xmlns="http://www.w3.org/2000/svg" viewBox="0 0 448 512"><!--! Font Awesome Pro 6.5.1 by @fontawesome - https://fontawesome.com License - https://fontawesome.com/license (Commercial License) Copyright 2023 Fonticons, Inc. --><path d="M56 0C25.1 0 0 25.1 0 56V456c0 30.9 25.1 56 56 56H440h8V496h-8H416V416h24 8v-8V8 0h-8H56zM400 416v80H56c-22.1 0-40-17.9-40-40s17.9-40 40-40H400zM56 400c-15.7 0-29.8 6.4-40 16.8V56c0-22.1 17.9-40 40-40H432V400H56zM288 149.7l-7.2 14.8-27.6 56.7-56.7 27.6L181.7 256l14.8 7.2 56.7 27.6 27.6 56.7 7.2 14.8 7.2-14.8 27.6-56.7 56.7-27.6 14.8-7.2-14.8-7.2-56.7-27.6-27.6-56.7L288 149.7zm0 36.6l21.6 44.4 1.2 2.5 2.5 1.2L357.7 256l-44.4 21.6-2.5 1.2-1.2 2.5L288 325.7l-21.6-44.4-1.2-2.5-2.5-1.2L218.3 256l44.4-21.6 2.5-1.2 1.2-2.5L288 186.3zM174.8 75.8L168 64.7l-6.8 11.1-20.3 33-33 20.3L96.7 136l11.1 6.8 33 20.3 20.3 33 6.8 11.1 6.8-11.1 20.3-33 33-20.3 11.1-6.8-11.1-6.8-33-20.3-20.3-33zm-21.3 43.1L168 95.3l14.5 23.6 1 1.6 1.6 1L208.7 136l-23.6 14.5-1.6 1-1 1.6L168 176.7l-14.5-23.6-1-1.6-1.6-1L127.3 136l23.6-14.5 1.6-1 1-1.6z"/></svg>