<svg xmlns="http://www.w3.org/2000/svg" viewBox="0 0 448 512"><!--! Font Awesome Pro 6.5.1 by @fontawesome - https://fontawesome.com License - https://fontawesome.com/license (Commercial License) Copyright 2023 Fonticons, Inc. --><path d="M56 0C25.1 0 0 25.1 0 56V456c0 30.9 25.1 56 56 56H440h8V496h-8H416V416h24 8v-8V8 0h-8H56zM400 416v80H56c-22.1 0-40-17.9-40-40s17.9-40 40-40H400zM56 400c-15.7 0-29.8 6.4-40 16.8V56c0-22.1 17.9-40 40-40H432V400H56zm76.7-178.8l-7.6 14.1 7 3.8 90.9 49-90.9 49-7 3.8 7.6 14.1 7-3.8 100.2-54 100.2 54 7 3.8 7.6-14.1-7-3.8-90.9-49 90.9-49 7-3.8-7.6-14.1-7 3.8L240 278.9 139.8 225l-7-3.8zM168 136c0-29.4 30.5-56 72-56s72 26.6 72 56c0 17.5-10.5 33.8-28.1 44.3l-3.9 2.3v4.5V208H200V187.2v-4.5l-3.9-2.3C178.5 169.8 168 153.5 168 136zm72-72c-46.8 0-88 30.7-88 72c0 22.9 12.9 42.7 32 55.6V216v8h8 96 8v-8V191.6c19.1-12.9 32-32.7 32-55.6c0-41.3-41.2-72-88-72zm-32 88a16 16 0 1 0 0-32 16 16 0 1 0 0 32zm80-16a16 16 0 1 0 -32 0 16 16 0 1 0 32 0z"/></svg>