<svg xmlns="http://www.w3.org/2000/svg" viewBox="0 0 448 512"><!--! Font Awesome Pro 6.5.1 by @fontawesome - https://fontawesome.com License - https://fontawesome.com/license (Commercial License) Copyright 2023 Fonticons, Inc. --><path d="M0 56C0 25.1 25.1 0 56 0H160h8H344h8 88 8V8 408v8h-8H416v80h24 8v16h-8H56c-30.9 0-56-25.1-56-56V56zM336 16H176V231.1l74.9-61.3 5.1-4.1 5.1 4.1L336 231.1V16zM160 16H56C33.9 16 16 33.9 16 56V416.8C26.2 406.4 40.3 400 56 400H432V16H352V248v16.9l-13.1-10.7L256 186.3l-82.9 67.9L160 264.9V248 16zM56 416c-22.1 0-40 17.9-40 40s17.9 40 40 40H400V416H56z"/></svg>