<svg xmlns="http://www.w3.org/2000/svg" viewBox="0 0 512 512"><!--! Font Awesome Pro 6.5.1 by @fontawesome - https://fontawesome.com License - https://fontawesome.com/license (Commercial License) Copyright 2023 Fonticons, Inc. --><path d="M128 416v80H16V416H128zm0-304V400H16V112H128zm0-96V96H16V16H128zM144 0H128 16 0V16 96v8 8V400v8 8 80 16H16 128h16H256h16V496 416v-8-8V170.9l59.7 222.6 2.1 7.7 2.1 7.7 23.5 87.5 4.1 15.5 15.5-4.1 116.7-31.3 15.5-4.1L506.9 457l-23.5-87.5-2.1-7.7-2.1-7.7L416.2 118.5l-2.1-7.7L412 103 388.6 15.5 384.4 0 369 4.1l-97 26V16 0H256 144zM272 46.7L373.1 19.6l23.5 87.5L279.9 138.4 272 109.1V104 96 46.7zM256 496H144V416H256v80zm0-400H144V16H256V96zm0 304H144V112H256V400zm118.7 92.4l-23.5-87.5L468 373.6l23.5 87.5L374.7 492.4zm-27.6-103L284 153.9l116.7-31.3 63.1 235.5L347.1 389.4z"/></svg>