<svg xmlns="http://www.w3.org/2000/svg" viewBox="0 0 640 512"><!--! Font Awesome Pro 6.5.1 by @fontawesome - https://fontawesome.com License - https://fontawesome.com/license (Commercial License) Copyright 2023 Fonticons, Inc. --><path d="M80 386.9l232 46.4V50.3L80 18.4V386.9zm248 46.4l232-46.4V18.4L328 50.3v383zM320 35.2l240-33L576 0V16.2 400L320 451.2 64 400V16.2 0L80 2.2l240 33zM16 31l16 2.2V49.4L16 47.2V431.7l304 60.8 304-60.8V47.2l-16 2.2V33.2L624 31l16-2.2V45 444.8l-320 64L0 444.8V45 28.8L16 31z"/></svg>