<svg xmlns="http://www.w3.org/2000/svg" viewBox="0 0 448 512"><!--! Font Awesome Pro 6.5.1 by @fontawesome - https://fontawesome.com License - https://fontawesome.com/license (Commercial License) Copyright 2023 Fonticons, Inc. --><path d="M0 56C0 25.1 25.1 0 56 0H440h8V8 408v8h-8H416v80h24 8v16h-8H56c-30.9 0-56-25.1-56-56V56zM56 416c-22.1 0-40 17.9-40 40s17.9 40 40 40H400V416H56zm-40 .8C26.2 406.4 40.3 400 56 400H432V16H56C33.9 16 16 33.9 16 56V416.8zM240 192a48 48 0 1 0 0-96 48 48 0 1 0 0 96zm0-112a64 64 0 1 1 0 128 64 64 0 1 1 0-128zM171.5 256l-21.3 64H329.8l-21.3-64H171.5zM320 240l26.7 80 5.3 16H335.1 144.9 128l5.3-16L160 240H320z"/></svg>