<svg xmlns="http://www.w3.org/2000/svg" viewBox="0 0 576 512"><!--! Font Awesome Pro 6.5.1 by @fontawesome - https://fontawesome.com License - https://fontawesome.com/license (Commercial License) Copyright 2023 Fonticons, Inc. --><path d="M208 56c0-22.1 17.9-40 40-40H560V304H536 248c-15.7 0-29.8 6.4-40 16.8V56zM192 359.6l0 .1 0 .3c0 30.9 25.1 56 56 56H536h32 8V400h-8H544V320h24 8v-8V8 0h-8H248c-30.9 0-56 25.1-56 56V359.6zM528 320v80H248c-22.1 0-40-17.9-40-40s17.9-40 40-40H528zM352 496V448H336v48H56c-22.1 0-40-17.9-40-40s17.9-40 40-40H180.1c-4.1-4.9-7.6-10.3-10.5-16H56c-15.7 0-29.8 6.4-40 16.8V152c0-22.1 17.9-40 40-40H160V96H56C25.1 96 0 121.1 0 152V455.6l0 .1 0 .3c0 30.9 25.1 56 56 56H344h32 8V496h-8H352z"/></svg>