<svg xmlns="http://www.w3.org/2000/svg" viewBox="0 0 448 512"><!--! Font Awesome Pro 6.5.1 by @fontawesome - https://fontawesome.com License - https://fontawesome.com/license (Commercial License) Copyright 2023 Fonticons, Inc. --><path d="M0 56C0 25.1 25.1 0 56 0H440h8V8 408v8h-8H416v80h24 8v16h-8H56c-30.9 0-56-25.1-56-56V56zM56 416c-22.1 0-40 17.9-40 40s17.9 40 40 40H400V416H56zm-40 .8C26.2 406.4 40.3 400 56 400H432V16H56C33.9 16 16 33.9 16 56V416.8zM244.9 96l2.2 4.4L356.9 320H339.1l-32-64H172.9l-32 64H123.1L232.8 100.4l2.2-4.4h9.9zm-64 144H299.1L240 121.9 180.9 240z"/></svg>