<svg xmlns="http://www.w3.org/2000/svg" viewBox="0 0 576 512"><!--! Font Awesome Pro 6.5.1 by @fontawesome - https://fontawesome.com License - https://fontawesome.com/license (Commercial License) Copyright 2023 Fonticons, Inc. --><path d="M192 496H80V416H192v80zm0-384v56h16V112H320V400H208V344H192v56H176 80 64v8 8 80 16H80 192h16H320h16V496 416v-8-8V170.9l59.6 222.6 2.1 7.7 2.1 7.7 23.5 87.5 4.1 15.5 15.5-4.1 116.7-31.3 15.5-4.1L570.9 457l-23.5-87.5-2.1-7.7-2.1-7.7L480.2 118.5l-2.1-7.7L476 103 452.6 15.5 448.4 0 433 4.1l-97 26V16 0H320 208 192 80 64V16 96v8 8H80h96 16zm0-96V96H80V16H192zM336 46.7L437.1 19.6l23.5 87.5L343.9 138.4 336 109.1V104 96 46.7zM320 496H208V416H320v80zm0-400H208V16H320V96zM438.7 492.4l-23.5-87.5L532 373.6l23.5 87.5L438.7 492.4zm-27.6-103L348 153.9l116.7-31.3 63.1 235.5L411.1 389.4zM72 144H64v8 64H0-8v8 64 8H0 64v64 8h8 64 8v-8V296h64 8v-8V224v-8h-8H144V152v-8h-8H72zm8 80V160h48v64 8h8 64v48H136h-8v8 64H80V288v-8H72 8V232H72h8v-8z"/></svg>