<svg xmlns="http://www.w3.org/2000/svg" viewBox="0 0 640 512"><!--! Font Awesome Pro 6.5.1 by @fontawesome - https://fontawesome.com License - https://fontawesome.com/license (Commercial License) Copyright 2023 Fonticons, Inc. --><path d="M72 0H64V8 160H16 0v16V496v16H16 624h16V496 176 160H624 576V8 0h-8H72zM560 160H448V136v-8h-8H392h-8v8 24H352V136v-8h-8H296h-8v8 24H256V136v-8h-8H200h-8v8 24H80V16H560V160zM72 176H200h48 48 48 48 48H568h56V496H16V176H72zm328-32h32v16H400V144zm-64 16H304V144h32v16zm-96-16v16H208V144h32zm-64 96a96 96 0 1 1 0 192 96 96 0 1 1 0-192zm0 208a112 112 0 1 0 0-224 112 112 0 1 0 0 224zM368 336a96 96 0 1 1 192 0 96 96 0 1 1 -192 0zm208 0a112 112 0 1 0 -224 0 112 112 0 1 0 224 0z"/></svg>