<svg xmlns="http://www.w3.org/2000/svg" viewBox="0 0 512 512"><!--! Font Awesome Pro 6.5.1 by @fontawesome - https://fontawesome.com License - https://fontawesome.com/license (Commercial License) Copyright 2023 Fonticons, Inc. --><path d="M8 0H64V16H16V504v8H0v-8V8 0H8zM432 16V400c0 17.7 14.3 32 32 32s32-14.3 32-32V16H432zm64 419.8c-8.5 7.6-19.7 12.2-32 12.2c-16.7 0-31.4-8.5-40-21.5c-8.6 12.9-23.3 21.5-40 21.5s-31.4-8.5-40-21.5c-8.6 12.9-23.3 21.5-40 21.5s-31.4-8.5-40-21.5c-8.6 12.9-23.3 21.5-40 21.5s-31.4-8.5-40-21.5c-8.6 12.9-23.3 21.5-40 21.5c-26.5 0-48-21.5-48-48V16 0h16 64 16 64 16 64 16 64 16 64 8 8V8v8V400 504v8H496v-8V435.8zM112 16V400c0 17.7 14.3 32 32 32s32-14.3 32-32V16H112zm80 0V400c0 17.7 14.3 32 32 32s32-14.3 32-32V16H192zm80 0V400c0 17.7 14.3 32 32 32s32-14.3 32-32V16H272zm80 0V400c0 17.7 14.3 32 32 32s32-14.3 32-32V16H352z"/></svg>