<svg xmlns="http://www.w3.org/2000/svg" viewBox="0 0 512 512"><!--! Font Awesome Pro 6.5.1 by @fontawesome - https://fontawesome.com License - https://fontawesome.com/license (Commercial License) Copyright 2023 Fonticons, Inc. --><path d="M16 16H368v96H16V16zM0 0V16v96 16H16 368h16V112 16 0H368 16 0zM240 160h-8v16h8 96v48H240h-8v16h8H344h4.6L496 306.3V400H16V160H0V400v16 64l32 32H96l20.7-20.7L128 480l11.3 11.3L160 512h64l20.7-20.7L256 480l11.3 11.3L288 512h64l20.7-20.7L384 480l11.3 11.3L416 512h64l32-32V416 400 296L352 224V176v-8-8h-8H240zM16 416H496v57.4L473.4 496H422.6l-27.3-27.3L384 457.4l-11.3 11.3L345.4 496H294.6l-27.3-27.3L256 457.4l-11.3 11.3L217.4 496H166.6l-27.3-27.3L128 457.4l-11.3 11.3L89.4 496H38.6L16 473.4V416z"/></svg>