<svg xmlns="http://www.w3.org/2000/svg" viewBox="0 0 512 512"><!--! Font Awesome Pro 6.5.1 by @fontawesome - https://fontawesome.com License - https://fontawesome.com/license (Commercial License) Copyright 2023 Fonticons, Inc. --><path d="M8 0H0V8 32v.6l.1 .6L31.9 231.8 .2 382.4l-.2 .8v.8 56 64 8H8 112h8v-8V448h22.1l126.3 63.2 1.7 .8H272 472h32 8V496h-8H480V432v-4.5l-3.8-2.3L272 299.5V8 0h-8H8zm8 448h88v48H16V448zm96-16H16V384.8L47.8 233.6l.3-1.4-.2-1.5L16 31.4V16h96V248v8h16v-8V16H256V304v4.5l3.8 2.3L464 436.5V496H273.9L147.6 432.8l-1.7-.8H144 112z"/></svg>