<svg xmlns="http://www.w3.org/2000/svg" viewBox="0 0 448 512"><!--! Font Awesome Pro 6.5.1 by @fontawesome - https://fontawesome.com License - https://fontawesome.com/license (Commercial License) Copyright 2023 Fonticons, Inc. --><path d="M0 32H448V48H0V32zM16 144H48v32H16V144zm416 0v32H400V144h32zm-224 0h32v32H208V144zM48 336v32H16V336H48zm352 0h32v32H400V336zm-160 0v32H208V336h32zM16 240H48v32H16V240zm416 0v32H400V240h32zm-224 0h32v32H208V240zM48 432v32H16V432H48zm352 0h32v32H400V432zm-160 0v32H208V432h32zM112 240h32v32H112V240zm32 192v32H112V432h32zm160 0h32v32H304V432zm32-192v32H304V240h32z"/></svg>