<svg xmlns="http://www.w3.org/2000/svg" viewBox="0 0 512 512"><!--! Font Awesome Pro 6.5.1 by @fontawesome - https://fontawesome.com License - https://fontawesome.com/license (Commercial License) Copyright 2023 Fonticons, Inc. --><path d="M264 8V272.5c31.6 3.9 56 30.9 56 63.5c0 35.3-28.7 64-64 64s-64-28.7-64-64c0-32.6 24.4-59.6 56-63.5V8 0h16V8zM208 336a48 48 0 1 0 96 0 48 48 0 1 0 -96 0zM496 144H368V336c0 61.9-50.1 112-112 112s-112-50.1-112-112V144H16V496H496V144zM144 128h16v16V336c0 53 43 96 96 96s96-43 96-96V144 128h16H496h16v16V496v16H496 16 0V496 144 128H16 144z"/></svg>