<svg xmlns="http://www.w3.org/2000/svg" viewBox="0 0 512 512"><!--! Font Awesome Pro 6.5.1 by @fontawesome - https://fontawesome.com License - https://fontawesome.com/license (Commercial License) Copyright 2023 Fonticons, Inc. --><path d="M176 32V48 64 80h16 8 16 8 16V64 48 32H224h-8H200h-8H176zm24 32h-8V48h8 16 8V64h-8H200zm-8 56h8 16 8v16h-8H200h-8V120zM32 176v16 16 16H48h8H72h8H96V208 192 176H80 72 56 48 32zm24 32H48V192h8H72h8v16H72 56zm168-32v16 16 16h16 8 16 8 16V208 192 176H272h-8H248h-8H224zm24 32h-8V192h8 16 8v16h-8H248zM128 176v16 16 16h16 8 16 8 16V208 192 176H176h-8H152h-8H128zm24 32h-8V192h8 16 8v16h-8H152zM96 120h8 16 8v16h-8H104 96V120zm224 56v16 16 16h16 8 16 8 16V208 192 176H368h-8H344h-8H320zm24 32h-8V192h8 16 8v16h-8H344zm-56-88h8 16 8v16h-8H296h-8V120zm128 56v16 16 16h16 8 16 8 16V208 192 176H464h-8H440h-8H416zm24 32h-8V192h8 16 8v16h-8H440zm-56-88h8 16 8v16h-8H392h-8V120zM288 48h8 16 8V64h-8H296h-8V48zm-88 56h-8H176v16 16 16h16 8 16 8 16V136 120 104H224h-8H200zm-96 0H96 80v16 16 16H96h8 16 8 16V136 120 104H128h-8H104zm192 0h-8H272v16 16 16h16 8 16 8 16V136 120 104H320h-8H296zm96 0h-8H368v16 16 16h16 8 16 8 16V136 120 104H416h-8H392zM296 32h-8H272V48 64 80h16 8 16 8 16V64 48 32H320h-8H296zM112 431.8V421.7l-9.1-4.3C51.5 393 16 340.6 16 280v-8H496v8c0 60.6-35.5 113-86.9 137.4l-9.1 4.3v10.1V464H112V431.8zM512 256H496 16 0v16 8c0 67 39.2 124.9 96 151.8V464v16h16H400h16V464 431.8c56.8-27 96-84.8 96-151.8v-8V256z"/></svg>