<svg xmlns="http://www.w3.org/2000/svg" viewBox="0 0 512 512"><!--! Font Awesome Pro 6.5.1 by @fontawesome - https://fontawesome.com License - https://fontawesome.com/license (Commercial License) Copyright 2023 Fonticons, Inc. --><path d="M97.3 168L32 367.9 81.2 512H193.4L240 368 177.3 168l22-86c1.4-5.3 2-10.8 2-16.2V64c0-35.3-28.7-64-64-64s-64 28.7-64 64v1.7c0 5.5 .7 10.9 2 16.2l22 86zm86.5-90l-20.9 82H111.8L90.9 78c-1-4-1.5-8.1-1.5-12.3V64c0-26.5 21.5-48 48-48s48 21.5 48 48v1.7c0 4.1-.5 8.3-1.5 12.3zM163 176l60.2 191.9L181.8 496H92.6L48.9 367.8 111.5 176H163zm173-8L272 368l47.9 144H432.1L480 368 416 168l22-86c1.4-5.3 2-10.8 2-16.2V64c0-35.3-28.7-64-64-64s-64 28.7-64 64v1.7c0 5.5 .7 10.9 2 16.2l22 86zm86.5-90l-20.9 82H350.5L329.5 78c-1-4-1.5-8.1-1.5-12.3V64c0-26.5 21.5-48 48-48s48 21.5 48 48v1.7c0 4.1-.5 8.3-1.5 12.3zm40.7 289.9L420.6 496H331.4L288.8 367.9 350.2 176h51.5l61.4 191.9z"/></svg>