<svg xmlns="http://www.w3.org/2000/svg" viewBox="0 0 576 512"><!--! Font Awesome Pro 6.5.1 by @fontawesome - https://fontawesome.com License - https://fontawesome.com/license (Commercial License) Copyright 2023 Fonticons, Inc. --><path d="M433 220.4L447.5 176H499l60.2 191.9L517.8 496H428.6l-20.4-59.7c-3.6 5.5-7.4 10.8-11.5 15.9L417.2 512H529.4L576 368 513.3 168l22-86c1.4-5.3 2-10.8 2-16.2V64c0-35.3-28.7-64-64-64s-64 28.7-64 64v1.7c0 5.5 .7 10.9 2 16.2l22 86-9.8 30.2c3.6 7.2 6.7 14.6 9.6 22.2zM498.8 160H447.8L426.9 78c-1-4-1.5-8.1-1.5-12.3V64c0-26.5 21.5-48 48-48s48 21.5 48 48v1.7c0 4.1-.5 8.3-1.5 12.3l-20.9 82zM208 112a192 192 0 1 1 0 384 192 192 0 1 1 0-384zm0 400a208 208 0 1 0 0-416 208 208 0 1 0 0 416zm16-240a16 16 0 1 0 -32 0 16 16 0 1 0 32 0zM112 256a16 16 0 1 0 0-32 16 16 0 1 0 0 32zm112-80a16 16 0 1 0 -32 0 16 16 0 1 0 32 0z"/></svg>