<svg xmlns="http://www.w3.org/2000/svg" viewBox="0 0 448 512"><!--! Font Awesome Pro 6.5.1 by @fontawesome - https://fontawesome.com License - https://fontawesome.com/license (Commercial License) Copyright 2023 Fonticons, Inc. --><path d="M335.3 64.7C313.3 26.1 271.7 0 224 0s-89.3 26.1-111.3 64.7c5-.5 10.1-.7 15.3-.7c1.4 0 2.7 0 4 0c20.2-29 53.9-48 92-48s71.7 19 92 48c1.3 0 2.7 0 4 0c5.2 0 10.3 .2 15.3 .7zM200 118.2c-20.5-14-45.3-22.2-72-22.2C57.3 96 0 153.3 0 224H16c0-61.9 50.1-112 112-112c22.9 0 44.2 6.9 62 18.7c3.1-4.4 6.5-8.5 10-12.6zM448 224c0-70.7-57.3-128-128-128s-128 57.3-128 128h16c0-61.9 50.1-112 112-112s112 50.1 112 112h16zM9.6 256H.8l.9 8.8 1.4 14.3C10.8 356.8 76.2 416 154.3 416H158l-60 66.6L96 484.9V488v16 8h8H344h8v-8V488v-3.1l-2.1-2.3L290 416h3.7c78.1 0 143.5-59.2 151.2-136.9l1.4-14.3 .9-8.8h-8.8H9.6zM19 277.5l-.6-5.5H429.6l-.6 5.5c-7 69.5-65.5 122.5-135.3 122.5H272 254l12 13.4L336 491.1V496H112v-4.9l69.9-77.7L194 400H176 154.3C84.4 400 25.9 347.1 19 277.5z"/></svg>