<svg xmlns="http://www.w3.org/2000/svg" viewBox="0 0 512 512"><!--! Font Awesome Pro 6.5.1 by @fontawesome - https://fontawesome.com License - https://fontawesome.com/license (Commercial License) Copyright 2023 Fonticons, Inc. --><path d="M264 0H249.1l8.3 12.4 10.8 16.3c2.5 3.7 3.8 8.1 3.8 12.6C272 53.8 261.8 64 249.3 64H176c-35.3 0-64 28.7-64 64c0 8.5 1.7 16.6 4.7 24h-7.9C66.4 152 32 186.4 32 228.8V296v8h8H472h8v-8V228.8c0-42.4-34.4-76.8-76.8-76.8H392h-.3c5.3-10.2 8.3-21.7 8.3-34C400 52.8 347.2 0 282 0H264zM373 152H296h-8v16h8 63.9 17H384h8 11.2c33.6 0 60.8 27.2 60.8 60.8V288H48V228.8c0-33.6 27.2-60.8 60.8-60.8H120h8 2 15.3H168h8V152h-8H134.4c-4.1-7.1-6.4-15.2-6.4-24c0-26.5 21.5-48 48-48h73.3C270.7 80 288 62.7 288 41.3c0-7.6-2.3-15.1-6.5-21.5L278.9 16H282c56.3 0 102 45.7 102 102c0 12.7-4.1 24.4-11 34zM64 336v-8H48v8 16c0 53 43 96 96 96h43.1l-26.2 52.4L155.1 512H168 344h12.9l-5.8-11.6L324.9 448H368c53 0 96-43 96-96V336v-8H448v8 16c0 44.2-35.8 80-80 80H312 299.1l5.8 11.6L331.1 496H180.9l26.2-52.4 5.8-11.6H200 144c-44.2 0-80-35.8-80-80V336z"/></svg>