<svg xmlns="http://www.w3.org/2000/svg" viewBox="0 0 512 512"><!--! Font Awesome Pro 6.5.1 by @fontawesome - https://fontawesome.com License - https://fontawesome.com/license (Commercial License) Copyright 2023 Fonticons, Inc. --><path d="M144 0H128V8 25.4c0 31.8 16.7 61.2 43.9 77.5c22.4 13.4 36.1 37.7 36.1 63.8V184v8h16v-8V166.6c0-29.1-14-56.2-37.2-73.1l.2-.3-6.9-4.1C157.7 75.7 144 51.5 144 25.4V8 0zm0 462.9l-8.9-4.4c-65-32.2-111-97.3-115.5-174.3L17 240H495l-2.6 44.2c-4.5 77-50.5 142.2-115.5 174.3l-8.9 4.4v9.9V496H144V472.9v-9.9zM.9 240l2.7 45.2C8.5 368.1 58 438.2 128 472.9V496v16h16H368h16V496 472.9c70-34.6 119.5-104.8 124.4-187.7l2.7-45.2 .9-16H496 16 0l.9 16zM272 8V0H256V8 25.4c0 31.8 16.7 61.2 43.9 77.5c22.4 13.4 36.1 37.7 36.1 63.8V184v8h16v-8V166.6c0-29.1-14-56.2-37.2-73.1l.2-.3-6.9-4.1C285.7 75.7 272 51.5 272 25.4V8z"/></svg>