<svg xmlns="http://www.w3.org/2000/svg" viewBox="0 0 512 512"><!--! Font Awesome Pro 6.5.1 by @fontawesome - https://fontawesome.com License - https://fontawesome.com/license (Commercial License) Copyright 2023 Fonticons, Inc. --><path d="M224 128v16 32 16H208 112C50.1 192 0 149 0 96S50.1 0 112 0h96 16V16 48 64h16H480h16 16V80v32 16H496 480 240 224zm-16 0V112h16H480h16V80H480 224 208V64 16H112C56.6 16 16 54 16 96s40.6 80 96 80h96V128zM144 472.9V496H368V472.9v-9.9l8.9-4.4c65-32.2 111-97.3 115.5-174.3L495 240H17l2.6 44.2c4.5 77 50.5 142.2 115.5 174.3l8.9 4.4v9.9zM3.6 285.2L.9 240 0 224H16 496h16l-.9 16-2.7 45.2C503.5 368.1 454 438.2 384 472.9V496v16H368 144 128V496 472.9C58 438.2 8.5 368.1 3.6 285.2z"/></svg>