<svg xmlns="http://www.w3.org/2000/svg" viewBox="0 0 448 512"><!--! Font Awesome Pro 6.5.1 by @fontawesome - https://fontawesome.com License - https://fontawesome.com/license (Commercial License) Copyright 2023 Fonticons, Inc. --><path d="M416 224c0-106-86-192-192-192S32 118 32 224H48c0-97.2 78.8-176 176-176s176 78.8 176 176h16zM9.6 256H.8l.9 8.8 1.4 14.3C10.8 356.8 76.2 416 154.3 416H158l-60 66.6L96 484.9V488v16 8h8H344h8v-8V488v-3.1l-2.1-2.3L290 416h3.7c78.1 0 143.5-59.2 151.2-136.9l1.4-14.3 .9-8.8h-8.8H9.6zM19 277.5l-.6-5.5H429.6l-.6 5.5c-7 69.5-65.5 122.5-135.3 122.5H272 254l12 13.4L336 491.1V496H112v-4.9l69.9-77.7L194 400H176 154.3C84.4 400 25.9 347.1 19 277.5z"/></svg>