<svg xmlns="http://www.w3.org/2000/svg" viewBox="0 0 512 512"><!--! Font Awesome Pro 6.5.1 by @fontawesome - https://fontawesome.com License - https://fontawesome.com/license (Commercial License) Copyright 2023 Fonticons, Inc. --><path d="M505.6 18.1l7.8-1.6L510.2 .8l-7.8 1.6L8.3 104.2 .5 105.8l3.2 15.7 7.8-1.6L505.6 18.1zm6.9 117.4l-1-16-8 .5L7.5 152l-8 .5 1 16 8-.5 496-32 8-.5zM144 462.9l-8.9-4.4c-65-32.2-111-97.3-115.5-174.3L17 240H495l-2.6 44.2c-4.5 77-50.5 142.2-115.5 174.3l-8.9 4.4v9.9V496H144V472.9v-9.9zM.9 240l2.7 45.2C8.5 368.1 58 438.2 128 472.9V496v16h16H368h16V496 472.9c70-34.6 119.5-104.8 124.4-187.7l2.7-45.2 .9-16H496 16 0l.9 16z"/></svg>