<svg xmlns="http://www.w3.org/2000/svg" viewBox="0 0 512 512"><!--! Font Awesome Pro 6.5.1 by @fontawesome - https://fontawesome.com License - https://fontawesome.com/license (Commercial License) Copyright 2023 Fonticons, Inc. --><path d="M208.5 79.4V63 32 24h16v8V59.7 76.1v62 16V224v0h32v0h240 16l-.9 16-2.7 45.2c-4.9 82.9-54.4 153.1-124.4 187.7V496v16h-16-224-16V496 472.9C58.5 438.2 9 368.1 4.1 285.2L1.4 240 .5 224h16 144V158.2L9 168l-8 .5-1-16 8-.5 152.5-9.8V89.3L12 119.8l-7.8 1.6L1 105.8l7.8-1.6L160.5 72.9V48 40h16v8V69.6 86v55.2 16V224v0h32v0V155.1v-16V79.4zm0 160.6h-32v0h-16v0H17.5l2.6 44.2c4.5 77 50.5 142.1 115.5 174.3l8.9 4.4v9.9V496h224V472.9v-9.9l8.9-4.4c65-32.2 111-97.4 115.5-174.3l2.6-44.2h-271v0h-16v0zm48-104L504 120l8-.5 1 16-8 .5L256.5 152V136zm0-82.8L502.9 2.4l7.8-1.6 3.2 15.7-7.8 1.6L256.5 69.5V53.1z"/></svg>