<svg xmlns="http://www.w3.org/2000/svg" viewBox="0 0 448 512"><!--! Font Awesome Pro 6.5.1 by @fontawesome - https://fontawesome.com License - https://fontawesome.com/license (Commercial License) Copyright 2023 Fonticons, Inc. --><path d="M17.5 176H216V48H74.4L17.5 176zm413 0L373.6 48H232V176H430.5zM16 192V464H432V192H16zM64 32H384l64 144V464v16H432 16 0V464 176L64 32zm77.7 226.2c-17.4 17.4-17 45.9 1 62.7L224 397l81.3-76.1c18-16.9 18.5-45.3 1-62.7c-17.1-17.1-44.7-17.1-61.8 0l-14.9 14.9-5.7 5.7-5.7-5.7-14.9-14.9c-17.1-17.1-44.7-17.1-61.8 0zm73.1-11.3l9.2 9.2 9.2-9.2c23.3-23.3 61.1-23.3 84.4 0c23.8 23.8 23.2 62.7-1.4 85.7l-86.7 81.2L224 419l-5.5-5.1-86.7-81.2c-24.6-23-25.3-61.9-1.4-85.7c23.3-23.3 61.1-23.3 84.4 0z"/></svg>