<svg xmlns="http://www.w3.org/2000/svg" viewBox="0 0 640 512"><!--! Font Awesome Pro 6.5.1 by @fontawesome - https://fontawesome.com License - https://fontawesome.com/license (Commercial License) Copyright 2023 Fonticons, Inc. --><path d="M581.1 31.2l2.3 5.9 48 120 3.4 8.4-8.7 2.3-210.7 56-5.5 1.5-3.2-4.7L320 91.7 233.3 220.5l-3.2 4.7-5.5-1.5-210.7-56-8.7-2.3L8.6 157l48-120 2.3-5.9 6.2 .9L320 69.2 574.8 32.1l6.2-.9zM570.9 48.8L333.7 83.4l83 123.4 196.4-52.2L570.9 48.8zM26.8 154.6l196.4 52.2L306.3 83.4 69.1 48.8 26.8 154.6zM560 216.1l16-4.6V416L320 480 64 416V211.6l16 4.6V403.5l232 58V200v-8h16v8V461.5l232-58V216.1z"/></svg>