<svg xmlns="http://www.w3.org/2000/svg" viewBox="0 0 576 512"><!--! Font Awesome Pro 6.5.1 by @fontawesome - https://fontawesome.com License - https://fontawesome.com/license (Commercial License) Copyright 2023 Fonticons, Inc. --><path d="M17.5 176L74.4 48H216V176H17.5zm413 0H232V48H373.6l56.9 128zM16 192H352h80 16V176L384 32H64L0 176V464v16H16 296.2c-4.2-5.1-8.1-10.4-11.8-16H16V192zm416 48a128 128 0 1 1 0 256 128 128 0 1 1 0-256zm0 272a144 144 0 1 0 0-288 144 144 0 1 0 0 288zm75.3-184L496 316.7l-5.7 5.7L416 396.7l-42.3-42.3-5.7-5.7L356.7 360l5.7 5.7 48 48 5.7 5.7 5.7-5.7 80-80 5.7-5.7z"/></svg>