<svg xmlns="http://www.w3.org/2000/svg" viewBox="0 0 512 512"><!--! Font Awesome Pro 6.5.1 by @fontawesome - https://fontawesome.com License - https://fontawesome.com/license (Commercial License) Copyright 2023 Fonticons, Inc. --><path d="M80.4 0H208c40 0 52 24 64 48s24 48 64 48h95.1H448l-5.3 16-64 192H408h8v16h-8H104 96V304h8 27.6L67.6 16 64 0H80.4zM361.8 304l64-192H336c-23.7 0-40.7-7.3-53.5-19.4c-11.6-11-18.7-25.1-24.3-36.5l-.5-1c-6.3-12.5-11.1-21.8-18.2-28.5C233.3 20.7 224.3 16 208 16H83.9l64 288H361.8zM496 240H433.7l5.3-16H496h16v16V496v16H496 16 0V496 240 224H16 81l3.6 16H16V384H496V240zm0 160H16v96H496V400z"/></svg>