<svg xmlns="http://www.w3.org/2000/svg" viewBox="0 0 448 512"><!--! Font Awesome Pro 6.5.1 by @fontawesome - https://fontawesome.com License - https://fontawesome.com/license (Commercial License) Copyright 2023 Fonticons, Inc. --><path d="M17.5 176L74.4 48H188.6L161.7 176H144 17.5zM144 192h16v96 16h16 96 16V288 192h16H432V464H16V192H144zm32 0h96v96H176V192zm110.3-16L259.4 48H373.6l56.9 128H304 286.3zM270 176H178L205 48h3 8 16 8 3L270 176zM256 32H192 64L0 176V464v16H16 432h16V464 176L384 32H256z"/></svg>