<svg xmlns="http://www.w3.org/2000/svg" viewBox="0 0 576 512"><!--! Font Awesome Pro 6.5.1 by @fontawesome - https://fontawesome.com License - https://fontawesome.com/license (Commercial License) Copyright 2023 Fonticons, Inc. --><path d="M416 16V208h16V16 0H416 336 320 256 240 160 144V16 208h16V16h80V96v16h16 64 16V96 16h80zM256 16h64V96H256V16zm64 496H560h16V496 256 240H560 480 464 400 384 320v16h64v80 16h16 64 16V336 256h80V496H320v16zm80-256h64v80H400V256zm-128 0V496H16V256H96v80 16h16 64 16V336 256h80zM112 336V256h64v80H112zm160-96H192 176 112 96 16 0v16V496v16H16 272h16V496 256 240H272z"/></svg>