<svg xmlns="http://www.w3.org/2000/svg" viewBox="0 0 640 512"><!--! Font Awesome Pro 6.5.1 by @fontawesome - https://fontawesome.com License - https://fontawesome.com/license (Commercial License) Copyright 2023 Fonticons, Inc. --><path d="M624 16H272V128H256V16 0h16H624h16V16 496v16H624 384V496H624V16zM549.7 322.3l5.7 5.7L544 339.3l-5.7-5.7L488 283.3V440v8H472v-8V283.3l-50.3 50.3-5.7 5.7L404.7 328l5.7-5.7 64-64 5.7-5.7 5.7 5.7 64 64zM16 176v96H32 48 336h16 16V176H16zM32 288H16 0V272 176 160H16 368h16v16 96 16H368 352V496v16H336 48 32V496 288zm304 0H272v40 8h-8H120h-8v-8V288H48V496H336V288zm-208 0v32H256V288H128z"/></svg>