<svg xmlns="http://www.w3.org/2000/svg" viewBox="0 0 448 512"><!--! Font Awesome Pro 6.5.1 by @fontawesome - https://fontawesome.com License - https://fontawesome.com/license (Commercial License) Copyright 2023 Fonticons, Inc. --><path d="M8 0H0V8 320v3.3l2.3 2.3L32 355.3V384 504v8h8H344h8v-8V387.1l93.9-101.7 2.1-2.3V280 136v-8h-8H384V8 0h-8H8zm8 316.7V16H368V128H264h-8v8 56H115.3L77.7 154.3 72 148.7 60.7 160l5.7 5.7 40 40 2.3 2.3H112 256v72 8h8 72 8V272h-8H272V144h96 6 2 6 50V276.9L338.1 378.6l-2.1 2.3V384 496H48V384 352v-3.3l-2.3-2.3L16 316.7zm124.6 20.8l-6.5-4.6-9.3 13 6.5 4.6L178.2 384l-46.9 33.5-6.5 4.6 9.3 13 6.5-4.6L192 393.8l51.4 36.7 6.5 4.6 9.3-13-6.5-4.6L205.8 384l46.9-33.5 6.5-4.6-9.3-13-6.5 4.6L192 374.2l-51.4-36.7z"/></svg>