<svg xmlns="http://www.w3.org/2000/svg" viewBox="0 0 576 512"><!--! Font Awesome Pro 6.5.1 by @fontawesome - https://fontawesome.com License - https://fontawesome.com/license (Commercial License) Copyright 2023 Fonticons, Inc. --><path d="M96 32h8H224h8V48h-8H112V192v3.3l-2.3 2.3L51.3 256l58.3 58.3 2.3 2.3V320 464H224h8v16h-8H104 96v-8V323.3L34.3 261.7 32 259.3v-6.6l2.3-2.3L96 188.7V40 32zm384 0v8V188.7l61.7 61.7 2.3 2.3v6.6l-2.3 2.3L480 323.3V472v8h-8H352h-8V464h8H464V320v-3.3l2.3-2.3L524.7 256l-58.3-58.3-2.3-2.3V192 48H352h-8V32h8H472h8z"/></svg>