<svg xmlns="http://www.w3.org/2000/svg" viewBox="0 0 640 512"><!--! Font Awesome Pro 6.5.1 by @fontawesome - https://fontawesome.com License - https://fontawesome.com/license (Commercial License) Copyright 2023 Fonticons, Inc. --><path d="M184.5 57.1l-1 6.9-7 0-.5 0c-26.5 0-48 21.5-48 48c0 7.7 1.8 14.9 5 21.3l4.8 9.7L127 144.7C100.4 149 80 172.1 80 200c0 12.3 4 23.6 10.7 32.9l5.9 8.2-9.3 3.9C64.2 254.6 48 277.4 48 304c0 28.8 19 53.2 45.3 61.2l7.7 2.4-2.4 7.7C96.9 380.5 96 386.2 96 392c0 30.9 25.1 56 56 56c5.1 0 10-.7 14.7-1.9l8.6-2.3 1.4 8.7c4 24.7 25.5 43.5 51.3 43.5h52V448v-4V64 16H232c-24.2 0-44.2 17.9-47.5 41.1zM280 512H228c-30.9 0-57-20.6-65.2-48.8c-3.5 .5-7.1 .8-10.8 .8c-39.8 0-72-32.2-72-72c0-4.8 .5-9.5 1.4-14.1C52.4 365.9 32 337.3 32 304c0-29.9 16.4-56 40.7-69.7C67.1 224.1 64 212.4 64 200c0-32.4 21.4-59.8 50.9-68.9c-1.9-6-2.9-12.5-2.9-19.1c0-33.3 25.4-60.7 57.9-63.7C177 20.5 202.1 0 232 0h48 8 8 48c29.9 0 55 20.5 62.1 48.3C438.6 51.3 464 78.7 464 112c0 6.7-1 13.1-2.9 19.1c29.5 9 50.9 36.4 50.9 68.9c0 2.6-.1 5.2-.4 7.8H495.5c.3-2.5 .5-5.1 .5-7.8c0-27.9-20.4-51-47-55.3L438.2 143l4.8-9.7c3.2-6.4 5-13.6 5-21.3c0-26.5-21.5-48-48-48l-.5 0-7 0-1-6.9C388.2 33.9 368.2 16 344 16H296V64 444v4 48h36.6c4.7 6 9.6 11.3 14.4 16H296h-8-8zM479.4 241l.6-.8v1.1l-.6-.2zM400 464v29.4V512s-6.8-3.4-16-10.2c-19-14.1-48-42.7-48-85.8c0-61.9 50.1-112 112-112h48 16V288 256 240h16L628.7 340.7 640 352l-11.3 11.3L528 464H512V448 416 400H496 464c-35.3 0-64 28.7-64 64zm128-64v41.4L617.4 352 528 262.6V304v16H512 448c-53 0-96 43-96 96c0 26.3 13.1 46.4 27.3 60.7c1.6 1.6 3.1 3 4.7 4.4V464c0-44.2 35.8-80 80-80h48 16v16z"/></svg>