<svg xmlns="http://www.w3.org/2000/svg" viewBox="0 0 512 512"><!--! Font Awesome Pro 6.5.1 by @fontawesome - https://fontawesome.com License - https://fontawesome.com/license (Commercial License) Copyright 2023 Fonticons, Inc. --><path d="M80 256V240H64c-26.5 0-48-21.5-48-48c0-54.2 40.2-90.1 94.3-113.3C163.9 55.7 225.7 48 256 48s92.1 7.7 145.7 30.7C455.8 101.9 496 137.8 496 192c0 26.5-21.5 48-48 48H432v16V464H80V256zM448 480V464 272 256c35.3 0 64-28.7 64-64C512 64 320 32 256 32S0 64 0 192c0 35.3 28.7 64 64 64v16V464v16H80 432h16zM261.7 194.3l-5.7-5.7-5.7 5.7-88 88-5.7 5.7 5.7 5.7 88 88 5.7 5.7 5.7-5.7 88-88 5.7-5.7-5.7-5.7-88-88zM256 364.7L179.3 288 256 211.3 332.7 288 256 364.7z"/></svg>