<svg xmlns="http://www.w3.org/2000/svg" viewBox="0 0 640 512"><!--! Font Awesome Pro 6.5.1 by @fontawesome - https://fontawesome.com License - https://fontawesome.com/license (Commercial License) Copyright 2023 Fonticons, Inc. --><path d="M32 32h8H600h8V48h-8H520v96h80 8v16h-8H528 40 32V144h8 80V48H40 32V32zM384 288l0 23c-12-23.2-36.1-39-64-39c-39.8 0-72 32.2-72 72V472v8h-8H144h-8v-8V344c0-39.8-32.2-72-72-72H40 32V256h8H64c48.6 0 88 39.4 88 88V464h80V344c0-48.6 39.4-88 88-88c25.2 0 48 10.6 64 27.6V288zm8-240v96H504V48H392zm-16 96V48H264v96H376zM136 48v96H248V48H136zM528 208c-26.5 0-48 21.5-48 48v64h96V256c0-26.5-21.5-48-48-48zm-64 48c0-35.3 28.7-64 64-64s64 28.7 64 64v64h32 16v16V496v16H624 432 416V496 336 320h16 32V256zm-32 80V496H624V336H592 576 480 464 432z"/></svg>