<svg xmlns="http://www.w3.org/2000/svg" viewBox="0 0 576 512"><!--! Font Awesome Pro 6.5.1 by @fontawesome - https://fontawesome.com License - https://fontawesome.com/license (Commercial License) Copyright 2023 Fonticons, Inc. --><path d="M8 32H0V48H8 88v96H8 0v16H8 568h8V144h-8H488V48h80 8V32h-8H8zM472 48v96H360V48H472zM344 48v96H232V48H344zM216 48v96H104V48H216zM8 256H0v16H8 32c39.8 0 72 32.2 72 72V472v8h8 96 8v-8V344c0-39.8 32.2-72 72-72s72 32.2 72 72V472v8h8 96 8v-8V344c0-39.8 32.2-72 72-72h24 8V256h-8H544c-48.6 0-88 39.4-88 88V464H376V344c0-48.6-39.4-88-88-88s-88 39.4-88 88V464H120V344c0-48.6-39.4-88-88-88H8z"/></svg>