<svg xmlns="http://www.w3.org/2000/svg" viewBox="0 0 640 512"><!--! Font Awesome Pro 6.5.1 by @fontawesome - https://fontawesome.com License - https://fontawesome.com/license (Commercial License) Copyright 2023 Fonticons, Inc. --><path d="M40 32H600h8V48h-8H520v96h80 8v16h-8H40 32V144h8 80V48H40 32V32h8zM504 48H392v96H504V48zM376 48H264v96H376V48zM248 48H136v96H248V48zM40 256H64c48.6 0 88 39.4 88 88V464h80V344c0-48.6 39.4-88 88-88c12.3 0 24 2.5 34.7 7.1c-3.2 4.4-6.3 8.9-9.1 13.6c-7.9-3-16.5-4.7-25.5-4.7c-39.8 0-72 32.2-72 72V472v8h-8H144h-8v-8V344c0-39.8-32.2-72-72-72H40 32V256h8zM624 368a128 128 0 1 0 -256 0 128 128 0 1 0 256 0zm-272 0a144 144 0 1 1 288 0 144 144 0 1 1 -288 0zm156 76H484V420h24v24zm-4-164v8 96 8H488v-8V288v-8h16z"/></svg>