<svg xmlns="http://www.w3.org/2000/svg" viewBox="0 0 576 512"><!--! Font Awesome Pro 6.5.1 by @fontawesome - https://fontawesome.com License - https://fontawesome.com/license (Commercial License) Copyright 2023 Fonticons, Inc. --><path d="M576 192V176 80 64H560 16 0V80v96 16c53 0 96 43 96 96v48l0 0 16 11.5V288c0-56.4-41.7-103.1-96-110.9V80H560v97.1c-54.3 7.8-96 54.4-96 110.9v59.5L480 336V288c0-53 43-96 96-96zM368 272V381.1c5.5 1.2 10.8 1.9 16 1.9V272c0-53-43-96-96-96s-96 43-96 96V383c5.2 0 10.5-.7 16-1.9V272c0-44.2 35.8-80 80-80s80 35.8 80 80zM96.6 395c-.2-.3-.4-.6-.6-.9c-.2 .3-.4 .6-.6 .9c-4.3 6.1-8.5 12.2-13.3 17.9c-4.8 5.8-11.8 13.5-20.2 21.2C44.6 449.8 22.5 464 0 464v16c28.7 0 54.6-17.8 72.6-34.1c10.2-9.2 18.2-18.4 23.4-24.8c5.2 6.4 13.3 15.6 23.4 24.8c18 16.3 43.9 34.1 72.6 34.1s54.6-17.8 72.6-34.1c10.2-9.2 18.2-18.4 23.4-24.8c5.2 6.4 13.3 15.6 23.4 24.8c18 16.3 43.9 34.1 72.6 34.1s54.6-17.8 72.6-34.1c10.2-9.2 18.2-18.4 23.4-24.8c5.2 6.4 13.3 15.6 23.4 24.8c18 16.3 43.9 34.1 72.6 34.1V464c-22.5 0-44.6-14.2-61.8-29.9c-8.5-7.7-15.4-15.4-20.2-21.2c-4.8-5.8-9-11.8-13.3-17.9l-.6-.9-.6 .9c-4.3 6.1-8.5 12.2-13.3 17.9c-4.8 5.8-11.8 13.5-20.2 21.2C428.5 449.8 406.5 464 384 464s-44.6-14.2-61.8-29.9c-8.5-7.7-15.4-15.4-20.2-21.2c-4.8-5.8-9-11.8-13.3-17.9c-.2-.3-.4-.6-.6-.9c-.2 .3-.4 .6-.6 .9c-4.3 6.1-8.5 12.1-13.3 17.9c-4.8 5.8-11.8 13.5-20.2 21.2C236.5 449.8 214.5 464 192 464s-44.6-14.2-61.8-29.9c-8.5-7.7-15.4-15.4-20.2-21.2c-4.8-5.8-9-11.8-13.3-17.9z"/></svg>