<svg xmlns="http://www.w3.org/2000/svg" viewBox="0 0 640 512"><!--! Font Awesome Pro 6.5.1 by @fontawesome - https://fontawesome.com License - https://fontawesome.com/license (Commercial License) Copyright 2023 Fonticons, Inc. --><path d="M40 32H32V48h8 80v96H40 32v16h8H600h8V144h-8H520V48h80 8V32h-8H40zM504 48v96H392V48H504zM376 48v96H264V48H376zM248 48v96H136V48H248zM40 256H32v16h8H64c39.8 0 72 32.2 72 72V472v8h8 96 8v-8V344c0-39.8 32.2-72 72-72c9 0 17.6 1.6 25.5 4.7c2.8-4.7 5.9-9.2 9.1-13.6C344 258.5 332.3 256 320 256c-48.6 0-88 39.4-88 88V464H152V344c0-48.6-39.4-88-88-88H40zm456-16a128 128 0 1 1 0 256 128 128 0 1 1 0-256zm0 272a144 144 0 1 0 0-288 144 144 0 1 0 0 288zm75.3-184L560 316.7l-5.7 5.7L480 396.7l-42.3-42.3-5.7-5.7L420.7 360l5.7 5.7 48 48 5.7 5.7 5.7-5.7 80-80 5.7-5.7z"/></svg>