<svg xmlns="http://www.w3.org/2000/svg" viewBox="0 0 640 512"><!--! Font Awesome Pro 6.5.1 by @fontawesome - https://fontawesome.com License - https://fontawesome.com/license (Commercial License) Copyright 2023 Fonticons, Inc. --><path d="M134.9 13.6l-7.4-13L120.8 14c-23 46-77.5 91.5-117.3 118.4l9 13.3C45.9 123.1 91.3 86.5 120 46.1V256H8 0v16H8 120h16H504h16H632h8V256h-8H520V46.1c28.7 40.4 74.1 77 107.5 99.6l9-13.3C596.7 105.5 542.2 60.1 519.2 14L512.5 .7l-7.4 13C467 80.3 395.8 128 320 128s-147-47.7-185.1-114.4zM504 44.7V256H424V120v-4c31.3-17.5 58.8-42.2 80-71.4zm-96 79.5V256H328V144v-.2c27.9-1.1 55-8.1 80-19.7zm-96 19.7v.2V256H232V124.2c25 11.6 52.1 18.5 80 19.7zM216 116v4V256H136V44.7c21.2 29.2 48.7 53.9 80 71.4zM0 336v16H8h96V504v8h8 96 8v-8V352H424V504v8h8 96 8v-8V352h96 8V336h-8H528h-8v8V496H440V344v-8h-8H208h-8v8V496H120V344v-8h-8H8 0z"/></svg>