<svg xmlns="http://www.w3.org/2000/svg" viewBox="0 0 512 512"><!--! Font Awesome Pro 6.5.1 by @fontawesome - https://fontawesome.com License - https://fontawesome.com/license (Commercial License) Copyright 2023 Fonticons, Inc. --><path d="M128 0h8H376h8V8 96H496h16v16V464v16H496 16 0V464 112 96H16 128V8 0zM368 16H144V96H368V16zM16 112V464H496V112H376 136 16zm277.7 82.3l88 88 5.7 5.7-5.7 5.7-88 88-5.7 5.7L276.7 376l5.7-5.7L356.7 296H136h-8V280h8H356.7l-74.3-74.3-5.7-5.7L288 188.7l5.7 5.7z"/></svg>