<svg xmlns="http://www.w3.org/2000/svg" viewBox="0 0 512 512"><!--! Font Awesome Pro 6.5.1 by @fontawesome - https://fontawesome.com License - https://fontawesome.com/license (Commercial License) Copyright 2023 Fonticons, Inc. --><path d="M128 0h8H376h8V8 96H496h16v16V464v16H496 16 0V464 112 96H16 128V8 0zM368 16H144V96H368V16zM16 112V464H496V112H376 136 16zm208 64h64 8v8 64h64 8v8 64 8h-8H296v64 8h-8H224h-8v-8V328H152h-8v-8V256v-8h8 64V184v-8h8zm8 80v8h-8H160v48h64 8v8 64h48V320v-8h8 64V264H288h-8v-8V192H232v64z"/></svg>