<svg xmlns="http://www.w3.org/2000/svg" viewBox="0 0 512 512"><!--! Font Awesome Pro 6.5.1 by @fontawesome - https://fontawesome.com License - https://fontawesome.com/license (Commercial License) Copyright 2023 Fonticons, Inc. --><path d="M240 64V96h32V64H240zm16 112a80 80 0 1 1 0 160 80 80 0 1 1 0-160zm0 176a96 96 0 1 0 0-192 96 96 0 1 0 0 192zM131.5 108.9l-22.6 22.6 22.6 22.6 22.6-22.6-22.6-22.6zM64 272H96l0-32H64v32zm44.9 108.5l22.6 22.6 22.6-22.6-22.6-22.6-22.6 22.6zM272 416H240v32h32V416zm108.5-58.2l-22.6 22.6 22.6 22.6 22.6-22.6-22.6-22.6zM416 240v32h32V240H416zM357.8 131.5l22.6 22.6 22.6-22.6-22.6-22.6-22.6 22.6z"/></svg>