<svg xmlns="http://www.w3.org/2000/svg" viewBox="0 0 640 512"><!--! Font Awesome Pro 6.5.1 by @fontawesome - https://fontawesome.com License - https://fontawesome.com/license (Commercial License) Copyright 2023 Fonticons, Inc. --><path d="M16 16H240V64h16V16 0H240 16 0V16 240v16H16 128V240H16V16zM384 496v16h16H624h16V496 272 256H624 512v16H624V496H400V448H384v48zm80-384V400H176V112H464zM176 96H160v16V400v16h16H464h16V400 112 96H464 176zm64 80H400V336H240V176zm-16-16v16V336v16h16H400h16V336 176 160H400 240 224z"/></svg>