<svg xmlns="http://www.w3.org/2000/svg" viewBox="0 0 576 512"><!--! Font Awesome Pro 6.5.1 by @fontawesome - https://fontawesome.com License - https://fontawesome.com/license (Commercial License) Copyright 2023 Fonticons, Inc. --><path d="M389.7 290.3L343.3 244 573.7 13.7 562.3 2.3 332 232.7l-46.3-46.3-2.3-2.3H280 264h-7.1l-.9 7L250 239.5 217.3 237c-41.4-3.2-82.2 11.9-111.6 41.3C81.6 302.4 67 334.3 64.4 368c-.3 3.6-.4 7.3-.4 11l0 5H80l7.4 0 24.6 0L93.3 400 0 480v16 16l16 0 181 0c37.8 0 74-15 100.7-41.7c29.4-29.4 44.5-70.2 41.3-111.6L336.5 326l48.5-6.1 7-.9V312 296v-3.3l-2.3-2.3zm-62.6 20.7l-62.1-62.1 6.1-48.9h5.6L376 299.3v5.6l-48.9 6.1zM112 368H80.5c2.6-29.5 15.4-57.3 36.5-78.4c26.1-26.1 62.3-39.5 99-36.6l32.8 2.5 71.6 71.6 2.5 32.8c2.8 36.8-10.6 73-36.6 99c-23.7 23.7-55.8 37-89.4 37L16 496l0-8.6 106.4-91.2L155.3 368 112 368zm288 64a64 64 0 1 1 128 0 64 64 0 1 1 -128 0zm144 0a80 80 0 1 0 -160 0 80 80 0 1 0 160 0z"/></svg>