<svg xmlns="http://www.w3.org/2000/svg" viewBox="0 0 384 512"><!--! Font Awesome Pro 6.5.1 by @fontawesome - https://fontawesome.com License - https://fontawesome.com/license (Commercial License) Copyright 2023 Fonticons, Inc. --><path d="M128 368H112 16 0V352 16 0H16 368h16V16 352v16H368 272 256v16V496v16H240 144 128V496 384 368zm0-16h16v16V496h96V368 352h16H368V272H16v80H128zm240-96V16H272v88 8H256v-8V16H192V88v8H176V88 16H96V120v8H80v-8V16H16V256H368zM176 448a16 16 0 1 1 32 0 16 16 0 1 1 -32 0z"/></svg>