<svg xmlns="http://www.w3.org/2000/svg" viewBox="0 0 640 512"><!--! Font Awesome Pro 6.5.1 by @fontawesome - https://fontawesome.com License - https://fontawesome.com/license (Commercial License) Copyright 2023 Fonticons, Inc. --><path d="M568 296h8V280h-8H480V176v-4.7l61.7-61.7 5.7-5.7L536 92.7l-5.7 5.7L468.7 160H464 314.6l20.3 16H464V278l22.9 18H568zM328 463.8V354l-16-12.6V463.8c-75.8-4.2-136-66.9-136-143.8V296 280 234l-16-12.6V280H72 64v16h8 88v24c0 33.1 10.1 63.9 27.3 89.4l-.9 .9-80 80-5.7 5.7L112 507.3l5.7-5.7L197 422.3c27.8 33.3 68.8 55.2 115 57.5v.2h8 8v-.2c39.9-2 76-18.5 102.9-44.5l-12.7-10c-23.9 22.3-55.4 36.6-90.2 38.5zM400 128h16V112 96c0-53-43-96-96-96c-50.6 0-92 39.1-95.7 88.7L240 101.1V96c0-44.2 35.8-80 80-80s80 35.8 80 80v16H253.8l20.3 16H400zM16.2 5L9.9 0 0 12.5l6.3 5L623.8 507l6.3 5 9.9-12.5-6.3-5L16.2 5z"/></svg>