<svg xmlns="http://www.w3.org/2000/svg" viewBox="0 0 512 512"><!--! Font Awesome Pro 6.5.1 by @fontawesome - https://fontawesome.com License - https://fontawesome.com/license (Commercial License) Copyright 2023 Fonticons, Inc. --><path d="M256 16c-44.2 0-80 35.8-80 80v16H336V96c0-44.2-35.8-80-80-80zM160 96c0-53 43-96 96-96s96 43 96 96v16 16H336 176 160V112 96zM40 92.7l5.7 5.7L107.3 160H112 400h4.7l61.7-61.7 5.7-5.7L483.3 104l-5.7 5.7L416 171.3V176 280h88 8v16h-8H416v24c0 33.1-10.1 63.9-27.3 89.4l.9 .9 80 80 5.7 5.7L464 507.3l-5.7-5.7L379 422.3c-27.8 33.3-68.8 55.2-115 57.5v.2h-8-8v-.2c-46.2-2.3-87.3-24.2-115-57.5L53.7 501.7 48 507.3 36.7 496l5.7-5.7 80-80 .9-.9C106.1 383.9 96 353.1 96 320V296H8 0V280H8 96V176v-4.7L34.3 109.7 28.7 104 40 92.7zM400 320V296 280 176H112V280v16 24c0 76.8 60.2 139.6 136 143.8V232v-8h16v8V463.8c75.8-4.2 136-66.9 136-143.8z"/></svg>