<svg xmlns="http://www.w3.org/2000/svg" viewBox="0 0 384 512"><!--! Font Awesome Pro 6.5.1 by @fontawesome - https://fontawesome.com License - https://fontawesome.com/license (Commercial License) Copyright 2023 Fonticons, Inc. --><path d="M16 16V496H144V384 368h16 64 16v16V496H368V16H16zM160 496h64V384H160V496zm-16 16H16 0V496 16 0H16 368h16V16 496v16H368 240 224 160 144zM80 232h64 8v8 64 8h-8H80 72v-8V240v-8h8zm8 64h48V248H88v48zm144-64h8 64 8v8 64 8h-8H240h-8v-8V240v-8zm16 16v48h48V248H248zM80 104h64 8v8 64 8h-8H80 72v-8V112v-8h8zm8 64h48V120H88v48zm144-64h8 64 8v8 64 8h-8H240h-8v-8V112v-8zm16 16v48h48V120H248z"/></svg>