<svg xmlns="http://www.w3.org/2000/svg" viewBox="0 0 512 512"><!--! Font Awesome Pro 6.5.1 by @fontawesome - https://fontawesome.com License - https://fontawesome.com/license (Commercial License) Copyright 2023 Fonticons, Inc. --><path d="M16 122.5V144H224c-5-6.7-8-15-8-24c0-22.1 17.9-40 40-40s40 17.9 40 40c0 9-3 17.3-8 24H496V122.5L256 17.5 16 122.5zM256 144a24 24 0 1 0 0-48 24 24 0 1 0 0 48zm0 16H16 0V144 112L256 0 512 112v32 16H496 256zM80 192v8V368H184V200v-8h16v8V368H312V200v-8h16v8V368H432V200v-8h16v8V376v8h-8H328 312 200 184 72 64v-8V200v-8H80zM32 432h8H472h8v16h-8H40 32V432zM0 496H8 504h8v16h-8H8 0V496z"/></svg>