<svg xmlns="http://www.w3.org/2000/svg" viewBox="0 0 640 512"><!--! Font Awesome Pro 6.5.1 by @fontawesome - https://fontawesome.com License - https://fontawesome.com/license (Commercial License) Copyright 2023 Fonticons, Inc. --><path d="M368 16V496H240V384 368H224 160 144v16V496H16V16H368zM224 496H160V384h64V496zM16 512H144h16 64 16H368h16V496 16 0H368 16 0V16 496v16H16zM72 232v8 64 8h8 64 8v-8V240v-8h-8H80 72zm16 16h48v48H88V248zm152-16h-8v8 64 8h8 64 8v-8V240v-8h-8H240zm8 64V248h48v48H248zM72 104v8 64 8h8 64 8v-8V112v-8h-8H80 72zm16 16h48v48H88V120zm152-16h-8v8 64 8h8 64 8v-8V112v-8h-8H240zm8 64V120h48v48H248zm376 72c0 35.3-28.7 64-64 64H536V288c0-35.3 28.7-64 64-64h24v16zm-72 80c-10.1 7.6-18.4 17.6-24 29.1c-5.6-11.5-13.9-21.5-24-29.1l16 0h16 16zM448 304H432 416v16 16c0 26.2 12.6 49.4 32 64H432 416v16 16c0 44.2 35.8 80 80 80l24 0h16 24c44.2 0 80-35.8 80-80V416 400H624 608c19.4-14.6 32-37.8 32-64V320 304H624 608c19.4-14.6 32-37.8 32-64V224 208H624 600c-31.7 0-59 18.4-72 45.1c-13-26.7-40.3-45.1-72-45.1H432 416v16 16c0 26.2 12.6 49.4 32 64zm72-16v16l-24 0c-35.3 0-64-28.7-64-64V224h24c35.3 0 64 28.7 64 64zm104 48c0 35.3-28.7 64-64 64H536V384c0-35.3 28.7-64 64-64h24v16zm-72 80c-10.1 7.6-18.4 17.6-24 29.1c-5.6-11.5-13.9-21.5-24-29.1l16 0h16 16zm-32-32v16l-24 0c-35.3 0-64-28.7-64-64V320h24c35.3 0 64 28.7 64 64zm104 32v16c0 35.3-28.7 64-64 64H536V480c0-35.3 28.7-64 64-64h24zM520 496l-24 0c-35.3 0-64-28.7-64-64V416h24c35.3 0 64 28.7 64 64v16zM536 32l-16 0v8V184v8h16v-8V40 32zm72 40V64H592v8 80 8h16v-8V72zM464 64H448v8 80 8h16v-8V72 64z"/></svg>