<svg xmlns="http://www.w3.org/2000/svg" viewBox="0 0 576 512"><!--! Font Awesome Pro 6.5.1 by @fontawesome - https://fontawesome.com License - https://fontawesome.com/license (Commercial License) Copyright 2023 Fonticons, Inc. --><path d="M16 16H368V256c0-19.6 5.9-37.9 16-53.1V16 0H368 16 0V16 496v16H16 144h16 64 16 80l0-16H240V384 368H224 160 144v16V496H16V16zM160 496V384h64V496H160zM80 232H72v8 64 8h8 64 8v-8V240v-8h-8H80zm8 64V248h48v48H88zm144-64v8 64 8h8 64 8v-8V240v-8h-8H240h-8zm16 16h48v48H248V248zM80 104H72v8 64 8h8 64 8v-8V112v-8h-8H80zm8 64V120h48v48H88zm144-64v8 64 8h8 64 8v-8V112v-8h-8H240h-8zm16 16h48v48H248V120zm216 88c26.5 0 48 21.5 48 48v64H416V256c0-26.5 21.5-48 48-48zm-64 48v64H368 352v16V496v16h16H560h16V496 336 320H560 528V256c0-35.3-28.7-64-64-64s-64 28.7-64 64zM368 496V336h32 16 96 16 32V496H368z"/></svg>