<svg xmlns="http://www.w3.org/2000/svg" viewBox="0 0 640 512"><!--! Font Awesome Pro 6.5.1 by @fontawesome - https://fontawesome.com License - https://fontawesome.com/license (Commercial License) Copyright 2023 Fonticons, Inc. --><path d="M16 16H368V395.6L384 359V16 0H368 16 0V16 496v16H16 144h16 64 16 77.1l7-16H240V384 368H224 160 144v16V496H16V16zM160 496V384h64V496H160zM80 232H72v8 64 8h8 64 8v-8V240v-8h-8H80zm8 64V248h48v48H88zm144-64v8 64 8h8 64 8v-8V240v-8h-8H240h-8zm16 16h48v48H248V248zM80 104H72v8 64 8h8 64 8v-8V112v-8h-8H80zm8 64V120h48v48H88zm144-64v8 64 8h8 64 8v-8V112v-8h-8H240h-8zm16 16h48v48H248V120zM408 384l-4.2 9.6-42 96L359 496l-7 16h17.5 7H615.5h7H640l-7-16-2.8-6.4-42-96L584 384H573.5 418.5 408zM615.5 496H598.1 393.9 376.5l7-16 35-80H573.5l35 80 7 16zM432 272a64 64 0 1 1 128 0 64 64 0 1 1 -128 0zm64 80a80 80 0 1 0 0-160 80 80 0 1 0 0 160z"/></svg>