<svg xmlns="http://www.w3.org/2000/svg" viewBox="0 0 640 512"><!--! Font Awesome Pro 6.5.1 by @fontawesome - https://fontawesome.com License - https://fontawesome.com/license (Commercial License) Copyright 2023 Fonticons, Inc. --><path d="M368 16H16V496H144V384 368h16 64 16v16V496h48v16H240 224 160 144 16 0V496 16 0H16 368h16V16 64H368V16zm-80 88v16H256h-8v48h8 32v16H240h-8v-8V112v-8h8 48zm0 128v16H256h-8v48h8 32v16H240h-8v-8V240v-8h8 48zM224 496V384H160V496h64zM72 232h8 64 8v8 64 8h-8H80 72v-8V240v-8zm16 16v48h48V248H88zM72 104h8 64 8v8 64 8h-8H80 72v-8V112v-8zm16 16v48h48V120H88zm248-8V496H624V112H336zM320 96h16H624h16v16V496v16H624 336 320V496 112 96zm64 112a16 16 0 1 1 32 0 16 16 0 1 1 -32 0zm16 80a16 16 0 1 1 0 32 16 16 0 1 1 0-32zM384 400a16 16 0 1 1 32 0 16 16 0 1 1 -32 0zm72-200H576h8v16h-8H456h-8V200h8zm0 96H576h8v16h-8H456h-8V296h8zm0 96H576h8v16h-8H456h-8V392h8z"/></svg>