<svg xmlns="http://www.w3.org/2000/svg" viewBox="0 0 640 512"><!--! Font Awesome Pro 6.5.1 by @fontawesome - https://fontawesome.com License - https://fontawesome.com/license (Commercial License) Copyright 2023 Fonticons, Inc. --><path d="M16 16H368V247.2c5-5.3 10.4-10.3 16-15V16 0H368 16 0V16 496v16H16 144h16 64 16H368h16v-8.2c-5.6-4.7-11-9.7-16-15V496H240V384 368H224 160 144v16V496H16V16zM160 496V384h64V496H160zM80 232H72v8 64 8h8 64 8v-8V240v-8h-8H80zm8 64V248h48v48H88zm144-64v8 64 8h8 64 8v-8V240v-8h-8H240h-8zm16 16h48v48H248V248zM80 104H72v8 64 8h8 64 8v-8V112v-8h-8H80zm8 64V120h48v48H88zm144-64v8 64 8h8 64 8v-8V112v-8h-8H240h-8zm16 16h48v48H248V120zM496 240a128 128 0 1 1 0 256 128 128 0 1 1 0-256zm0 272a144 144 0 1 0 0-288 144 144 0 1 0 0 288zm8-219.3L492.7 304l5.7 5.7L548.7 360H424h-8v16h8H548.7l-50.3 50.3-5.7 5.7L504 443.3l5.7-5.7 64-64 5.7-5.7-5.7-5.7-64-64-5.7-5.7z"/></svg>