<svg xmlns="http://www.w3.org/2000/svg" viewBox="0 0 512 512"><!--! Font Awesome Pro 6.5.1 by @fontawesome - https://fontawesome.com License - https://fontawesome.com/license (Commercial License) Copyright 2023 Fonticons, Inc. --><path d="M208 16V496H496V16H208zM192 0h16H496h16V16 496v16H496 208 192V496 16 0zM160 144H16V496H160v16H8 0v-8V136v-8H8 160v16zM64 320h8 64 8v8 64 8h-8H72 64v-8V328v-8zm16 16v48h48V336H80zM72 192h64 8v8 64 8h-8H72 64v-8V200v-8h8zm8 64h48V208H80v48zM368 400v-8V328v-8h8 64 8v8 64 8h-8H376h-8zm16-16h48V336H384v48zm-8-112h-8v-8V200v-8h8 64 8v8 64 8h-8H376zm8-64v48h48V208H384zM256 400v-8V328v-8h8 64 8v8 64 8h-8H264h-8zm16-16h48V336H272v48zM264 72h64 8v8 64 8h-8H264h-8v-8V80 72h8zm8 64h48V88H272v48zM256 272v-8V200v-8h8 64 8v8 64 8h-8H264h-8zm16-16h48V208H272v48zM376 72h64 8v8 64 8h-8H376h-8v-8V80 72h8zm8 64h48V88H384v48z"/></svg>