<svg xmlns="http://www.w3.org/2000/svg" viewBox="0 0 576 512"><!--! Font Awesome Pro 6.5.1 by @fontawesome - https://fontawesome.com License - https://fontawesome.com/license (Commercial License) Copyright 2023 Fonticons, Inc. --><path d="M368 16H16V496H144V384 368h16 64 16v16V496H342.2c6.3 5.7 12.9 11 19.9 16H240 224 160 144 16 0V496 16 0H16 368h16V16 208.3l-16 6.2V16zM256.5 312H240h-8v-8V240v-8h8 16v16h-8v48h8v8c0 .9 .1 1.8 .2 2.7c.1 1.8 .2 3.6 .3 5.3zM224 496V384H160V496h64zM72 232h8 64 8v8 64 8h-8H80 72v-8V240v-8zm16 16v48h48V248H88zM72 104h8 64 8v8 64 8h-8H80 72v-8V112v-8zm16 16v48h48V120H88zm152-16h64 8v8 64 8h-8H240h-8v-8V112v-8h8zm8 64h48V120H248v48zM560 290.7L440 244.3V491.9c79.1-33.5 120-119 120-195.9v-5.3zm-256 0V296c0 76.9 40.9 162.4 120 195.9V244.3L304 290.7zM432 512c-96-32-144-130.2-144-216V279.8L432 224l144 55.8V296c0 85.8-48 184-144 216z"/></svg>