<svg xmlns="http://www.w3.org/2000/svg" viewBox="0 0 512 512"><!--! Font Awesome Pro 6.5.1 by @fontawesome - https://fontawesome.com License - https://fontawesome.com/license (Commercial License) Copyright 2023 Fonticons, Inc. --><path d="M446.8 0H444l-2.2 1.8L362.1 66c-39.9 32.2-87.7 52.6-138.1 59.5v16.1c54-6.9 105.4-28.7 148.1-63.1L448 17.3V462.7l-75.9-61.1C329.4 367.1 278 345.3 224 338.4v16.1c50.4 6.8 98.2 27.3 138.1 59.5l79.7 64.2L444 480h2.8H456h8v-8V313.3c28.3-12.3 48-40.5 48-73.3s-19.7-61-48-73.3V8 0h-8-9.2zM192 416V352.1v-16V143.9v-16c-1.9 0-3.7 .1-5.6 .1h-2.3l-.1 0-.1 0H160L8 128H0v8V344v8H8 64V504v8h8H184h8v-8V416zM160 144h16V336H160 16V144l144 0zM464 295.4V184.6c19.1 11.1 32 31.7 32 55.4s-12.9 44.4-32 55.4zM176 352V496H80V352h80 16z"/></svg>