<svg xmlns="http://www.w3.org/2000/svg" viewBox="0 0 640 512"><!--! Font Awesome Pro 6.5.1 by @fontawesome - https://fontawesome.com License - https://fontawesome.com/license (Commercial License) Copyright 2023 Fonticons, Inc. --><path d="M40 32H32v8V192v8 24 96h1.6C12.9 340.3 0 368.7 0 400c0 61.9 50.1 112 112 112H368c61.9 0 112-50.1 112-112c0-31.3-12.9-59.7-33.6-80H448h88v80 2.9l1.9 2.2 88 104 12.2-10.3L552 397.1V242.9l86.1-101.8-12.2-10.3-88 104-1.9 2.2V240v64H448V200v-8h-8H360V128v-8H344v8 64H284.7L199 36.1 196.7 32H192 40zM432 304v4.1c-18.1-12.7-40.2-20.1-64-20.1H112c-23.8 0-45.9 7.4-64 20.1V224 208H279.9h.3H344h16 72v96zM266.5 192H48V48H187.3l79.2 144zM112 304H368c53 0 96 43 96 96s-43 96-96 96H112c-53 0-96-43-96-96s43-96 96-96zM96 416a16 16 0 1 0 0-32 16 16 0 1 0 0 32zm304-16a16 16 0 1 0 -32 0 16 16 0 1 0 32 0zM288 416a16 16 0 1 0 0-32 16 16 0 1 0 0 32zm-80-16a16 16 0 1 0 -32 0 16 16 0 1 0 32 0z"/></svg>