<svg xmlns="http://www.w3.org/2000/svg" viewBox="0 0 576 512"><!--! Font Awesome Pro 6.5.1 by @fontawesome - https://fontawesome.com License - https://fontawesome.com/license (Commercial License) Copyright 2023 Fonticons, Inc. --><path d="M280 0h16V48h80 6.7l1.2 6.6 60.3 339c-5 3.3-9.7 6.2-14.7 8.8L412 304H164l-17.5 98.4c-5-2.6-9.7-5.5-14.7-8.8l60.3-339 1.2-6.6H200h80V0zM166.9 288H409.1L369.3 64H206.7L166.9 288zM96.6 427c4.3 6.1 8.5 12.2 13.3 17.9c4.8 5.8 11.8 13.5 20.2 21.2C147.4 481.8 169.5 496 192 496s44.6-14.2 61.8-29.9c8.5-7.7 15.4-15.4 20.2-21.2c4.8-5.8 9-11.8 13.3-17.9l.6-.9c.2 .3 .4 .6 .6 .9c4.3 6.1 8.5 12.2 13.3 17.9c4.8 5.8 11.8 13.5 20.2 21.2C339.4 481.8 361.5 496 384 496s44.6-14.2 61.8-29.9c8.5-7.7 15.4-15.4 20.2-21.2c4.8-5.8 9-11.8 13.3-17.9l.6-.9 .6 .9c4.3 6.1 8.5 12.2 13.3 17.9c4.8 5.8 11.8 13.5 20.2 21.2C531.4 481.8 553.5 496 576 496v16c-28.7 0-54.6-17.8-72.6-34.1c-10.2-9.2-18.2-18.4-23.4-24.8c-5.2 6.4-13.3 15.6-23.4 24.8c-18 16.3-43.9 34.1-72.6 34.1s-54.6-17.8-72.6-34.1c-10.2-9.2-18.2-18.4-23.4-24.8c-5.2 6.4-13.3 15.6-23.4 24.8c-18 16.3-43.9 34.1-72.6 34.1s-54.6-17.8-72.6-34.1c-10.2-9.2-18.2-18.4-23.4-24.8c-5.2 6.4-13.2 15.6-23.4 24.8C54.6 494.2 28.7 512 0 512V496c22.5 0 44.6-14.2 61.8-29.9c8.5-7.7 15.4-15.4 20.2-21.2c4.8-5.8 9-11.8 13.3-17.9l.6-.9 .6 .9z"/></svg>