<svg xmlns="http://www.w3.org/2000/svg" viewBox="0 0 512 512"><!--! Font Awesome Pro 6.5.1 by @fontawesome - https://fontawesome.com License - https://fontawesome.com/license (Commercial License) Copyright 2023 Fonticons, Inc. --><path d="M48 224H32V208 192s16-160 224-160s224 160 224 160v16 16H464 48zm416-16V193l-.1-.5c-.1-.9-.4-2.4-.7-4.3c-.7-3.8-2-9.5-4.2-16.3c-4.3-13.7-12.1-32-25.8-50.2C406.4 85.8 355.2 48 256 48s-150.4 37.8-177.2 73.6C65.1 139.8 57.3 158.1 53 171.8c-2.2 6.8-3.5 12.5-4.2 16.3c-.4 1.9-.6 3.4-.7 4.3L48 193v15H464zM47.9 193.6s0 0 0 0l0 0zM480 272H32v64H480V272zM16 256H32 480h16v16 64 16H480 32 16V336 272 256zM464 400H48v64H464V400zM32 384H48 464h16v16 64 16H464 48 32V464 400 384zM144 112a16 16 0 1 1 0 32 16 16 0 1 1 0-32zm208 16a16 16 0 1 1 32 0 16 16 0 1 1 -32 0zM256 80a16 16 0 1 1 0 32 16 16 0 1 1 0-32z"/></svg>