<svg xmlns="http://www.w3.org/2000/svg" viewBox="0 0 512 512"><!--! Font Awesome Pro 6.5.1 by @fontawesome - https://fontawesome.com License - https://fontawesome.com/license (Commercial License) Copyright 2023 Fonticons, Inc. --><path d="M33.3 208C32 218 32 224 32 224H48 464h16s0-6-1.3-16C472.9 161.9 440.2 32 256 32S39.1 161.9 33.3 208zm429.4 0H49.4c.4-3.3 1-6.9 1.8-10.9c3.3-16.8 9.8-39 22.6-61C98.9 93 149.6 48 256 48s157.1 45 182.2 88.1c12.9 22 19.4 44.2 22.6 61c.8 4 1.4 7.7 1.8 10.9zM48 400H464v64H48V400zm0-16H32v16 64 16H48 464h16V464 400 384H464 48zm96-240a16 16 0 1 0 0-32 16 16 0 1 0 0 32zm240-16a16 16 0 1 0 -32 0 16 16 0 1 0 32 0zM256 112a16 16 0 1 0 0-32 16 16 0 1 0 0 32zm-8 160H392l-72 48-72-48zm-28.8 0l92 61.3 4 2.7 4.8 3.2 4.8-3.2 4-2.7 92-61.3H448h32v64H382.5l-24 16H480h16V336 272 256H480 448 416 224 192 32 16v16 64 16H32 281.5l-24-16H32V272H192h27.2z"/></svg>