<svg xmlns="http://www.w3.org/2000/svg" viewBox="0 0 640 512"><!--! Font Awesome Pro 6.5.1 by @fontawesome - https://fontawesome.com License - https://fontawesome.com/license (Commercial License) Copyright 2023 Fonticons, Inc. --><path d="M217.8 0H224h56 8V16h-8H230.2l-28 112H376h8v16h-8H8 0V128H8 185.8L216.2 6.1 217.8 0zM64 512L36 176H52.1L78.7 496H272v8.2c0 2.7 .3 5.3 .8 7.8H64zM304 303.8s32-104 160-104s160 104 160 104v32h16v16 64 16H624v72c0 4.4-3.6 8-8 8H312c-4.4 0-8-3.6-8-8v-72H288v-16-64-16h16v-32zm304 2.7c0-.1-.1-.2-.1-.3c-.1-.3-.2-.6-.4-1c-1-2.4-2.5-6-4.7-10.4c-4.5-8.8-11.7-20.5-22.5-32.2C558.9 239.6 523 215.8 464 215.8s-94.9 23.7-116.2 46.9c-10.8 11.7-18 23.4-22.5 32.2c-2.2 4.4-3.8 7.9-4.7 10.4c-.2 .5-.4 .9-.5 1.3v29.3H608V306.5zM304 415.8h8H616h8v-64H608 320 304v64zm16 16v64H608v-64H320zm74-168a10 10 0 1 1 -20 0 10 10 0 1 1 20 0zm70-6a10 10 0 1 1 0-20 10 10 0 1 1 0 20zm90 6a10 10 0 1 1 -20 0 10 10 0 1 1 20 0z"/></svg>