<svg xmlns="http://www.w3.org/2000/svg" viewBox="0 0 640 512"><!--! Font Awesome Pro 6.5.1 by @fontawesome - https://fontawesome.com License - https://fontawesome.com/license (Commercial License) Copyright 2023 Fonticons, Inc. --><path d="M155 8.6L144 4.2V16 272h16V27.8l64 25.6V272h16V48 42.6l-5-2-80-32zM305.6 200.2L335.8 57.7l2.5-11.9-11.9 2.4L272 59V75.4l45.7-9.1L282.1 233.7l19.7-28.1 3.8-5.4zm44.9-17.4c5.6-2.6 11.6-5.1 17.8-7.4l15.6-77.9 1.6-7.8-15.7-3.1-1.6 7.8-17.7 88.4zM256 304H112L64 224H16.4 0l3.6 16L64 512H256V496H76.8L19.9 240h35l43.3 72.2 4.7 7.8H112 256V304zM35.4 192L15.8 94.4l-1.6-7.8L-1.4 89.7 .2 97.6 19 192H35.4zm67 42.4L72.8 52.5 112 32.9V15.1L60.4 40.8l-5.3 2.6 .9 5.8 25.1 155 1 1.4 20.1 28.7zM464 199.8c-128 0-160 104-160 104v32H288v16 64 16h16v72c0 4.4 3.6 8 8 8H616c4.4 0 8-3.6 8-8v-72h16v-16-64-16H624v-32s-32-104-160-104zm144 136H320V306.5c.1-.4 .3-.8 .5-1.3c1-2.4 2.5-6 4.7-10.4c4.5-8.8 11.7-20.5 22.5-32.2c21.3-23.1 57.2-46.9 116.2-46.9s94.9 23.7 116.2 46.9c10.8 11.7 18 23.4 22.5 32.2c2.2 4.4 3.8 7.9 4.7 10.4c.2 .5 .4 .9 .5 1.3v29.3zm-304 16h16H608h16v64h-8H312h-8v-64zm16 144v-64H608v64H320zm64-242a10 10 0 1 0 0 20 10 10 0 1 0 0-20zm70-6a10 10 0 1 0 20 0 10 10 0 1 0 -20 0zm90 6a10 10 0 1 0 0 20 10 10 0 1 0 0-20z"/></svg>