<svg xmlns="http://www.w3.org/2000/svg" viewBox="0 0 448 512"><!--! Font Awesome Pro 6.5.1 by @fontawesome - https://fontawesome.com License - https://fontawesome.com/license (Commercial License) Copyright 2023 Fonticons, Inc. --><path d="M16 96V83.7C22.6 73.4 40.3 57 72.7 42.9C106.6 28.1 156 16 224 16c142.7 0 194.5 45.9 208 67.7L432 96H16zm0 16H432V256H16V112zm0 160H432l0 160-16 0H400 336 320l-13.7 0L128 432H112 48 32l-16 0V272zM416 448l24 0h8v-8V81.5 79.4l-1-1.8C431.3 49.6 373.6 0 224 0C154.1 0 102.5 12.4 66.3 28.2C30.3 43.9 9.1 63.3 1 77.6L0 79.4v2.1V440v8H8l24 0v48 16H48h64 16V496 448l178.3 0 13.7 0v48 16h16 64 16V496 448zm-16 0v48H336V448h64zM48 448h64v48H48V448zm48-56a40 40 0 1 0 0-80 40 40 0 1 0 0 80zM72 352a24 24 0 1 1 48 0 24 24 0 1 1 -48 0zm320 0a40 40 0 1 0 -80 0 40 40 0 1 0 80 0zm-40-24a24 24 0 1 1 0 48 24 24 0 1 1 0-48z"/></svg>