<svg xmlns="http://www.w3.org/2000/svg" viewBox="0 0 512 512"><!--! Font Awesome Pro 6.5.1 by @fontawesome - https://fontawesome.com License - https://fontawesome.com/license (Commercial License) Copyright 2023 Fonticons, Inc. --><path d="M40 240H64V70.6 68.6l1-1.8c7-12.5 25.4-29.1 56.1-42.6C152.2 10.6 196.4 0 256 0C383.7 0 433.3 42.3 447 66.7l1 1.8v2.1V240h24 8v8V440v8h-8H448v48 16H432 368 352V496 448H160v48 16H144 80 64V496 448H40 32v-8V248v-8h8zM352 432h16 64 16 16V256H264 248 48V432H64 80h64 16H352zm16 16v48h64V448H368zM80 448v48h64V448H80zM432 112H264V240H432V112zM80 240H248V112H80V240zM248 96h16H432V72.8C420.6 54.7 376.7 16 256 16c-57.8 0-99.7 10.3-128.4 22.8C100.4 50.7 85.6 64.3 80 72.9V96H248zM88 344a40 40 0 1 1 80 0 40 40 0 1 1 -80 0zm40 24a24 24 0 1 0 0-48 24 24 0 1 0 0 48zm216-24a40 40 0 1 1 80 0 40 40 0 1 1 -80 0zm40 24a24 24 0 1 0 0-48 24 24 0 1 0 0 48zM192 48H320h8V64h-8H192h-8V48h8zM0 96H8 32h8v16H32 16v96H32h8v16H32 8 0v-8V104 96zm504 0h8v8V216v8h-8H480h-8V208h8 16V112H480h-8V96h8 24z"/></svg>