<svg xmlns="http://www.w3.org/2000/svg" viewBox="0 0 576 512"><!--! Font Awesome Pro 6.5.1 by @fontawesome - https://fontawesome.com License - https://fontawesome.com/license (Commercial License) Copyright 2023 Fonticons, Inc. --><path d="M80 83.7V96H496l0-12.3C482.5 61.9 430.7 16 288 16c-68 0-117.4 12.1-151.3 26.9C104.3 57 86.6 73.4 80 83.7zM80 256H280V112H80V256zm216 0H496V112H296V256zM80 432l16 0h16 64 16l178.3 0 13.7 0h16 64 16l16 0 0-160H80V432zm304 16l-13.7 0L192 448v48 16H176 112 96V496 448l-24 0H64v-8V81.5 79.4l1-1.8c8-14.4 29.3-33.7 65.2-49.4C166.5 12.4 218.1 0 288 0C437.6 0 495.3 49.6 511 77.6l1 1.8v2.1V440v8h-8l-24 0v48 16H464 400 384V496 448zm80 0H400v48h64V448zm-352 0v48h64V448H112zm8-96a40 40 0 1 1 80 0 40 40 0 1 1 -80 0zm40 24a24 24 0 1 0 0-48 24 24 0 1 0 0 48zm256-64a40 40 0 1 1 0 80 40 40 0 1 1 0-80zm24 40a24 24 0 1 0 -48 0 24 24 0 1 0 48 0zM224 48H352h8V64h-8H224h-8V48h8zM0 112H8 32h8v16H32 16V256H32h8v16H32 8 0v-8V120v-8zm568 0h8v8V264v8h-8H544h-8V256h8 16V128H544h-8V112h8 24z"/></svg>