<svg xmlns="http://www.w3.org/2000/svg" viewBox="0 0 640 512"><!--! Font Awesome Pro 6.5.1 by @fontawesome - https://fontawesome.com License - https://fontawesome.com/license (Commercial License) Copyright 2023 Fonticons, Inc. --><path d="M136 0h-8V8 96H16 0v16V264 464v16H16 360.2c-4.2-5.1-8.1-10.4-11.8-16H16V272H176v64 16h16H320.7c.5-5.4 1.2-10.7 2.2-16H192V272H348.5c3.6-5.6 7.6-10.9 11.8-16H352 192 176 16V112H136 376 496v80c5.4 0 10.7 .2 16 .7V112 96H496 384V8 0h-8H136zM368 96H144V16H368V96zM496 240a128 128 0 1 1 0 256 128 128 0 1 1 0-256zm0 272a144 144 0 1 0 0-288 144 144 0 1 0 0 288zm8-224H488v8 72 8h8 56 8V360h-8H504V296v-8z"/></svg>