<svg xmlns="http://www.w3.org/2000/svg" viewBox="0 0 512 512"><!--! Font Awesome Pro 6.5.1 by @fontawesome - https://fontawesome.com License - https://fontawesome.com/license (Commercial License) Copyright 2023 Fonticons, Inc. --><path d="M16 240H32 48 176h16H320h16H464h16 16V184.4L256 19.4 16 184.4V240zm16 16H16 0V240 176L256 0 368 77V40 32h8 96 8v8V154l32 22v64 16H496 480v48 16 48 16 48 16 48 16H464 336 320V496 448 432 384 368 320 304 256H192v48 16 48 16 48 16 48 16H176 48 32V496 448 432 384 368 320 304 256zm144 0H48v48H176V256zm160 0v48H464V256H336zM464 143V48H384V88l80 55zM256 120a24 24 0 1 0 0 48 24 24 0 1 0 0-48zm40 24a40 40 0 1 1 -80 0 40 40 0 1 1 80 0zM176 320H48v48H176V320zm0 64H48v48H176V384zM48 496H176V448H48v48zM464 320H336v48H464V320zm0 64H336v48H464V384zM336 496H464V448H336v48z"/></svg>