<svg xmlns="http://www.w3.org/2000/svg" viewBox="0 0 512 512"><!--! Font Awesome Pro 6.5.1 by @fontawesome - https://fontawesome.com License - https://fontawesome.com/license (Commercial License) Copyright 2023 Fonticons, Inc. --><path d="M272 32a16 16 0 1 1 32 0 16 16 0 1 1 -32 0zm48 0a32 32 0 1 0 -64 0 32 32 0 1 0 64 0zM192 48a16 16 0 1 1 0 32 16 16 0 1 1 0-32zm0 48a32 32 0 1 0 0-64 32 32 0 1 0 0 64zM464 240V496H48V240H248h16H464zm0-16H264V126.3L497.8 71.8l7.8-1.8L502 54.4l-7.8 1.8-240 56-240 56L6.4 170 10 185.6l7.8-1.8L248 130.1V224H48 32v16V496v16H48 464h16V496 240 224H464zM96 384V288h96v96H96zm112 0V288h96v96H208zm112 0V288h96v96H320zM80 272v16 96 16H96 416h16V384 288 272H416 96 80z"/></svg>