<svg xmlns="http://www.w3.org/2000/svg" viewBox="0 0 512 512"><!--! Font Awesome Pro 6.5.1 by @fontawesome - https://fontawesome.com License - https://fontawesome.com/license (Commercial License) Copyright 2023 Fonticons, Inc. --><path d="M336 496V448 432 368 352 96c0-44.2-35.8-80-80-80s-80 35.8-80 80V224v16 64 16V496H336zm16-128v64H464h32V400 272 240H432v32 80 16H416 352zm0 80v48 16H336 176 160V496 320H48 16 0V304 272 144 112 96H16 80 96v16 32 64 16h16 48V96c0-53 43-96 96-96s96 43 96 96V352h48 16V336 272 240 224h16 64 16v16 32V400v32 16H496 464 352zM160 240H96 80V224 144 112H16v32V272v32H48 160V240zm64-96a16 16 0 1 1 32 0 16 16 0 1 1 -32 0zm48 208a16 16 0 1 1 0 32 16 16 0 1 1 0-32z"/></svg>