<svg xmlns="http://www.w3.org/2000/svg" viewBox="0 0 448 512"><!--! Font Awesome Pro 6.5.1 by @fontawesome - https://fontawesome.com License - https://fontawesome.com/license (Commercial License) Copyright 2023 Fonticons, Inc. --><path d="M70.4 60.8C66.2 66.3 64 73.1 64 80c0 17.7 14.3 32 32 32s32-14.3 32-32c0-6.9-2.2-13.7-6.4-19.2L96 26.7 70.4 60.8zM57.6 51.2L86 13.3 96 0l10 13.3 28.4 37.9c6.2 8.3 9.6 18.4 9.6 28.8c0 26.5-21.5 48-48 48s-48-21.5-48-48c0-10.4 3.4-20.5 9.6-28.8zm140.8 9.6C194.2 66.3 192 73.1 192 80c0 17.7 14.3 32 32 32s32-14.3 32-32c0-6.9-2.2-13.7-6.4-19.2L224 26.7 198.4 60.8zm-12.8-9.6L214 13.3 224 0l10 13.3 28.4 37.9c6.2 8.3 9.6 18.4 9.6 28.8c0 26.5-21.5 48-48 48s-48-21.5-48-48c0-10.4 3.4-20.5 9.6-28.8zM352 26.7L326.4 60.8C322.2 66.3 320 73.1 320 80c0 17.7 14.3 32 32 32s32-14.3 32-32c0-6.9-2.2-13.7-6.4-19.2L352 26.7zM342 13.3L352 0l10 13.3 28.4 37.9c6.2 8.3 9.6 18.4 9.6 28.8c0 26.5-21.5 48-48 48s-48-21.5-48-48c0-10.4 3.4-20.5 9.6-28.8L342 13.3zM16 381.9l68.9-29.3 3.2-1.4 3.2 1.4 68.6 30.5 60.6-30.3 3.6-1.8 3.6 1.8 60.6 30.3 68.6-30.5 3.2-1.4 3.2 1.4L432 381.9V240H360v24 8H344v-8V240H232v24 8H216v-8V240H104v24 8H88v-8V240H16V381.9zm0 17.4V496H432V399.3l-71.9-30.6-68.8 30.6-3.4 1.5-3.4-1.7L224 368.9l-60.4 30.2-3.4 1.7-3.4-1.5L87.9 368.7 16 399.3zM16 224H88V168v-8h16v8 56H216V168v-8h16v8 56H344V168v-8h16v8 56h72 16v16V496v16H432 16 0V496 240 224H16z"/></svg>