<svg xmlns="http://www.w3.org/2000/svg" viewBox="0 0 384 512"><!--! Font Awesome Pro 6.5.1 by @fontawesome - https://fontawesome.com License - https://fontawesome.com/license (Commercial License) Copyright 2023 Fonticons, Inc. --><path d="M16 16V496H368V16H16zM0 0H16 368h16V16 496v16H368 16 0V496 16 0zM80 80v64H304V80H80zM64 64H80 304h16V80v64 16H304 80 64V144 80 64zm48 144H80v32h32V208zM80 192h32 16v16 32 16H112 80 64V240 208 192H80zm0 112v32h32V304H80zM64 288H80h32 16v16 32 16H112 80 64V336 304 288zM208 400H80v32H208V400zM80 384H208h16v16 32 16H208 80 64V432 400 384H80zm96-176v32h32V208H176zm-16-16h16 32 16v16 32 16H208 176 160V240 208 192zm48 112H176v32h32V304zm-32-16h32 16v16 32 16H208 176 160V336 304 288h16zm96-80v32h32V208H272zm-16-16h16 32 16v16 32 16H304 272 256V240 208 192zm48 112H272v32h32V304zm-32-16h32 16v16 32 16H304 272 256V336 304 288h16zm0 112v32h32V400H272zm-16-16h16 32 16v16 32 16H304 272 256V432 400 384z"/></svg>