<svg xmlns="http://www.w3.org/2000/svg" viewBox="0 0 512 512"><!--! Font Awesome Pro 6.5.1 by @fontawesome - https://fontawesome.com License - https://fontawesome.com/license (Commercial License) Copyright 2023 Fonticons, Inc. --><path d="M264 0V8 248H504h8v16h-8H264V504v8H248v-8V264H8 0V248H8 248V8 0h16zM408 48v8 48h48 8 8 8v16h-8-8-8H408v48 8 8 8H392v-8-8-8V120H344h-8-8-8V104h8 8 8 48V56 48 40 32h16v8 8zM56.4 333.1l5.7 5.7L112 388.7l49.9-49.9 5.7-5.7 11.3 11.3-5.7 5.7L123.3 400l49.9 49.9 5.7 5.7-11.3 11.3-5.7-5.7L112 411.3 62.1 461.3l-5.7 5.7L45.1 455.6l5.7-5.7L100.7 400 50.7 350.1l-5.7-5.7 11.3-11.3zM40 104H184h8v16h-8H40 32V104h8zM328 360H472h8v16h-8H328h-8V360h8zm0 64H472h8v16h-8H328h-8V424h8z"/></svg>