<svg xmlns="http://www.w3.org/2000/svg" viewBox="0 0 448 512"><!--! Font Awesome Pro 6.5.1 by @fontawesome - https://fontawesome.com License - https://fontawesome.com/license (Commercial License) Copyright 2023 Fonticons, Inc. --><path d="M128 8V0H112V8 64H16 0V80v96 16V496v16H16 432h16V496 192 176 80 64H432 336V8 0H320V8 64H128V8zM16 192H432V496H16V192zM112 80v40 8h16v-8V80H320v40 8h16v-8V80h96v96H16V80h96zM231.2 236.5L224 221.9l-7.2 14.5-31.1 62.9-69.4 10.1-16 2.3 11.6 11.3 50.2 49-11.9 69.2-2.7 16 14.3-7.5L224 417l62.1 32.7 14.3 7.5-2.7-16-11.9-69.2 50.2-49 11.6-11.3-16-2.3-69.4-10.1-31.1-62.9zm-32.9 73.8L224 258.1l25.7 52.2 1.9 3.8 4.2 .6 57.6 8.4-41.7 40.6-3 2.9 .7 4.1 9.8 57.3-51.5-27.1-3.7-2-3.7 2L168.8 428l9.8-57.3 .7-4.1-3-2.9L134.7 323l57.6-8.4 4.2-.6 1.9-3.8z"/></svg>