<svg xmlns="http://www.w3.org/2000/svg" viewBox="0 0 448 512"><!--! Font Awesome Pro 6.5.1 by @fontawesome - https://fontawesome.com License - https://fontawesome.com/license (Commercial License) Copyright 2023 Fonticons, Inc. --><path d="M128 8V0H112V8 64H16 0V80v96 16V496v16H16 432h16V496 192 176 80 64H432 336V8 0H320V8 64H128V8zM16 192H432V496H16V192zM112 80v40 8h16v-8V80H320v40 8h16v-8V80h96v96H16V80h96zM216.3 265.2c-11.5-11-26.8-17.2-42.7-17.2h-2.4c-32.7 0-59.2 26.5-59.2 59.2c0 16.1 6.6 31.5 18.2 42.7l82.8 79.6L224 440.1l11.1-10.7 82.8-79.6c11.6-11.2 18.2-26.6 18.2-42.7c0-32.7-26.5-59.2-59.2-59.2h-2.4c-15.9 0-31.2 6.2-42.7 17.2l-7.7 7.4-7.7-7.4zm-3.4 18.9L224 294.8l11.1-10.7 7.7-7.4c8.5-8.2 19.8-12.7 31.6-12.7h2.4c23.9 0 43.2 19.3 43.2 43.2c0 11.7-4.8 23-13.2 31.1L224 417.9l-82.8-79.6c-8.5-8.1-13.2-19.4-13.2-31.1c0-23.9 19.3-43.2 43.2-43.2h2.4c11.8 0 23.1 4.6 31.6 12.7l7.7 7.4z"/></svg>