<svg xmlns="http://www.w3.org/2000/svg" viewBox="0 0 576 512"><!--! Font Awesome Pro 6.5.1 by @fontawesome - https://fontawesome.com License - https://fontawesome.com/license (Commercial License) Copyright 2023 Fonticons, Inc. --><path d="M128 0V8 64H320V8 0h16V8 64h96 16V80v96 16 .7c-5.3-.5-10.6-.7-16-.7H16V496H311.2c6.1 5.8 12.7 11.1 19.6 16H16 0V496 192 176 80 64H16h96V8 0h16zM112 120V80H16v96H432V80H336v40 8H320v-8V80H128v40 8H112v-8zM432 496a128 128 0 1 0 0-256 128 128 0 1 0 0 256zm0-272a144 144 0 1 1 0 288 144 144 0 1 1 0-288zm8 64v8 64h48 8v16h-8H432h-8v-8V296v-8h16z"/></svg>