<svg xmlns="http://www.w3.org/2000/svg" viewBox="0 0 576 512"><!--! Font Awesome Pro 6.5.1 by @fontawesome - https://fontawesome.com License - https://fontawesome.com/license (Commercial License) Copyright 2023 Fonticons, Inc. --><path d="M128 8V0H112V8 64H16 0V80v96 16V496v16H16 330.8c-6.9-4.9-13.5-10.2-19.6-16H16V192H352h80 16V176 80 64H432 336V8 0H320V8 64H128V8zM112 80v40 8h16v-8V80H320v40 8h16v-8V80h96v96H16V80h96zM508.5 470.7C487.1 486.6 460.7 496 432 496s-55.1-9.4-76.5-25.3L387.7 432h88.5l32.2 38.7zm12.2-10.3l-34.5-41.4-2.4-2.9H480 384h-3.7l-2.4 2.9-34.5 41.4C319.1 437 304 404.3 304 368c0-70.7 57.3-128 128-128s128 57.3 128 128c0 36.3-15.1 69-39.3 92.3zM576 368a144 144 0 1 0 -288 0 144 144 0 1 0 288 0zM432 304a32 32 0 1 1 0 64 32 32 0 1 1 0-64zm0 80a48 48 0 1 0 0-96 48 48 0 1 0 0 96z"/></svg>