<svg xmlns="http://www.w3.org/2000/svg" viewBox="0 0 576 512"><!--! Font Awesome Pro 6.5.1 by @fontawesome - https://fontawesome.com License - https://fontawesome.com/license (Commercial License) Copyright 2023 Fonticons, Inc. --><path d="M128 8V0H112V8 64H16 0V80v96 16V496v16H16 253.4l2.3-16H16V192H384h48 16V176 80 64H432 336V8 0H320V8 64H128V8zM112 80v40 8h16v-8V80H320v40 8h16v-8V80h96v96H16V80h96zm-8 304H96v16h8H248h8V384h-8H104zm-8-96v16h8H344h8V288h-8H104 96zm402.9-64.1L302.2 420.6l-11.6 74.7L288 511.9l16.6-2.6 74.7-11.6L564.7 312.3 576 300.9l-11.3-11.3-54.5-54.5-11.3-11.3zM317.2 428.2L455 290.4l54.5 54.5L371.7 482.6l-64.5 10 10-64.5zM553.4 300.9l-32.5 32.5L466.4 279l32.5-32.5 54.5 54.5z"/></svg>