<svg xmlns="http://www.w3.org/2000/svg" viewBox="0 0 448 512"><!--! Font Awesome Pro 6.5.1 by @fontawesome - https://fontawesome.com License - https://fontawesome.com/license (Commercial License) Copyright 2023 Fonticons, Inc. --><path d="M128 8V0H112V8 64H16 0V80v96 16 96 16 96 16 80 16H16 432h16V496 416 400 304 288 192 176 80 64H432 336V8 0H320V8 64H128V8zM432 288H304V192H432v96zM288 192v96H160V192H288zm-144 0v96H16V192H144zM16 304H144v96H16V304zm0 112H144v80H16V416zm144 80V416H288v80H160zm144 0V416H432v80H304zm128-96H304V304H432v96zM112 80v40 8h16v-8V80H320v40 8h16v-8V80h96v96H16V80h96zM288 400H160V304H288v96z"/></svg>