<svg xmlns="http://www.w3.org/2000/svg" viewBox="0 0 448 512"><!--! Font Awesome Pro 6.5.1 by @fontawesome - https://fontawesome.com License - https://fontawesome.com/license (Commercial License) Copyright 2023 Fonticons, Inc. --><path d="M128 0V8 64H320V8 0h16V8 64h96 16V80v96 16V496v16H432 16 0V496 192 176 80 64H16h96V8 0h16zM432 192H16V496H432V192zM112 120V80H16v96H432V80H336v40 8H320v-8V80H128v40 8H112v-8zM376 288h-8H176h-8V272h8H368h8v16zM272 416H80 72V400h8H272h8v16h-8zM120 264H72v48h48V264zM72 248h48 16v16 48 16H120 72 56V312 264 248H72zM328 392v48h48V392H328zm-16-16h16 48 16v16 48 16H376 328 312V440 392 376z"/></svg>