<svg xmlns="http://www.w3.org/2000/svg" viewBox="0 0 640 512"><!--! Font Awesome Pro 6.5.1 by @fontawesome - https://fontawesome.com License - https://fontawesome.com/license (Commercial License) Copyright 2023 Fonticons, Inc. --><path d="M224 8V0H208V8 64H112 96V80v96 16h16 48H480h48 16V176 80 64H528 432V8 0H416V8 64H224V8zM379.2 512l5.6-16H255.2l5.6 16H379.2zM208 80v40 8h16v-8V80H416v40 8h16v-8V80h96v96H112V80h96zM112 240a64 64 0 1 1 0 128 64 64 0 1 1 0-128zM43.5 432H180.5l21.3 64H22.2l21.3-64zm175.1 64L192 416H32L5.3 496 0 512H16.9 207.1 224l-5.3-16zM192 304A80 80 0 1 0 32 304a80 80 0 1 0 160 0zm272 0a64 64 0 1 1 128 0 64 64 0 1 1 -128 0zM438.2 496l21.3-64H596.5l21.3 64H438.2zM608 416H448l-26.7 80L416 512h16.9H623.1 640l-5.3-16L608 416zm-80-32a80 80 0 1 0 0-160 80 80 0 1 0 0 160z"/></svg>