<svg xmlns="http://www.w3.org/2000/svg" viewBox="0 0 448 512"><!--! Font Awesome Pro 6.5.1 by @fontawesome - https://fontawesome.com License - https://fontawesome.com/license (Commercial License) Copyright 2023 Fonticons, Inc. --><path d="M128 8V0H112V8 64H16 0V80v96 16V496v16H16 432h16V496 192 176 80 64H432 336V8 0H320V8 64H128V8zM16 192H432V496H16V192zM112 80v40 8h16v-8V80H320v40 8h16v-8V80h96v96H16V80h96zM232 248v-8H216v8V404.7l-74.3-74.3-5.7-5.7L124.7 336l5.7 5.7 88 88 5.7 5.7 5.7-5.7 88-88 5.7-5.7L312 324.7l-5.7 5.7L232 404.7V248z"/></svg>