<svg xmlns="http://www.w3.org/2000/svg" viewBox="0 0 448 512"><!--! Font Awesome Pro 6.5.1 by @fontawesome - https://fontawesome.com License - https://fontawesome.com/license (Commercial License) Copyright 2023 Fonticons, Inc. --><path d="M128 0V8 64H320V8 0h16V8 64h96 16V80v96 16V496v16H432 16 0V496 192 176 80 64H16h96V8 0h16zM432 192H16V496H432V192zM112 120V80H16v96H432V80H336v40 8H320v-8V80H128v40 8H112v-8zM296 419.3l-5.7-5.7L224 347.3l-66.3 66.3-5.7 5.7L140.7 408l5.7-5.7L212.7 336l-66.3-66.3-5.7-5.7L152 252.7l5.7 5.7L224 324.7l66.3-66.3 5.7-5.7L307.3 264l-5.7 5.7L235.3 336l66.3 66.3 5.7 5.7L296 419.3z"/></svg>