<svg xmlns="http://www.w3.org/2000/svg" viewBox="0 0 448 512"><!--! Font Awesome Pro 6.5.1 by @fontawesome - https://fontawesome.com License - https://fontawesome.com/license (Commercial License) Copyright 2023 Fonticons, Inc. --><path d="M128 0V8 64H320V8 0h16V8 64h96 16V80v96 16V496v16H432 16 0V496 192 176 80 64H16h96V8 0h16zM432 192H16V496H432V192zM112 120V80H16v96H432V80H336v40 8H320v-8V80H128v40 8H112v-8zM255.8 250.2l6.6 9.1 128 176 9.2 12.7H384 64 48.5l9-12.6 80-112 5.5-7.7 6.7 6.7 33.2 33.2 66.5-96.1 6.4-9.3zm.3 27.6l-65.6 94.7-5.5 7.9-6.8-6.8L145 340.3 79.5 432H368.3L256.2 277.8zM96 272a16 16 0 1 0 32 0 16 16 0 1 0 -32 0zm16 32a32 32 0 1 1 0-64 32 32 0 1 1 0 64z"/></svg>