<svg xmlns="http://www.w3.org/2000/svg" viewBox="0 0 576 512"><!--! Font Awesome Pro 6.5.1 by @fontawesome - https://fontawesome.com License - https://fontawesome.com/license (Commercial License) Copyright 2023 Fonticons, Inc. --><path d="M128 8V0H112V8 64H16 0V80v96 16V496v16H16 330.8c-6.9-4.9-13.5-10.2-19.6-16H16V192H352h80 16V176 80 64H432 336V8 0H320V8 64H128V8zM112 80v40 8h16v-8V80H320v40 8h16v-8V80h96v96H16V80h96zM304 368a128 128 0 1 1 256 0 128 128 0 1 1 -256 0zm272 0a144 144 0 1 0 -288 0 144 144 0 1 0 288 0zM440 296v-8H424v8 64H360h-8v16h8 64v64 8h16v-8V376h64 8V360h-8H440V296z"/></svg>