<svg xmlns="http://www.w3.org/2000/svg" viewBox="0 0 448 512"><!--! Font Awesome Pro 6.5.1 by @fontawesome - https://fontawesome.com License - https://fontawesome.com/license (Commercial License) Copyright 2023 Fonticons, Inc. --><path d="M128 8V0H112V8 64H16 0V80v96 16V496v16H16 432h16V496 192 176 80 64H432 336V8 0H320V8 64H128V8zM16 192H432V496H16V192zM112 80v40 8h16v-8V80H320v40 8h16v-8V80h96v96H16V80h96zM272.1 228.7l-5.7 5.7L128.6 372.2l-1.6 1.6-.5 2.2-14.2 62.1-2.9 12.4 12.4-2.9 62.1-14.2 2.2-.5 1.6-1.6L325.7 293.5l5.7-5.7-5.7-5.7-47.9-47.9-5.7-5.7zM141.5 381.9l90.5-90.5 36.5 36.5-90.5 90.5-47.4 10.9 10.9-47.4zm167.2-94.1l-28.8 28.8-36.5-36.5 28.8-28.8 36.5 36.5z"/></svg>