<svg xmlns="http://www.w3.org/2000/svg" viewBox="0 0 576 512"><!--! Font Awesome Pro 6.5.1 by @fontawesome - https://fontawesome.com License - https://fontawesome.com/license (Commercial License) Copyright 2023 Fonticons, Inc. --><path d="M56 32H48v8V160H16 0v16V464v16H16 368h16V464 398.5 370.8 269.2 241.5 176 160H368 64V48H312h8V32h-8H56zM48 176H64 368v93.2V370.8 464H16V176H48zM560 455.9L416 394.9v17.4l144 60.9 16 6.8V462.6 177.4 160l-16 6.8L416 227.7v17.4l144-60.9V455.9zM64 240v16h8H312h8V240h-8H72 64z"/></svg>