<svg xmlns="http://www.w3.org/2000/svg" viewBox="0 0 640 512"><!--! Font Awesome Pro 6.5.1 by @fontawesome - https://fontawesome.com License - https://fontawesome.com/license (Commercial License) Copyright 2023 Fonticons, Inc. --><path d="M416 32l21.3 64H560h16v16V464v16H560 80 64V464 112 96H80 202.7L224 32H416zm21.3 80H425.8l-3.6-10.9L404.5 48H235.5l-17.7 53.1L214.2 112H202.7 80V464H560V112H437.3zM224 312h64 8v16h-8H243.3L271 355.7c13 13 30.6 20.3 49 20.3c30.6 0 57.6-15.6 73.3-39.3l13.3 8.9C388 373.5 356.2 392 320 392c-22.6 0-44.3-9-60.3-25L232 339.3V384v8H216v-8V320v-8h8zm200-48h-8H352h-8V248h8 44.7L369 220.3c-13-13-30.6-20.3-49-20.3c-30.6 0-57.6 15.6-73.3 39.3l-13.3-8.9C252 202.5 283.8 184 320 184c22.6 0 44.3 9 60.3 25L408 236.7V192v-8h16v8 64 8z"/></svg>