<svg xmlns="http://www.w3.org/2000/svg" viewBox="0 0 448 512"><!--! Font Awesome Pro 6.5.1 by @fontawesome - https://fontawesome.com License - https://fontawesome.com/license (Commercial License) Copyright 2023 Fonticons, Inc. --><path d="M432 16V400H337.8 319.5 128.5 110.2 16V16H432zM16 416h85.3L56.9 496 48 512H66.3 381.7 400l-8.9-16-44.4-80H432h16V400 16 0H432 16 0V16 400v16H16zm59.2 80l44.4-80H328.4l44.4 80H75.2zM224 336a128 128 0 1 0 0-256 128 128 0 1 0 0 256zM112 208a112 112 0 1 1 224 0 112 112 0 1 1 -224 0z"/></svg>