<svg xmlns="http://www.w3.org/2000/svg" viewBox="0 0 512 512"><!--! Font Awesome Pro 6.5.1 by @fontawesome - https://fontawesome.com License - https://fontawesome.com/license (Commercial License) Copyright 2023 Fonticons, Inc. --><path d="M8 0H152h8V16h-8H16V152v8H0v-8V8 0H8zM512 0V8 152v8H496v-8V16H360h-8V0h8H504h8zM192 96H320l12 32h68 16v16V368v16H400 112 96V368 144 128h16 68l12-32zm140 48H320.9L317 133.6 308.9 112H203.1L195 133.6 191.1 144H180 112V368H400V144H332zM304 256a48 48 0 1 0 -96 0 48 48 0 1 0 96 0zm-112 0a64 64 0 1 1 128 0 64 64 0 1 1 -128 0zM0 512v-8V360v-8H16v8V496H152h8v16h-8H8 0zm504 0H360h-8V496h8H496V360v-8h16v8V504v8h-8z"/></svg>