<svg xmlns="http://www.w3.org/2000/svg" viewBox="0 0 576 512"><!--! Font Awesome Pro 6.5.1 by @fontawesome - https://fontawesome.com License - https://fontawesome.com/license (Commercial License) Copyright 2023 Fonticons, Inc. --><path d="M496 256v4.8l2.7 4L546.1 336H29.9l47.4-71.1 2.7-4V256 48H496V256zM19.2 352H24 552h4.8l3.2 4.8V464H16V356.8l3.2-4.8zM576 464V352l-64-96V48 32H496 80 64V48 256L0 352V464v16H16 560h16V464zM392 96h-8v8 48 8h8 48 8v-8V104 96h-8H392zm8 16h32v32H400V112zm-32 80a80 80 0 1 0 -160 0 80 80 0 1 0 160 0zm-80-64a64 64 0 1 1 0 128 64 64 0 1 1 0-128zM104 400H96v16h8H472h8V400h-8H104z"/></svg>