<svg xmlns="http://www.w3.org/2000/svg" viewBox="0 0 576 512"><!--! Font Awesome Pro 6.5.1 by @fontawesome - https://fontawesome.com License - https://fontawesome.com/license (Commercial License) Copyright 2023 Fonticons, Inc. --><path d="M16 128C16 66.1 66.1 16 128 16c47.6 0 88.4 29.7 104.5 71.7l7.5 19.4 7.5-19.4C263.6 45.7 304.4 16 352 16c61.9 0 112 50.1 112 112s-50.1 112-112 112H128C66.1 240 16 189.9 16 128zM128 0C57.3 0 0 57.3 0 128s57.3 128 128 128H352c70.7 0 128-57.3 128-128S422.7 0 352 0c-48.2 0-90.2 26.6-112 66C218.2 26.6 176.2 0 128 0zM448 467.7l112 38.8 16 5.5V495.1 272.9 256l-16 5.5L448 300.3v16.9l112-38.8V489.5L448 450.8v16.9zM48 352H64v16V496v16H80 400h16V496 304 288H400 160 128 64 32 16 0v16 32 16H16 32 48zM16 336V304H32 64h64 32H400V496H80V352 336H64 32 16zM128 80a48 48 0 1 1 0 96 48 48 0 1 1 0-96zm0 112a64 64 0 1 0 0-128 64 64 0 1 0 0 128zm176-64a48 48 0 1 1 96 0 48 48 0 1 1 -96 0zm112 0a64 64 0 1 0 -128 0 64 64 0 1 0 128 0z"/></svg>