<svg xmlns="http://www.w3.org/2000/svg" viewBox="0 0 448 512"><!--! Font Awesome Pro 6.5.1 by @fontawesome - https://fontawesome.com License - https://fontawesome.com/license (Commercial License) Copyright 2023 Fonticons, Inc. --><path d="M160 176c-35.3 0-64-28.7-64-64c0-7.9 3.4-17.9 10.3-29.6c6.7-11.5 16-23 25.5-33.6c9.5-10.5 19.1-19.6 26.4-26.1L160 21l1.8 1.6c7.2 6.5 16.8 15.6 26.4 26.1c9.6 10.6 18.8 22.1 25.5 33.6C220.6 94.1 224 104.1 224 112c0 35.3-28.7 64-64 64zM160 0s-80 64-80 112c0 44.2 35.8 80 80 80s80-35.8 80-80C240 64 160 0 160 0zM112 240h16v48 8h16v-8V240h64c17.7 0 32 14.3 32 32V496H80V272c0-17.7 14.3-32 32-32zM256 496V272c0-26.5-21.5-48-48-48H112c-26.5 0-48 21.5-48 48V496H8 0v16H8 64 80 240h16H384c35.3 0 64-28.7 64-64s-28.7-64-64-64s-64 28.7-64 64c0 19.1 8.4 36.3 21.7 48H256zm80-48a48 48 0 1 1 96 0 48 48 0 1 1 -96 0z"/></svg>