<svg xmlns="http://www.w3.org/2000/svg" viewBox="0 0 640 512"><!--! Font Awesome Pro 6.5.1 by @fontawesome - https://fontawesome.com License - https://fontawesome.com/license (Commercial License) Copyright 2023 Fonticons, Inc. --><path d="M166.8 64H173 320h8 8H624h16V80 432v16H624 336h-8-8H8 0v-8V237v-6.2l6-1.5C44 219.5 72 185 72 144v-8h8c41 0 75.5-28 85.2-66l1.5-6zM184 80V192H320V80H184zm-16 23.4c-17.1 27.1-46.5 45.8-80.3 48.3c-1.1 14.4-5.1 28.1-11.4 40.3H168V103.4zM66 208c-12.7 16.2-30 28.5-50 35v77H168V208H66zM16 336v96H168V336H16zm168 96H320V336H184v96zM336 320v16 96H624V80H336V192v16V320zM320 208H184V320H320V208z"/></svg>