<svg xmlns="http://www.w3.org/2000/svg" viewBox="0 0 640 512"><!--! Font Awesome Pro 6.5.1 by @fontawesome - https://fontawesome.com License - https://fontawesome.com/license (Commercial License) Copyright 2023 Fonticons, Inc. --><path d="M112 32h-6l-1.7 5.7L58 192H16 0v16V384v16 64 16H16 80 96V464 400H322.9c-1-5.3-1.7-10.6-2.2-16H96 80 16V208H422.6c10.4-4.8 21.4-8.6 32.8-11.3l-47.7-159L406 32h-6H112zM16 400H80v64H16V400zM437.2 192H432 74.8L118 48H394l43.2 144zM80 288a16 16 0 1 1 32 0 16 16 0 1 1 -32 0zm48 0a32 32 0 1 0 -64 0 32 32 0 1 0 64 0zm368-48a128 128 0 1 1 0 256 128 128 0 1 1 0-256zm0 272a144 144 0 1 0 0-288 144 144 0 1 0 0 288zm24.8-231.2l-18.3 17.5-84 80L404 392h20 51.8l-7.7 38.4-5 24.8 18.3-17.5 84-80L580 344H560 508.2l7.7-38.4 5-24.8zM444 376l51.2-48.8-4.6 23.2-1.9 9.6h9.8H540l-51.2 48.8 4.6-23.2 1.9-9.6h-9.8H444z"/></svg>