<svg xmlns="http://www.w3.org/2000/svg" viewBox="0 0 576 512"><!--! Font Awesome Pro 6.5.1 by @fontawesome - https://fontawesome.com License - https://fontawesome.com/license (Commercial License) Copyright 2023 Fonticons, Inc. --><path d="M144 32h-6l-1.7 5.7L104 145.5V144H8 0v8 48 8H8 32V384v16 64 16H48h64 16V464 400H448v64 16h16 64 16V464 400 384 208h24 8v-8V152v-8h-8H472v1.5L439.7 37.7 438 32h-6H144zM528 384H464 448 128 112 48V208H528V384zm-64 16h64v64H464V400zM48 400h64v64H48V400zM476.4 160H560v32H544 528 486l-9.6-32zM16 160H99.6L90 192H48 32 16V160zm453.2 32H106.8L150 48H426l43.2 144zM112 288a16 16 0 1 1 32 0 16 16 0 1 1 -32 0zm48 0a32 32 0 1 0 -64 0 32 32 0 1 0 64 0zm288-16a16 16 0 1 1 0 32 16 16 0 1 1 0-32zm0 48a32 32 0 1 0 0-64 32 32 0 1 0 0 64z"/></svg>