<svg xmlns="http://www.w3.org/2000/svg" viewBox="0 0 512 512"><!--! Font Awesome Pro 6.5.1 by @fontawesome - https://fontawesome.com License - https://fontawesome.com/license (Commercial License) Copyright 2023 Fonticons, Inc. --><path d="M176 80v48H80V80h96zm16 48V80 64H176 80 64V80v48H16 0v16V432v16H16 496h16V432 144 128H496 448V80 64H432 336 320V80v48H192zm144 0V80h96v48H336zm-16 16h16 96 16 48V432H16V144H64 80h96 16H320zm56 72H360v8 40H320h-8v16h8 40v40 8h16v-8V280h40 8V264h-8H376V224v-8zM96 264H88v16h8 96 8V264h-8H96z"/></svg>