<svg xmlns="http://www.w3.org/2000/svg" viewBox="0 0 512 512"><!--! Font Awesome Pro 6.5.1 by @fontawesome - https://fontawesome.com License - https://fontawesome.com/license (Commercial License) Copyright 2023 Fonticons, Inc. --><path d="M114 32h6H392h6l1.7 5.7L446 192h50 16v16V384v16H496 480v64 16H464 400 384V464 400H128v64 16H112 48 32V464 400H16 0V384 208 192H16 66L112.3 37.7 114 32zM384 384h16 64 16 16V336H424h-8v-8V264v-8h8 72V208H16v48H88h8v8 64 8H88 16v48H32 48h64 16H384zm16 16v64h64V400H400zM48 464h64V400H48v64zM386 48H126L82.8 192H429.2L386 48zM496 272H432v48h64V272zM16 320H80V272H16v48zm192-16v32h96V304H208zm-16-16h16 96 16v16 32 16H304 208 192V336 304 288z"/></svg>