<svg xmlns="http://www.w3.org/2000/svg" viewBox="0 0 640 512"><!--! Font Awesome Pro 6.5.1 by @fontawesome - https://fontawesome.com License - https://fontawesome.com/license (Commercial License) Copyright 2023 Fonticons, Inc. --><path d="M323.7 8.9l304 160 7.1 3.7-7.5 14.2-7.1-3.7L320 25 19.7 183.1l-7.1 3.7L5.2 172.6l7.1-3.7 304-160L320 7l3.7 2zM210 176h6H424h6l1.7 5.8L462 288h34 16v16V432v16 48 16H496 448 432V496 448H208v48 16H192 144 128V496 448 432 304 288h16 34l30.3-106.2L210 176zM144 304V432h48 16H432h16 48V304H144zM448 496h48V448H448v48zM192 448H144v48h48V448zM418 192H222l-27.4 96H445.4L418 192zM192 368a16 16 0 1 0 32 0 16 16 0 1 0 -32 0zm16 32a32 32 0 1 1 0-64 32 32 0 1 1 0 64zm224-48a16 16 0 1 0 0 32 16 16 0 1 0 0-32zm32 16a32 32 0 1 1 -64 0 32 32 0 1 1 64 0z"/></svg>