<svg xmlns="http://www.w3.org/2000/svg" viewBox="0 0 640 512"><!--! Font Awesome Pro 6.5.1 by @fontawesome - https://fontawesome.com License - https://fontawesome.com/license (Commercial License) Copyright 2023 Fonticons, Inc. --><path d="M128 32h-5.4l-2 5-62 155H16 0v16V384v16H16 65.3c7.6 45.4 47.1 80 94.7 80s87.1-34.6 94.7-80H385.3c7.6 45.4 47.1 80 94.7 80s87.1-34.6 94.7-80H624h16V384 208 192H624 515.8L390.2 35l-2.4-3H384 128zM576 384c0-53-43-96-96-96s-96 43-96 96H256c0-53-43-96-96-96s-96 43-96 96H16V208H128V192H75.8L133.4 48H380.2L495.4 192H448v16H624V384H576zM160 304a80 80 0 1 1 0 160 80 80 0 1 1 0-160zm240 80a80 80 0 1 1 160 0 80 80 0 1 1 -160 0zM334.2 97.9l6.1-24.3L321.2 89.9 186.8 205.1l-16.4 14.1H192h66.6l-16.7 66.9-6.1 24.3 19.1-16.3L389.2 178.9l16.4-14.1H384 317.4l16.7-66.9zM268.8 203.2H213.6l98.9-84.8-13.1 52.5-2.5 9.9h10.2 55.2l-98.9 84.8 13.1-52.5 2.5-9.9H268.8z"/></svg>