<svg xmlns="http://www.w3.org/2000/svg" viewBox="0 0 512 512"><!--! Font Awesome Pro 6.5.1 by @fontawesome - https://fontawesome.com License - https://fontawesome.com/license (Commercial License) Copyright 2023 Fonticons, Inc. --><path d="M153.3 96H358.7h10.5l4.2 9.6c9.9 22.6 32.5 38.4 58.7 38.4c23.7 0 44.4-12.9 55.4-32H432 416V96 64 48h16 55.4C476.4 28.9 455.7 16 432 16c-26.2 0-48.8 15.8-58.7 38.4L369.1 64H358.7 153.3 142.9l-4.2-9.6C128.8 31.8 106.2 16 80 16C56.3 16 35.6 28.9 24.6 48H80 96V64 96v16H80 24.6c11.1 19.1 31.8 32 55.4 32c26.2 0 48.8-15.8 58.7-38.4l4.2-9.6h10.5zM1.6 96H18 64 80V80 64H64 18 1.6c1.1-5.6 2.8-10.9 5.1-16C19 19.7 47.2 0 80 0s61 19.7 73.3 48H358.7C371 19.7 399.2 0 432 0s61 19.7 73.3 48c2.2 5.1 3.9 10.4 5.1 16H494 448 432V80 96h16 46 16.4c-1.1 5.6-2.8 10.9-5.1 16c-12.3 28.3-40.5 48-73.3 48s-61-19.7-73.3-48H153.3C141 140.3 112.8 160 80 160s-61-19.7-73.3-48c-2.2-5.1-3.9-10.4-5.1-16zM146 176h6H360h6l1.7 5.8L398 288h34 16v16V432v16 48 16H432 384 368V496 448H144v48 16H128 80 64V496 448 432 304 288H80h34l30.3-106.2L146 176zM80 304V432h48 16H368h16 48V304H80zM384 496h48V448H384v48zM128 448H80v48h48V448zM354 192H158l-27.4 96H381.4L354 192zM128 368a16 16 0 1 0 32 0 16 16 0 1 0 -32 0zm16 32a32 32 0 1 1 0-64 32 32 0 1 1 0 64zm224-48a16 16 0 1 0 0 32 16 16 0 1 0 0-32zm32 16a32 32 0 1 1 -64 0 32 32 0 1 1 64 0z"/></svg>