<svg xmlns="http://www.w3.org/2000/svg" viewBox="0 0 640 512"><!--! Font Awesome Pro 6.5.1 by @fontawesome - https://fontawesome.com License - https://fontawesome.com/license (Commercial License) Copyright 2023 Fonticons, Inc. --><path d="M122.6 32H128 384h3.8l2.4 3L515.8 192H624h16v16V384v16H624 574.7c-7.6 45.4-47.1 80-94.7 80s-87.1-34.6-94.7-80H254.7c-7.6 45.4-47.1 80-94.7 80s-87.1-34.6-94.7-80H16 0V384 208 192H16 58.6l62-155 2-5zM384 384c0-53 43-96 96-96s96 43 96 96h48V208H256 240 16V384H64c0-53 43-96 96-96s96 43 96 96H384zM75.8 192H240V176 80 48H133.4L75.8 192zM256 192H495.4L380.2 48H256V80v96 16zM160 464a80 80 0 1 0 0-160 80 80 0 1 0 0 160zm400-80a80 80 0 1 0 -160 0 80 80 0 1 0 160 0z"/></svg>