<svg xmlns="http://www.w3.org/2000/svg" viewBox="0 0 640 512"><!--! Font Awesome Pro 6.5.1 by @fontawesome - https://fontawesome.com License - https://fontawesome.com/license (Commercial License) Copyright 2023 Fonticons, Inc. --><path d="M16 104H192 368V76.9C356.9 57.7 307.7 16 192 16S27.1 57.7 16 76.9V104zm0 16V232H184V120H16zm0 128V400H32 48 96h16H224v16H112v48 16H96 48 32v-8-8V416H8 0v-8V74.9 73l.8-1.7C13.9 45.2 70.1 0 192 0S370.1 45.2 383.2 71.3L384 73v1.9V144h-3.8H368V120H200V232h82.7l-4.6 16H192 16zM96 464V416H48v48H96zM80 320a16 16 0 1 0 32 0 16 16 0 1 0 -32 0zm16 32a32 32 0 1 1 0-64 32 32 0 1 1 0 64zM338 176h6H552h6l1.7 5.8L590 288h34 16v16V432v16 48 16H624 576 560V496 448H336v48 16H320 272 256V496 448 432 304 288h16 34l30.3-106.2L338 176zM272 304V432h48 16H560h16 48V304H272zM624 496V448H576v48h48zM320 448H272v48h48V448zM546 192H350l-27.4 96H573.4L546 192zM320 368a16 16 0 1 0 32 0 16 16 0 1 0 -32 0zm16 32a32 32 0 1 1 0-64 32 32 0 1 1 0 64zm224-48a16 16 0 1 0 0 32 16 16 0 1 0 0-32zm32 16a32 32 0 1 1 -64 0 32 32 0 1 1 64 0z"/></svg>