<svg xmlns="http://www.w3.org/2000/svg" viewBox="0 0 512 512"><!--! Font Awesome Pro 6.5.1 by @fontawesome - https://fontawesome.com License - https://fontawesome.com/license (Commercial License) Copyright 2023 Fonticons, Inc. --><path d="M264 8V120v8H248v-8V8 0h16V8zM146 176h6H360h6l1.7 5.8L398 288h34 16v16V432v16 48 16H432 384 368V496 448H144v48 16H128 80 64V496 448 432 304 288H80h34l30.3-106.2L146 176zM80 304V432h48 16H368h16 48V304H80zM384 496h48V448H384v48zM128 448H80v48h48V448zM354 192H158l-27.4 96H381.4L354 192zM128 368a16 16 0 1 0 32 0 16 16 0 1 0 -32 0zm16 32a32 32 0 1 1 0-64 32 32 0 1 1 0 64zm224-48a16 16 0 1 0 0 32 16 16 0 1 0 0-32zm32 16a32 32 0 1 1 -64 0 32 32 0 1 1 64 0zM40 28.7l5.7 5.7 80 80 5.7 5.7L120 131.3l-5.7-5.7-80-80L28.7 40 40 28.7zm426.3 5.7l5.7-5.7L483.3 40l-5.7 5.7-80 80-5.7 5.7L380.7 120l5.7-5.7 80-80z"/></svg>