<svg xmlns="http://www.w3.org/2000/svg" viewBox="0 0 512 512"><!--! Font Awesome Pro 6.5.1 by @fontawesome - https://fontawesome.com License - https://fontawesome.com/license (Commercial License) Copyright 2023 Fonticons, Inc. --><path d="M256 16C123.5 16 16 123.5 16 256V504v8H0v-8V256C0 114.6 114.6 0 256 0S512 114.6 512 256V504v8H496v-8V256C496 123.5 388.5 16 256 16zM159.1 224H352.9h6.3l1.5 6.1L382.3 320H408h8v8V448v8 8 32 16H400 352 336V496 464H176v32 16H160 112 96V496 464v-8-8V328v-8h8 25.7l21.6-89.9 1.5-6.1h6.3zM400 448V336H112V448h48 16H336h16 48zm-48 16v32h48V464H352zm-240 0v32h48V464H112zM365.8 320l-19.3-80H165.4l-19.3 80H365.8zM176 376a16 16 0 1 0 0 32 16 16 0 1 0 0-32zm32 16a32 32 0 1 1 -64 0 32 32 0 1 1 64 0zm112 0a16 16 0 1 0 32 0 16 16 0 1 0 -32 0zm16 32a32 32 0 1 1 0-64 32 32 0 1 1 0 64z"/></svg>