<svg xmlns="http://www.w3.org/2000/svg" viewBox="0 0 512 512"><!--! Font Awesome Pro 6.5.1 by @fontawesome - https://fontawesome.com License - https://fontawesome.com/license (Commercial License) Copyright 2023 Fonticons, Inc. --><path d="M112 32h-6l-1.7 5.7L58 192H16 0v16V384v16 64 16H16 80 96V464 400H416v64 16h16 64 16V464 400 384 208 192H496 454L407.7 37.7 406 32h-6H112zM496 384H432 416 96 80 16V208H496V384zm-64 16h64v64H432V400zM16 400H80v64H16V400zM437.2 192H74.8L118 48H394l43.2 144zM80 288a16 16 0 1 1 32 0 16 16 0 1 1 -32 0zm48 0a32 32 0 1 0 -64 0 32 32 0 1 0 64 0zm288-16a16 16 0 1 1 0 32 16 16 0 1 1 0-32zm0 48a32 32 0 1 0 0-64 32 32 0 1 0 0 64z"/></svg>