<svg xmlns="http://www.w3.org/2000/svg" viewBox="0 0 640 512"><!--! Font Awesome Pro 6.5.1 by @fontawesome - https://fontawesome.com License - https://fontawesome.com/license (Commercial License) Copyright 2023 Fonticons, Inc. --><path d="M16 48V400H97.3c7.6-45.4 47.1-80 94.7-80s87.1 34.6 94.7 80H288 560V192c0-79.5-64.5-144-144-144H16zM96 416H16 0V400 48 32H16 416c88.4 0 160 71.6 160 160V400l56 0h8v16h-8l-56 0H560 288c0 53-43 96-96 96s-96-43-96-96zM240 144H80v96H240V144zM80 128H240h16v16 96 16H240 80 64V240 144 128H80zm256 16v96h96V144H336zm-16-16h16 96 16v16 96 16H432 336 320V240 144 128zM272 416a80 80 0 1 0 -160 0 80 80 0 1 0 160 0z"/></svg>