<svg xmlns="http://www.w3.org/2000/svg" viewBox="0 0 640 512"><!--! Font Awesome Pro 6.5.1 by @fontawesome - https://fontawesome.com License - https://fontawesome.com/license (Commercial License) Copyright 2023 Fonticons, Inc. --><path d="M416 48c79.5 0 144 64.5 144 144V400H288h-1.3c-7.6-45.4-47.1-80-94.7-80s-87.1 34.6-94.7 80H16V48H416zM16 416H96c0 53 43 96 96 96s96-43 96-96H560h16l56 0h8V400h-8l-56 0V192c0-88.4-71.6-160-160-160H16 0V48 400v16H16zM80 144H240v96H80V144zM64 128v16 96 16H80 240h16V240 144 128H240 80 64zm368 16v80H392h-8v16h8 40v96H336V144h96zm16 80V144 128H432 336 320v16V336v16h16 96 16V336 240 224zM192 336a80 80 0 1 1 0 160 80 80 0 1 1 0-160z"/></svg>