<svg xmlns="http://www.w3.org/2000/svg" viewBox="0 0 384 512"><!--! Font Awesome Pro 6.5.1 by @fontawesome - https://fontawesome.com License - https://fontawesome.com/license (Commercial License) Copyright 2023 Fonticons, Inc. --><path d="M16 16V496H368V16H16zM0 0H16 368h16V16 496v16H368 16 0V496 16 0zM192 120.9l5.7 5.7 39.6 39.6L297 225.9c25 25 25 65.5 0 90.5s-65.5 25-90.5 0l-6.5-6.5V366h24 8v16h-8H200 184 160h-8V366h8 24V309.9l-6.5 6.5c-25 25-65.5 25-90.5 0s-25-65.5 0-90.5l59.7-59.7 39.6-39.6 5.7-5.7zm0 22.6l-33.9 33.9L98.3 237.2c-18.7 18.7-18.7 49.1 0 67.9s49.1 18.7 67.9 0l20.1-20.1 5.7-5.7 5.7 5.7 20.1 20.1c18.7 18.7 49.1 18.7 67.9 0s18.7-49.1 0-67.9l-59.7-59.7L192 143.5z"/></svg>