<svg xmlns="http://www.w3.org/2000/svg" viewBox="0 0 384 512"><!--! Font Awesome Pro 6.5.1 by @fontawesome - https://fontawesome.com License - https://fontawesome.com/license (Commercial License) Copyright 2023 Fonticons, Inc. --><path d="M16 16V496H368V16H16zM0 0H16 368h16V16 496v16H368 16 0V496 16 0zM203.3 148.7l96 96L310.6 256l-11.3 11.3-96 96L192 374.6l-11.3-11.3-96-96L73.4 256l11.3-11.3 96-96L192 137.4l11.3 11.3zM96 256l11.3 11.3 73.4 73.4L192 352l11.3-11.3 73.4-73.4L288 256l-11.3-11.3-73.4-73.4L192 160l-11.3 11.3-73.4 73.4L96 256z"/></svg>