<svg xmlns="http://www.w3.org/2000/svg" viewBox="0 0 640 512"><!--! Font Awesome Pro 6.5.1 by @fontawesome - https://fontawesome.com License - https://fontawesome.com/license (Commercial License) Copyright 2023 Fonticons, Inc. --><path d="M88 0H82L80.3 5.8 50 112H16 0v16V256v16 48 16H16 64 80V320 272H271.2l4.6-16H80 64 16V128H368v16h16V128 112H368 334L303.7 5.8 302 0h-6H88zM64 272v48H16V272H64zM317.4 112H66.6L94 16H290l27.4 96zM80 208a16 16 0 1 1 0-32 16 16 0 1 1 0 32zM48 192a32 32 0 1 0 64 0 32 32 0 1 0 -64 0zm296-16h-6l-1.7 5.8L306 288H272 256v16V432v16 48 16h16 48 16V496 448H560v48 16h16 48 16V496 448 432 304 288H624 590L559.7 181.8 558 176h-6H344zM624 432H576 560 336 320 272V304H624V432zm-48 16h48v48H576V448zm-304 0h48v48H272V448zM573.4 288H322.6L350 192H546l27.4 96zM336 384a16 16 0 1 1 0-32 16 16 0 1 1 0 32zm-32-16a32 32 0 1 0 64 0 32 32 0 1 0 -64 0zm272 0a16 16 0 1 1 -32 0 16 16 0 1 1 32 0zm-16-32a32 32 0 1 0 0 64 32 32 0 1 0 0-64z"/></svg>