<svg xmlns="http://www.w3.org/2000/svg" viewBox="0 0 576 512"><!--! Font Awesome Pro 6.5.1 by @fontawesome - https://fontawesome.com License - https://fontawesome.com/license (Commercial License) Copyright 2023 Fonticons, Inc. --><path d="M0 0H8 64h6.2l1.6 6 69.4 266h341L557.6 32h16.8L495.6 282.4l-1.8 5.6H488 145.3l20.9 80H496h8v16h-8H160h-6.2l-1.6-6L57.8 16H8 0V0zM208 464a32 32 0 1 0 -64 0 32 32 0 1 0 64 0zm-80 0a48 48 0 1 1 96 0 48 48 0 1 1 -96 0zm336 32a32 32 0 1 0 0-64 32 32 0 1 0 0 64zm0-80a48 48 0 1 1 0 96 48 48 0 1 1 0-96zM240 128H400h8v16h-8H240h-8V128h8z"/></svg>