<svg xmlns="http://www.w3.org/2000/svg" viewBox="0 0 576 512"><!--! Font Awesome Pro 6.5.1 by @fontawesome - https://fontawesome.com License - https://fontawesome.com/license (Commercial License) Copyright 2023 Fonticons, Inc. --><path d="M8 0H0V16H8 57.8l94.4 362 1.6 6H160 496h8V368h-8H166.2l-20.9-80H488h5.9l1.8-5.6L574.3 32H557.6L482.1 272h-341L71.7 6 70.2 0H64 8zM176 432a32 32 0 1 1 0 64 32 32 0 1 1 0-64zm0 80a48 48 0 1 0 0-96 48 48 0 1 0 0 96zm256-48a32 32 0 1 1 64 0 32 32 0 1 1 -64 0zm80 0a48 48 0 1 0 -96 0 48 48 0 1 0 96 0zM263.4 76.1L252.1 87.4l5.7 5.7L308.7 144l-50.9 50.9-5.7 5.7 11.3 11.3 5.7-5.7L320 155.3l50.9 50.9 5.7 5.7 11.3-11.3-5.7-5.7L331.3 144l50.9-50.9 5.7-5.7L376.6 76.1l-5.7 5.7L320 132.7 269.1 81.8l-5.7-5.7z"/></svg>