<svg xmlns="http://www.w3.org/2000/svg" viewBox="0 0 640 512"><!--! Font Awesome Pro 6.5.1 by @fontawesome - https://fontawesome.com License - https://fontawesome.com/license (Commercial License) Copyright 2023 Fonticons, Inc. --><path d="M8 0H0V16H8 57.8l94.4 362 1.6 6H160 320.7c-.5-5.3-.7-10.6-.7-16H166.2l-20.9-80H339.2c2.8-5.5 5.9-10.8 9.3-16H141.1L82.7 48H554.2L509.1 192.5c5.5 .4 10.8 1.1 16.2 1.9L571 48l5-16H559.2 78.5L71.7 6 70.2 0H64 8zM176 432a32 32 0 1 1 0 64 32 32 0 1 1 0-64zm0 80a48 48 0 1 0 0-96 48 48 0 1 0 0 96zM368 368a128 128 0 1 1 256 0 128 128 0 1 1 -256 0zm272 0a144 144 0 1 0 -288 0 144 144 0 1 0 288 0zm-219.3-8L432 371.3l5.7-5.7L488 315.3V440v8h16v-8V315.3l50.3 50.3 5.7 5.7L571.3 360l-5.7-5.7-64-64-5.7-5.7-5.7 5.7-64 64-5.7 5.7z"/></svg>