<svg xmlns="http://www.w3.org/2000/svg" viewBox="0 0 640 512"><!--! Font Awesome Pro 6.5.1 by @fontawesome - https://fontawesome.com License - https://fontawesome.com/license (Commercial License) Copyright 2023 Fonticons, Inc. --><path d="M0 0H8 120h8V8 416h96H512 632h8v16h-8H547.8c7.6 8.5 12.2 19.7 12.2 32c0 26.5-21.5 48-48 48s-48-21.5-48-48c0-12.3 4.6-23.5 12.2-32H259.8c7.6 8.5 12.2 19.7 12.2 32c0 26.5-21.5 48-48 48s-48-21.5-48-48c0-12.3 4.6-23.5 12.2-32H120h-8v-8V16H8 0V0zM512 432a32 32 0 1 0 0 64 32 32 0 1 0 0-64zM192 464a32 32 0 1 0 64 0 32 32 0 1 0 -64 0zM304 0h8H456h8V8 80h96 16V96 336v16H560 208 192V336 96 80h16 96V8 0zm16 96H304 288V336H480V96H464 448 320zM448 80V16H320V80H448zM272 96H208V336h64V96zM496 336h64V96H496V336z"/></svg>