<svg xmlns="http://www.w3.org/2000/svg" viewBox="0 0 640 512"><!--! Font Awesome Pro 6.5.1 by @fontawesome - https://fontawesome.com License - https://fontawesome.com/license (Commercial License) Copyright 2023 Fonticons, Inc. --><path d="M8 0H0V16H8 112V424v8h8 68.2c-7.6 8.5-12.2 19.7-12.2 32c0 26.5 21.5 48 48 48s48-21.5 48-48c0-12.3-4.6-23.5-12.2-32H476.2c-7.6 8.5-12.2 19.7-12.2 32c0 26.5 21.5 48 48 48s48-21.5 48-48c0-12.3-4.6-23.5-12.2-32H632h8V416h-8H512 224 128V8 0h-8H8zM544 464a32 32 0 1 1 -64 0 32 32 0 1 1 64 0zM224 496a32 32 0 1 1 0-64 32 32 0 1 1 0 64zM208 80H368V336H208V80zM192 64V80 336v16h16H368h16V336 80 64H368 208 192zM432 80h96v96H432V80zM416 64V80v96 16h16 96 16V176 80 64H528 432 416zM592 240v96H432V240H592zM432 224H416v16 96 16h16H592h16V336 240 224H592 432z"/></svg>