<svg xmlns="http://www.w3.org/2000/svg" viewBox="0 0 576 512"><!--! Font Awesome Pro 6.5.1 by @fontawesome - https://fontawesome.com License - https://fontawesome.com/license (Commercial License) Copyright 2023 Fonticons, Inc. --><path d="M16 160H560V464H16V160zm0-16V48H560v96H16zm560 8v-8V48 32H560 16 0V48v96 8 8V464v16H16 560h16V464 160v-8zM112 208h-2.7l-2.1 1.6L112 216c-4.8-6.4-4.8-6.4-4.8-6.4l0 0 0 0 0 0-.1 .1-.4 .3c-.4 .3-.9 .7-1.5 1.2c-1.2 1.1-2.9 2.6-5 4.6c-4 4-9.4 10-14.7 17.9C74.7 249.7 64 273.2 64 304s10.7 54.3 21.4 70.1C90.7 382 96 388 100.1 392c2 2 3.7 3.6 5 4.6c.6 .5 1.1 .9 1.5 1.2l.4 .3 .1 .1 0 0 0 0 0 0s0 0 4.8-6.4l-4.8 6.4 2.1 1.6H112 216 360 464h2.1l1.8-1-3.9-7c3.9 7 3.9 7 3.9 7l0 0 0 0 .1 0 .2-.1 .5-.3c.4-.2 .9-.6 1.6-1c1.3-.9 3.1-2.2 5.2-3.9c4.2-3.5 9.7-8.8 15.1-16.3c11-15.1 21.5-38.7 21.5-73.3s-10.6-58.2-21.5-73.3c-5.4-7.5-10.9-12.8-15.1-16.3c-2.1-1.7-3.9-3-5.2-3.9c-.6-.4-1.2-.8-1.6-1l-.5-.3-.2-.1-.1 0 0 0 0 0s0 0-3.9 7l3.9-7-1.8-1H464 360 216 112zm-.6 19.3c1.4-1.4 2.6-2.5 3.5-3.3H208V384H114.9c-.9-.8-2.1-1.9-3.5-3.3c-3.5-3.4-8.1-8.7-12.8-15.6C89.3 351.4 80 330.9 80 304s9.3-47.3 18.6-61.1c4.7-6.9 9.3-12.1 12.8-15.6zM352 384H224V224H352V384zm109.7 0H368V224h93.7c.9 .6 2.1 1.5 3.5 2.7c3.3 2.8 7.8 7.1 12.4 13.4c9 12.5 18.5 32.9 18.5 63.9s-9.4 51.4-18.5 63.9c-4.6 6.3-9.1 10.7-12.4 13.4c-1.4 1.2-2.6 2.1-3.5 2.7zM176 264h8V248h-8c-30.9 0-56 25.1-56 56s25.1 56 56 56h8V344h-8c-22.1 0-40-17.9-40-40s17.9-40 40-40zm264 40c0 22.1-17.9 40-40 40h-8v16h8c30.9 0 56-25.1 56-56s-25.1-56-56-56h-8v16h8c22.1 0 40 17.9 40 40z"/></svg>