<svg xmlns="http://www.w3.org/2000/svg" viewBox="0 0 576 512"><!--! Font Awesome Pro 6.5.1 by @fontawesome - https://fontawesome.com License - https://fontawesome.com/license (Commercial License) Copyright 2023 Fonticons, Inc. --><path d="M560 48V464H470L439.7 357.8 438 352h-6H144h-6l-1.7 5.8L106 464H16V48H560zM453.4 464H122.6L150 368H426l27.4 96zM16 32H0V48 464v16H16 560h16V464 48 32H560 16zM160 176a48 48 0 1 1 0 96 48 48 0 1 1 0-96zm42.3 96c13.3-11.7 21.7-28.9 21.7-48s-8.4-36.3-21.7-48H373.7c-13.3 11.7-21.7 28.9-21.7 48s8.4 36.3 21.7 48H202.3zM160 288H416c35.3 0 64-28.7 64-64s-28.7-64-64-64H160c-35.3 0-64 28.7-64 64s28.7 64 64 64zM416 176a48 48 0 1 1 0 96 48 48 0 1 1 0-96z"/></svg>