<svg xmlns="http://www.w3.org/2000/svg" viewBox="0 0 576 512"><!--! Font Awesome Pro 6.5.1 by @fontawesome - https://fontawesome.com License - https://fontawesome.com/license (Commercial License) Copyright 2023 Fonticons, Inc. --><path d="M16 144H560V464H16V144zm0-16V48H560v80H16zm560 8v-8V48 32H560 16 0V48v80 8 8V464v16H16 560h16V464 144v-8zM80 304a80 80 0 1 1 160 0A80 80 0 1 1 80 304zm176 0A96 96 0 1 0 64 304a96 96 0 1 0 192 0zm-96 16a16 16 0 1 1 0-32 16 16 0 1 1 0 32zm-32-16a32 32 0 1 0 64 0 32 32 0 1 0 -64 0zm208-80H496V384H336V224zm-16-16v16V384v16h16H496h16V384 224 208H496 336 320z"/></svg>