<svg xmlns="http://www.w3.org/2000/svg" viewBox="0 0 640 512"><!--! Font Awesome Pro 6.5.1 by @fontawesome - https://fontawesome.com License - https://fontawesome.com/license (Commercial License) Copyright 2023 Fonticons, Inc. --><path d="M448 304a144 144 0 1 0 0-288 144 144 0 1 0 0 288zm0 16c-77.6 0-142.3-55.2-156.9-128.5C186.4 219.1 112 314.1 112 424v72H328h8v0h32V482.7c0-19.1-15.5-34.7-34.7-34.7H288h-8v-8l0-40c0-26.5-21.5-48-48-48H200h-8V336h8 32c35.3 0 64 28.7 64 64v30.3l125.5-85 12.5-8.5V352 496h46V316.8c-10.3 2.1-21 3.2-32 3.2zM608 160c0 71.6-47.1 132.3-112 152.7V504v8h-8H426h-8v-8V367.1L322.1 432h11.2c28 0 50.7 22.7 50.7 50.7V504v8h-8H184v0H104 96v-8V424 168c0-30.9-25.1-56-56-56H32V96h8c39.8 0 72 32.2 72 72V334.7c28.8-77.4 94-138 176.8-159.2c-.5-5.1-.8-10.3-.8-15.6C288 71.6 359.6 0 448 0s160 71.6 160 160zM373 65.8L410.8 96h74.4L523 65.8l13-10.4V72v96c0 48.6-39.4 88-88 88s-88-39.4-88-88V72 55.4l13 10.4zM376 168c0 39.8 32.2 72 72 72s72-32.2 72-72V88.6l-27 21.6-2.2 1.8H488 408h-2.8l-2.2-1.8L376 88.6V168zm24-8a16 16 0 1 1 32 0 16 16 0 1 1 -32 0zm80-16a16 16 0 1 1 0 32 16 16 0 1 1 0-32zM232 16V56h40 8V72h-8H232v40 8H216v-8V72H176h-8V56h8 40V16 8h16v8z"/></svg>