<svg xmlns="http://www.w3.org/2000/svg" viewBox="0 0 576 512"><!--! Font Awesome Pro 6.5.1 by @fontawesome - https://fontawesome.com License - https://fontawesome.com/license (Commercial License) Copyright 2023 Fonticons, Inc. --><path d="M328 0h16 3.7l2.4 2.9L387.7 48h88.5L513.9 2.9 516.3 0H520h16 8V8 128c0 61.9-50.1 112-112 112s-112-50.1-112-112V8 0h8zm8 128c0 53 43 96 96 96s96-43 96-96V16h-4.3L486.1 61.1 483.7 64H480 384h-3.7l-2.4-2.9L340.3 16H336V128zM112 334.7c29.5-79.5 97.5-141.2 183.5-160.8c1.7 5.2 3.8 10.2 6 15C191.3 212.8 112 310.5 112 424v72H328h8v0h32V482.7c0-19.1-15.5-34.7-34.7-34.7H288h-8v-8l0-40c0-26.5-21.5-48-48-48H200h-8V336h8 32c35.3 0 64 28.7 64 64v12.9L404.4 306.3 418 292.9V312 496h46V268.4c5.5-1.2 10.8-2.8 16-4.6V504v8h-8H410h-8v-8V331.1L299.4 432h33.9c28 0 50.7 22.7 50.7 50.7V504v8h-8H184v0H104 96v-8V424 168c0-30.9-25.1-56-56-56H32V96h8c39.8 0 72 32.2 72 72V334.7zM384 128a16 16 0 1 1 32 0 16 16 0 1 1 -32 0zm80-16a16 16 0 1 1 0 32 16 16 0 1 1 0-32z"/></svg>