<svg xmlns="http://www.w3.org/2000/svg" viewBox="0 0 384 512"><!--! Font Awesome Pro 6.5.1 by @fontawesome - https://fontawesome.com License - https://fontawesome.com/license (Commercial License) Copyright 2023 Fonticons, Inc. --><path d="M232 0V8 64c43.7 .4 84.1 14.6 116.7 38.3l-9.4 12.9C309.4 93.5 272.3 80.4 232 80V432c40.3-.4 77.4-13.5 107.3-35.3l9.4 12.9c-32.6 23.7-73 37.9-116.7 38.3v0 8 48 8H216v-8V456v-8-.5C113.4 440.6 32 357.7 32 256S113.4 71.4 216 64.5V8 0h16zM48 256c0 92.4 73.8 168.6 168 175.5V80.5C121.8 87.4 48 163.6 48 256z"/></svg>