<svg xmlns="http://www.w3.org/2000/svg" viewBox="0 0 448 512"><!--! Font Awesome Pro 6.5.1 by @fontawesome - https://fontawesome.com License - https://fontawesome.com/license (Commercial License) Copyright 2023 Fonticons, Inc. --><path d="M336 16V256h16V16 0H336 112 96V16 256h16V16H336zM232 448V384H400h16V368 352l-32-64H64L32 352v16 16H48 216v64H136h-8v8 48 8h16v-8V464h72v40 8h16v-8V464h72v40 8h16v-8V456v-8h-8H232zM48 160H32v8 80 8H48v-8V168v-8zm368 0H400v8 80 8h16v-8V168v-8zM48 368V355.8L73.9 304H374.1L400 355.8V368H232 216 48z"/></svg>