<svg xmlns="http://www.w3.org/2000/svg" viewBox="0 0 640 512"><!--! Font Awesome Pro 6.5.1 by @fontawesome - https://fontawesome.com License - https://fontawesome.com/license (Commercial License) Copyright 2023 Fonticons, Inc. --><path d="M624 16H176V97c-5.2-.7-10.6-1-16-1V16 0h16H624h16V16 400v16H624 544h-8H392h-8H324.6l-4.8-16H384V328v-8h8H536h8v8 72h80V16zM528 400V336H400v64H528zM240 224A80 80 0 1 0 80 224a80 80 0 1 0 160 0zM64 224a96 96 0 1 1 192 0A96 96 0 1 1 64 224zM21.5 496h277L260.1 368H59.9L21.5 496zM48 352H272l43.2 144 4.8 16H303.3 16.7 0l4.8-16L48 352z"/></svg>