<svg xmlns="http://www.w3.org/2000/svg" viewBox="0 0 512 512"><!--! Font Awesome Pro 6.5.1 by @fontawesome - https://fontawesome.com License - https://fontawesome.com/license (Commercial License) Copyright 2023 Fonticons, Inc. --><path d="M16 32v8V464H504h8v16h-8H8 0v-8V40 32H16zM352 64h8H472h8v8V184v8H464v-8V91.3L293.7 261.7l-5.7 5.7-5.7-5.7L208 187.3l-98.3 98.3-5.7 5.7L92.7 280l5.7-5.7 104-104 5.7-5.7 5.7 5.7L288 244.7 452.7 80H360h-8V64zm8 320h-8V368h8 92.7l-90.3-90.3-5.7-5.7L368 260.7l5.7 5.7L464 356.7V264v-8h16v8V376v8h-8H360z"/></svg>