<svg xmlns="http://www.w3.org/2000/svg" viewBox="0 0 512 512"><!--! Font Awesome Pro 6.5.1 by @fontawesome - https://fontawesome.com License - https://fontawesome.com/license (Commercial License) Copyright 2023 Fonticons, Inc. --><path d="M16 40V32H0v8V472v8H8 504h8V464h-8H16V40zm96 88l16 0 192 0h16v32H320l-192 0H112V128zm208 48h16l16 0V160 128 112H336 320l-192 0-16 0H96v16 32 16h16 16l192 0zM112 224h16H256h16v32H256 128 112V224zm0 96h16H384h16v32H384 128 112V320zm16-112H112 96v16 32 16h16 16H256h16 16V256 224 208H272 256 128zm0 96H112 96v16 32 16h16 16H384h16 16V352 320 304H400 384 128z"/></svg>