<svg xmlns="http://www.w3.org/2000/svg" viewBox="0 0 512 512"><!--! Font Awesome Pro 6.5.1 by @fontawesome - https://fontawesome.com License - https://fontawesome.com/license (Commercial License) Copyright 2023 Fonticons, Inc. --><path d="M16 40V32H0v8V472v8H8 504h8V464h-8H16V40zm128 88l16 0 96 0h16v32l-16 0-96 0-16 0V128zm144 48V160l0-32V112H272 256l-96 0-16 0H128v16 32 16h16l16 0 96 0 16 0 16 0zm-80 48h16H352h16v32H352 224 208V224zm128 96h16 96 16v32H448 352 336V320zM224 208H208 192v16 32 16h16 16H352h16 16V256 224 208H368 352 224zm128 96H336 320v16 32 16h16 16 96 16 16V352 320 304H464 448 352z"/></svg>