<svg xmlns="http://www.w3.org/2000/svg" viewBox="0 0 512 512"><!--! Font Awesome Pro 6.5.1 by @fontawesome - https://fontawesome.com License - https://fontawesome.com/license (Commercial License) Copyright 2023 Fonticons, Inc. --><path d="M16 40V32H0v8V472v8H8 504h8V464h-8H16V40zM368 64H352 320 304V80 96v64 16 16h16 32 16V176 160 96 80 64zM320 96V80h32V96v64 16H320V160 96zm-64 48v16 64 16H224V224 160 144h32zm-96 96v16 64 16H128V320 256 240h32zM448 80V96 320v16H416V320 96 80h32zM272 160V144 128H256 224 208v16 16 64 16 16h16 32 16V240 224 160zm-96 96V240 224H160 128 112v16 16 64 16 16h16 32 16V336 320 256zM464 96V80 64H448 416 400V80 96 320v16 16h16 32 16V336 320 96z"/></svg>