<svg xmlns="http://www.w3.org/2000/svg" viewBox="0 0 512 512"><!--! Font Awesome Pro 6.5.1 by @fontawesome - https://fontawesome.com License - https://fontawesome.com/license (Commercial License) Copyright 2023 Fonticons, Inc. --><path d="M496 238.9l0 1.1H272V16l1.1 0C396.2 16 496 115.8 496 238.9zM273.1 0c-5.7 0-11.4 .2-17.1 .6V240v16h16H511.4c.4-5.6 .6-11.3 .6-17.1C512 107 405 0 273.1 0zM208 288v16h16H461.7C446.2 412.5 352.8 496 240 496C116.3 496 16 395.7 16 272C16 159.2 99.5 65.8 208 50.3V288zm271.5 0h-16H240 224V272 48.6v-16c-5.4 .4-10.7 .9-16 1.6C90.6 49.8 0 150.3 0 272C0 404.5 107.5 512 240 512c121.7 0 222.2-90.6 237.9-208c.7-5.3 1.2-10.6 1.6-16z"/></svg>