<svg xmlns="http://www.w3.org/2000/svg" viewBox="0 0 512 512"><!--! Font Awesome Pro 6.5.1 by @fontawesome - https://fontawesome.com License - https://fontawesome.com/license (Commercial License) Copyright 2023 Fonticons, Inc. --><path d="M16 40V32H0v8V472v8H8 504h8V464h-8H16V40zm432 72v16V352v16H416V352 128 112h32zM256 176v16V352v16H224V352 192 176h32zm-96 96v16 64 16H128V352 288 272h32zm208-48H352 320 304v16 16 96 16 16h16 32 16V368 352 256 240 224zm-48 32V240h32v16 96 16H320V352 256zM464 128V112 96H448 416 400v16 16V352v16 16h16 32 16V368 352 128zM272 192V176 160H256 224 208v16 16V352v16 16h16 32 16V368 352 192zm-96 96V272 256H160 128 112v16 16 64 16 16h16 32 16V368 352 288z"/></svg>