<svg xmlns="http://www.w3.org/2000/svg" viewBox="0 0 640 512"><!--! Font Awesome Pro 6.5.1 by @fontawesome - https://fontawesome.com License - https://fontawesome.com/license (Commercial License) Copyright 2023 Fonticons, Inc. --><path d="M624 16H176V97c-5.2-.7-10.6-1-16-1V16 0h16H624h16V16 400v16H624 324.6l-4.8-16H624V16zM416 112h8 96 8v8 96 8H512v-8V139.3L389.7 261.7l-5.7 5.7-5.7-5.7-80-80-5.7-5.7L304 164.7l5.7 5.7L384 244.7 500.7 128H424h-8V112zM160 304a80 80 0 1 0 0-160 80 80 0 1 0 0 160zm0-176a96 96 0 1 1 0 192 96 96 0 1 1 0-192zM59.9 368L21.5 496h277L260.1 368H59.9zM272 352l43.2 144 4.8 16H303.3 16.7 0l4.8-16L48 352H272z"/></svg>