<svg xmlns="http://www.w3.org/2000/svg" viewBox="0 0 512 512"><!--! Font Awesome Pro 6.5.1 by @fontawesome - https://fontawesome.com License - https://fontawesome.com/license (Commercial License) Copyright 2023 Fonticons, Inc. --><path d="M16 40V32H0v8V472v8H8 504h8V464h-8H16V40zm144 80h-8v8 64 8h8 64 8v-8V128v-8h-8H160zm8 64V136h48v48H168zm-48 96v8 64 8h8 64 8v-8V288v-8h-8H128h-8zm16 16h48v48H136V296zm120-80h-8v8 64 8h8 64 8v-8V224v-8h-8H256zm8 64V232h48v48H264zm80 0v8 64 8h8 64 8v-8V288v-8h-8H352h-8zm16 16h48v48H360V296zM384 88h-8v8 64 8h8 64 8v-8V96 88h-8H384zm56 64H392V104h48v48z"/></svg>