<svg xmlns="http://www.w3.org/2000/svg" viewBox="0 0 512 512"><!--! Font Awesome Pro 6.5.1 by @fontawesome - https://fontawesome.com License - https://fontawesome.com/license (Commercial License) Copyright 2023 Fonticons, Inc. --><path d="M208 48V224H16V48H208zM16 32H0V48 224v16H16 208h16V224 48 32H208 16zM208 288V464H16V288H208zM16 272H0v16V464v16H16 208h16V464 288 272H208 16zM272 48H496v96H272V48zM256 32V48v96 16h16H496h16V144 48 32H496 272 256zM496 208v96H272V208H496zM272 192H256v16 96 16h16H496h16V304 208 192H496 272zm0 176H496v96H272V368zm-16-16v16 96 16h16H496h16V464 368 352H496 272 256z"/></svg>