<svg xmlns="http://www.w3.org/2000/svg" viewBox="0 0 640 512"><!--! Font Awesome Pro 6.5.1 by @fontawesome - https://fontawesome.com License - https://fontawesome.com/license (Commercial License) Copyright 2023 Fonticons, Inc. --><path d="M176 16v96h96V16H176zM160 0h16 96 16V16v96 6.8l23.1 76c8-1.8 16.3-2.8 24.9-2.8c36.4 0 68.8 17.4 89.2 44.3L512 179.7V176 80 64h16 96 16V80v96 16H624 528h-5.6L434 249.7c8.9 16.1 14 34.6 14 54.3c0 14.5-2.7 28.3-7.7 41l81.6 39H528h96 16v16 96 16H624 528 512V496 400v-3l-78.7-37.6C414.1 393.2 377.7 416 336 416c-59.2 0-107.6-45.9-111.7-104H128v40 16H112 16 0V352 256 240H16h96 16v16 40h96.3c3.1-44.2 31.9-81.3 71.5-96.6L274.1 128H272 176 160V112 16 0zM112 256H16v96h96V256zM624 80H528v96h96V80zM528 400v96h96V400H528zm-192 0a96 96 0 1 0 0-192 96 96 0 1 0 0 192z"/></svg>