<svg xmlns="http://www.w3.org/2000/svg" viewBox="0 0 576 512"><!--! Font Awesome Pro 6.5.1 by @fontawesome - https://fontawesome.com License - https://fontawesome.com/license (Commercial License) Copyright 2023 Fonticons, Inc. --><path d="M424 0h-8V16h8 91.9L320.3 189 197.7 66.3l-5-5-5.6 4.4-184 144 9.9 12.6L191.4 82.7l123 123 5.3 5.3 5.6-5L528 26.7V120v8h16v-8V8 0h-8H424zM208 240V464H176V240h32zm-32-16H160v16V464v16h16 32 16V464 240 224H208 176zM80 336V464H48V336H80zM48 320H32v16V464v16H48 80 96V464 336 320H80 48zm256 48a128 128 0 1 1 256 0 128 128 0 1 1 -256 0zm272 0a144 144 0 1 0 -288 0 144 144 0 1 0 288 0zM392.1 335.5c-.5-8 3.7-13.5 11.7-17.6c8.3-4.2 19.3-6 28.1-5.8c11.2 .2 22.8 2.3 34.3 5l7.8 1.8 3.7-15.6-7.8-1.8c-9.4-2.2-19.6-4.2-29.8-5V280v-8H424v8 16.3c-8.9 .7-18.9 2.9-27.4 7.3c-11.5 5.9-21.6 16.4-20.4 32.9c.9 13.4 10.1 21.5 20.2 26.7c9.4 4.8 21.4 8 32.3 11l1.8 .5c12 3.2 22.7 6.2 30.5 10.6c7.5 4.2 10.9 8.8 11.1 14.9c.3 8.7-4.2 14.3-11.7 18.3c-7.9 4.1-18.7 5.7-28 5.5c-13.1-.4-25.6-4.2-39.2-8.3l0 0 0 0c-2.2-.7-4.4-1.3-6.7-2l-7.7-2.3-4.5 15.3 7.7 2.3c2.1 .6 4.2 1.3 6.3 1.9l0 0c11.2 3.4 23.3 7.1 35.9 8.5v18.1 8h16v-8V439.8c9.2-.6 19.1-2.7 27.6-7.1c11.5-5.9 20.9-16.6 20.4-33c-.4-13.9-9-22.7-19.2-28.4c-9.9-5.5-22.6-9-34.1-12.1l-1-.3c-11.7-3.1-22.1-6-30-10c-7.9-4.1-11.2-8.3-11.5-13.5z"/></svg>