<svg xmlns="http://www.w3.org/2000/svg" viewBox="0 0 512 512"><!--! Font Awesome Pro 6.5.1 by @fontawesome - https://fontawesome.com License - https://fontawesome.com/license (Commercial License) Copyright 2023 Fonticons, Inc. --><path d="M16 48H48V80H16V48zM0 32V48 80 96H16 48 64V80 48 32H48 16 0zm264 8V32H248v8V284.3L34.8 465.9l-6.1 5.2 10.4 12.2 6.1-5.2L256 298.5 466.8 478.1l6.1 5.2 10.4-12.2-6.1-5.2L264 284.3V40zM48 240v32H16V240H48zM16 224H0v16 32 16H16 48 64V272 240 224H48 16zm96-80h32v32H112V144zM96 128v16 32 16h16 32 16V176 144 128H144 112 96zM400 48V80H368V48h32zM368 32H352V48 80 96h16 32 16V80 48 32H400 368zm96 112h32v32H464V144zm-16-16v16 32 16h16 32 16V176 144 128H496 464 448zM400 240v32H368V240h32zm-32-16H352v16 32 16h16 32 16V272 240 224H400 368zM240 432h32v32H240V432zm-16-16v16 32 16h16 32 16V464 432 416H272 240 224z"/></svg>