<svg xmlns="http://www.w3.org/2000/svg" viewBox="0 0 512 512"><!--! Font Awesome Pro 6.5.1 by @fontawesome - https://fontawesome.com License - https://fontawesome.com/license (Commercial License) Copyright 2023 Fonticons, Inc. --><path d="M491.2 65.2l-6.2 5-160 128-5.4 4.3-5.1-4.7L191.6 82.6 21.1 222.2l-6.2 5.1L4.7 214.9l6.2-5.1 176-144 5.4-4.4 5.1 4.8L320.4 181.4 475 57.8l6.2-5 10 12.5zM80 336H48V464H80V336zM48 320H80 96v16V464v16H80 48 32V464 336 320H48zm128-80V464h32V240H176zm-16-16h16 32 16v16V464v16H208 176 160V464 240 224zm176 80H304V464h32V304zm-32-16h32 16v16V464v16H336 304 288V464 304 288h16zm128-48V464h32V240H432zm-16-16h16 32 16v16V464v16H464 432 416V464 240 224z"/></svg>