<svg xmlns="http://www.w3.org/2000/svg" viewBox="0 0 512 512"><!--! Font Awesome Pro 6.5.1 by @fontawesome - https://fontawesome.com License - https://fontawesome.com/license (Commercial License) Copyright 2023 Fonticons, Inc. --><path d="M16 32v8V464H504h8v16h-8H8 0v-8V40 32H16zm320 80H312 296 272V240h24 16 24V112zm0-16h16v16V240v16H336 312v56 8H296v-8V256H272 256V240 112 96h16 24V40 32h16v8V96h24zM440 208H424 400v96h24 16 24V208H440zm0-16h24 16v16 96 16H464 440v56 8H424v-8V320H400 384V304 208 192h16 24V136v-8h16v8 56zM168 144H144V304h24 16 24V144H184 168zm0-16V72 64h16v8 56h24 16v16V304v16H208 184v56 8H168v-8V320H144 128V304 144 128h16 24z"/></svg>