<svg xmlns="http://www.w3.org/2000/svg" viewBox="0 0 512 512"><!--! Font Awesome Pro 6.5.1 by @fontawesome - https://fontawesome.com License - https://fontawesome.com/license (Commercial License) Copyright 2023 Fonticons, Inc. --><path d="M288 32v8V64H496h16V80 208v16H496 288v24 8H272v-8V224H16 0V208 80 64H16 272V40 32h16zM160 80V208H272V80H160zm128 0V208H496V80H288zM144 80H16V208H144V80zM384 256v8 24H496h16v16V432v16H496 384v24 8H368v-8V448H16 0V432 304 288H16 368V264v-8h16zM224 304V432H368V304H224zm160 0V432H496V304H384zm-176 0H16V432H208V304z"/></svg>