<svg xmlns="http://www.w3.org/2000/svg" viewBox="0 0 576 512"><!--! Font Awesome Pro 6.5.1 by @fontawesome - https://fontawesome.com License - https://fontawesome.com/license (Commercial License) Copyright 2023 Fonticons, Inc. --><path d="M48 16V416H304V16H48zm0 416v64H304V432H48zM32 496V16 0H48 304h16V16 272h8c39.8 0 72 32.2 72 72v44c0 24.3 19.7 44 44 44s44-19.7 44-44V255.6c-40.4-4-72-38.1-72-79.6V136v-8h8 24V72 64h16v8 56h64V72 64h16v8 56h24 8v8 40c0 41.5-31.6 75.6-72 79.6V388c0 33.1-26.9 60-60 60s-60-26.9-60-60V344c0-30.9-25.1-56-56-56h-8V496l32 0v16H320 304 48 32 0V496l32 0zM544 144H528 464 448 432v32c0 35.3 28.7 64 64 64s64-28.7 64-64V144H544zM203.2 110.4l-4.8 6.4L136 200h96 16l-9.6 12.8-72 96-4.8 6.4-12.8-9.6 4.8-6.4L216 216H120 104l9.6-12.8 72-96 4.8-6.4 12.8 9.6z"/></svg>