<svg xmlns="http://www.w3.org/2000/svg" viewBox="0 0 576 512"><!--! Font Awesome Pro 6.5.1 by @fontawesome - https://fontawesome.com License - https://fontawesome.com/license (Commercial License) Copyright 2023 Fonticons, Inc. --><path d="M424 0h-8V16h8 91.9L320.3 189 197.7 66.3l-5-5-5.6 4.4-184 144 9.9 12.6L191.4 82.7l123 123 5.3 5.3 5.6-5L528 26.7V120v8h16v-8V8 0h-8H424zM208 240V464H176V240h32zm-32-16H160v16V464v16h16 32 16V464 240 224H208 176zM80 336V464H48V336H80zM48 320H32v16V464v16H48 80 96V464 336 320H80 48zm256 48a128 128 0 1 1 256 0 128 128 0 1 1 -256 0zm272 0a144 144 0 1 0 -288 0 144 144 0 1 0 288 0zm-200 0a56 56 0 1 1 112 0 56 56 0 1 1 -112 0zm128 0c0-17-5.9-32.6-15.7-44.9l21.4-21.4-11.3-11.3-21.4 21.4C464.6 301.9 449 296 432 296s-32.6 5.9-44.9 15.7l-21.4-21.4-11.3 11.3 21.4 21.4C365.9 335.4 360 351 360 368s5.9 32.6 15.7 44.9l-21.4 21.4 11.3 11.3 21.4-21.4C399.4 434.1 415 440 432 440s32.6-5.9 44.9-15.7l21.4 21.4 11.3-11.3-21.4-21.4C498.1 400.6 504 385 504 368z"/></svg>