<svg xmlns="http://www.w3.org/2000/svg" viewBox="0 0 576 512"><!--! Font Awesome Pro 6.5.1 by @fontawesome - https://fontawesome.com License - https://fontawesome.com/license (Commercial License) Copyright 2023 Fonticons, Inc. --><path d="M112 48V408H464V48H112zm368 0V408h32 8v16h-8H480 464 112 96 64 56V408h8H96V48 32h16H464h16V48zM16 352H64v16H16v96H560V368H512V352h48 16v16 96 16H560 16 0V464 368 352H16zM373.7 176.3L267 283l-5.7 5.7-5.7-5.7-53.3-53.3-5.7-5.7L208 212.7l5.7 5.7L261.3 266l101-101 5.7-5.7 11.3 11.3-5.7 5.7z"/></svg>