<svg xmlns="http://www.w3.org/2000/svg" viewBox="0 0 448 512"><!--! Font Awesome Pro 6.5.1 by @fontawesome - https://fontawesome.com License - https://fontawesome.com/license (Commercial License) Copyright 2023 Fonticons, Inc. --><path d="M16 48V464H432V48H16zM0 32H16 432h16V48 464v16H432 16 0V464 48 32zM64 88h64 64 64 64 64 8v8 64 64 64 64 64 8h-8H320 256 192 128 64 56v-8V352 288 224 160 96 88h8zm8 64h48V104H72v48zm64 0h48V104H136v48zm64 0h48V104H200v48zm64 0h48V104H264v48zm64 0h48V104H328v48zm0 16v48h48V168H328zm0 64v48h48V232H328zm0 64v48h48V296H328zm0 64v48h48V360H328zm-16 0H264v48h48V360zm-64 0H200v48h48V360zm-64 0H136v48h48V360zm-64 0H72v48h48V360zm0-16V296H72v48h48zm0-64V232H72v48h48zm0-64V168H72v48h48zm16 0h48V168H136v48zm64 0h48V168H200v48zm64 0h48V168H264v48zm0 16v48h48V232H264zm0 64v48h48V296H264zm-16 0H200v48h48V296zm-64 0H136v48h48V296zm0-16V232H136v48h48zm16 0h48V232H200v48z"/></svg>