<svg xmlns="http://www.w3.org/2000/svg" viewBox="0 0 256 512"><!--! Font Awesome Pro 6.5.1 by @fontawesome - https://fontawesome.com License - https://fontawesome.com/license (Commercial License) Copyright 2023 Fonticons, Inc. --><path d="M144 32a16 16 0 1 0 -32 0 16 16 0 1 0 32 0zM96 32a32 32 0 1 1 64 0A32 32 0 1 1 96 32zM56 224h8H74.7L19.2 120.1 29.5 109c4.4 1.9 9.3 3 14.5 3c16.5 0 30.4-11.1 34.7-26.3l14.6-1.8c6.9 12 19.9 20.1 34.7 20.1s27.8-8.1 34.7-20.1l14.6 1.8c4.3 15.2 18.2 26.3 34.7 26.3c5.2 0 10.1-1.1 14.5-3l10.3 11.1L181.3 224H192h8v16h-8l-14.9 0 18.8 144H179.8L161 240H95L76.2 384H60.1L78.9 240 64 240H56V224zm107.2 0l51.2-96.1c-.8 0-1.6 .1-2.4 .1c-18.7 0-35-9.8-44.2-24.6C157.7 113.6 143.6 120 128 120s-29.7-6.4-39.8-16.6C79 118.2 62.7 128 44 128c-.8 0-1.6 0-2.4-.1L92.8 224h70.4zM44.3 416H48 208h3.7l2.4 2.9 40 48 1.9 2.2V472v32 8h-8H8 0v-8V472v-2.9l1.9-2.2 40-48 2.4-2.9zm7.5 16L16 474.9V496H240V474.9L204.3 432H51.7z"/></svg>