<svg xmlns="http://www.w3.org/2000/svg" viewBox="0 0 448 512"><!--! Font Awesome Pro 6.5.1 by @fontawesome - https://fontawesome.com License - https://fontawesome.com/license (Commercial License) Copyright 2023 Fonticons, Inc. --><path d="M232 0V8 56h56 8V72h-8H232v88H440h8v8 56 1.6l-.6 1.5L381 384H363.6L432 222.4V176H232 216 16v46.4L84.4 384H67L.6 227.1 0 225.6V224 168v-8H8 216V72H160h-8V56h8 56V8 0h16zM48 496H400V475.5L360.9 432H87.1L48 475.5V496zm-16 0V469.3L80 416H368l48 53.3V496v16H400 48 32V496z"/></svg>