<svg xmlns="http://www.w3.org/2000/svg" viewBox="0 0 320 512"><!--! Font Awesome Pro 6.5.1 by @fontawesome - https://fontawesome.com License - https://fontawesome.com/license (Commercial License) Copyright 2023 Fonticons, Inc. --><path d="M24 96H16v8V232v2.9l1.9 2.2 38 45.6L49.5 384h16L72 280.5l.2-3.2-2-2.4L32 229.1V112H72v40 8h8 48 8v-8V112h47.5v40 8h8H240h8v-8V112h40V229.1l-38.1 45.8-2 2.4 .2 3.2L254.5 384h16l-6.3-101.3 38-45.6 1.9-2.2V232 104 96h-8H240h-8v8 40H199.5V104 96h-8H128h-8v8 40H88V104 96H80 24zM44.3 416l-2.4 2.9-40 48L0 469.1V472v32 8H8 312h8v-8V472v-2.9l-1.9-2.2-40-48-2.4-2.9H272 48 44.3zm7.5 16H268.3L304 474.9V496H16V474.9L51.7 432zM160 224c-17.7 0-32 14.3-32 32v40 8h8 48 8v-8V256c0-17.7-14.3-32-32-32zm-16 32c0-8.8 7.2-16 16-16s16 7.2 16 16v32H144V256z"/></svg>