<svg xmlns="http://www.w3.org/2000/svg" viewBox="0 0 320 512"><!--! Font Awesome Pro 6.5.1 by @fontawesome - https://fontawesome.com License - https://fontawesome.com/license (Commercial License) Copyright 2023 Fonticons, Inc. --><path d="M283.9 237.2c2.2-86.1-67.2-157-153.3-156.8l-98.2 .2v8.2l22.4 20.2 5.9 5.3-5.3 5.9-23 26L32 261.4l43 19.2 88.3-63.1 6.5-4.6 9.3 13-6.5 4.6L64 308.1l-.3 76h-16L48 304l0-4.1 3.3-2.4 8.6-6.1L20.7 273.9 16 271.8l0-5.2 .4-123.4 0-3 2-2.3 19.8-22.3L19 98.4 16.4 96V92.4 72.7v-8l8 0 106.1-.3c95.2-.2 171.7 78.1 169.4 173.2c-.3 12.9-2.1 25.8-5.4 38.3L266.3 384.1H249.8L279 272c3-11.3 4.6-23 4.9-34.7zM84 160a12 12 0 1 1 0 24 12 12 0 1 1 0-24zM48 416H272h3.7l2.4 2.9 40 48 1.9 2.2V472v32 8h-8H8 0v-8V472v-2.9l1.9-2.2 40-48 2.4-2.9H48zM16 474.9V496H304V474.9L268.3 432H51.7L16 474.9z"/></svg>