<svg xmlns="http://www.w3.org/2000/svg" viewBox="0 0 256 512"><!--! Font Awesome Pro 6.5.1 by @fontawesome - https://fontawesome.com License - https://fontawesome.com/license (Commercial License) Copyright 2023 Fonticons, Inc. --><path d="M136 8V0H120V8 32H88 80V48h8 32V96H56 40v16 16l36.9 96H64 56v16h8H78.7l-23 144H71.9l23-144h66.2l23 144h16.2l-23-144H192h8V224h-8H179.1L216 128V112 96H200 136V48h32 8V32h-8H136V8zM120 112h16 64v13l-38.1 99H94.1L56 125V112h64zM48 416H44.3l-2.4 2.9-40 48L0 469.1V472v32 8H8 248h8v-8V472v-2.9l-1.9-2.2-40-48-2.4-2.9H208 48zM16 474.9L51.7 432H204.3L240 474.9V496H16V474.9z"/></svg>