<svg xmlns="http://www.w3.org/2000/svg" viewBox="0 0 256 512"><!--! Font Awesome Pro 6.5.1 by @fontawesome - https://fontawesome.com License - https://fontawesome.com/license (Commercial License) Copyright 2023 Fonticons, Inc. --><path d="M128 240a64 64 0 1 0 0-128 64 64 0 1 0 0 128zm80-64c0 26.2-12.6 49.4-32 64h16 8v16h-8H178.9l15.4 128H178.1L162.8 256H128 93.2L77.9 384H61.8L77.1 256H64 56V240h8H80c-19.4-14.6-32-37.8-32-64c0-44.2 35.8-80 80-80s80 35.8 80 80zM48 416H208h3.7l2.4 2.9 40 48 1.9 2.2V472v32 8h-8H8 0v-8V472v-2.9l1.9-2.2 40-48 2.4-2.9H48zM16 474.9V496H240V474.9L204.3 432H51.7L16 474.9z"/></svg>