<svg xmlns="http://www.w3.org/2000/svg" viewBox="0 0 640 512"><!--! Font Awesome Pro 6.5.1 by @fontawesome - https://fontawesome.com License - https://fontawesome.com/license (Commercial License) Copyright 2023 Fonticons, Inc. --><path d="M392 32h-8V48h8 64v80H16 0v16V464v16H16 624h16V464 144 128H624 472V48h64 8V32h-8H464 392zm64 112h16H624V464H16V144H456zM96 80V96h8H248h8V80h-8H104 96zM464 208a96 96 0 1 1 0 192 96 96 0 1 1 0-192zm0 208a112 112 0 1 0 0-224 112 112 0 1 0 0 224zM108.1 236.1A96 96 0 1 1 243.9 371.9 96 96 0 1 1 108.1 236.1zM255.2 383.2A112 112 0 1 0 96.8 224.8 112 112 0 1 0 255.2 383.2zM472 240H456v8 56 8h16v-8V248v-8zM221.3 270.1l5.7-5.7-11.3-11.3-5.7 5.7-39.6 39.6-5.7 5.7L176 315.3l5.7-5.7 39.6-39.6z"/></svg>