<svg xmlns="http://www.w3.org/2000/svg" viewBox="0 0 448 512"><!--! Font Awesome Pro 6.5.1 by @fontawesome - https://fontawesome.com License - https://fontawesome.com/license (Commercial License) Copyright 2023 Fonticons, Inc. --><path d="M64 0h8H234.6C334.8 0 416 81.2 416 181.4c0 10.2-.9 20.4-2.6 30.4L383.9 385.3l-15.8-2.7 29.5-173.6c1.6-9.2 2.3-18.4 2.3-27.7C400 90 326 16 234.6 16H80V35.1l27.6 13.8 9.9 5-7.8 7.8L80 91.3l-.4 152.1 51.5 36.8 112-86.6 6.3-4.9 9.8 12.7-6.3 4.9L80 339.9l0 2.6L80 368v16H64V368l0-25.4 0-5.1 0-1.1 0-.3 0-.1 0 0v0 0 0l0-3.9 3.1-2.4 50.7-39.2L66.9 254.1l-3.4-2.4 0-4.1L64 88l0-3.3 2.3-2.3L90.5 58.2l-22.1-11L64 44.9V40 8 0zm64 144a16 16 0 1 1 32 0 16 16 0 1 1 -32 0zM32 496H416V470.6L377.4 432H70.6L32 470.6V496zm-16 0V464l48-48H384l48 48v32 16H416 32 16V496z"/></svg>