<svg xmlns="http://www.w3.org/2000/svg" viewBox="0 0 448 512"><!--! Font Awesome Pro 6.5.1 by @fontawesome - https://fontawesome.com License - https://fontawesome.com/license (Commercial License) Copyright 2023 Fonticons, Inc. --><path d="M16 368H432V352c0-89.5-48.3-153.6-100.9-202.3c-21-19.4-42.2-36-61.1-50.8l0 0c-4.9-3.8-9.7-7.5-14.2-11.2c-10.9-8.6-21-16.9-28.9-24.8c-1-1-2-2-3-3c-1 1-2 2-3 3c-7.9 7.8-17.9 16.1-28.9 24.8c-4.6 3.6-9.3 7.3-14.2 11.2c-19 14.8-40.1 31.4-61.1 50.8C64.3 198.4 16 262.5 16 352v16zm0 16v25.4L70.6 464H377.4L432 409.4V384H16zM168.4 86.2c19.1-15 35.4-27.7 45.5-38.8c5-5.5 8.5-10.6 10.1-15.4c1.6 4.8 5.1 9.9 10.1 15.4c10.1 11.1 26.4 23.8 45.5 38.8C346.3 138.2 448 217.7 448 352v32 32l-64 64H64L0 416V384 352C0 217.7 101.7 138.2 168.4 86.2z"/></svg>