<svg xmlns="http://www.w3.org/2000/svg" viewBox="0 0 256 512"><!--! Font Awesome Pro 6.5.1 by @fontawesome - https://fontawesome.com License - https://fontawesome.com/license (Commercial License) Copyright 2023 Fonticons, Inc. --><path d="M96 32H88V48h8 9.7c-7 6.4-15.4 14.8-23.9 24.9C61.3 97.6 40 133.3 40 176c0 21.4 8 37 17.8 48H56 48v16h8H68.3L51.6 384H67.7L84.4 240h87.3l16.6 144h16.1L187.7 240H200h8V224h-8-1.8c9.8-11 17.8-26.6 17.8-48c0-42.7-21.3-78.4-41.9-103.1c-8.4-10.1-16.8-18.5-23.9-24.9H160h8V32h-8H128h0H96zm78.1 192l0 0H81.9l0 0C69.7 215.7 56 201 56 176c0-37.3 18.7-69.6 38.1-92.9c9.7-11.6 19.3-20.8 26.6-27.1c2.9-2.5 5.3-4.5 7.3-6c1.9 1.5 4.4 3.5 7.3 6c7.3 6.3 16.9 15.5 26.6 27.1c4.6 5.6 9.2 11.6 13.5 18.2l-45.1 45.1-5.7 5.7L136 163.3l5.7-5.7 42.2-42.2c9.5 17.8 16.1 38.3 16.1 60.5c0 25-13.7 39.7-25.9 48zM48 416H44.3l-2.4 2.9-40 48L0 469.1V472v32 8H8 248h8v-8V472v-2.9l-1.9-2.2-40-48-2.4-2.9H208 48zM16 474.9L51.7 432H204.3L240 474.9V496H16V474.9z"/></svg>