<svg xmlns="http://www.w3.org/2000/svg" viewBox="0 0 640 512"><!--! Font Awesome Pro 6.5.1 by @fontawesome - https://fontawesome.com License - https://fontawesome.com/license (Commercial License) Copyright 2023 Fonticons, Inc. --><path d="M248 32h8V48h-8H184v80H624h16v16V464v16H624 16 0V464 144 128H16 168V48H104 96V32h8 72 72zM184 144H168 16V464H624V144H184zM544 80V96h-8H392h-8V80h8H536h8zM176 400a96 96 0 1 0 0-192 96 96 0 1 0 0 192zm0-208a112 112 0 1 1 0 224 112 112 0 1 1 0-224zM531.9 371.9A96 96 0 1 0 396.1 236.1 96 96 0 1 0 531.9 371.9zM384.8 224.8A112 112 0 1 1 543.2 383.2 112 112 0 1 1 384.8 224.8zM168 240h16v8 56 8H168v-8V248v-8zm341.3 30.1l-39.6 39.6-5.7 5.7L452.7 304l5.7-5.7 39.6-39.6 5.7-5.7 11.3 11.3-5.7 5.7z"/></svg>