<svg xmlns="http://www.w3.org/2000/svg" viewBox="0 0 512 512"><!--! Font Awesome Pro 6.5.1 by @fontawesome - https://fontawesome.com License - https://fontawesome.com/license (Commercial License) Copyright 2023 Fonticons, Inc. --><path d="M136 0V8 32h32 8V48h-8H136V96h64 16v16 16l-36.9 96H192h8v16h-8H177.3l23 144H184.1l-23-144H94.9l-23 144H55.7l23-144H64 56V224h8H76.9L40 128V112 96H56h64V48H88 80V32h8 32V8 0h16zM56 125l38.1 99h67.9L200 125V112H136 120 56v13zM44.3 416H48 208h3.7l2.4 2.9 40 48 1.9 2.2V472v32 8h-8H8 0v-8V472v-2.9l1.9-2.2 40-48 2.4-2.9zm7.5 16L16 474.9V496H240V474.9L204.3 432H51.7zM296 192h8 40 8v8 24h16V200v-8h8 48 8v8 24h16V200v-8h8 40 8v8 88 3.3l-2.3 2.3L464 331.3V384H448V328v-3.3l2.3-2.3L488 284.7V208H464v24 8h-8H424h-8v-8V208H384v24 8h-8H344h-8v-8V208H312v76.7l37.7 37.7 2.3 2.3V328v56H336V331.3l-37.7-37.7-2.3-2.3V288 200v-8zm35.9 224H336 464h4.1l2.4 3.4 40 56 1.5 2.1V480v24 8h-8H296h-8v-8V480v-2.6l1.5-2.1 40-56 2.4-3.4zm8.2 16L304 482.6V496H496V482.6L459.9 432H340.1z"/></svg>