<svg xmlns="http://www.w3.org/2000/svg" viewBox="0 0 320 512"><!--! Font Awesome Pro 6.5.1 by @fontawesome - https://fontawesome.com License - https://fontawesome.com/license (Commercial License) Copyright 2023 Fonticons, Inc. --><path d="M256 144A96 96 0 1 0 64 144a96 96 0 1 0 192 0zm16 0c0 40.7-21.8 76.4-54.3 96h4.9H256h8v16h-8H225.7l24.8 128H234.2L209.4 256H160 110.6L85.8 384H69.5L94.3 256H64 56V240h8H97.4h4.9C69.8 220.4 48 184.7 48 144C48 82.1 98.1 32 160 32s112 50.1 112 112zM16 496H304V475.5L264.9 432H55.1L16 475.5V496zM0 496V469.3L48 416H272l48 53.3V496v16H304 16 0V496z"/></svg>