<svg xmlns="http://www.w3.org/2000/svg" viewBox="0 0 640 512"><!--! Font Awesome Pro 6.5.1 by @fontawesome - https://fontawesome.com License - https://fontawesome.com/license (Commercial License) Copyright 2023 Fonticons, Inc. --><path d="M80 32C35.8 32 0 67.8 0 112V400c0 44.2 35.8 80 80 80s80-35.8 80-80H144c0 35.3-28.7 64-64 64s-64-28.7-64-64V112c0-35.3 28.7-64 64-64s64 28.7 64 64h16c0-44.2-35.8-80-80-80zm144 8V32H208v8V240v16V472v8h16v-8V256H384V472v8h16v-8V256 240 40 32H384v8V240H224V40zm232-8h-8v8V472v8h16v-8V256H600h8V240h-8H464V48H632h8V32h-8H456z"/></svg>