<svg xmlns="http://www.w3.org/2000/svg" viewBox="0 0 640 512"><!--! Font Awesome Pro 6.5.1 by @fontawesome - https://fontawesome.com License - https://fontawesome.com/license (Commercial License) Copyright 2023 Fonticons, Inc. --><path d="M115 64a48 48 0 1 1 96 0 48 48 0 1 1 -96 0zm112 0A64 64 0 1 0 99 64a64 64 0 1 0 128 0zm-.8 188.6l-3.4-7.2-14.5 6.8 3.4 7.2L270.3 384H235 187 139 91 55.6l58.6-124.6 3.4-7.2-14.5-6.8-3.4 7.2-64 136L30.3 400H43 83V504v8h8 48 8v-8V400h32V504v8h8 48 8v-8V400h40 12.6l-5.4-11.4-64-136zM99 400h32v96H99V400zm128 0v96H195V400h32zM107.3 160l-2.3 3.9-84.9 144L16 314.8 29.8 323l4.1-6.9L116.4 176h93l82.6 140.1 4.1 6.9 13.8-8.1-4.1-6.9-84.9-144-2.3-3.9H214 111.9h-4.6zM435 64a48 48 0 1 1 96 0 48 48 0 1 1 -96 0zm112 0A64 64 0 1 0 419 64a64 64 0 1 0 128 0zM423.9 160h-4.8l-2.3 4.2-76.9 144-3.8 7.1 14.1 7.5 3.8-7.1L428.7 176H537.2l74.7 139.8 3.8 7.1 14.1-7.5-3.8-7.1-76.9-144-2.3-4.2H542 423.9zM419 280H403v8V504c0 4.4 3.6 8 8 8h48c4.4 0 8-3.6 8-8V384h32V504c0 4.4 3.6 8 8 8h48c4.4 0 8-3.6 8-8V288v-8H547v8V496H515V376c0-4.4-3.6-8-8-8H459c-4.4 0-8 3.6-8 8V496H419V288v-8z"/></svg>