<svg xmlns="http://www.w3.org/2000/svg" viewBox="0 0 320 512"><!--! Font Awesome Pro 6.5.1 by @fontawesome - https://fontawesome.com License - https://fontawesome.com/license (Commercial License) Copyright 2023 Fonticons, Inc. --><path d="M160 112a48 48 0 1 0 0-96 48 48 0 1 0 0 96zM160 0a64 64 0 1 1 0 128A64 64 0 1 1 160 0zM96.1 160h4.8H219.1h4.8l2.3 4.2 76.9 144 3.8 7.1-14.1 7.5-3.8-7.1L214.3 176H105.7L31.1 315.8l-3.8 7.1-14.1-7.5 3.8-7.1 76.9-144 2.3-4.2zM96 288V496h32V376c0-4.4 3.6-8 8-8h48c4.4 0 8 3.6 8 8V496h32V288v-8h16v8V504c0 4.4-3.6 8-8 8H184c-4.4 0-8-3.6-8-8V384H144V504c0 4.4-3.6 8-8 8H88c-4.4 0-8-3.6-8-8V288v-8H96v8z"/></svg>