<svg xmlns="http://www.w3.org/2000/svg" viewBox="0 0 384 512"><!--! Font Awesome Pro 6.5.1 by @fontawesome - https://fontawesome.com License - https://fontawesome.com/license (Commercial License) Copyright 2023 Fonticons, Inc. --><path d="M192 16a48 48 0 1 1 0 96 48 48 0 1 1 0-96zm0 112A64 64 0 1 0 192 0a64 64 0 1 0 0 128zm-87.3 64h4.2H275.1h4.2l2.4-3.5 65.7-96 4.5-6.6-13.2-9-4.5 6.6L270.9 176H113.1L49.8 83.5l-4.5-6.6-13.2 9 4.5 6.6 65.7 96 2.4 3.5zM128 232v-8H112v8V504v8h8 48 8v-8V384h32V504v8h8 48 8v-8V232v-8H256v8V496H224V376v-8h-8H168h-8v8V496H128V232z"/></svg>