<svg xmlns="http://www.w3.org/2000/svg" viewBox="0 0 576 512"><!--! Font Awesome Pro 6.5.1 by @fontawesome - https://fontawesome.com License - https://fontawesome.com/license (Commercial License) Copyright 2023 Fonticons, Inc. --><path d="M224 64a48 48 0 1 0 -96 0 48 48 0 1 0 96 0zM112 64a64 64 0 1 1 128 0A64 64 0 1 1 112 64zm4.9 96H235.1h4.8l2.3 4.2 76.9 144-14.1 7.5L230.3 176H121.7L47.1 315.8l-14.1-7.5 76.9-144 2.3-4.2h4.8zM112 280v8V496h40V376v-8h8 32 8v8V496h40V288v-8h16v8V504v8h-8H192h-8v-8V384H168V504v8h-8H104 96v-8V288v-8h16zM448 144V128 16H432V128v16H416v16 32 16V384h30.9H470h2 56V368H480 464V352 325.3 313.8 291.5 269.3 256 144H448zM416 496h72.9L455 405.6l-2.1-5.6H416v96zm56-96h-2l6 16 30 80 6 16H494.9 416 400V496 416 400H384 368 352V384 208 192h16 16 16V176 160 144 128h16V112 32 16H400V0h16 16 16 16V16v96 16h16v16 32 16 60.5V256v8 5.3l16-5.3V208 192h16 16 16v16 96l-64 21.3V336v16h16 32 16v16 16 16H528 487.1 472zm8-91.5l48-16V208H512v56 11.5l-10.9 3.6-16 5.3-5.1 1.7v22.3zM368 384h32V208H368V384z"/></svg>