<svg xmlns="http://www.w3.org/2000/svg" viewBox="0 0 320 512"><!--! Font Awesome Pro 6.5.1 by @fontawesome - https://fontawesome.com License - https://fontawesome.com/license (Commercial License) Copyright 2023 Fonticons, Inc. --><path d="M160 112a48 48 0 1 0 0-96 48 48 0 1 0 0 96zM160 0a64 64 0 1 1 0 128A64 64 0 1 1 160 0zm59.8 245.4l3.4 7.2 64 136 5.4 11.4H280 240V504v8h-8H184h-8v-8V400H144V504v8h-8H88 80v-8V400H40 27.4l5.4-11.4 64-136 3.4-7.2 14.5 6.8-3.4 7.2L52.6 384H88h48 48 48 35.4L208.8 259.4l-3.4-7.2 14.5-6.8zM128 400H96v96h32V400zm64 0v96h32V400H192zM108.9 160H211.1h4.6l2.3 3.9 84.9 144 4.1 6.9L293.2 323l-4.1-6.9L206.5 176h-93L30.9 316.1 26.8 323 13 314.8l4.1-6.9 84.9-144 2.3-3.9h4.6z"/></svg>