<svg xmlns="http://www.w3.org/2000/svg" viewBox="0 0 640 512"><!--! Font Awesome Pro 6.5.1 by @fontawesome - https://fontawesome.com License - https://fontawesome.com/license (Commercial License) Copyright 2023 Fonticons, Inc. --><path d="M328 8V0H312V8 48H264h-8V64h8 48v59.6L163.7 217.2l-3.7 2.4V224 496H16V364.3l112-74.7V270.4l-4.4 3-120 80L0 355.7V360 504v8H8 176h8v0h72 16 96 16 88 8v0H632h8v-8V360v-4.3l-3.6-2.4-120-80-4.4-3v19.2l112 74.7V496H480V224v-4.4l-3.7-2.4L328 123.6V64h48 8V48h-8H328V8zM464 496h-8v0H384V384c0-35.3-28.7-64-64-64s-64 28.7-64 64V496H176V228.4l144-90.9 144 90.9V496zM368 384V496H272V384c0-26.5 21.5-48 48-48s48 21.5 48 48z"/></svg>