<svg xmlns="http://www.w3.org/2000/svg" viewBox="0 0 512 512"><!--! Font Awesome Pro 6.5.1 by @fontawesome - https://fontawesome.com License - https://fontawesome.com/license (Commercial License) Copyright 2023 Fonticons, Inc. --><path d="M496 256A240 240 0 1 0 16 256a240 240 0 1 0 480 0zM0 256a256 256 0 1 1 512 0A256 256 0 1 1 0 256zM200 96H312h8v8V256c0 35.3-28.7 64-64 64s-64-28.7-64-64V104 96h8zm8 160c0 26.5 21.5 48 48 48s48-21.5 48-48V240H264h-8V224h8 40V176H264h-8V160h8 40V112H208V256zm-64-32v8 24c0 61.9 50.1 112 112 112s112-50.1 112-112V232v-8h16v8 24c0 68-53 123.6-120 127.8V408v8H248v-8V383.8C181 379.6 128 324 128 256V232v-8h16z"/></svg>