<svg xmlns="http://www.w3.org/2000/svg" viewBox="0 0 512 512"><!--! Font Awesome Pro 6.5.1 by @fontawesome - https://fontawesome.com License - https://fontawesome.com/license (Commercial License) Copyright 2023 Fonticons, Inc. --><path d="M256 16a240 240 0 1 1 0 480 240 240 0 1 1 0-480zm0 496A256 256 0 1 0 256 0a256 256 0 1 0 0 512zM224 256V240H208 144v-1.4l112-112 112 112V240H304 288v16V368H224V256zm20.7-140.7L128 232v8 16h16 48 16v16 96 16h16 64 16V368 272 256h16 48 16V240v-8L267.3 115.3 256 104l-11.3 11.3z"/></svg>