<svg xmlns="http://www.w3.org/2000/svg" viewBox="0 0 512 512"><!--! Font Awesome Pro 6.5.1 by @fontawesome - https://fontawesome.com License - https://fontawesome.com/license (Commercial License) Copyright 2023 Fonticons, Inc. --><path d="M256 16a240 240 0 1 1 0 480 240 240 0 1 1 0-480zm0 496A256 256 0 1 0 256 0a256 256 0 1 0 0 512zM211.1 128l-2.2 4.4L195.1 160H136h-8v8V344v8h8H376h8v-8V168v-8h-8H316.9l-13.8-27.6-2.2-4.4H296 216h-4.9zm9.9 16h70.1l13.8 27.6 2.2 4.4H312h56V336H144V176h56 4.9l2.2-4.4L220.9 144zM256 304a48 48 0 1 0 0-96 48 48 0 1 0 0 96zm-32-48a32 32 0 1 1 64 0 32 32 0 1 1 -64 0z"/></svg>