<svg xmlns="http://www.w3.org/2000/svg" viewBox="0 0 512 512"><!--! Font Awesome Pro 6.5.1 by @fontawesome - https://fontawesome.com License - https://fontawesome.com/license (Commercial License) Copyright 2023 Fonticons, Inc. --><path d="M496 256A240 240 0 1 0 16 256a240 240 0 1 0 480 0zM0 256a256 256 0 1 1 512 0A256 256 0 1 1 0 256zm144-96H368h16v16V336v16H368 144 128V336 176 160h16zm224 39.5V176H144v23.5l3.9 2.2L256 262.8l108.1-61.1 3.9-2.2zm0 18.4L259.9 279l-3.9 2.2-3.9-2.2L144 217.9V336H368V217.9z"/></svg>