<svg xmlns="http://www.w3.org/2000/svg" viewBox="0 0 512 512"><!--! Font Awesome Pro 6.5.1 by @fontawesome - https://fontawesome.com License - https://fontawesome.com/license (Commercial License) Copyright 2023 Fonticons, Inc. --><path d="M256 16a240 240 0 1 0 0 480 240 240 0 1 0 0-480zm0 496A256 256 0 1 1 256 0a256 256 0 1 1 0 512zM224 256v16H208 144v1.4l112 112 112-112V272H304 288V256 144H224V256zm20.7 140.7L128 280v-8V256h16 48 16V240 144 128h16 64 16v16 96 16h16 48 16v16 8L267.3 396.7 256 408l-11.3-11.3z"/></svg>