<svg xmlns="http://www.w3.org/2000/svg" viewBox="0 0 512 512"><!--! Font Awesome Pro 6.5.1 by @fontawesome - https://fontawesome.com License - https://fontawesome.com/license (Commercial License) Copyright 2023 Fonticons, Inc. --><path d="M256 16a240 240 0 1 1 0 480 240 240 0 1 1 0-480zm0 496A256 256 0 1 0 256 0a256 256 0 1 0 0 512zM192 96v8V256c0 35.3 28.7 64 64 64s64-28.7 64-64V104 96h-8H200h-8zm16 16h96V256c0 26.5-21.5 48-48 48s-48-21.5-48-48V112zM144 232v-8H128v8 24c0 68 53 123.6 120 127.8V408v8h16v-8V383.8C331 379.6 384 324 384 256V232v-8H368v8 24c0 61.9-50.1 112-112 112s-112-50.1-112-112V232z"/></svg>