<svg xmlns="http://www.w3.org/2000/svg" viewBox="0 0 512 512"><!--! Font Awesome Pro 6.5.1 by @fontawesome - https://fontawesome.com License - https://fontawesome.com/license (Commercial License) Copyright 2023 Fonticons, Inc. --><path d="M256 16a240 240 0 1 1 0 480 240 240 0 1 1 0-480zm0 496A256 256 0 1 0 256 0a256 256 0 1 0 0 512zm72-384H168h-8v16h8H306.7l-112 98-2.7 2.4V256l8 0 79.5-.4c31.1-.1 56.4 25.1 56.4 56.2c0 31-25.2 56.2-56.2 56.2H208.7c-12.1 0-23.2-6.8-28.6-17.7l-4.9-9.9-3.6-7.2-14.3 7.2 3.6 7.2 4.9 9.9c8.1 16.3 24.8 26.5 42.9 26.5h71.1c39.9 0 72.2-32.3 72.2-72.2c0-40-32.5-72.4-72.5-72.2l-58.1 .3L333.3 142l2.7-2.4V128h-8z"/></svg>