<svg xmlns="http://www.w3.org/2000/svg" viewBox="0 0 512 512"><!--! Font Awesome Pro 6.5.1 by @fontawesome - https://fontawesome.com License - https://fontawesome.com/license (Commercial License) Copyright 2023 Fonticons, Inc. --><path d="M496 256A240 240 0 1 0 16 256a240 240 0 1 0 480 0zM0 256a256 256 0 1 1 512 0A256 256 0 1 1 0 256zm345.4-48L256 118.6 166.6 208H144L244.7 107.3 256 96l11.3 11.3L368 208H345.4zM160 304v8.6l96 82.3 96-82.3V304H160zm-16 16V304 288h16H352h16v16 16L256 416 144 320z"/></svg>