<svg xmlns="http://www.w3.org/2000/svg" viewBox="0 0 512 512"><!--! Font Awesome Pro 6.5.1 by @fontawesome - https://fontawesome.com License - https://fontawesome.com/license (Commercial License) Copyright 2023 Fonticons, Inc. --><path d="M496 256A240 240 0 1 0 16 256a240 240 0 1 0 480 0zM0 256a256 256 0 1 1 512 0A256 256 0 1 1 0 256zM208 96v8 24h96V104 96h16v8 24h48 16v16 64 16V368v16H368 144 128V368 224 208 144 128h16 48V104 96h16zm-16 72V144H144v64H368V144H320v24 8H304v-8V144H208v24 8H192v-8zm176 56H144V368H368V224z"/></svg>