<svg xmlns="http://www.w3.org/2000/svg" viewBox="0 0 512 512"><!--! Font Awesome Pro 6.5.1 by @fontawesome - https://fontawesome.com License - https://fontawesome.com/license (Commercial License) Copyright 2023 Fonticons, Inc. --><path d="M256 16a240 240 0 1 1 0 480 240 240 0 1 1 0-480zm0 496A256 256 0 1 0 256 0a256 256 0 1 0 0 512zM176 128v8 44.7c0 14.5 5.6 28.3 15.6 38.8l22.2 23.1-39.3 27.7c-19.1 13.5-30.5 35.4-30.5 58.8V376v8h8H256h16 3.9l2.4-3.1L309 341.8 349.5 384h22.2L319 329.1l47.3-60.2 4.9-6.3-12.6-9.9-4.9 6.3-45.9 58.4-69.6-72.5 37.5-26.4c12.7-9 20.3-23.6 20.3-39.2V136v-8h-8H184h-8zm51 105.3l-23.9-24.9C196 200.9 192 191 192 180.7V144h88v35.3c0 10.4-5.1 20.1-13.5 26.1L227 233.3zm-2 21l72.8 75.9L268.1 368H160V329.2c0-18.2 8.8-35.3 23.7-45.7L225 254.3z"/></svg>