<svg xmlns="http://www.w3.org/2000/svg" viewBox="0 0 512 512"><!--! Font Awesome Pro 6.5.1 by @fontawesome - https://fontawesome.com License - https://fontawesome.com/license (Commercial License) Copyright 2023 Fonticons, Inc. --><path d="M256 16a240 240 0 1 1 0 480 240 240 0 1 1 0-480zm0 496A256 256 0 1 0 256 0a256 256 0 1 0 0 512zM240 176V144h32v32H240zm-16-48v16 32 16h16 32 16V176 144 128H272 240 224zM152 248h-8v16h8H360h8V248h-8H152zM272 368H240V336h32v32zm-32-48H224v16 32 16h16 32 16V368 336 320H272 240z"/></svg>