<svg xmlns="http://www.w3.org/2000/svg" viewBox="0 0 512 512"><!--! Font Awesome Pro 6.5.1 by @fontawesome - https://fontawesome.com License - https://fontawesome.com/license (Commercial License) Copyright 2023 Fonticons, Inc. --><path d="M256 16a240 240 0 1 1 0 480 240 240 0 1 1 0-480zm0 496A256 256 0 1 0 256 0a256 256 0 1 0 0 512zM160 128v8V248v8 8V376v8h8H292c37.6 0 68-30.4 68-68c0-31.6-21.6-58.2-50.9-65.8C325.4 237.8 336 218.1 336 196c0-37.6-30.4-68-68-68H168h-8zm160 68c0 28.7-23.3 52-52 52H176V144h92c28.7 0 52 23.3 52 52zM176 368V264h92 24c28.7 0 52 23.3 52 52s-23.3 52-52 52H176z"/></svg>