<svg xmlns="http://www.w3.org/2000/svg" viewBox="0 0 512 512"><!--! Font Awesome Pro 6.5.1 by @fontawesome - https://fontawesome.com License - https://fontawesome.com/license (Commercial License) Copyright 2023 Fonticons, Inc. --><path d="M16 256a240 240 0 1 1 480 0A240 240 0 1 1 16 256zm496 0A256 256 0 1 0 0 256a256 256 0 1 0 512 0zM345.4 304L256 393.4 166.6 304H144L244.7 404.7 256 416l11.3-11.3L368 304H345.4zM160 208v-8.6l96-82.3 96 82.3V208H160zm-16-16v16 16h16H352h16V208 192L256 96 144 192z"/></svg>