<svg xmlns="http://www.w3.org/2000/svg" viewBox="0 0 512 512"><!--! Font Awesome Pro 6.5.1 by @fontawesome - https://fontawesome.com License - https://fontawesome.com/license (Commercial License) Copyright 2023 Fonticons, Inc. --><path d="M496 256A240 240 0 1 0 16 256a240 240 0 1 0 480 0zM0 256a256 256 0 1 1 512 0A256 256 0 1 1 0 256zM267.6 136c-24.7 0-44.6 20.1-44.4 44.7l.4 59.3H280h8v16h-8H223.6l.4 57.3 0 3.4-2.4 2.4L187.7 352H344h8v16h-8H168 148.3l14.1-13.7L208 310l-.3-54H168h-8V240h8 39.5l-.4-59.2c-.2-33.5 26.9-60.8 60.4-60.8c9.4 0 18.6 2.2 27 6.4l20.9 10.5 7.2 3.6-7.2 14.3-7.2-3.6-20.9-10.5c-6.2-3.1-13-4.7-19.9-4.7z"/></svg>