<svg xmlns="http://www.w3.org/2000/svg" viewBox="0 0 512 512"><!--! Font Awesome Pro 6.5.1 by @fontawesome - https://fontawesome.com License - https://fontawesome.com/license (Commercial License) Copyright 2023 Fonticons, Inc. --><path d="M496 256A240 240 0 1 0 16 256a240 240 0 1 0 480 0zM0 256a256 256 0 1 1 512 0A256 256 0 1 1 0 256zm160-96h8 16 12l21.6-28.8L220 128h4 64 4l2.4 3.2L316 160h12 16 8 8v16h-8-9.1L328 384H184L169.1 176H160h-8V160h8zm56 0h80l-12-16H228l-12 16zm110.8 16H185.2l13.7 192H313.1l13.7-192z"/></svg>