<svg xmlns="http://www.w3.org/2000/svg" viewBox="0 0 512 512"><!--! Font Awesome Pro 6.5.1 by @fontawesome - https://fontawesome.com License - https://fontawesome.com/license (Commercial License) Copyright 2023 Fonticons, Inc. --><path d="M256 16a240 240 0 1 1 0 480 240 240 0 1 1 0-480zm0 496A256 256 0 1 0 256 0a256 256 0 1 0 0 512zm60.7-332.7L328 168l-11.3-11.3L304 144H160 144v16V304l12.7 12.7L168 328l11.3-11.3 25.4-25.4L216 280l11.3 11.3 73.4 73.4L312 376l11.3-11.3 41.4-41.4L376 312l-11.3-11.3-73.4-73.4L280 216l11.3-11.3 25.4-25.4zm-48 48L353.4 312 312 353.4l-84.7-84.7L216 257.4l-11.3 11.3L168 305.4l-8-8V160H297.4l8 8-36.7 36.7L257.4 216l11.3 11.3z"/></svg>