<svg xmlns="http://www.w3.org/2000/svg" viewBox="0 0 512 512"><!--! Font Awesome Pro 6.5.1 by @fontawesome - https://fontawesome.com License - https://fontawesome.com/license (Commercial License) Copyright 2023 Fonticons, Inc. --><path d="M496 256A240 240 0 1 0 16 256a240 240 0 1 0 480 0zM0 256a256 256 0 1 1 512 0A256 256 0 1 1 0 256zM280 136V376v8H264v-8V136v-8h16v8zM152 168V344v8H136v-8V168v-8h16v8zm192 24V320v8H328v-8V192v-8h16v8zM216 208v96 8H200v-8V208v-8h16v8zm192 24v48 8H392v-8V232v-8h16v8z"/></svg>