<svg xmlns="http://www.w3.org/2000/svg" viewBox="0 0 512 512"><!--! Font Awesome Pro 6.5.1 by @fontawesome - https://fontawesome.com License - https://fontawesome.com/license (Commercial License) Copyright 2023 Fonticons, Inc. --><path d="M496 256A240 240 0 1 0 16 256a240 240 0 1 0 480 0zM0 256a256 256 0 1 1 512 0A256 256 0 1 1 0 256zM198.3 374.9L220 288l4-16H207.5 160 144V256v-8L299.6 127.8 320 112l-6.3 25.1L292 224l-4 16h16.5H352h16v16 8L212.4 384.2 192 400l6.3-25.1zM224 256h20.5l-5 19.9-20.8 83.3L352 256.1V256H288 267.5l5-19.9 20.8-83.3L160 255.9v.1h64z"/></svg>