<svg xmlns="http://www.w3.org/2000/svg" viewBox="0 0 512 512"><!--! Font Awesome Pro 6.5.1 by @fontawesome - https://fontawesome.com License - https://fontawesome.com/license (Commercial License) Copyright 2023 Fonticons, Inc. --><path d="M496 256A240 240 0 1 0 16 256a240 240 0 1 0 480 0zM0 256a256 256 0 1 1 512 0A256 256 0 1 1 0 256zm161.5 24c-1.6-7.5-2.4-15.3-2.4-23.2c0-8.5 .9-16.8 2.7-24.8H120V216h46.7c16.3-42.1 57.3-72 105.2-72H313h8v16h-8H271.9c-38.9 0-72.4 22.9-87.8 56H312v16H178.3c-2.1 7.9-3.2 16.2-3.2 24.8c0 8 1 15.8 2.8 23.2H312v16H183.4c15.1 33.9 49 57.5 88.5 57.5H313h8v16h-8H271.9c-48.5 0-89.8-30.6-105.7-73.5H120V280h41.5z"/></svg>