<svg xmlns="http://www.w3.org/2000/svg" viewBox="0 0 512 512"><!--! Font Awesome Pro 6.5.1 by @fontawesome - https://fontawesome.com License - https://fontawesome.com/license (Commercial License) Copyright 2023 Fonticons, Inc. --><path d="M256 16a240 240 0 1 1 0 480 240 240 0 1 1 0-480zm0 496A256 256 0 1 0 256 0a256 256 0 1 0 0 512zm48-336V336H144V176H304zM144 160H128v16V336v16h16H304h16V336 300.7l69.9 19.1 10.1 2.8V312 200 189.5l-10.1 2.8L320 211.3V176 160H304 144zm176 67.9l64-17.5v91.1l-64-17.5V227.9z"/></svg>