<svg xmlns="http://www.w3.org/2000/svg" viewBox="0 0 512 512"><!--! Font Awesome Pro 6.5.1 by @fontawesome - https://fontawesome.com License - https://fontawesome.com/license (Commercial License) Copyright 2023 Fonticons, Inc. --><path d="M256 16a240 240 0 1 1 0 480 240 240 0 1 1 0-480zm0 496A256 256 0 1 0 256 0a256 256 0 1 0 0 512zM117.6 144l66.7 250.1 1.6 5.9H198l1.7-5.7L256 204.2l56.3 190.1L314 400h12.1l1.6-5.9L394.4 144H377.9L319.6 362.5 263.7 173.7 259.6 160h-7.2l-4.1 13.7L192.4 362.5 134.1 144H117.6z"/></svg>