<svg xmlns="http://www.w3.org/2000/svg" viewBox="0 0 640 512"><!--! Font Awesome Pro 6.5.1 by @fontawesome - https://fontawesome.com License - https://fontawesome.com/license (Commercial License) Copyright 2023 Fonticons, Inc. --><path d="M80 8V0H64V8 64H8 0v8V504v8H8 224V496H16V80H64 80h80 16 48V64H176V8 0H160V8 64H80V8zM496 160H480V144 16 0H464 272 256V16 160 496v16h16H480 624h16V496 176 160H624 496zM464 16V160v16h16H624V496H480 272V160 16H464zM328 408h8 64 8v-8V336v-8h-8H336h-8v8 64 8zm16-16V344h48v48H344zM336 72h-8v8 64 8h8 64 8v-8V80 72h-8H336zm8 64V88h48v48H344zM328 280h8 64 8v-8V208v-8h-8H336h-8v8 64 8zm16-16V216h48v48H344zM496 440h64 8v-8V368v-8h-8H496h-8v8 64 8h8zm56-64v48H504V376h48zm-64-64h8 64 8v-8V240v-8h-8H496h-8v8 64 8zm16-16V248h48v48H504zM80 344h64 8v-8V272v-8h-8H80 72v8 64 8h8zm8-64h48v48H88V280zM72 216h8 64 8v-8V144v-8h-8H80 72v8 64 8zm16-16V152h48v48H88z"/></svg>