<svg xmlns="http://www.w3.org/2000/svg" viewBox="0 0 512 512"><!--! Font Awesome Pro 6.5.1 by @fontawesome - https://fontawesome.com License - https://fontawesome.com/license (Commercial License) Copyright 2023 Fonticons, Inc. --><path d="M16 192H496V464H16V192zm339.3-16L477.7 53.7l5.7-5.7H496V176H355.3zm-22.6 0H203.3L325.7 53.7l5.7-5.7H460.7L338.3 170.3l-5.7 5.7zm-152 0H51.3L173.7 53.7l5.7-5.7H308.7L186.3 170.3l-5.7 5.7zm-152 0H16V48H156.7L34.3 170.3 28.7 176zM512 184v-8V48 32H496 16 0V48 176v8 8V464v16H16 496h16V464 192v-8z"/></svg>