<svg xmlns="http://www.w3.org/2000/svg" viewBox="0 0 512 512"><!--! Font Awesome Pro 6.5.1 by @fontawesome - https://fontawesome.com License - https://fontawesome.com/license (Commercial License) Copyright 2023 Fonticons, Inc. --><path d="M496 176H16V464H496V176zm0-16V48H483.3l-5.7 5.7L371.3 160H496zm-276.7 0H348.7l112-112H331.3l-5.7 5.7L219.3 160zm-22.6 0l112-112H179.3l-5.7 5.7L67.3 160H196.7zM16 48V160H44.7l112-112H16zM512 160v8 8V464v16H496 16 0V464 176v-8-8V48 32H16 496h16V48 160zM204.2 225.2l144 88 11.2 6.8-11.2 6.8-144 88L192 422.3V408 232 217.7l12.2 7.4zM328.7 320L208 246.3V393.7L328.7 320z"/></svg>