<svg xmlns="http://www.w3.org/2000/svg" viewBox="0 0 640 512"><!--! Font Awesome Pro 6.5.1 by @fontawesome - https://fontawesome.com License - https://fontawesome.com/license (Commercial License) Copyright 2023 Fonticons, Inc. --><path d="M224 128h8 32H368 472h32 8v16h-8H480v48h86.1l62.3-31.2 11.6-5.8V168 376v12.9l-11.6-5.8L566.1 352H96 94.6l-1.3-.5-88-32L0 317.6V312 232v-5.6l5.3-1.9 88-32 1.3-.5H96 256V144H232h-8V128zm240 16H376v48h88V144zm-104 0H272v48h88V144zM97.4 208L16 237.6v68.8L97.4 336H568h1.9l1.7 .8L624 363.1V180.9l-52.4 26.2-1.7 .8H568 480 464 376 360 272 256 97.4zM272 256a16 16 0 1 1 0 32 16 16 0 1 1 0-32zm80 16a16 16 0 1 1 32 0 16 16 0 1 1 -32 0zm112-16a16 16 0 1 1 0 32 16 16 0 1 1 0-32z"/></svg>