<svg xmlns="http://www.w3.org/2000/svg" viewBox="0 0 576 512"><!--! Font Awesome Pro 6.5.1 by @fontawesome - https://fontawesome.com License - https://fontawesome.com/license (Commercial License) Copyright 2023 Fonticons, Inc. --><path d="M168 147.3L34.3 13.7 45.7 2.3l136 136 2.3 2.3V144v56h56 3.3l2.3 2.3 128 128 2.3 2.3V336v56h56 3.3l2.3 2.3 104 104-11.3 11.3L428.7 408H368h-8v-8V339.3L236.7 216H176h-8v-8V147.3zm-32 192L34.3 237.7l11.3-11.3 104 104 2.3 2.3V336v56h56 3.3l2.3 2.3 104 104-11.3 11.3L204.7 408H144h-8v-8V339.3zM258.3 13.7L269.7 2.3l40 40 2.3 2.3V48v56h56 3.3l2.3 2.3 64 64 2.3 2.3V176v56h56 3.3l2.3 2.3 40 40-11.3 11.3L492.7 248H432h-8v-8V179.3L364.7 120H304h-8v-8V51.3L258.3 13.7z"/></svg>