<svg xmlns="http://www.w3.org/2000/svg" viewBox="0 0 384 512"><!--! Font Awesome Pro 6.5.1 by @fontawesome - https://fontawesome.com License - https://fontawesome.com/license (Commercial License) Copyright 2023 Fonticons, Inc. --><path d="M254.7 67.2C248.8 38 222.9 16 192 16s-56.8 22-62.7 51.2L126.7 80H113.6 80v64H192 304V80H270.4 257.3l-2.6-12.8zM80 64h33.6C121 27.5 153.3 0 192 0s71 27.5 78.4 64H304h16V80 96h56 8v8V504v8h-8H8 0v-8V104 96H8 64V80 64H80zM64 112H16V496H368V112H320v32 16H304 192 80 64V144 112zM176 80a16 16 0 1 1 32 0 16 16 0 1 1 -32 0zM293.7 261.7l-128 128-5.7 5.7-5.7-5.7-64-64L84.7 320 96 308.7l5.7 5.7L160 372.7 282.3 250.3l5.7-5.7L299.3 256l-5.7 5.7z"/></svg>