<svg xmlns="http://www.w3.org/2000/svg" viewBox="0 0 384 512"><!--! Font Awesome Pro 6.5.1 by @fontawesome - https://fontawesome.com License - https://fontawesome.com/license (Commercial License) Copyright 2023 Fonticons, Inc. --><path d="M254.7 67.2C248.8 38 222.9 16 192 16s-56.8 22-62.7 51.2L126.7 80H113.6 80v64H192 304V80H270.4 257.3l-2.6-12.8zM80 64h33.6C121 27.5 153.3 0 192 0s71 27.5 78.4 64H304h16V80 96h56 8v8V504v8h-8H8 0v-8V104 96H8 64V80 64H80zM64 112H16V496H368V112H320v32 16H304 192 80 64V144 112zM176 80a16 16 0 1 1 32 0 16 16 0 1 1 -32 0zM104 264c0-30.9 25.1-56 56-56h56.2c35.2 0 63.8 28.6 63.8 63.8c0 21.4-10.8 41.5-28.7 53.3L200 358.9V384v8H184v-8V354.5v-4.3l3.6-2.4 54.9-36.2c13.4-8.8 21.5-23.8 21.5-39.9c0-26.4-21.4-47.8-47.8-47.8H160c-22.1 0-40 17.9-40 40l0 6.5-16 0V264zm72 184V416h32v32H176z"/></svg>