<svg xmlns="http://www.w3.org/2000/svg" viewBox="0 0 384 512"><!--! Font Awesome Pro 6.5.1 by @fontawesome - https://fontawesome.com License - https://fontawesome.com/license (Commercial License) Copyright 2023 Fonticons, Inc. --><path d="M254.7 67.2C248.8 38 222.9 16 192 16s-56.8 22-62.7 51.2L126.7 80H113.6 80v64H192 304V80H270.4 257.3l-2.6-12.8zM80 64h33.6C121 27.5 153.3 0 192 0s71 27.5 78.4 64H304h16V80 96h56 8v8V504v8h-8H8 0v-8V104 96H8 64V80 64H80zM64 112H16V496H368V112H320v32 16H304 192 80 64V144 112zM176 80a16 16 0 1 1 32 0 16 16 0 1 1 -32 0zM104 208h72c26.5 0 48 21.5 48 48c0 23-16.2 42.2-37.8 46.9L240 356.7l42.3-42.3 5.7-5.7L299.3 320l-5.7 5.7L251.3 368l42.3 42.3 5.7 5.7L288 427.3l-5.7-5.7L240 379.3l-42.3 42.3-5.7 5.7L180.7 416l5.7-5.7L228.7 368l-64-64H112v72 8H96v-8V296 216v-8h8zm72 80c17.7 0 32-14.3 32-32s-14.3-32-32-32H112v64h64z"/></svg>