<svg xmlns="http://www.w3.org/2000/svg" viewBox="0 0 384 512"><!--! Font Awesome Pro 6.5.1 by @fontawesome - https://fontawesome.com License - https://fontawesome.com/license (Commercial License) Copyright 2023 Fonticons, Inc. --><path d="M257.3 80h13.1H304v64H192 80V80h33.6 13.1l2.6-12.8C135.2 38 161.1 16 192 16s56.8 22 62.7 51.2L257.3 80zM113.6 64H80 64V80 96H8 0v8V504v8H8 376h8v-8V104 96h-8H320V80 64H304 270.4C263 27.5 230.7 0 192 0s-71 27.5-78.4 64zM16 112H64v32 16H80 192 304h16V144 112h48V496H16V112zM192 96a16 16 0 1 0 0-32 16 16 0 1 0 0 32zM160 216v16h8H312h8V216h-8H168h-8zm0 96v16h8H312h8V312h-8H168h-8zm0 96v16h8H312h8V408h-8H168h-8zM96 432a16 16 0 1 0 0-32 16 16 0 1 0 0 32zm16-112a16 16 0 1 0 -32 0 16 16 0 1 0 32 0zM96 240a16 16 0 1 0 0-32 16 16 0 1 0 0 32z"/></svg>