<svg xmlns="http://www.w3.org/2000/svg" viewBox="0 0 384 512"><!--! Font Awesome Pro 6.5.1 by @fontawesome - https://fontawesome.com License - https://fontawesome.com/license (Commercial License) Copyright 2023 Fonticons, Inc. --><path d="M254.7 67.2C248.8 38 222.9 16 192 16s-56.8 22-62.7 51.2L126.7 80H113.6 80v64H192 304V80H270.4 257.3l-2.6-12.8zM80 64h33.6C121 27.5 153.3 0 192 0s71 27.5 78.4 64H304h16V80 96h56 8v8V504v8h-8H8 0v-8V104 96H8 64V80 64H80zM64 112H16V496H368V112H320v32 16H304 192 80 64V144 112zM176 80a16 16 0 1 1 32 0 16 16 0 1 1 -32 0zm16 224a48 48 0 1 0 0-96 48 48 0 1 0 0 96zm0-112a64 64 0 1 1 0 128 64 64 0 1 1 0-128zM123.5 368l-21.3 64H281.8l-21.3-64H123.5zM272 352l26.7 80 5.3 16H287.1 96.9 80l5.3-16L112 352H272z"/></svg>