<svg xmlns="http://www.w3.org/2000/svg" viewBox="0 0 512 512"><!--! Font Awesome Pro 6.5.1 by @fontawesome - https://fontawesome.com License - https://fontawesome.com/license (Commercial License) Copyright 2023 Fonticons, Inc. --><path d="M16 166.7V56 48H0v8V184v8H8 136h8V176h-8H29.7C62.6 82.8 151.5 16 256 16c132.5 0 240 107.5 240 240s-107.5 240-240 240c-73.5 0-139.3-33.1-183.4-85.2l-5.2-6.1L55.2 415.1l5.2 6.1C107.3 476.7 177.6 512 256 512c141.4 0 256-114.6 256-256S397.4 0 256 0C146 0 52.2 69.4 16 166.7zM264 128H248v8V256v3.3l2.3 2.3 88 88 5.7 5.7L355.3 344l-5.7-5.7L264 252.7V136v-8z"/></svg>