<svg xmlns="http://www.w3.org/2000/svg" viewBox="0 0 448 512"><!--! Font Awesome Pro 6.5.1 by @fontawesome - https://fontawesome.com License - https://fontawesome.com/license (Commercial License) Copyright 2023 Fonticons, Inc. --><path d="M16 224a208 208 0 1 1 416 0A208 208 0 1 1 16 224zm416 83.3V496H16V307.3C49.1 389.8 129.7 448 224 448s174.9-58.2 208-140.7zM0 224V504v8H8 440h8v-8V224C448 100.3 347.7 0 224 0S0 100.3 0 224zM232 96H216v8V224v3.3l2.3 2.3 56 56 5.7 5.7L291.3 280l-5.7-5.7L232 220.7V104 96z"/></svg>