<svg xmlns="http://www.w3.org/2000/svg" viewBox="0 0 512 512"><!--! Font Awesome Pro 6.5.1 by @fontawesome - https://fontawesome.com License - https://fontawesome.com/license (Commercial License) Copyright 2023 Fonticons, Inc. --><path d="M400 144V128c0-44.2-35.8-80-80-80c-16.1 0-31.1 4.8-43.7 12.9l-12.9 8.4-8.9-12.6C237.1 32.1 208.4 16 176 16c-53 0-96 43-96 96v21.5 11.3l-10.7 3.8C38.2 159.5 16 189.2 16 224v80H96 416h80V224c0-44.2-35.8-80-80-80H400zM16 320H0V304 224c0-41.8 26.7-77.4 64-90.5V112C64 50.1 114.1 0 176 0c37.9 0 71.3 18.8 91.6 47.5C282.7 37.7 300.7 32 320 32c53 0 96 43 96 96c53 0 96 43 96 96v80 16H496 416 96 16zM32 464a16 16 0 1 0 0 32 16 16 0 1 0 0-32zm32 16A32 32 0 1 1 0 480a32 32 0 1 1 64 0zm144 0a16 16 0 1 0 32 0 16 16 0 1 0 -32 0zm16 32a32 32 0 1 1 0-64 32 32 0 1 1 0 64zm192-48a16 16 0 1 0 0 32 16 16 0 1 0 0-32zm32 16a32 32 0 1 1 -64 0 32 32 0 1 1 64 0zM96 352h16L73.6 416h-16L96 352zm96 0h16L112 512H96l96-160zm112 0l-38.4 64h-16L288 352h16zm80 0h16L304 512H288l96-160zm96 0h16l-38.4 64h-16L480 352z"/></svg>