<svg xmlns="http://www.w3.org/2000/svg" viewBox="0 0 512 512"><!--! Font Awesome Pro 6.5.1 by @fontawesome - https://fontawesome.com License - https://fontawesome.com/license (Commercial License) Copyright 2023 Fonticons, Inc. --><path d="M400 128v16h16c44.2 0 80 35.8 80 80v80H416 96 16V224c0-34.8 22.2-64.5 53.3-75.5L80 144.8V133.5 112c0-53 43-96 96-96c32.4 0 61.1 16.1 78.5 40.8l8.9 12.6 12.9-8.4C288.9 52.8 303.9 48 320 48c44.2 0 80 35.8 80 80zM0 320H16 96 416h80 16V304 224c0-53-43-96-96-96c0-53-43-96-96-96c-19.3 0-37.3 5.7-52.4 15.5C247.3 18.8 213.9 0 176 0C114.1 0 64 50.1 64 112v21.5C26.7 146.6 0 182.2 0 224v80 16zm72 40H56v8 40l-40 0H8v16h8l40 0v40 8H72v-8V424l40 0h8l0-16h-8l-40 0V368v-8zm384 8v-8H440v8 40l-40 0h-8v16h8l40 0v40 8h16v-8V424l40 0h8l0-16h-8l-40 0V368zM264 392H248v8 40l-40 0h-8v16h8l40 0v40 8h16v-8V456l40 0h8l0-16h-8l-40 0V400v-8z"/></svg>