<svg xmlns="http://www.w3.org/2000/svg" viewBox="0 0 640 512"><!--! Font Awesome Pro 6.5.1 by @fontawesome - https://fontawesome.com License - https://fontawesome.com/license (Commercial License) Copyright 2023 Fonticons, Inc. --><path d="M528 240.4l12 3.1c48.3 12.4 84 56.3 84 108.5V464H512 144 16V336c0-55.7 35.6-103.1 85.3-120.7l10.7-3.8V200.2 192c0-79.5 64.5-144 144-144c53.3 0 99.9 29 124.8 72.2l8.5 14.8 14.2-9.5c12.7-8.5 28-13.5 44.4-13.5c44.2 0 80 35.8 80 80v36 12.4zM96 200.2C40.1 220 0 273.3 0 336V464v16H16 144 512 624h16V464 352c0-59.6-40.8-109.8-96-124V192c0-53-43-96-96-96c-15.2 0-29.5 3.5-42.3 9.8c-3.8 1.9-7.5 4-11 6.4c-2.7-4.6-5.6-9.1-8.7-13.4C357 58.3 309.6 32 256 32C167.6 32 96 103.6 96 192v8.2zM512 368h-8H296h-8v16h8H504h8V368zm-264 0H136h-8v16h8H248h8V368h-8zM128 304v16h8H344h8V304h-8H136h-8zm264 0h-8v16h8H504h8V304h-8H392z"/></svg>