<svg xmlns="http://www.w3.org/2000/svg" viewBox="0 0 640 512"><!--! Font Awesome Pro 6.5.1 by @fontawesome - https://fontawesome.com License - https://fontawesome.com/license (Commercial License) Copyright 2023 Fonticons, Inc. --><path d="M464 128v16h16c44.2 0 80 35.8 80 80v80H480 160 80V224c0-34.8 22.2-64.5 53.3-75.5l10.7-3.8V133.5 112c0-53 43-96 96-96c32.4 0 61.1 16.1 78.5 40.8l8.9 12.6 12.9-8.4C352.9 52.8 367.9 48 384 48c44.2 0 80 35.8 80 80zM64 320H80h80H480h80 16V304 224c0-53-43-96-96-96c0-53-43-96-96-96c-19.3 0-37.3 5.7-52.4 15.5C311.3 18.8 277.9 0 240 0C178.1 0 128 50.1 128 112v21.5C90.7 146.6 64 182.2 64 224v80 16zM0 400v16H8 568h8V400h-8H8 0zm64 96v16h8H216h8V496h-8H72 64zm224 0v16h8H632h8V496h-8H296h-8z"/></svg>