<svg xmlns="http://www.w3.org/2000/svg" viewBox="0 0 640 512"><!--! Font Awesome Pro 6.5.1 by @fontawesome - https://fontawesome.com License - https://fontawesome.com/license (Commercial License) Copyright 2023 Fonticons, Inc. --><path d="M528 228V192c0-44.2-35.8-80-80-80c-16.5 0-31.7 5-44.4 13.5L389.4 135l-8.5-14.8C355.9 77 309.3 48 256 48c-79.5 0-144 64.5-144 144v8.2 11.3l-10.7 3.8C51.6 232.9 16 280.3 16 336V464H144 512 624V352c0-52.2-35.7-96-84-108.5l-12-3.1V228zM0 336c0-62.7 40.1-116 96-135.8V192c0-88.4 71.6-160 160-160c53.6 0 101 26.3 130 66.7c3.1 4.3 6 8.8 8.7 13.4c3.5-2.4 7.2-4.5 11-6.4C418.5 99.5 432.8 96 448 96c53 0 96 43 96 96v36c55.2 14.2 96 64.3 96 124V464v16H624 512 144 16 0V464 336zM416 180.5V192 344c0 22.1-21.5 40-48 40s-48-17.9-48-40s21.5-40 48-40c12.3 0 23.5 3.9 32 10.2V203.5l-112 42V376c0 22.1-21.5 40-48 40s-48-17.9-48-40s21.5-40 48-40c12.3 0 23.5 3.9 32 10.2V240v-5.5l5.2-1.9 128-48 10.8-4.1zM368 320c-20.5 0-32 13.4-32 24s11.5 24 32 24s32-13.4 32-24s-11.5-24-32-24zM240 352c-20.5 0-32 13.4-32 24s11.5 24 32 24s32-13.4 32-24s-11.5-24-32-24z"/></svg>