<svg xmlns="http://www.w3.org/2000/svg" viewBox="0 0 512 512"><!--! Font Awesome Pro 6.5.1 by @fontawesome - https://fontawesome.com License - https://fontawesome.com/license (Commercial License) Copyright 2023 Fonticons, Inc. --><path d="M176 0c37.1 0 70 18.9 90.3 48.1c.4 .6 .8 1.2 1.3 1.8c.5-.3 1-.7 1.5-1c14.8-9.7 32.2-15.3 50.9-15.3c53 0 96 45.1 96 100.8c53 0 96 45.1 96 100.8V320v16H496 416 378.4l2.9-14.4-1.6-1.6H416h80V235.2c0-47.6-36.5-84.8-80-84.8H400v-16c0-47.6-36.5-84.8-80-84.8c-16 0-30.8 4.9-43.4 13.5l-13.3 9.1-9-13.4C236.8 32.7 208.1 16 176 16c-52.3 0-96 44.7-96 101.6v22.5 11.1l-10.4 3.9C38.7 166.6 16 197.8 16 235.2V320H96h36.4l-1.6 1.6 2.9 14.4H96 16 0V320 235.2c0-43.9 26.7-81.2 64-95.1V117.6C64 52.7 114.1 0 176 0zm11.8 437.9l-4.9 24.7 10.5 10.5 24.7-4.9 10.5-2.1 5.9 8.9 14 21h14.9l14-21 5.9-8.9 10.5 2.1 24.7 5 10.5-10.5-5-24.7-2.1-10.5 8.9-5.9 21-14V392.6l-21-14-8.9-5.9 2.1-10.5 4.9-24.7-10.5-10.5-24.7 5-10.5 2.1-5.9-8.9-14-21H248.6l-14 21-5.9 8.9-10.5-2.1-24.7-5-10.5 10.5 4.9 24.7 2.1 10.5-8.9 5.9-21 14v14.9l21 14 8.9 5.9-2.1 10.5zM144 384l28.1-18.7-6.6-33.1 22.6-22.6 33.1 6.6L240 288h32l18.7 28.1 33.1-6.6 22.6 22.6-6.6 33.1L368 384v32l-28.1 18.7 6.6 33.1-22.6 22.6-33.1-6.6L272 512H240l-18.7-28.1-33.1 6.6-22.6-22.6 6.6-33.1L144 416V384zM80 416a32 32 0 1 0 -64 0 32 32 0 1 0 64 0zM0 416a48 48 0 1 1 96 0A48 48 0 1 1 0 416zm464 32a32 32 0 1 0 0-64 32 32 0 1 0 0 64zm0-80a48 48 0 1 1 0 96 48 48 0 1 1 0-96z"/></svg>