<svg xmlns="http://www.w3.org/2000/svg" viewBox="0 0 640 512"><!--! Font Awesome Pro 6.5.1 by @fontawesome - https://fontawesome.com License - https://fontawesome.com/license (Commercial License) Copyright 2023 Fonticons, Inc. --><path d="M528 228V192c0-44.2-35.8-80-80-80c-16.5 0-31.7 5-44.4 13.5L389.4 135l-8.5-14.8C355.9 77 309.3 48 256 48c-79.5 0-144 64.5-144 144v8.2 11.3l-10.7 3.8C51.6 232.9 16 280.3 16 336V464H144 512 624V352c0-52.2-35.7-96-84-108.5l-12-3.1V228zM0 336c0-62.7 40.1-116 96-135.8V192c0-88.4 71.6-160 160-160c53.6 0 101 26.3 130 66.7c3.1 4.3 6 8.8 8.7 13.4c3.5-2.4 7.2-4.5 11-6.4C418.5 99.5 432.8 96 448 96c53 0 96 43 96 96v36c55.2 14.2 96 64.3 96 124V464v16H624 512 144 16 0V464 336zM232 232c0-30.9 25.1-56 56-56h56.2c35.2 0 63.8 28.6 63.8 63.8c0 21.4-10.8 41.5-28.7 53.3L328 326.9V352v8H312v-8V322.5v-4.3l3.6-2.4 54.9-36.2c13.4-8.8 21.5-23.8 21.5-39.9c0-26.4-21.4-47.8-47.8-47.8H288c-22.1 0-40 17.9-40 40l0 6.5-16 0V232zm72 152h32v32H304V384z"/></svg>