<svg xmlns="http://www.w3.org/2000/svg" viewBox="0 0 512 512"><!--! Font Awesome Pro 6.5.1 by @fontawesome - https://fontawesome.com License - https://fontawesome.com/license (Commercial License) Copyright 2023 Fonticons, Inc. --><path d="M400 144V128c0-44.2-35.8-80-80-80c-16.1 0-31.1 4.8-43.7 12.9l-12.9 8.4-8.9-12.6C237.1 32.1 208.4 16 176 16c-53 0-96 43-96 96v21.5 11.3l-10.7 3.8C38.2 159.5 16 189.2 16 224v80H96h68.1l-20.7 16H96 16 0V304 224c0-41.8 26.7-77.4 64-90.5V112C64 50.1 114.1 0 176 0c37.9 0 71.3 18.8 91.6 47.5C282.7 37.7 300.7 32 320 32c53 0 96 43 96 96c53 0 96 43 96 96v80 16H496 416 400 329l4-16h83 80V224c0-44.2-35.8-80-80-80H400zM198.3 486.9L220 400l4-16H207.5 160 144V368v-8L299.6 239.8 320 224l-6.3 25.1L292 336l-4 16h16.5H352h16v16 8L212.4 496.2 192 512l6.3-25.1zM224 368h20.5l-5 19.9-20.8 83.3L352 368.1V368H288 267.5l5-19.9 20.8-83.3L160 367.9v.1h64z"/></svg>