<svg xmlns="http://www.w3.org/2000/svg" viewBox="0 0 448 512"><!--! Font Awesome Pro 6.5.1 by @fontawesome - https://fontawesome.com License - https://fontawesome.com/license (Commercial License) Copyright 2023 Fonticons, Inc. --><path d="M128 16v96H32V16h96zM32 0H16V16v96 16H32 72V384H32 16v16 96 16H32h96 16V496 400 384H128 88V128h40 16V112 16 0H128 32zm0 400h96v96H32V400zm288 0h96v96H320V400zm-16-16v16 96 16h16 96 16V496 400 384H416 320 304zm88-168v48H344V216h48zm-48-16H328v16 48 16h16 48 16V264 216 200H392 344zm0-144h48v48H344V56zM328 40V56v48 16h16 48 16V104 56 40H392 344 328z"/></svg>