<svg xmlns="http://www.w3.org/2000/svg" viewBox="0 0 448 512"><!--! Font Awesome Pro 6.5.1 by @fontawesome - https://fontawesome.com License - https://fontawesome.com/license (Commercial License) Copyright 2023 Fonticons, Inc. --><path d="M128 16v96H32V16h96zM32 0H16V16v96 16H32 72v16V384H32 16v16 96 16H32h96 16V496 400 384H128 88V208.1c22.9 42.8 68 71.9 120 71.9H320v40 16h16 96 16V320 224 208H432 336 320v16 40H208c-66.3 0-120-53.7-120-120V128h40 16V112 16 0H128 32zm96 400v96H32V400h96zM336 224h96v96H336V224z"/></svg>