<svg xmlns="http://www.w3.org/2000/svg" viewBox="0 0 448 512"><!--! Font Awesome Pro 6.5.1 by @fontawesome - https://fontawesome.com License - https://fontawesome.com/license (Commercial License) Copyright 2023 Fonticons, Inc. --><path d="M128 16v96H32V16h96zM32 0H16V16v96 16H32 72V352v16 16H32 16v16 96 16H32h96 16V496 400 384H128 88V368 352c0-48.6 39.4-88 88-88h96c57.4 0 104-46.6 104-104V128h40 16V112 16 0H416 320 304V16v96 16h16 40v32c0 48.6-39.4 88-88 88H176c-37.1 0-69.6 19.4-88 48.5V128h40 16V112 16 0H128 32zM320 16h96v96H320V16zM32 400h96v96H32V400z"/></svg>