<svg xmlns="http://www.w3.org/2000/svg" viewBox="0 0 448 512"><!--! Font Awesome Pro 6.5.1 by @fontawesome - https://fontawesome.com License - https://fontawesome.com/license (Commercial License) Copyright 2023 Fonticons, Inc. --><path d="M112 16v96H16V16h96zM16 0H0V16v96 16H16 56v64c0 39.8 32.2 72 72 72h88V384H176 160v16 96 16h16 96 16V496 400 384H272 232V264h88c39.8 0 72-32.2 72-72V128h40 16V112 16 0H432 336 320V16v96 16h16 40v64c0 30.9-25.1 56-56 56H128c-30.9 0-56-25.1-56-56V128h40 16V112 16 0H112 16zM272 400v96H176V400h96zM336 16h96v96H336V16z"/></svg>