<svg xmlns="http://www.w3.org/2000/svg" viewBox="0 0 512 512"><!--! Font Awesome Pro 6.5.1 by @fontawesome - https://fontawesome.com License - https://fontawesome.com/license (Commercial License) Copyright 2023 Fonticons, Inc. --><path d="M128 16v96H32V16h96zM32 0H16V16v96 16H32 72V384H32 16v16 96 16H32h96 16V496 400 384H128 88V128h40 16V112 16 0H128 32zM306.6 10.1l-88 80L212.1 96l6.5 5.9 88 80 10.8-11.8L244.7 104H336c48.6 0 88 39.4 88 88V384H384 368v16 96 16h16 96 16V496 400 384H480 440V192c0-57.4-46.6-104-104-104H244.7l72.7-66.1L306.6 10.1zM32 400h96v96H32V400zm352 0h96v96H384V400z"/></svg>