<svg xmlns="http://www.w3.org/2000/svg" viewBox="0 0 512 512"><!--! Font Awesome Pro 6.5.1 by @fontawesome - https://fontawesome.com License - https://fontawesome.com/license (Commercial License) Copyright 2023 Fonticons, Inc. --><path d="M64 16v96h96V16H64zM48 0H64h96 16V16v96 16H160 120V384h40 16v16 96 16H160 64 48V496 400 384H64h40V128H64 48V112 16 0zM458.3 149.7L400 91.3l-58.3 58.3-11.3-11.3L388.7 80 330.3 21.7l11.3-11.3L400 68.7l58.3-58.3 11.3 11.3L411.3 80l58.3 58.3-11.3 11.3zM400 192c4.4 0 8 3.6 8 8V384h40 16v16 96 16H448 352 336V496 400 384h16 40V200c0-4.4 3.6-8 8-8zM352 496h96V400H352v96zM160 400H64v96h96V400z"/></svg>