<svg xmlns="http://www.w3.org/2000/svg" viewBox="0 0 512 512"><!--! Font Awesome Pro 6.5.1 by @fontawesome - https://fontawesome.com License - https://fontawesome.com/license (Commercial License) Copyright 2023 Fonticons, Inc. --><path d="M480 16v96H384V16h96zM384 0H368V16v96 16h16 40V320c0 48.6-39.4 88-88 88H244.7l72.7-66.1-10.8-11.8-88 80-6.5 5.9 6.5 5.9 88 80 10.8-11.8L244.7 424H336c57.4 0 104-46.6 104-104V128h40 16V112 16 0H480 384zM205.4 10.1L194.6 21.9 267.3 88H176C118.6 88 72 134.6 72 192V384H32 16v16 96 16H32h96 16V496 400 384H128 88V192c0-48.6 39.4-88 88-88h91.3l-72.7 66.1 10.8 11.8 88-80 6.5-5.9-6.5-5.9-88-80zM32 400h96v96H32V400z"/></svg>