<svg xmlns="http://www.w3.org/2000/svg" viewBox="0 0 512 512"><!--! Font Awesome Pro 6.5.1 by @fontawesome - https://fontawesome.com License - https://fontawesome.com/license (Commercial License) Copyright 2023 Fonticons, Inc. --><path d="M0 32H8 109.2 120h8H462.8 480l-6.4 16-53 132.4C475.5 214.3 512 274.9 512 344c0 80-72 136-72 136H136s-72-56-72-136c0-69 36.4-129.5 91-163.3L97.1 50.6c-.4-.8-.6-1.7-.8-2.6H16V216v8H0v-8V40 32zM170.4 176H405.2L456.4 48H128h-8-6.5l56.9 128zM416 192H160v0h7.2c-41.1 24.1-71.6 64.3-82.7 112H491.4c-11.1-47.7-41.6-87.9-82.7-112H416v0zm78.4 128H81.6c-1.1 7.8-1.6 15.9-1.6 24c0 35.2 15.9 65.9 32.8 88.4c8.4 11.2 16.8 20 23 26.1c2.3 2.3 4.4 4.1 6 5.5H434.2c1.6-1.4 3.6-3.3 6-5.5c6.3-6 14.7-14.9 23-26.1C480.1 409.9 496 379.2 496 344c0-8.1-.6-16.2-1.6-24z"/></svg>