<svg xmlns="http://www.w3.org/2000/svg" viewBox="0 0 512 512"><!--! Font Awesome Pro 6.5.1 by @fontawesome - https://fontawesome.com License - https://fontawesome.com/license (Commercial License) Copyright 2023 Fonticons, Inc. --><path d="M71.9 376.4l3.6-9.6-7.3-7.3C35.2 326.3 16 284.7 16 240C16 136.9 120.2 48 256 48s240 88.9 240 192s-104.2 192-240 192c-30 0-58.6-4.4-85-12.4l-4.6-1.4-4.6 1.4L42.3 455.4l29.6-79zM16 480l19.3-5.8 131.1-39.3c27.9 8.5 58.1 13.1 89.6 13.1c141.4 0 256-93.1 256-208S397.4 32 256 32S0 125.1 0 240c0 49.6 21.3 95.1 56.9 130.8L23.1 461.2 16 480zM222.8 187.8l-2.4-3.8-4.4 0-8 0-8 0v8 96 8h16v-8V207.1l33.2 53.1 6.8 10.9 6.8-10.9L296 207.1V288v8h16v-8V192v-8l-8 0-8 0-4.4 0-2.4 3.8L256 240.9l-33.2-53.1zM372.8 184c-15.9 0-28.8 12.9-28.8 28.8c0 9.6 4.8 18.7 12.8 24l29.4 19.6c3.6 2.4 5.7 6.4 5.7 10.7c0 7.1-5.8 12.8-12.8 12.8H352h-8v16h8 27.2c15.9 0 28.8-12.9 28.8-28.8c0-9.6-4.8-18.7-12.8-24l-29.4-19.6c-3.6-2.4-5.7-6.4-5.7-10.7c0-7.1 5.8-12.8 12.8-12.8H392h8V184h-8H372.8zM104 212.8c0 9.6 4.8 18.7 12.8 24l29.4 19.6c3.6 2.4 5.7 6.4 5.7 10.7c0 7.1-5.8 12.8-12.8 12.8H112h-8v16h8 27.2c15.9 0 28.8-12.9 28.8-28.8c0-9.6-4.8-18.7-12.8-24l-29.4-19.6c-3.6-2.4-5.7-6.4-5.7-10.7c0-7.1 5.8-12.8 12.8-12.8H152h8V184h-8H132.8c-15.9 0-28.8 12.9-28.8 28.8z"/></svg>