<svg xmlns="http://www.w3.org/2000/svg" viewBox="0 0 512 512"><!--! Font Awesome Pro 6.5.1 by @fontawesome - https://fontawesome.com License - https://fontawesome.com/license (Commercial License) Copyright 2023 Fonticons, Inc. --><path d="M71.9 376.4l3.6-9.6-7.3-7.3C35.2 326.3 16 284.7 16 240C16 136.9 120.2 48 256 48s240 88.9 240 192s-104.2 192-240 192c-30 0-58.6-4.4-85-12.4l-4.6-1.4-4.6 1.4L42.3 455.4l29.6-79zM16 480l19.3-5.8 131.1-39.3c27.9 8.5 58.1 13.1 89.6 13.1c141.4 0 256-93.1 256-208S397.4 32 256 32S0 125.1 0 240c0 49.6 21.3 95.1 56.9 130.8L23.1 461.2 16 480zM168 168v6.5l16 0 0-6.5c0-22.1 17.9-40 40-40h56.2c26.4 0 47.8 21.4 47.8 47.8c0 16.1-8.1 31.1-21.5 39.9l-54.9 36.2-3.6 2.4v4.3V288v8h16v-8V262.9L315.3 229c17.9-11.8 28.7-31.8 28.7-53.3c0-35.2-28.6-63.8-63.8-63.8H224c-30.9 0-56 25.1-56 56zm72 184h32V320H240v32z"/></svg>