<svg xmlns="http://www.w3.org/2000/svg" viewBox="0 0 640 512"><!--! Font Awesome Pro 6.5.1 by @fontawesome - https://fontawesome.com License - https://fontawesome.com/license (Commercial License) Copyright 2023 Fonticons, Inc. --><path d="M16 48V368H178.2 184h80 5.8H432V48H16zM172.9 384H16 0V368 48 32H16 432h16V48 368v16H432 275.1l26.7 80H384v16H307.1 296 152 140.9 64V464h82.2l26.7-80zm16.9 0l-26.7 80H284.9l-26.7-80H189.8zM624 48H496V464H624V48zM496 32H624h16V48 464v16H624 496 480V464 48 32h16zm24 96h8 64 8v16h-8H528h-8V128zm8 64h64 8v16h-8H528h-8V192h8zm16 144a16 16 0 1 1 32 0 16 16 0 1 1 -32 0zM64 96V320H384V96H64zM48 80H64 384h16V96 320v16H384 64 48V320 96 80z"/></svg>