<svg xmlns="http://www.w3.org/2000/svg" viewBox="0 0 640 512"><!--! Font Awesome Pro 6.5.1 by @fontawesome - https://fontawesome.com License - https://fontawesome.com/license (Commercial License) Copyright 2023 Fonticons, Inc. --><path d="M16 32H0V48 400v16H16 288V400H16V48H288V32H16zM80 96H64v16V336v16H80 288V336H80V112H288V96H80zm24 368H96v16h8H288V464H104zM624 48V464H336V48H624zM336 32H320V48 464v16h16H624h16V464 48 32H624 336zM480 400a80 80 0 1 1 0-160 80 80 0 1 1 0 160zm-96-80a96 96 0 1 0 192 0 96 96 0 1 0 -192 0zM496 128a16 16 0 1 1 -32 0 16 16 0 1 1 32 0zM480 96a32 32 0 1 0 0 64 32 32 0 1 0 0-64zm0 240a16 16 0 1 1 0-32 16 16 0 1 1 0 32zm-32-16a32 32 0 1 0 64 0 32 32 0 1 0 -64 0z"/></svg>