<svg xmlns="http://www.w3.org/2000/svg" viewBox="0 0 640 512"><!--! Font Awesome Pro 6.5.1 by @fontawesome - https://fontawesome.com License - https://fontawesome.com/license (Commercial License) Copyright 2023 Fonticons, Inc. --><path d="M8 32H0V48H8 32V464H8 0v16H8 32 48 592h16 24 8V464h-8H608V48h24 8V32h-8H608 592 48 32 8zM48 464V48H592V464H48zm88-360V96H120v8V408v8h16v-8V104zm96 0V96H216v8V408v8h16v-8V104zm96 0V96H312v8V408v8h16v-8V104zm96 0V96H408v8V408v8h16v-8V104zm96 0V96H504v8V408v8h16v-8V104z"/></svg>