<svg xmlns="http://www.w3.org/2000/svg" viewBox="0 0 640 512"><!--! Font Awesome Pro 6.5.1 by @fontawesome - https://fontawesome.com License - https://fontawesome.com/license (Commercial License) Copyright 2023 Fonticons, Inc. --><path d="M336 16V272H80V16H336zM80 0H64V16 272v16H80 336h16V272 16 0H336 80zM560 80V272H400V80H560zM400 64H384V80 272v16h16H560h16V272 80 64H560 400zM544 336c44.2 0 80 35.8 80 80s-35.8 80-80 80H96c-44.2 0-80-35.8-80-80s35.8-80 80-80H544zM96 320c-53 0-96 43-96 96s43 96 96 96H544c53 0 96-43 96-96s-43-96-96-96H96zm16 64a32 32 0 1 1 0 64 32 32 0 1 1 0-64zm0 80a48 48 0 1 0 0-96 48 48 0 1 0 0 96zm176-48a32 32 0 1 1 64 0 32 32 0 1 1 -64 0zm80 0a48 48 0 1 0 -96 0 48 48 0 1 0 96 0zm160-32a32 32 0 1 1 0 64 32 32 0 1 1 0-64zm0 80a48 48 0 1 0 0-96 48 48 0 1 0 0 96z"/></svg>