<svg xmlns="http://www.w3.org/2000/svg" viewBox="0 0 640 512"><!--! Font Awesome Pro 6.5.1 by @fontawesome - https://fontawesome.com License - https://fontawesome.com/license (Commercial License) Copyright 2023 Fonticons, Inc. --><path d="M128 0V16h8 94.7l-7.4 48c-26.2 .4-47.3 21.7-47.3 48c0 26.5 21.5 48 48 48c21.6 0 39.8-14.2 45.9-33.8L456 151v57 8h16v-8V144v-7l-6.9-.9L272 110.3c-.7-20.5-14.3-37.7-32.9-43.9L246.9 16H344h8V0h-8H136h-8zm64 112a32 32 0 1 1 64 0 32 32 0 1 1 -64 0zM496 272v48H432V272h64zm-80 0v48H352V272 256H336 272 256v16 48H192V272 256H176 112 96v16l0 48c-53 0-96 43-96 96s43 96 96 96H544c53 0 96-43 96-96s-43-96-96-96H512V272 256H496 432 416v16zM176 336h16 64 16 64 16 64 16 64 16 32c44.2 0 80 35.8 80 80s-35.8 80-80 80H96c-44.2 0-80-35.8-80-80s35.8-80 80-80h16 64zm0-64v48H112V272h64zm96 48V272h64v48H272zM80 416a32 32 0 1 1 64 0 32 32 0 1 1 -64 0zm80 0a48 48 0 1 0 -96 0 48 48 0 1 0 96 0zm160-32a32 32 0 1 1 0 64 32 32 0 1 1 0-64zm0 80a48 48 0 1 0 0-96 48 48 0 1 0 0 96zm176-48a32 32 0 1 1 64 0 32 32 0 1 1 -64 0zm80 0a48 48 0 1 0 -96 0 48 48 0 1 0 96 0z"/></svg>