<svg xmlns="http://www.w3.org/2000/svg" viewBox="0 0 640 512"><!--! Font Awesome Pro 6.5.1 by @fontawesome - https://fontawesome.com License - https://fontawesome.com/license (Commercial License) Copyright 2023 Fonticons, Inc. --><path d="M496 16V272H144V16H256V124v20l16-12 48-36 48 36 16 12V124 16H496zM272 16h96v96L329.6 83.2 320 76l-9.6 7.2L272 112V16zM496 0H384 368 272 256 144 128V16 272v16h16H496h16V272 16 0H496zM624 416c0 44.2-35.8 80-80 80H96c-44.2 0-80-35.8-80-80s35.8-80 80-80H544c44.2 0 80 35.8 80 80zM96 320c-53 0-96 43-96 96s43 96 96 96H544c53 0 96-43 96-96s-43-96-96-96H96zm16 64a32 32 0 1 1 0 64 32 32 0 1 1 0-64zm0 80a48 48 0 1 0 0-96 48 48 0 1 0 0 96zm176-48a32 32 0 1 1 64 0 32 32 0 1 1 -64 0zm80 0a48 48 0 1 0 -96 0 48 48 0 1 0 96 0zm160-32a32 32 0 1 1 0 64 32 32 0 1 1 0-64zm0 80a48 48 0 1 0 0-96 48 48 0 1 0 0 96z"/></svg>