<svg xmlns="http://www.w3.org/2000/svg" viewBox="0 0 640 512"><!--! Font Awesome Pro 6.5.1 by @fontawesome - https://fontawesome.com License - https://fontawesome.com/license (Commercial License) Copyright 2023 Fonticons, Inc. --><path d="M16 48v80h96 16v16V368v16H112 16v80H312V351.7c-49.3-4.1-88-45.3-88-95.7s38.7-91.6 88-95.7V48H16zM328 351.7V464H624V384H528 512V368 144 128h16 96V48H328V160.3c49.3 4.1 88 45.3 88 95.7s-38.7 91.6-88 95.7zm0-175.3V335.6c40.4-4 72-38.1 72-79.6s-31.6-75.6-72-79.6zm-16 0c-40.4 4-72 38.1-72 79.6s31.6 75.6 72 79.6V176.4zM16 144V368h96V144H16zM528 368h96V144H528V368zM0 32H16 624h16V48 464v16H624 16 0V464 48 32z"/></svg>