<svg xmlns="http://www.w3.org/2000/svg" viewBox="0 0 640 512"><!--! Font Awesome Pro 6.5.1 by @fontawesome - https://fontawesome.com License - https://fontawesome.com/license (Commercial License) Copyright 2023 Fonticons, Inc. --><path d="M120 80c-30.9 0-56 25.1-56 56v88 8 8 24c0 28.2-20.9 51.6-48 55.4c-2.6 .4-5.3 .6-8 .6H0V304 280c0-28.2 20.9-51.6 48-55.4V136c0-39.8 32.2-72 72-72h48 16H472h4l2.4 3.2L560 177.4V176h8 48 8v8 24 55.8l14.4 19.5 1.6 2.1V288 440v8h-8H560h-4l-2.4-3.2L488 357.3c-5.2-6.9-8-15.3-8-24V284.3l-32-21.3V440v8h-8H344h-8v-8V362l-6.7 1.5c-8.4 1.9-16.8 3.3-25.3 4.3v.2 16 8H288v-8V369.3c-10.7 .6-21.3 .6-32 0V384v8H240v-8V368v-.2c-8.5-1-16.9-2.5-25.3-4.3L208 362v78 8h-8H104 96v-8V136c0-22.6 10.4-42.8 26.7-56H120zm88 265.6l10.2 2.3c35.4 7.9 72.2 7.9 107.6 0l10.2-2.3V328c0-35.3-28.7-64-64-64s-64 28.7-64 64v17.6zm-48-265c.1 23.2 9.3 45.5 25.8 61.9l3.1 3.1c19.5 19.5 46 30.5 73.5 30.5h3.2c27.6 0 54-11 73.5-30.5l3.1-3.1C358.7 126 368 103.6 368 80.2V80H184 168c-2.7 0-5.4 .2-8 .6zm-15.9 4.8c-19 9-32.1 28.3-32.1 50.7V432h80V328c0-44.2 35.8-80 80-80s80 35.8 80 80V432h80V248 233.1l12.4 8.3 48 32 3.6 2.4V280v53.3c0 5.2 1.7 10.2 4.8 14.4L564 432h60V290.6l-14.4-19.5L608 269v-2.6V208 192H576v9.6 24.2l-14.4-19.5L468 80H384v.2c0 27.6-11 54-30.5 73.5l-3.1 3.1c-22.5 22.5-53 35.1-84.9 35.1h-3.2c-31.8 0-62.3-12.6-84.9-35.1l-3.1-3.1c-18.3-18.3-29.1-42.7-30.3-68.4zM16 280v23.2c18.3-3.7 32-19.8 32-39.2V240.8c-18.3 3.7-32 19.8-32 39.2zm536 40a16 16 0 1 1 32 0 16 16 0 1 1 -32 0z"/></svg>