<svg xmlns="http://www.w3.org/2000/svg" viewBox="0 0 576 512"><!--! Font Awesome Pro 6.5.1 by @fontawesome - https://fontawesome.com License - https://fontawesome.com/license (Commercial License) Copyright 2023 Fonticons, Inc. --><path d="M136 0h-8V8 96H64L3.2 400 0 416H16.3 262.6c-1.5-5.2-2.7-10.6-3.7-16H19.5L77.1 112H136 312h58.9L388 197.5c5.1-1.3 10.4-2.4 15.7-3.3L384 96H320V8 0h-8H136zM272 448c0 26.5-21.5 48-48 48s-48-21.5-48-48H160c0 35.3 28.7 64 64 64c29.2 0 53.9-19.6 61.5-46.4c-3.8-5.7-7.2-11.5-10.3-17.6H272zM304 96H144V16H304V96zm0 272a128 128 0 1 1 256 0 128 128 0 1 1 -256 0zm272 0a144 144 0 1 0 -288 0 144 144 0 1 0 288 0zM440 296v-8H424v8 64H360h-8v16h8 64v64 8h16v-8V376h64 8V360h-8H440V296z"/></svg>