<svg xmlns="http://www.w3.org/2000/svg" viewBox="0 0 512 512"><!--! Font Awesome Pro 6.5.1 by @fontawesome - https://fontawesome.com License - https://fontawesome.com/license (Commercial License) Copyright 2023 Fonticons, Inc. --><path d="M192 0h-8H104C46.6 0 0 46.6 0 104v64 4.6l4 2.3 107.2 61.3C98.5 250.9 89 268.6 84 288H49.9L19.6 272.8l-7.2-3.6L5.3 283.6l7.2 3.6 32 16c1.1 .6 2.3 .8 3.6 .8H81c-.7 5.2-1 10.6-1 16v13.3L52.9 344.6c-1.2 .5-2.3 1.3-3.2 2.4l-32 40-5 6.2 12.5 10 5-6.2L61 358.6l28.3-11.8 44 51.4L85.2 416.5c-1.1 .4-2 1-2.8 1.8l-32 32L44.7 456 56 467.3l5.7-5.7 30.8-30.8 51.9-19.8 22.4 26.1L131 465.8c-1.9 1.5-3 3.8-3 6.2v32 8h16v-8V475.8L178.8 448H333.2L368 475.8V504v8h16v-8V472c0-2.4-1.1-4.7-3-6.2l-35.7-28.6 22.4-26.1 51.9 19.8 30.8 30.8 5.7 5.7L467.3 456l-5.7-5.7-32-32c-.8-.8-1.8-1.4-2.8-1.8l-48.1-18.3 44-51.4L451 358.6 481.8 397l5 6.2 12.5-10-5-6.2-32-40c-.8-1-1.9-1.9-3.2-2.4L432 333.3V320c0-5.4-.3-10.8-1-16h33c1.2 0 2.5-.3 3.6-.8l32-16 7.2-3.6-7.2-14.3-7.2 3.6L462.1 288H428c-5-19.4-14.5-37.1-27.2-51.8L508 174.9l4-2.3V168 128h0V112h0v-8C512 46.6 465.4 0 408 0H328h-8V12.5l3.9 2.3 80 48 6.9 4.1L419 53.3l-6.9-4.1L356.9 16H408c48.6 0 88 39.4 88 88v8H379.3L365.7 98.3 360 92.7 348.7 104l5.7 5.7 16 16 2.3 2.3H376 496v35.4L389.1 224.4C366.5 204.3 336.7 192 304 192l0-56v-8H288v8 56H224V136v-8H208v8 56c-32.7 0-62.5 12.3-85.1 32.4L16 163.4V128H136h3.3l2.3-2.3 16-16 5.7-5.7L152 92.7l-5.7 5.7L132.7 112H16v-8c0-48.6 39.4-88 88-88h51.1L99.9 49.1 93 53.3 101.3 67l6.9-4.1 80-48 3.9-2.3V0zM304 208c61.9 0 112 50.1 112 112v10.1L328.6 432H183.4L96 330.1V320c0-61.9 50.1-112 112-112h16 64 16z"/></svg>