<svg xmlns="http://www.w3.org/2000/svg" viewBox="0 0 512 512"><!--! Font Awesome Pro 6.5.1 by @fontawesome - https://fontawesome.com License - https://fontawesome.com/license (Commercial License) Copyright 2023 Fonticons, Inc. --><path d="M496 376H16V496H496V376zm0-16V240H16V360H496zm16 0v8 8V496v16H496 16 0V496 376v-8-8V240 224H16 496h16v16V360zM64 304a16 16 0 1 1 32 0 16 16 0 1 1 -32 0zm368-16a16 16 0 1 1 0 32 16 16 0 1 1 0-32zM64 432a16 16 0 1 1 32 0 16 16 0 1 1 -32 0zm368-16a16 16 0 1 1 0 32 16 16 0 1 1 0-32z"/></svg>