<svg xmlns="http://www.w3.org/2000/svg" viewBox="0 0 512 512"><!--! Font Awesome Pro 6.5.1 by @fontawesome - https://fontawesome.com License - https://fontawesome.com/license (Commercial License) Copyright 2023 Fonticons, Inc. --><path d="M495.9 248H392h-8v16h8H495.9C491.7 390.2 390.2 491.7 264 495.9V392v-8H248v8V495.9C121.8 491.7 20.3 390.2 16.1 264H120h8V248h-8H16.1C20.3 121.8 121.8 20.3 248 16.1V120v8h16v-8V16.1C390.2 20.3 491.7 121.8 495.9 248zM256 512A256 256 0 1 0 256 0a256 256 0 1 0 0 512z"/></svg>