<svg xmlns="http://www.w3.org/2000/svg" viewBox="0 0 640 512"><!--! Font Awesome Pro 6.5.1 by @fontawesome - https://fontawesome.com License - https://fontawesome.com/license (Commercial License) Copyright 2023 Fonticons, Inc. --><path d="M440 0c-48.6 0-88 39.4-88 88v59.9L3.3 401.5l6.6 14.2L137 384h149l52.7 128h17.3L303.2 384H336c15.1 0 29.8-1.7 43.9-5l54.8 133h17.3L395.4 374.6c77-25 132.6-97.3 132.6-182.6V148l112-28V84L592 48H518.4C503.8 19.5 474.2 0 440 0zM624 107.5l-96 24V88c0-8.3-1.2-16.4-3.3-24h62L624 92v15.5zM201 368l21.3-5.3C307.9 341.3 368 264.3 368 176v-8V88c0-39.8 32.2-72 72-72s72 32.2 72 72V192c0 97.2-78.8 176-176 176H201zM352 168v8c0 81-55.1 151.5-133.6 171.2L46 390.3 352 167.7v.3zM456 96a16 16 0 1 0 -32 0 16 16 0 1 0 32 0z"/></svg>