<svg xmlns="http://www.w3.org/2000/svg" viewBox="0 0 448 512"><!--! Font Awesome Pro 6.5.1 by @fontawesome - https://fontawesome.com License - https://fontawesome.com/license (Commercial License) Copyright 2023 Fonticons, Inc. --><path d="M432 224c0 55.9-22 106.6-57.9 144h21.5c32.7-38.9 52.4-89.2 52.4-144C448 100.3 347.7 0 224 0S0 100.3 0 224c0 54.8 19.7 105.1 52.4 144H73.9C38 330.6 16 279.9 16 224C16 109.1 109.1 16 224 16s208 93.1 208 208zM19 512H429h19l-10.3-16L376 400H72L10.3 496 0 512H19zm348.2-96l51.4 80H29.3l51.4-80H367.3zM296 152H280v8 56H224h-8v16h8 56v56 8h16v-8V232h56 8V216h-8H296V160v-8zM152 104H136v8 24H112h-8v16h8 24v24 8h16v-8V152h24 8V136h-8H152V112v-8z"/></svg>