<svg xmlns="http://www.w3.org/2000/svg" viewBox="0 0 448 512"><!--! Font Awesome Pro 6.5.1 by @fontawesome - https://fontawesome.com License - https://fontawesome.com/license (Commercial License) Copyright 2023 Fonticons, Inc. --><path d="M304 48H208v96h96V48zM208 32h96 16V48v96 16H304 208 192V144 48 32h16zM76.8 228.8l48 83.1L208 264l-48-83.1-83.1 48zM55 223l13.9-8L152 167l13.9-8 8 13.9 48 83.1 8 13.9-13.9 8-83.1 48-13.9 8L111 320 63 236.8 55 223zm313-15H272v96h96V208zM256 192h16 96 16v16 96 16H368 272 256V304 208 192zm80 272h96V368H336v96zM320 352h16 96 16v16 96 16H432 336 320V464 368 352zm-48 16H176v96h96V368zm-96-16h96 16v16 96 16H272 176 160V464 368 352h16zM16 368v96h96V368H16zM0 352H16h96 16v16 96 16H112 16 0V464 368 352z"/></svg>