<svg xmlns="http://www.w3.org/2000/svg" viewBox="0 0 576 512"><!--! Font Awesome Pro 6.5.1 by @fontawesome - https://fontawesome.com License - https://fontawesome.com/license (Commercial License) Copyright 2023 Fonticons, Inc. --><path d="M290.7 6.5l-2.7-1-2.7 1L149.3 55 144 56.9v5.6V218.5L5.4 265.2 0 267v5.7V434.9v5.2l4.7 2.1 136 61.2 3 1.3 3.1-1.1L288 451.4l141.2 52.2 3.1 1.1 3-1.3 136-61.2 4.7-2.1v-5.2V272.8 267l-5.4-1.8L432 218.5V62.6 56.9L426.7 55 290.7 6.5zM280 437.3L152 484.6v-143l128-49.8V437.3zM136 483.8l-120-54v-145l120 56.5V483.8zm15.7-251l114.1 47.4L144.3 327.4 30.2 273.7l121.5-40.9zm144.3 59l128 49.8v143L296 437.3V291.8zm-16-23L160 218.9V70.8l120 46v152zm16 0v-152l120-46V218.9L296 268.8zM396.4 61.2L288 102.7 179.6 61.2 288 22.5 396.4 61.2zm-86.1 219l114.1-47.4 121.9 41.1L431.7 327.4 310.2 280.2zM560 429.7l-120 54V341.2L560 285V429.7z"/></svg>