<svg xmlns="http://www.w3.org/2000/svg" viewBox="0 0 448 512"><!--! Font Awesome Pro 6.5.1 by @fontawesome - https://fontawesome.com License - https://fontawesome.com/license (Commercial License) Copyright 2023 Fonticons, Inc. --><path d="M384 0H64L32 64H16 0V80v32 16H16 32 416h16 16V112 80 64H432 416L384 0zm32 80h16v32H416 32 16V80H32h9.9l4.4-8.8L73.9 16H374.1l27.6 55.2 4.4 8.8H416zM47.4 160L80 512H368l32.6-352H384.5l-5.9 64H69.4l-5.9-64H47.4zm23.5 80H377.1L363.8 384H84.2L70.9 240zM85.7 400H362.3l-8.9 96H94.6l-8.9-96z"/></svg>