<svg xmlns="http://www.w3.org/2000/svg" viewBox="0 0 448 512"><!--! Font Awesome Pro 6.5.1 by @fontawesome - https://fontawesome.com License - https://fontawesome.com/license (Commercial License) Copyright 2023 Fonticons, Inc. --><path d="M208 0H193.1l8.3 12.4 10.8 16.3c2.5 3.7 3.8 8.1 3.8 12.6C216 53.8 205.8 64 193.3 64H152c-35.3 0-64 28.7-64 64H80c-44.2 0-80 35.8-80 80v72 8H8 440h8v-8V208c0-44.2-35.8-80-80-80h-8.1c0-.9 .1-1.8 .1-2.7C360 56.1 303.9 0 234.7 0H208zm17.5 19.8L222.9 16h11.7C295 16 344 65 344 125.3c0 3.2-.3 6.2-.8 9.2l-1.7 9.4H351h17c35.3 0 64 28.7 64 64v64H16V208c0-35.3 28.7-64 64-64H96.6h9.2l-1.3-9.1c-.3-2.2-.5-4.5-.5-6.9c0-26.5 21.5-48 48-48h41.3C214.7 80 232 62.7 232 41.3c0-7.6-2.3-15.1-6.5-21.5zM96 512H352l27.4-192H363.3L338.1 496H272l14.7-176H270.6L256 495.3c0 .2 0 .4 0 .7H192c0-.2 0-.4 0-.7L177.4 320H161.3L176 496H109.9L84.7 320H68.6L96 512z"/></svg>