<svg xmlns="http://www.w3.org/2000/svg" viewBox="0 0 576 512"><!--! Font Awesome Pro 6.5.1 by @fontawesome - https://fontawesome.com License - https://fontawesome.com/license (Commercial License) Copyright 2023 Fonticons, Inc. --><path d="M184 32h-8v8V160H104 96v8 56H64L0 288v24 24 80l64 64H512l64-64V336 312 288l-64-64H480V168v-8h-8H192V48H408h8V32h-8H184zM464 224H112V176h72H464v48zM70.6 240H464h16 25.4L560 294.6V312v24 8H16v-8V312 294.6L70.6 240zM16 360H560v49.4L505.4 464H70.6L16 409.4V360z"/></svg>