<svg xmlns="http://www.w3.org/2000/svg" viewBox="0 0 384 512"><!--! Font Awesome Pro 6.5.1 by @fontawesome - https://fontawesome.com License - https://fontawesome.com/license (Commercial License) Copyright 2023 Fonticons, Inc. --><path d="M200 0V8 128h40 16 56 64 8v8 32c0 22.1-17.9 40-40 40s-40-17.9-40-40V144H256 240 200 184 144 128 80v24c0 22.1-17.9 40-40 40s-40-17.9-40-40V136v-8H8 72h56 16 40V8 0h16zM64 144H16v24c0 13.3 10.7 24 24 24s24-10.7 24-24V144zm256 0v24c0 13.3 10.7 24 24 24s24-10.7 24-24V144H320zM144 426.4l48 60 48-60V176h16V432l-53.8 67.2L192 512l-10.2-12.8L128 432V176h16V426.4z"/></svg>