<svg xmlns="http://www.w3.org/2000/svg" viewBox="0 0 448 512"><!--! Font Awesome Pro 6.5.1 by @fontawesome - https://fontawesome.com License - https://fontawesome.com/license (Commercial License) Copyright 2023 Fonticons, Inc. --><path d="M16 190.1l107.9 64.7 1.9 1.1H128 320h2.2l1.9-1.1L432 190.1V299.5L317.8 368H130.2L16 299.5V190.1zm0-18.7V88.9L132.6 16H315.4L432 88.9v82.6L317.8 240H130.2L16 171.5zm0 251.7v-105l107.9 64.7 1.9 1.1H128 320h2.2l1.9-1.1L432 318.1v105L315.4 496H132.6L16 423.1zM128 0L0 80V432l128 80H320l128-80V80L320 0H128z"/></svg>