<svg xmlns="http://www.w3.org/2000/svg" viewBox="0 0 576 512"><!--! Font Awesome Pro 6.5.1 by @fontawesome - https://fontawesome.com License - https://fontawesome.com/license (Commercial License) Copyright 2023 Fonticons, Inc. --><path d="M240 8V0H224V8 32c0 26.5 21.5 48 48 48h16 8 8 6.1l-49.7 24.8-4.4 2.2V112v24 8h8 48 6.5l-11.3 32H112h0H88c-48.6 0-88 39.4-88 88v48 8H16v-8V264c0-39.8 32.2-72 72-72h24 0H312.9h5.7l1.9-5.3 15-42.7h.6 8V128h-2.9H336h-6.2H312 272V116.9L345.9 80h58.8l75.5 75.5c1 11.7 7 21.9 15.9 28.5v24H400h-6.1l-1.6 5.9L370 295.7c-1.3 4.8-2 9.8-2 14.7V496H296V352v-8h-8H218.8L181 313.8l-16.3-13.1 3.4 20.6 7.1 42.9-43.7 29.1-5 3.3 1.8 5.7L157.2 496H85.9L56.4 400.1l15.2-45.6 .4-1.2V352 320v-4.3l-3.6-2.4L43.8 296.9C39 293.7 35 289.5 32 284.7v23.4c1 .7 1.9 1.4 3 2.1l21 14v26.4L40.4 397.5l-.8 2.4 .8 2.5 32 104 1.7 5.6H80h88 10.8l-3.2-10.4-30.2-98.3 43-28.7 4.3-2.9-.9-5.1-4.6-27.4L211 358.2l2.2 1.8H216h64V504v8h8 88 8v-8V310.4c0-3.6 .5-7.1 1.4-10.5L406.1 224H504h8v-8V191.2c2.6 .5 5.3 .8 8 .8c22.1 0 40-17.9 40-40s-17.9-40-40-40c-16.4 0-30.5 9.9-36.7 24L427.2 79.9C452.2 78.2 472 57.4 472 32V8 0H456V8 32c0 17.7-14.3 32-32 32h-8-4.7H408h0H344h-1.9-2.3c7.6-8.5 12.2-19.7 12.2-32V8 0H336V8 32c0 17.7-14.3 32-32 32h-8-8H272c-17.7 0-32-14.3-32-32V8zM544 152a24 24 0 1 1 -48 0 24 24 0 1 1 48 0zm-128-8a16 16 0 1 0 -32 0 16 16 0 1 0 32 0z"/></svg>