<svg xmlns="http://www.w3.org/2000/svg" viewBox="0 0 576 512"><!--! Font Awesome Pro 6.5.1 by @fontawesome - https://fontawesome.com License - https://fontawesome.com/license (Commercial License) Copyright 2023 Fonticons, Inc. --><path d="M0 448H16 400L576 256 400 64H16 0V80 432v16zM554.3 256L393 432H16V80H393L554.3 256zM153.8 174.5l-11.3 11.3 5.7 5.7L212.7 256l-64.6 64.6-5.7 5.7 11.3 11.3 5.7-5.7L224 267.3l64.6 64.6 5.7 5.7 11.3-11.3-5.7-5.7L235.3 256l64.6-64.6 5.7-5.7-11.3-11.3-5.7 5.7L224 244.7l-64.6-64.6-5.7-5.7z"/></svg>