<svg xmlns="http://www.w3.org/2000/svg" viewBox="0 0 576 512"><!--! Font Awesome Pro 6.5.1 by @fontawesome - https://fontawesome.com License - https://fontawesome.com/license (Commercial License) Copyright 2023 Fonticons, Inc. --><path d="M576 448H560 176L0 256 176 64H560h16V80 432v16zM21.7 256L183 432H560V80H183L21.7 256zm400.5-81.5l11.3 11.3-5.7 5.7L363.3 256l64.6 64.6 5.7 5.7-11.3 11.3-5.7-5.7L352 267.3l-64.6 64.6-5.7 5.7-11.3-11.3 5.7-5.7L340.7 256l-64.6-64.6-5.7-5.7 11.3-11.3 5.7 5.7L352 244.7l64.6-64.6 5.7-5.7z"/></svg>