<svg xmlns="http://www.w3.org/2000/svg" viewBox="0 0 576 512"><!--! Font Awesome Pro 6.5.1 by @fontawesome - https://fontawesome.com License - https://fontawesome.com/license (Commercial License) Copyright 2023 Fonticons, Inc. --><path d="M16 0H248V16H16V400H231.8h.3H343.9h.3H560V16H328V0H560h16V16 400v16H560 353.4l13.3 80H440h8v16h-8H360 216 136h-8V496h8 73.2l13.3-80H16 0V400 16 0H16zM80 64H248V80H80V272H496V80H328V64H496h16V80 272v16H496 80 64V272 80 64H80zM225.4 496H350.6l-13.3-80H238.8l-13.3 80zM296 8V212.7l74.3-74.3 5.7-5.7L387.3 144l-5.7 5.7-88 88-5.7 5.7-5.7-5.7-88-88-5.7-5.7L200 132.7l5.7 5.7L280 212.7V8 0h16V8z"/></svg>