<svg xmlns="http://www.w3.org/2000/svg" viewBox="0 0 512 512"><!--! Font Awesome Pro 6.5.1 by @fontawesome - https://fontawesome.com License - https://fontawesome.com/license (Commercial License) Copyright 2023 Fonticons, Inc. --><path d="M496 304L16 304l0 160 480 0V304zm16-16v16V464v16H496 16 0V464 304 288H16 248V163.3l-50.3 50.3-5.7 5.7L180.7 208l5.7-5.7 64-64 5.7-5.7 5.7 5.7 64 64 5.7 5.7L320 219.3l-5.7-5.7L264 163.3V288H496h16zm0-248V216v8h-8H400h-8V208h8 96V48L16 48l0 160h96 8v16h-8H8 0v-8V40 32H8l496 0h8v8z"/></svg>