<svg xmlns="http://www.w3.org/2000/svg" viewBox="0 0 512 512"><!--! Font Awesome Pro 6.5.1 by @fontawesome - https://fontawesome.com License - https://fontawesome.com/license (Commercial License) Copyright 2023 Fonticons, Inc. --><path d="M496 208L16 208 16 48l480 0V208zm16 16V208 48 32H496 16 0V48 208v16H16 248V348.7l-50.3-50.3-5.7-5.7L180.7 304l5.7 5.7 64 64 5.7 5.7 5.7-5.7 64-64 5.7-5.7L320 292.7l-5.7 5.7L264 348.7V224H496h16zm0 248V296v-8h-8H400h-8v16h8 96V464L16 464l0-160h96 8V288h-8H8 0v8V472v8H8l496 0h8v-8z"/></svg>