<svg xmlns="http://www.w3.org/2000/svg" viewBox="0 0 640 512"><!--! Font Awesome Pro 6.5.1 by @fontawesome - https://fontawesome.com License - https://fontawesome.com/license (Commercial License) Copyright 2023 Fonticons, Inc. --><path d="M512 48V336H624V48H512zm-16 0H384V192H496V48zM368 48H272V336h96V48zM256 48H144V192H256V48zM128 48H16V336H128V48zM16 352V464H312V352H16zM328 464H624V352H328V464zM0 32H16 624h16V48 464v16H624 16 0V464 48 32zM256 336V208H144V336H256zM496 208H384V336H496V208z"/></svg>