<svg xmlns="http://www.w3.org/2000/svg" viewBox="0 0 576 512"><!--! Font Awesome Pro 6.5.1 by @fontawesome - https://fontawesome.com License - https://fontawesome.com/license (Commercial License) Copyright 2023 Fonticons, Inc. --><path d="M272 16h32V48H272V16zM256 0V16 48 64h16 32 16V48 16 0H304 272 256zM80 80h32v32H80V80zM64 64V80v32 16H80h32 16V112 80 64H112 80 64zM464 80h32v32H464V80zM448 64V80v32 16h16 32 16V112 80 64H496 464 448zM560 272v32H528V272h32zm-32-16H512v16 32 16h16 32 16V304 272 256H560 528zM464 464h32v32H464V464zm-16-16v16 32 16h16 32 16V496 464 448H496 464 448zM112 464v32H80V464h32zM80 448H64v16 32 16H80h32 16V496 464 448H112 80zM48 272v32H16V272H48zM16 256H0v16 32 16H16 48 64V304 272 256H48 16zm264 32V431.8c-75.8-4.2-136-66.9-136-143.8c0-79.5 64.5-144 144-144s144 64.5 144 144c0 76.8-60.2 139.6-136 143.8V288v-8H280v8zm8 160a160 160 0 1 0 0-320 160 160 0 1 0 0 320z"/></svg>