<svg xmlns="http://www.w3.org/2000/svg" viewBox="0 0 512 512"><!--! Font Awesome Pro 6.5.1 by @fontawesome - https://fontawesome.com License - https://fontawesome.com/license (Commercial License) Copyright 2023 Fonticons, Inc. --><path d="M11.3 267.3L0 256l11.3-11.3L244.7 11.3 256 0l11.3 11.3L500.7 244.7 512 256l-11.3 11.3L267.3 500.7 256 512l-11.3-11.3L11.3 267.3zM22.6 256L256 489.4 489.4 256 256 22.6 22.6 256zm287-109.7l72 72 5.7 5.7-5.7 5.7-72 72-5.7 5.7L292.7 296l5.7-5.7L356.7 232H200v96 8H184v-8V224v-8h8H356.7l-58.3-58.3-5.7-5.7L304 140.7l5.7 5.7z"/></svg>