<svg xmlns="http://www.w3.org/2000/svg" viewBox="0 0 512 512"><!--! Font Awesome Pro 6.5.1 by @fontawesome - https://fontawesome.com License - https://fontawesome.com/license (Commercial License) Copyright 2023 Fonticons, Inc. --><path d="M0 187.4v11.7V324.6L68.6 443.4l108.5 62.7 10.3 5.9H324.6l10.3-5.9 108.5-62.7L512 324.6V199.1 187.4L443.4 68.6 434 63.2 324.6 0H187.4L78 63.2l-9.4 5.4L0 187.4zM80.1 80.6L248 133.9V251.2L129.6 314.6 16 192.8v-1.1L80.1 80.6zM264 133.9L431.9 80.6 496 191.7v1.1L382.4 314.6 264 251.2V133.9zM413.4 69.7L256 119.6 98.6 69.7 191.7 16l128.6 0 93.1 53.7zM496 216.3v104L431.7 431.7 342 483.5l49-154.7L496 216.3zm-174.5 279l-1.2 .7H191.7l-1.2-.7L137.6 328.5 256 265.1l118.4 63.4L321.5 495.3zM170 483.5L80.3 431.7 16 320.3l0-104L120.9 328.7l49 154.7z"/></svg>