<svg xmlns="http://www.w3.org/2000/svg" viewBox="0 0 512 512"><!--! Font Awesome Pro 6.5.1 by @fontawesome - https://fontawesome.com License - https://fontawesome.com/license (Commercial License) Copyright 2023 Fonticons, Inc. --><path d="M248 507.4l8 4.6 8-4.6L480 384v-8s0 0 0 0V137.8 128l-7.6-4.4L256 0 39.6 123.6 32 128v9.8V376s0 0 0 0v8L248 507.4zM67.9 386.1L248 399.4V489L67.9 386.1zM264 399.4l180.1-13.3L264 489V399.4zm200-51.6L378.7 210.2 464 149.3V347.9zM370.5 196.4L272 27.6 458 133.9l-87.5 62.5zM240 27.6L141.5 196.4 54 133.9 240 27.6zM48 149.3l85.3 60.9L48 347.9V149.3zm95.9 74l97.1 159.6L53.7 369l90.2-145.7zm127 159.6l97.1-159.6L458.3 369 270.9 382.9zM256 376.6L158.2 216H353.8L256 376.6zM157.9 200L256 31.9 354.1 200H157.9z"/></svg>