<svg xmlns="http://www.w3.org/2000/svg" viewBox="0 0 640 512"><!--! Font Awesome Pro 6.5.1 by @fontawesome - https://fontawesome.com License - https://fontawesome.com/license (Commercial License) Copyright 2023 Fonticons, Inc. --><path d="M427.1 0H432h24C557.6 0 640 82.4 640 184v34.2c0 76.4-37.6 147.9-100.6 191.2L512 428.2V504v8h-8H392h-8v-8V458.4c-6.1 1.5-14.5 3.5-24.4 5.5c-11.6 2.3-25.3 4.7-39.6 6.2V454c13-1.5 25.6-3.7 36.4-5.8c9.9-2 18.2-3.9 24.1-5.4c3-.7 5.3-1.4 6.9-1.8l1.8-.5 .4-.1 .1 0 0 0 0 0 0 0 10.2-2.9V448v48h96V424v-4.2l3.5-2.4 30.9-21.2C589 355.9 624 289.3 624 218.2V184c0-92.8-75.2-168-168-168H436.9L423.2 43.6l-1.4 2.7L419 47.4l-35 14V112H488c39.8 0 72 32.2 72 72v72 8h-8H480h-2.5l-2-1.4-72.4-49.8c-34.9-24-76.2-36.8-118.6-36.8c-52.4 0-102.8 19.6-141.4 55L16 347.5V496H272V457.2L102.5 423.8 96 422.6V416 360v-8h16v8 49.4l169.5 33.4 6.5 1.3v6.6V456v16 32 8h-8H8 0v-8V344v-3.5l2.6-2.4L132.3 219.2c41.5-38.1 95.9-59.2 152.2-59.2c45.6 0 90.1 13.8 127.6 39.6L482.5 248H544V184c0-30.9-25.1-56-56-56H376h-8v-8V56 50.6l5-2 37.2-14.9L424.8 4.4 427.1 0zM464 48a16 16 0 1 1 0 32 16 16 0 1 1 0-32z"/></svg>