<svg xmlns="http://www.w3.org/2000/svg" viewBox="0 0 512 512"><!--! Font Awesome Pro 6.5.1 by @fontawesome - https://fontawesome.com License - https://fontawesome.com/license (Commercial License) Copyright 2023 Fonticons, Inc. --><path d="M32 32h8H472h8v8V464h24 8v16h-8H472 40 8 0V464H8 32V40 32zM48 464H464V48H48V464zM96 256a160 160 0 1 1 320 0A160 160 0 1 1 96 256zM256 400a144 144 0 1 0 0-288 144 144 0 1 0 0 288zm16-144a16 16 0 1 0 -32 0 16 16 0 1 0 32 0zm-48 0a32 32 0 1 1 64 0 32 32 0 1 1 -64 0z"/></svg>