<svg xmlns="http://www.w3.org/2000/svg" viewBox="0 0 576 512"><!--! Font Awesome Pro 6.5.1 by @fontawesome - https://fontawesome.com License - https://fontawesome.com/license (Commercial License) Copyright 2023 Fonticons, Inc. --><path d="M16 16V400H231.8h.3H343.9h.3H560V16H16zM222.6 416H16 0V400 16 0H16 560h16V16 400v16H560 353.4l13.3 80H440h8v16h-8H360 216 136h-8V496h8 73.2l13.3-80zm16.2 0l-13.3 80H350.6l-13.3-80H238.8zM496 80H80V336H496V80zM80 64H496h16V80 336v16H496 80 64V336 80 64H80zm181.3 49.3h53.3 8v8 52h52 8v8 53.3 8h-8-52v52 8h-8H261.3h-8v-8-52h-52-8v-8V181.3v-8h8 52v-52-8h8zm8 68v8h-8-52v37.3h52 8v8 52h37.3v-52-8h8 52V189.3l-52 0h-8v-8-52H269.3v52z"/></svg>