<svg xmlns="http://www.w3.org/2000/svg" viewBox="0 0 640 512"><!--! Font Awesome Pro 6.5.1 by @fontawesome - https://fontawesome.com License - https://fontawesome.com/license (Commercial License) Copyright 2023 Fonticons, Inc. --><path d="M592 16V389.3L608 402v-2V16 0H592 48 32V.2H99L119.1 16H592zM32 110.3V400v16H48 254.6l-13.3 80H168h-8v16h8 80H392h80 8V496h-8H398.8l-13.3-80h33.7l-20.3-16H376.2h-.3H264.1h-.3H48V123L32 110.3zM112 352H338.1l-20.3-16H112V173.5L96 160.8V336v16h16zm432-16V80 64H528 179.9l20.3 16H528V336h-3.6L544 351.5V336zM257.4 496l13.3-80h98.4l13.3 80H257.4zM16.2 5L9.9 0 0 12.5l6.3 5L623.8 507l6.3 5 9.9-12.5-6.3-5L16.2 5z"/></svg>