<svg xmlns="http://www.w3.org/2000/svg" viewBox="0 0 640 512"><!--! Font Awesome Pro 6.5.1 by @fontawesome - https://fontawesome.com License - https://fontawesome.com/license (Commercial License) Copyright 2023 Fonticons, Inc. --><path d="M560 16H16V400H231.8h.3 90.8c1 5.4 2.2 10.8 3.7 16H238.8l-13.3 80H288h62.6 16.2 8.4c6.1 5.8 12.7 11.1 19.6 16H360 216 136h-8V496h8 73.2l13.3-80H16 0V400 16 0H16 560h16V16 211.2c-5.2-2.7-10.5-5.1-16-7.2V16zM512 192.7c-5.3-.5-10.6-.7-16-.7V80H80V336H322.9c-1 5.3-1.7 10.6-2.2 16H80 64V336 80 64H80 496h16V80 192.7zm-64 5.9c-5.4 1.5-10.8 3.3-16 5.4V155.3L325.7 261.7l-5.7 5.7-5.7-5.7L240 187.3 133.7 293.7l-5.7 5.7L116.7 288l5.7-5.7 112-112 5.7-5.7 5.7 5.7L320 244.7 420.7 144H352h-8V128h8 88 8v8 62.6zM496 496a128 128 0 1 0 0-256 128 128 0 1 0 0 256zm0-272a144 144 0 1 1 0 288 144 144 0 1 1 0-288zm-28.2 93.9c-8 4.1-12.3 9.7-11.7 17.6c.4 5.2 3.6 9.5 11.5 13.5c7.9 4 18.3 6.8 30 10l1 .3c11.5 3.1 24.3 6.6 34.1 12.1c10.2 5.7 18.8 14.5 19.2 28.4c.5 16.4-8.9 27-20.4 33c-8.5 4.4-18.5 6.5-27.6 7.1v17.7 8H488v-8V439.4c-12.6-1.4-24.7-5.1-35.9-8.5l0 0c-2.1-.7-4.3-1.3-6.3-1.9l-7.7-2.3 4.5-15.3 7.7 2.3c2.3 .7 4.5 1.3 6.7 2l0 0 0 0c13.6 4.1 26.1 7.9 39.2 8.3c9.4 .3 20.1-1.4 28-5.5c7.6-3.9 12-9.6 11.7-18.3c-.2-6.2-3.6-10.7-11.1-14.9c-7.8-4.4-18.5-7.4-30.5-10.6l-1.8-.5c-11-2.9-22.9-6.1-32.3-11c-10.1-5.2-19.3-13.3-20.2-26.7c-1.1-16.5 8.9-27.1 20.4-32.9c8.5-4.3 18.5-6.5 27.4-7.3V280v-8h16v8 16.4c10.2 .8 20.4 2.8 29.8 5l7.8 1.8-3.7 15.6-7.8-1.8c-11.4-2.7-23.1-4.8-34.3-5c-8.8-.1-19.8 1.6-28.1 5.8z"/></svg>