<svg xmlns="http://www.w3.org/2000/svg" viewBox="0 0 576 512"><!--! Font Awesome Pro 6.5.1 by @fontawesome - https://fontawesome.com License - https://fontawesome.com/license (Commercial License) Copyright 2023 Fonticons, Inc. --><path d="M560 16V400H344.2h-.3H232.1h-.3H16V16H560zM16 416H222.6l-13.3 80H136h-8v16h8 80H360h80 8V496h-8H366.8l-13.3-80H560h16V400 16 0H560 16 0V16 400v16H16zm209.4 80l13.3-80h98.4l13.3 80H225.4zM80 80H496V336H80V80zM64 64V80 336v16H80 496h16V336 80 64H496 80 64z"/></svg>