<svg xmlns="http://www.w3.org/2000/svg" viewBox="0 0 640 512"><!--! Font Awesome Pro 6.5.1 by @fontawesome - https://fontawesome.com License - https://fontawesome.com/license (Commercial License) Copyright 2023 Fonticons, Inc. --><path d="M560 16H16V400H231.8h.3 90.8c1 5.4 2.2 10.8 3.7 16H238.8l-13.3 80H288h62.6 16.2 8.4c6.1 5.8 12.7 11.1 19.6 16H360 216 136h-8V496h8 73.2l13.3-80H16 0V400 16 0H16 560h16V16 211.2c-5.2-2.7-10.5-5.1-16-7.2V16zM512 192.7c-5.3-.5-10.6-.7-16-.7V80H80V336H322.9c-1 5.3-1.7 10.6-2.2 16H80 64V336 80 64H80 496h16V80 192.7zm-64 5.9c-5.4 1.5-10.8 3.3-16 5.4V155.3L325.7 261.7l-5.7 5.7-5.7-5.7L240 187.3 133.7 293.7l-5.7 5.7L116.7 288l5.7-5.7 112-112 5.7-5.7 5.7 5.7L320 244.7 420.7 144H352h-8V128h8 88 8v8 62.6zM496 496a128 128 0 1 0 0-256 128 128 0 1 0 0 256zm0-272a144 144 0 1 1 0 288 144 144 0 1 1 0-288zm0 200a56 56 0 1 0 0-112 56 56 0 1 0 0 112zm56.3-11.1l21.4 21.4-11.3 11.3-21.4-21.4C528.6 434.1 513 440 496 440s-32.6-5.9-44.9-15.7l-21.4 21.4-11.3-11.3 21.4-21.4C429.9 400.6 424 385 424 368s5.9-32.6 15.7-44.9l-21.4-21.4 11.3-11.3 21.4 21.4C463.4 301.9 479 296 496 296s32.6 5.9 44.9 15.7l21.4-21.4 11.3 11.3-21.4 21.4C562.1 335.4 568 351 568 368s-5.9 32.6-15.7 44.9z"/></svg>