<svg xmlns="http://www.w3.org/2000/svg" viewBox="0 0 576 512"><!--! Font Awesome Pro 6.5.1 by @fontawesome - https://fontawesome.com License - https://fontawesome.com/license (Commercial License) Copyright 2023 Fonticons, Inc. --><path d="M336 345.2v24.2V496h80l0-246.7-4-2.4L317.8 192h-3.2H184h-8H152 104.5c-24.2 0-44.6-18-47.6-42l-1-7.9-2-15.9-31.8 4 2 15.9 1 7.9c3.5 28.1 21.3 51.3 45.6 62.6l9.2 4.3v10.2V496h80V369.4 345.2l22.3 9.5c20.2 8.6 42.4 13.3 65.7 13.3s45.6-4.8 65.7-13.3l22.3-9.5zm89.6-155.8l2.2-13.4h13.6H464h40c30.9 0 56-25.1 56-56V80H496h-6.6l-4.7-4.7L457.4 48H400h-8l-4.8-6.4L368 16H357.6L330.4 178.6l-.3 2 88.3 51.5 7.1-42.8zM6.3 132.1l-2-15.9 15.9-2 31.8-4 15.9-2 2 15.9 2 15.9 1 7.9c2 16 15.6 28 31.8 28H152h24 8H314.7L344 0h32l24 32h64l32 32h64 16V80v40c0 39.8-32.2 72-72 72H464 441.3L432 248l0 248v16H416 336 320V496 386.6 369.4c-5.2 2.2-10.6 4.2-16 5.9c-17.7 5.6-36.5 8.7-56 8.7s-38.3-3-56-8.7c-5.4-1.7-10.8-3.7-16-5.9v17.3V496v16H160 80 64V496 231.1c-29.1-13.6-50.5-41.4-54.8-75.1l-1-7.9-2-15.9zM444 80a12 12 0 1 1 0 24 12 12 0 1 1 0-24z"/></svg>