<svg xmlns="http://www.w3.org/2000/svg" viewBox="0 0 512 512"><!--! Font Awesome Pro 6.5.1 by @fontawesome - https://fontawesome.com License - https://fontawesome.com/license (Commercial License) Copyright 2023 Fonticons, Inc. --><path d="M48 140C48 71.5 103.5 16 172 16h40.3c44.1 0 85.9 10.1 123.2 28.1l2.5 1.2 2.7-.6L454 19.8l8.1 6.5-36.5 79.1-2.2 4.7 3.4 3.9C469.9 163.8 496 228.7 496 299.7C496 381.6 429.6 448 347.7 448H261.3h-5.2l-2.1 4.8L234.8 496H180.3l27-60.8 1.4-3.2-1.4-3.2-27-60.8h54.5L254 411.2l2.1 4.8h5.2H332c42 0 76-34 76-76s-34-76-76-76h-4-8v8 80H293.3l-79.3-77.7-2.3-2.3h-3.3H32 16V256 240v-9.2l7.9-4.6 34.2-19.9 6.5-3.8-3.4-6.7C52.8 179 48 160.1 48 140zM172 0C94.7 0 32 62.7 32 140c0 19.9 4.2 38.9 11.7 56.1L15.9 212.4 4 219.3l-4 2.3v4.6V240v16 24 8H8 32 205.1l79.3 77.7 2.3 2.3H290h38 8v-8V280.1c31.3 2.1 56 28.1 56 59.9c0 33.1-26.9 60-60 60H266.5l-19.2-43.2-2.1-4.8H240 168 155.7l5 11.2L191.2 432l-30.6 68.8-5 11.2H168h72 5.2l2.1-4.8L266.5 464h81.2C438.5 464 512 390.5 512 299.7c0-73.1-26.2-140.2-69.7-192.2l37-80.2 2.6-5.7L477 17.8 461 5l-3-2.4-3.7 .8L339.9 28.4C301.2 10.2 257.9 0 212.3 0H172zM144 160a16 16 0 1 0 0-32 16 16 0 1 0 0 32z"/></svg>