<svg xmlns="http://www.w3.org/2000/svg" viewBox="0 0 512 512"><!--! Font Awesome Pro 6.5.1 by @fontawesome - https://fontawesome.com License - https://fontawesome.com/license (Commercial License) Copyright 2023 Fonticons, Inc. --><path d="M452.7 196.7l-21.4-21.4L420 164l11.3-11.3 69.4-69.4L512 72 500.7 60.7 451.3 11.3 440 0 428.7 11.3 359.3 80.7 348 92 336.7 80.7 315.3 59.3 304 48 292.7 59.3 272 80V224v16h16H432l20.7-20.7L464 208l-11.3-11.3zm-44-44L397.4 164l11.3 11.3L441.4 208l-16 16H288V86.6l16-16 32.7 32.7L348 114.6l11.3-11.3L440 22.6 489.4 72l-80.7 80.7zM59.3 315.3l21.4 21.4L92 348 80.7 359.3 11.3 428.7 0 440l11.3 11.3 49.4 49.4L72 512l11.3-11.3 69.4-69.4L164 420l11.3 11.3 21.4 21.4L208 464l11.3-11.3L240 432V288 272H224 80L59.3 292.7 48 304l11.3 11.3zm44 44L114.6 348l-11.3-11.3L70.6 304l16-16H224V425.4l-16 16-32.7-32.7L164 397.4l-11.3 11.3L72 489.4 22.6 440l80.7-80.7z"/></svg>