<svg xmlns="http://www.w3.org/2000/svg" viewBox="0 0 512 512"><!--! Font Awesome Pro 6.5.1 by @fontawesome - https://fontawesome.com License - https://fontawesome.com/license (Commercial License) Copyright 2023 Fonticons, Inc. --><path d="M264 8V0H248V8 356.7L133.7 242.3l-5.7-5.7L116.7 248l5.7 5.7 128 128 5.7 5.7 5.7-5.7 128-128 5.7-5.7L384 236.7l-5.7 5.7L264 356.7V8zM143.4 320H16 0v16V496v16H16 496h16V496 336 320H496 368.6l-16 16H496V496H16V336H159.4l-16-16zM432 432a16 16 0 1 1 0-32 16 16 0 1 1 0 32zm-32-16a32 32 0 1 0 64 0 32 32 0 1 0 -64 0z"/></svg>