<svg xmlns="http://www.w3.org/2000/svg" viewBox="0 0 448 512"><!--! Font Awesome Pro 6.5.1 by @fontawesome - https://fontawesome.com License - https://fontawesome.com/license (Commercial License) Copyright 2023 Fonticons, Inc. --><path d="M160 160H144 80 64v16 16L212.7 340.7 224 352l11.3-11.3L384 192V176 160H368 304 288V144 16 0H272 176 160V16 144v16zm0 16h16V160 16h96V160v16h16 80v9.4l-144 144L80 185.4V176h80zM16 328v-8H0v8V504c0 4.4 3.6 8 8 8H440c4.4 0 8-3.6 8-8V328v-8H432v8V496H16V328z"/></svg>