<svg xmlns="http://www.w3.org/2000/svg" viewBox="0 0 448 512"><!--! Font Awesome Pro 6.5.1 by @fontawesome - https://fontawesome.com License - https://fontawesome.com/license (Commercial License) Copyright 2023 Fonticons, Inc. --><path d="M16 480H48V448H16v32zm128 0V448H112v32h32zm96 0V448H208v32h32zm96 0V448H304v32h32zm64 0h32V448H400v32zM160 208H144 80 64v16 16L212.7 388.7 224 400l11.3-11.3L384 240V224 208H368 304 288V192 64 48H272 176 160V64 192v16zm0 16h16V208 64h96V208v16h16 80v9.4l-144 144L80 233.4V224h80z"/></svg>