<svg xmlns="http://www.w3.org/2000/svg" viewBox="0 0 384 512"><!--! Font Awesome Pro 6.5.1 by @fontawesome - https://fontawesome.com License - https://fontawesome.com/license (Commercial License) Copyright 2023 Fonticons, Inc. --><path d="M132.7 315.3L59.3 388.7 48 400l11.3 11.3L80 432H352h16V416 144l-20.7-20.7L336 112l-11.3 11.3-73.4 73.4L240 208l-11.3-11.3L107.3 75.3 96 64 84.7 75.3 11.3 148.7 0 160l11.3 11.3L132.7 292.7 144 304l-11.3 11.3zM22.6 160L96 86.6 228.7 219.3 240 230.6l11.3-11.3L336 134.6l16 16V416H86.6l-16-16 84.7-84.7L166.6 304l-11.3-11.3L22.6 160z"/></svg>