<svg xmlns="http://www.w3.org/2000/svg" viewBox="0 0 448 512"><!--! Font Awesome Pro 6.5.1 by @fontawesome - https://fontawesome.com License - https://fontawesome.com/license (Commercial License) Copyright 2023 Fonticons, Inc. --><path d="M16 48V80H48V48H16zm128 0H112V80h32V48zm96 0H208V80h32V48zm96 0H304V80h32V48zm64 0V80h32V48H400zM160 288H144 80 64v16 16L212.7 468.7 224 480l11.3-11.3L384 320V304 288H368 304 288V272 144 128H272 176 160v16V272v16zm0 16h16V288 144h96V288v16h16 80v9.4l-144 144L80 313.4V304h80z"/></svg>