<svg xmlns="http://www.w3.org/2000/svg" viewBox="0 0 640 512"><!--! Font Awesome Pro 6.5.1 by @fontawesome - https://fontawesome.com License - https://fontawesome.com/license (Commercial License) Copyright 2023 Fonticons, Inc. --><path d="M272 0h24H424h16 88 3.7L534 2.8l104 120 2 2.3v3 64 8h-8H536h-3.3l-2.3-2.3L500.7 168H480v48L614.4 316.8l22.4 16.8L640 336v4 28 80 56 8h-8H576 528 456 40 8 0v-8V440v-8H8 37.8l400.9-43.7-78.2-99.5-4.4-5.6-.9-.7L352 280v-4V248 137.6l-59.2-26.3-12.5-5.5 10.9-8.2L346.7 56 291.2 14.4 272 0zm48 16l44.8 33.6 8.5 6.4-8.5 6.4-53.1 39.8 51.5 22.9 4.8 2.1v5.2V248v24.3l.1 .1 5.1 6.4 81.2 103.3 1.7 2.2v2.8 8.2 7.2l-7.1 .8L39.1 448l-.4 0h-.4H16v48H40 456h72 48 48V448 368 344l-19.2-14.4L467.2 226.4 464 224v-4V160v-8h8 32 3.3l2.3 2.3L539.3 184H624V131L524.3 16H440 424 320zm0 177.1l0 19.2L161.1 106.4 43 230l148.2-14 22.1-2.1-15.7 15.7L123.3 304H332.3c1.9 5.4 4.1 10.8 6.5 16H104 84.7l13.7-13.7 72.3-72.3L23.2 248 1.8 250l14.8-15.5 137.6-144 4.6-4.9 5.6 3.7L320 193.1zM491.6 64.8l32 16 7.2 3.6-7.2 14.3-7.2-3.6-32-16-7.2-3.6 7.2-14.3 7.2 3.6z"/></svg>