<svg xmlns="http://www.w3.org/2000/svg" viewBox="0 0 448 512"><!--! Font Awesome Pro 6.5.1 by @fontawesome - https://fontawesome.com License - https://fontawesome.com/license (Commercial License) Copyright 2023 Fonticons, Inc. --><path d="M316.3 175l90.3 90.3 11.3 11.3L429.3 288l-11.3 11.3-11.3 11.3-160 160-9.4 9.4H224 32 16 0V464 448 256 242.7l9.4-9.4 160-160 11.3-11.3L192 50.7l11.3 11.3 11.3 11.3L305 163.7 434.3 34.3l11.3 11.3L316.3 175zM16 249.4V256 448v16H32 224h6.6l4.7-4.7L317.7 377 103 162.3 20.7 244.7 16 249.4zm379.3 49.9L406.6 288l-11.3-11.3-192-192L192 73.4 180.7 84.7 114.3 151 329 365.7l66.3-66.3z"/></svg>