<svg xmlns="http://www.w3.org/2000/svg" viewBox="0 0 640 512"><!--! Font Awesome Pro 6.5.1 by @fontawesome - https://fontawesome.com License - https://fontawesome.com/license (Commercial License) Copyright 2023 Fonticons, Inc. --><path d="M152 104V96H136v8 24H16 8v16h8H136V296v8h8 53.6l0 0-35.7 42.9-1.9 2.2V352v56 8h16v-8V354.9l35-42 56.6 37.7 2 1.3H272h96 2.4l2-1.3L429 312.9l35 42V408v8h16v-8V352v-2.9l-1.9-2.2L442.4 304l0 0H496h8v-8V144H624h8V128h-8H504V104 96H488v8 24H368h-8v16h8H488v99.8l-80-35c-25.3-11.1-52.6-16.8-80.2-16.8H312.2c-27.6 0-54.9 5.7-80.2 16.8l-80 35V144H272h8V128h-8H152V104zm0 157.2l86.4-37.8c23.3-10.2 48.4-15.4 73.8-15.4h15.7c25.4 0 50.5 5.3 73.8 15.4L488 261.2V288H440h-2.4l-2 1.3-70 46.7H274.4l-70-46.7-2-1.3H200 152V261.2z"/></svg>