<svg xmlns="http://www.w3.org/2000/svg" viewBox="0 0 448 512"><!--! Font Awesome Pro 6.5.1 by @fontawesome - https://fontawesome.com License - https://fontawesome.com/license (Commercial License) Copyright 2023 Fonticons, Inc. --><path d="M432 16V496H16V16H432zM16 0H0V16 496v16H16 432h16V496 16 0H432 16zM96 80a16 16 0 1 1 0 32 16 16 0 1 1 0-32zm0 48a32 32 0 1 0 0-64 32 32 0 1 0 0 64zm80-32a16 16 0 1 1 32 0 16 16 0 1 1 -32 0zm48 0a32 32 0 1 0 -64 0 32 32 0 1 0 64 0zm0 336c-68 0-123.6-53-127.8-120H184h8V296h-8H96.2C100.4 229 156 176 224 176c70.7 0 128 57.3 128 128s-57.3 128-128 128zm0 16a144 144 0 1 0 0-288 144 144 0 1 0 0 288z"/></svg>