<svg xmlns="http://www.w3.org/2000/svg" viewBox="0 0 640 512"><!--! Font Awesome Pro 6.5.1 by @fontawesome - https://fontawesome.com License - https://fontawesome.com/license (Commercial License) Copyright 2023 Fonticons, Inc. --><path d="M208 48V248v16V464H128V416 400 112 96 48h80zM112 416v48 16h16 80 16V464 264H416V464v16h16 80 16V464 416h64 16V400 264h24 8V248h-8H608V112 96H592 528V48 32H512 432 416V48 248H224V48 32H208 128 112V48 96H48 32v16V248H8 0v16H8 32V400v16H48h64zM528 112h64V248v16V400H528V112zM512 416v48H432V264 248 48h80V96v16V400v16zM112 400H48V264 248 112h64V400z"/></svg>