<svg xmlns="http://www.w3.org/2000/svg" viewBox="0 0 640 512"><!--! Font Awesome Pro 6.5.1 by @fontawesome - https://fontawesome.com License - https://fontawesome.com/license (Commercial License) Copyright 2023 Fonticons, Inc. --><path d="M0 160H16.5h344c5.2-5.6 10.5-11 15.8-16h-236l24-96L280 48v96h16V48l115.8 0 14 56.1c1.8-1.2 3.6-2.3 5.3-3.4l9-5.6L428.2 48H531.5l18.9 75.5 14.1 11.7c2.3 1.9 4.6 3.8 6.8 5.8L544 32H32L4 144 0 160zM112 416H96l-17.1 0-31-217.1-1-6.9H30.8l1.3 9.1L38.8 248H8 0v16H8 41.1l23 161.1 1 6.9H72 96v40 8h16v-8V432H324.1c-3.7-5.1-7.2-10.5-10.4-16H112zM512 146.6l2.6-2.6h-5.2l2.6 2.6zM20.5 144l24-96H147.8l-24 96H20.5zm480.2 36.8L448 128.1c-42.7 26.7-128 102.4-128 192c0 88.4 71.6 160 160 160s160-71.6 160-160c0-26.7-19.2-96-96-160l-20.7 20.7L512 192.1l-11.3-11.3zM576 390.6c0-70.4-96-134.4-96-134.4s-96 64-96 134.4c0 18.2 5.8 35.1 15.7 49.2C361.3 413.9 336 370 336 320.2c0-39.7 19-77.6 44.5-109.6c21.3-26.7 46.2-48.2 65.4-61.8l54.7 54.7L512 214.8l11.3-11.3L544.8 182C609.1 240.5 624 300 624 320.2c0 49.8-25.3 93.7-63.7 119.6c9.9-14.1 15.7-31 15.7-49.2zm-96 73.6c-45.2 0-80-34-80-73.6c0-28.5 20-58.2 43.5-82.5c11.4-11.8 22.8-21.5 31.4-28.3c1.8-1.5 3.5-2.8 5.1-3.9c1.5 1.2 3.2 2.5 5.1 3.9c8.6 6.8 20 16.5 31.4 28.3C540 332.4 560 362 560 390.6c0 39.6-34.8 73.6-80 73.6z"/></svg>