<svg xmlns="http://www.w3.org/2000/svg" viewBox="0 0 576 512"><!--! Font Awesome Pro 6.5.1 by @fontawesome - https://fontawesome.com License - https://fontawesome.com/license (Commercial License) Copyright 2023 Fonticons, Inc. --><path d="M0 160H16.5h543H576l-4-16L544 32H32L4 144 0 160zm20.5-16l24-96H147.8l-24 96H20.5zM411.8 48l24 96H140.2l24-96L280 48v96h16V48l115.8 0zm40.5 96l-24-96H531.5l24 96H452.2zM0 248v16H8 41.1l23 161.1 1 6.9H72 96v40 8h16v-8V432H464v40 8h16v-8V432h24 6.9l1-6.9 23-161.1H568h8V248h-8H537.2l6.7-46.9 1.3-9.1H529.1l-1 6.9L497.1 416 480 416H464 112 96l-17.1 0-31-217.1-1-6.9H30.8l1.3 9.1L38.8 248H8 0z"/></svg>