<svg xmlns="http://www.w3.org/2000/svg" viewBox="0 0 512 512"><!--! Font Awesome Pro 6.5.1 by @fontawesome - https://fontawesome.com License - https://fontawesome.com/license (Commercial License) Copyright 2023 Fonticons, Inc. --><path d="M349 52.1l-35.8 71.6C295.6 116.2 276.3 112 256 112s-39.6 4.2-57.2 11.8L163 52.1l-7.2-14.3 0 0 0 0c4.8-2.2 9.8-4.3 14.8-6.2C197.2 21.5 225.9 16 256 16s58.8 5.5 85.4 15.6c5 1.9 9.9 4 14.8 6.2l0 0 0 0L349 52.1zM149.2 23.3l-.5 .2-.2-.5-7 3.8-7.3 3.3 .2 .5-.5 .3c-43.5 23.6-79.3 59.5-103 103l-.3 .5-.5-.2-3.3 7.3-3.8 7 .5 .2-.2 .5C8.3 181.7 0 217.9 0 256v16 16 96 16 96 16H16h96 16V496 400 384 288 272 256c0-18.1 3.7-35.2 10.5-50.8l2.8-6.5 3.5-6.2c11.3-19.8 27.8-36.3 47.6-47.6l6.2-3.5 6.5-2.8c15.6-6.7 32.7-10.5 50.8-10.5s35.2 3.7 50.8 10.5l6.5 2.8 6.2 3.5c19.8 11.3 36.3 27.8 47.6 47.6l3.5 6.2 2.8 6.5c6.7 15.6 10.5 32.7 10.5 50.8v16 16 96 16 96 16h16 96 16V496 400 384 288 272 256c0-38.1-8.3-74.3-23.3-106.8l-.2-.5 .5-.2-3.8-7-3.3-7.3-.5 .2-.3-.5c-23.6-43.5-59.5-79.3-103-103l-.5-.3 .2-.5-7.3-3.3-7-3.8-.2 .5-.5-.2C330.3 8.3 294.1 0 256 0s-74.3 8.3-106.8 23.3zM37.8 155.9l0 0 0 0L52.1 163l71.6 35.8C116.2 216.4 112 235.7 112 256v16H96 32 16V256c0-30.1 5.5-58.8 15.6-85.4c1.9-5 4-9.9 6.2-14.8zm146.7-24.9l0 0c-22.3 12.8-40.8 31.3-53.6 53.6l0 0L59.3 148.7 45 141.6c2.6-4.7 5.3-9.3 8.1-13.8c19-30 44.6-55.6 74.6-74.6c4.5-2.9 9.1-5.6 13.8-8.1l7.2 14.3 35.8 71.6zM381 184.5c-12.8-22.3-31.3-40.8-53.6-53.6l0 0 35.8-71.6L370.4 45l0 0c4.7 2.6 9.3 5.3 13.8 8.1c30 19 55.6 44.6 74.6 74.6c2.9 4.5 5.6 9.1 8.1 13.8l-14.3 7.2-71.6 35.8 0 0zm93.1-28.7l0 0c2.2 4.8 4.3 9.8 6.2 14.8C490.5 197.2 496 225.9 496 256v16H480 416 400V256c0-20.3-4.2-39.6-11.8-57.2L459.9 163l14.3-7.2zM400 288h16 64 16v16 64 16H480 416 400V368 304 288zM16 400H32 96h16v16 64 16H96 32 16V480 416 400zm384 0h16 64 16v16 64 16H480 416 400V480 416 400zM112 288v16 64 16H96 32 16V368 304 288H32 96h16zM264 184v-8H248v8V472v8h16v-8V184zm-72 32v-8H176v8V472v8h16v-8V216zm144 0v-8H320v8V472v8h16v-8V216z"/></svg>