<svg xmlns="http://www.w3.org/2000/svg" viewBox="0 0 512 512"><!--! Font Awesome Pro 6.5.1 by @fontawesome - https://fontawesome.com License - https://fontawesome.com/license (Commercial License) Copyright 2023 Fonticons, Inc. --><path d="M429.7 93.7L424 99.3 412.7 88l5.7-5.7 80-80 11.3 11.3-80 80zm-240 240l-176 176L2.3 498.3l176-176 5.7-5.7L195.3 328l-5.7 5.7zM240 80C151.6 80 80 150.9 80 238.2v8H64v-8C64 141.9 142.9 64 240 64s176 77.9 176 174.2c0 55.6-26.3 105-67.2 136.9V392c0 66.3-53.7 120-120 120H206.4h-8V496h8 22.4c57.4 0 104-46.6 104-104V371.1c0-2.5 1.2-4.9 3.2-6.4c38.9-28.9 64-74.8 64-126.5C400 150.9 328.4 80 240 80zm0 64c-53 0-96 43-96 96v8H128v-8c0-61.9 50.1-112 112-112s112 50.1 112 112v8H336v-8c0-53-43-96-96-96z"/></svg>