<svg xmlns="http://www.w3.org/2000/svg" viewBox="0 0 512 512"><!--! Font Awesome Pro 6.5.1 by @fontawesome - https://fontawesome.com License - https://fontawesome.com/license (Commercial License) Copyright 2023 Fonticons, Inc. --><path d="M495.5 272C487.2 397.1 383.2 496 256 496C123.5 496 16 388.5 16 256c0-30 5.5-58.7 15.5-85.1l66.8 66.8 2.3 2.3H104h44.7L192 283.3V344v3.3l2.3 2.3L224 379.3V440v8h8 64 8v-8V395.3l61.7-61.7 2.3-2.3V328 248v-8h-8H235.3L208 212.7V192h72 8v-8V152v-3.3l-2.3-2.3L256 116.7v-9.4l29.7-29.7 2.3-2.3V72 18.1c70.4 9.4 131.2 49.3 168.6 106l-54.2 54.2-2.3 2.3V184v80 8h8 87.5zM465.1 138.2C484.8 173 496 213.2 496 256l-80 0V187.3l49.1-49.1zM256 16c5.4 0 10.7 .2 16 .5V68.7L242.3 98.3l-2.3 2.3V104v16 3.3l2.3 2.3L272 155.3V176H200h-8v8 32 3.3l2.3 2.3 32 32 2.3 2.3H232 352v68.7l-61.7 61.7-2.3 2.3V392v40H240V376v-3.3l-2.3-2.3L208 340.7V280v-3.3l-2.3-2.3-48-48-2.3-2.3H152 107.3L38.3 154.9C76.4 72.9 159.6 16 256 16zm0 496A256 256 0 1 0 256 0a256 256 0 1 0 0 512z"/></svg>