<svg xmlns="http://www.w3.org/2000/svg" viewBox="0 0 512 512"><!--! Font Awesome Pro 6.5.1 by @fontawesome - https://fontawesome.com License - https://fontawesome.com/license (Commercial License) Copyright 2023 Fonticons, Inc. --><path d="M496 256A240 240 0 1 0 16 256a240 240 0 1 0 480 0zM0 256a256 256 0 1 1 512 0A256 256 0 1 1 0 256zm432 8v32 8H416v-8V264v-8h16v8zM405.7 373.7l-32 32-5.7 5.7L356.7 400l5.7-5.7 32-32 5.7-5.7L411.3 368l-5.7 5.7zM248 432h32 8v16h-8H248h-8V432h8zM176 112h8 96 8v8 48 8h-8H216h-3.3l-2.3-2.3-32-32-2.3-2.3V136 120v-8zm16 16v4.7L219.3 160H272V128H192zm-40 80h32 8v8 24h16V216v-8h8 32 3.3l2.3 2.3 64 64 2.3 2.3V280v96 8h-8H216h-3.3l-2.3-2.3L180.7 352H88 80v-8V280v-3.3l2.3-2.3 64-64 2.3-2.3H152zM96 283.3V336h88 3.3l2.3 2.3L219.3 368H304V283.3L244.7 224H224v24 8h-8H184h-8v-8V224H155.3L96 283.3z"/></svg>