<svg xmlns="http://www.w3.org/2000/svg" viewBox="0 0 512 512"><!--! Font Awesome Pro 6.5.1 by @fontawesome - https://fontawesome.com License - https://fontawesome.com/license (Commercial License) Copyright 2023 Fonticons, Inc. --><path d="M272 495.5V464H216h-3.3l-2.3-2.3-48-48-2.3-2.3V408 296v-8h8H312h3.3l2.3 2.3L363.3 336H392h3.3l2.3 2.3L427.3 368H456h8v7.8c7.3-12.6 13.4-25.9 18.3-39.8H440h-3.3l-2.3-2.3-48-48-2.3-2.3V280 200v-8h8 24V176H368v40 8h-8H280h-8v24 8h-8H200h-8v-8V216v-3.3l2.3-2.3L272 132.7V128H232h-8v-8V88 84.7l2.3-2.3 63.9-63.9C279.1 16.8 267.6 16 256 16C123.5 16 16 123.5 16 256s107.5 240 240 240c5.4 0 10.7-.2 16-.5zM240 91.3V112h40 8v8 16 3.3l-2.3 2.3L208 219.3V240h48V216v-8h8 16 72V168v-8h8 64 8v8 32 8h-8H400v68.7L443.3 320h44.1c5.6-20.4 8.6-41.8 8.6-64c0-114.2-79.8-209.8-186.6-234L240 91.3zm48 402.6c65.3-8.7 122.3-43.6 160-93.9h0V384H424h-3.3l-2.3-2.3L388.7 352H360h-3.3l-2.3-2.3L308.7 304H176V404.7L219.3 448H280h8v8 37.9zM0 256a256 256 0 1 1 512 0A256 256 0 1 1 0 256zM181.7 117.7l-32 32-5.7 5.7L132.7 144l5.7-5.7 32-32 5.7-5.7L187.3 112l-5.7 5.7z"/></svg>