<svg xmlns="http://www.w3.org/2000/svg" viewBox="0 0 512 512"><!--! Font Awesome Pro 6.5.1 by @fontawesome - https://fontawesome.com License - https://fontawesome.com/license (Commercial License) Copyright 2023 Fonticons, Inc. --><path d="M496 256c0-22.2-3-43.6-8.6-64H368v20.7l29.7 29.7 2.3 2.3V248v64 8h-8H368v40 3.3l-2.3 2.3-48 48-2.3 2.3H312 264h-8v-8V320H168h-8v-8V224v-3.3l2.3-2.3 40-40 2.3-2.3H208h84.7l48-48H267.3l-29.7 29.7-2.3 2.3H232 200h-8v-8V87.3L146.9 42.2C69.2 81.9 16 162.7 16 256c0 132.5 107.5 240 240 240s240-107.5 240-240zm-13.7-80C449.4 82.8 360.5 16 256 16c-33.2 0-64.9 6.8-93.7 19l43.4 43.4 2.3 2.3V84v60h20.7l29.7-29.7 2.3-2.3H264h96 19.3l-13.7 13.7-64 64-2.3 2.3H296 211.3L176 227.3V304h88 8v8 88h36.7L352 356.7V312v-8h8 24V251.3l-29.7-29.7-2.3-2.3V216 184v-8h8H482.3zM0 256a256 256 0 1 1 512 0A256 256 0 1 1 0 256z"/></svg>