<svg xmlns="http://www.w3.org/2000/svg" viewBox="0 0 512 512"><!--! Font Awesome Pro 6.5.1 by @fontawesome - https://fontawesome.com License - https://fontawesome.com/license (Commercial License) Copyright 2023 Fonticons, Inc. --><path d="M383.8 459.2L356.7 432H296h-8v-8V360v-3.3l2.3-2.3 64-64 2.3-2.3H360h64 8v8 24h55.4c5.6-20.4 8.6-41.8 8.6-64c0-116.1-82.5-213-192-235.2V104v3.3l-2.3 2.3L272 139.3V216v8h-8H224v88 8h-8H152h-3.3l-2.3-2.3L116.7 288H18.1C33.8 405.4 134.3 496 256 496c47 0 90.8-13.5 127.8-36.8zM120 272h3.3l2.3 2.3L155.3 304H208V216v-8h8 40V136v-3.3l2.3-2.3L288 100.7V18.1c-10.5-1.4-21.2-2.1-32-2.1C123.5 16 16 123.5 16 256c0 5.4 .2 10.7 .5 16H120zM397.3 450c38.8-28.3 68.7-67.9 85-114H424h-8v-8V304H363.3L304 363.3V416h56 3.3l2.3 2.3L397.3 450zM0 256a256 256 0 1 1 512 0A256 256 0 1 1 0 256zM336 152v32 8H320v-8V152v-8h16v8zM288 264v32 8H272v-8V264v-8h16v8zM152 352h32 8v16h-8H152h-8V352h8z"/></svg>