<svg xmlns="http://www.w3.org/2000/svg" viewBox="0 0 640 512"><!--! Font Awesome Pro 6.5.1 by @fontawesome - https://fontawesome.com License - https://fontawesome.com/license (Commercial License) Copyright 2023 Fonticons, Inc. --><path d="M200 0h-8V8 36C100.7 54.5 32 135.2 32 232v30.9L1.9 373.9l-2.1 7.7 15.4 4.2 2.1-7.7 30.4-112 .3-1V264 232c0-87.9 61.6-161.4 144-179.6v51.3c0 63 48.5 115.4 111.4 120.3l1.2-16c-54.5-4.2-96.6-49.7-96.6-104.3V49.5s0 0 0 0V33.4s0 0 0 0V16h87.7c54.7 0 100.1 42.1 104.3 96.6l16-1.2c-1.8-23.8-10.5-45.5-24-63.4c75.1 0 136 60.9 136 136V328v8h16v-8V184c0-83.9-68.1-152-152-152H377.5C356 12.1 327.1 0 295.7 0H200zM416 304v-8H400v8V496H304V397.5c1.6-1 3.1-2 4.6-3l6.6-4.6L306 376.8l-6.6 4.6c-3.4 2.4-7 4.6-10.7 6.6H288v.4c-14.4 7.5-30.7 11.7-48 11.7s-33.6-4.2-48-11.7v-.4h-.7c-3.7-2-7.3-4.2-10.7-6.6l-6.6-4.6-9.2 13.1 6.6 4.6c1.5 1 3 2.1 4.6 3V496H80V336v-8H64v8V504v8h8H184h8v-8V406c14.7 6.4 30.9 10 48 10s33.3-3.6 48-10v98 8h8H408h8v-8V341.3c16.8 18.6 38.9 32.3 64 38.7v22.7c0 42.7 34.6 77.3 77.3 77.3c34.9 0 65.5-23.4 74.6-57.1l2.8-10.3 4.2-15.4L623.4 393l-30.9-8.4-15.4-4.2-4.2 15.4-2.8 10.3c-1.6 5.8-6.8 9.8-12.8 9.8c-7.4 0-13.3-6-13.3-13.3V380c23.3-5.9 44.1-18.2 60.4-34.8l5.6-5.7-11.4-11.2L593 334c-20.6 21-49.2 34-81 34c-40.4 0-75.9-21.2-96-53.1V304zm80 98.7V383c5.2 .6 10.6 1 16 1s10.8-.3 16-1v19.7c0 16.2 13.1 29.3 29.3 29.3c13.2 0 24.8-8.9 28.3-21.7l2.8-10.3 30.9 8.3-2.8 10.3C609.3 445.4 585 464 557.3 464c-33.9 0-61.3-27.4-61.3-61.3zM480 208a16 16 0 1 0 -32 0 16 16 0 1 0 32 0z"/></svg>