<svg xmlns="http://www.w3.org/2000/svg" viewBox="0 0 512 512"><!--! Font Awesome Pro 6.5.1 by @fontawesome - https://fontawesome.com License - https://fontawesome.com/license (Commercial License) Copyright 2023 Fonticons, Inc. --><path d="M149.9 6.6l72 80 5.4 5.9-11.9 10.7-5.4-5.9L144 23.9 77.9 97.3l-5.4 5.9L60.7 92.6l5.4-5.9 72-80L144 0l5.9 6.6zm152 0L368 80 434.1 6.6l5.4-5.9 11.9 10.7-5.4 5.9-72 80-5.9 6.6-5.9-6.6-72-80-5.4-5.9L296.6 .7l5.4 5.9zM16 144V496H496V144H16zM0 128H16 496h16v16V496v16H496 16 0V496 144 128zM200 264a40 40 0 1 0 -80 0 40 40 0 1 0 80 0zm-96 0a56 56 0 1 1 112 0 56 56 0 1 1 -112 0zm248 40a40 40 0 1 0 0-80 40 40 0 1 0 0 80zm0-96a56 56 0 1 1 0 112 56 56 0 1 1 0-112zM96.5 448H80l24-96H216l24 96H223.5l-20-80h-87l-20 80zm212-80l-20 80H272l24-96H408l24 96H415.5l-20-80h-87z"/></svg>