<svg xmlns="http://www.w3.org/2000/svg" viewBox="0 0 640 512"><!--! Font Awesome Pro 6.5.1 by @fontawesome - https://fontawesome.com License - https://fontawesome.com/license (Commercial License) Copyright 2023 Fonticons, Inc. --><path d="M416 80l-8 0-96 0v48h24 80l96 64V432v16H496 256l-76.8-64H80 64V368 264H16v80 8H0v-8V168v-8H16v8 80H64V144 128H80h80H296V80l-96 0h-8V64h8H304 408h8V80zM80 248v16V368h99.2H185l4.5 3.7L261.8 432H496V200.6L411.2 144H336l-32 0-144 0H80V248zm96-8v32h32V240H176zm0-16h32 16v16 32 16H208 176 160V272 240 224h16zm96 16v32h32V240H272zm-16-16h16 32 16v16 32 16H304 272 256V272 240 224zm144 16H368v32h32V240zm-32-16h32 16v16 32 16H400 368 352V272 240 224h16zm192-16V432h64V208H560zm-16-16h16 64 16v16V432v16H624 560 544V432 208 192z"/></svg>