<svg xmlns="http://www.w3.org/2000/svg" viewBox="0 0 640 512"><!--! Font Awesome Pro 6.5.1 by @fontawesome - https://fontawesome.com License - https://fontawesome.com/license (Commercial License) Copyright 2023 Fonticons, Inc. --><path d="M464 16V80h16V16 0H464 80 64V16 192H80V16H464zM208 128H624V400H416v16H624h16V400 128 112H624 208 192v16 64h16V128zM16 496V310.8L187.4 432l4.6 3.3 4.6-3.3L368 310.8V496H16zm4.6-201.5L16 291.2V240H368v51.2l-4.6 3.3L192 415.7 20.6 294.5zM0 224v16V496v16H16 368h16V496 240 224H368 16 0zm512-48h-8v8 64 8h8 64 8v-8V184v-8h-8H512zm8 64V192h48v48H520z"/></svg>