<svg xmlns="http://www.w3.org/2000/svg" viewBox="0 0 512 512"><!--! Font Awesome Pro 6.5.1 by @fontawesome - https://fontawesome.com License - https://fontawesome.com/license (Commercial License) Copyright 2023 Fonticons, Inc. --><path d="M256 396.6L16 231.6V200l48-36v61.7l16 11V80H432V236.7l16-11V164l48 36v31.6l-240 165zM64 80v64L0 192v48V496v16H16 496h16V496 240 192l-64-48V80 64H432 341.3L256 0 170.7 64H80 64V80zM256 20l58.7 44H197.3L256 20zm0 396L496 251V496H16V251L256 416zM168 160h-8v16h8H344h8V160h-8H168zm0 80h-8v16h8H344h8V240h-8H168z"/></svg>