<svg xmlns="http://www.w3.org/2000/svg" viewBox="0 0 640 512"><!--! Font Awesome Pro 6.5.1 by @fontawesome - https://fontawesome.com License - https://fontawesome.com/license (Commercial License) Copyright 2023 Fonticons, Inc. --><path d="M16 167.6l240 165L328.1 283c-2.4 7.6-4.3 15.3-5.6 23.3L256 352 16 187V432H348.5c3.6 5.6 7.6 10.9 11.8 16H16 0V432 176 80 64H16 496h16V80v80.7c-5.3-.5-10.6-.7-16-.7V80H16v87.6zM496 464a128 128 0 1 0 0-256 128 128 0 1 0 0 256zm0-272a144 144 0 1 1 0 288 144 144 0 1 1 0-288zm75.3 104l-5.7 5.7-80 80-5.7 5.7-5.7-5.7-48-48-5.7-5.7L432 316.7l5.7 5.7L480 364.7l74.3-74.3 5.7-5.7L571.3 296z"/></svg>