<svg xmlns="http://www.w3.org/2000/svg" viewBox="0 0 640 512"><!--! Font Awesome Pro 6.5.1 by @fontawesome - https://fontawesome.com License - https://fontawesome.com/license (Commercial License) Copyright 2023 Fonticons, Inc. --><path d="M280 56a40 40 0 1 0 -80 0 40 40 0 1 0 80 0zm-96 0a56 56 0 1 1 112 0A56 56 0 1 1 184 56zm236.9 88h3 24H568h64 8v8V280v8h-8H568 475.1L239.4 494.2 221.3 510l-2.3 2h-3H192 72 8 0v-8V376v-8H8 72h92.9L400.6 161.8 418.7 146l2.3-2zm6 16l-15.8 13.9L173.2 382l-2.3 2h-3H72 16V496H72 192h21l15.8-13.9L466.8 274l2.3-2h3 96 56V160H568 448 427zM320 184.5l-16 14V160H176V310.5l-16 14V160 144h16H304h16v16 24.5z"/></svg>