<svg xmlns="http://www.w3.org/2000/svg" viewBox="0 0 640 512"><!--! Font Awesome Pro 6.5.1 by @fontawesome - https://fontawesome.com License - https://fontawesome.com/license (Commercial License) Copyright 2023 Fonticons, Inc. --><path d="M112 0h8H272h4.2l2.4 3.5 104 152 1.4 2V160v16 24V304v16H368 16 0V304 176 160H16h96V8 0zM267.8 16H128V160H366.3L267.8 16zM16 176V304H368V200 176H120 16zM80 368c-35.3 0-64 28.7-64 64s28.7 64 64 64H336c35.3 0 64-28.7 64-64s-28.7-64-64-64H80zM0 432c0-44.2 35.8-80 80-80H336c44.2 0 80 35.8 80 80s-35.8 80-80 80H80c-44.2 0-80-35.8-80-80zm96 0a16 16 0 1 1 32 0 16 16 0 1 1 -32 0zm112-16a16 16 0 1 1 0 32 16 16 0 1 1 0-32zm80 16a16 16 0 1 1 32 0 16 16 0 1 1 -32 0zM576 161.5L416 300.2V279L578.8 138 592 126.5V144 322.1v3.2l-2.2 2.3L456 467.2V496h96c39.8 0 72-32.2 72-72V384 320 272 16H586.9L416 158.4V137.6L578.9 1.9 581.1 0H584h48 8V8 272v48 64 40c0 48.6-39.4 88-88 88H448h-8v-8V464v-3.2l2.2-2.3L576 318.9V161.5z"/></svg>