<svg xmlns="http://www.w3.org/2000/svg" viewBox="0 0 512 512"><!--! Font Awesome Pro 6.5.1 by @fontawesome - https://fontawesome.com License - https://fontawesome.com/license (Commercial License) Copyright 2023 Fonticons, Inc. --><path d="M223.1 170.4l-11.3-11.3L192 139.3l-5.7-5.7-5.7-5.7L192 116.7l5.7 5.7 5.7 5.7 8.5 8.5 11.3 11.3 11.3-11.3L341.6 29.2c39-39 102.2-39 141.1 0s39 102.2 0 141.1L375.5 277.6l-11.3 11.3 11.3 11.3 8.5 8.5 5.7 5.7 5.7 5.7L384 331.3l-5.7-5.7-5.7-5.7-19.8-19.8-11.3-11.3L223.1 170.4zM352.9 277.6L471.5 159.1c32.7-32.7 32.7-85.8 0-118.5s-85.8-32.7-118.5 0L234.4 159.1 352.9 277.6zM191.7 184.3L203 195.6 86.6 312H313.4l3-3 11.3 11.3L168 480H80L32 512 0 480l32-48V344L191.7 184.3zM70.6 328L48 350.6V432v4.8l-2.7 4L20.6 478 34 491.4l37.1-24.7 4-2.7H80h81.4l136-136H70.6z"/></svg>