<svg xmlns="http://www.w3.org/2000/svg" viewBox="0 0 512 512"><!--! Font Awesome Pro 6.5.1 by @fontawesome - https://fontawesome.com License - https://fontawesome.com/license (Commercial License) Copyright 2023 Fonticons, Inc. --><path d="M256 16a240 240 0 1 1 0 480 240 240 0 1 1 0-480zm0 496A256 256 0 1 0 256 0a256 256 0 1 0 0 512zM118.7 304H393.3C379 368.3 322.8 416 256 416s-123-47.7-137.3-112zm-16.3 0c14.5 73 77.8 128 153.6 128s139.1-55 153.6-128c1-5.2 1.8-10.6 2.4-16H395.9 116.1 100c.5 5.4 1.3 10.8 2.4 16zM379.6 141.3l-7.2 3.6-80 40L278.1 192l14.3 7.2 80 40 7.2 3.6 3.6-7.1 0 0 3.6-7.2-7.2-3.6L313.9 192l65.7-32.8 7.2-3.6-3.6-7.1 0 0 0 0-3.6-7.1zm-240 3.6l-7.2-3.6-7.2 14.3 7.2 3.6L198.1 192l-65.7 32.8-7.2 3.6 7.2 14.3 7.2-3.6 80-40 14.3-7.2-14.3-7.2-80-40z"/></svg>