<svg xmlns="http://www.w3.org/2000/svg" viewBox="0 0 512 512"><!--! Font Awesome Pro 6.5.1 by @fontawesome - https://fontawesome.com License - https://fontawesome.com/license (Commercial License) Copyright 2023 Fonticons, Inc. --><path d="M496 256A240 240 0 1 0 16 256a240 240 0 1 0 480 0zM0 256a256 256 0 1 1 512 0A256 256 0 1 1 0 256zm248 48h16c44.2 0 80 35.8 80 80v8 8h-8H176h-8v-8-8c0-44.2 35.8-80 80-80zm-64 80H328c0-35.3-28.7-64-64-64H248c-35.3 0-64 28.7-64 64zM148.7 192l-42.3-42.3 11.3-11.3L160 180.7l42.3-42.3 11.3 11.3L171.3 192l42.3 42.3-11.3 11.3L160 203.3l-42.3 42.3-11.3-11.3L148.7 192zm192 0l-42.3-42.3 11.3-11.3L352 180.7l42.3-42.3 11.3 11.3L363.3 192l42.3 42.3-11.3 11.3L352 203.3l-42.3 42.3-11.3-11.3L340.7 192z"/></svg>