<svg xmlns="http://www.w3.org/2000/svg" viewBox="0 0 512 512"><!--! Font Awesome Pro 6.5.1 by @fontawesome - https://fontawesome.com License - https://fontawesome.com/license (Commercial License) Copyright 2023 Fonticons, Inc. --><path d="M16 256C16 123.5 123.5 16 256 16s240 107.5 240 240c0 73.5-33.1 139.3-85.2 183.4l10.3 12.2C476.7 404.7 512 334.4 512 256C512 114.6 397.4 0 256 0S0 114.6 0 256c0 93 49.7 174.5 123.9 219.3l8.3-13.7C62.5 419.6 16 343.2 16 256zm160.4-96a16 16 0 1 0 0-32 16 16 0 1 0 0 32zm160 0a16 16 0 1 0 0-32 16 16 0 1 0 0 32zM224 247c-26.5-5.6-46-17.7-58.7-29L154.7 230c15 13.4 38.2 27.4 69.3 33.3V320H176h-8v8V504v8h8H320h3l2.3-2 64-56 6.4-5.6-6-6-32-32-4.8-4.8-5.5 3.9-51.5 36.8L232 403.7V384h32v16 8h8 48 8v-8V328v-8h-8H288V263.3c31.2-5.9 54.3-19.9 69.3-33.3L346.7 218c-12.6 11.3-32.2 23.3-58.7 29V216v-8h-8H232h-8v8 31zm48 73H240V224h32v96zm-88 16H312v56H280V376v-8h-8H224h-8v8 32 4.3l3.6 2.4 72 48 4.6 3.1 4.5-3.2 50.5-36.1 21.2 21.2L317 496H184V336z"/></svg>