<svg xmlns="http://www.w3.org/2000/svg" viewBox="0 0 512 512"><!--! Font Awesome Pro 6.5.1 by @fontawesome - https://fontawesome.com License - https://fontawesome.com/license (Commercial License) Copyright 2023 Fonticons, Inc. --><path d="M8-.2H-.2V8 152v8.2H16.2V152 16.2H152h8.2V-.2H152 8zm496 0H360h-8.2V16.2H360 495.8V152v8.2h16.3V152 8-.2H504zM-.2 512.2H8 152h8.2V495.8H152 16.2V360v-8.2H-.2V360 504v8.2zM504 512h8v-8V360v-8H496v8V496H360h-8v16h8H504zM224 224a16 16 0 1 0 -32 0 16 16 0 1 0 32 0zm80 16a16 16 0 1 0 0-32 16 16 0 1 0 0 32zM256 112a144 144 0 1 1 0 288 144 144 0 1 1 0-288zm0 304a160 160 0 1 0 0-320 160 160 0 1 0 0 320zm0-96c-20.7 0-38.8-11.2-48.5-28l-13.8 8c12.4 21.5 35.7 36 62.4 36s49.9-14.5 62.4-36l-13.8-8c-9.7 16.8-27.8 28-48.5 28z"/></svg>