<svg xmlns="http://www.w3.org/2000/svg" viewBox="0 0 512 512"><!--! Font Awesome Pro 6.5.1 by @fontawesome - https://fontawesome.com License - https://fontawesome.com/license (Commercial License) Copyright 2023 Fonticons, Inc. --><path d="M256 496C123.5 496 16 388.5 16 256c0-37.6 8.6-73.1 24-104.7V184v1.3l.4 1.2 32 96 1.8 5.5H80 208h5.8l1.8-5.5 32-96 .4-1.2V184v-8h16v16 1.4l.5 1.3 32 88 1.9 5.3H304 432h5.6l1.9-5.3 32-88 .5-1.3V192 151.3c15.4 31.7 24 67.2 24 104.7c0 132.5-107.5 240-240 240zm8-336H248V136v-8h-8H52.9C95.5 60.7 170.5 16 256 16s160.5 44.7 203.1 112H272h-8v8 24zm16 0V144H380.7l-50.3 50.3L336 208h44.7l-64 64h-7.1L280 190.6V176 160zm123.3-16H456v46.6L426.4 272H339.3l66.3-66.3L400 192H355.3l48-48zM232 144v16 16 6.7L202.2 272H115.3l66.3-66.3L176 192H131.3l48-48H232zm-75.3 64l-64 64H85.8L56 182.7V144H156.7l-50.3 50.3L112 208h44.7zM256 512A256 256 0 1 0 256 0a256 256 0 1 0 0 512zm0-96c56.7 0 96.1-35.4 118.6-67.4l-13.1-9.2C340.6 369.2 305.4 400 256 400s-84.6-30.8-105.4-60.6l-13.1 9.2c22.4 32 61.9 67.4 118.6 67.4z"/></svg>