<svg xmlns="http://www.w3.org/2000/svg" viewBox="0 0 512 512"><!--! Font Awesome Pro 6.5.1 by @fontawesome - https://fontawesome.com License - https://fontawesome.com/license (Commercial License) Copyright 2023 Fonticons, Inc. --><path d="M496 256A240 240 0 1 0 16 256a240 240 0 1 0 480 0zM0 256a256 256 0 1 1 512 0A256 256 0 1 1 0 256zm383.9 89.3l-.2 1.2c-5.1 30.9-31.8 53.5-63.1 53.5H200h-8V384h8H320.6c23.5 0 43.5-17 47.3-40.1l.2-1.2 1.3-7.9 15.8 2.6-1.3 7.9zM104 192h72c17.7 0 32 14.3 32 32s-14.3 32-32 32s-32-14.3-32-32c0-5.8 1.6-11.3 4.3-16H104 96V192h8zm72 16a16 16 0 1 0 0 32 16 16 0 1 0 0-32zm112-16h8 72c17.7 0 32 14.3 32 32s-14.3 32-32 32s-32-14.3-32-32c0-5.8 1.6-11.3 4.3-16H296h-8V192zm64 32a16 16 0 1 0 32 0 16 16 0 1 0 -32 0z"/></svg>