<svg xmlns="http://www.w3.org/2000/svg" viewBox="0 0 512 512"><!--! Font Awesome Pro 6.5.1 by @fontawesome - https://fontawesome.com License - https://fontawesome.com/license (Commercial License) Copyright 2023 Fonticons, Inc. --><path d="M16 256C16 123.5 123.5 16 256 16s240 107.5 240 240c0 21.4-2.8 42.2-8.1 61.9l15.5 4.1C509 301 512 278.8 512 256C512 114.6 397.4 0 256 0S0 114.6 0 256c0 22.8 3 45 8.6 66.1l15.5-4.1C18.8 298.2 16 277.4 16 256zM256 496c-27.1 0-53.1-4.5-77.4-12.8l-5.2 15.1c25.9 8.8 53.7 13.6 82.6 13.6s56.7-4.8 82.6-13.6l-5.2-15.1C309.1 491.5 283.1 496 256 496zM386.5 143.6l7.6-2.5-5.1-15.2-7.6 2.5c-39.8 13.3-71.8 38.6-83.1 49.9l-5.7 5.7L304 195.3l5.7-5.7c10-10 39.9-33.7 76.9-46.1zM96 240v16h8H216h8V240h-8H104 96zm192 0v16h8H408h8V240h-8H296h-8zM112.4 349.3c-1.8-3.3-4.1-6.4-6.9-9.2c-15.6-15.6-40.9-15.6-56.6 0c-3.5 3.5-6.3 7.6-8.2 11.9c-12.9-2.9-27 .7-37 10.7c-15.6 15.6-15.6 40.9 0 56.6c.5 .5 1 1 1.5 1.5c-11.9 21.3-8.7 48.7 9.4 66.8s45.5 21.2 66.8 9.4c.5 .5 1 1 1.5 1.6c15.6 15.6 40.9 15.6 56.6 0c10.1-10.1 13.6-24.1 10.7-37c4.3-1.9 8.3-4.7 11.9-8.2c15.6-15.6 15.6-40.9 0-56.6c-2.8-2.8-5.9-5.1-9.2-6.9l44.2-73.7-11-11-73.7 44.2zm54.5-14l-32.6 54.4-5.6 9.4 10.7 2.5c4.2 1 8.2 3.1 11.5 6.4c9.4 9.4 9.4 24.6 0 33.9c-3.5 3.5-7.8 5.7-12.3 6.6l-10.1 2 4.5 9.3c4.3 8.9 2.7 20-4.7 27.4c-9.4 9.4-24.6 9.4-33.9 0c-1.6-1.6-2.8-3.3-3.9-5.1l-4.6-7.9-7.3 5.6c-15.7 12-38.2 10.9-52.6-3.5s-15.5-36.9-3.5-52.6l5.6-7.3-7.9-4.6c-1.8-1-3.5-2.3-5.1-3.9c-9.4-9.4-9.4-24.6 0-33.9c7.4-7.4 18.4-9 27.4-4.7l9.3 4.5 2-10.1c.9-4.5 3.1-8.8 6.6-12.3c9.4-9.4 24.6-9.4 33.9 0c3.3 3.3 5.4 7.3 6.4 11.5l2.5 10.7 9.4-5.6 54.4-32.6zM313.1 317l44.2 73.7c-3.3 1.8-6.4 4.1-9.2 6.9c-15.6 15.6-15.6 40.9 0 56.6c3.5 3.5 7.6 6.3 11.9 8.2c-2.9 12.9 .7 27 10.7 37c15.6 15.6 40.9 15.6 56.6 0c.5-.5 1-1 1.5-1.6c21.3 11.9 48.7 8.7 66.8-9.4s21.2-45.5 9.4-66.8c.5-.5 1-1 1.5-1.5c15.6-15.6 15.6-40.9 0-56.6c-10.1-10.1-24.1-13.6-37-10.7c-1.9-4.3-4.7-8.3-8.2-11.9c-15.6-15.6-41-15.6-56.6 0c-2.8 2.8-5.1 5.9-6.9 9.2L324.1 306l-11 11zm30.2 19.2l54.4 32.6 9.4 5.6 2.5-10.7c1-4.2 3.1-8.2 6.4-11.5c9.4-9.4 24.6-9.4 33.9 0c3.5 3.5 5.7 7.8 6.6 12.3l2 10.1 9.3-4.5c8.9-4.3 20-2.7 27.4 4.7c9.4 9.4 9.4 24.6 0 33.9c-1.6 1.6-3.3 2.8-5.1 3.9l-7.9 4.6 5.6 7.3c12 15.7 10.9 38.2-3.5 52.6s-36.9 15.5-52.6 3.5l-7.3-5.6-4.6 7.9c-1 1.8-2.3 3.5-3.9 5.1c-9.4 9.4-24.6 9.4-33.9 0c-7.4-7.4-9-18.4-4.7-27.4l4.5-9.3-10.1-2c-4.5-.9-8.8-3.1-12.3-6.6c-9.4-9.4-9.4-24.6 0-33.9c3.3-3.3 7.3-5.4 11.5-6.4l10.7-2.5-5.6-9.4-32.6-54.4zM117.9 141.1l7.6 2.5c37 12.3 66.9 36.1 76.9 46.1l5.7 5.7L219.3 184l-5.7-5.7c-11.3-11.3-43.3-36.7-83.1-49.9l-7.6-2.5-5.1 15.2z"/></svg>