<svg xmlns="http://www.w3.org/2000/svg" viewBox="0 0 576 512"><!--! Font Awesome Pro 6.5.1 by @fontawesome - https://fontawesome.com License - https://fontawesome.com/license (Commercial License) Copyright 2023 Fonticons, Inc. --><path d="M480 400c-43.8 58.3-113.5 96-192 96s-148.2-37.7-192-96h48l32 48H400l32-48h48zm11-16H488 432V292.8l95.6-51c.3 4.7 .4 9.4 .4 14.2c0 47.1-13.5 91-36.9 128zM526 224.6l-94 50.1V272 256H416 160 144v16 2.7L50 224.6C65.4 106.9 166.1 16 288 16s222.6 90.9 238 208.6zm15-8C522 93.9 416 0 288 0S54 93.9 35 216.5l-6.3-3.4-7.5 14.1 7.1 3.8 4.7 2.5c-.6 7.4-1 14.9-1 22.4c0 141.4 114.6 256 256 256s256-114.6 256-256c0-7.6-.3-15-1-22.4l4.7-2.5 7.1-3.8-7.5-14.1-6.3 3.4zM48.4 241.8l95.6 51V384H88 84.9C61.5 347 48 303.1 48 256c0-4.8 .1-9.5 .4-14.2zM416 272V395.2L391.4 432H184.6L160 395.2V272H416zM184 312v16h8H384h8V312h-8H192h-8zm0 64v16h8H384h8V376h-8H192h-8zm56-208h8V152h-8c-53.3 0-89.5 22.1-101.7 34.3l-5.7 5.7L144 203.3l5.7-5.7c9.1-9.1 41.2-29.7 90.3-29.7zm186.3 29.7l5.7 5.7L443.3 192l-5.7-5.7C425.5 174.1 389.3 152 336 152h-8v16h8c49.1 0 81.2 20.5 90.3 29.7z"/></svg>