<svg xmlns="http://www.w3.org/2000/svg" viewBox="0 0 512 512"><!--! Font Awesome Pro 6.5.1 by @fontawesome - https://fontawesome.com License - https://fontawesome.com/license (Commercial License) Copyright 2023 Fonticons, Inc. --><path d="M256 16C123.5 16 16 123.5 16 256s107.5 240 240 240c31.7 0 62-6.1 89.7-17.3l7.2 14.4c-29.9 12.2-62.6 19-96.9 19C114.6 512 0 397.4 0 256S114.6 0 256 0S512 114.6 512 256c0 34.3-6.7 67-19 96.9l-14.4-7.2C489.9 318 496 287.7 496 256C496 123.5 388.5 16 256 16zM160.4 208a16 16 0 1 1 32 0 16 16 0 1 1 -32 0zm160 0a16 16 0 1 1 32 0 16 16 0 1 1 -32 0zm62.2 134.2l5.2 2.8 120 64 4.2 2.3V416v40 3.3l-2.3 2.3-48 48-2.3 2.3H456 416h-4.8l-2.3-4.2-64-120-2.8-5.2 4.2-4.2 32-32 4.2-4.2zm2.9 19.7l-23.6 23.6 59 110.5h31.9L496 452.7V420.8l-110.5-59zM144 328v48 8H128v-8V328v-8h16v8zm64-8v8 48 8H192v-8V328v-8h16zm64 8v48 8H256v-8V328v-8h16v8zm64-8v8 24 8H320v-8V328v-8h16zM461.7 445.7l-16 16-5.7 5.7L428.7 456l5.7-5.7 16-16 5.7-5.7L467.3 440l-5.7 5.7z"/></svg>