<svg xmlns="http://www.w3.org/2000/svg" viewBox="0 0 640 512"><!--! Font Awesome Pro 6.5.1 by @fontawesome - https://fontawesome.com License - https://fontawesome.com/license (Commercial License) Copyright 2023 Fonticons, Inc. --><path d="M168.1 70.2C209.5 36.3 262.3 16 320 16c74.9 0 141.8 34.3 185.8 88.1l12.4-10.1C471.3 36.6 399.9 0 320 0C258.5 0 202.1 21.7 157.9 57.8l10.1 12.4zM320 496c-95.6 0-178.2-55.9-216.8-136.9L88.8 366C129.9 452.3 218 512 320 512c79.9 0 151.3-36.6 198.2-93.9l-12.4-10.1C461.8 461.7 394.9 496 320 496zm-56-96c0-7.3 4.8-15.1 15-21.5c10.1-6.3 24.6-10.5 41-10.5s30.9 4.2 41 10.5c10.2 6.4 15 14.2 15 21.5s-4.8 15.1-15 21.5c-10.1 6.3-24.6 10.5-41 10.5s-30.9-4.2-41-10.5c-10.2-6.4-15-14.2-15-21.5zm56-48c-18.9 0-36.5 4.8-49.5 12.9C257.6 373 248 385.2 248 400s9.6 27 22.5 35.1c13 8.2 30.6 12.9 49.5 12.9s36.5-4.8 49.5-12.9C382.4 427 392 414.8 392 400s-9.6-27-22.5-35.1c-13-8.2-30.6-12.9-49.5-12.9zm36-176.5l-8-13.8c-21.5 12.4-36 35.7-36 62.4c0 9.5 1.8 18.6 5.2 26.9l14.8-6c-2.6-6.5-4-13.5-4-21c0-20.7 11.2-38.8 28-48.5zM400 224c0-8.8-7.2-16-16-16s-16 7.2-16 16c0 6.6 4 12.3 9.7 14.7H368v16 32 16h16v24 16h16 24v24.9 16h16 80.8c29.5 0 57.8-11.7 78.6-32.6c43.1-43.1 43.4-112.8 .9-156.3l0 0-.1-.1-.8-.8 0 0-45.1-45.1L543 137.4l-11.3 11.3L503.4 177l-8 8-53.1-36.4-12.9-8.9-9.1 12.8-18.6 26-9.3 13 13 9.3 53.1 38-68.2 0c5.7-2.4 9.7-8.1 9.7-14.7zm188.1-18.9l.8 .8c36.4 37.2 36.1 96.9-.8 133.8c-17.9 17.9-42.1 27.9-67.3 27.9H456 440v-16-8.9-7.1h16 8 16v-8.9H464 440l-16 0h-8H400v-16-8-8h16 48 16v-8H464 400 384v-8-8-16h16l66.6 0h8.9 5.5 1.8 8.7V242.5l-5.4-3.8-11.7-8.4L427.7 197l-13-9.3 9.3-13 9.3-13 96.2 66 16 11V219.3v-.2l-19.5-19.5-11.3-11.3L526.1 177l5.7-5.7L543 160l11.3 11.3 33.8 33.8zM256 174.7v-16H240 137.5l15.1-15.1 11.3-11.3L152.6 121 124.3 92.7 113 81.4 101.7 92.7 40.6 153.8l0 0-.8 .8 0 0-.1 .1C-2.9 198.2-2.5 267.9 40.6 311c20.9 20.9 49.1 32.6 78.6 32.6H192h16v-16V302.7h32.3 16.2l-.2-16.2-.2-23.8H272v-16-32-16H256v-24zM112.5 161L98.8 174.7h19.3 3.3H224h16v16 8 8H224 176 160v8h16 64 0 16v8 8 16h-.1H240h0l-64 0H160v8h16 64l.1 8 .1 8 .2 16h-16H208 192 176 160v8.9h16 0 16v7.1 8.9 16H176 119.2c-25.2 0-49.5-10-67.3-27.9c-36.9-36.9-37.2-96.6-.8-133.8l.8-.8 49.8-49.8L113 104l11.3 11.3 5.7 5.7 11.3 11.3-11.3 11.3-15.1 15.1-2.3 2.3z"/></svg>