<svg xmlns="http://www.w3.org/2000/svg" viewBox="0 0 512 512"><!--! Font Awesome Pro 6.5.1 by @fontawesome - https://fontawesome.com License - https://fontawesome.com/license (Commercial License) Copyright 2023 Fonticons, Inc. --><path d="M256 16a240 240 0 1 0 0 480 240 240 0 1 0 0-480zM512 256A256 256 0 1 1 0 256a256 256 0 1 1 512 0zM128 304v80h48V304H128zm64 0v80h56V304H192zm128 80V304H264v80h56zm16 0h48V304H336v80zM128 288H384h16v16 80 16H384 128 112V384 304 288h16zm32.4-80a16 16 0 1 1 32 0 16 16 0 1 1 -32 0zm176-16a16 16 0 1 1 0 32 16 16 0 1 1 0-32z"/></svg>