<svg xmlns="http://www.w3.org/2000/svg" viewBox="0 0 512 512"><!--! Font Awesome Pro 6.5.1 by @fontawesome - https://fontawesome.com License - https://fontawesome.com/license (Commercial License) Copyright 2023 Fonticons, Inc. --><path d="M256 496C123.5 496 16 388.5 16 256c0-28.1 4.8-55 13.7-80H48V296v8h8H232h8v-8V176h32V296v8h8H456h8v-8V176h18.3c8.8 25 13.7 51.9 13.7 80c0 132.5-107.5 240-240 240zM224 176V288H64V176 160H224v16zm16-16v-8-8h-8H56 48v8 8H36C73 75.2 157.6 16 256 16s183 59.2 220 144H464v-8-8h-8H280h-8v8 8H240zm48 0H448v16V288H288V176 160zM256 0C148.6 0 56.6 66.2 18.6 160H8 0v16H8h4.7C4.5 201.2 0 228.1 0 256C0 397.4 114.6 512 256 512s256-114.6 256-256c0-27.9-4.5-54.8-12.7-80H504h8V160h-8H493.4C455.4 66.2 363.4 0 256 0zm0 416c56.7 0 96.1-35.4 118.6-67.4l-13.1-9.2C340.6 369.2 305.4 400 256 400s-84.6-30.8-105.4-60.6l-13.1 9.2c22.4 32 61.9 67.4 118.6 67.4zM192.4 224a16 16 0 1 0 -32 0 16 16 0 1 0 32 0zm144 16a16 16 0 1 0 0-32 16 16 0 1 0 0 32z"/></svg>