<svg xmlns="http://www.w3.org/2000/svg" viewBox="0 0 512 512"><!--! Font Awesome Pro 6.5.1 by @fontawesome - https://fontawesome.com License - https://fontawesome.com/license (Commercial License) Copyright 2023 Fonticons, Inc. --><path d="M16 256C16 123.5 123.5 16 256 16s240 107.5 240 240V465l-8.6-20.2-14.7 6.3 24 56L512 504V256C512 114.6 397.4 0 256 0S0 114.6 0 256V440l15.4 3.2 24-56-14.7-6.3L16 401V256zM128 361.4V304h48v80H150.6L128 361.4zM192 384V304h56v80H192zm112 0H288 264V304h56v80H304zm0 16h64V504v8h16v-8V384l16-16V304 288H384 128 112v16 64l32 32H288v40 8h16v-8V400zm57.4-16H336V304h48v57.4L361.4 384zm-185-160a16 16 0 1 0 0-32 16 16 0 1 0 0 32zm176-16a16 16 0 1 0 -32 0 16 16 0 1 0 32 0zm-19 275.2C309.1 491.5 283.1 496 256 496c-73.5 0-139.3-33.1-183.4-85.2L60.4 421.2C107.3 476.7 177.6 512 256 512c28.9 0 56.7-4.8 82.6-13.6l-5.2-15.1zM461.6 379.9c-14.3 23.6-32.5 44.6-53.7 61.9L418 454.2c22.6-18.5 42.1-40.9 57.3-66.1l-13.7-8.3zM78.3 263.8l-15-34.9-14.7 6.3 24 56 9 21.1 6-22.1 24-88-15.4-4.2-18 65.9zM367.7 69.9l-15.4 4.2 24 88 6 22.1 9-21.1 24-56-14.7-6.3-15 34.9-18-65.9z"/></svg>