<svg xmlns="http://www.w3.org/2000/svg" viewBox="0 0 512 512"><!--! Font Awesome Pro 6.5.1 by @fontawesome - https://fontawesome.com License - https://fontawesome.com/license (Commercial License) Copyright 2023 Fonticons, Inc. --><path d="M80 64a48 48 0 1 1 96 0A48 48 0 1 1 80 64zm112 0A64 64 0 1 0 64 64a64 64 0 1 0 128 0zM40.7 336l6.7-160h121c.5-5.5 1.5-10.8 3-16H32L24.7 336 24 352H40 56V504v8h8 48 8v-8V352h16V504v8h8 32V496H152V352h8V336H144 112 64 40.7zM376 512v-8V352h16V504v8h8 48 8v-8V352h16 16l-.7-16L480 160H340.7c1.5 5.2 2.5 10.5 3 16h121l6.7 160H448 400 368 352v16h8V496H336v16h32 8zM72 352h32V496H72V352zM336 64a48 48 0 1 1 96 0 48 48 0 1 1 -96 0zm112 0A64 64 0 1 0 320 64a64 64 0 1 0 128 0zm-8 288V496H408V352h32zM256 144a40 40 0 1 1 0 80 40 40 0 1 1 0-80zm0 96a56 56 0 1 0 0-112 56 56 0 1 0 0 112zM208 416v88 8h16v-8V416h64v88 8h16v-8V416h16 16V400 272 256H320 192 176v16V400v16h16 16zM320 272V400H304 288 224 208 192V272H320z"/></svg>