<svg xmlns="http://www.w3.org/2000/svg" viewBox="0 0 512 512"><!--! Font Awesome Pro 6.5.1 by @fontawesome - https://fontawesome.com License - https://fontawesome.com/license (Commercial License) Copyright 2023 Fonticons, Inc. --><path d="M176 64A48 48 0 1 0 80 64a48 48 0 1 0 96 0zM64 64a64 64 0 1 1 128 0A64 64 0 1 1 64 64zM40.7 336H64h48 32 16v16h-8V496h24v16H144h-8v-8V352H120V504v8h-8H64 56v-8V352H40 24l.7-16L32 160H171.3c-1.5 5.2-2.5 10.5-3 16H47.3L40.7 336zM376 512h-8H336V496h24V384h-8V368h16 32 48 42.8L435.9 176H343.6c-.5-5.5-1.5-10.8-3-16H448l59.4 208 4.6 16H495.4 456V504v8h-8H400h-8v-8V384H376V504v8zM72 352V496h32V352H72zM432 64a48 48 0 1 0 -96 0 48 48 0 1 0 96 0zM320 64a64 64 0 1 1 128 0A64 64 0 1 1 320 64zM440 384H408V496h32V384zM256 224a40 40 0 1 0 0-80 40 40 0 1 0 0 80zm0-96a56 56 0 1 1 0 112 56 56 0 1 1 0-112zM208 416H192 176V400 272 256h16H320h16v16V400v16H320 304v88 8H288v-8V416H224v88 8H208v-8V416zM320 272H192V400h16 16 64 16 16V272z"/></svg>