<svg xmlns="http://www.w3.org/2000/svg" viewBox="0 0 576 512"><!--! Font Awesome Pro 6.5.1 by @fontawesome - https://fontawesome.com License - https://fontawesome.com/license (Commercial License) Copyright 2023 Fonticons, Inc. --><path d="M104 0C46.6 0 0 46.6 0 104V504v8H8 128v-8-8H16V192H152.3l7-16H16V104c0-48.6 39.4-88 88-88c47.7 0 86.6 38 88 85.4l2.1-4.7 13.3-5.2C201.1 40 157.2 0 104 0zM370.9 64.5L368 63.4l-2.9 1.1-144 56-3.1 1.2-1.3 3-56 128-.7 1.5V256 504v8h8H568h8v-8V256v-1.7l-.7-1.5-56-128-1.3-3-3.1-1.2-144-56zM176 257.7l54-123.4L368 80.6l138 53.7 54 123.4V496H448V392v-8h-8H296h-8v8V496H176V257.7zM432 496H304V400H432v96zM320 192H304v16 96 16h16 96 16V304 208 192H416 320zm96 16v96H320V208h96z"/></svg>