<svg xmlns="http://www.w3.org/2000/svg" viewBox="0 0 512 512"><!--! Font Awesome Pro 6.5.1 by @fontawesome - https://fontawesome.com License - https://fontawesome.com/license (Commercial License) Copyright 2023 Fonticons, Inc. --><path d="M232 64v8 46.8L368 98.4 384 96v16.2 63.6V192l-16-2.4L232 169.2V208h40 3.3l2.3 2.3L323.3 256H376c75.1 0 136 60.9 136 136v48 8h-8H392h-8v-8V408.1c0-13.3-10.8-24-24-24l-40.1 .1C298 413.2 263.2 432 224 432s-74-18.8-95.9-47.8L8 384l-8 0 0-16 8 0 124.2 .2 4.2 0 2.4 3.4c18.8 26.9 50 44.4 85.3 44.4s66.4-17.5 85.3-44.4l2.4-3.4 4.2 0 44.1-.1c22.1 0 40.1 17.9 40.1 40V432h96V392c0-66.3-53.7-120-120-120H320h-3.3l-2.3-2.3L268.7 224H179.3l-45.7 45.7-2.3 2.3H128 8 0V256H8 124.7l45.7-45.7 2.3-2.3H176h40V169.2L80 189.6 64 192V175.8 112.2 96l16 2.4 136 20.4V72 64h16zM80 114.6v58.8L216 153V135L80 114.6zM232 135v18l136 20.4V114.6L232 135z"/></svg>