<svg xmlns="http://www.w3.org/2000/svg" viewBox="0 0 512 512"><!--! Font Awesome Pro 6.5.1 by @fontawesome - https://fontawesome.com License - https://fontawesome.com/license (Commercial License) Copyright 2023 Fonticons, Inc. --><path d="M232 8V0H216V8 54.8L80 34.4 64 32V48.2v63.6V128l16-2.4 136-20.4V144H176h-3.3l-2.3 2.3L124.7 192H8 0v16H8 128h3.3l2.3-2.3L179.3 160h89.4l45.7 45.7 2.3 2.3H320h56c66.3 0 120 53.7 120 120v40H400V344.1c0-22.1-18-40-40.1-40l-44.1 .1-4.2 0-2.4 3.4c-18.8 26.9-50 44.4-85.3 44.4s-66.4-17.5-85.3-44.4l-2.4-3.4-4.2 0L8 304l-8 0 0 16 8 0 120.1 .2C150 349.2 184.8 368 224 368s74-18.8 95.9-47.8l40.1-.1c13.3 0 24.1 10.7 24.1 24V376v8h8H504h8v-8V328c0-75.1-60.9-136-136-136H323.3l-45.7-45.7-2.3-2.3H272 232V105.2l136 20.4 16 2.4V111.8 48.2 32l-16 2.4L232 54.8V8zM216 71V89L80 109.4V50.6L216 71zm16 18V71L368 50.6v58.8L232 89zM434.1 472.6L448 448.2l13.9 24.4c1.3 2.4 2.1 5 2.1 7.7c0 8.6-7 15.6-15.6 15.6h-.8c-8.6 0-15.6-7-15.6-15.6c0-2.7 .7-5.4 2.1-7.7zm-13.9-7.9c-2.7 4.8-4.2 10.2-4.2 15.7c0 17.5 14.2 31.6 31.6 31.6h.8c17.5 0 31.6-14.2 31.6-31.6c0-5.5-1.4-10.9-4.2-15.7l-18.6-32.6L448 416l-9.2 16.1-18.6 32.6z"/></svg>