<svg xmlns="http://www.w3.org/2000/svg" viewBox="0 0 512 512"><!--! Font Awesome Pro 6.5.1 by @fontawesome - https://fontawesome.com License - https://fontawesome.com/license (Commercial License) Copyright 2023 Fonticons, Inc. --><path d="M32 102L72 56.3 112 102V464H32V288 102zM61.4 44.1L16 96V288 464v16H32h80 16V464 368h72v96 16h16 80 16V464 368h72v96 16h16 80 16V464 96L450.6 44.1 440 32 429.4 44.1 384 96v64H312V96L266.6 44.1 256 32 245.4 44.1 200 96v64H128V96L82.6 44.1 72 32 61.4 44.1zM384 352H312V176h72V288v64zm-184 0H128V176h72V288v64zm16-250l40-45.7L296 102V464H216V288 102zM400 288V102l40-45.7L480 102V464H400V288z"/></svg>