<svg xmlns="http://www.w3.org/2000/svg" viewBox="0 0 512 512"><!--! Font Awesome Pro 6.5.1 by @fontawesome - https://fontawesome.com License - https://fontawesome.com/license (Commercial License) Copyright 2023 Fonticons, Inc. --><path d="M224 16V48c0 17.7 14.3 32 32 32s32-14.3 32-32V16H224zM208 0h16 64 16V16 42.9c19.7 4.5 38.4 11.6 55.6 21.1H368h64 16V80v32c0 10.2-3.2 19.6-8.6 27.4c12.9 20.8 22.5 43.9 27.8 68.6H496h16v16 32c0 25.8-20.4 46.9-45.9 48C462 321 455.9 337.4 448 352.6V368v32c0 26.5-21.5 48-48 48s-48-21.5-48-48V368 352h16 62.1c8.8-15.5 15.6-32.3 20-50c-17.3-5.2-30.4-19.9-33.4-38H303.3c-2.3 13.7-10.4 25.4-21.7 32.6l85.7 204.3L372 512H360 152 140l4.7-11.1 85.7-204.3C219 289.4 211 277.7 208.7 264H95.3c-3 18.1-16.2 32.7-33.4 38c4.4 17.7 11.2 34.5 20 50H144h16v16 32c0 26.5-21.5 48-48 48s-48-21.5-48-48V368 352.6C56.1 337.4 50 321 45.9 304C20.4 302.9 0 281.8 0 256V224 208H16 44.8c5.3-24.7 14.8-47.8 27.8-68.6C67.2 131.6 64 122.2 64 112V80 64H80h64 8.4c17.3-9.5 35.9-16.6 55.6-21.1V16 0zM416 248V224 208h16 18.8c-4.7-20.3-12.6-39.5-23-56.9c-7.8 5.6-17.4 8.9-27.8 8.9s-20-3.3-27.8-8.9l-77.1 77.1c4.1 5.8 7 12.5 8.2 19.8H416zM360.9 139.8c-5.6-7.8-8.9-17.4-8.9-27.8V80 78.1c-15.3-8.4-31.9-14.8-49.3-19c-4.4 18.6-19.6 33.1-38.7 36.3V208.7c7.3 1.2 14 4.1 19.8 8.2l77.1-77.1zM248 95.3c-19.1-3.2-34.3-17.7-38.7-36.3c-17.4 4.2-34 10.6-49.3 19V80v32c0 10.4-3.3 20-8.9 27.8l77.1 77.1c5.8-4.1 12.5-7 19.8-8.2V95.3zM139.8 151.1c-7.8 5.6-17.4 8.9-27.8 8.9s-20-3.3-27.8-8.9c-10.4 17.4-18.2 36.6-23 56.9H80 96v16 24H208.7c1.2-7.3 4.1-14 8.2-19.8l-77.1-77.1zM256 304c-3.8 0-7.4-.4-10.9-1.2L164 496H348l-81-193.2c-3.5 .8-7.2 1.2-10.9 1.2zM16 224v32c0 17.7 14.3 32 32 32s32-14.3 32-32V224H16zm480 0H432v32c0 17.7 14.3 32 32 32s32-14.3 32-32V224zM80 80v32c0 17.7 14.3 32 32 32s32-14.3 32-32V80H80zm352 0H368v32c0 17.7 14.3 32 32 32s32-14.3 32-32V80zM80 400c0 17.7 14.3 32 32 32s32-14.3 32-32V368H80v32zm288-32v32c0 17.7 14.3 32 32 32s32-14.3 32-32V368H368zM256 288a32 32 0 1 0 0-64 32 32 0 1 0 0 64z"/></svg>