<svg xmlns="http://www.w3.org/2000/svg" viewBox="0 0 576 512"><!--! Font Awesome Pro 6.5.1 by @fontawesome - https://fontawesome.com License - https://fontawesome.com/license (Commercial License) Copyright 2023 Fonticons, Inc. --><path d="M368 16V48H208V16H368zM192 16V48H105.3 88l6.7 16 26.7 64H72c-4.4 0-8 3.6-8 8V304c0 1.3 .3 2.6 1 3.8l56 104 3.8 7 14.1-7.6-3.8-7L81.1 304H494.9L441 404.2l-3.8 7 14.1 7.6 3.8-7 56-104c.6-1.2 1-2.5 1-3.8V136c0-4.4-3.6-8-8-8H454.7l26.7-64L488 48H470.7 384V16 0H368 208 192V16zM496 288H80V144h48H448h48V288zM368 64h16 80l-26.7 64H138.7L112 64h80 16H368zM112 184v72 8h16v-8V192H448v64 8h16v-8V184c0-4.4-3.6-8-8-8H120c-4.4 0-8 3.6-8 8zM96.6 427L96 426l-.6 .9c-4.3 6.1-8.5 12.2-13.3 17.9c-4.8 5.8-11.8 13.5-20.2 21.2C44.6 481.8 22.5 496 0 496v16c28.7 0 54.6-17.8 72.6-34.1c10.2-9.2 18.2-18.4 23.4-24.8c5.2 6.4 13.3 15.6 23.4 24.8c18 16.3 43.9 34.1 72.6 34.1s54.6-17.8 72.6-34.1c10.2-9.2 18.2-18.4 23.4-24.8c5.2 6.4 13.3 15.6 23.4 24.8c18 16.3 43.9 34.1 72.6 34.1s54.6-17.8 72.6-34.1c10.2-9.2 18.2-18.4 23.4-24.8c5.2 6.4 13.3 15.6 23.4 24.8c18 16.3 43.9 34.1 72.6 34.1V496c-22.5 0-44.6-14.2-61.8-29.9c-8.5-7.7-15.4-15.4-20.2-21.2c-4.8-5.8-9-11.8-13.3-17.9l-.6-.9-.6 .9c-4.3 6.1-8.5 12.2-13.3 17.9c-4.8 5.8-11.8 13.5-20.2 21.2C428.5 481.8 406.5 496 384 496s-44.6-14.2-61.8-29.9c-8.5-7.7-15.4-15.4-20.2-21.2c-4.8-5.8-9-11.8-13.3-17.9c-.2-.3-.4-.6-.6-.9l-.6 .9c-4.3 6.1-8.5 12.1-13.3 17.9c-4.8 5.8-11.8 13.5-20.2 21.2C236.5 481.8 214.5 496 192 496s-44.6-14.2-61.8-29.9c-8.5-7.7-15.4-15.4-20.2-21.2c-4.8-5.8-9-11.8-13.3-17.9z"/></svg>