<svg xmlns="http://www.w3.org/2000/svg" viewBox="0 0 512 512"><!--! Font Awesome Pro 6.5.1 by @fontawesome - https://fontawesome.com License - https://fontawesome.com/license (Commercial License) Copyright 2023 Fonticons, Inc. --><path d="M486.8 98.2l28.2-38.8L437.4 2.9 409.2 41.8 145.3 404.7c-5 6.9-13.1 11.1-21.7 11.1c-14.9 0-27.1-12.2-27-27.2c0-3.7 .8-7.3 2.3-10.7l17-38.5 19.4-43.9L47.5 256.7 28.1 300.6l-17 38.5C4.3 354.4 .7 371 .6 387.8C.1 456.2 55.4 512 123.9 511.8c39.2-.1 76-18.9 99.1-50.6L486.8 98.2zm-12.9-9.4l-54.3 74.6-53.3-35.5 55.8-76.7 18.8-25.9 51.8 37.6L473.9 88.8zm-63.7 87.6L210 451.7c-20.1 27.6-52.1 43.9-86.2 44C64.3 496 16.1 447.4 16.6 388c.1-14.6 3.2-29 9.1-42.4l17-38.5 12.9-29.3 58.5 25.9-12.9 29.3-17 38.5c-2.4 5.4-3.6 11.2-3.7 17c-.2 23.9 19.2 43.4 43 43.3c13.7 0 26.5-6.6 34.6-17.7L356.9 140.9l53.3 35.5zM432 368a64 64 0 1 1 0 128 64 64 0 1 1 0-128zm0 144a80 80 0 1 0 0-160 80 80 0 1 0 0 160z"/></svg>