<svg xmlns="http://www.w3.org/2000/svg" viewBox="0 0 384 512"><!--! Font Awesome Pro 6.5.1 by @fontawesome - https://fontawesome.com License - https://fontawesome.com/license (Commercial License) Copyright 2023 Fonticons, Inc. --><path d="M16 496V16H208V168v8h8H368V496H16zM224 22.6L361.4 160H224V22.6zM224 0H16 0V16 496v16H16 368h16V496 160L224 0zM160 208h-8v8 64H88 80v8 64 8h8 64v64 8h8 64 8v-8V360h64 8v-8V288v-8h-8H232V216v-8h-8H160zm8 80V224h48v64 8h8 64v48H224h-8v8 64H168V352v-8h-8H96V296h64 8v-8z"/></svg>