<svg xmlns="http://www.w3.org/2000/svg" viewBox="0 0 384 512"><!--! Font Awesome Pro 6.5.1 by @fontawesome - https://fontawesome.com License - https://fontawesome.com/license (Commercial License) Copyright 2023 Fonticons, Inc. --><path d="M16 496V16H208V168v8h8H368V496H16zM224 22.6L361.4 160H224V22.6zM224 0H16 0V16 496v16H16 368h16V496 160L224 0zM121.8 238.5l-11.3 11.3 5.7 5.7L180.7 320l-64.6 64.6-5.7 5.7 11.3 11.3 5.7-5.7L192 331.3l64.6 64.6 5.7 5.7 11.3-11.3-5.7-5.7L203.3 320l64.6-64.6 5.7-5.7-11.3-11.3-5.7 5.7L192 308.7l-64.6-64.6-5.7-5.7z"/></svg>