<svg xmlns="http://www.w3.org/2000/svg" viewBox="0 0 384 512"><!--! Font Awesome Pro 6.5.1 by @fontawesome - https://fontawesome.com License - https://fontawesome.com/license (Commercial License) Copyright 2023 Fonticons, Inc. --><path d="M16 496H368V176H216h-8v-8V16H16V496zM361.4 160L224 22.6V160H361.4zM16 0H224L384 160V496v16H368 16 0V496 16 0H16zM192 416H176 80 64V400 344L96 224h64l32 120v56 16zM108.3 240L80 346.1V400h96V346.1L147.7 240H108.3zM112 344h32 8v16h-8H112h-8V344h8zM104 32h48 8V48h-8H104 96V32h8zm0 32h48 8V80h-8H104 96V64h8zm0 32h48 8v16h-8H104 96V96h8zm0 32h48 8v16h-8H104 96V128h8zm0 32h48 8v16h-8H104 96V160h8zm0 32h48 8v16h-8H104 96V192h8z"/></svg>