<svg xmlns="http://www.w3.org/2000/svg" viewBox="0 0 512 512"><!--! Font Awesome Pro 6.5.1 by @fontawesome - https://fontawesome.com License - https://fontawesome.com/license (Commercial License) Copyright 2023 Fonticons, Inc. --><path d="M80 496H16V16H208V168v8h8H368V304h16V160L224 0H16 0V16 496v16H16 80V496zM361.4 160H224V22.6L361.4 160zM248 376v-8l-8 0-5.6 0-4.6 0-2.3 3.9-35.6 60.5-37-60.6-2.3-3.8-4.5 0-4 0-8 0v8V504v8h16v-8V397.9l33.2 54.3 7 11.4 6.8-11.5L232 395.8V504v8h16v-8V376zm192 0v-8H424v8 35c0 20.1 3.6 40.1 10.7 59l13.8 36.8 1.9 5.2H456h16 5.5l1.9-5.2L493.3 470c7.1-18.9 10.7-38.8 10.7-59V376v-8H488v8 35c0 18.2-3.3 36.3-9.7 53.4L466.5 496h-4.9l-11.9-31.6c-6.4-17.1-9.7-35.1-9.7-53.4V376zM296 400v80c0 17.7 14.3 32 32 32h16c17.7 0 32-14.3 32-32V400c0-17.7-14.3-32-32-32H328c-17.7 0-32 14.3-32 32zm32-16h16c8.8 0 16 7.2 16 16v80c0 8.8-7.2 16-16 16H328c-8.8 0-16-7.2-16-16V400c0-8.8 7.2-16 16-16z"/></svg>