<svg xmlns="http://www.w3.org/2000/svg" viewBox="0 0 448 512"><!--! Font Awesome Pro 6.5.1 by @fontawesome - https://fontawesome.com License - https://fontawesome.com/license (Commercial License) Copyright 2023 Fonticons, Inc. --><path d="M432 400H144V16H336v88 8h8 88V400zm8-304L344 0H144 128V16 400v16h16H432h16V400 104l-8-8zm-22.6 0H352V30.6L417.4 96zM96 96H16 0v16V496v16H16 304h16V496 448H304v48H16V112H96V96zm165.3 65.3h-8v8 52h-52-8v8 53.3 8h8 52v52 8h8 53.3 8v-8-52h52 8v-8V229.3v-8h-8-52v-52-8h-8H261.3zm8 68v-52h37.3v52 8h8l52 0v37.3h-52-8v8 52H269.3v-52-8h-8-52V237.3h52 8v-8z"/></svg>