<svg xmlns="http://www.w3.org/2000/svg" viewBox="0 0 576 512"><!--! Font Awesome Pro 6.5.1 by @fontawesome - https://fontawesome.com License - https://fontawesome.com/license (Commercial License) Copyright 2023 Fonticons, Inc. --><path d="M320 496H16V16H208V168v8h8H320h48 16V160L224 0H16 0V16 496v16H16 320l0-16zM224 22.6L361.4 160H224V22.6zM464 208c26.5 0 48 21.5 48 48v64H416V256c0-26.5 21.5-48 48-48zm-64 48v64H368 352v16V496v16h16H560h16V496 336 320H560 528V256c0-35.3-28.7-64-64-64s-64 28.7-64 64zM368 496V336h32 16 96 16 32V496H368z"/></svg>