<svg xmlns="http://www.w3.org/2000/svg" viewBox="0 0 512 512"><!--! Font Awesome Pro 6.5.1 by @fontawesome - https://fontawesome.com License - https://fontawesome.com/license (Commercial License) Copyright 2023 Fonticons, Inc. --><path d="M80 496H16V16H208V168v8h8H368V304h16V160L224 0H16 0V16 496v16H16 80V496zM361.4 160H224V22.6L361.4 160zM248 376v-8l-8 0-5.6 0-4.6 0-2.3 3.9-35.6 60.5-37-60.6-2.3-3.8-4.5 0-4 0-8 0v8V504v8h16v-8V397.9l33.2 54.3 7 11.4 6.8-11.5L232 395.8V504v8h16v-8V376zm56-8h-8v8 80 48 8h16v-8V464h24c26.5 0 48-21.5 48-48s-21.5-48-48-48H304zm32 80H312V384h24c17.7 0 32 14.3 32 32s-14.3 32-32 32zm96-80h-8v16h8 32c13.3 0 24 10.7 24 24s-10.7 24-24 24H440h-8v16h8 24c13.3 0 24 10.7 24 24s-10.7 24-24 24H432h-8v16h8 32c22.1 0 40-17.9 40-40c0-13.1-6.3-24.7-16-32c9.7-7.3 16-18.9 16-32c0-22.1-17.9-40-40-40H432z"/></svg>