<svg xmlns="http://www.w3.org/2000/svg" viewBox="0 0 384 512"><!--! Font Awesome Pro 6.5.1 by @fontawesome - https://fontawesome.com License - https://fontawesome.com/license (Commercial License) Copyright 2023 Fonticons, Inc. --><path d="M16 16H208V168v8h8H368V496H16V16zm208 6.6L361.4 160H224V22.6zM224 0H16 0V16 496v16H16 368h16V496 160L224 0zM104 224H96v8 80 80 8h16v-8V320h52.7l64 64-42.3 42.3-5.7 5.7L192 443.3l5.7-5.7L240 395.3l42.3 42.3 5.7 5.7L299.3 432l-5.7-5.7L251.3 384l42.3-42.3 5.7-5.7L288 324.7l-5.7 5.7L240 372.7l-53.8-53.8C207.8 314.2 224 295 224 272c0-26.5-21.5-48-48-48H104zm72 80H112V240h64c17.7 0 32 14.3 32 32s-14.3 32-32 32z"/></svg>