<svg xmlns="http://www.w3.org/2000/svg" viewBox="0 0 576 512"><!--! Font Awesome Pro 6.5.1 by @fontawesome - https://fontawesome.com License - https://fontawesome.com/license (Commercial License) Copyright 2023 Fonticons, Inc. --><path d="M16 496H311.2c6.1 5.8 12.7 11.1 19.6 16H16 0V496 16 0H16 224L384 160v38.6c-5.4 1.5-10.8 3.3-16 5.4V176H216h-8v-8V16H16V496zM361.4 160L224 22.6V160H361.4zM432 496a128 128 0 1 0 0-256 128 128 0 1 0 0 256zm0-272a144 144 0 1 1 0 288 144 144 0 1 1 0-288zm75.3 104l-5.7 5.7-80 80-5.7 5.7-5.7-5.7-48-48-5.7-5.7L368 348.7l5.7 5.7L416 396.7l74.3-74.3 5.7-5.7L507.3 328z"/></svg>