<svg xmlns="http://www.w3.org/2000/svg" viewBox="0 0 384 512"><!--! Font Awesome Pro 6.5.1 by @fontawesome - https://fontawesome.com License - https://fontawesome.com/license (Commercial License) Copyright 2023 Fonticons, Inc. --><path d="M16 496V16H208V168v8h8H368V496H16zM224 22.6L361.4 160H224V22.6zM224 0H16 0V16 496v16H16 368h16V496 160L224 0zM149.7 269.7l5.7-5.7L144 252.7l-5.7 5.7-56 56L76.7 320l5.7 5.7 56 56 5.7 5.7L155.3 376l-5.7-5.7L99.3 320l50.3-50.3zm96-11.3l-5.7-5.7L228.7 264l5.7 5.7L284.7 320l-50.3 50.3-5.7 5.7L240 387.3l5.7-5.7 56-56 5.7-5.7-5.7-5.7-56-56z"/></svg>