<svg xmlns="http://www.w3.org/2000/svg" viewBox="0 0 576 512"><!--! Font Awesome Pro 6.5.1 by @fontawesome - https://fontawesome.com License - https://fontawesome.com/license (Commercial License) Copyright 2023 Fonticons, Inc. --><path d="M16 496H342.2c6.3 5.7 12.9 11 19.9 16H16 0V496 16 0H16 224L384 160v48.3l-16 6.2V176H216h-8v-8V16H16V496zM361.4 160L224 22.6V160H361.4zM560 290.7L440 244.3V491.9c79.1-33.5 120-119 120-195.9v-5.3zm-256 0V296c0 76.9 40.9 162.4 120 195.9V244.3L304 290.7zM432 512c-96-32-144-130.1-144-216V279.7L432 224l144 55.8V296c0 85.9-48 184-144 216z"/></svg>