<svg xmlns="http://www.w3.org/2000/svg" viewBox="0 0 576 512"><!--! Font Awesome Pro 6.5.1 by @fontawesome - https://fontawesome.com License - https://fontawesome.com/license (Commercial License) Copyright 2023 Fonticons, Inc. --><path d="M368 352V496H16V16H208V168v8h8H368v80h16V160L224 0H16 0V16 496v16H16 368h16V496 352H368zm-6.6-192H224V22.6L361.4 160zm92.3 26.3l-5.7-5.7L436.7 192l5.7 5.7L540.7 296H200h-8v16h8H540.7l-98.3 98.3-5.7 5.7L448 427.3l5.7-5.7 112-112 5.7-5.7-5.7-5.7-112-112z"/></svg>