<svg xmlns="http://www.w3.org/2000/svg" viewBox="0 0 384 512"><!--! Font Awesome Pro 6.5.1 by @fontawesome - https://fontawesome.com License - https://fontawesome.com/license (Commercial License) Copyright 2023 Fonticons, Inc. --><path d="M16 496V16H208V168v8h8H368V496H16zM224 22.6L361.4 160H224V22.6zM224 0H16 0V16 496v16H16 368h16V496 160L224 0zM136 224a40 40 0 1 0 -80 0 40 40 0 1 0 80 0zM96 200a24 24 0 1 1 0 48 24 24 0 1 1 0-48zm136 66.1l-6.5 9.3-50.5 72.2-33.3-33.3-6.2-6.2-5.6 6.7-80 96L48 413.1V416v24 8h8H328h8v-8V416v-2.5l-1.5-2.1-96-136-6.6-9.3zm.1 27.8l88 124.6V432H64V418.9l72.5-87 33.8 33.8 6.7 6.7 5.5-7.8L232 293.9z"/></svg>