<svg xmlns="http://www.w3.org/2000/svg" viewBox="0 0 512 512"><!--! Font Awesome Pro 6.5.1 by @fontawesome - https://fontawesome.com License - https://fontawesome.com/license (Commercial License) Copyright 2023 Fonticons, Inc. --><path d="M496 496H144V352H128V496v16h16H496h16V496 160L352 0H144 128V16 256h16V16H336V168v8h8H496V496zm-6.6-336H352V22.6L489.4 160zM269.7 186.3l-5.7-5.7L252.7 192l5.7 5.7L356.7 296H8 0v16H8 356.7l-98.3 98.3-5.7 5.7L264 427.3l5.7-5.7 112-112 5.7-5.7-5.7-5.7-112-112z"/></svg>