<svg xmlns="http://www.w3.org/2000/svg" viewBox="0 0 384 512"><!--! Font Awesome Pro 6.5.1 by @fontawesome - https://fontawesome.com License - https://fontawesome.com/license (Commercial License) Copyright 2023 Fonticons, Inc. --><path d="M16 16H208V168v8h8H368V496H16V16zm208 6.6L361.4 160H224V22.6zM224 0H16 0V16 496v16H16 368h16V496 160L224 0zM80 384h40v48H80V384zm0-16V320h40v48H80zm56 64V384h48v48H136zm0-64V320h48v48H136zm64 64V384h48v48H200zm0-112h48v48H200V320zm64 112V384h40v48H264zm0-64V320h40v48H264zm56 8v-8V320v-8-8V240 224H304 192 80 64v16 64 8 8 48 8 8 48 16H80h40 8 8 48 8 8 48 8 8 40 16V432 384v-8zm-64-72H192 128 80V240H192 304v64H256z"/></svg>