<svg xmlns="http://www.w3.org/2000/svg" viewBox="0 0 384 512"><!--! Font Awesome Pro 6.5.1 by @fontawesome - https://fontawesome.com License - https://fontawesome.com/license (Commercial License) Copyright 2023 Fonticons, Inc. --><path d="M16 496V16H208V168v8h8H368V496H16zM224 22.6L361.4 160H224V22.6zM224 0H16 0V16 496v16H16 368h16V496 160L224 0zM96 240h32v8 16 8h-8H104 96V240zm8 48v96H96 80v16 32 16H96h32 16V432v-8h96v8 16h16 32 16V432 400 384H288h-8V288h8 16V272 240 224H288 256 240v16 8H144v-8V224H128 96 80v16 32 16H96h8zm160 0v96h-8H240v16 8H144v-8V384H128h-8V288h8 16V272v-8h96v8 16h16 8zm-8 144v-8V408v-8h8 16 8v32H256zm-128-8v8H96V400h8 16 8v8 16zM288 272h-8H264h-8v-8V248v-8h32v32z"/></svg>