<svg xmlns="http://www.w3.org/2000/svg" viewBox="0 0 384 512"><!--! Font Awesome Pro 6.5.1 by @fontawesome - https://fontawesome.com License - https://fontawesome.com/license (Commercial License) Copyright 2023 Fonticons, Inc. --><path d="M16 16H208V168v8h8H368V496H16V16zm208 6.6L361.4 160H224V22.6zM224 0H16 0V16 496v16H16 368h16V496 160L224 0zM192 208v8 96 8h8 96 8v-8c0-57.4-46.6-104-104-104h-8zm16 16.4c42.2 3.8 75.8 37.4 79.6 79.6H208V224.4zm-48 8.9C110.2 240.9 72 284 72 336c0 57.4 46.6 104 104 104c52 0 95.1-38.2 102.8-88H262.6c-7.5 41-43.4 72-86.6 72c-48.6 0-88-39.4-88-88c0-43.1 31-79 72-86.5V233.2z"/></svg>