<svg xmlns="http://www.w3.org/2000/svg" viewBox="0 0 576 512"><!--! Font Awesome Pro 6.5.1 by @fontawesome - https://fontawesome.com License - https://fontawesome.com/license (Commercial License) Copyright 2023 Fonticons, Inc. --><path d="M16 496H311.2c6.1 5.8 12.7 11.1 19.6 16H16 0V496 16 0H16 224L384 160v38.6c-5.4 1.5-10.8 3.3-16 5.4V176H216h-8v-8V16H16V496zM361.4 160L224 22.6V160H361.4zM560 368a128 128 0 1 0 -256 0 128 128 0 1 0 256 0zm-272 0a144 144 0 1 1 288 0 144 144 0 1 1 -288 0zm205.7-50.3L443.3 368l50.3 50.3 5.7 5.7L488 435.3l-5.7-5.7L432 379.3l-50.3 50.3-5.7 5.7L364.7 424l5.7-5.7L420.7 368l-50.3-50.3-5.7-5.7L376 300.7l5.7 5.7L432 356.7l50.3-50.3 5.7-5.7L499.3 312l-5.7 5.7z"/></svg>