<svg xmlns="http://www.w3.org/2000/svg" viewBox="0 0 576 512"><!--! Font Awesome Pro 6.5.1 by @fontawesome - https://fontawesome.com License - https://fontawesome.com/license (Commercial License) Copyright 2023 Fonticons, Inc. --><path d="M368 496H16V16H208V168v8h8H368v37.5l16-16V160L224 0H16 0V16 496v16H16 368h16V496 433.3l-16 2.5V496zm-6.6-336H224V22.6L361.4 160zM120 312h-6.1l-1.6 5.9L89.9 400H64 56v16h8H96h6.1l1.6-5.9L126.1 328h3.8l22.4 82.1 1.6 5.9H160h8 4.6l2.3-4 29.7-52h14.7l29.7 52 2.3 4H256h24 8l.2-.2 16.4-2.6 74.7-11.6L564.7 216.3 576 204.9l-11.3-11.3-54.5-54.5-11.3-11.3L302.2 324.6l-11.6 74.7-.1 .7H288h-8H260.6l-29.7-52-2.3-4H224 200h-4.6l-2.3 4-27.8 48.7-21.5-78.8-1.6-5.9H136 120zm187.2 84.7l10-64.5L455 194.4l54.5 54.5L371.7 386.6l-64.5 10zM520.8 237.5L466.4 183l32.5-32.5 54.5 54.5-32.5 32.5z"/></svg>