<svg xmlns="http://www.w3.org/2000/svg" viewBox="0 0 384 512"><!--! Font Awesome Pro 6.5.1 by @fontawesome - https://fontawesome.com License - https://fontawesome.com/license (Commercial License) Copyright 2023 Fonticons, Inc. --><path d="M16 496V16H208V168v8h8H368V496H16zM224 22.6L361.4 160H224V22.6zM224 0H16 0V16 496v16H16 368h16V496 160L224 0zm80 220.5l-10.8 4.1-128 48-5.2 1.9V280 386.2c-8.5-6.3-19.7-10.2-32-10.2c-26.5 0-48 17.9-48 40s21.5 40 48 40s48-17.9 48-40V285.5l112-42V354.2c-8.5-6.3-19.7-10.2-32-10.2c-26.5 0-48 17.9-48 40s21.5 40 48 40s48-17.9 48-40V232 220.5zM256 360c20.5 0 32 13.4 32 24s-11.5 24-32 24s-32-13.4-32-24s11.5-24 32-24zM128 392c20.5 0 32 13.4 32 24s-11.5 24-32 24s-32-13.4-32-24s11.5-24 32-24z"/></svg>