<svg xmlns="http://www.w3.org/2000/svg" viewBox="0 0 512 512"><!--! Font Awesome Pro 6.5.1 by @fontawesome - https://fontawesome.com License - https://fontawesome.com/license (Commercial License) Copyright 2023 Fonticons, Inc. --><path d="M16 496H176v16H16 0V496 16 0H16 224L384 160V304H368V176H216h-8v-8V16H16V496zM361.4 160L224 22.6V160H361.4zM232 400c0-17.7 14.3-32 32-32h16c17.7 0 32 14.3 32 32v16H296V400c0-8.8-7.2-16-16-16H264c-8.8 0-16 7.2-16 16v80c0 8.8 7.2 16 16 16h16c8.8 0 16-7.2 16-16V464h-8-8V448h8 16 8v8 24c0 17.7-14.3 32-32 32H264c-17.7 0-32-14.3-32-32V400zm144-24V504v8H360v-8V376v-8h16v8zm56-8h48 8v16h-8H440v48h40 8v16h-8H440v56 8H424v-8V440 376v-8h8z"/></svg>