<svg xmlns="http://www.w3.org/2000/svg" viewBox="0 0 576 512"><!--! Font Awesome Pro 6.5.1 by @fontawesome - https://fontawesome.com License - https://fontawesome.com/license (Commercial License) Copyright 2023 Fonticons, Inc. --><path d="M16 496H311.2c6.1 5.8 12.7 11.1 19.6 16H16 0V496 16 0H16 224L384 160v38.6c-5.4 1.5-10.8 3.3-16 5.4V176H216h-8v-8V16H16V496zM361.4 160L224 22.6V160H361.4zM560 368a128 128 0 1 0 -256 0 128 128 0 1 0 256 0zm-272 0a144 144 0 1 1 288 0 144 144 0 1 1 -288 0zm117.9-80H454c23.2 0 42 18.8 42 42v8h-.8c-2.6 13.2-11.4 24.6-24 30.3L440 382.4V392v8H424v-8V377.2v-5.2l4.7-2.1 36-16.2C474 349.5 480 340.3 480 330c0-14.4-11.6-26-26-26H405.9c-12.1 0-21.9 9.8-21.9 21.9V328v8H368v-8-2.1c0-20.9 17-37.9 37.9-37.9zM444 420v24H420V420h24z"/></svg>