<svg xmlns="http://www.w3.org/2000/svg" viewBox="0 0 384 512"><!--! Font Awesome Pro 6.5.1 by @fontawesome - https://fontawesome.com License - https://fontawesome.com/license (Commercial License) Copyright 2023 Fonticons, Inc. --><path d="M16 16H208V168v8h8H368V496H16V16zm208 6.6L361.4 160H224V22.6zM224 0H16 0V16 496v16H16 368h16V496 160L224 0zM93.7 305.1c0 14.3 5.9 28 16.4 37.8l70.9 66.4L192 419.5l10.9-10.2 70.9-66.4c10.5-9.8 16.4-23.5 16.4-37.8c0-28.6-23.2-51.8-51.8-51.8H235c-14 0-27.5 5.3-37.8 14.9l-5.2 4.8-5.2-4.8c-10.3-9.6-23.8-14.9-37.8-14.9h-3.5c-28.6 0-51.8 23.2-51.8 51.8zm87.4-20.4L192 295l10.9-10.2 5.2-4.8c7.3-6.8 16.9-10.6 26.9-10.6h3.5c19.8 0 35.8 16 35.8 35.8c0 9.9-4.1 19.4-11.3 26.1L192 397.6l-70.9-66.4c-7.2-6.8-11.3-16.2-11.3-26.1c0-19.8 16-35.8 35.8-35.8H149c10 0 19.6 3.8 26.9 10.6l5.2 4.8z"/></svg>