<svg xmlns="http://www.w3.org/2000/svg" viewBox="0 0 384 512"><!--! Font Awesome Pro 6.5.1 by @fontawesome - https://fontawesome.com License - https://fontawesome.com/license (Commercial License) Copyright 2023 Fonticons, Inc. --><path d="M16 496V16H208V168v8h8H368V496H16zM224 22.6L361.4 160H224V22.6zM224 0H16 0V16 496v16H16 368h16V496 160L224 0zm16 272v26.5V304v64 5.5V400H96V272H240zm16 128V379.5l53.2 19.9 10.8 4.1V392 280 268.5l-10.8 4.1L256 292.5V272 256H240 96 80v16V400v16H96 240h16V400zm48-19.5l-48-18V309.5l48-18v88.9z"/></svg>