<svg xmlns="http://www.w3.org/2000/svg" viewBox="0 0 512 512"><!--! Font Awesome Pro 6.5.1 by @fontawesome - https://fontawesome.com License - https://fontawesome.com/license (Commercial License) Copyright 2023 Fonticons, Inc. --><path d="M16 496h96v16H16 0V496 16 0H16 224L384 160V304H368V176H216h-8v-8V16H16V496zM361.4 160L224 22.6V160H361.4zM200 368h16c17.7 0 32 14.3 32 32v8 8H232v-8-8c0-8.8-7.2-16-16-16H200c-8.8 0-16 7.2-16 16v80c0 8.8 7.2 16 16 16h16c8.8 0 16-7.2 16-16v-8-8h16v8 8c0 17.7-14.3 32-32 32H200c-17.7 0-32-14.3-32-32V400c0-17.7 14.3-32 32-32zm133.1 0H368h8v16h-8H333.1c-11.7 0-21.1 9.4-21.1 21.1c0 8.3 4.9 15.9 12.5 19.3L362 441c13.4 6 22 19.2 22 33.9c0 20.5-16.6 37.1-37.1 37.1H304h-8V496h8 42.9c11.7 0 21.1-9.4 21.1-21.1c0-8.3-4.9-15.9-12.5-19.3L318 439c-13.4-6-22-19.2-22-33.9c0-20.5 16.6-37.1 37.1-37.1zM440 368v8 62.6L461.5 496h4.9L488 438.6V376v-8h16v8 64 1.4l-.5 1.4-24 64-1.9 5.2H472 456h-5.5l-1.9-5.2-24-64-.5-1.4V440 376v-8h16z"/></svg>