<svg xmlns="http://www.w3.org/2000/svg" viewBox="0 0 512 512"><!--! Font Awesome Pro 6.5.1 by @fontawesome - https://fontawesome.com License - https://fontawesome.com/license (Commercial License) Copyright 2023 Fonticons, Inc. --><path d="M16 496h96v16H16 0V496 16 0H16 224L384 160V304H368V176H216h-8v-8V16H16V496zM361.4 160L224 22.6V160H361.4zM296 368h8 32c26.5 0 48 21.5 48 48s-21.5 48-48 48H312v40 8H296v-8V456 376v-8zm16 80h24c17.7 0 32-14.3 32-32s-14.3-32-32-32H312v64zM168 368h8 32c26.5 0 48 21.5 48 48s-21.5 48-48 48H184v40 8H168v-8V456 376v-8zm16 80h24c17.7 0 32-14.3 32-32s-14.3-32-32-32H184v64zm232-80h8 40 40 8v16h-8H472V504v8H456v-8V384H424h-8V368z"/></svg>