<svg xmlns="http://www.w3.org/2000/svg" viewBox="0 0 512 512"><!--! Font Awesome Pro 6.5.1 by @fontawesome - https://fontawesome.com License - https://fontawesome.com/license (Commercial License) Copyright 2023 Fonticons, Inc. --><path d="M16 496h96v16H16 0V496 16 0H16 224L384 160V304H368V176H216h-8v-8V16H16V496zM361.4 160L224 22.6V160H361.4zM176 368h32c22.1 0 40 17.9 40 40v64c0 22.1-17.9 40-40 40H176h-8v-8V376v-8h8zm8 128h24c13.3 0 24-10.7 24-24V408c0-13.3-10.7-24-24-24H184V496zM456 368h16c17.7 0 32 14.3 32 32v8 8H488v-8-8c0-8.8-7.2-16-16-16H456c-8.8 0-16 7.2-16 16v80c0 8.8 7.2 16 16 16h16c8.8 0 16-7.2 16-16v-8-8h16v8 8c0 17.7-14.3 32-32 32H456c-17.7 0-32-14.3-32-32V400c0-17.7 14.3-32 32-32zM296 400c0-17.7 14.3-32 32-32h16c17.7 0 32 14.3 32 32v80c0 17.7-14.3 32-32 32H328c-17.7 0-32-14.3-32-32V400zm32-16c-8.8 0-16 7.2-16 16v80c0 8.8 7.2 16 16 16h16c8.8 0 16-7.2 16-16V400c0-8.8-7.2-16-16-16H328z"/></svg>