<svg xmlns="http://www.w3.org/2000/svg" viewBox="0 0 384 512"><!--! Font Awesome Pro 6.5.1 by @fontawesome - https://fontawesome.com License - https://fontawesome.com/license (Commercial License) Copyright 2023 Fonticons, Inc. --><path d="M16 16H208V168v8h8H368V496H16V16zm208 6.6L361.4 160H224V22.6zM224 0H16 0V16 496v16H16 368h16V496 160L224 0zm36.9 439.4C296.3 418.5 320 380 320 336s-23.7-82.5-59.1-103.4L252 245.9c31.1 18 52 51.6 52 90.1s-20.9 72.1-52 90.1l8.9 13.3zM225.3 386c18.2-9.2 30.7-28.1 30.7-50s-12.5-40.7-30.7-50l-9 13.4c13.9 6.3 23.7 20.3 23.7 36.5s-9.7 30.3-23.7 36.5l9 13.4zm-99.5-18H120 96V304h24 5.8l4.4-3.7L173.8 264H176V408h-2.2l-43.5-36.3-4.4-3.7zM96 384h24l48 40h8 16V408 264 248H176h-8l-48 40H96 80v16 64 16H96z"/></svg>