<svg xmlns="http://www.w3.org/2000/svg" viewBox="0 0 512 512"><!--! Font Awesome Pro 6.5.1 by @fontawesome - https://fontawesome.com License - https://fontawesome.com/license (Commercial License) Copyright 2023 Fonticons, Inc. --><path d="M16 496h96v16H16 0V496 16 0H16 224L384 160V304H368V176H216h-8v-8V16H16V496zM361.4 160L224 22.6V160H361.4zM168 368h8 64 8v16h-8H184v48h40 8v16h-8H184v48h56 8v16h-8H176h-8v-8V440 376v-8zm136 0h32c26.5 0 48 21.5 48 48s-21.5 48-48 48H312v40 8H296v-8V456 376v-8h8zm32 80c17.7 0 32-14.3 32-32s-14.3-32-32-32H312v64h24zm117.7-80H480h8v16h-8H453.7c-12 0-21.7 9.7-21.7 21.7c0 8.2 4.6 15.7 12 19.4l31.2 15.6c12.8 6.4 20.8 19.4 20.8 33.7c0 20.8-16.9 37.7-37.7 37.7H424h-8V496h8 34.3c12 0 21.7-9.7 21.7-21.7c0-8.2-4.6-15.7-12-19.4l-31.2-15.6C424.1 433 416 419.9 416 405.7c0-20.8 16.9-37.7 37.7-37.7z"/></svg>