<svg xmlns="http://www.w3.org/2000/svg" viewBox="0 0 384 512"><!--! Font Awesome Pro 6.5.1 by @fontawesome - https://fontawesome.com License - https://fontawesome.com/license (Commercial License) Copyright 2023 Fonticons, Inc. --><path d="M16 496V16H208V168v8h8H368V496H16zM224 22.6L361.4 160H224V22.6zM224 0H16 0V16 496v16H16 368h16V496 160L224 0zM176 240a80 80 0 1 1 0 160 80 80 0 1 1 0-160zm0 176c23.6 0 45.2-8.5 61.9-22.6l44.4 44.4 5.7 5.7 11.3-11.3-5.7-5.7-44.4-44.4C263.4 365.3 272 343.7 272 320c0-53-43-96-96-96s-96 43-96 96s43 96 96 96z"/></svg>