<svg xmlns="http://www.w3.org/2000/svg" viewBox="0 0 512 512"><!--! Font Awesome Pro 6.5.1 by @fontawesome - https://fontawesome.com License - https://fontawesome.com/license (Commercial License) Copyright 2023 Fonticons, Inc. --><path d="M16 496H144v16H16 0V496 16 0H16 224L384 160V304H368V176H216h-8v-8V16H16V496zM361.4 160L224 22.6V160H361.4zM216 376c0 8.9 2.6 17.5 7.5 24.9L240 425.6l16.5-24.7c4.9-7.4 7.5-16 7.5-24.9v-8h16v8c0 12-3.6 23.8-10.2 33.8L249.6 440l20.2 30.2c6.7 10 10.2 21.7 10.2 33.8v8H264v-8c0-8.9-2.6-17.5-7.5-24.9L240 454.4l-16.5 24.7c-4.9 7.4-7.5 16-7.5 24.9v8H200v-8c0-12 3.6-23.8 10.2-33.8L230.4 440l-20.2-30.2C203.6 399.8 200 388 200 376v-8h16v8zM328 512v-8V376v-8h16v8V496h32 8v16h-8H336h-8zm88-106.3c0-20.8 16.9-37.7 37.7-37.7H480h8v16h-8H453.7c-12 0-21.7 9.7-21.7 21.7c0 8.2 4.6 15.7 12 19.4l31.2 15.6c12.8 6.4 20.8 19.4 20.8 33.7c0 20.8-16.9 37.7-37.7 37.7H432h-8V496h8 26.3c12 0 21.7-9.7 21.7-21.7c0-8.2-4.6-15.7-12-19.4l-31.2-15.6C424.1 433 416 419.9 416 405.7z"/></svg>