<svg xmlns="http://www.w3.org/2000/svg" viewBox="0 0 448 512"><!--! Font Awesome Pro 6.5.1 by @fontawesome - https://fontawesome.com License - https://fontawesome.com/license (Commercial License) Copyright 2023 Fonticons, Inc. --><path d="M432 496H80V336H64V496v16H80 432h16V496 160L288 0H80 64V16 256H80V16H272V168v8h8H432V496zm-6.6-336H288V22.6L425.4 160zM263.2 228.4l-7.6-15.2-6.9 15.5L190.9 358.7l-40.1-66.8-2.3-3.9H144 8 0v16H8 139.5l45.7 76.1 7.9 13.2 6.3-14.1 57.1-128.5 24.4 48.8 2.2 4.4H288h64 8V288h-8H292.9l-29.8-59.6z"/></svg>