<svg xmlns="http://www.w3.org/2000/svg" viewBox="0 0 512 512"><!--! Font Awesome Pro 6.5.1 by @fontawesome - https://fontawesome.com License - https://fontawesome.com/license (Commercial License) Copyright 2023 Fonticons, Inc. --><path d="M16 496h96v16H16 0V496 16 0H16 224L384 160V304H368V176H216h-8v-8V16H16V496zM361.4 160L224 22.6V160H361.4zM205.7 368H232h8v16h-8H205.7c-12 0-21.7 9.7-21.7 21.7c0 8.2 4.6 15.7 12 19.4l31.2 15.6c12.8 6.4 20.8 19.4 20.8 33.7c0 20.8-16.9 37.7-37.7 37.7H176h-8V496h8 34.3c12 0 21.7-9.7 21.7-21.7c0-8.2-4.6-15.7-12-19.4l-31.2-15.6C176.1 433 168 419.9 168 405.7c0-20.8 16.9-37.7 37.7-37.7zM312 376v35c0 18.2 3.3 36.3 9.7 53.4L333.5 496h4.9l11.9-31.6c6.4-17.1 9.7-35.1 9.7-53.4V376v-8h16v8 35c0 20.1-3.6 40.1-10.7 59l-13.8 36.8-1.9 5.2H344 328h-5.5l-1.9-5.2L306.7 470c-7.1-18.9-10.7-38.8-10.7-59V376v-8h16v8zm112 24c0-17.7 14.3-32 32-32h16c17.7 0 32 14.3 32 32v16H488V400c0-8.8-7.2-16-16-16H456c-8.8 0-16 7.2-16 16v80c0 8.8 7.2 16 16 16h16c8.8 0 16-7.2 16-16V464h-8-8V448h8 16 8v8 24c0 17.7-14.3 32-32 32H456c-17.7 0-32-14.3-32-32V400z"/></svg>