<svg xmlns="http://www.w3.org/2000/svg" viewBox="0 0 384 512"><!--! Font Awesome Pro 6.5.1 by @fontawesome - https://fontawesome.com License - https://fontawesome.com/license (Commercial License) Copyright 2023 Fonticons, Inc. --><path d="M16 496V16H208V168v8h8H368V496H16zM224 22.6L361.4 160H224V22.6zM224 0H16 0V16 496v16H16 368h16V496 160L224 0zM72 64H64V80h8 80 8V64h-8H72zm0 64H64v16h8 80 8V128h-8H72zm48 168h-6.1l-1.6 5.9L89.9 384H64 56v16h8H96h6.1l1.6-5.9L126.1 312h3.8l22.4 82.1 1.6 5.9H160h8 4.6l2.3-4 29.7-52h14.7l29.7 52 2.3 4H256h64 8V384h-8H260.6l-29.7-52-2.3-4H224 200h-4.6l-2.3 4-27.8 48.7-21.5-78.8-1.6-5.9H136 120z"/></svg>