<svg xmlns="http://www.w3.org/2000/svg" viewBox="0 0 384 512"><!--! Font Awesome Pro 6.5.1 by @fontawesome - https://fontawesome.com License - https://fontawesome.com/license (Commercial License) Copyright 2023 Fonticons, Inc. --><path d="M16 496V16H208V168v8h8H368V496H16zM224 22.6L361.4 160H224V22.6zM224 0H16 0V16 496v16H16 368h16V496 160L224 0zM64 64V80h8 80 8V64h-8H72 64zm0 64v16h8 80 8V128h-8H72 64zM224 432v16h8 80 8V432h-8H232h-8zm80-192v96H80V240H304zM80 224H64v16 96 16H80 304h16V336 240 224H304 80z"/></svg>