<svg xmlns="http://www.w3.org/2000/svg" viewBox="0 0 512 512"><!--! Font Awesome Pro 6.5.1 by @fontawesome - https://fontawesome.com License - https://fontawesome.com/license (Commercial License) Copyright 2023 Fonticons, Inc. --><path d="M16 496h96v16H16 0V496 16 0H16 224L384 160V304H368V176H216h-8v-8V16H16V496zM361.4 160L224 22.6V160H361.4zM408 368v8V504v8H392v-8V397.6l-32.9 62.1-6.9 13.1-7.1-13-33-60V504v8H296v-8V376v-8l8 0 4 0 4.7 0 2.3 4.1 36.9 67 35.5-66.9 2.3-4.3 4.8 0 5.6 0 8 0zm-224 0v8c0 8.9 2.6 17.5 7.5 24.9L208 425.6l16.5-24.7c4.9-7.4 7.5-16 7.5-24.9v-8h16v8c0 12-3.6 23.8-10.2 33.8L217.6 440l20.2 30.2c6.7 10 10.2 21.7 10.2 33.8v8H232v-8c0-8.9-2.6-17.5-7.5-24.9L208 454.4l-16.5 24.7c-4.9 7.4-7.5 16-7.5 24.9v8H168v-8c0-12 3.6-23.8 10.2-33.8L198.4 440l-20.2-30.2C171.6 399.8 168 388 168 376v-8h16zM456 512v-8V376v-8h16v8V496h24 8v16h-8H464h-8z"/></svg>