<svg xmlns="http://www.w3.org/2000/svg" viewBox="0 0 384 512"><!--! Font Awesome Pro 6.5.1 by @fontawesome - https://fontawesome.com License - https://fontawesome.com/license (Commercial License) Copyright 2023 Fonticons, Inc. --><path d="M16 496V16H208V168v8h8H368V496H16zM224 22.6L361.4 160H224V22.6zM224 0H16 0V16 496v16H16 368h16V496 160L224 0zm90.7 240H298L248 411.4 199.7 245.8 198 240H186l-1.7 5.8L136 411.4 86 240H69.3l59 202.2L130 448h12l1.7-5.8L192 276.6l48.3 165.7L242 448h12l1.7-5.8 59-202.2z"/></svg>