<svg xmlns="http://www.w3.org/2000/svg" viewBox="0 0 576 512"><!--! Font Awesome Pro 6.5.1 by @fontawesome - https://fontawesome.com License - https://fontawesome.com/license (Commercial License) Copyright 2023 Fonticons, Inc. --><path d="M16 496H258.1l-2.5 16H16 0V496 16 0H16 224L384 160V293.5l-16 16V176H216h-8v-8V16H16V496zM361.4 160L224 22.6V160H361.4zm137.5 63.9l11.3 11.3 54.5 54.5L576 300.9l-11.3 11.3L379.3 497.6l-74.7 11.6L288 511.9l2.6-16.6 11.6-74.7L498.9 223.9zM317.2 428.2l-10 64.5 64.5-10L509.5 344.8 455 290.4 317.2 428.2zM553.4 300.9l-54.5-54.5L466.4 279l54.5 54.5 32.5-32.5z"/></svg>