<svg xmlns="http://www.w3.org/2000/svg" viewBox="0 0 512 512"><!--! Font Awesome Pro 6.5.1 by @fontawesome - https://fontawesome.com License - https://fontawesome.com/license (Commercial License) Copyright 2023 Fonticons, Inc. --><path d="M16 496H176v16H16 0V496 16 0H16 224L384 160V304H368V176H216h-8v-8V16H16V496zM361.4 160L224 22.6V160H361.4zM240 368h64 8v8 8 2.1l-1.1 1.8L249.2 496H304h8v16h-8H240h-8v-8-8-2.1l1.1-1.8 61.7-108H240h-8V368h8zm136 8V504v8H360v-8V376v-8h16v8zm48-8h8 24c26.5 0 48 21.5 48 48s-21.5 48-48 48H440v40 8H424v-8V456 376v-8zm16 80h16c17.7 0 32-14.3 32-32s-14.3-32-32-32H440v64z"/></svg>