<svg xmlns="http://www.w3.org/2000/svg" viewBox="0 0 640 512"><!--! Font Awesome Pro 6.5.1 by @fontawesome - https://fontawesome.com License - https://fontawesome.com/license (Commercial License) Copyright 2023 Fonticons, Inc. --><path d="M16.2 5L9.9 0 0 12.5l6.3 5L623.8 507l6.3 5 9.9-12.5-6.3-5L16.2 5zM576 312v-8-8V216v-8-8V120v-8-8V48 32H560 464h-8-8H192h-8-8H152.5l20.3 16H176v2.6l16 12.6V48H448v64 96 57.3L464 278V216h96v80H486.9l20.3 16H560v41.7l16 12.6V312zm-384-8V246.7L176 234v62H80V216h73.1l-20.3-16H80V158.3L64 145.6V200v8 8 80 8 8 80 8 8 56 16H80h96 8 8H448h8 8 23.5l-20.3-16H464v-2.6l-16-12.6V464H192V400 304zM464 48h96v56H464V48zm96 72v80H464V120h96zM176 464H80V408h96v56zM80 392V312h96v80H80z"/></svg>