<svg xmlns="http://www.w3.org/2000/svg" viewBox="0 0 576 512"><!--! Font Awesome Pro 6.5.1 by @fontawesome - https://fontawesome.com License - https://fontawesome.com/license (Commercial License) Copyright 2023 Fonticons, Inc. --><path d="M224 288V216H448v72 80H224V288zm0-88V128 48H448v80 72H224zm240 80V216h96v64H464zm0-80V136h96v64H464zm112 8v-8V136v-8-8V48 32H560 464h-8-8H224h-8-8H112 96V48v72 8 8 64 8 8 64 8 8 72 16h16 96 8 8H448h8 8 96 16V368 296v-8-8V216v-8zM560 48v72H464V48h96zM112 48h96v72H112V48zm0 88h96v64H112V136zm96 80v64H112V216h96zM112 368V296h96v72H112zm448 0H464V296h96v72zM16 128H0v16V464v16H16 464h16V464 416H464v48H16V144H64V128H16z"/></svg>