<svg xmlns="http://www.w3.org/2000/svg" viewBox="0 0 512 512"><!--! Font Awesome Pro 6.5.1 by @fontawesome - https://fontawesome.com License - https://fontawesome.com/license (Commercial License) Copyright 2023 Fonticons, Inc. --><path d="M112 120v80H16V120h96zm0-16H16V48h96v56zm0-72H16 0V48v56 8 8 80 8 8 80 8 8 80 8 8 56 16H16h96 8 8H384h8 8 96 16V464 408v-8-8V312v-8-8V216v-8-8V120v-8-8V48 32H496 400h-8-8H128h-8-8zm16 16H384v64 96 96 96 64H128V400 304 208 112 48zm272 0h96v56H400V48zm96 72v80H400V120h96zm0 96v80H400V216h96zm0 96v80H400V312h96zm0 96v56H400V408h96zM112 464H16V408h96v56zM16 392V312h96v80H16zm0-96V216h96v80H16z"/></svg>