<svg xmlns="http://www.w3.org/2000/svg" viewBox="0 0 576 512"><!--! Font Awesome Pro 6.5.1 by @fontawesome - https://fontawesome.com License - https://fontawesome.com/license (Commercial License) Copyright 2023 Fonticons, Inc. --><path d="M96 0H88V8 48H40 8 0V64H8 32V496H8 0v16H8 40 312h32 8V496h-8H320V64h24 8V48h-8H312 264V8 0h-8H96zM248 48H104V16H248V48zM88 64h16H248h16 40V496H48V64H88zM384 176H368v16 32 16h16 32 16V224 192 176H416 384zm0 16h16 16v16 16H400 384V208 192zM368 336v16 32 16h16 32 16V384 352 336H416 384 368zm32 16h16v16 16H400 384V368 352h16zm80-176H464v16 32 16h16 32 16V224 192 176H512 480zm0 16h16 16v16 16H496 480V208 192zm80-48V328H504h-8v8 96H352v16H504h8v-8V344h56 8v-8V136v-8h-8H352v16H560z"/></svg>