<svg xmlns="http://www.w3.org/2000/svg" viewBox="0 0 512 512"><!--! Font Awesome Pro 6.5.1 by @fontawesome - https://fontawesome.com License - https://fontawesome.com/license (Commercial License) Copyright 2023 Fonticons, Inc. --><path d="M16 120v80h96V120H16zm0-16h96V48H16v56zm0-72h96 8 8H384h8 8 96 16V48v56 8 8 80 8 8 80 8 8 80 8 8 56 16H496 400h-8-8H128h-8-8H16 0V464 408v-8-8V312v-8-8V216v-8-8V120v-8-8V48 32H16zm112 80v96 40H384V208 112 48H128v64zM112 256V216H16v80h96V256zm16 8v40 96 64H384V400 304 264H128zm272-8v40h96V216H400v40zm0-152h96V48H400v56zm0 16v80h96V120H400zm0 192v80h96V312H400zm0 96v56h96V408H400zm-288 0H16v56h96V408zm0-16V312H16v80h96z"/></svg>