<svg xmlns="http://www.w3.org/2000/svg" viewBox="0 0 640 512"><!--! Font Awesome Pro 6.5.1 by @fontawesome - https://fontawesome.com License - https://fontawesome.com/license (Commercial License) Copyright 2023 Fonticons, Inc. --><path d="M368 272V376l96 72V272v-6.2l4.2-4.6L624 89.8V48H208V89.8L363.8 261.2l4.2 4.6V272zm-16 0L192 96V48 32h16H624h16V48 96L480 272V460v20l-16-12L352 384V272zm-32 28.8L288 336V492v20l-16-12L160 416V336L0 160V112 96H16 160v12.4l3.3 3.6H16v41.8L171.8 325.2l4.2 4.6V336v72l96 72V336v-6.2l4.2-4.6 40.5-44.5 3.3 3.7v16.4z"/></svg>