<svg xmlns="http://www.w3.org/2000/svg" viewBox="0 0 576 512"><!--! Font Awesome Pro 6.5.1 by @fontawesome - https://fontawesome.com License - https://fontawesome.com/license (Commercial License) Copyright 2023 Fonticons, Inc. --><path d="M208 282.1V288v72.7l52.2 45.7c2.3 10.2 5.4 20 9.4 29.4L192 368V288L0 64V16 0H16 496h16V16 64L399.8 194.9c-9.4 1.7-18.6 4.2-27.4 7.4L496 58.1V16H16V58.1L204.1 277.6l3.9 4.5zM560 368a128 128 0 1 0 -256 0 128 128 0 1 0 256 0zm-272 0a144 144 0 1 1 288 0 144 144 0 1 1 -288 0zm205.7-50.3L443.3 368l50.3 50.3 5.7 5.7L488 435.3l-5.7-5.7L432 379.3l-50.3 50.3-5.7 5.7L364.7 424l5.7-5.7L420.7 368l-50.3-50.3-5.7-5.7L376 300.7l5.7 5.7L432 356.7l50.3-50.3 5.7-5.7L499.3 312l-5.7 5.7z"/></svg>