<svg xmlns="http://www.w3.org/2000/svg" viewBox="0 0 512 512"><!--! Font Awesome Pro 6.5.1 by @fontawesome - https://fontawesome.com License - https://fontawesome.com/license (Commercial License) Copyright 2023 Fonticons, Inc. --><path d="M136 0h-8V8 72H112C50.1 72 0 122.1 0 184v8H16v-8c0-53 43-96 96-96h16v50.8c-37.8 18-64 56.5-64 101.2V496v16H80 272h16V496 240c0-44.7-26.2-83.2-64-101.2V88h64v40l208 29.7 16 2.3V143.8 16.2 0L496 2.3 288 32V72H224V8 0h-8H136zM304 80V45.9L496 18.4V141.6L304 114.1V80zm-91.7 71.1c.4 .2 .8 .4 1.2 .5C247.9 166.2 272 200.3 272 240V400H80V240c0-39.7 24.1-73.8 58.5-88.4c.4-.1 .8-.3 1.2-.5c11.2-4.6 23.5-7.1 36.3-7.1s25.1 2.5 36.3 7.1zM208 132.6c-10.1-3-20.9-4.6-32-4.6s-21.9 1.6-32 4.6V16h64V132.6zM80 496V416H272v80H80z"/></svg>