<svg xmlns="http://www.w3.org/2000/svg" viewBox="0 0 384 512"><!--! Font Awesome Pro 6.5.1 by @fontawesome - https://fontawesome.com License - https://fontawesome.com/license (Commercial License) Copyright 2023 Fonticons, Inc. --><path d="M200 0H184V8 32v.2C122.4 36 72.5 83.5 65 144H40 32v16h8H64 80 304h16 24 8V144h-8H319C311.5 83.5 261.6 36 200 32.2V32 8 0zm-8 48c56.4 0 103.1 41.7 110.9 96H81.1C88.9 89.7 135.6 48 192 48zm80 272a80 80 0 1 0 -160 0 80 80 0 1 0 160 0zm-80-64a64 64 0 1 1 0 128 64 64 0 1 1 0-128zM40 496H32v16h8H72 312h32 8V496h-8H320V392h56 8v-8V256v-8h-8H320V192H304v64V384 496H80V384 256 192H64v56H8 0v8V384v8H8 64V496H40zM64 376H16V264H64V376zm256 0V264h48V376H320z"/></svg>