<svg xmlns="http://www.w3.org/2000/svg" viewBox="0 0 576 512"><!--! Font Awesome Pro 6.5.1 by @fontawesome - https://fontawesome.com License - https://fontawesome.com/license (Commercial License) Copyright 2023 Fonticons, Inc. --><path d="M62.1 248H144V160v-8h16v8 88h80V160v-8h16v8 88h80V160v-8h16v8 88h64V128 112h16 16L576 256 448 400H432 416V384 264H352v88 8H336v-8V264H256v88 8H240v-8V264H160v88 8H144v-8V264H62.1L18.6 380 34 395.4l62-41.3v19.2L32 416 0 384 48 256 0 128 32 96l64 42.7v19.2L34 116.6 18.6 132 62.1 248zM432 264V384h8.8L554.6 256 440.8 128H432V248v16z"/></svg>