<svg xmlns="http://www.w3.org/2000/svg" viewBox="0 0 640 512"><!--! Font Awesome Pro 6.5.1 by @fontawesome - https://fontawesome.com License - https://fontawesome.com/license (Commercial License) Copyright 2023 Fonticons, Inc. --><path d="M388.8 336l4 2.7 31.5 21c31.2 20.8 66.7 33.9 103.6 38.5V113.8c-36.9 4.6-72.4 17.7-103.6 38.5l-31.5 21-4 2.7H384 16V336H384h4.8zm168.7 64H624V112H557.5c-4.5 0-9 .1-13.5 .4V399.6c4.5 .3 9 .4 13.5 .4zM16 352H0V336 176 160H16 384l31.5-21c42.1-28 91.5-43 142-43H624h16v16V400v16H624 557.5c-50.5 0-100-15-142-43L384 352H16zM240 240v32h64V240H240zm-16-16h16 64 16v16 32 16H304 240 224V272 240 224z"/></svg>