<svg xmlns="http://www.w3.org/2000/svg" viewBox="0 0 448 512"><!--! Font Awesome Pro 6.5.1 by @fontawesome - https://fontawesome.com License - https://fontawesome.com/license (Commercial License) Copyright 2023 Fonticons, Inc. --><path d="M160 170.6V159.9 16H288V159.9v10.7l9.8 4.1C367.3 203.7 416 272.2 416 352c0 57.3-25.1 108.8-65 144H97c-39.9-35.2-65-86.7-65-144c0-79.8 48.7-148.3 118.2-177.3l9.8-4.1zm144-10.7V16h24c4.4 0 8-3.6 8-8s-3.6-8-8-8H304 288 160 144 120h-8V16h8 24V159.9C68.8 191.3 16 265.5 16 352c0 64.3 29.2 121.8 75.1 160H356.9c45.9-38.2 75.1-95.7 75.1-160c0-86.5-52.8-160.7-128-192.1zM120 312c0-42.5 44.7-80 104-80s104 37.5 104 80c0 26.3-16.7 50.3-43.8 65.2l-4.2 2.3v4.7V416H168V384.2v-4.7l-4.2-2.3c-27.2-14.9-43.8-39-43.8-65.2zm104-96c-64.4 0-120 41.3-120 96c0 32 19.4 59.7 48 76.9V424v8h8H288h8v-8V388.9c28.6-17.2 48-44.8 48-76.9c0-54.7-55.6-96-120-96zm40 112a16 16 0 1 1 0-32 16 16 0 1 1 0 32zm-32-16a32 32 0 1 0 64 0 32 32 0 1 0 -64 0zm-32 0a16 16 0 1 1 -32 0 16 16 0 1 1 32 0zm-16-32a32 32 0 1 0 0 64 32 32 0 1 0 0-64z"/></svg>