<svg xmlns="http://www.w3.org/2000/svg" viewBox="0 0 640 512"><!--! Font Awesome Pro 6.5.1 by @fontawesome - https://fontawesome.com License - https://fontawesome.com/license (Commercial License) Copyright 2023 Fonticons, Inc. --><path d="M224 16V327.1l-16 23.1V176H48V352c0 44.2 35.8 80 80 80c11.4 0 22.2-2.4 32-6.7V432v10.5c-10 3.5-20.8 5.5-32 5.5c-53 0-96-43-96-96V16H0V0H40 216h40V16H224zM48 160H208V16H48V160zm304 64v2.5l-1.4 2.1L287.3 320H544.7l-63.3-91.4-1.4-2.1V224 16H352V224zM276.2 336L208 434.5V496H624V434.5L555.8 336H276.2zM496 16V221.5L638.6 427.4l1.4 2.1V432v72 8h-8H200h-8v-8V432v-2.5l1.4-2.1L336 221.5V16H312h-8V0h8 24 16H480h16 24 8V16h-8H496z"/></svg>