<svg xmlns="http://www.w3.org/2000/svg" viewBox="0 0 640 512"><!--! Font Awesome Pro 6.5.1 by @fontawesome - https://fontawesome.com License - https://fontawesome.com/license (Commercial License) Copyright 2023 Fonticons, Inc. --><path d="M288 214.9v5l2.8 4.1L324 271.9l8.8-15.3L304 214.9V16h24 8V0h-8H304 288 160 144 120h-8V16h8 24V214.9L0 422.9V496v16H16 352V496H16V427.9L68.6 352H72 325.5l.5-.3L298.8 336H79.7l77.5-112 2.8-4.1v-5V16H288V214.9zm236.1 33.8V222.4v-16h-16H452 436v16 26.2c-8 3.4-15.6 7.8-22.5 12.9l-21.1-12.2-13.9-8-8 13.9-28.9 50.1-8 13.9 13.9 8 21.1 12.2c-.4 4.1-.7 8.2-.7 12.4s.2 8.3 .7 12.4l-21.1 12.2-13.9 8 8 13.9 37 64 34.9-20.1c6.9 5.1 14.5 9.4 22.5 12.9V481v16h16 56.1 16V481 454.6c7.9-3.4 15.4-7.7 22.3-12.8l35.1 20.2 37-64 8-13.9-13.9-8L591.2 364c.4-4 .7-8.1 .7-12.3s-.2-8.2-.7-12.3l21.3-12.3 13.9-8-8-13.9-37-64 0 0-35 20.2c-6.9-5.1-14.3-9.4-22.3-12.8zm51.5 14.4l29 50.1-21.3 12.3-9 5.2 1.1 10.4c.4 3.5 .6 7 .6 10.5s-.2 7.1-.6 10.5l-1.1 10.4 9 5.2 21.3 12.3-29 50.1L554.3 428l-9.1-5.2-8.4 6.2c-5.9 4.3-12.3 8-19.1 11l-9.7 4.2v10.5V481H452V454.8 444.2l-9.7-4.1c-6.9-2.9-13.3-6.6-19.3-11l-8.4-6.2-9.1 5.2-21.1 12.1-29-50.1L376.5 378l9.1-5.2-1.1-10.4c-.4-3.5-.6-7-.6-10.6s.2-7.1 .6-10.6l1.1-10.4-9-5.2-21.1-12.2 28.9-50.1 21.1 12.2 9.1 5.2 8.4-6.2c5.9-4.4 12.4-8.1 19.3-11l9.7-4.1V248.6 222.4h56.1v26.4 10.5l9.7 4.2c6.8 2.9 13.2 6.6 19.1 11l8.4 6.2 9.1-5.2 21.2-12.2zM480 319.7a32 32 0 1 1 0 64 32 32 0 1 1 0-64zm0 80a48 48 0 1 0 0-96 48 48 0 1 0 0 96z"/></svg>