<svg xmlns="http://www.w3.org/2000/svg" viewBox="0 0 512 512"><!--! Font Awesome Pro 6.5.1 by @fontawesome - https://fontawesome.com License - https://fontawesome.com/license (Commercial License) Copyright 2023 Fonticons, Inc. --><path d="M96 416h16H496h16V400 112L400 0H176 160 112 96V16 400v16zM112 16h48V136v8h8H376h8v-8V16h9.4L496 118.6V400H112V16zM368 128H176V16H368V128zM240 272a64 64 0 1 1 128 0 64 64 0 1 1 -128 0zm144 0a80 80 0 1 0 -160 0 80 80 0 1 0 160 0zM16 96H0v16V496v16H16 400h16V496 448H400v48H16V112H64V96H16z"/></svg>