<svg xmlns="http://www.w3.org/2000/svg" viewBox="0 0 576 512"><!--! Font Awesome Pro 6.5.1 by @fontawesome - https://fontawesome.com License - https://fontawesome.com/license (Commercial License) Copyright 2023 Fonticons, Inc. --><path d="M16 480H0V464 48 32H16 336L448 144v48.7c-5.3-.5-10.6-.7-16-.7V150.6L329.4 48H320V184c0 4.4-3.6 8-8 8H72c-4.4 0-8-3.6-8-8V48H16V464H284.5c3.6 5.6 7.6 10.9 11.8 16H16zM224 240c25 0 47.6 10.5 63.7 27.3c-3.2 4.5-6.1 9.2-8.9 14C265.6 265.8 245.9 256 224 256c-39.8 0-72 32.2-72 72s32.2 72 72 72c12.1 0 23.6-3 33.6-8.3c.7 5.5 1.7 11 3 16.4c-11.1 5.1-23.5 7.9-36.6 7.9c-48.6 0-88-39.4-88-88s39.4-88 88-88zM80 48V176H304V48H80zM560 368a128 128 0 1 0 -256 0 128 128 0 1 0 256 0zm-272 0a144 144 0 1 1 288 0 144 144 0 1 1 -288 0zm205.7-50.3L443.3 368l50.3 50.3 5.7 5.7L488 435.3l-5.7-5.7L432 379.3l-50.3 50.3-5.7 5.7L364.7 424l5.7-5.7L420.7 368l-50.3-50.3-5.7-5.7L376 300.7l5.7 5.7L432 356.7l50.3-50.3 5.7-5.7L499.3 312l-5.7 5.7z"/></svg>