<svg xmlns="http://www.w3.org/2000/svg" viewBox="0 0 512 512"><!--! Font Awesome Pro 6.5.1 by @fontawesome - https://fontawesome.com License - https://fontawesome.com/license (Commercial License) Copyright 2023 Fonticons, Inc. --><path d="M128 28.8L179.5 70 192 80l10-12.5 43.8-54.7L256 0l10.2 12.8L310 67.5 320 80l12.5-10L384 28.8 400 16V36.5 128c0 70.7-57.3 128-128 128h-8V422.6C291.8 362 353 320 424 320h72 16v16c0 97.2-78.8 176-176 176H264 248 176C78.8 512 0 433.2 0 336V320H16 88c71 0 132.2 42 160 102.6V256h-8c-70.7 0-128-57.3-128-128V36.5 16l16 12.8zM204.5 90l-10 12.5L182 92.5 128 49.3V128c0 61.9 50.1 112 112 112h32c61.9 0 112-50.1 112-112V49.3L330 92.5l-12.5 10L307.5 90 256 25.6 204.5 90zM88 336H16c0 88.4 71.6 160 160 160h72c0-88.4-71.6-160-160-160zM264 496h72c88.4 0 160-71.6 160-160H424c-88.4 0-160 71.6-160 160z"/></svg>