<svg xmlns="http://www.w3.org/2000/svg" viewBox="0 0 448 512"><!--! Font Awesome Pro 6.5.1 by @fontawesome - https://fontawesome.com License - https://fontawesome.com/license (Commercial License) Copyright 2023 Fonticons, Inc. --><path d="M432 48V464H16V48H432zM16 32H0V48 464v16H16 432h16V464 48 32H432 16zM312 96c39.8 0 72 32.2 72 72s-32.2 72-72 72h-8v16h8c48.6 0 88-39.4 88-88s-39.4-88-88-88c-32.6 0-61 17.7-76.2 44l-4 6.9 13.8 8 4-6.9c12.5-21.5 35.7-36 62.4-36zM172.6 293.6l5.6-5.7-11.4-11.2-5.6 5.7C145.6 298.3 136 320 136 344c0 48.6 39.4 88 88 88s88-39.4 88-88c0-24-9.6-45.7-25.2-61.6l-5.6-5.7-11.4 11.2 5.6 5.7c12.7 13 20.6 30.8 20.6 50.4c0 39.8-32.2 72-72 72s-72-32.2-72-72c0-19.6 7.8-37.4 20.6-50.4zM128 148.7L116.7 160l5.7 5.7L216 259.3V352v8h16v-8V259.3l93.7-93.7 5.7-5.7L320 148.7l-5.7 5.7L224 244.7l-90.3-90.3-5.7-5.7zM198.5 132l4 6.9 13.8-8-4-6.9c-15.2-26.3-43.6-44-76.2-44c-48.6 0-88 39.4-88 88s39.4 88 88 88h8V240h-8c-39.8 0-72-32.2-72-72s32.2-72 72-72c26.6 0 49.9 14.5 62.4 36z"/></svg>