<svg xmlns="http://www.w3.org/2000/svg" viewBox="0 0 512 512"><!--! Font Awesome Pro 6.5.1 by @fontawesome - https://fontawesome.com License - https://fontawesome.com/license (Commercial License) Copyright 2023 Fonticons, Inc. --><path d="M224 32l48 64H496h16v16V464v16H496 16 0V464 48 32H16 224zm48 80h-8l-4.8-6.4L216 48H16V464H496V112H272zm-48 48h8 48 8v8 29.6c11 4.4 20.9 10.2 30.3 17.5l25.6-14.8 6.9-4 4 6.9 24 41.6 4 6.9-6.9 4-25.6 14.8c.9 5.6 1.6 11.5 1.6 17.5s-.7 11.9-1.6 17.5l25.6 14.8 6.9 4-4 6.9-24 41.6-4 6.9-6.9-4-25.6-14.8c-9.3 7.3-19.2 13.1-30.3 17.5V408v8h-8H232h-8v-8V378.4c-11-4.4-20.9-10.2-30.3-17.5l-25.6 14.8-6.9 4-4-6.9-24-41.6-4-6.9 6.9-4 25.6-14.8c-.9-5.6-1.6-11.5-1.6-17.5s.7-11.9 1.6-17.5l-25.6-14.8-6.9-4 4-6.9 24-41.6 4-6.9 6.9 4 25.6 14.8c9.3-7.3 19.2-13.1 30.3-17.5V168v-8zm16 16v27.1 5.7l-5.3 1.9c-13.1 4.6-24.3 11.1-34.9 20.2l-4.3 3.7-4.9-2.8L167 218.1l-16 27.7 23.5 13.6 4.9 2.8-1 5.6c-1.3 7.1-2.4 13.7-2.4 20.2s1 13.1 2.4 20.2l1 5.6-4.9 2.8L151 330.1l16 27.7 23.5-13.6 4.9-2.8 4.3 3.7c10.6 9.1 21.8 15.6 34.9 20.2l5.3 1.9v5.7V400h32V372.9v-5.7l5.3-1.9c13.2-4.6 24.3-11.1 34.9-20.2l4.3-3.7 4.9 2.8L345 357.9l16-27.7-23.5-13.6-4.9-2.8 1-5.6c1.3-7.1 2.4-13.7 2.4-20.2s-1-13.1-2.4-20.2l-1-5.6 4.9-2.8L361 245.9l-16-27.7-23.5 13.6-4.9 2.8-4.3-3.7c-10.6-9.1-21.8-15.6-34.9-20.2l-5.3-1.9v-5.7V176H240zm16 136a24 24 0 1 0 0-48 24 24 0 1 0 0 48zm0-64a40 40 0 1 1 0 80 40 40 0 1 1 0-80z"/></svg>