<svg xmlns="http://www.w3.org/2000/svg" viewBox="0 0 512 512"><!--! Font Awesome Pro 6.5.1 by @fontawesome - https://fontawesome.com License - https://fontawesome.com/license (Commercial License) Copyright 2023 Fonticons, Inc. --><path d="M224 32l48 64H496h16v16V464v16H496 16 0V464 48 32H16 224zm48 80h-8l-4.8-6.4L216 48H16V464H496V112H272zm-86.2 94.5l5.7 5.7L256 276.7l64.6-64.6 5.7-5.7 11.3 11.3-5.7 5.7L267.3 288l64.6 64.6 5.7 5.7-11.3 11.3-5.7-5.7L256 299.3l-64.6 64.6-5.7 5.7-11.3-11.3 5.7-5.7L244.7 288l-64.6-64.6-5.7-5.7 11.3-11.3z"/></svg>