<svg xmlns="http://www.w3.org/2000/svg" viewBox="0 0 512 512"><!--! Font Awesome Pro 6.5.1 by @fontawesome - https://fontawesome.com License - https://fontawesome.com/license (Commercial License) Copyright 2023 Fonticons, Inc. --><path d="M224 32l48 64H496h16v16V464v16H496 16 0V464 48 32H16 224zm48 80h-8l-4.8-6.4L216 48H16V464H496V112H272zM96 256v64h64V256H96zM80 240H96h64 16v16 64 16H160 96 80V320 256 240zm144 16v64h64V256H224zm-16-16h16 64 16v16 64 16H288 224 208V320 256 240zm208 16H352v64h64V256zm-64-16h64 16v16 64 16H416 352 336V320 256 240h16z"/></svg>