<svg xmlns="http://www.w3.org/2000/svg" viewBox="0 0 512 512"><!--! Font Awesome Pro 6.5.1 by @fontawesome - https://fontawesome.com License - https://fontawesome.com/license (Commercial License) Copyright 2023 Fonticons, Inc. --><path d="M224 32l48 64H496h16v16V464v16H496 16 0V464 48 32H16 224zm48 80h-8l-4.8-6.4L216 48H16V464H496V112H272zm80 68.5V192 344c0 22.1-21.5 40-48 40s-48-17.9-48-40s21.5-40 48-40c12.3 0 23.5 3.9 32 10.2V203.5l-112 42V376c0 22.1-21.5 40-48 40s-48-17.9-48-40s21.5-40 48-40c12.3 0 23.5 3.9 32 10.2V240v-5.5l5.2-1.9 128-48 10.8-4.1zM304 320c-20.5 0-32 13.4-32 24s11.5 24 32 24s32-13.4 32-24s-11.5-24-32-24zM176 352c-20.5 0-32 13.4-32 24s11.5 24 32 24s32-13.4 32-24s-11.5-24-32-24z"/></svg>