<svg xmlns="http://www.w3.org/2000/svg" viewBox="0 0 576 512"><!--! Font Awesome Pro 6.5.1 by @fontawesome - https://fontawesome.com License - https://fontawesome.com/license (Commercial License) Copyright 2023 Fonticons, Inc. --><path d="M0 0V128 416v8H8 256V408H16V136H256V120H16V0H0zM433.4 48H440 560V208H304V16h97.4l27.3 27.3 4.7 4.7zM560 32H440L408 0H304 288V16 208v16h16H560h16V208 48 32H560zM433.4 336H440 560V496H304V304h97.4l27.3 27.3 4.7 4.7zM560 320H440l-32-32H304 288v16V496v16h16H560h16V496 336 320H560z"/></svg>