<svg xmlns="http://www.w3.org/2000/svg" viewBox="0 0 512 512"><!--! Font Awesome Pro 6.5.1 by @fontawesome - https://fontawesome.com License - https://fontawesome.com/license (Commercial License) Copyright 2023 Fonticons, Inc. --><path d="M224 32l48 64H496h16v16V464v16H496 16 0V464 48 32H16 224zm48 80h-8l-4.8-6.4L216 48H16V464H496V112H272zM240 352a80 80 0 1 0 0-160 80 80 0 1 0 0 160zm0 16c-53 0-96-43-96-96s43-96 96-96s96 43 96 96c0 23.7-8.6 45.3-22.8 62.1l44.4 44.4 5.7 5.7L352 395.5l-5.7-5.7-44.4-44.4C285.2 359.5 263.6 368 240 368z"/></svg>