<svg xmlns="http://www.w3.org/2000/svg" viewBox="0 0 512 512"><!--! Font Awesome Pro 6.5.1 by @fontawesome - https://fontawesome.com License - https://fontawesome.com/license (Commercial License) Copyright 2023 Fonticons, Inc. --><path d="M224 32l48 64H496h16v16V464v16H496 16 0V464 48 32H16 224zm48 80h-8l-4.8-6.4L216 48H16V464H496V112H272zM88 208a40 40 0 1 1 80 0 40 40 0 1 1 -80 0zm40 24a24 24 0 1 0 0-48 24 24 0 1 0 0 48zm168-30.2l6.6 9.7 120 176 1.4 2V392v16 8h-8H96 88v-8V392v-2.7l1.6-2.1 72-96 6.1-8.1 6.5 7.8 33.2 39.9 82-119.3 6.6-9.6zm-.1 28.3L214.6 348.5l-6 8.7-6.8-8.1-33.5-40.2L104 394.7V400H408v-5.5L296 230.2z"/></svg>