<svg xmlns="http://www.w3.org/2000/svg" viewBox="0 0 512 512"><!--! Font Awesome Pro 6.5.1 by @fontawesome - https://fontawesome.com License - https://fontawesome.com/license (Commercial License) Copyright 2023 Fonticons, Inc. --><path d="M224 32l48 64H496h16v16V464v16H496 16 0V464 48 32H16 224zm48 80h-8l-4.8-6.4L216 48H16V464H496V112H272zm-23.7 97.2l7.7 7.4 7.7-7.4c11.5-11 26.8-17.2 42.7-17.2h2.4c32.7 0 59.2 26.5 59.2 59.2c0 16.1-6.6 31.5-18.2 42.7l-82.8 79.6L256 384.1l-11.1-10.7-82.8-79.6c-11.6-11.2-18.2-26.6-18.2-42.7c0-32.7 26.5-59.2 59.2-59.2h2.4c15.9 0 31.2 6.2 42.7 17.2zm-3.4 18.9l-7.7-7.4c-8.5-8.2-19.8-12.7-31.6-12.7h-2.4c-23.9 0-43.2 19.3-43.2 43.2c0 11.7 4.8 23 13.2 31.1L256 361.9l82.8-79.6c8.5-8.1 13.2-19.4 13.2-31.1c0-23.9-19.3-43.2-43.2-43.2h-2.4c-11.8 0-23.1 4.6-31.6 12.7l-7.7 7.4L256 238.8l-11.1-10.7z"/></svg>