<svg xmlns="http://www.w3.org/2000/svg" viewBox="0 0 512 512"><!--! Font Awesome Pro 6.5.1 by @fontawesome - https://fontawesome.com License - https://fontawesome.com/license (Commercial License) Copyright 2023 Fonticons, Inc. --><path d="M484.2 34.6l-8.6 13.5-8.6 13.5L419 137.2l-8.6 13.5-8.6 13.5-13.5-8.6-7.3-4.7L353.6 192H334.4l33.1-49.7-6.2-3.9-13.5-8.6 8.6-13.5 8.6-13.5 48.1-75.5 8.6-13.5L430.2 .3l13.5 8.6 27 17.2 13.5 8.6zM261.6 152.5L248.4 192H231.6l14.6-43.7-6-1.6-15.4-4.2 4.2-15.4 4.2-15.4 21.6-79.3L259 16.8l4.2-15.4 15.4 4.2L309.5 14l15.4 4.2-4.2 15.4-4.2 15.4-21.6 79.3-4.2 15.4-4.2 15.4L271 155.1l-9.4-2.6zm-17.2-21.3l30.9 8.4 4.2-15.4 21.6-79.3 4.2-15.4-30.9-8.4-4.2 15.4-21.6 79.3-4.2 15.4zM462.2 39.6l-27-17.2-8.6 13.5-48.1 75.5-8.6 13.5 27 17.2 8.6-13.5 48.1-75.5 8.6-13.5zM16 240v80c0 79.5 64.5 144 144 144H288c79.5 0 144-64.5 144-144V240h-8H168v56 16H152 136 120V296 272H104v56 16H88 72 56V328 240H16zm0-16H56 72h80 16H424h8 16 56 8v16h-8H448v80c0 52.3-25.1 98.8-64 128v56 8H368v-8V458.6c-23.5 13.6-50.9 21.4-80 21.4H160c-29.1 0-56.5-7.8-80-21.4V504v8H64v-8V448C25.1 418.8 0 372.3 0 320V240 224H16zm56 32v56 16H88V312 272 256h16 16 16v16 8 16h16V280 256 240H136 88 72v16z"/></svg>