<svg xmlns="http://www.w3.org/2000/svg" viewBox="0 0 640 512"><!--! Font Awesome Pro 6.5.1 by @fontawesome - https://fontawesome.com License - https://fontawesome.com/license (Commercial License) Copyright 2023 Fonticons, Inc. --><path d="M168.5 37.2l1.9-5.2h11.1l1.9 5.2L348.4 480H331.3L283.7 352H68.3L20.7 480H3.6L168.5 37.2zM74.3 336H277.7L176 62.9 74.3 336zM640 168V276v88V472v8H624v-8V422.8C603.8 457 566.6 480 524 480c-64.1 0-116-51.9-116-116V276c0-64.1 51.9-116 116-116c42.6 0 79.8 23 100 57.2V168v-8h16v8zm-116 8c-55.2 0-100 44.8-100 100v88c0 55.2 44.8 100 100 100s100-44.8 100-100V276c0-55.2-44.8-100-100-100z"/></svg>