<svg xmlns="http://www.w3.org/2000/svg" viewBox="0 0 448 512"><!--! Font Awesome Pro 6.5.1 by @fontawesome - https://fontawesome.com License - https://fontawesome.com/license (Commercial License) Copyright 2023 Fonticons, Inc. --><path d="M32 32v8V80c25.6 0 51.1-4.1 75.4-12.2L142.7 56c15.9-5.3 32.5-8 49.3-8s33.4 2.7 49.3 8L288 71.6c16.8 5.6 34.3 8.4 52 8.4s35.3-2.9 52-8.4l45.4-15.1L448 52.9V64l0 152 0 16 0 144v5.8l-5.5 1.8-45.4 15.1c-18.4 6.1-37.7 9.3-57.1 9.3s-38.7-3.1-57.1-9.3l-46.7-15.6C222 378.4 207 376 192 376s-30 2.4-44.2 7.2L112 395.1V378.2L142.7 368c15.9-5.3 32.5-8 49.3-8s33.4 2.7 49.3 8L288 383.6c16.8 5.6 34.3 8.4 52 8.4s35.3-2.9 52-8.4l40-13.3L432 232l0-16 0-140.9L397.1 86.7C378.7 92.9 359.4 96 340 96s-38.7-3.1-57.1-9.3L236.2 71.2C222 66.4 207 64 192 64s-30 2.4-44.2 7.2L112.5 82.9C86.5 91.6 59.4 96 32 96V472v8H16v-8V40 32H32z"/></svg>