<svg xmlns="http://www.w3.org/2000/svg" viewBox="0 0 512 512"><!--! Font Awesome Pro 6.5.1 by @fontawesome - https://fontawesome.com License - https://fontawesome.com/license (Commercial License) Copyright 2023 Fonticons, Inc. --><path d="M329.6 246.8l164.6-20.6-.1-.6c-.6-5.1-1.5-10.2-2.4-15.2C470.4 99.7 373 16 256 16C123.5 16 16 123.5 16 256c0 61.5 23.1 117.5 61.1 160H112l99.5 42.6c8.3 3.5 17.2 5.4 26.1 5.4c36.7 0 66.4-29.7 66.4-66.4v-1.3c0-8.1-1.5-16.2-4.3-23.8L286 336h46l12.1 57.5 16 95.8 1.1 6.7H368 504h8v-8V392 328v-8h-8H345l-15.4-73.2zm-15.9 2l15 71.2H280l-18.2-48.6L256 256l16.3-2 41.4-5.2zM84.4 400C51.7 361.1 32 310.8 32 256C32 132.3 132.3 32 256 32c108.8 0 199.5 77.6 219.8 180.4L254 240.1l-20.1 2.5 7.1 19 43.7 116.5c2.2 5.8 3.3 12 3.3 18.2v1.3c0 27.8-22.6 50.4-50.4 50.4c-6.8 0-13.6-1.4-19.8-4.1l-99.5-42.6-3-1.3H112 84.4zM176 320a16 16 0 1 1 0 32 16 16 0 1 1 0-32zm0 48a32 32 0 1 0 0-64 32 32 0 1 0 0 64zm320 16H358.5l-10.1-48H496v48zM374.8 480l-13.3-80H496v80H374.8z"/></svg>