<svg xmlns="http://www.w3.org/2000/svg" viewBox="0 0 640 512"><!--! Font Awesome Pro 6.5.1 by @fontawesome - https://fontawesome.com License - https://fontawesome.com/license (Commercial License) Copyright 2023 Fonticons, Inc. --><path d="M136 0h-8V8 128v8h16v-8V16H283.1L392.9 227.7l3.7 7.1 14.2-7.4-3.7-7.1-112-216L292.9 0H288 136zM96 336a80 80 0 1 1 0 160 80 80 0 1 1 0-160zm0 176c53 0 96-43 96-96h64c0 53 43 96 96 96s96-43 96-96c0-28.4-12.4-54-32-71.6V272 256H400 264L144 160H16 0v16V400v16c0 53 43 96 96 96zm0-192c-33.4 0-62.8 17-80 42.9V176H138.4L254 268.5l4.4 3.5H264 400v60.8c-14.1-8.2-30.5-12.8-48-12.8c-47.6 0-87.1 34.6-94.7 80H190.7c-7.6-45.4-47.1-80-94.7-80zm256 16a80 80 0 1 1 0 160 80 80 0 1 1 0-160zM496 8V0H480V8 440v8h8H632h8V432h-8H496V8z"/></svg>