<svg xmlns="http://www.w3.org/2000/svg" viewBox="0 0 640 512"><!--! Font Awesome Pro 6.5.1 by @fontawesome - https://fontawesome.com License - https://fontawesome.com/license (Commercial License) Copyright 2023 Fonticons, Inc. --><path d="M176 72H160 144 128V56 16H96V56 72H80 64 48V56 16H16V56v72 48H208V128 56 16H176V56 72zM48 0H64V16 40 56H80V40 16 0H96h32 16V16 40 56h16V40 16 0h16 32 16V16 56v72 48 16H208 192v16H448V192H432 416V176 128 56 16 0h16 32 16V16 40 56h16V40 16 0h16 32 16V16 40 56h16V40 16 0h16 32 16V16 56v72 48 16H624 608V504v8h-8H400 384 256 240 40 32v-8V192H16 0V176 128 56 16 0H16 48zM448 224H192V496h48V392c0-44.2 35.8-80 80-80s80 35.8 80 80V496h48V224zM176 192H48V496H176V192zm96 304h96 16V480 392c0-35.3-28.7-64-64-64s-64 28.7-64 64v88 16h16zm320 0V192H464V496H592zM464 72V56 16H432V56v72 48H624V128 56 16H592V56 72H576 560 544V56 16H512V56 72H496 480 464z"/></svg>