<svg xmlns="http://www.w3.org/2000/svg" viewBox="0 0 384 512"><!--! Font Awesome Pro 6.5.1 by @fontawesome - https://fontawesome.com License - https://fontawesome.com/license (Commercial License) Copyright 2023 Fonticons, Inc. --><path d="M144 4.2l11 4.4 80 32 5 2V48 272H224V53.4L160 27.8V272H144V16 4.2zM301.8 205.6l-19.7 28.1L317.7 66.2 272 75.4V59l54.4-10.9 11.9-2.4-2.5 11.9L305.6 200.2l-3.8 5.4zM348.6 192l19.5-97.6 1.6-7.8 15.7 3.1-1.6 7.8L365 192H348.6zM19 192L.2 97.6l-1.6-7.8 15.7-3.1 1.6 7.8L35.4 192H19zm63.2 13.6l-1-1.4L56.1 49.3l-.9-5.8 5.3-2.6L112 15.1V32.9L72.8 52.5l29.5 181.9L82.2 205.6zM64 224l48 80H272l48-80h47.6H384l-3.6 16L320 512H64L3.6 240 0 224H16.4 64zm221.7 88.2l-4.7 7.8H272 112h-9.1l-4.7-7.8L54.9 240h-35L76.8 496H307.2l56.9-256h-35l-43.3 72.2z"/></svg>