<svg xmlns="http://www.w3.org/2000/svg" viewBox="0 0 576 512"><!--! Font Awesome Pro 6.5.1 by @fontawesome - https://fontawesome.com License - https://fontawesome.com/license (Commercial License) Copyright 2023 Fonticons, Inc. --><path d="M560 16V336H16V16H560zM16 0H0V16 336v16H16 560h16V336 16 0H560 16zM80 432v64H16V432H80zM16 416H0v16 64 16H16 80 96V496 432 416H80 16zm160 16h64v64H176V432zm-16-16v16 64 16h16 64 16V496 432 416H240 176 160zm240 16v64H336V432h64zm-64-16H320v16 64 16h16 64 16V496 432 416H400 336zm160 16h64v64H496V432zm-16-16v16 64 16h16 64 16V496 432 416H560 496 480z"/></svg>