<svg xmlns="http://www.w3.org/2000/svg" viewBox="0 0 448 512"><!--! Font Awesome Pro 6.5.1 by @fontawesome - https://fontawesome.com License - https://fontawesome.com/license (Commercial License) Copyright 2023 Fonticons, Inc. --><path d="M16 48V464H432V48H16zM0 32H16 432h16V48 464v16H432 16 0V464 48 32zM136 96v56h80V96 88h16v8 56h80V96 88h16v8 56h56 8v16h-8H328v80h56 8v16h-8H328v80h56 8v16h-8H328v56 8H312v-8V360H232v56 8H216v-8V360H136v56 8H120v-8V360H64 56V344h8 56V264H64 56V248h8 56V168H64 56V152h8 56V96 88h16v8zm0 152h80V168H136v80zm96 0h80V168H232v80zm0 16v80h80V264H232zm-16 0H136v80h80V264z"/></svg>