<svg xmlns="http://www.w3.org/2000/svg" viewBox="0 0 640 512"><!--! Font Awesome Pro 6.5.1 by @fontawesome - https://fontawesome.com License - https://fontawesome.com/license (Commercial License) Copyright 2023 Fonticons, Inc. --><path d="M440 480l-16-96H216l-16 96H16.1 0l1.8-16 41-368L160 32H320 480L597.2 96l41 368 1.8 16H623.9 440zM200.2 381.4l2.2-13.4H216 424h13.6l2.2 13.4L453.6 464H622.1L582.2 106.1 475.9 48H320 164.1L57.8 106.1 17.9 464H186.4l13.8-82.6zM200 160v56h56 8v16h-8H200v56 8H184v-8V232H128h-8V216h8 56V160v-8h16v8zM392 272a40 40 0 1 1 80 0 40 40 0 1 1 -80 0zm40 24a24 24 0 1 0 0-48 24 24 0 1 0 0 48zm64-160a40 40 0 1 1 0 80 40 40 0 1 1 0-80zm24 40a24 24 0 1 0 -48 0 24 24 0 1 0 48 0z"/></svg>