<svg xmlns="http://www.w3.org/2000/svg" viewBox="0 0 576 512"><!--! Font Awesome Pro 6.5.1 by @fontawesome - https://fontawesome.com License - https://fontawesome.com/license (Commercial License) Copyright 2023 Fonticons, Inc. --><path d="M432 48V272v16V464H16V48H432zm16 416V288h40 8v-8V208h71.9 8v-8V136v-8h-8H488h-8v8 64 72H448V48 32H432 16 0V48 464v16H16 432h16V464zM368 112V256H80V112H368zM80 96H64v16V256v16H80 368h16V256 112 96H368 80zm32 224h-8v8 32H72 64v8 8h8 32v32 8h8 8v-8V376h32 8v-8-8h-8H120V328v-8h-8zm128 48a16 16 0 1 1 0-32 16 16 0 1 1 0 32zm-32-16a32 32 0 1 0 64 0 32 32 0 1 0 -64 0zm128 0a16 16 0 1 1 -32 0 16 16 0 1 1 32 0zm-16-32a32 32 0 1 0 0 64 32 32 0 1 0 0-64zM496 192V144h63.9v48H496z"/></svg>