<svg xmlns="http://www.w3.org/2000/svg" viewBox="0 0 384 512"><!--! Font Awesome Pro 6.5.1 by @fontawesome - https://fontawesome.com License - https://fontawesome.com/license (Commercial License) Copyright 2023 Fonticons, Inc. --><path d="M16 16V496H368V16H16zM0 0H16 368h16V16 496v16H368 16 0V496 16 0zM80 80V240H304V80H80zM64 64H80 304h16V80 240v16H304 80 64V240 80 64zM232 344a16 16 0 1 0 0 32 16 16 0 1 0 0-32zm32 16a32 32 0 1 1 -64 0 32 32 0 1 1 64 0zm16-48a16 16 0 1 0 32 0 16 16 0 1 0 -32 0zm16 32a32 32 0 1 1 0-64 32 32 0 1 1 0 64zM104 288h16v40h40v16H120v40H104V344H64V328h40V288z"/></svg>