<svg xmlns="http://www.w3.org/2000/svg" viewBox="0 0 640 512"><!--! Font Awesome Pro 6.5.1 by @fontawesome - https://fontawesome.com License - https://fontawesome.com/license (Commercial License) Copyright 2023 Fonticons, Inc. --><path d="M322.9 8.5L320 7.4l-2.9 1.1-312 120-5.1 2V136 504v8H16v-8V141.5L320 24.6 624 141.5V504v8h16v-8V136v-5.5l-5.1-2-312-120zM104 192H96v8V504v8h16v-8V208H528V504v8h16v-8V200v-8h-8H104zm121.3 48h5.8H408.9h5.8l1.8 5.5L445.8 336H472h8v8V504v8H464v-8V464H176v40 8H160v-8V344v-8h8 26.2l29.3-90.5 1.8-5.5zM176 448H464V352H176v96zM403.1 256H236.9L211 336H429l-25.9-80zM208 400a16 16 0 1 1 32 0 16 16 0 1 1 -32 0zm208-16a16 16 0 1 1 0 32 16 16 0 1 1 0-32z"/></svg>