<svg xmlns="http://www.w3.org/2000/svg" viewBox="0 0 640 512"><!--! Font Awesome Pro 6.5.1 by @fontawesome - https://fontawesome.com License - https://fontawesome.com/license (Commercial License) Copyright 2023 Fonticons, Inc. --><path d="M322.9 8.5L320 7.4l-2.9 1.1-312 120-5.1 2V136 504v8H16v-8V141.5L320 24.6 624 141.5V504v8h16v-8V136v-5.5l-5.1-2-312-120zM104 192H96v8V504v8h16v-8V288H528V504v8h16v-8V200v-8h-8H104zm424 80H112V208H528v64zM199.4 320l-5.2 16H168h-8v8V504v8h16v-8V464H464v40 8h16v-8V344v-8h-8H445.8l-5.2-16H423.8l5.2 16H211l5.2-16H199.4zM176 352H464v96H176V352zm48 64a16 16 0 1 0 0-32 16 16 0 1 0 0 32zm208-16a16 16 0 1 0 -32 0 16 16 0 1 0 32 0z"/></svg>