<svg xmlns="http://www.w3.org/2000/svg" viewBox="0 0 640 512"><!--! Font Awesome Pro 6.5.1 by @fontawesome - https://fontawesome.com License - https://fontawesome.com/license (Commercial License) Copyright 2023 Fonticons, Inc. --><path d="M576 128v-3.5l-2.6-2.4-96-88-5.9-5.4L460.7 40.5l5.9 5.4 29.4 27V168c0 30.9 25.1 56 56 56h8V363.9l16 12.6V128zM384 388.1l-16-12.6V416H112V173.3L96 160.7V496l-32 0v16H96h16H368h16 32V496l-32 0V388.1zM384 225V16 0H368 112 99l20.3 16H368V212.4L384 225zM368 432v64H112V432H368zM560 208h-8c-22.1 0-40-17.9-40-40V87.5l48 44V208zM16.2 5L9.9 0 0 12.5l6.3 5L623.8 507l6.3 5 9.9-12.5-6.3-5L16.2 5z"/></svg>