<svg xmlns="http://www.w3.org/2000/svg" viewBox="0 0 512 512"><!--! Font Awesome Pro 6.5.1 by @fontawesome - https://fontawesome.com License - https://fontawesome.com/license (Commercial License) Copyright 2023 Fonticons, Inc. --><path d="M304 16H48V416H304V16zM48 496H304V432H48v64zm304 16H320 304 48 32 0V496H32V16 0H48 304h16V16 272h8c39.8 0 72 32.2 72 72v40c0 26.5 21.5 48 48 48s48-21.5 48-48V224h-8c-30.9 0-56-25.1-56-56V72.9l-29.4-27-5.9-5.4 10.8-11.8 5.9 5.4 96 88 2.6 2.4V128 384c0 35.3-28.7 64-64 64s-64-28.7-64-64V344c0-30.9-25.1-56-56-56h-8V496h32v16zM496 131.5l-48-44V168c0 22.1 17.9 40 40 40h8V131.5zM112 80V208H240V80H112zM96 64h16H240h16V80 208v16H240 112 96V208 80 64z"/></svg>