<svg xmlns="http://www.w3.org/2000/svg" viewBox="0 0 576 512"><!--! Font Awesome Pro 6.5.1 by @fontawesome - https://fontawesome.com License - https://fontawesome.com/license (Commercial License) Copyright 2023 Fonticons, Inc. --><path d="M560 48V464H16V48H560zM16 32H0V48 464v16H16 560h16V464 48 32H560 16zM304 160H288v8V344v8h16v-8V168v-8zm64 0v8 96 80 8h16v-8V272h80 8V256h-8H384V176h96 8V160h-8H376h-8zM96 256c0-44.2 35.8-80 80-80c19.3 0 37.1 6.9 50.9 18.3l6.2 5.1L243.3 187l-6.2-5.1C220.5 168.2 199.2 160 176 160c-53 0-96 43-96 96s43 96 96 96c23.2 0 44.5-8.2 61.1-21.9l2.9-2.4v-3.8V256v-8h-8H160h-8v16h8 64v56c-13.4 10-30 16-48 16c-44.2 0-80-35.8-80-80z"/></svg>