<svg xmlns="http://www.w3.org/2000/svg" viewBox="0 0 576 512"><!--! Font Awesome Pro 6.5.1 by @fontawesome - https://fontawesome.com License - https://fontawesome.com/license (Commercial License) Copyright 2023 Fonticons, Inc. --><path d="M405.1 16c-20.3 0-39.2 10.5-50 27.7L302.4 128H328h80c30.9 0 56-25.1 56-56s-25.1-56-56-56h-2.9zM273.6 128L220.9 43.7C210.1 26.5 191.2 16 170.9 16H168c-30.9 0-56 25.1-56 56s25.1 56 56 56h80 25.6zm14.4-7.1l53.6-85.7C355.3 13.3 379.3 0 405.1 0H408c39.8 0 72 32.2 72 72c0 22.6-10.4 42.8-26.7 56H560h16v16V496v16H560 16 0V496 144 128H16 122.7C106.4 114.8 96 94.6 96 72c0-39.8 32.2-72 72-72h2.9c25.8 0 49.8 13.3 63.5 35.2L288 120.9zM168 144H16V288H560V144H408 328 305.1l69.1 82.9 5.1 6.1L367 243.3l-5.1-6.1L288 148.5l-73.9 88.6-5.1 6.1L196.7 233l5.1-6.1L270.9 144H248 168zM16 304v96H560V304H16zM560 496V416H16v80H560z"/></svg>