<svg xmlns="http://www.w3.org/2000/svg" viewBox="0 0 512 512"><!--! Font Awesome Pro 6.5.1 by @fontawesome - https://fontawesome.com License - https://fontawesome.com/license (Commercial License) Copyright 2023 Fonticons, Inc. --><path d="M373.1 16c-20.3 0-39.2 10.5-50 27.7L270.4 128H296h80c30.9 0 56-25.1 56-56s-25.1-56-56-56h-2.9zM241.6 128L188.9 43.7C178.1 26.5 159.2 16 138.9 16H136c-30.9 0-56 25.1-56 56s25.1 56 56 56h80 25.6zm14.4-7.1l53.6-85.7C323.3 13.3 347.3 0 373.1 0H376c39.8 0 72 32.2 72 72c0 22.6-10.4 42.8-26.7 56H496h16v16 96 16H496 480V496v16H464 48 32V496 256H16 0V240 144 128H16 90.7C74.4 114.8 64 94.6 64 72C64 32.2 96.2 0 136 0h2.9c25.8 0 49.8 13.3 63.5 35.2L256 120.9zM136 144H16v96H32 48 248V144H216 136zm128 0v96H464h16 16V144H376 296 264zM248 256H48V496H248V256zm16 240H464V256H264V496z"/></svg>