<svg xmlns="http://www.w3.org/2000/svg" viewBox="0 0 640 512"><!--! Font Awesome Pro 6.5.1 by @fontawesome - https://fontawesome.com License - https://fontawesome.com/license (Commercial License) Copyright 2023 Fonticons, Inc. --><path d="M111.4 4.9c-1.7-4.1-6.4-6-10.5-4.3s-6 6.4-4.3 10.5l30.5 73.1-82.9-51c-3.8-2.3-8.7-1.1-11 2.6s-1.1 8.7 2.6 11L115.7 96H8 0v8V504v8H8 184h8V496h-8H16V112H144h0H248h8V96h-8H172.3l79.9-49.2c3.8-2.3 4.9-7.2 2.6-11s-7.2-4.9-11-2.6L161.6 83.8l31.8-72.6c1.8-4-.1-8.8-4.1-10.5s-8.8 .1-10.5 4.1L144.2 83.6 111.4 4.9zM368.1 159.7L417.6 224H392 336c-22.1 0-40-17.9-40-40c0-22.1 18-40 40.2-40c12.5 0 24.4 5.8 32 15.7zM280 184c0 15.7 6.4 29.8 16.8 40H240 224v16V496v16h16H624h16V496 240 224H624 567.2c10.4-10.2 16.8-24.3 16.8-40c0-31-25.3-56-56.2-56c-17.4 0-34 8.1-44.7 22L432 216.5 380.8 150c-10.7-13.9-27.2-22-44.7-22c-30.9 0-56.2 25-56.2 56zm-40 56h96 56 32V352H240V240zm0 128H424V496H240V368zm384 0V496H440V368H624zM440 352V240h32 56 96V352H440zm32-128H446.4l49.5-64.3c7.6-9.9 19.5-15.7 32-15.7c22.1 0 40.2 17.9 40.2 40c0 22.1-17.9 40-40 40H472z"/></svg>