<svg xmlns="http://www.w3.org/2000/svg" viewBox="0 0 448 512"><!--! Font Awesome Pro 6.5.1 by @fontawesome - https://fontawesome.com License - https://fontawesome.com/license (Commercial License) Copyright 2023 Fonticons, Inc. --><path d="M224 0C166.6 0 120 46.6 120 104c0 20.6 6 39.8 16.4 56H88 24 16v8V296v8h8H88h32v9.5L34 410.7 32 413v3 88 8h8 92.8 3.6l2.4-2.7L214.4 424h19.2l75.6 85.3 2.4 2.7h3.6H408h8v-8V416v-3l-2-2.3-86-97.2V304h32 64 8v-8V168v-8h-8H360 311.6C322 143.8 328 124.6 328 104C328 46.6 281.4 0 224 0zM136 104c0-48.6 39.4-88 88-88s88 39.4 88 88c0 22.5-8.5 43.1-22.4 58.7L277.7 176h17.9H360h56V288H360 320h-8v8 20.5 3l2 2.3L400 419v77H318.8l-75.6-85.3-2.4-2.7h-3.6H210.8h-3.6l-2.4 2.7L129.2 496H48V419l86-97.2 2-2.3v-3V296v-8h-8H88 32V176H88h64.4 17.9l-11.9-13.3C144.5 147.1 136 126.5 136 104zm56 8a16 16 0 1 0 0-32 16 16 0 1 0 0 32zm32 128a16 16 0 1 0 0-32 16 16 0 1 0 0 32zM272 96a16 16 0 1 0 -32 0 16 16 0 1 0 32 0zM224 368a16 16 0 1 0 0-32 16 16 0 1 0 0 32zm16-80a16 16 0 1 0 -32 0 16 16 0 1 0 32 0z"/></svg>