<svg xmlns="http://www.w3.org/2000/svg" viewBox="0 0 576 512"><!--! Font Awesome Pro 6.5.1 by @fontawesome - https://fontawesome.com License - https://fontawesome.com/license (Commercial License) Copyright 2023 Fonticons, Inc. --><path d="M66.1 33.1l7.3 1.3 80 13.8 7.9 1.4-2.7 15.8-7.9-1.4L77.9 51.4 23.4 267.7C47.8 231.7 89.2 208 136 208c55.1 0 102.6 32.8 124 80H316c21.3-47.2 68.8-80 124-80c46.8 0 88.2 23.7 112.6 59.7L498.1 51.4 425.4 63.9l-7.9 1.4-2.7-15.8 7.9-1.4 80-13.8 7.3-1.3 1.8 7.2 64 253.8 .2 1v1 40 8c0 75.1-60.9 136-136 136s-136-60.9-136-136c0-13.9 2.1-27.4 6-40H266c3.9 12.6 6 26.1 6 40c0 75.1-60.9 136-136 136S0 419.1 0 344v0-8V296v-1l.2-1 64-253.8 1.8-7.2zM560 344a120 120 0 1 0 -240 0 120 120 0 1 0 240 0zM16 344c0 66.3 53.7 120 120 120s120-53.7 120-120s-53.7-120-120-120S16 277.7 16 344v0z"/></svg>