<svg xmlns="http://www.w3.org/2000/svg" viewBox="0 0 512 512"><!--! Font Awesome Pro 6.5.1 by @fontawesome - https://fontawesome.com License - https://fontawesome.com/license (Commercial License) Copyright 2023 Fonticons, Inc. --><path d="M496 144c0-70.7-57.3-128-128-128c-53.7 0-99.7 33.1-118.7 80H232.2C252 40.1 305.3 0 368 0c79.5 0 144 64.5 144 144s-64.5 144-144 144l-.5 0 1.7-16c70.2-.6 126.8-57.7 126.8-128zM54.4 496H297.6l23.3-224H31.1L54.4 496zM322.6 256l11.7-112H17.8L29.4 256H322.6zM312 512H40L1.7 144 0 128H16.1 335.9 352l-1.7 16L312 512z"/></svg>