<svg xmlns="http://www.w3.org/2000/svg" viewBox="0 0 448 512"><!--! Font Awesome Pro 6.5.1 by @fontawesome - https://fontawesome.com License - https://fontawesome.com/license (Commercial License) Copyright 2023 Fonticons, Inc. --><path d="M432 224c0 55.9-22 106.6-57.9 144h21.5c32.7-38.9 52.4-89.2 52.4-144C448 100.3 347.7 0 224 0S0 100.3 0 224c0 54.8 19.7 105.1 52.4 144H73.9C38 330.6 16 279.9 16 224C16 109.1 109.1 16 224 16s208 93.1 208 208zM256 80a16 16 0 1 0 -32 0 16 16 0 1 0 32 0zm-26.3 82.3l-5.7-5.7-5.7 5.7-72 72-5.7 5.7L152 251.3l5.7-5.7L216 187.3v41.4l-77.7 77.7-5.7 5.7L144 323.3l5.7-5.7L216 251.3V368h16V251.3l66.3 66.3 5.7 5.7L315.3 312l-5.7-5.7L232 228.7V187.3l58.3 58.3 5.7 5.7L307.3 240l-5.7-5.7-72-72zM18.4 512H429.6 448l-9.1-16L384 400H64L9.1 496 0 512H18.4zm356.3-96l45.7 80H27.6l45.7-80H374.7zM336 192a16 16 0 1 0 0-32 16 16 0 1 0 0 32zM96 240a16 16 0 1 0 -32 0 16 16 0 1 0 32 0z"/></svg>