<svg xmlns="http://www.w3.org/2000/svg" viewBox="0 0 640 512"><!--! Font Awesome Pro 6.5.1 by @fontawesome - https://fontawesome.com License - https://fontawesome.com/license (Commercial License) Copyright 2023 Fonticons, Inc. --><path d="M8 32H0v8V472c0 4.4 3.6 8 8 8s8-3.6 8-8V48H624V472v8h16v-8V40 32h-8H8zM160 96H144v64H64v16h80v96H64v16h80v96H64v16h80v80h16V400h96v80h16V400h96v80h16V400h96v80h16V400h80V384H496V288h80V272H496V176h80V160H496V96H480v64H384V96H368v64H272V96H256v64H160V96zm0 80h96v96H160V176zm112 0h96v96H272V176zm112 0h96v96H384V176zM160 384V288h96v96H160zm112 0V288h96v96H272zm112 0V288h96v96H384z"/></svg>