<svg xmlns="http://www.w3.org/2000/svg" viewBox="0 0 512 512"><!--! Font Awesome Pro 6.5.1 by @fontawesome - https://fontawesome.com License - https://fontawesome.com/license (Commercial License) Copyright 2023 Fonticons, Inc. --><path d="M128 3.4l11.4 5.3 240 112 15.5 7.2-15.5 7.2L144 245.1v69.4c33.8-6.7 71.8-10.5 112-10.5c141.4 0 256 46.6 256 104s-114.6 104-256 104S0 465.4 0 408c0-32.8 37.5-62.1 96-81.2v16.9c-5.2 1.8-10.2 3.7-15 5.6c-22 9-38.8 19.2-49.8 29.8C20.2 389.6 16 399.4 16 408s4.2 18.4 15.2 28.9c11 10.6 27.8 20.8 49.8 29.8C125 484.6 186.8 496 256 496s131-11.4 175-29.3c22-9 38.8-19.2 49.8-29.8c11-10.5 15.2-20.3 15.2-28.9s-4.2-18.4-15.2-28.9c-11-10.6-27.8-20.8-49.8-29.8C387 331.4 325.2 320 256 320c-40.6 0-78.6 3.9-112 10.8v50.7c17.2-12.9 46.6-21.5 80-21.5c53 0 96 21.5 96 48s-43 48-96 48c-47.6 0-87.1-17.3-94.7-40H128v-8V334.4 317.9 240 16 3.4zM144 408c0 3.9 3.6 11.8 19.3 19.6C178 435 199.4 440 224 440s46-5 60.7-12.4c15.7-7.8 19.3-15.7 19.3-19.6s-3.6-11.8-19.3-19.6C270 381 248.6 376 224 376s-46 5-60.7 12.4C147.6 396.2 144 404.1 144 408zm0-180.6L357.1 128 144 28.6V227.4z"/></svg>