<svg xmlns="http://www.w3.org/2000/svg" viewBox="0 0 384 512"><!--! Font Awesome Pro 6.5.1 by @fontawesome - https://fontawesome.com License - https://fontawesome.com/license (Commercial License) Copyright 2023 Fonticons, Inc. --><path d="M312.8 320c34-32.1 55.2-77.6 55.2-128c0-97.2-78.8-176-176-176S16 94.8 16 192c0 50.4 21.2 95.9 55.2 128H48.9C18.5 286 0 241.2 0 192C0 86 86 0 192 0S384 86 384 192c0 49.2-18.5 94-48.9 128H312.8zM56 352h8H320h8v8 24 5.1l-4.6 2.1L224 437.1V504v8H208v-8V432v-5.1l4.6-2.1L312 378.9V368H72v10.9l99.4 45.9 4.6 2.1V432v72 8H160v-8V437.1L60.6 391.3 56 389.1V384 360v-8zM224 176c0 22.1-17.9 40-40 40h-8V200h8c13.3 0 24-10.7 24-24v-8h16v8zm80 8v8c0 22.1-17.9 40-40 40h-8V216h8c13.3 0 24-10.7 24-24v-8h16zm-64 72c0 22.1-17.9 40-40 40h-8V280h8c13.3 0 24-10.7 24-24v-8h16v8z"/></svg>