<svg xmlns="http://www.w3.org/2000/svg" viewBox="0 0 512 512"><!--! Font Awesome Pro 6.5.1 by @fontawesome - https://fontawesome.com License - https://fontawesome.com/license (Commercial License) Copyright 2023 Fonticons, Inc. --><path d="M112 0V8 32h80V8 0h16V8 32h96V8 0h16V8 32h80V8 0h16V8 32 48 80v8 24h16 16v16 96h16 16v16V352h16 16v16V496v16H496 320 304 208 192 16 0V496 368 352H16 32V240 224H48 64V128 112H80 96V88 80 48 32 8 0h16zm96 496h96V464c0-26.5-21.5-48-48-48s-48 21.5-48 48v32zm112 0h80V368H384 304 288 224 208 128 112V496h80V464c0-35.3 28.7-64 64-64s64 28.7 64 64v32zM112 80v8 24H400V88 80 48H320 304 208 192 112V80zm304 48H400 352v96h32 16 32V128H416zm-240 0v96h48V192c0-17.7 14.3-32 32-32s32 14.3 32 32v32h48V128H176zm96 112H240 224 128V352h80V320c0-26.5 21.5-48 48-48s48 21.5 48 48v32h80V240H288 272zm0-48c0-8.8-7.2-16-16-16s-16 7.2-16 16v32h32V192zM160 224V128H112 96 80v96h32 16 32zM288 352V320c0-17.7-14.3-32-32-32s-32 14.3-32 32v32h64zM400 240V352h64V240H448 432 400zM80 240H64 48V352h64V240H80zM480 368H464 416V496h80V368H480zM96 496V368H48 32 16V496H96z"/></svg>