<svg xmlns="http://www.w3.org/2000/svg" viewBox="0 0 448 512"><!--! Font Awesome Pro 6.5.1 by @fontawesome - https://fontawesome.com License - https://fontawesome.com/license (Commercial License) Copyright 2023 Fonticons, Inc. --><path d="M16 48V464H432V48H16zM0 32H16 432h16V48 464v16H432 16 0V464 48 32zM72 96h80 72 72 80 8v8V256 408v8h-8H296 224 152 72 64v-8V256 104 96h8zm8 152h64V112H80V248zm80 0h56V112H160V248zm72 0h56V112H232V248zm72 0h64V112H304V248zm0 16V400h64V264H304zm-16 0H232V400h56V264zm-72 0H160V400h56V264zm-72 0H80V400h64V264z"/></svg>