<svg xmlns="http://www.w3.org/2000/svg" viewBox="0 0 576 512"><!--! Font Awesome Pro 6.5.1 by @fontawesome - https://fontawesome.com License - https://fontawesome.com/license (Commercial License) Copyright 2023 Fonticons, Inc. --><path d="M16 48H432V182.5l16-24.6V48 32H432 16 0V48 464v16H16 344.2c-3.4-5.1-6.5-10.5-9.3-16H16V48zM384 256V104 96h-8H296 224 152 72 64v8V256 408v8h8 80 72 72 24.9c-.6-5.3-.9-10.6-.9-16H304V264h64v16.8l16-24.6V256zM80 248V112h64V248H80zm80 0V112h56V248H160zm72 0V112h56V248H232zm72 0V112h64V248H304zm-16 16V400H232V264h56zm-72 0V400H160V264h56zm-72 0V400H80V264h64zm239.9 80.3l80.1-123 80.1 123c10.4 15.9 15.9 34.5 15.9 53.5V400c0 53-43 96-96 96s-96-43-96-96v-2.1c0-19 5.5-37.6 15.9-53.5zm-13.4-8.7c-12.1 18.5-18.5 40.2-18.5 62.3V400c0 61.9 50.1 112 112 112s112-50.1 112-112v-2.1c0-22.1-6.4-43.7-18.5-62.3l-84-128.9L464 192l-9.5 14.7-84 128.9z"/></svg>