<svg xmlns="http://www.w3.org/2000/svg" viewBox="0 0 448 512"><!--! Font Awesome Pro 6.5.1 by @fontawesome - https://fontawesome.com License - https://fontawesome.com/license (Commercial License) Copyright 2023 Fonticons, Inc. --><path d="M51.2 44.8V83.2H12.8V44.8H51.2zM12.8 32H0V44.8 83.2 96H12.8 51.2 64V83.2 44.8 32H51.2 12.8zM51.2 140.8v38.4H12.8V140.8H51.2zM12.8 128H0v12.8 38.4V192H12.8 51.2 64V179.2 140.8 128H51.2 12.8zm0 108.8H51.2v38.4H12.8V236.8zM0 224v12.8 38.4V288H12.8 51.2 64V275.2 236.8 224H51.2 12.8 0zM51.2 332.8v38.4H12.8V332.8H51.2zM12.8 320H0v12.8 38.4V384H12.8 51.2 64V371.2 332.8 320H51.2 12.8zm0 108.8H51.2v38.4H12.8V428.8zM0 416v12.8 38.4V480H12.8 51.2 64V467.2 428.8 416H51.2 12.8 0zM147.2 44.8V83.2H108.8V44.8h38.4zM108.8 32H96V44.8 83.2 96h12.8 38.4H160V83.2 44.8 32H147.2 108.8zm0 108.8h38.4v38.4H108.8V140.8zM96 128v12.8 38.4V192h12.8 38.4H160V179.2 140.8 128H147.2 108.8 96zm51.2 108.8v38.4H108.8V236.8h38.4zM108.8 224H96v12.8 38.4V288h12.8 38.4H160V275.2 236.8 224H147.2 108.8zm0 108.8h38.4v38.4H108.8V332.8zM96 320v12.8 38.4V384h12.8 38.4H160V371.2 332.8 320H147.2 108.8 96zm51.2 108.8v38.4H108.8V428.8h38.4zM108.8 416H96v12.8 38.4V480h12.8 38.4H160V467.2 428.8 416H147.2 108.8zm96-371.2h38.4V83.2H204.8V44.8zM192 32V44.8 83.2 96h12.8 38.4H256V83.2 44.8 32H243.2 204.8 192zm51.2 108.8v38.4H204.8V140.8h38.4zM204.8 128H192v12.8 38.4V192h12.8 38.4H256V179.2 140.8 128H243.2 204.8zm0 108.8h38.4v38.4H204.8V236.8zM192 224v12.8 38.4V288h12.8 38.4H256V275.2 236.8 224H243.2 204.8 192zm51.2 108.8v38.4H204.8V332.8h38.4zM204.8 320H192v12.8 38.4V384h12.8 38.4H256V371.2 332.8 320H243.2 204.8zm0 108.8h38.4v38.4H204.8V428.8zM192 416v12.8 38.4V480h12.8 38.4H256V467.2 428.8 416H243.2 204.8 192zM339.2 44.8V83.2H300.8V44.8h38.4zM300.8 32H288V44.8 83.2 96h12.8 38.4H352V83.2 44.8 32H339.2 300.8zm0 108.8h38.4v38.4H300.8V140.8zM288 128v12.8 38.4V192h12.8 38.4H352V179.2 140.8 128H339.2 300.8 288zm51.2 108.8v38.4H300.8V236.8h38.4zM300.8 224H288v12.8 38.4V288h12.8 38.4H352V275.2 236.8 224H339.2 300.8zm0 108.8h38.4v38.4H300.8V332.8zM288 320v12.8 38.4V384h12.8 38.4H352V371.2 332.8 320H339.2 300.8 288zm51.2 108.8v38.4H300.8V428.8h38.4zM300.8 416H288v12.8 38.4V480h12.8 38.4H352V467.2 428.8 416H339.2 300.8zm96-371.2h38.4V83.2H396.8V44.8zM384 32V44.8 83.2 96h12.8 38.4H448V83.2 44.8 32H435.2 396.8 384zm51.2 108.8v38.4H396.8V140.8h38.4zM396.8 128H384v12.8 38.4V192h12.8 38.4H448V179.2 140.8 128H435.2 396.8zm0 108.8h38.4v38.4H396.8V236.8zM384 224v12.8 38.4V288h12.8 38.4H448V275.2 236.8 224H435.2 396.8 384zm51.2 108.8v38.4H396.8V332.8h38.4zM396.8 320H384v12.8 38.4V384h12.8 38.4H448V371.2 332.8 320H435.2 396.8zm0 108.8h38.4v38.4H396.8V428.8zM384 416v12.8 38.4V480h12.8 38.4H448V467.2 428.8 416H435.2 396.8 384z"/></svg>