<svg xmlns="http://www.w3.org/2000/svg" viewBox="0 0 512 512"><!--! Font Awesome Pro 6.5.1 by @fontawesome - https://fontawesome.com License - https://fontawesome.com/license (Commercial License) Copyright 2023 Fonticons, Inc. --><path d="M48 48V208H208V48H48zM32 32H48 208h16V48 208v16H208 48 32V208 48 32zM48 304V464H208V304H48zM32 288H48 208h16v16V464v16H208 48 32V464 304 288zM464 48H304V208H464V48zM304 32H464h16V48 208v16H464 304 288V208 48 32h16zm0 272V464H464V304H304zm-16-16h16H464h16v16V464v16H464 304 288V464 304 288z"/></svg>