<svg xmlns="http://www.w3.org/2000/svg" viewBox="0 0 448 512"><!--! Font Awesome Pro 6.5.1 by @fontawesome - https://fontawesome.com License - https://fontawesome.com/license (Commercial License) Copyright 2023 Fonticons, Inc. --><path d="M16 144v96h96V144H16zM0 128H16h96 16v16 96 16H112 16 0V240 144 128zM16 304v96h96V304H16zM0 288H16h96 16v16 96 16H112 16 0V400 304 288zM272 144H176v96h96V144zm-96-16h96 16v16 96 16H272 176 160V240 144 128h16zm0 176v96h96V304H176zm-16-16h16 96 16v16 96 16H272 176 160V400 304 288zM432 144H336v96h96V144zm-96-16h96 16v16 96 16H432 336 320V240 144 128h16zm0 176v96h96V304H336zm-16-16h16 96 16v16 96 16H432 336 320V400 304 288z"/></svg>