<svg xmlns="http://www.w3.org/2000/svg" viewBox="0 0 512 512"><!--! Font Awesome Pro 6.5.1 by @fontawesome - https://fontawesome.com License - https://fontawesome.com/license (Commercial License) Copyright 2023 Fonticons, Inc. --><path d="M0 0H512V16H0V0zM48 112v96h96V112H48zM32 96H48h96 16v16 96 16H144 48 32V208 112 96zM48 400v96h96V400H48zM32 384H48h96 16v16 96 16H144 48 32V496 400 384zM304 112H208v96h96V112zM208 96h96 16v16 96 16H304 208 192V208 112 96h16zm0 304v96h96V400H208zm-16-16h16 96 16v16 96 16H304 208 192V496 400 384zM464 112H368v96h96V112zM368 96h96 16v16 96 16H464 368 352V208 112 96h16zm0 304v96h96V400H368zm-16-16h16 96 16v16 96 16H464 368 352V496 400 384zm160-96v16H0V288H512z"/></svg>