<svg xmlns="http://www.w3.org/2000/svg" viewBox="0 0 512 512"><!--! Font Awesome Pro 6.5.1 by @fontawesome - https://fontawesome.com License - https://fontawesome.com/license (Commercial License) Copyright 2023 Fonticons, Inc. --><path d="M208 48H48V208H208V48zM48 32H208h16V48 208v16H208 48 32V208 48 32H48zM208 304H48V464H208V304zM48 288H208h16v16V464v16H208 48 32V464 304 288H48zM304 48V208H464V48H304zM288 32h16H464h16V48 208v16H464 304 288V208 48 32zM392 272v8 96h96 8v16h-8H392v96 8H376v-8V392H280h-8V376h8 96V280v-8h16z"/></svg>