<svg xmlns="http://www.w3.org/2000/svg" viewBox="0 0 448 512"><!--! Font Awesome Pro 6.5.1 by @fontawesome - https://fontawesome.com License - https://fontawesome.com/license (Commercial License) Copyright 2023 Fonticons, Inc. --><path d="M112 48v96H16V48h96zM16 32H0V48v96 16H16h96 16V144 48 32H112 16zm96 176v96H16V208h96zM16 192H0v16 96 16H16h96 16V304 208 192H112 16zm0 176h96v96H16V368zM0 352v16 96 16H16h96 16V464 368 352H112 16 0zM272 48v96H176V48h96zM176 32H160V48v96 16h16 96 16V144 48 32H272 176zm0 176h96v96H176V208zm-16-16v16 96 16h16 96 16V304 208 192H272 176 160zM272 368v96H176V368h96zm-96-16H160v16 96 16h16 96 16V464 368 352H272 176zM336 48h96v96H336V48zM320 32V48v96 16h16 96 16V144 48 32H432 336 320zM432 208v96H336V208h96zm-96-16H320v16 96 16h16 96 16V304 208 192H432 336zm0 176h96v96H336V368zm-16-16v16 96 16h16 96 16V464 368 352H432 336 320z"/></svg>