<svg xmlns="http://www.w3.org/2000/svg" viewBox="0 0 576 512"><!--! Font Awesome Pro 6.5.1 by @fontawesome - https://fontawesome.com License - https://fontawesome.com/license (Commercial License) Copyright 2023 Fonticons, Inc. --><path d="M432 48H16V96c0 114.9 93.1 208 208 208c2.2 0 4.4 0 6.5-.1c-1.4 5.3-2.6 10.6-3.6 16.1c-1 0-1.9 0-2.9 0c-24.1 0-47.4-3.8-69.2-10.9l-24.1 53.1c8.5 5.5 15.7 13 20.7 21.8h75.2c.9 5.4 2.1 10.7 3.4 16H158c1.3 5.1 2 10.5 2 16c0 35.3-28.7 64-64 64s-64-28.7-64-64s28.7-64 64-64c7.1 0 13.9 1.2 20.3 3.3l23.5-51.7C57.8 270.3 0 189.9 0 96V48 32H16 432h16V48 96c0 24.8-4 48.7-11.5 71.1l-12.8-12.8c5.4-18.5 8.3-38.1 8.3-58.3V48zM96 464a48 48 0 1 0 0-96 48 48 0 1 0 0 96zM436.7 212.8L448 224.2l11.3-11.3L480 192.2c76.8 64 96 133.3 96 160c0 88.4-71.6 160-160 160s-160-71.6-160-160c0-89.6 85.3-165.3 128-192l52.7 52.7zM512 422.6c0 18.2-5.8 35.1-15.7 49.2C534.7 445.9 560 402 560 352.2c0-20.2-14.9-79.7-79.2-138.1l-21.4 21.4L448 246.8l-11.3-11.3L382 180.7c-19.3 13.6-44.2 35.1-65.4 61.8C291 274.5 272 312.4 272 352.2c0 49.8 25.3 93.7 63.7 119.6c-9.9-14.1-15.7-31-15.7-49.2c0-70.4 96-134.4 96-134.4s96 64 96 134.4zm-96 73.6c45.2 0 80-34 80-73.6c0-28.5-20-58.2-43.5-82.5c-11.4-11.8-22.8-21.5-31.4-28.3c-1.8-1.5-3.5-2.8-5.1-3.9c-1.5 1.2-3.2 2.5-5.1 3.9c-8.6 6.8-20 16.5-31.4 28.3C356 364.4 336 394 336 422.6c0 39.6 34.8 73.6 80 73.6z"/></svg>