<svg xmlns="http://www.w3.org/2000/svg" viewBox="0 0 448 512"><!--! Font Awesome Pro 6.5.1 by @fontawesome - https://fontawesome.com License - https://fontawesome.com/license (Commercial License) Copyright 2023 Fonticons, Inc. --><path d="M112 8V0H96V8v9.4c0 16.9 8.8 32.5 23.3 41.2l41.2 24.7C170.1 89 176 99.4 176 110.6V120v8h16v-8-9.4c0-16.9-8.8-32.5-23.3-41.2L127.5 44.8C117.9 39 112 28.6 112 17.4V8zm96 0V0H192V8v9.4c0 16.9 8.8 32.5 23.3 41.2l41.2 24.7C266.1 89 272 99.4 272 110.6V120v8h16v-8-9.4c0-16.9-8.8-32.5-23.3-41.2L223.5 44.8C213.9 39 208 28.6 208 17.4V8zM138.7 376.5c16.9 4.9 34.8 7.5 53.3 7.5h64c18.5 0 36.4-2.6 53.3-7.5L338.1 440H159.5c-2.4-19.2-13.3-35.8-28.8-45.8l8-17.7zm-15.3-5.1l-7.2 15.9c-6.4-2.1-13.2-3.3-20.3-3.3c-35.3 0-64 28.7-64 64s28.7 64 64 64c32.6 0 59.6-24.4 63.5-56H345.4l21.1 46.3 3.3 7.3 14.6-6.6-3.3-7.3L324.5 371.4C396.7 343.8 448 273.9 448 192V176 160H432 16 0v16 16c0 81.9 51.3 151.8 123.5 179.4zM96 400a48 48 0 1 1 0 96 48 48 0 1 1 0-96zM16 176H432v16c0 97.2-78.8 176-176 176H192C94.8 368 16 289.2 16 192V176z"/></svg>