<svg xmlns="http://www.w3.org/2000/svg" viewBox="0 0 384 512"><!--! Font Awesome Pro 6.5.1 by @fontawesome - https://fontawesome.com License - https://fontawesome.com/license (Commercial License) Copyright 2023 Fonticons, Inc. --><path d="M192 0H176V64.7C77.4 72.8 0 155.3 0 256S77.4 439.2 176 447.3V512h16V448c106 0 192-86 192-192v-8h-8H192V80c48 0 91.4 19.2 123.2 50.3l11.2-11.4C291.8 84.9 244.3 64 192 64V0zM176 80.7V431.3C86.3 423.2 16 347.8 16 256S86.3 88.8 176 80.7zM192 432V264H367.8c-4.2 93.5-81.3 168-175.8 168z"/></svg>