<svg xmlns="http://www.w3.org/2000/svg" viewBox="0 0 512 512"><!--! Font Awesome Pro 6.5.1 by @fontawesome - https://fontawesome.com License - https://fontawesome.com/license (Commercial License) Copyright 2023 Fonticons, Inc. --><path d="M88 0h80 8V8 88v2.6l-1.5 2.1L136 146.6v29.7c58.1 3.2 104 41.3 104 87.8c0 14-4.2 27.3-11.6 39.1c-8.2 13-7.5 32 2.9 43.4c5.9 6.5 10.9 13.7 14.8 21.3c-2.3 4.9-4.7 9.6-7 13.9c-.8 1.6-1.7 3.1-2.4 4.8c-3.4-10.5-9.2-20.4-17.2-29.2c-15.6-17.3-16.2-44.2-4.5-62.7c6-9.4 9.2-19.8 9.2-30.6c0-34.7-35.5-68.6-88-71.8v88.6c18.3 3.7 32 19.8 32 39.2c0 22.1-17.9 40-40 40s-40-17.9-40-40c0-19.4 13.7-35.5 32-39.2V192.2c-52.5 3.2-88 37.1-88 71.8c0 10.8 3.2 21.1 9.2 30.6c11.7 18.5 11.1 45.4-4.5 62.7C23.4 371.9 16 389.4 16 408c0 45.7 46.9 88 112 88c43 0 78-18.5 96.9-44.1c.9 6.8 2.4 13.3 4.5 19.6C205.9 496.1 169.3 512 128 512C57.3 512 0 465.4 0 408c0-23 9.2-44.3 24.8-61.5c10.3-11.4 11.1-30.4 2.9-43.4C20.2 291.3 16 278 16 264c0-46.5 45.9-84.6 104-87.8V146.6L81.5 92.6 80 90.6V88 8 0h8zm72 85.4V16H96V85.4l32 44.8 32-44.8zM392 240c56 0 64-48 64-48h16 16v16 21.5c0 12.9-4.3 25.4-8.5 37.8l0 0 0 0 0 0 0 0 0 0c-1.4 4-2.7 7.9-3.9 11.8c-2.1 6.8-3.6 15.1-3.6 24.8c0 33.5 17 70.9 28.8 92.9c6.9 12.7 11.2 26.9 11.2 41.3c0 40.8-33 73.8-73.8 73.8H329.8C289 512 256 479 256 438.2c0-14.5 4.3-28.6 11.2-41.3C279 374.9 296 337.5 296 304c0-9.8-1.5-18-3.6-24.8c-1.2-3.9-2.5-7.9-3.9-11.8l0 0 0 0 0 0 0 0 0 0c-4.2-12.4-8.5-25-8.5-37.8V192 176h16 16s0 64 64 64V163l-46.1-53.8-2.4-2.8 .6-3.7 16-96L345.2 0H352h32c22.1 0 40 17.9 40 40c0 19.4-13.7 35.5-32 39.2V160v80zm-61.9 3.3c-11.8-7.9-19.5-18.3-24.4-28.2c-4.2-8.3-6.5-16.6-7.9-23.2H296v37.5c0 6.2 1.4 12.9 3.7 20.5c1.1 3.8 2.5 7.7 3.9 11.8l.2 .5c1.3 3.9 2.8 8.1 4 12.3c2.5 8.2 4.3 18.1 4.3 29.5c0 37.8-18.7 78.2-30.7 100.4c-5.9 11-9.3 22.5-9.3 33.8c0 31.9 25.9 57.8 57.8 57.8H438.2c31.9 0 57.8-25.9 57.8-57.8c0-11.3-3.4-22.8-9.3-33.8C474.7 382.2 456 341.8 456 304c0-11.4 1.7-21.3 4.3-29.5c1.3-4.2 2.7-8.4 4-12.3l0 0 .2-.5c1.4-4.1 2.7-8 3.9-11.8c2.3-7.7 3.7-14.3 3.7-20.5V208h-4.3c-2.1 5.1-5.3 11.3-9.9 17.6C446 241.3 425.4 256 392 256H376c-18.8 0-34-4.7-45.9-12.7zM128 344a24 24 0 1 0 0-48 24 24 0 1 0 0 48zM376 138.4V72 64h8c13.3 0 24-10.7 24-24s-10.7-24-24-24H358.8l-14.3 85.6L376 138.4zM352 320h64 8v16h-8H352h-8V320h8zm0 64h64 8v16h-8H352h-8V384h8z"/></svg>