<svg xmlns="http://www.w3.org/2000/svg" viewBox="0 0 576 512"><!--! Font Awesome Pro 6.5.1 by @fontawesome - https://fontawesome.com License - https://fontawesome.com/license (Commercial License) Copyright 2023 Fonticons, Inc. --><path d="M112 32v8V64H536h8v8 48h24 8v8 64 8h-8H544v48 8h-8H248l-16 64h56V296v-8h16v8 32 32 8H288v-8V336H228L192 480H48.5 32l4-16L88.1 255.7C38.8 251.7 0 210.4 0 160c0-53 43-96 96-96V40 32h16zM16 160c0 44.2 35.8 80 80 80H528V192v-8h8 24V136H536h-8v-8V80H96c-44.2 0-80 35.8-80 80zm215.5 96h-127l-52 208h127l52-208zM80 144v32H464V144H80zM64 128H80 464h16v16 32 16H464 80 64V176 144 128z"/></svg>