<svg xmlns="http://www.w3.org/2000/svg" viewBox="0 0 640 512"><!--! Font Awesome Pro 6.5.1 by @fontawesome - https://fontawesome.com License - https://fontawesome.com/license (Commercial License) Copyright 2023 Fonticons, Inc. --><path d="M16.2 5L9.9 0 0 12.5l6.3 5L623.8 507l6.3 5 9.9-12.5-6.3-5L16.2 5zM480 240h3.3l2.3-2.3L515.3 208H600h8v-8V72 64h-8H544V40 32H528v8V64H193l20.3 16H528h16 48V192H512h-3.3l-2.3 2.3L476.7 224h-81l20.3 16H480zM48 224V133L32 120.4V232v8h8 84L68 464l-4 16H80.5 240l40.8-163.2L267 305.9 227.5 464H84.5l56-224h43l-20.3-16H48zm488-80h8V128h-8H274.1l20.3 16H536z"/></svg>