<svg xmlns="http://www.w3.org/2000/svg" viewBox="0 0 576 512"><!--! Font Awesome Pro 6.5.1 by @fontawesome - https://fontawesome.com License - https://fontawesome.com/license (Commercial License) Copyright 2023 Fonticons, Inc. --><path d="M512 32v8V64h56 8v8V200v8h-8H483.3l-29.7 29.7-2.3 2.3H448 381.8l-30.2 90.5-1.8 5.5H344 244L208 480H48.5 32l4-16L92 240H8 0v-8V72 64H8 496V40 32h16zM338.2 320l26.7-80H268l-20 80h90.2zM108.5 240l-56 224h143l56-224h-143zM16 80V224H444.7l29.7-29.7 2.3-2.3H480h80V80H512 496 16zm56 48H504h8v16h-8H72 64V128h8z"/></svg>