<svg xmlns="http://www.w3.org/2000/svg" viewBox="0 0 640 512"><!--! Font Awesome Pro 6.5.1 by @fontawesome - https://fontawesome.com License - https://fontawesome.com/license (Commercial License) Copyright 2023 Fonticons, Inc. --><path d="M16 72V64H0v8V248 440v8H16v-8V256H304V440v8h16v-8V248 72 64H304v8V240H16V72zm485.2 8h4.2c52.2 0 94.6 42.4 94.6 94.6c0 24.5-9.5 48-26.5 65.7L386.2 434.4l-2.2 2.3V448h8H624h8V432h-8H410.8L585 251.4c19.9-20.6 31-48.1 31-76.8C616 113.5 566.5 64 505.4 64h-4.2c-31.1 0-61.1 11.1-84.7 31.3l-21.7 18.6-6.1 5.2 10.4 12.1 6.1-5.2 21.7-18.6c20.7-17.7 47-27.5 74.2-27.5z"/></svg>