<svg xmlns="http://www.w3.org/2000/svg" viewBox="0 0 640 512"><!--! Font Awesome Pro 6.5.1 by @fontawesome - https://fontawesome.com License - https://fontawesome.com/license (Commercial License) Copyright 2023 Fonticons, Inc. --><path d="M16 72V64H0v8V248 440v8H16v-8V256H304V440v8h16v-8V248 72 64H304v8V240H16V72zm584-8H392h-8V80h8H580.7L418.3 242.3l-2.3 2.3V256h8 96c48.6 0 88 39.4 88 88s-39.4 88-88 88H447.4c-23.5 0-43.5-17-47.3-40.1l-.2-1.2-1.3-7.9-15.8 2.6 1.3 7.9 .2 1.2c5.1 30.9 31.8 53.5 63.1 53.5H520c57.4 0 104-46.6 104-104s-46.6-104-104-104H443.3L605.7 77.7l2.3-2.3V64h-8z"/></svg>