<svg xmlns="http://www.w3.org/2000/svg" viewBox="0 0 640 512"><!--! Font Awesome Pro 6.5.1 by @fontawesome - https://fontawesome.com License - https://fontawesome.com/license (Commercial License) Copyright 2023 Fonticons, Inc. --><path d="M16 72V64H0v8V248 440v8H16v-8V256H304V440v8h16v-8V248 72 64H304v8V240H16V72zm416-8h-6.4l-1.4 6.2-40 176L382 256h10H536c48.6 0 88 39.4 88 88s-39.4 88-88 88H448.4c-20.7 0-39-13.2-45.5-32.8l-3.2-9.7-2.5-7.6-15.2 5.1 2.5 7.6 3.2 9.7c8.7 26.1 33.2 43.8 60.7 43.8H536c57.4 0 104-46.6 104-104s-46.6-104-104-104H402L438.4 80H600h8V64h-8H432z"/></svg>