<svg xmlns="http://www.w3.org/2000/svg" viewBox="0 0 640 512"><!--! Font Awesome Pro 6.5.1 by @fontawesome - https://fontawesome.com License - https://fontawesome.com/license (Commercial License) Copyright 2023 Fonticons, Inc. --><path d="M16 64v8V240H304V72 64h16v8V248 440v8H304v-8V256H16V440v8H0v-8V248 72 64H16zM496 432c70.7 0 128-57.3 128-128s-57.3-128-128-128c-69.9 0-126.7 56-128 125.5c0 .8 0 1.6 0 2.5c0 0 0 0 0 0c0 70.7 57.3 128 128 128zM352 304c0-1.2 0-2.5 0-3.7c.8-31.6 11.7-62.1 31.2-87L500.1 64h20.3L434.5 173.7C453.2 164.9 474 160 496 160c79.5 0 144 64.5 144 144s-64.5 144-144 144s-144-64.5-144-144c0 0 0 0 0 0z"/></svg>