<svg xmlns="http://www.w3.org/2000/svg" viewBox="0 0 640 512"><!--! Font Awesome Pro 6.5.1 by @fontawesome - https://fontawesome.com License - https://fontawesome.com/license (Commercial License) Copyright 2023 Fonticons, Inc. --><path d="M0 120C0 53.7 53.7 0 120 0H248h8V8 32h32V8 0h8 48 8V8 184v8h-8H296h-8v-8V160H256v16 8h-8H216.4l7.3 312 .4 16H208 112 96l.4-16 7.3-312H88 83.1l-2.2-4.4L68.1 154 10.8 175.5 0 179.5V168 120zm119.6 64l-7.3 312h95.2l-7.3-312H119.6zM240 168V152v-8h8 48 8v8 24h32V16H304V40v8h-8H248h-8V40 16H120C62.6 16 16 62.6 16 120v36.5l53.2-19.9 6.7-2.5 3.2 6.4L92.9 168H104 216h24zM640 288V496v16H624 368 352V496 288l88-88V16 0h16 80 16V16 200l88 88zM536 200V16H456V200v6.6l-4.7 4.7L374.6 288H617.4l-76.7-76.7-4.7-4.7V200zM368 352H624V304H368v48zm0 16V496h80V416v-8h16v8 80H624V368H368zM496 80a16 16 0 1 1 0-32 16 16 0 1 1 0 32z"/></svg>