<svg xmlns="http://www.w3.org/2000/svg" viewBox="0 0 384 512"><!--! Font Awesome Pro 6.5.1 by @fontawesome - https://fontawesome.com License - https://fontawesome.com/license (Commercial License) Copyright 2023 Fonticons, Inc. --><path d="M224 0H208 176 160V16 32 56.9L48 32H16 0V48 272v16H16 48l144-32 144 32h32 16V272 48 32H368 336L224 56.9V32 16 0zM208 60.4L192 64l-16-3.6V32 16h32V32 60.4zm16 235.4l-16-3.6V480v16H176V480 292.3l-16 3.6V480v16 16h16 32 16V496 480 295.9zm-35.5-55.5L46.2 272H16V48H46.2L188.5 79.6c2.3 .5 4.7 .5 6.9 0L337.8 48H368V272H337.8L195.5 240.4c-2.3-.5-4.7-.5-6.9 0z"/></svg>