<svg xmlns="http://www.w3.org/2000/svg" viewBox="0 0 512 512"><!--! Font Awesome Pro 6.5.1 by @fontawesome - https://fontawesome.com License - https://fontawesome.com/license (Commercial License) Copyright 2023 Fonticons, Inc. --><path d="M200 0h8 96 8V8 40h88 8v8V272h96 8v8 56 3.3l-2.3 2.3L398.2 453.1C360.5 490.8 309.3 512 256 512s-104.5-21.2-142.2-58.9L2.3 341.7 0 339.3V336 280v-8H8h96V48 40h8 88V8 0zM312 208v8 8H296v-8-8V48 40 16H216V40v8V208v8 8H200v-8-8V56H120V280v8h-8H16v44.7L125.1 441.8C159.8 476.5 206.9 496 256 496s96.2-19.5 130.9-54.2L496 332.7V288H400h-8v-8V56H312V208zM174.3 356.7c5.1 5.8 12.4 13.6 21 21.3c17.8 15.8 39.8 30 60.7 30s42.9-14.2 60.7-30c8.7-7.7 15.9-15.5 21-21.3c1.6-1.8 2.9-3.4 4-4.7c-1.1-1.4-2.5-3-4-4.7c-5.1-5.8-12.4-13.6-21-21.3c-17.8-15.8-39.8-30-60.7-30s-42.9 14.2-60.7 30c-8.7 7.7-15.9 15.5-21 21.3c-1.6 1.8-2.9 3.4-4 4.7c1.1 1.4 2.5 3 4 4.7zm184.1-9.5s0 0-6.4 4.8c6.4 4.8 6.4 4.8 6.4 4.8l0 0 0 0 0 0-.1 .2-.5 .6c-.4 .5-1 1.2-1.7 2.1c-1.5 1.8-3.6 4.4-6.3 7.5c-5.4 6.2-13.1 14.4-22.5 22.7c-18.2 16.2-44.2 34-71.3 34s-53.1-17.8-71.3-34c-9.3-8.3-17.1-16.5-22.5-22.7c-2.7-3.1-4.8-5.7-6.3-7.5c-.7-.9-1.3-1.6-1.7-2.1l-.5-.6-.1-.2 0 0 0 0 0 0s0 0 6.4-4.8c-6.4-4.8-6.4-4.8-6.4-4.8l0 0 0 0 0 0 .1-.2 .5-.6c.4-.5 1-1.2 1.7-2.1c1.5-1.8 3.6-4.4 6.3-7.5c5.4-6.2 13.1-14.4 22.5-22.7c18.2-16.2 44.2-34 71.3-34s53.1 17.8 71.3 34c9.3 8.3 17 16.5 22.5 22.7c2.7 3.1 4.8 5.7 6.3 7.5c.7 .9 1.3 1.6 1.7 2.1l.5 .6 .1 .2 0 0 0 0 0 0zM352 352l6.4 4.8L362 352l-3.6-4.8L352 352zm-198.4-4.8L160 352l-6.4 4.8L150 352l3.6-4.8zM272 352a16 16 0 1 0 -32 0 16 16 0 1 0 32 0zm-48 0a32 32 0 1 1 64 0 32 32 0 1 1 -64 0z"/></svg>