<svg xmlns="http://www.w3.org/2000/svg" viewBox="0 0 640 512"><!--! Font Awesome Pro 6.5.1 by @fontawesome - https://fontawesome.com License - https://fontawesome.com/license (Commercial License) Copyright 2023 Fonticons, Inc. --><path d="M280 40a40 40 0 1 0 80 0 40 40 0 1 0 -80 0zM384.5 181l6.1 5.2 12.2 10.3 10.3-12.2 10.3-12.2 10.3-12.2-12.2-10.3-6.1-5.2L365 101.7 358.3 96h-8.8H320 290.5h-8.8l-6.7 5.7-50.5 42.7-6.1 5.2-12.2 10.3 10.3 12.2 10.3 12.2 10.3 12.2 12.2-10.3 6.1-5.2 1.8-1.5 8.4-7.1 3.4-2.9 4.3-3.7 1.1 4.4-2.2 17.5L264.2 253l-1 7.9-2 15.9 15.9 2 15.9 2 15.9 2 2-15.9 1-7.9 .1-1 4.1-33 .1-1h7.6l.1 1 4.1 33 .1 1 1 7.9 2 15.9 15.9-2 15.9-2 15.9-2-2-15.9-1-7.9-8.2-65.3-2.2-17.5 1.1-4.4 4.4 3.7 3.4 2.9 8.4 7.1 1.8 1.5zm-24.6 74l1 7.9-15.9 2-1-7.9-4.4-35-1.8-14H323.8h-7.6H302.1l-1.8 14-4.4 35-1 7.9-15.9-2 1-7.9 10.4-82.9 .4-3-.7-2.9-1.1-4.4L282.7 137l-19.6 16.6-18 15.2-6.1 5.2-10.3-12.2 6.1-5.2 50.5-42.7 2.2-1.9h2.9 59.1 2.9l2.2 1.9 50.5 42.7 6.1 5.2-10.3 12.2-6.1-5.2-18-15.2L357.3 137 351 161.9l-1.1 4.4-.7 2.9 .4 3L359.9 255zM296 40a24 24 0 1 1 48 0 24 24 0 1 1 -48 0zM96 72c0-4.4-3.6-8-8-8H8c-4.4 0-8 3.6-8 8V384c0 2.1 .8 4.2 2.3 5.7l120 120 11.3-11.3L16 380.7V80H80V288c0 2.1 .8 4.2 2.3 5.7l10.8 10.8 5.2 5.2 80 80 8 8 5.7 5.7L203.3 392l-5.7-5.7-8-8-74.8-74.8 37.6-43.8L288 395.3V504v8h16v-8V392v-3.3l-2.3-2.3-144-144-6.1-6.1-5.6 6.6-42.4 49.4L96 284.7V72zm456-8c-4.4 0-8 3.6-8 8V284.7l-7.5 7.5-42.4-49.4-5.6-6.6-6.1 6.1-144 144-2.3 2.3V392 504v8h16v-8V395.3L487.5 259.8l37.6 43.8-74.8 74.8-8 8-5.7 5.7L448 403.3l5.7-5.7 8-8 80-80 5.2-5.2 10.8-10.8c1.5-1.5 2.3-3.5 2.3-5.7V80h64V380.7L506.3 498.3l11.3 11.3 120-120c1.5-1.5 2.3-3.5 2.3-5.7V72c0-4.4-3.6-8-8-8H552z"/></svg>