<svg xmlns="http://www.w3.org/2000/svg" viewBox="0 0 448 512"><!--! Font Awesome Pro 6.5.1 by @fontawesome - https://fontawesome.com License - https://fontawesome.com/license (Commercial License) Copyright 2023 Fonticons, Inc. --><path d="M96 0H88V8 232v8 7.4L18.8 305.9 16 308.3V312v53.7c0 48.8 26.2 93.9 68.5 118.1l18 10.3C123.1 505.8 146.3 512 170 512H312c57.4 0 104-46.6 104-104V392 304 256v-8h-8H352V224v-8h-8H280V192v-8h-8H192V8 0h-8H96zM88 268.3V344v8h16v-8V254.8v-3.7V240v-8V16h72V192v8h8 80v24 8h8 64v24 8h8 56v40 88 16c0 48.6-39.4 88-88 88H170c-20.9 0-41.4-5.4-59.5-15.8l-18-10.3C55.1 448.5 32 408.8 32 365.7v-50l56-47.4z"/></svg>