<svg xmlns="http://www.w3.org/2000/svg" viewBox="0 0 482 512"><!--! Font Awesome Pro 6.5.1 by @fontawesome - https://fontawesome.com License - https://fontawesome.com/license (Commercial License) Copyright 2023 Fonticons, Inc. --><path d="M341.3 61.4c-6.9-27.5-30.1-47.8-58.3-50.9L256.9 7.6l-1.7 15 26.1 2.9c21.9 2.4 40 18.2 45.3 39.6l4.9 19.6L346.2 81l-4.9-19.6zM1.8 376.1c3.8 30.8 28.1 55 58.8 58.8l13.7 1.7 1.9-14.9L62.5 420c-23.9-3-42.8-21.8-45.8-45.8l-1.7-13.7L.1 362.3l1.7 13.7zM110.1 49.3l-5.3 5.3L51.5 107.8l-5.3 5.3 5.3 5.3 16 16L19.6 182.4l-5.3 5.3 5.3 5.3 37.3 37.3L8.9 278.2l-5.3 5.3 5.3 5.3L151.2 432.4c28 28.3 65.1 45.5 104.5 48.8l0 .5 7.5 .1 14.1 .1c96.1 .7 174.5-77 174.5-173.2l0-173.3 0-37.6 0-7.5-7.5 0-75.3 0-7.5 0 0 7.5 0 37.6 0 58.6L190 22.7l-5.3-5.3-5.3 5.3L131.4 70.6l-16-16-5.3-5.3zM142 81.2l42.6-42.6 179 179 12.9 12.9 0-18.2 0-76.8 0-30.1 60.2 0 0 30.1 0 173.3c0 87.8-71.5 158.8-159.3 158.1l-10-.1-3.8-.2c-38.3-1.6-74.6-17.5-101.7-44.9L24.9 283.6l42.6-42.6 .9 .9 94 94 5.3 5.3 10.6-10.6-5.3-5.3-94-94-5.3-5.3 0 0-.9-.9L35.6 187.7l42.6-42.6 3.1 3.1 5.3 5.3 70.9 70.9 3.1 3.1 55.1 55.1 5.3 5.3 10.6-10.6-5.3-5.3-49-49 0 0-9.2-9.2L67.5 113.2l42.6-42.6L134.5 95l0 0 5.3 5.3L268.9 229.4l5.3 5.3 10.6-10.6-5.3-5.3-16.8-16.8 0 0-9.4-9.4L142 81.2z"/></svg>