<svg xmlns="http://www.w3.org/2000/svg" viewBox="0 0 448 512"><!--! Font Awesome Pro 6.5.1 by @fontawesome - https://fontawesome.com License - https://fontawesome.com/license (Commercial License) Copyright 2023 Fonticons, Inc. --><path d="M120 0h-8V8 316l-5.9-8.2L82.6 275.4 77.9 269l-6.5 4.7-64.8 47L.2 325.3l4.7 6.5 23.5 32.4 64.1 88.3C119.5 489.9 162.8 512 209 512h47 16 72c57.4 0 104-46.6 104-104V320l0-80v-8h-8H376V208v-8h-8H296V184v-8h-8H216V8 0h-8H120zm8 326.3V16h72V184v8h8 72v16 8h8 72v24 8h8 64l0 72v88c0 48.6-39.4 88-88 88H272 256 209c-41 0-79.6-19.7-103.6-52.9L41.3 354.8 22.5 328.9l51.8-37.6 18.8 25.9L107.5 337l5.5 7.6 6.6-6.6 6.1-6.1 2.3-2.3v-3.3zM224 312v-8H208v8V424v8h16v-8V312zm64 0v-8H272v8V424v8h16v-8V312zm64 0v-8H336v8V424v8h16v-8V312z"/></svg>