<svg xmlns="http://www.w3.org/2000/svg" viewBox="0 0 576 512"><!--! Font Awesome Pro 6.5.1 by @fontawesome - https://fontawesome.com License - https://fontawesome.com/license (Commercial License) Copyright 2023 Fonticons, Inc. --><path d="M352.5 224.7l-10.4 5.3 1.9 11.5 5.1 30.4H226.9l5.1-30.4 1.9-11.5-10.4-5.3C184.8 204.9 160 168.5 160 128c0-60.1 55.5-112 128-112s128 51.9 128 112c0 40.5-24.8 76.9-63.5 96.7zM368 288l-2.7-16-5.5-33C403 216.9 432 175.4 432 128C432 57.3 367.5 0 288 0S144 57.3 144 128c0 47.4 29 88.9 72.2 111l-5.5 33L208 288h16.2H351.8 368zM256 144a16 16 0 1 1 -32 0 16 16 0 1 1 32 0zm-16-32a32 32 0 1 0 0 64 32 32 0 1 0 0-64zm96 48a16 16 0 1 1 0-32 16 16 0 1 1 0 32zm-32-16a32 32 0 1 0 64 0 32 32 0 1 0 -64 0zM151.6 320h-2.8l-2.2 1.8L68.8 384H8 0v16H8 71.6h2.8l2.2-1.8L154.4 336H368v40H248h-8v8 40 8h8H397.3h2.5l2-1.4 116.3-80 27.2 39.6L391.5 496H8 0v16H8 393.9h2.5l2-1.4L561 398.8l6.6-4.5-4.5-6.6L526.8 335l-4.5-6.6-6.6 4.5L394.8 416H256V392H376h8v-8V328v-8h-8H151.6z"/></svg>