<svg xmlns="http://www.w3.org/2000/svg" viewBox="0 0 576 512"><!--! Font Awesome Pro 6.5.1 by @fontawesome - https://fontawesome.com License - https://fontawesome.com/license (Commercial License) Copyright 2023 Fonticons, Inc. --><path d="M576 96h-8l-64 0-8 0v8l0 32v25.7L415.6 22.4l-4-6.9-6.9 4L356.3 47.3l-12.4-21-4.1-6.9L333 23.5 277.9 56 271 60.1 275 67l12 20.4-.2 .1-48.5 28-6.9 4 4 6.9 .3 .4 16.3 6.8 8.1 3.4-6.8-11.8 41.6-24 38.5 66.8c10.6 4.9 20.6 10.6 29.9 17.1L292.9 65.7l41.3-24.4 8.2 14-.2 .1 4 6.9 64 110.9 4 6.9 13.9-8-4-6.9-60-103.9 41.6-24 91.4 158.3L512 221.4V191.5l0-55.5V112l48 0v24l0 90.5c0 56.5-29.9 108.8-78.6 137.5c-11.6 6.8-23.7 12-36.1 15.6c-1 5.9-2.2 11.8-3.8 17.6c16.5-4 32.6-10.4 47.9-19.4c53.6-31.5 86.5-89.1 86.5-151.3l0-90.5 0-32V96zM447.1 328.2l.5-.2-.6-1 .1 1.2zM210 150.7l-7.4-3.1-3.1 7.4-24.8 59-3.1 7.4 7.4 3.1 29.5 12.4 7.4 3.1H72 40 32v8 56H8 0v8 64 8H8l24 0v56 8h8H64v56 8h8 32H251c91.1 0 165-73.9 165-165c0-66.4-39.8-126.3-101-152.1l-75.5-31.8L210 150.7zM200 384h8V368h-8H48l-8 0H16V320H32l8 0H200h8V304h-8H48V256H72 255.5 264l3-11.9-8.3-3.5-44-18.5-22.1-9.3 18.6-44.2 22.1 9.3 75.5 31.8C364.1 232.9 400 287 400 347c0 82.3-66.7 149-149 149H104 80V448H200h8V432h-8L80 432H72 48V384H200z"/></svg>