<svg xmlns="http://www.w3.org/2000/svg" viewBox="0 0 512 512"><!--! Font Awesome Pro 6.5.1 by @fontawesome - https://fontawesome.com License - https://fontawesome.com/license (Commercial License) Copyright 2023 Fonticons, Inc. --><path d="M205.2 3.3l8 .8 79.6 8.2 8 .8-.8 8-4.1 39.8L283 184h77 8v8 8h72 8v8 72 64 8 8c0 83.9-68.1 152-152 152H216c-83.9 0-152-68.1-152-152V264v-8h8H96.3L48.4 93.6 37 55.2l-2.3-7.7 7.7-2.3 76.7-22.7 7.7-2.3 2.3 7.7 11.3 38.4 43.1 146.1L200.3 51.1l4.1-39.8 .8-8zM113 256h66.7l-.1-.2-5-16.9-49.6-168L116 40.2 54.6 58.4l9.1 30.7L113 256zm82.1 0h64.3L279.8 59.3l3.3-31.8-63.7-6.6-3.3 31.8L195.3 254.4l-.2 1.6zM432 216H368V336h64V280 216zM368 352h-8-8H288h-8-8H168h-8V336h8H272V272H80v88c0 75.1 60.9 136 136 136h80c75.1 0 136-60.9 136-136v-8H368zm-16-16V208v-8H288l0 56v8l0 72h64z"/></svg>