<svg xmlns="http://www.w3.org/2000/svg" viewBox="0 0 640 512"><!--! Font Awesome Pro 6.5.1 by @fontawesome - https://fontawesome.com License - https://fontawesome.com/license (Commercial License) Copyright 2023 Fonticons, Inc. --><path d="M16.2 5L9.9 0 0 12.5l6.3 5L623.8 507l6.3 5 9.9-12.5-6.3-5L16.2 5zm351 369.8l-50.7 50.7-43-43-5.7-5.7-5.7 5.7-37 37-44.1-44.1 0 0-37-37-2.3-2.3h-3.3H48 40l0 16h8 87.2l50.1 50.1 5.7 5.7 0 0 28.7 28.7 5.7 5.7 5.7-5.7 37-37 43 43 5.7 5.7 5.7-5.7L376 388.7v-6.9l-8.8-6.9zm-29-308.6l-70.6 66.9 12.7 10L346.9 80h79.5l73.9 62.1 2.2 1.9h2.9H600h8V128h-8H508.4L434.5 65.9 432.2 64h-2.9H343.8h-3.2l-2.3 2.2zm24.5 142l12.5-12.5 5.7-5.7-11.3-11.3-5.7 5.7-13.9 13.9 12.6 10zM193.6 74.7l12.8 10.1 5.7-4.8h65L294 64H209.3c-1.9 0-3.7 .7-5.1 1.9l-10.5 8.8zM74.8 144L54.6 128H40 32v16h8H74.8zM600 352h8V336h-8H524.6l20.3 16H600z"/></svg>