<svg xmlns="http://www.w3.org/2000/svg" viewBox="0 0 640 512"><!--! Font Awesome Pro 6.5.1 by @fontawesome - https://fontawesome.com License - https://fontawesome.com/license (Commercial License) Copyright 2023 Fonticons, Inc. --><path d="M482.3 2.3L420.7 64H216h-8v8V296v8h8 96 8v-8V224H496v72H472h-8v8 72H424h-8v8 48H368l-136 0h-3.3l-2.3 2.3-64 64 11.3 11.3L235.3 448H376l48 0h8v-8V392h40 8v-8V312h24 8v-8V216v-8h-8H320V160v-8H304v8V288H224V80H424h3.3l2.3-2.3 64-64L482.3 2.3zM176 144H104 96v8V276.7L2.3 370.3l11.3 11.3 96-96 2.3-2.3V280 160h64V144zm368 68.7v22.6l93.7-93.7-11.3-11.3L544 212.7z"/></svg>