<svg xmlns="http://www.w3.org/2000/svg" viewBox="0 0 512 512"><!--! Font Awesome Pro 6.5.1 by @fontawesome - https://fontawesome.com License - https://fontawesome.com/license (Commercial License) Copyright 2023 Fonticons, Inc. --><path d="M0 64H8 344h4.2l2.4 3.5 160 232 1.4 2.1V304 440v8H496v-8V306.5L339.8 80H16v64H240c35.3 0 64 28.7 64 64s-28.7 64-64 64H80v64H272h2.6l2.1 1.5 88 64 3.3 2.4V408v32 8H352v-8V412.1L269.4 352H72 64v-8V264v-8h8H240c26.5 0 48-21.5 48-48s-21.5-48-48-48H8 0v-8V72 64z"/></svg>