<svg xmlns="http://www.w3.org/2000/svg" viewBox="0 0 448 512"><!--! Font Awesome Pro 6.5.1 by @fontawesome - https://fontawesome.com License - https://fontawesome.com/license (Commercial License) Copyright 2023 Fonticons, Inc. --><path d="M112 0h-8V8 64H32 15.4L25.8 77l28 35-28 35L15.4 160H32h72v72 8 7.4L34.8 305.9 32 308.3V312v53.7c0 48.8 26.2 93.9 68.5 118.1l18 10.3C139.1 505.8 162.3 512 186 512H328c57.4 0 104-46.6 104-104V392 304 256v-8h-8H368V224v-8h-8H296V192v-8h-8H208V160 144 80 64 8 0h-8H112zm80 64H120V16h72V64zm0 16v64H48.6l21.6-27 4-5-4-5L48.6 80H192zm0 80v32 8h8 80v24 8h8 64v24 8h8 56v40 88 16c0 48.6-39.4 88-88 88H186c-20.9 0-41.4-5.4-59.5-15.8l-18-10.3C71.1 448.5 48 408.8 48 365.7v-50l56-47.4V344v8h16v-8V254.8v-3.7V240v-8V160h72z"/></svg>