<svg xmlns="http://www.w3.org/2000/svg" viewBox="0 0 576 512"><!--! Font Awesome Pro 6.5.1 by @fontawesome - https://fontawesome.com License - https://fontawesome.com/license (Commercial License) Copyright 2023 Fonticons, Inc. --><path d="M224 112l64-85.3L352 112c10.4 13.8 16 30.7 16 48c0 44.2-35.8 80-80 80s-80-35.8-80-80c0-17.3 5.6-34.2 16-48zm-12.8-9.6C198.7 119 192 139.2 192 160c0 53 43 96 96 96s96-43 96-96c0-20.8-6.7-41-19.2-57.6L298 13.3 288 0 278 13.3l-66.8 89.1zM151.6 320h-2.8l-2.2 1.8L68.8 384H8 0v16H8 71.6h2.8l2.2-1.8L154.4 336H368v40H248h-8v8 40 8h8H397.3h2.5l2-1.4 116.3-80 27.2 39.6L391.5 496H8 0v16H8 393.9h2.5l2-1.4L561 398.8l6.6-4.5-4.5-6.6L526.8 335l-4.5-6.6-6.6 4.5L394.8 416H256V392H376h8v-8V328v-8h-8H151.6z"/></svg>