<svg xmlns="http://www.w3.org/2000/svg" viewBox="0 0 448 512"><!--! Font Awesome Pro 6.5.1 by @fontawesome - https://fontawesome.com License - https://fontawesome.com/license (Commercial License) Copyright 2023 Fonticons, Inc. --><path d="M176 16V32 48 200h64V48 32 16H176zM160 200V48H96V200h64zm-80 0V48 32H96h64V16 0h16 64 16V16 32h64 16V48 64h64 16V80 192v8 24 16 24c0 48.7-25.6 91.4-64 115.4V504v8H336v-8V374.9v-4.6l4-2.3c35.9-20.8 60-59.5 60-104V240H336 320V224H256h-8v64 8h-8H136h-8V280h8 96V216H192 48v56 8c0 52.4 38.7 95.7 89.1 102.9l6.9 1v6.9V504v8H128v-8V397.6C75.8 387 35.8 342.5 32.3 288H32v-8-8V208v-8h8H80zm320 24V200v-8V80H336V208v16h64zM256 200v8h64V80 64 48H256V200z"/></svg>