<svg xmlns="http://www.w3.org/2000/svg" viewBox="0 0 512 512"><!--! Font Awesome Pro 6.5.1 by @fontawesome - https://fontawesome.com License - https://fontawesome.com/license (Commercial License) Copyright 2023 Fonticons, Inc. --><path d="M144 0h8 80 8V8 32v8l0 120h64 16v16 16h64V72 64h8 80 8v8V344c0 92.8-75.2 168-168 168h-8.5c-63.7 0-124.7-25.3-169.7-70.3L44.5 352.3 16.2 324.1l-5.7-5.7 5.7-5.7 56.6-56.6 5.7-5.7 5.7 5.7 28.3 28.3L144 316.1V8 0zM400 192v13.4V208 336v16H384 320 304 240 224V336l0-80v-8V205.4 40 32 16H160V335.4l-13.7 5.7L101 295.8 78.4 273.1 33.1 318.4 55.8 341l89.4 89.4c42 42 99 65.6 158.4 65.6H312c83.9 0 152-68.1 152-152V80H400V192zm-16 16H320V336h64l0-80 0-48zm-80-16V176H240V336h64V208 192z"/></svg>