<svg xmlns="http://www.w3.org/2000/svg" viewBox="0 0 448 512"><!--! Font Awesome Pro 6.5.1 by @fontawesome - https://fontawesome.com License - https://fontawesome.com/license (Commercial License) Copyright 2023 Fonticons, Inc. --><path d="M120 0h-8V8 116.7L50.3 178.3 48 180.7V184v64 8 8h.3c3.6 54.5 43.5 99 95.7 109.6V504v8h16v-8V366.9v-6.9l-6.9-1C102.7 351.7 64 308.4 64 256v-8V187.3l48-48V216v8h16v-8V16h80V48v8h8 56V80v8h8 56v24 8h8 56v40 8 80 8c0 44.4-24.1 83.2-60 104l-4 2.3v4.6V504v8h16v-8V371.4c38.4-24 64-66.7 64-115.4v-8V168v-8V112v-8h-8H352V80 72h-8H288V48 40h-8H224V8 0h-8H120z"/></svg>