<svg xmlns="http://www.w3.org/2000/svg" viewBox="0 0 576 512"><!--! Font Awesome Pro 6.5.1 by @fontawesome - https://fontawesome.com License - https://fontawesome.com/license (Commercial License) Copyright 2023 Fonticons, Inc. --><path d="M224 16H112V240H464V16H352V136v13.8l-12-6.8-52-29.7-52 29.7-12 6.8V136 16zm0-16h16 96 16H464h16V16 240v16H464 112 96V240 16 0h16H224zM336 16H240V122.2l44-25.2 4-2.3 4 2.3 44 25.2V16zM148.8 320h2.8H376h8v8 56 8h-8H256v24H394.8l120.9-83.1 6.6-4.5 4.5 6.6 36.3 52.7 4.5 6.6-6.6 4.5L398.5 510.6l-2 1.4h-2.5H8 0V496H8 391.5L545.4 390.2l-27.2-39.6-116.3 80-2 1.4h-2.5H248h-8v-8V384v-8h8H368V336H154.4L76.6 398.2 74.4 400H71.6 8 0V384H8 68.8l77.8-62.2 2.2-1.8z"/></svg>