<svg xmlns="http://www.w3.org/2000/svg" viewBox="0 0 512 512"><!--! Font Awesome Pro 6.5.1 by @fontawesome - https://fontawesome.com License - https://fontawesome.com/license (Commercial License) Copyright 2023 Fonticons, Inc. --><path d="M224 0h-8V8 32H144h-8v8V316.1l-31.7-31.7L76.1 256.2l-5.7-5.7-5.7 5.7L8.2 312.7l-5.7 5.7 5.7 5.7 28.3 28.3 89.4 89.4c45 45 106.1 70.3 169.7 70.3H304c92.8 0 168-75.2 168-168V104 96h-8H392V40 32h-8H312V8 0h-8H224zm88 48h64l0 48v8V248v8h16v-8V112h64V344c0 83.9-68.1 152-152 152h-8.5c-59.4 0-116.4-23.6-158.4-65.6L47.8 341 25.1 318.4l45.3-45.3L93 295.8l45.3 45.3 13.7-5.7V48h64V248v8h16v-8V48 40 32 16h64l0 16 0 8V248v8h16v-8l0-64 0-136z"/></svg>