<svg xmlns="http://www.w3.org/2000/svg" viewBox="0 0 543 512"><!--! Font Awesome Pro 6.5.1 by @fontawesome - https://fontawesome.com License - https://fontawesome.com/license (Commercial License) Copyright 2023 Fonticons, Inc. --><path d="M248.6 11.5l-2.1-7.2-7.2 2.1L166.9 27.3l-7.2 2.1 2.1 7.2 8.8 30.5L101.7 88.5l-7.2 2.2 2.2 7.2 11.1 36L163.4 313l-37.7-34.2L97.8 253.5l-5.6-5.1-5.1 5.6L36.6 309.8l-5.1 5.6 5.6 5.1L65 345.8l86.7 78.6c41.6 37.7 95.6 58.6 151.7 58.6h14.1 0l.3 0h0l.3 0h0 1.5 7.5v-.3c59.2-4 109.7-45.5 124.5-103.7L511 146.7l1.9-7.3-7.3-1.9-70.1-17.9 8-34L452.1 49l1.7-7.3-7.3-1.7L373.2 22.7 365.9 21l-1.7 7.3-8.6 36.6-41 174.4L259 47.7 248.6 11.5zM113.4 100.6l57.5-17.8 8.9 28.8 46 148.5 1.6 5.3H233h.7 10l-2.8-9.6L186.7 68.6l-8.4-28.9 57.9-16.7 8.4 28.9 60.2 208.1 1.6 5.4H312h5.9 6l1.4-5.8 45-191.2 6.9-29.3 58.6 13.8-6.9 29.3L387.9 256.1l-2.2 9.3h9.5 1.9H403l1.4-5.7 31.8-124.3 58.4 14.9L437.1 375.2c-13.8 54-62 91.9-117.6 92.6l-.8 0h-.6 0l-.3 0h0l-.3 0h0H303.4c-52.4 0-102.8-19.5-141.6-54.7L75.1 334.6 52.8 314.4l40.5-44.6L115.5 290l50.1 45.4L182.2 323 122.3 129.4l-8.9-28.8z"/></svg>