<svg xmlns="http://www.w3.org/2000/svg" viewBox="0 0 384 512"><!--! Font Awesome Pro 6.5.1 by @fontawesome - https://fontawesome.com License - https://fontawesome.com/license (Commercial License) Copyright 2023 Fonticons, Inc. --><path d="M89.5 4l3.1 7.4 15.6 36.8L120 76.1l11.8-27.9 15.6-36.8L150.5 4l7.4 3.1 73.7 31.2 7.4 3.1-3.1 7.4L220.2 85.6 148.1 256H208V192v-8h8 80 8v8 8h72 8v8 72 64 8 8c0 83.9-68.1 152-152 152H152C68.1 512 0 443.9 0 360V264v-8H8 43.9l7.9-18.7 16.1-38L19.8 85.6 4.2 48.8 1.1 41.4l7.4-3.1L82.1 7.1 89.5 4zM76.6 178.7l34.7-82.1L93.5 54.4 81 25 22.1 49.9 34.5 79.4l42 99.4zM61.3 256h69.5L205.5 79.4l12.5-29.5L159 25 146.5 54.4l-80 189.1L61.3 256zM368 280V216H304V336h64V280zm0 72H304h-8-8H224h-8-8H104 96V336h8H208V272H16v88c0 75.1 60.9 136 136 136h80c75.1 0 136-60.9 136-136v-8zM224 336h64V208v-8H224l0 56v8l0 72z"/></svg>