<svg xmlns="http://www.w3.org/2000/svg" viewBox="0 0 576 512"><!--! Font Awesome Pro 6.5.1 by @fontawesome - https://fontawesome.com License - https://fontawesome.com/license (Commercial License) Copyright 2023 Fonticons, Inc. --><path d="M144 80c0-35.3 28.7-64 64-64H328c57.4 0 104 46.6 104 104s-46.6 104-104 104H256h-8v8 40 8h16v-8V240h64c66.3 0 120-53.7 120-120S394.3 0 328 0H208c-44.2 0-80 35.8-80 80s35.8 80 80 80h88 8V144h-8H208c-35.3 0-64-28.7-64-64zm7.6 240h-2.8l-2.2 1.8L68.8 384H8 0v16H8 71.6h2.8l2.2-1.8L154.4 336H368v40H248h-8v8 40 8h8H397.3h2.5l2-1.4 116.3-80 27.2 39.6L391.5 496H8 0v16H8 393.9h2.5l2-1.4L561 398.8l6.6-4.5-4.5-6.6L526.8 335l-4.5-6.6-6.6 4.5L394.8 416H256V392H376h8v-8V328v-8h-8H151.6z"/></svg>