<svg xmlns="http://www.w3.org/2000/svg" viewBox="0 0 512 512"><!--! Font Awesome Pro 6.5.1 by @fontawesome - https://fontawesome.com License - https://fontawesome.com/license (Commercial License) Copyright 2023 Fonticons, Inc. --><path d="M216 0h8 80 8V8 32h72 8v8V96h72 8v8V344c0 92.8-75.2 168-168 168h-8.5c-63.7 0-124.7-25.3-169.7-70.3L36.5 352.3 8.2 324.1l-5.7-5.7 5.7-5.7 56.6-56.6 5.7-5.7 5.7 5.7 28.3 28.3L136 316.1V40 32h8 72V8 0zm96 184l0 64v8H296v-8V40l0-8 0-16H232V32v8 8V248v8H216v-8V48H152V335.4l-13.7 5.7L93 295.8 70.4 273.1 25.1 318.4 47.8 341l89.4 89.4c42 42 99 65.6 158.4 65.6H304c83.9 0 152-68.1 152-152V112H392V248v8H376v-8V104 96l0-48H312l0 136zM189.7 337.1c0-28.6 23.2-51.8 51.8-51.8H245c14 0 27.5 5.3 37.8 14.9l5.2 4.8 5.2-4.8c10.3-9.6 23.8-14.9 37.8-14.9h3.5c28.6 0 51.8 23.2 51.8 51.8c0 14.3-5.9 28-16.4 37.8l-70.9 66.4L288 451.5l-10.9-10.2-70.9-66.4c-10.5-9.8-16.4-23.5-16.4-37.8zm87.4-20.4l-5.2-4.8c-7.3-6.8-16.9-10.6-26.9-10.6h-3.5c-19.8 0-35.8 16-35.8 35.8c0 9.9 4.1 19.4 11.3 26.1L288 429.6l70.9-66.4c7.2-6.8 11.3-16.2 11.3-26.1c0-19.8-16-35.8-35.8-35.8H331c-10 0-19.6 3.8-26.9 10.6l-5.2 4.8L288 327l-10.9-10.2z"/></svg>