<svg xmlns="http://www.w3.org/2000/svg" viewBox="0 0 448 512"><!--! Font Awesome Pro 6.5.1 by @fontawesome - https://fontawesome.com License - https://fontawesome.com/license (Commercial License) Copyright 2023 Fonticons, Inc. --><path d="M192 0h-8V8 192H112h-8v8 47.4L34.8 305.9 32 308.3V312v53.7c0 48.8 26.2 93.9 68.5 118.1l18 10.3C139.1 505.8 162.3 512 186 512H328c57.4 0 104-46.6 104-104V392 304 256v-8h-8H368V224v-8h-8H288V8 0h-8H192zm8 200V16h72V224v8h8 72v24 8h8 56v40 88 16c0 48.6-39.4 88-88 88H186c-20.9 0-41.4-5.4-59.5-15.8l-18-10.3C71.1 448.5 48 408.8 48 365.7v-50l56-47.4V344c0 4.4 3.6 8 8 8s8-3.6 8-8V256c0-.4 0-.8-.1-1.1l.1-.1v-3.7V208h72 8v-8z"/></svg>