<svg xmlns="http://www.w3.org/2000/svg" viewBox="0 0 603 512"><!--! Font Awesome Pro 6.5.1 by @fontawesome - https://fontawesome.com License - https://fontawesome.com/license (Commercial License) Copyright 2023 Fonticons, Inc. --><path d="M247.2 26.4l6.5 5.5 47.5 40.7 47.5-40.7 6.5-5.5 4.7 7.1L480.2 214.2l1.3 1.9v2.3V318.5l115.6 43.3L591.8 376 471.3 330.8l-4.9-1.8v-5.2V220.6L352 48.9 310.3 84.6l64.9 122.6 .1 .3 .8 1.5v1.9V316.2v7.5H361v-7.5V218.4H309v183l287.8 95.9-4.8 14.3-290.9-97-290.9 97L5.5 497.3l287.8-95.9v-183h-52v97.9 7.5H226.2v-7.5V210.8 209l.8-1.5 .1-.3L292 84.6 250.3 48.9 135.9 220.6V323.8 329l-4.9 1.8L10.5 376 5.2 361.9l115.6-43.3V218.4v-2.3l1.3-1.9L242.5 33.5l4.7-7.1zm46 176.9h7.5 .7H309h47L301.1 99.6 246.2 203.3h47z"/></svg>