<svg xmlns="http://www.w3.org/2000/svg" viewBox="0 0 640 512"><!--! Font Awesome Pro 6.5.1 by @fontawesome - https://fontawesome.com License - https://fontawesome.com/license (Commercial License) Copyright 2023 Fonticons, Inc. --><path d="M88 64c4.4 0 8 3.6 8 8V284.7l7.5 7.5 42.4-49.4 5.6-6.6 6.1 6.1 144 144 2.3 2.3V392 504v8H288v-8V395.3L152.5 259.8l-37.6 43.8 74.8 74.8 8 8 5.7 5.7L192 403.3l-5.7-5.7-8-8-80-80-5.2-5.2L82.3 293.7c-1.5-1.5-2.3-3.5-2.3-5.7V80H16V380.7L133.7 498.3l-11.3 11.3-120-120C.8 388.2 0 386.1 0 384V72c0-4.4 3.6-8 8-8H88zm456 8c0-4.4 3.6-8 8-8h80c4.4 0 8 3.6 8 8V384c0 2.1-.8 4.2-2.3 5.7l-120 120-11.3-11.3L624 380.7V80H560V288c0 2.1-.8 4.2-2.3 5.7l-10.8 10.8-5.2 5.2-80 80-8 8-5.7 5.7L436.7 392l5.7-5.7 8-8 74.8-74.8-37.6-43.8L352 395.3V504v8H336v-8V392v-3.3l2.3-2.3 144-144 6.1-6.1 5.6 6.6 42.4 49.4 7.5-7.5V72z"/></svg>