<svg xmlns="http://www.w3.org/2000/svg" viewBox="0 0 384 512"><!--! Font Awesome Pro 6.5.1 by @fontawesome - https://fontawesome.com License - https://fontawesome.com/license (Commercial License) Copyright 2023 Fonticons, Inc. --><path d="M56 0H48V8 256H8 0v8 96c0 83.9 68.1 152 152 152h80c83.9 0 152-68.1 152-152v-8-8V280 208v-8h-8H304v-8-8h-8H224V160v-8h-8H144V8 0h-8H56zm88 168h64l0 16v8 64H144V168zm64 104l0 0 0 64H104 96v16h8H208h8 8 64 8 8 64v8c0 75.1-60.9 136-136 136H152C76.9 496 16 435.1 16 360V272H48v0H64v0h64v0h16v0h64zm16 0l0-8v-8l0-56h64v8V336H224l0-64zm-96-16H64V16h64V152v8 96zm240 24v56H304V216h64v64z"/></svg>