<svg xmlns="http://www.w3.org/2000/svg" viewBox="0 0 448 512"><!--! Font Awesome Pro 6.5.1 by @fontawesome - https://fontawesome.com License - https://fontawesome.com/license (Commercial License) Copyright 2023 Fonticons, Inc. --><path d="M104 0H96V8 64H32 15.4L25.8 77l28 35-28 35L15.4 160H32 96v96H56 48v8 96c0 83.9 68.1 152 152 152h80c83.9 0 152-68.1 152-152v-8-8V280 208v-8h-8H352v-8-8h-8H272V160v-8h-8H192v-8h0V80h0V64h0V8 0h-8H104zm72 64H112V16h64V64zM96 80v64H48.6l21.6-27 4-5-4-5L48.6 80H96zm16 64V80h64v64H112zm0 16h64v96H112V160zm80 8h64l0 16v8 64H192V168zm64 104l0 0 0 64H152h-8v16h8H256h8 8 64 8 8 64v8c0 75.1-60.9 136-136 136H200c-75.1 0-136-60.9-136-136V272H96v0h16v0h64v0h16v0h64zm16 0v-8-8V200h64v8V336H272V272zm144 8v56H352V216h64v64z"/></svg>