<svg xmlns="http://www.w3.org/2000/svg" viewBox="0 0 640 512"><!--! Font Awesome Pro 6.5.1 by @fontawesome - https://fontawesome.com License - https://fontawesome.com/license (Commercial License) Copyright 2023 Fonticons, Inc. --><path d="M208 128a112 112 0 1 1 224 0 112 112 0 1 1 -224 0zm240 0a128 128 0 1 0 -256 0 128 128 0 1 0 256 0zM96 72c0-4.4-3.6-8-8-8H8c-4.4 0-8 3.6-8 8V384c0 2.1 .8 4.2 2.3 5.7l120 120 11.3-11.3L16 380.7V80H80V288c0 2.1 .8 4.2 2.3 5.7l10.8 10.8 5.2 5.2 80 80 8 8 5.7 5.7L203.3 392l-5.7-5.7-8-8-74.8-74.8 37.6-43.8L288 395.3V504v8h16v-8V392v-3.3l-2.3-2.3-144-144-6.1-6.1-5.6 6.6-42.4 49.4L96 284.7V72zm456-8c-4.4 0-8 3.6-8 8V284.7l-7.5 7.5-42.4-49.4-5.6-6.6-6.1 6.1-144 144-2.3 2.3V392 504v8h16v-8V395.3L487.5 259.8l37.6 43.8-74.8 74.8-8 8-5.7 5.7L448 403.3l5.7-5.7 8-8 80-80 5.2-5.2 10.8-10.8c1.5-1.5 2.3-3.5 2.3-5.7V80h64V380.7L506.3 498.3l11.3 11.3 120-120c1.5-1.5 2.3-3.5 2.3-5.7V72c0-4.4-3.6-8-8-8H552z"/></svg>