<svg xmlns="http://www.w3.org/2000/svg" viewBox="0 0 640 512"><!--! Font Awesome Pro 6.5.1 by @fontawesome - https://fontawesome.com License - https://fontawesome.com/license (Commercial License) Copyright 2023 Fonticons, Inc. --><path d="M307.5 49.9L320 65.5l12.5-15.6 9.3-11.6c11.3-14.1 28.5-22.4 46.6-22.4c32.9 0 59.6 26.7 59.6 59.6v3.6c0 16.8-6.7 32.8-18.5 44.7l-24.8 24.8L320 233.3l-84.7-84.7-24.8-24.8C198.7 111.9 192 95.9 192 79.1V75.6c0-32.9 26.7-59.6 59.6-59.6c18.1 0 35.3 8.2 46.6 22.4l9.3 11.6zm12.5 206l11.3-11.3L416 159.9l24.8-24.8c14.9-14.9 23.2-35 23.2-56V75.6C464 33.8 430.1-.1 388.4-.1c-22.5 0-43.7 10-58.1 27.2c-.3 .4-.6 .8-1 1.2L320 39.9l-9.3-11.6c-.3-.4-.6-.8-1-1.2C295.4 9.9 274.1-.1 251.6-.1C209.9-.1 176 33.8 176 75.6v3.6c0 21 8.3 41.1 23.2 56L224 159.9l84.7 84.7L320 255.9zM96 72c0-4.4-3.6-8-8-8H8c-4.4 0-8 3.6-8 8V384c0 2.1 .8 4.2 2.3 5.7l120 120 11.3-11.3L16 380.7V80H80V288c0 2.1 .8 4.2 2.3 5.7l10.8 10.8 5.2 5.2 80 80 8 8 5.7 5.7L203.3 392l-5.7-5.7-8-8-74.8-74.8 37.6-43.8L288 395.3V504v8h16v-8V392v-3.3l-2.3-2.3-144-144-6.1-6.1-5.6 6.6-42.4 49.4L96 284.7V72zm456-8c-4.4 0-8 3.6-8 8V284.7l-7.5 7.5-42.4-49.4-5.6-6.6-6.1 6.1-144 144-2.3 2.3V392 504v8h16v-8V395.3L487.5 259.8l37.6 43.8-74.8 74.8-8 8-5.7 5.7L448 403.3l5.7-5.7 8-8 80-80 5.2-5.2 10.8-10.8c1.5-1.5 2.3-3.5 2.3-5.7V80h64V380.7L506.3 498.3l11.3 11.3 120-120c1.5-1.5 2.3-3.5 2.3-5.7V72c0-4.4-3.6-8-8-8H552z"/></svg>