<svg xmlns="http://www.w3.org/2000/svg" viewBox="0 0 640 512"><!--! Font Awesome Pro 6.5.1 by @fontawesome - https://fontawesome.com License - https://fontawesome.com/license (Commercial License) Copyright 2023 Fonticons, Inc. --><path d="M280 0h8 80 8V8 32h72 8v8V96h72 8v8V312H520V112H456V248v8H440v-8V104 96l0-48H376l0 136 0 64v8H360v-8V40l0-8 0-16H296V32v8 8V248v8H280v-8V48H216V335.4l-13.7 5.7L157 295.8l-22.6-22.6L89.1 318.4 111.8 341l89.4 89.4c42 42 99 65.6 158.4 65.6H368c26.1 0 50.6-6.6 72-18.1l0 17.9c-21.8 10.4-46.2 16.2-72 16.2h-8.5c-63.7 0-124.7-25.3-169.7-70.3l-89.4-89.4L72.2 324.1l-5.7-5.7 5.7-5.7 56.6-56.6 5.7-5.7 5.7 5.7 28.3 28.3L200 316.1V40 32h8 72V8 0zM88 80v56h56 8v16h-8H88v56 8H72v-8V152H16 8V136h8H72V80 72H88v8zM328 304v40h40 8v16h-8H328v40 8H312v-8V360H272h-8V344h8 40V304v-8h16v8zm240 64v56h56 8v16h-8H568v56 8H552v-8V440H496h-8V424h8 56V368v-8h16v8z"/></svg>