<svg xmlns="http://www.w3.org/2000/svg" viewBox="0 0 640 512"><!--! Font Awesome Pro 6.5.1 by @fontawesome - https://fontawesome.com License - https://fontawesome.com/license (Commercial License) Copyright 2023 Fonticons, Inc. --><path d="M209.3 64H294L277.1 80h-65l-73.9 62.1c-1.4 1.2-3.3 1.9-5.1 1.9H40 32V128h8 90.2l73.9-62.1c1.4-1.2 3.3-1.9 5.1-1.9zm131.3 0h3.2 85.6 2.9l2.2 1.9L508.4 128H600h8v16h-8H505.5h-2.9l-2.2-1.9L426.4 80H346.9L194.9 224l64.7 64.7L364 184.4l5.7-5.7L380.9 190l-5.7 5.7-13.9 13.9L484.3 332.5l3.5 3.5H600h8v16h-8H480h-3.9l-59.6 59.6-5.7 5.7-5.7-5.7-26-26-56.9 56.9-5.7 5.7-5.7-5.7-43-43-37 37-5.7 5.7-5.7-5.7L191 407.7l0 0-5.7-5.7L135.2 352H48 40l0-16h8 90.5 3.3l2.3 2.3 37 37 0 0 44.1 44.1 37-37 5.7-5.7 5.7 5.7 43 43 56.9-56.9 5.7-5.7 5.7 5.7 26 26 56.5-56.5L350.1 220.9l-84.8 84.8-5.7 5.7-5.7-5.7-76.2-76.2-5.8-5.8 6-5.7L338.3 66.2l2.3-2.2z"/></svg>