<svg xmlns="http://www.w3.org/2000/svg" viewBox="0 0 384 512"><!--! Font Awesome Pro 6.5.1 by @fontawesome - https://fontawesome.com License - https://fontawesome.com/license (Commercial License) Copyright 2023 Fonticons, Inc. --><path d="M56 512H48v-8V256H8 0v-8V152C0 68.1 68.1 0 152 0h80c83.9 0 152 68.1 152 152v8 8 64 72 8h-8H304v8 8h-8H224v24 8h-8H144V504v8h-8H56zm88-168h64l0-16v-8V256H144v88zm64-104l0 0 0-64H104 96V160h8H208h8 8 64 8 8 64v-8c0-75.1-60.9-136-136-136H152C76.9 16 16 76.9 16 152v88H48v0H64v0h64v0h16v0h64zm16 0l0 8v8l0 56h64v-8V176H224l0 64zm-96 16H64V496h64V360v-8V256zm240-24V176H304V296h64V232z"/></svg>