<svg xmlns="http://www.w3.org/2000/svg" viewBox="0 0 512 512"><!--! Font Awesome Pro 6.5.1 by @fontawesome - https://fontawesome.com License - https://fontawesome.com/license (Commercial License) Copyright 2023 Fonticons, Inc. --><path d="M216 0h8 80 8V8 32h72 8v8V96h72 8v8V344c0 92.8-75.2 168-168 168h-8.5c-63.7 0-124.7-25.3-169.7-70.3L36.5 352.3 8.2 324.1l-5.7-5.7 5.7-5.7 56.6-56.6 5.7-5.7 5.7 5.7 28.3 28.3L136 316.1V40 32h8 72V8 0zm96 184l0 64v8H296v-8V40l0-8 0-16H232V32v8 8V248v8H216v-8V48H152V335.4l-13.7 5.7L93 295.8 70.4 273.1 25.1 318.4 47.8 341l89.4 89.4c42 42 99 65.6 158.4 65.6H304c83.9 0 152-68.1 152-152V112H392V248v8H376v-8V104 96l0-48H312l0 136zM208 324a12 12 0 1 1 0 24 12 12 0 1 1 0-24zm64 32a12 12 0 1 1 0 24 12 12 0 1 1 0-24zm116 12a12 12 0 1 1 24 0 12 12 0 1 1 -24 0zm-20 52a12 12 0 1 1 0 24 12 12 0 1 1 0-24zM260 432a12 12 0 1 1 24 0 12 12 0 1 1 -24 0zm-84-44a12 12 0 1 1 0 24 12 12 0 1 1 0-24zm148-52a12 12 0 1 1 24 0 12 12 0 1 1 -24 0z"/></svg>