<svg xmlns="http://www.w3.org/2000/svg" viewBox="0 0 543 512"><!--! Font Awesome Pro 6.5.1 by @fontawesome - https://fontawesome.com License - https://fontawesome.com/license (Commercial License) Copyright 2023 Fonticons, Inc. --><path d="M236.4 28.9h-7.5v7.5 71.5H157.3h-7.5v7.5 70.3 7.5h7.5 71.5v71.5 7.5h7.5 70.3 7.5v-7.5V193.3h71.5 7.5v-7.5V115.5v-7.5h-7.5H314.2V36.4 28.9h-7.5H236.4zm7.5 86.6V43.9h55.2v71.5V123h7.5 71.5v55.2H306.6h-7.5v7.5 71.5H243.9V185.7v-7.5h-7.5H164.8V123h71.5 7.5v-7.5zM143.1 331.3h-2.6l-2.1 1.7L65.2 391.5H8 .4v15.1H8 67.8h2.6l2.1-1.7 73.2-58.6h201V384H233.9h-7.5v7.5 37.6 7.5h7.5H374.4h2.3l1.9-1.3 109.5-75.3 25.6 37.2L368.9 496.9H8 .4V512H8 371.2h2.3l1.9-1.3 153-105.2 6.2-4.3-4.3-6.2-34.1-49.6-4.3-6.2-6.2 4.3L372.1 421.6H241.4V399.1H354.3h7.5v-7.5V338.8v-7.5h-7.5H143.1z"/></svg>