<svg xmlns="http://www.w3.org/2000/svg" viewBox="0 0 640 512"><!--! Font Awesome Pro 6.5.1 by @fontawesome - https://fontawesome.com License - https://fontawesome.com/license (Commercial License) Copyright 2023 Fonticons, Inc. --><path d="M195.1 238.8l-19.8 11.7L96 144.8V96 32 16 0H80 48 32V16 32 96v59.1 .7V192v32 11.8l7.7 9L145.3 368H128h-8v16h8 31 1 16 96 16 64 16 96 16 1 31 8V368h-8H494.7L600.3 244.8l7.7-9V224 192 155.8v-.7V96 32 16 0H592 560 544V16 32 96v48.8L464.7 250.5l-19.8-11.7-13.9-8.2 9.7-12.9 40.9-54.5-50.4-39.5-72 88-7.2 8.8V232v88 32 16H288V352 320 232 220.6l-7.2-8.8-72-88-50.4 39.5 40.9 54.5 9.7 12.9-13.9 8.2zM176 368h-9.6l-4.8-5.6L51.9 234.4 48 229.9V224 192 155.8v-.7V96 32 16H80V32 96v48.8 5.3l3.2 4.3 79.3 105.7 8.6 11.5 12.3-7.3 33.7-19.9 15.4-9.1L221.7 221l-41.1-54.9L206.3 146l62.1 75.9 3.6 4.4V232v88 32 16H176zm288 0H368V352 320 232v-5.7l3.6-4.4L433.7 146l25.7 20.1L418.3 221l-10.7 14.3 15.4 9.1 33.7 19.9 12.3 7.3 8.6-11.5 79.3-105.7 3.2-4.3v-5.3V96 32 16h32V32 96v59.1 .7V192v32 5.9l-3.9 4.5-109.7 128-4.8 5.6H464zM176 464H160v32 16h16 96 16V496 464H272v32H176V464zm288 0v32H368V464H352v32 16h16 96 16V496 464H464zM128 416h-8v16h8H512h8V416h-8H128z"/></svg>