<svg xmlns="http://www.w3.org/2000/svg" viewBox="0 0 576 512"><!--! Font Awesome Pro 6.5.1 by @fontawesome - https://fontawesome.com License - https://fontawesome.com/license (Commercial License) Copyright 2023 Fonticons, Inc. --><path d="M424.4 224h2.8l2.2-1.8L507.2 160H568h8V144h-8H504.4h-2.8l-2.2 1.8L421.6 208H208V168H328h8v-8V120v-8h-8H178.7h-2.5l-2 1.4-116.3 80L30.6 153.8 184.5 48H568h8V32h-8H182.1h-2.5l-2 1.4L15 145.2l-6.6 4.5 4.5 6.6L49.2 209l4.5 6.6 6.6-4.5L181.2 128H320v24H200h-8v8 56 8h8H424.4zM151.6 288h-2.8l-2.2 1.8L68.8 352H8 0v16H8 71.6h2.8l2.2-1.8L154.4 304H368v40H248h-8v8 40 8h8H397.3h2.5l2-1.4 116.3-80 27.2 39.6L391.5 464H8 0v16H8 393.9h2.5l2-1.4L561 366.8l6.6-4.5-4.5-6.6L526.8 303l-4.5-6.6-6.6 4.5L394.8 384H256V360H376h8v-8V296v-8h-8H151.6z"/></svg>