<svg xmlns="http://www.w3.org/2000/svg" viewBox="0 0 640 512"><!--! Font Awesome Pro 6.5.1 by @fontawesome - https://fontawesome.com License - https://fontawesome.com/license (Commercial License) Copyright 2023 Fonticons, Inc. --><path d="M209.3 64c-1.9 0-3.7 .7-5.1 1.9L144 116.4v20.9L212.2 80h65L294 64H209.3zM112 352h23.2l50.1 50.1 5.7 5.7 0 0 28.7 28.7 5.7 5.7 5.7-5.7 37-37 43 43 5.7 5.7 5.7-5.7 56.9-56.9 26 26 5.7 5.7 5.7-5.7L476.1 352H480h48v32 16h16 80 16V384 144 128H624 544 528v16V336H487.8l-3.5-3.5L361.4 209.6l13.9-13.9 5.7-5.7-11.3-11.3-5.7 5.7L259.6 288.7 194.9 224 346.9 80h79.5L496 138.5V117.6L434.5 65.9 432.2 64h-2.9H343.8h-3.2l-2.3 2.2L177.9 218.1l-6 5.7 5.8 5.8 76.2 76.2 5.7 5.7 5.7-5.7 84.8-84.8L467.3 338.1l-56.5 56.5-26-26-5.7-5.7-5.7 5.7-56.9 56.9-43-43-5.7-5.7-5.7 5.7-37 37-44.1-44.1 0 0-37-37-2.3-2.3h-3.3H112V144 128H96 16 0v16V384v16H16 96h16V384 352zM96 144V384H16V144H96zm528 0V384H544V144h80z"/></svg>