<svg xmlns="http://www.w3.org/2000/svg" viewBox="0 0 576 512"><!--! Font Awesome Pro 6.5.1 by @fontawesome - https://fontawesome.com License - https://fontawesome.com/license (Commercial License) Copyright 2023 Fonticons, Inc. --><path d="M353.6 32H370L345.1 144H445.9l-3.2 16H341.5L298.9 352H320l0 16H295.3L270.4 480H254l24.9-112H103.3L78.4 480H62L86.9 368H2.1l3.2-16H90.5l42.7-192H43.7l3.2-16h89.8L161.6 32H178L153.1 144H328.7L353.6 32zM149.5 160L106.9 352H282.5l42.7-192H149.5zM464 208c-26.5 0-48 21.5-48 48v64h96V256c0-26.5-21.5-48-48-48zm-64 48c0-35.3 28.7-64 64-64s64 28.7 64 64v64h32 16v16V496v16H560 368 352V496 336 320h16 32V256zm-32 80V496H560V336H528 512 416 400 368z"/></svg>