<svg xmlns="http://www.w3.org/2000/svg" viewBox="0 0 576 512"><!--! Font Awesome Pro 6.5.1 by @fontawesome - https://fontawesome.com License - https://fontawesome.com/license (Commercial License) Copyright 2023 Fonticons, Inc. --><path d="M480 176l22.1 33.1L512 224l8.9-15.5L576 112 448 0 208 128 96 384h17.5l107-244.5L445.8 19.3l109.8 96.1L511 193.6l-17.6-26.5-4.7-7.1H480 432h-9.9l-4.4 8.8-16 32-3.1 6.2 2.4 6.5L463 384h17L416 208l16-32h48zM240 336h96v48h16V336 320H336 240 224v16 48h16V336zm320 96v6.1L444.2 496H131.8L16 438.1V432H560zm0-16H16 0v16 16l128 64H448l128-64V432 416H560z"/></svg>