<svg xmlns="http://www.w3.org/2000/svg" viewBox="0 0 512 512"><!--! Font Awesome Pro 6.5.1 by @fontawesome - https://fontawesome.com License - https://fontawesome.com/license (Commercial License) Copyright 2023 Fonticons, Inc. --><path d="M426.9 20.4L384 192l74.3 208h-17L368.9 197.4l-1.6-4.6 1.2-4.7L408 29.9 188.3 139.7 72.6 400H55.1L176 128 413.2 9.4 432 0l-5.1 20.4zM496 448H16v48H496V448zM16 432H496h16v16 48 16H496 16 0V496 448 432H16zM280 144v24h24 8v16h-8H280v24 8H264v-8V184H240h-8V168h8 24V144v-8h16v8zM232 280v48h48 8v16h-8H232v56H216V344H168h-8V328h8 48V280v-8h16v8z"/></svg>