<svg xmlns="http://www.w3.org/2000/svg" viewBox="0 0 512 512"><!--! Font Awesome Pro 6.5.1 by @fontawesome - https://fontawesome.com License - https://fontawesome.com/license (Commercial License) Copyright 2023 Fonticons, Inc. --><path d="M16 224C16 109.1 109.1 16 224 16h24c95.7 0 172.5 77.9 176 172.7l.1 3.4 2.6 2.3L496 256v64H440h-8v8V432H312h-8v8 64 8h16v-8V448H440h8v-8V336h56 8v-8V252.4v-3.6l-2.7-2.4-69.5-61.8C434.3 83.3 351.6 0 248 0H224C100.3 0 0 100.3 0 224c0 59.1 23.7 114.5 64 156.7V504v8H80v-8V377.5v-3.3l-2.3-2.3C38.7 332.1 16 279.7 16 224zM208 96h-8v8 64H136h-8v8 64 8h8 64v64 8h8 64 8v-8V248h64 8v-8V176v-8h-8H280V104 96h-8H208zm8 80V112h48v64 8h8 64v48H272h-8v8 64H216V240v-8h-8H144V184h64 8v-8z"/></svg>