<svg xmlns="http://www.w3.org/2000/svg" viewBox="0 0 512 512"><!--! Font Awesome Pro 6.5.1 by @fontawesome - https://fontawesome.com License - https://fontawesome.com/license (Commercial License) Copyright 2023 Fonticons, Inc. --><path d="M16 224C16 109.1 109.1 16 224 16h24c95.7 0 172.5 77.9 176 172.7l.1 3.4 2.6 2.3L496 256v64H440h-8v8V432H312h-8v8 64 8h16v-8V448H440h8v-8V336h56 8v-8V252.4v-3.6l-2.7-2.4-69.5-61.8C434.3 83.3 351.6 0 248 0H224C100.3 0 0 100.3 0 224c0 59.1 23.7 114.5 64 156.7V504v8H80v-8V377.5v-3.3l-2.3-2.3C38.7 332.1 16 279.7 16 224zM208 64h-8v8V88v3c-2.2 20-26.1 29.9-41.7 17.3l-2.1-2.1L144.8 94.9l-5.7-5.7-5.7 5.7-22.6 22.6-5.7 5.7 5.7 5.7 11.3 11.3 2.1 2.1c12.6 15.7 2.7 39.6-17.3 41.7h-3H88 80v8 32 8h8 16 3c20 2.2 29.9 26.1 17.3 41.7l-2.1 2.1-11.3 11.3-5.7 5.7 5.7 5.7 22.6 22.6 5.7 5.7 5.7-5.7 11.3-11.3 2.1-2.1c15.7-12.6 39.6-2.7 41.7 17.3v3 16 8h8 32 8v-8V328v-3c2.2-20 26.1-29.9 41.7-17.3l2.1 2.1 11.3 11.3 5.7 5.7 5.7-5.7 22.6-22.6 5.7-5.7-5.7-5.7-11.3-11.3-2.1-2.1C311.1 258.1 321 234.1 341 232h3 16 8v-8V192v-8h-8H344h-3c-20-2.2-29.9-26.1-17.3-41.7l2.1-2.1 11.3-11.3 5.7-5.7-5.7-5.7L314.5 94.9l-5.7-5.7-5.7 5.7-11.3 11.3-2.1 2.1C274.1 120.9 250.1 111 248 91V88 72 64h-8H208zm8 24V80h16v8 3.4 .4l0 .4c3.1 33.1 42.5 49.4 68.2 28.2l.3-.2 .3-.3 2.4-2.4 5.7-5.7 11.3 11.3-5.7 5.7-2.4 2.4-.3 .3-.2 .3c-21.2 25.6-4.9 65 28.2 68.2l.4 0h.4H344h8v16h-8-3.4-.4l-.4 0c-33.1 3.1-49.4 42.5-28.2 68.2l.2 .3 .3 .3 2.4 2.4 5.7 5.7-11.3 11.3-5.7-5.7-2.4-2.4-.3-.3-.3-.2c-25.6-21.2-65-4.9-68.2 28.2l0 .4v.4V328v8H216v-8-3.4-.4l0-.4c-3.1-33.1-42.5-49.5-68.2-28.2l-.3 .2-.3 .3-2.4 2.4-5.7 5.7-11.3-11.3 5.7-5.7 2.4-2.4 .3-.3 .2-.3c21.2-25.6 4.9-65-28.2-68.2l-.4 0h-.4H104 96V200h8 3.4 .4l.4 0c33.1-3.1 49.5-42.5 28.2-68.2l-.2-.3-.3-.3-2.4-2.4-5.7-5.7 11.3-11.3 5.7 5.7 2.4 2.4 .3 .3 .3 .2c25.6 21.2 65 4.9 68.2-28.2l0-.4v-.4V88zM192 192a16 16 0 1 0 0-32 16 16 0 1 0 0 32zm80 48a16 16 0 1 0 -32 0 16 16 0 1 0 32 0z"/></svg>