<svg xmlns="http://www.w3.org/2000/svg" viewBox="0 0 512 512"><!--! Font Awesome Pro 6.5.1 by @fontawesome - https://fontawesome.com License - https://fontawesome.com/license (Commercial License) Copyright 2023 Fonticons, Inc. --><path d="M77.7 371.9C38.7 332.1 16 279.7 16 224H0c0 59.1 23.7 114.4 64 156.7V504v8H80v-8V377.5v-3.3l-2.3-2.3zM40.1 96H8 0v8 80 8H8 222.2c15.7 24.1 42.9 40 73.8 40H408h96 8v-8V64 56h-8H408 382.4C347.9 21.5 300.6 0 248 0H224C147.9 0 80.6 38 40.1 96zM60 96c38.1-48.7 97.4-80 164-80h24c42.1 0 80.5 15.1 110.6 40H296c-30.9 0-58.1 15.9-73.8 40H60zM496 320H440h-8v8V432H312h-8v8 64 8h16v-8V448H440h8v-8V336h56 8v-8V256H496v64zM296 72H400V216H296c-39.8 0-72-32.2-72-72s32.2-72 72-72zM416 216V72h80V216H416zM208 144c0 11.3 2.1 22.1 6 32H16V112H214c-3.9 9.9-6 20.7-6 32z"/></svg>