<svg xmlns="http://www.w3.org/2000/svg" viewBox="0 0 512 512"><!--! Font Awesome Pro 6.5.1 by @fontawesome - https://fontawesome.com License - https://fontawesome.com/license (Commercial License) Copyright 2023 Fonticons, Inc. --><path d="M168 23.6v79.7c12.4-4.8 25.9-7.4 40-7.4s27.6 2.6 40 7.4V16H224c-19.4 0-38.2 2.7-56 7.6zm-16 5.2C72.6 58.1 16 134.4 16 224c0 55.7 22.7 108.1 61.7 147.9l2.3 2.3v3.3V504v8H64v-8V380.7C23.7 338.4 0 283.1 0 224C0 100.3 100.3 0 224 0h24C351.6 0 434.3 83.3 439.8 184.7l69.5 61.8 2.7 2.4v3.6V328v8h-8H448V440v8h-8H320v56 8H304v-8V440v-8h8H432V328v-8h8 56V256l-69.3-61.6-2.6-2.3-.1-3.4c-3.3-89.4-71.9-163.9-160-172V111c33.5 19.4 56 55.6 56 97c0 61.9-50.1 112-112 112s-112-50.1-112-112c0-41.5 22.5-77.7 56-97V28.8zM304 208a96 96 0 1 0 -192 0 96 96 0 1 0 192 0zm-96 32a32 32 0 1 0 0-64 32 32 0 1 0 0 64zm0-80a48 48 0 1 1 0 96 48 48 0 1 1 0-96z"/></svg>