<svg xmlns="http://www.w3.org/2000/svg" viewBox="0 0 640 512"><!--! Font Awesome Pro 6.5.1 by @fontawesome - https://fontawesome.com License - https://fontawesome.com/license (Commercial License) Copyright 2023 Fonticons, Inc. --><path d="M224 16C109.1 16 16 109.1 16 224c0 55.7 22.7 108.1 61.7 147.9l2.3 2.3v3.3V504v8H64v-8V380.7C23.7 338.4 0 283.1 0 224C0 100.3 100.3 0 224 0h24C351.6 0 434.3 83.3 439.8 184.7l69.5 61.8 2.7 2.4v3.6V328v8h-8H448v0 32 7.4l-7.4 .5L336 383.4v25.2l88.7 7.4 7.3 .6V424v48 8h-8H320v24 8H304v-8V472v-8h8H416V431.4L327.3 424l-7.3-.6V416 376v-7.4l7.4-.5L432 360.6V336v-8 0-8h8 56V256l-69.3-61.6-2.6-2.3-.1-3.4C420.5 93.9 343.7 16 248 16H224zm96 192a16 16 0 1 1 32 0 16 16 0 1 1 -32 0zm288 96a16 16 0 1 1 32 0 16 16 0 1 1 -32 0zm-48 32a16 16 0 1 1 0 32 16 16 0 1 1 0-32zm-64 48a16 16 0 1 1 0 32 16 16 0 1 1 0-32zm128 0a16 16 0 1 1 0 32 16 16 0 1 1 0-32zM608 496a16 16 0 1 1 32 0 16 16 0 1 1 -32 0zm-48-64a16 16 0 1 1 0 32 16 16 0 1 1 0-32z"/></svg>