<svg xmlns="http://www.w3.org/2000/svg" viewBox="0 0 576 512"><!--! Font Awesome Pro 6.5.1 by @fontawesome - https://fontawesome.com License - https://fontawesome.com/license (Commercial License) Copyright 2023 Fonticons, Inc. --><path d="M48 224c0-21.5 3.3-42.2 9.3-61.7L256 287.4v.6V496v16h16H480l59.6-208.6c1.4-5.1 2.5-10.2 3.3-15.4c.7-5.3 1.1-10.6 1.1-16V252.4v-3.6l-2.7-2.4-69.5-61.8C466.3 83.3 383.6 0 280 0H256C132.3 0 32 100.3 32 224c0 59.1 23.7 114.5 64 156.7V504v8h16v-8V377.5v-3.3l-2.3-2.3C70.7 332.1 48 279.7 48 224zm213.6 48L62.8 146.8C93.4 70.2 168.4 16 256 16h24c95.7 0 172.5 77.9 176 172.7l.1 3.4 2.6 2.3L528 256v16H272 261.6zM272 496V288H526.7c-.6 3.7-1.4 7.4-2.5 11l-15.1 53H368h-8v16h8H504.5l-13.7 48H368h-8v16h8H486.2l-18.3 64H272zm96-272a16 16 0 1 0 0-32 16 16 0 1 0 0 32z"/></svg>