<svg xmlns="http://www.w3.org/2000/svg" viewBox="0 0 512 512"><!--! Font Awesome Pro 6.5.1 by @fontawesome - https://fontawesome.com License - https://fontawesome.com/license (Commercial License) Copyright 2023 Fonticons, Inc. --><path d="M16 224C16 109.1 109.1 16 224 16h24c95.7 0 172.5 77.9 176 172.7l.1 3.4 2.6 2.3L496 256v64H440h-8v8V432H312h-8v8 64 8h16v-8V448H440h8v-8V336h56 8v-8V252.4v-3.6l-2.7-2.4-69.5-61.8C434.3 83.3 351.6 0 248 0H224C100.3 0 0 100.3 0 224c0 59.1 23.7 114.5 64 156.7V504v8H80v-8V377.5v-3.3l-2.3-2.3C38.7 332.1 16 279.7 16 224zM192 96v8 29.6c-11 4.4-20.9 10.2-30.3 17.5l-25.6-14.8-6.9-4-4 6.9-24 41.6-4 6.9 6.9 4 25.6 14.8c-.9 5.6-1.6 11.5-1.6 17.5s.7 11.9 1.6 17.5l-25.6 14.8-6.9 4 4 6.9 24 41.6 4 6.9 6.9-4 25.6-14.8c9.3 7.3 19.2 13.1 30.3 17.5V344v8h8 48 8v-8V314.4c11-4.4 20.9-10.2 30.3-17.5l25.6 14.8 6.9 4 4-6.9 24-41.6 4-6.9-6.9-4-25.6-14.8c.9-5.6 1.6-11.5 1.6-17.5s-.7-11.9-1.6-17.5l25.6-14.8 6.9-4-4-6.9-24-41.6-4-6.9-6.9 4-25.6 14.8c-9.3-7.3-19.2-13.1-30.3-17.5V104 96h-8H200h-8zm16 16h32v27.1 5.7l5.3 1.9c13.1 4.6 24.3 11.1 34.9 20.2l4.3 3.7 4.9-2.8L313 154.1l16 27.7-23.5 13.6-4.9 2.8 1 5.6c1.3 7.1 2.4 13.7 2.4 20.2s-1 13.1-2.4 20.2l-1 5.6 4.9 2.8L329 266.1l-16 27.7-23.5-13.6-4.9-2.8-4.3 3.7c-10.6 9.1-21.8 15.6-34.9 20.2l-5.3 1.9v5.7V336H208V308.9v-5.7l-5.3-1.9c-13.2-4.6-24.3-11.1-34.9-20.2l-4.3-3.7-4.9 2.8L135 293.9l-16-27.7 23.5-13.6 4.9-2.8-1-5.6c-1.3-7.1-2.4-13.7-2.4-20.2s1-13.1 2.4-20.2l1-5.6-4.9-2.8L119 181.9l16-27.7 23.5 13.6 4.9 2.8 4.3-3.7c10.6-9.1 21.8-15.6 34.9-20.2l5.3-1.9v-5.7V112zm16 88a24 24 0 1 1 0 48 24 24 0 1 1 0-48zm0 64a40 40 0 1 0 0-80 40 40 0 1 0 0 80z"/></svg>