<svg xmlns="http://www.w3.org/2000/svg" viewBox="0 0 512 512"><!--! Font Awesome Pro 6.5.1 by @fontawesome - https://fontawesome.com License - https://fontawesome.com/license (Commercial License) Copyright 2023 Fonticons, Inc. --><path d="M16 288C16 155.5 123.5 48 256 48s240 107.5 240 240v88 8h16v-8V288C512 146.6 397.4 32 256 32S0 146.6 0 288v88 8H16v-8V288zm144-16V464H64V272h96zM64 256H48v16V464v16H64h96 16V464 272 256H160 64zm288 16h96V464H352V272zm96-16H352 336v16V464v16h16 96 16V464 272 256H448z"/></svg>