<svg xmlns="http://www.w3.org/2000/svg" viewBox="0 0 512 512"><!--! Font Awesome Pro 6.5.1 by @fontawesome - https://fontawesome.com License - https://fontawesome.com/license (Commercial License) Copyright 2023 Fonticons, Inc. --><path d="M16 256C16 123.5 123.5 16 256 16s240 107.5 240 240V456.1L320 456V432 416H304 240c-26.5 0-48 21.5-48 48s21.5 48 48 48h64 16V496 472l184 .1 8 0v-8V256C512 114.6 397.4 0 256 0S0 114.6 0 256v56 8H16v-8V256zM304 464l0 8h0v24H240c-17.7 0-32-14.3-32-32s14.3-32 32-32h64v32zM80 208h80V368H80V208zM64 192v16V368v16H80h80 16V368 208 192H160 80 64zm368 16V368H352V208h80zm16-16H432 352 336v16V368v16h16 80 16V368 208 192z"/></svg>