<svg xmlns="http://www.w3.org/2000/svg" viewBox="0 0 448 512"><!--! Font Awesome Pro 6.5.1 by @fontawesome - https://fontawesome.com License - https://fontawesome.com/license (Commercial License) Copyright 2023 Fonticons, Inc. --><path d="M184 32v8V144c0 39.8 12.9 78.6 36.8 110.4L240 280c26 34.6 40 76.7 40 120v72 8H264v-8V400c0-39.8-12.9-78.6-36.8-110.4L208 264c-26-34.6-40-76.7-40-120V40 32h16zM16 96v8 53.9c0 36.3 10.8 71.8 30.9 102.1l31.5 47.3C100.3 340 112 378.6 112 418.1V472v8H96v-8V418.1c0-36.3-10.8-71.8-30.9-102.1L33.6 268.8C11.7 236 0 197.4 0 157.9V104 96H16zm336 8v53.9c0 36.3 10.8 71.8 30.9 102.1l31.5 47.3C436.3 340 448 378.6 448 418.1V472v8H432v-8V418.1c0-36.3-10.8-71.8-30.9-102.1l-31.5-47.3C347.7 236 336 197.4 336 157.9V104 96h16v8z"/></svg>