<svg xmlns="http://www.w3.org/2000/svg" viewBox="0 0 640 512"><!--! Font Awesome Pro 6.5.1 by @fontawesome - https://fontawesome.com License - https://fontawesome.com/license (Commercial License) Copyright 2023 Fonticons, Inc. --><path d="M136 0h-8V16h8H352V144H132.5L86.9 67.9 84.5 64H80 16 5.8l2.5 9.9 32 128 .9 3.8 3.6 1.6 142.4 63.3L298 397.3l2.4 2.7H304h.6 .6 .6 .6 .6 .6 .6 .6 .6 .6 .6 .6 .6 .6 .6 .6 .6 .6 .6 .6 .6 .6 .6 .6 .6 .6 .6 .6 .6 .6 .6 .6 .6 .6 .6 .6 .6 .6 .6 .6 .6 .6 .6 .5 .6 .5 .5 .5 .5 .5 .5 .5 .5 .5 .5 .5 .5 .5 .5 .5 .5 .5 .5 .5 .5 .5 .5 .5 .5 .5 .5 .5 .5 .5 .5 .5 .5 .5 .5 .5 .5 .5 .5 .5 .5 .5 .5 .5 .5 .5 .5 .5 .5 .5 .5 .5 .5 .5 .5 .5 .5 .5 .5 .5 .5 .5 .5 .5 .5 .5 .5 .5 .5 .5 .5 .5 .5 .5 .5 .5 .5 .5 .5 .5 .5 .5 .5 .5 .5 .5 .5 .5 .5 .5 .5 .5 .5 .5 .5 .5 .5 .5 .5 .5 .5 .5 .5 .5 .5 .5 .5 .5 .5 .5 .5 .5 .5 .5 .5 .5 .5 .5 .5 .5 .5 .5 .5 .5 .5 .5 .5 .5 .5 .5 .5 .5 .5 .5 .5 .5 .5 .5 .5 .5 .5 .5 .5 .5 .5 .5 .5 .5 .5 .5 .5 .5 .5 .5 .5 .5 .5 .5 .5 .5 .5 .5 .5 .5 .5 .5 .5 .5 .5 .5 .5 .5 .5 .5 .5 .5 .5 .5 .5 .5 .5 .5 .5 .5 .5 .5 .5 .5 .5 .5 .5 .5 .5 .5 .5 .5 .5 .5 .5 .5 .5 .5 .5 .5 .5 .5 .5 .5 .5 .5 .5 .5 .5 .5 .5 .5 .5 .5 .5 .5 .5 .5 .5 .5 .5 .5 .5 .5 .5 .5 .5 .5 .5 .5 .5 .5 .5 .5 .5 .5 .5 .5 .5 .5 .5 .5 .5 .5 .5 .5 .5 .5 .5 .5 .5 .5 .5 .5 .5 .5 .5 .5 .5 .5 .5 .5 .5 .5 .5 .5 .5 .5 .5 .5 .5 .5 .5 .5 .5 .5 .5 .5 .5 .5 .5 .5 .5 .5 .5 .5 .5 .5 .5 .5 .5 .5 .5 .5 .5 .5 .5 .5 .5 .5 .5 .5 .5 .5 .5 .5 .5 .5 .5 .5 .5 .5 .5 .5 .5 .5 .5 .5 .5 .5 .5 .5 .5 .5 .5 .5 .5 .5 .5 .5 .5 .5 .5 .5 .5 .5 .5 .5 .5 .5 .5 .5 .5 .5 .5 .5 .5 .5 .5 .5 .5 .5 .5 .5 .5 .5 .5 .5 .5 .5 .5 .5 .5 .5 .5 .5 .5 .5 .5 .5 .5 .5 .5 .5 .5 .5 .5 .5 .5 .5 .5 .5 .5 .5 .5 .5 .5 .5 .5 .5 .5 .5 .5 .5 .5 .5 .5 .5 .5 .5 .5 .5 .5 .5 .5 .5 .5 .5 .5 .5 .5 .5 .5 .5 .5 .5 .5 .5 .5 .6 .5 .6 .6 .6 .6 .6 .6 .6 .6 .6 .6 .6 .6 .6 .6 .6 .6 .6 .6 .6 .6 .6 .6 .6 .6 .6 .6 .6 .6 .6 .6 .6 .6 .6 .6 .6 .6 .6 .6 .6 .6 .6 .6 .6 8v-8V280c0-75.1-60.9-136-136-136H368V16H568h8V0h-8H136zM26.2 80H75.5l45.7 76.1 2.3 3.9H128 352V384h-.2-.5-.5-.5-.5-.5-.5-.5-.5-.5-.5H346h-.5H345h-.5-.5-.5-.5-.5-.5-.5-.5-.5-.5-.5-.5H338h-.5-.5-.5-.5-.5-.5-.5-.5-.5-.5-.5-.5H331h-.5-.5-.5-.6-.5-.6-.6-.6H326h-.6-.6-.6-.6-.6-.6-.6-.6H321h-.6-.6-.6-.6-.6-.6-.6-.6H316h-.6-.6-.6-.6-.6-.6H312h-.6-.6-.6-.6-.6-.6H308h-.4L198 258.7l-1.2-1.3-1.6-.7L54.8 194.3 26.2 80zM368.4 384H368V160h72c66.3 0 120 53.7 120 120V384h0-.6-.6-.6-.6-.6-.6H556h-.6-.6-.6-.6-.6-.6-.6-.6H551h-.6-.6-.6-.6-.6-.6-.6-.6H546h-.6-.6-.6-.6-.5-.6-.5-.5H541h-.5-.5-.5-.5-.5-.5-.5-.5-.5-.5-.5-.5H534h-.5-.5-.5-.5-.5-.5-.5-.5-.5-.5-.5-.5H527h-.5H526h-.5-.5-.5-.5-.5-.5-.5-.5-.5-.5-.5-.5-.5-.5-.5-.5H517h-.5H516h-.5-.5-.5-.5-.5-.5-.5-.5-.5-.5-.5-.5-.5-.5-.5-.5-.5-.5-.5-.5-.5-.5-.5-.5-.5-.5-.5-.5H501h-.5H500h-.5H499h-.5H498h-.5H497h-.5H496h-.5H495h-.5-.5-.5-.5-.5-.5-.5-.5-.5-.5-.5-.5-.5-.5-.5-.5-.5-.5-.5-.5-.5-.5-.5-.5-.5-.5-.5-.5-.5-.5-.5H479h-.5H478h-.5H477h-.5H476h-.5H475h-.5H474h-.5H473h-.5H472h-.5-.5-.5-.5-.5-.5-.5-.5-.5-.5-.5-.5-.5-.5-.5-.5-.5-.5-.5-.5-.5-.5-.5-.5-.5-.5-.5-.5-.5-.5-.5-.5-.5-.5-.5-.5-.5-.5H453h-.5H452h-.5H451h-.5-.5-.5-.5-.5-.5-.5-.5-.5-.5-.5-.5-.5-.5-.5-.5-.5-.5-.5-.5-.5-.5-.5-.5-.5-.5-.5-.5H437h-.5H436h-.5H435h-.5-.5-.5-.5-.5-.5-.5-.5-.5-.5-.5-.5-.5-.5-.5-.5-.5-.5-.5-.5-.5-.5-.5-.5-.5-.5-.5-.5H421h-.5H420h-.5H419h-.5-.5-.5-.5-.5-.5-.5-.5-.5-.5-.5-.5-.5-.5-.5-.5-.5-.5-.5-.5-.5-.5-.5-.5-.5-.5-.5-.5-.5-.5-.5-.5-.5-.5-.5-.5-.5-.5H400h-.5H399h-.5H398h-.5H397h-.5H396h-.5H395h-.5H394h-.5H393h-.5-.5-.5-.5-.5-.5-.5-.5-.5-.5-.5-.5-.5-.5-.5-.5-.5-.5-.5-.5-.5-.5-.5-.5-.5-.5-.5-.5-.5-.5-.5H377h-.5H376h-.5H375h-.5H374h-.5H373h-.5H372h-.5H371h-.5-.5-.5-.5-.5zM640 456v-8H624v8 40H232h-8v16h8H632h8v-8V456z"/></svg>