<svg xmlns="http://www.w3.org/2000/svg" viewBox="0 0 576 512"><!--! Font Awesome Pro 6.5.1 by @fontawesome - https://fontawesome.com License - https://fontawesome.com/license (Commercial License) Copyright 2023 Fonticons, Inc. --><path d="M64 0L48 56 0 224v16 16H16 48 64V240 58.2 0zM48 114.2V240H16V226.2l32-112zM288 0S96 80 96 224c0 80-32 192-32 192l192 96h16V496 264l-96-40V208h16H384h16v16l-96 40V496v16h16l192-96s-32-112-32-192C480 80 288 0 288 0zM493.1 407.5L320 494.1V274.7l86.2-35.9 9.8-4.1V224 208 192H400 176 160v16 16 10.7l9.8 4.1L256 274.7V494.1L82.9 407.5c.5-1.9 1.1-4 1.6-6.3c3-11.9 7.1-28.6 11.2-47.9C103.7 315 112 265.7 112 224c0-64.5 43.2-116.4 89.9-153.5c23.1-18.3 46.2-32.3 63.7-41.7c8.7-4.7 15.9-8.3 20.9-10.6l1.4-.7 1.4 .7c5 2.4 12.2 5.9 20.9 10.6c17.4 9.4 40.6 23.5 63.7 41.7c46.8 37 89.9 88.9 89.9 153.5c0 41.7 8.3 91 16.3 129.3c4.1 19.3 8.1 36 11.2 47.9c.6 2.3 1.1 4.4 1.6 6.3zM528 56L512 0V58.2 240v16h16 32 16V240 224L528 56zm32 170.2V240H528V114.2l32 112z"/></svg>