<svg xmlns="http://www.w3.org/2000/svg" viewBox="0 0 512 512"><!--! Font Awesome Pro 6.5.1 by @fontawesome - https://fontawesome.com License - https://fontawesome.com/license (Commercial License) Copyright 2023 Fonticons, Inc. --><path d="M16 240V368H218.2l30.2-90.5 1.8-5.5H256 464V240C464 116.3 363.7 16 240 16S16 116.3 16 240zm464 0v32h24 8v16h-8H480 464 368V496H472h8v16h-8H360h-3.2l-2.3-2.2L220.8 384H8 0v-8V240C0 107.5 107.5 0 240 0S480 107.5 480 240zM261.8 288l-28.6 85.7L352 485.5V288H261.8zM144 104v72c0 17.7 14.3 32 32 32s32-14.3 32-32V104 96h16v8 72c0 26.5-21.5 48-48 48s-48-21.5-48-48V104 96h16v8zm120-8h8 4.6l2.3 4L336 199.9V104 96h16v8V216v8h-8-8-4.6l-2.3-4L272 120.1V216v8H256v-8V104 96h8z"/></svg>