<svg xmlns="http://www.w3.org/2000/svg" viewBox="0 0 512 512"><!--! Font Awesome Pro 6.5.1 by @fontawesome - https://fontawesome.com License - https://fontawesome.com/license (Commercial License) Copyright 2023 Fonticons, Inc. --><path d="M18.4 256L137.3 48H374.7L493.6 256 374.7 464H137.3L18.4 256zM128 32L0 256 128 480H384L512 256 384 32H128zM240 144h32v32H240V144zm-16-16v16 32 16h16 32 16V176 144 128H272 240 224zM152 248h-8v16h8H360h8V248h-8H152zm120 88v32H240V336h32zm-32-16H224v16 32 16h16 32 16V368 336 320H272 240z"/></svg>