<svg xmlns="http://www.w3.org/2000/svg" viewBox="0 0 512 512"><!--! Font Awesome Pro 6.5.1 by @fontawesome - https://fontawesome.com License - https://fontawesome.com/license (Commercial License) Copyright 2023 Fonticons, Inc. --><path d="M18.4 256L137.3 48H374.7L493.6 256 374.7 464H137.3L18.4 256zM128 32L0 256 128 480H384L512 256 384 32H128zm57.8 142.5l-11.3 11.3 5.7 5.7L244.7 256l-64.6 64.6-5.7 5.7 11.3 11.3 5.7-5.7L256 267.3l64.6 64.6 5.7 5.7 11.3-11.3-5.7-5.7L267.3 256l64.6-64.6 5.7-5.7-11.3-11.3-5.7 5.7L256 244.7l-64.6-64.6-5.7-5.7z"/></svg>