<svg xmlns="http://www.w3.org/2000/svg" viewBox="0 0 448 512"><!--! Font Awesome Pro 6.5.1 by @fontawesome - https://fontawesome.com License - https://fontawesome.com/license (Commercial License) Copyright 2023 Fonticons, Inc. --><path d="M224 493.6L432 374.7V137.3L224 18.4 16 137.3V374.7L224 493.6zM0 128L224 0 448 128V384L224 512 0 384V128zM200 87.4l22.8-13L272 102.6V121L216 89V248h40 8v16h-8H216V432v1.7l-16-9.1V256 87.4zM336 374.3V157.6l-40-22.9V116.3L348 146l36 20.6V185l-32-18.3V365.1l-16 9.1zm-176 19v8.4l-16.8-9.6L80 202.6V356l-16-9.1V165.1l17.1-9.8L144 344V119.4l16-9.1V112 392v1.3z"/></svg>