<svg xmlns="http://www.w3.org/2000/svg" viewBox="0 0 448 512"><!--! Font Awesome Pro 6.5.1 by @fontawesome - https://fontawesome.com License - https://fontawesome.com/license (Commercial License) Copyright 2023 Fonticons, Inc. --><path d="M224 493.6L432 374.7V137.3L224 18.4 16 137.3V374.7L224 493.6zM0 128L224 0 448 128V384L224 512 0 384V128zm87.5 37.3L144 320.6V168v-8h16v8V344v8l-8 0-8 0-5.6 0-1.9-5.3L80 191.4V344v8H64v-8V168v-8l8 0 8 0 5.6 0 1.9 5.3zM200 160h64 8v16h-8H208v72h56 8v16h-8H208v80 8H192v-8V256 168v-8h8zm96 0h40 40 8v16h-8H344V344v8H328v-8V176H296h-8V160h8z"/></svg>