<svg xmlns="http://www.w3.org/2000/svg" viewBox="0 0 576 512"><!--! Font Awesome Pro 6.5.1 by @fontawesome - https://fontawesome.com License - https://fontawesome.com/license (Commercial License) Copyright 2023 Fonticons, Inc. --><path d="M320 416H231.4l-52.7 52.7L167.4 480l-11.3-11.3L75.3 387.9 64 376.6l11.3-11.3L128 312.6V224L464 0l80 80L320 416zm-99.9-11.3l4.7-4.7h6.6 80l30.9-46.4-152-152L144 232.6v80.1 6.6l-4.7 4.7L86.6 376.6l80.8 80.8 52.7-52.7zm131.3-64.6l172-258L462 20.6l-258 172L351.4 340.1zM65.1 411.6l11.3 11.3L16 483.3V496H92.7l28.4-28.4 11.3 11.3-30.7 30.7L99.3 512H96 8 0v-8V480v-3.3l2.3-2.3 62.7-62.7zM232 496H568h8v16h-8H232h-8V496h8z"/></svg>