<svg xmlns="http://www.w3.org/2000/svg" viewBox="0 0 576 512"><!--! Font Awesome Pro 6.5.1 by @fontawesome - https://fontawesome.com License - https://fontawesome.com/license (Commercial License) Copyright 2023 Fonticons, Inc. --><path d="M231.4 416H320L544 80 464 0 128 224v88.6L75.3 365.3 64 376.6l11.3 11.3 80.8 80.8L167.4 480l11.3-11.3L231.4 416zm-64 41.4L86.6 376.6l52.7-52.7 4.7-4.7v-6.6V232.6l46.4-30.9 152 152L311.4 400h-80-6.6l-4.7 4.7-52.7 52.7zm36.5-264.8l258-172L523.4 82l-172 258L203.9 192.6zM2.3 474.3L0 476.7V480v24 8H8 96h3.3l2.3-2.3 30.7-30.7-11.3-11.3L92.7 496H16V483.3l60.4-60.4L65.1 411.6 2.3 474.3z"/></svg>