<svg xmlns="http://www.w3.org/2000/svg" viewBox="0 0 576 512"><!--! Font Awesome Pro 6.5.1 by @fontawesome - https://fontawesome.com License - https://fontawesome.com/license (Commercial License) Copyright 2023 Fonticons, Inc. --><path d="M560 48V464H16V48H560zM16 32H0V48 464v16H16 560h16V464 48 32H560 16zM320 160v8V344v8h8 56c53 0 96-43 96-96s-43-96-96-96H328h-8zm64 16c44.2 0 80 35.8 80 80s-35.8 80-80 80H336V176h48zm-256-8v-8H112v8 88 88 8h16v-8V264H256v80 8h16v-8V256 168v-8H256v8 80H128V168z"/></svg>