<svg xmlns="http://www.w3.org/2000/svg" viewBox="0 0 576 512"><!--! Font Awesome Pro 6.5.1 by @fontawesome - https://fontawesome.com License - https://fontawesome.com/license (Commercial License) Copyright 2023 Fonticons, Inc. --><path d="M160 40a24 24 0 1 0 0 48 24 24 0 1 0 0-48zm40 24a40 40 0 1 1 -80 0 40 40 0 1 1 80 0zm38.8 48l2.2-3.9 36-64 2.3-4.1 4.7 0 72 0h4.7l2.3 4.1 36 64 2.2 3.9-2.2 3.9-36 64-2.3 4.1H356 284h-4.7l-2.3-4.1-36-64-2.2-3.9zm49.9 56h62.6l31.5-56L351.3 56l-62.6 0-31.5 56 31.5 56zM0 44.7L13.7 58.3l440 440L467.3 512H448 8 0v-8V64 44.7zM16 83.3V496H428.7L16 83.3zM492.1 431l-64-36-4.1-2.3V388 316v-4.7l4.1-2.3 64-36 3.9-2.2 3.9 2.2 64 36 4.1 2.3V316v72 4.7l-4.1 2.3-64 36-3.9 2.2-3.9-2.2zM552 320.7l-56-31.5-56 31.5v62.6l56 31.5 56-31.5V320.7zM328 288a24 24 0 1 0 48 0 24 24 0 1 0 -48 0zm24 40a40 40 0 1 1 0-80 40 40 0 1 1 0 80z"/></svg>