<svg xmlns="http://www.w3.org/2000/svg" viewBox="0 0 640 512"><!--! Font Awesome Pro 6.5.1 by @fontawesome - https://fontawesome.com License - https://fontawesome.com/license (Commercial License) Copyright 2023 Fonticons, Inc. --><path d="M411 108.1c-7 10.2-11 22.6-11 35.9v32 8l-6.4 4.8C378 200.5 368 219.1 368 240c0 30.9 22 56.8 51.2 62.7l6.3 1.3H432h40 16 48 16 8c9.1 0 17.8-1.9 25.6-5.3l6.8-3 6-4.5C614 279.5 624 260.9 624 240c0 0 0 0 0 0c0-9.2-1.9-17.9-5.4-25.8c-5.7-8.5-15.5-14.2-26.6-14.2c-17.7 0-32 14.3-32 32v8H544v-8c0-26.2 21-47.5 47-48c-5.6-3.1-11.7-5.4-18.2-6.7L560 174.7V161.6 144c0-10-2.3-19.4-6.3-27.8l-5-10.2 8-8 6.6-6.6L574.6 80 552 57.4 540.7 68.7 530.6 78.8l-6.8 6.8-9.2-2.8C508.8 81 502.5 80 496 80H464c-2.8 0-5.5 .2-8.1 .5l-7.8 1-5.5-5.5-9.8-9.8L421.4 54.8 398.8 77.4l10.3 10.3 9.4 9.4L411 108.1zM640 240s0 0 0 0c0 26.2-12.6 49.4-32 64v9.3V344v8 8h-8-8H552h-8-8v-8-8-8V320H520 504 488v16 8 8 8h-8-8H432h-8-8v-8-8V320v-1.6c-36.5-7.4-64-39.7-64-78.4c0-26.2 12.6-49.4 32-64V144c0-15.1 4.2-29.2 11.4-41.2l-24.2-9.1C347 84.7 321.3 80 295.4 80H216C123.2 80 48 155.2 48 248v8 0l0 80 0 2.6-1.5 2.1L18 380.6l-4.6 6.5-13-9.3L5 371.4l27-37.9L32 256v0-8C32 146.4 114.4 64 216 64h79.4c27.8 0 55.4 5 81.5 14.8l1.1 .4-1.7-1.7 11.3-11.3 22.6-22.6 11.3-11.3 11.3 11.3 11.3 11.3 9.8 9.8c3.3-.4 6.7-.6 10.1-.6h32c8.1 0 15.9 1.2 23.3 3.4l10.1-10.1 11.3-11.3L552 34.7l11.3 11.3 22.6 22.6L597.3 80 585.9 91.3l-11.3 11.3-6.6 6.6c5.1 10.5 7.9 22.3 7.9 34.8v17.6c25.2 5.1 46.1 22.1 56.7 44.9c4.7 7.4 7.3 16.1 7.3 25.5v8zm-48 73.3c-5.1 2.2-10.4 3.9-16 5.1c-5.2 1-10.5 1.6-16 1.6h-8v8 8 8h16 8 16V330.5 328 313.3zM472 328v-8H456h-8H432v8 8 8h16 8 16v-8-8zm-40 55.3c2.6 .4 5.3 .7 8 .7h8v88 8h-8H328h-8v-8V371.1l-5.8 1.9c-37.8 12.6-78.6 12.6-116.4 0l-5.8-1.9V472v8h-8H72 64v-8V344v-8H80v8V464h96V360 348.9l10.5 3.5 16.3 5.4c34.5 11.5 71.8 11.5 106.3 0l16.3-5.4 10.5-3.5V360 464h96V383.3zM464 128a16 16 0 1 1 0 32 16 16 0 1 1 0-32zm48 16a16 16 0 1 1 32 0 16 16 0 1 1 -32 0zm-56 56c-17.7 0-32 14.3-32 32v8H408v-8c0-26.5 21.5-48 48-48s48 21.5 48 48v8H488v-8c0-17.7-14.3-32-32-32z"/></svg>