<svg xmlns="http://www.w3.org/2000/svg" viewBox="0 0 640 512"><!--! Font Awesome Pro 6.5.1 by @fontawesome - https://fontawesome.com License - https://fontawesome.com/license (Commercial License) Copyright 2023 Fonticons, Inc. --><path d="M328.3 330.7L496.9 4.3l14.2 7.3-256.3 496-2.2 4.3h-4.9H8 0v-8V338.7v-8H8 328.3zm-8.3 16H112V496H242.9L320 346.7zm-304 0V496H96V346.7H16zm615.1-16h8v8V504v8h-8H391.4h-4.9l-2.2-4.3L342.1 426l9-17.4L396.2 496H527.1V346.7H383l8.3-16H631.1zm-340.9-40h-18L128 11.7l14.2-7.3L290.2 290.7zm252.9 56V496h80V346.7h-80z"/></svg>