<svg xmlns="http://www.w3.org/2000/svg" viewBox="0 0 448 512"><!--! Font Awesome Pro 6.5.1 by @fontawesome - https://fontawesome.com License - https://fontawesome.com/license (Commercial License) Copyright 2023 Fonticons, Inc. --><path d="M58.7 438.2C28.2 398.8 16 335.7 16 240V16H224 432V240c0 95.7-12.2 158.8-42.7 198.2C359.8 476.4 310 496 224 496s-135.8-19.6-165.3-57.8zM0 240C0 432 48 512 224 512s224-80 224-272V16 0H432 224 16 0V16 240zm176-16c0 26.5-21.5 48-48 48s-48-21.5-48-48V192h96v32zm-48 64c35.3 0 64-28.7 64-64V192 176H176 80 64v16 32c0 35.3 28.7 64 64 64zm240-64c0 26.5-21.5 48-48 48s-48-21.5-48-48V192h96v32zm-48 64c35.3 0 64-28.7 64-64V192 176H368 272 256v16 32c0 35.3 28.7 64 64 64zM160 112a16 16 0 1 0 0-32 16 16 0 1 0 0 32zm80 16a16 16 0 1 0 -32 0 16 16 0 1 0 32 0zM208 320a16 16 0 1 0 -32 0 16 16 0 1 0 32 0zm0 64a16 16 0 1 0 -32 0 16 16 0 1 0 32 0zm-16 80a16 16 0 1 0 0-32 16 16 0 1 0 0 32zm64 0a16 16 0 1 0 0-32 16 16 0 1 0 0 32zm0-64a16 16 0 1 0 0-32 16 16 0 1 0 0 32zm0-64a16 16 0 1 0 0-32 16 16 0 1 0 0 32zM304 96a16 16 0 1 0 -32 0 16 16 0 1 0 32 0z"/></svg>