<svg xmlns="http://www.w3.org/2000/svg" viewBox="0 0 448 512"><!--! Font Awesome Pro 6.5.1 by @fontawesome - https://fontawesome.com License - https://fontawesome.com/license (Commercial License) Copyright 2023 Fonticons, Inc. --><path d="M400 48V96H320 240v16h80c61.9 0 112 50.1 112 112c0 5.4-.1 10.8-.4 16H16.4c-.2-5.2-.4-10.6-.4-16c0-61.9 50.1-112 112-112V96H48V48H152V160v8h8 40 8v-8V48H400zm30.5 208c-2.9 30-9.7 56.7-18.7 80H36.3c-9-23.3-15.8-50-18.7-80h413zM405 352c-10.1 22-21.9 40.8-33.7 56.3c-15.2 19.9-30.4 34.6-41.7 44.3c-5.6 4.8-10.3 8.4-13.5 10.7l-1 .7H132.9l-1-.7c-3.2-2.3-7.8-5.8-13.5-10.7c-11.3-9.7-26.5-24.3-41.7-44.3C64.9 392.8 53 374 43 352H405zM168 48h24V152H168V48zM48 112H66C26.6 133.8 0 175.8 0 224C0 400 128 480 128 480H320s128-80 128-256c0-48.2-26.6-90.2-66-112h18 16V96 48 32H400 48 32V48 96v16H48z"/></svg>