<svg xmlns="http://www.w3.org/2000/svg" viewBox="0 0 576 512"><!--! Font Awesome Pro 6.5.1 by @fontawesome - https://fontawesome.com License - https://fontawesome.com/license (Commercial License) Copyright 2023 Fonticons, Inc. --><path d="M0 464l64-80V288C64 128 160 0 288 0H457.4 480L464 16 418.7 61.3 407.2 72.8c4.5 3 8.8 6.2 13 9.6C475.4 126.1 512 196.6 512 288v96l64 80v32 16H560 16 0V496 464zM288 16C172.5 16 80 132.7 80 288v96 5.6L76.5 394 16 469.6V496H160V320c0-70.7 57.3-128 128-128s128 57.3 128 128V496H560V469.6L499.5 394l-3.5-4.4V384 288c0-93.5-40.1-162.6-97.8-202l-16-10.9 13.7-13.7L441.4 16H288zM176 496H400V320c0-61.9-50.1-112-112-112s-112 50.1-112 112V496z"/></svg>