<svg xmlns="http://www.w3.org/2000/svg" viewBox="0 0 576 512"><!--! Font Awesome Pro 6.5.1 by @fontawesome - https://fontawesome.com License - https://fontawesome.com/license (Commercial License) Copyright 2023 Fonticons, Inc. --><path d="M328 136v8h-8H248 191.8 138.3C101.7 144 72 173.7 72 210.3c0 9.5 2 18.8 5.9 27.4l33.3 73.3 .7 1.6v1.7 19.8 1.6l-.6 1.5L91.2 384.2l-5.5 12.9 3.8 13.5L113.2 496h83l-25.1-90.5-.8-2.7 1.1-2.6 17.4-40.5 3.2-7.5V344 304v-4.7-9.9l9.7 2.1 120 26.3 6.3 1.4v6.4V496h72V308.5v-3.7l2.8-2.4c17.6-14.9 29-37.1 29.2-62.5l0-.3v-.2V152v-8h8 16 4.9l2.2 4.4 28.4 56.8 67.9-34-10-104.5L515.7 16H472 456h-8c-66.3 0-120 53.7-120 120zM534.9 16l29 43.6 1.1 1.7 .2 2 10.7 112 .5 5.5-4.9 2.5-80 40-7.2 3.6-3.6-7.2L451.1 160H448v79.5 .5 9.1l-.5-.1c-2.4 25.2-14.2 47.2-31.5 63V504v8h-8H320h-8v-8V332.1L208 309.3V344v9.9 1.6l-.6 1.5-3.9 9.1L187.2 404l27.2 97.9 2.8 10.1H206.7 107.1 101l-1.6-5.9L74 415l-4.5-16.3-.8-2.7 1.1-2.6 6.6-15.5L96 332.5V316.1L63.4 244.4c-4.9-10.7-7.4-22.3-7.4-34.1c0-12.2 2.7-23.9 7.5-34.3C37.2 176.3 16 197.7 16 224v88 8H0v-8V224c0-35.3 28.7-64 64-64h8 1.2c15.1-19.5 38.6-32 65.1-32h53.5H248h64.2C316.4 56.6 375.6 0 448 0h8 16 48 4.3H552h8V16h-8H534.9zM480 80a16 16 0 1 1 32 0 16 16 0 1 1 -32 0z"/></svg>