<svg xmlns="http://www.w3.org/2000/svg" viewBox="0 0 448 512"><!--! Font Awesome Pro 6.5.1 by @fontawesome - https://fontawesome.com License - https://fontawesome.com/license (Commercial License) Copyright 2023 Fonticons, Inc. --><path d="M304 103.2L432 88.9V96h16V88 80.1v-.2V48.1v-.2V40 32l-16 0v7.1L304 24.8V16 8H288v8V31.9v.2V95.9v.2V112v8h16v-8-8.8zm0-16.1V40.9L432 55.2V72.8L304 87.1zM32 432V384H416v48H32zm400 0V384v-8-8V320v-8-8V248v-8h-8H164c-37.6 0-68-30.4-68-68s30.4-68 68-68h92V88H164c-46.4 0-84 37.6-84 84s37.6 84 84 84H416v48H164C91.1 304 32 244.9 32 172S91.1 40 164 40h92V24H164C82.3 24 16 90.3 16 172c0 57.6 32.9 107.6 81 132H24 16v8 56 8 8 48 8 8 56 8h8H424h8v-8V448v-8-8zM164 320H416v48H32V320H164zM416 448v48H32V448H416z"/></svg>