<svg xmlns="http://www.w3.org/2000/svg" viewBox="0 0 640 512"><!--! Font Awesome Pro 6.5.1 by @fontawesome - https://fontawesome.com License - https://fontawesome.com/license (Commercial License) Copyright 2023 Fonticons, Inc. --><path d="M80 256C80 123.5 187.5 16 320 16s240 107.5 240 240v96H536.1c-.1 0-.1 0-.2 0H520h-8v16h8 8.8l14.2 128H536v16h8 7.9c.1 0 .1 0 .2 0h31.8c.1 0 .1 0 .2 0H592h8V496h-7.1l14.2-128H616h8V352h-8H600.1c-.1 0-.1 0-.2 0H576V256C576 114.6 461.4 0 320 0S64 114.6 64 256s114.6 256 256 256c59.2 0 113.7-20.1 157.1-53.8l-9.8-12.6C426.6 477.2 375.5 496 320 496C187.5 496 80 388.5 80 256zM591.1 368L576.8 496H559.2L544.9 368h46.1zM320 408a152 152 0 1 1 0-304 152 152 0 1 1 0 304zM152 256a168 168 0 1 0 336 0 168 168 0 1 0 -336 0zm232 0a64 64 0 1 1 -128 0 64 64 0 1 1 128 0zm-64-80a80 80 0 1 0 0 160 80 80 0 1 0 0-160z"/></svg>