<svg xmlns="http://www.w3.org/2000/svg" viewBox="0 0 576 512"><!--! Font Awesome Pro 6.5.1 by @fontawesome - https://fontawesome.com License - https://fontawesome.com/license (Commercial License) Copyright 2023 Fonticons, Inc. --><path d="M8 0H0V8 504v8H8 253.1l7-16H16V384H152h8V368h-8H16V288H152h8V272h-8H16V16H304V395.6L320 359V8 0h-8H8zM136 56h-8v8V96H96 88v8 48 8h8 32v32 8h8 48 8v-8V160h32 8v-8V104 96h-8H192V64 56h-8H136zm8 48V72h32v32 8h8 32v32H184h-8v8 32H144V152v-8h-8H104V112h32 8v-8zM344 384l-4.2 9.6-42 96L295 496l-7 16h17.5 7H551.5h7H576l-7-16-2.8-6.4-42-96L520 384H509.5 354.5 344zM551.5 496H534.1 329.9 312.5l7-16 35-80H509.5l35 80 7 16zM368 272a64 64 0 1 1 128 0 64 64 0 1 1 -128 0zm64 80a80 80 0 1 0 0-160 80 80 0 1 0 0 160z"/></svg>