<svg xmlns="http://www.w3.org/2000/svg" viewBox="0 0 640 512"><!--! Font Awesome Pro 6.5.1 by @fontawesome - https://fontawesome.com License - https://fontawesome.com/license (Commercial License) Copyright 2023 Fonticons, Inc. --><path d="M160 0h8H472h8V8 96H632h8v8V504v8h-8H416v0H384h-8H264h-8H224v0H8 0v-8V104 96H8 160V8 0zm16 16V96v16V496h80V360v-8h8H376h8v8V496h80V336 112 96 16H176zm448 96H480V336 496H624V304H520h-8V288h8H624V208H520h-8V192h8H624V112zm-464 0H16v80H120h8v16h-8H16v80H120h8v16h-8H16V496H160V112zM368 496V368H272V496h96zM296 56h48 8v8V96h32 8v8 48 8h-8H352v32 8h-8H296h-8v-8V160H256h-8v-8V104 96h8 32V64 56h8zm8 48v8h-8H264v32h32 8v8 32h32V152v-8h8 32V112H344h-8v-8V72H304v32z"/></svg>