<svg xmlns="http://www.w3.org/2000/svg" viewBox="0 0 576 512"><!--! Font Awesome Pro 6.5.1 by @fontawesome - https://fontawesome.com License - https://fontawesome.com/license (Commercial License) Copyright 2023 Fonticons, Inc. --><path d="M264 0h-8V8 64h16V16H560V288H328h-8v16h8H560v80H328h-8v16h8H560v96H320v16H568h8v-8V8 0h-8H264zM16 112H272V352H16V112zm0 256H272v48H16V368zm0 64H272v64H16V432zM0 96v16V496v16H16 272h16V496 112 96H272 16 0zM400 72v8 32H368h-8v8 48 8h8 32v32 8h8 48 8v-8V176h32 8v-8V120v-8h-8H464V80 72h-8H408h-8zm16 16h32v32 8h8 32v32H456h-8v8 32H416V168v-8h-8H376V128h32 8v-8V88zM120 168h-8v8 32H80 72v8 48 8h8 32v32 8h8 48 8v-8V272h32 8v-8V216v-8h-8H176V176v-8h-8H120zm8 48V184h32v32 8h8 32v32H168h-8v8 32H128V264v-8h-8H88V224h32 8v-8z"/></svg>