<svg xmlns="http://www.w3.org/2000/svg" viewBox="0 0 512 512"><!--! Font Awesome Pro 6.5.1 by @fontawesome - https://fontawesome.com License - https://fontawesome.com/license (Commercial License) Copyright 2023 Fonticons, Inc. --><path d="M256 0V8c0 30.6 13.9 59 36.7 75.6l16.1 11.8C336 115.4 352 148.7 352 184v8H336v-8c0-30.6-13.9-59-36.7-75.6L283.2 96.5C256 76.6 240 43.3 240 8V0h16zM128 160l128 96h16H496h16v16V496v16H496 16 0V496 336 256 176 160H16 128zM272 272H256h-5.3H16v64V496H496V272H272zm-42.7-16L122.7 176H16v80H229.3zM384 8c0 30.6 13.9 59 36.7 75.6l16.1 11.8C464 115.4 480 148.7 480 184v8H464v-8c0-30.6-13.9-59-36.7-75.6L411.2 96.5C384 76.6 368 43.3 368 8V0h16V8zM120 320v8V440v8H104v-8V328v-8h16zm96 0v8V440v8H200v-8V328v-8h16zm96 0v8V440v8H296v-8V328v-8h16zm96 0v8V440v8H392v-8V328v-8h16zM112 64A48 48 0 1 0 16 64a48 48 0 1 0 96 0zM0 64a64 64 0 1 1 128 0A64 64 0 1 1 0 64z"/></svg>