<svg xmlns="http://www.w3.org/2000/svg" viewBox="0 0 512 512"><!--! Font Awesome Pro 6.5.1 by @fontawesome - https://fontawesome.com License - https://fontawesome.com/license (Commercial License) Copyright 2023 Fonticons, Inc. --><path d="M512 0H0V16H32V496H0v16H208h8 80 8H512V496H480V16h32V0zM288 496H224V400h64v96zm16-104v-8h-8H216h-8v8V496H48V16H464V496H304V392zM328 72v8 64 8h8 64 8v-8V80 72h-8H336h-8zm16 16h48v48H344V88zM224 72h-8v8 64 8h8 64 8v-8V80 72h-8H224zm8 64V88h48v48H232zm-16 64v8 64 8h8 64 8v-8V208v-8h-8H224h-8zm16 16h48v48H232V216zm104-16h-8v8 64 8h8 64 8v-8V208v-8h-8H336zm8 64V216h48v48H344zM104 72v8 64 8h8 64 8v-8V80 72h-8H112h-8zm16 16h48v48H120V88zm-8 112h-8v8 64 8h8 64 8v-8V208v-8h-8H112zm8 64V216h48v48H120zm70.4 101.3c16.1-18 39.5-29.3 65.6-29.3s49.5 11.3 65.6 29.3l11.9-10.7c-19-21.3-46.7-34.7-77.5-34.7s-58.5 13.4-77.5 34.7l11.9 10.7z"/></svg>