<svg xmlns="http://www.w3.org/2000/svg" viewBox="0 0 576 512"><!--! Font Awesome Pro 6.5.1 by @fontawesome - https://fontawesome.com License - https://fontawesome.com/license (Commercial License) Copyright 2023 Fonticons, Inc. --><path d="M8 0H0V16H8 32V144v4l3.3 2.4L178.5 256 35.3 361.6 32 364v4V496H8 0v16H8 330.8c-6.9-4.9-13.5-10.2-19.6-16H48V372L192 265.9l71.1 52.4c1.6-5.4 3.4-10.7 5.5-15.8L205.5 256 348.7 150.4 352 148v-4V16h24 8V0h-8H8zM336 16V140L192 246.1 48 140V16H336zm96 224a128 128 0 1 1 0 256 128 128 0 1 1 0-256zm0 272a144 144 0 1 0 0-288 144 144 0 1 0 0 288zm8-224H424v8 72 8h8 56 8V360h-8H440V296v-8z"/></svg>