<svg xmlns="http://www.w3.org/2000/svg" viewBox="0 0 384 512"><!--! Font Awesome Pro 6.5.1 by @fontawesome - https://fontawesome.com License - https://fontawesome.com/license (Commercial License) Copyright 2023 Fonticons, Inc. --><path d="M0 0H8 376h8V16h-8H352V144v4l-3.3 2.4L205.5 256l130.3 96h.2v.2l12.7 9.4L352 364v4V496h24 8v16h-8H8 0V496H8 32V368v-4l3.3-2.4L48 352.2V352h.2l130.3-96L35.3 150.4 32 148v-4V16H8 0V0zM53.5 368L48 372V496H336V372l-5.5-4H53.5zm255.3-16L192 265.9 75.2 352H308.8zM48 16V140L192 246.1 336 140V16H48z"/></svg>