<svg xmlns="http://www.w3.org/2000/svg" viewBox="0 0 384 512"><!--! Font Awesome Pro 6.5.1 by @fontawesome - https://fontawesome.com License - https://fontawesome.com/license (Commercial License) Copyright 2023 Fonticons, Inc. --><path d="M8 0H0V16H8 32V144v4l3.3 2.4L178.5 256 35.3 361.6 32 364v4V496H8 0v16H8 376h8V496h-8H352V368v-4l-3.3-2.4L205.5 256 348.7 150.4 352 148v-4V16h24 8V0h-8H8zM336 16V128H48V16H336zm-5.5 128L192 246.1 53.5 144h277zM192 265.9L336 372v44H48V372L192 265.9zM48 496V432H336v64H48z"/></svg>