<svg xmlns="http://www.w3.org/2000/svg" viewBox="0 0 640 512"><!--! Font Awesome Pro 6.5.1 by @fontawesome - https://fontawesome.com License - https://fontawesome.com/license (Commercial License) Copyright 2023 Fonticons, Inc. --><path d="M421.7 10.3L416 4.7l-5.7 5.7L287.1 133.6l12.3 10.3L416 27.3l144 144V176H488 471.1l10.7 13.1L592 324v12H504 485.8l12.2 13.4L624 487.1V496H416v16 0H632h8v-8V484v-3.1l-2.1-2.3L522.2 352H600h8v-8V321.1v-2.9l-1.8-2.2L504.9 192H568h8v-8V168v-3.3l-2.3-2.3-152-152zM16 263.5L192 116.8 368 263.5V496H16V263.5zM0 256V496v16H16 368h16V496 256L192 96 0 256zm152 24h80v80H152V280zm0-16H136v16 80 16h16 80 16V360 280 264H232 152z"/></svg>