<svg xmlns="http://www.w3.org/2000/svg" viewBox="0 0 640 512"><!--! Font Awesome Pro 6.5.1 by @fontawesome - https://fontawesome.com License - https://fontawesome.com/license (Commercial License) Copyright 2023 Fonticons, Inc. --><path d="M182.7 11.7l37.4 57.8L287.5 55l12.1-2.6L297 64.5l-15.6 72.7-15.6-3.4 13-60.6-60.6 13-5.4 1.2-3-4.6L176 30.7 142.3 82.8l-3 4.6-5.4-1.2-60.6-13 13 60.6 1.2 5.4-4.6 3L30.7 176l52.1 33.7 4.6 3-1.2 5.4-13 60.6 60.6-13 3.4 15.6L64.5 297l-12.1 2.6L55 287.5l14.4-67.3L11.7 182.7 1.3 176l10.4-6.7 57.8-37.4L55 64.5 52.5 52.5 64.5 55l67.3 14.4 37.4-57.8L176 1.3l6.7 10.4zM400 101.5l5.2 4.5 224 192 6.1 5.2-10.4 12.1-6.1-5.2L576 273.4V504v8h-8H232h-8v-8V273.4l-42.8 36.7-6.1 5.2-10.4-12.1 6.1-5.2 224-192 5.2-4.5zm0 21.1L240 259.7V496H560V259.7L400 122.5zM344 272H456h8v8V392v8h-8H344h-8v-8V280v-8h8zm8 112h96V288H352v96zM174.1 126.5a47.7 47.7 0 1 0 0 95.3 47.7 47.7 0 1 0 0-95.3zm63.6 47.7a63.6 63.6 0 1 1 -127.3 0 63.6 63.6 0 1 1 127.3 0z"/></svg>