<svg xmlns="http://www.w3.org/2000/svg" viewBox="0 0 576 512"><!--! Font Awesome Pro 6.5.1 by @fontawesome - https://fontawesome.com License - https://fontawesome.com/license (Commercial License) Copyright 2023 Fonticons, Inc. --><path d="M336 5.5l5.2 4.5 224 192 6.1 5.2-10.4 12.1-6.1-5.2L512 177.4V408v8h-8H271.6c-1.9-5.4-4-10.7-6.2-16H496V163.7L336 26.5 176 163.7V284c-5.2-4-10.5-7.9-16-11.5V177.4l-42.8 36.7-6.1 5.2-10.4-12.1 6.1-5.2 224-192L336 5.5zM280 176H392h8v8V296v8h-8H280h-8v-8V184v-8h8zm8 112h96V192H288v96zM0 272V256c141.4 0 256 114.6 256 256H240C240 379.4 132.5 272 0 272zM48 480a16 16 0 1 0 -32 0 16 16 0 1 0 32 0zM0 480a32 32 0 1 1 64 0A32 32 0 1 1 0 480zm144 32c0-79.5-64.5-144-144-144V352c88.4 0 160 71.6 160 160H144z"/></svg>