<svg xmlns="http://www.w3.org/2000/svg" viewBox="0 0 576 512"><!--! Font Awesome Pro 6.5.1 by @fontawesome - https://fontawesome.com License - https://fontawesome.com/license (Commercial License) Copyright 2023 Fonticons, Inc. --><path d="M288 5.5l5.2 4.5 280 240-10.4 12.1L512 218.5V504v8h-8H72 64v-8V218.5L13.2 262.1 2.8 249.9l280-240L288 5.5zm0 21.1L80 204.8V496H496V204.8L288 26.5zm-7.7 214.7l7.7 7.4 7.7-7.4c11.5-11 26.8-17.2 42.7-17.2h2.4c32.7 0 59.2 26.5 59.2 59.2c0 16.1-6.6 31.5-18.2 42.7l-82.8 79.6L288 416.1l-11.1-10.7-82.8-79.6c-11.6-11.2-18.2-26.6-18.2-42.7c0-32.7 26.5-59.2 59.2-59.2h2.4c15.9 0 31.2 6.2 42.7 17.2zm-3.4 18.9l-7.7-7.4c-8.5-8.2-19.8-12.7-31.6-12.7h-2.4c-23.9 0-43.2 19.3-43.2 43.2c0 11.7 4.8 23 13.2 31.1L288 393.9l82.8-79.6c8.5-8.1 13.2-19.4 13.2-31.1c0-23.9-19.3-43.2-43.2-43.2h-2.4c-11.8 0-23.1 4.6-31.6 12.7l-7.7 7.4L288 270.8l-11.1-10.7z"/></svg>