<svg xmlns="http://www.w3.org/2000/svg" viewBox="0 0 576 512"><!--! Font Awesome Pro 6.5.1 by @fontawesome - https://fontawesome.com License - https://fontawesome.com/license (Commercial License) Copyright 2023 Fonticons, Inc. --><path d="M293.2 9.9L288 5.5l-5.2 4.5-280 240 10.4 12.1L64 218.5V504v8h8H504h8v-8V218.5l50.8 43.5 10.4-12.1L512 197.5V40 32h-8H392h-8v8V87.7L293.2 9.9zM400 101.5V48h96V183.7l-96-82.3zm96 103.4V496H300.3l-56.9-85.3L348 350.9l9.9-5.6-8.6-7.4-112-96-6.1-5.2-10.4 12.1 6.1 5.2 103.4 88.6L228 401.1l-7.4 4.3 4.8 7.1L281.1 496H80V204.8L288 26.5 496 204.8z"/></svg>