<svg xmlns="http://www.w3.org/2000/svg" viewBox="0 0 576 512"><!--! Font Awesome Pro 6.5.1 by @fontawesome - https://fontawesome.com License - https://fontawesome.com/license (Commercial License) Copyright 2023 Fonticons, Inc. --><path d="M293.2 9.9L288 5.5l-5.2 4.5-280 240 10.4 12.1L64 218.5V504v8h8H504h8v-8V218.5l50.8 43.5 10.4-12.1L512 197.5V40 32h-8H392h-8v8V87.7L293.2 9.9zM496 48V183.7l-96-82.3V48h96zm0 156.8V496H80V204.8L288 26.5 496 204.8zM280.3 241.2c-11.5-11-26.8-17.2-42.7-17.2h-2.4c-32.7 0-59.2 26.5-59.2 59.2c0 16.1 6.6 31.5 18.2 42.7l82.8 79.6L288 416.1l11.1-10.7 82.8-79.6c11.6-11.2 18.2-26.6 18.2-42.7c0-32.7-26.5-59.2-59.2-59.2h-2.4c-15.9 0-31.2 6.2-42.7 17.2l-7.7 7.4-7.7-7.4zm-3.4 18.9L288 270.8l11.1-10.7 7.7-7.4c8.5-8.2 19.8-12.7 31.6-12.7h2.4c23.9 0 43.2 19.3 43.2 43.2c0 11.7-4.8 23-13.2 31.1L288 393.9l-82.8-79.6c-8.5-8.1-13.2-19.4-13.2-31.1c0-23.9 19.3-43.2 43.2-43.2h2.4c11.8 0 23.1 4.6 31.6 12.7l7.7 7.4z"/></svg>