<svg xmlns="http://www.w3.org/2000/svg" viewBox="0 0 640 512"><!--! Font Awesome Pro 6.5.1 by @fontawesome - https://fontawesome.com License - https://fontawesome.com/license (Commercial License) Copyright 2023 Fonticons, Inc. --><path d="M464 0H448V8 32h0V48 176v16h0V512h16V192H624h16V176 48 32H624 464V8 0zm0 176V48H624V176H464zm-48-38L276.8 33.6 272 30l-4.8 3.6-256 192-6.4 4.8 9.6 12.8 6.4-4.8L64 206V504v8h8H416V496H352V328v-8h-8H200h-8v8V496H80V194L272 50 416 158V138zM336 336V496l-128 0V336H336z"/></svg>