<svg xmlns="http://www.w3.org/2000/svg" viewBox="0 0 640 512"><!--! Font Awesome Pro 6.5.1 by @fontawesome - https://fontawesome.com License - https://fontawesome.com/license (Commercial License) Copyright 2023 Fonticons, Inc. --><path d="M138.9 3.2C130.3 1.1 121.3 0 112 0C50.1 0 0 50.1 0 112s50.1 112 112 112c35 0 66.2-16 86.7-41.1c5-6.1 9.3-12.7 13-19.8c-6.8 2.5-14 4.1-21.6 4.7c-2 .2-4.1 .2-6.2 .2c-44.2 0-80-35.8-80-80c0-28.4 14.8-53.3 37.1-67.5c6.2-3.9 12.9-7 20-9.2c-7-3.4-14.5-6.2-22.2-8.1zM112 16c2.7 0 5.4 .1 8.1 .3C100.4 33.9 88 59.5 88 88c0 50.3 38.7 91.5 87.9 95.7c-17 15.1-39.4 24.3-63.9 24.3c-53 0-96-43-96-96s43-96 96-96zm293.2 89.9l-5.2-4.5-5.2 4.5-224 192-6.1 5.2 10.4 12.1 6.1-5.2L224 273.4V504v8h8H568h8v-8V273.4l42.8 36.7 6.1 5.2 10.4-12.1-6.1-5.2-224-192zM560 259.7V496H240V259.7L400 122.5 560 259.7zM336 272v8V392v8h8H456h8v-8V280v-8h-8H344h-8zm16 16h96v96H352V288zM264 0H248V8 56H200h-8V72h8 48v48 8h16v-8V72h48 8V56h-8H264V8 0zM104 320H88v8 48H40 32v16h8H88v48 8h16v-8V392h48 8V376h-8H104V328v-8z"/></svg>