<svg xmlns="http://www.w3.org/2000/svg" viewBox="0 0 576 512"><!--! Font Awesome Pro 6.5.1 by @fontawesome - https://fontawesome.com License - https://fontawesome.com/license (Commercial License) Copyright 2023 Fonticons, Inc. --><path d="M288 5.5l5.2 4.5 280 240-10.4 12.1L512 218.5V504v8h-8H72 64v-8V218.5L13.2 262.1 2.8 249.9l280-240L288 5.5zm0 21.1L80 204.8V496H281.1l-55.7-83.6-4.8-7.1 7.4-4.3 102.1-58.4L226.8 254.1l-6.1-5.2 10.4-12.1 6.1 5.2 112 96 8.6 7.4-9.9 5.6L243.4 410.7 300.3 496H496V204.8L288 26.5z"/></svg>