<svg xmlns="http://www.w3.org/2000/svg" viewBox="0 0 640 512"><!--! Font Awesome Pro 6.5.1 by @fontawesome - https://fontawesome.com License - https://fontawesome.com/license (Commercial License) Copyright 2023 Fonticons, Inc. --><path d="M240 5.5l5.2 4.5 224 192 6.1 5.2-10.4 12.1-6.1-5.2L416 177.4V224H400V163.7L240 26.5 80 163.7V400H272v16H72 64v-8V177.4L21.2 214.1l-6.1 5.2L4.7 207.1l6.1-5.2 224-192L240 5.5zM304 184v40H288V192H192v96h80v16H184h-8v-8V184v-8h8H296h8v8zm272 88H320V448H576V272zm-272 0V256h16H576h16v16V448h32 16v16 16l-32 32H288l-32-32V464 448h16 32V272zM576 464H320 304 272v9.4L294.6 496H601.4L624 473.4V464H592 576z"/></svg>