<svg xmlns="http://www.w3.org/2000/svg" viewBox="0 0 640 512"><!--! Font Awesome Pro 6.5.1 by @fontawesome - https://fontawesome.com License - https://fontawesome.com/license (Commercial License) Copyright 2023 Fonticons, Inc. --><path d="M464 8V32H624h16V48 176v16H624 464V512H448V192h0V176 48 32h0V8 0h16V8zM624 176V48H464V176H624zM276.8 33.6L416 138v20L272 50 80 194V496l336 0v16H72 64v-8V206L20.8 238.4l-6.4 4.8L4.8 230.4l6.4-4.8 256-192L272 30l4.8 3.6zM240 184h64 8v8 56h56 8v8 64 8h-8H312v56 8h-8H240h-8v-8V328H176h-8v-8V256v-8h8 56V192v-8h8zm8 72v8h-8H184v48h56 8v8 56h48V320v-8h8 56V264H304h-8v-8V200H248v56z"/></svg>