<svg xmlns="http://www.w3.org/2000/svg" viewBox="0 0 576 512"><!--! Font Awesome Pro 6.5.1 by @fontawesome - https://fontawesome.com License - https://fontawesome.com/license (Commercial License) Copyright 2023 Fonticons, Inc. --><path d="M293.2 9.9L288 5.5l-5.2 4.5-280 240 10.4 12.1L64 218.5V504v8h8H504h8v-8V218.5l50.8 43.5 10.4-12.1L512 197.5V40 32h-8H392h-8v8V87.7L293.2 9.9zM400 101.5V48h96V183.7l-96-82.3zm96 103.4V496H368V312v-8h-8H216h-8v8V496H80V204.8L288 26.5 496 204.8zM352 496H224V320H352V496z"/></svg>