<svg xmlns="http://www.w3.org/2000/svg" viewBox="0 0 576 512"><!--! Font Awesome Pro 6.5.1 by @fontawesome - https://fontawesome.com License - https://fontawesome.com/license (Commercial License) Copyright 2023 Fonticons, Inc. --><path d="M288 5.5l5.2 4.5 280 240-10.4 12.1L512 218.5V390.9c-3.8-2.6-7.8-5.5-12.3-8.7l0 0-3.7-2.7V204.8L288 26.5 80 204.8V379.5l-2.6 1.9-1.1 .8c-4.4 3.2-8.5 6.1-12.3 8.7V218.5L13.2 262.1 2.8 249.9l280-240L288 5.5zM216 184h8H352h8v8V320v8h-8H224h-8v-8V192v-8zm16 16V312H344V200H232zM96.6 427c4.3 6.1 8.5 12.2 13.3 17.9c4.8 5.8 11.8 13.5 20.2 21.2C147.4 481.8 169.5 496 192 496s44.6-14.2 61.8-29.9c8.5-7.7 15.4-15.4 20.2-21.2c4.8-5.8 9-11.8 13.3-17.9l.6-.9c.2 .3 .4 .6 .6 .9c4.3 6.1 8.5 12.2 13.3 17.9c4.8 5.8 11.8 13.5 20.2 21.2C339.4 481.8 361.5 496 384 496s44.6-14.2 61.8-29.9c8.5-7.7 15.4-15.4 20.2-21.2c4.8-5.8 9-11.8 13.3-17.9l.6-.9 .6 .9c4.3 6.1 8.5 12.2 13.3 17.9c4.8 5.8 11.8 13.5 20.2 21.2C531.4 481.8 553.5 496 576 496v16c-28.7 0-54.6-17.8-72.6-34.1c-10.2-9.2-18.2-18.4-23.4-24.8c-5.2 6.4-13.3 15.6-23.4 24.8c-18 16.3-43.9 34.1-72.6 34.1s-54.6-17.8-72.6-34.1c-10.2-9.2-18.2-18.4-23.4-24.8c-5.2 6.4-13.3 15.6-23.4 24.8c-18 16.3-43.9 34.1-72.6 34.1s-54.6-17.8-72.6-34.1c-10.2-9.2-18.2-18.4-23.4-24.8c-5.2 6.4-13.2 15.6-23.4 24.8C54.6 494.2 28.7 512 0 512V496c22.5 0 44.6-14.2 61.8-29.9c8.5-7.7 15.4-15.4 20.2-21.2c4.8-5.8 9-11.8 13.3-17.9l.6-.9 .6 .9z"/></svg>