<svg xmlns="http://www.w3.org/2000/svg" viewBox="0 0 576 512"><!--! Font Awesome Pro 6.5.1 by @fontawesome - https://fontawesome.com License - https://fontawesome.com/license (Commercial License) Copyright 2023 Fonticons, Inc. --><path d="M288 5.5l5.2 4.5 280 240-10.4 12.1L512 218.5V504v8h-8H72 64v-8V218.5L13.2 262.1 2.8 249.9l280-240L288 5.5zm0 21.1L80 204.8V496H496V204.8L288 26.5zM256 176h64 8v8 64h64 8v8 64 8h-8H328v64 8h-8H256h-8v-8V328H184h-8v-8V256v-8h8 64V184v-8h8zm8 80v8h-8H192v48h64 8v8 64h48V320v-8h8 64V264H320h-8v-8V192H264v64z"/></svg>