<svg xmlns="http://www.w3.org/2000/svg" viewBox="0 0 640 512"><!--! Font Awesome Pro 6.5.1 by @fontawesome - https://fontawesome.com License - https://fontawesome.com/license (Commercial License) Copyright 2023 Fonticons, Inc. --><path d="M336 16H624V496H416v16H624h16V496 16 0H624 336 320V16 161l16 13.3V16zm80 272h40 8v-8V216v-8h-8H392h-8v6.3l16 13.3V224h48v48H416v16zm0 112h40 8v-8V328v-8h-8H416v16h32v48H416v16zm88-192h-8v8 64 8h8 64 8v-8V216v-8h-8H504zm8 64V224h48v48H512zm-16 48v8 64 8h8 64 8v-8V328v-8h-8H504h-8zm64 16v48H512V336h48zM392 96h-8v8 64 8h8 64 8v-8V104 96h-8H392zm8 64V112h48v48H400zm96-64v8 64 8h8 64 8v-8V104 96h-8H504h-8zm16 16h48v48H512V112zM16 263.5L192 116.8 368 263.5V496H16V263.5zM0 256V496v16H16 368h16V496 256L192 96 0 256zm152 24h80v80H152V280zm0-16H136v16 80 16h16 80 16V360 280 264H232 152z"/></svg>