<svg xmlns="http://www.w3.org/2000/svg" viewBox="0 0 576 512"><!--! Font Awesome Pro 6.5.1 by @fontawesome - https://fontawesome.com License - https://fontawesome.com/license (Commercial License) Copyright 2023 Fonticons, Inc. --><path d="M288 5.5l5.2 4.5 280 240-10.4 12.1L512 218.5V504v8h-8H72 64v-8V218.5L13.2 262.1 2.8 249.9l280-240L288 5.5zm0 21.1L80 204.8V496H496V204.8L288 26.5zM288 272a48 48 0 1 0 0-96 48 48 0 1 0 0 96zm0-112a64 64 0 1 1 0 128 64 64 0 1 1 0-128zM219.5 336l-21.3 64H377.8l-21.3-64H219.5zM368 320l26.7 80 5.3 16H383.1 192.9 176l5.3-16L208 320H368z"/></svg>