<svg xmlns="http://www.w3.org/2000/svg" viewBox="0 0 640 512"><!--! Font Awesome Pro 6.5.1 by @fontawesome - https://fontawesome.com License - https://fontawesome.com/license (Commercial License) Copyright 2023 Fonticons, Inc. --><path d="M288 5.5l5.2 4.5L482 171.7c-4.9 2.7-9.5 5.8-13.8 9.2L288 26.5 80 204.8V496H208V312v-8h8H360h8v8V496h16l0 16H72 64v-8V218.5L13.2 262.1 2.8 249.9l280-240L288 5.5zM224 496H352V320H224V496zM528 208c-26.5 0-48 21.5-48 48v64h96V256c0-26.5-21.5-48-48-48zm-64 48c0-35.3 28.7-64 64-64s64 28.7 64 64v64h32 16v16V496v16H624 432 416V496 336 320h16 32V256zm-32 80V496H624V336H592 576 480 464 432z"/></svg>