<svg xmlns="http://www.w3.org/2000/svg" viewBox="0 0 640 512"><!--! Font Awesome Pro 6.5.1 by @fontawesome - https://fontawesome.com License - https://fontawesome.com/license (Commercial License) Copyright 2023 Fonticons, Inc. --><path d="M8 0H0V8 216v3l2 2.3L64 291V496v8H80v-8V288v-3l-2-2.3L16 213V16H96V88v8h16V88 16H240V88v8h16V88 16h80V147.7l16-13.3V8 0h-8H8zM208 176v48H144V176c0-17.7 14.3-32 32-32s32 14.3 32 32zm-80 0v48 16h16 64 16V224 176c0-26.5-21.5-48-48-48s-48 21.5-48 48zm144 87.5L448 116.8 624 263.5V496H272V263.5zM256 256V496v16h16H624h16V496 256L448 96 256 256zm152 24h80v80H408V280zm0-16H392v16 80 16h16 80 16V360 280 264H488 408z"/></svg>