<svg xmlns="http://www.w3.org/2000/svg" viewBox="0 0 576 512"><!--! Font Awesome Pro 6.5.1 by @fontawesome - https://fontawesome.com License - https://fontawesome.com/license (Commercial License) Copyright 2023 Fonticons, Inc. --><path d="M288 5.5l5.2 4.5L384 87.7V40 32h8H504h8v8V197.5l61.2 52.5-10.4 12.1L512 218.5V504v8h-8H72 64v-8V218.5L13.2 262.1 2.8 249.9l280-240L288 5.5zM496 183.7V48H400v53.5l96 82.3zM288 26.5L80 204.8V496H496V204.8L288 26.5zM336 224a48 48 0 1 0 -96 0 48 48 0 1 0 96 0zm-112 0a64 64 0 1 1 128 0 64 64 0 1 1 -128 0zm-4.5 112l-21.3 64H377.8l-21.3-64H219.5zM368 320l26.7 80 5.3 16H383.1 192.9 176l5.3-16L208 320H368z"/></svg>