<svg xmlns="http://www.w3.org/2000/svg" viewBox="0 0 640 512"><!--! Font Awesome Pro 6.5.1 by @fontawesome - https://fontawesome.com License - https://fontawesome.com/license (Commercial License) Copyright 2023 Fonticons, Inc. --><path d="M293.2 9.9L288 5.5l-5.2 4.5-280 240 10.4 12.1L64 218.5V504v8h8H394.8c-6.9-4.9-13.5-10.2-19.6-16H80V204.8L288 26.5l193.7 166c4.7-.4 9.5-.6 14.3-.6c3.3 0 6.7 .1 9.9 .3L293.2 9.9zm74 238.1H328V184v-8h-8H256h-8v8 64H184h-8v8 64 8h8 64v64 8h8 64 2.9c-1.4-7.8-2.4-15.8-2.7-24H312v8H264V320v-8h-8H192V264h64 8v-8V192h48v64 8h8 34c4.1-5.6 8.5-10.9 13.3-16zm.7 120a128 128 0 1 1 256 0 128 128 0 1 1 -256 0zm272 0a144 144 0 1 0 -288 0 144 144 0 1 0 288 0zM508 444V420H484v24h24zm-4-164H488v8 96 8h16v-8V288v-8z"/></svg>