<svg xmlns="http://www.w3.org/2000/svg" viewBox="0 0 384 512"><!--! Font Awesome Pro 6.5.1 by @fontawesome - https://fontawesome.com License - https://fontawesome.com/license (Commercial License) Copyright 2023 Fonticons, Inc. --><path d="M84.2 73.5C109.1 56.9 138.4 48 168.3 48H235c46.9 0 85 38.1 85 85c0 22.4-8.8 43.4-23.8 59H16 0v16H16 275c-1.2 .7-2.5 1.3-3.8 1.9L106 287.6c-.3 .1-.5 .2-.8 .4H16 0v16H16 81.4C60.5 322.9 48 350 48 379c0 55.8 45.2 101 101 101h66.7c33.1 0 65.5-9.8 93-28.2l7.8-5.2 6.7-4.4-8.9-13.3-6.7 4.4-7.8 5.2c-24.9 16.6-54.2 25.5-84.1 25.5H149c-46.9 0-85-38.1-85-85c0-31.5 17.4-60.3 45-75H368h16V288H368 142.8L278 224.4c9.1-4.3 17.4-9.8 24.6-16.4H368h16V192H368 317c12.1-16.9 19-37.4 19-59c0-55.8-45.2-101-101-101H168.3c-33.1 0-65.5 9.8-93 28.2l-7.8 5.2-6.7 4.4 8.9 13.3 6.7-4.4 7.8-5.2z"/></svg>