<svg xmlns="http://www.w3.org/2000/svg" viewBox="0 0 384 512"><!--! Font Awesome Pro 6.5.1 by @fontawesome - https://fontawesome.com License - https://fontawesome.com/license (Commercial License) Copyright 2023 Fonticons, Inc. --><path d="M0 208C0 93.1 93.1 0 208 0h8V8 99.2c95.7 18.7 168 103 168 204.2c0 114.9-93.1 208-208 208h-8v-8V412.2C72.3 393.5 0 309.2 0 208zM200 16.2C97.7 20.4 16 104.6 16 208c0 95.6 69.8 174.9 161.3 189.6l6.7 1.1v6.8 89.8c102.3-4.2 184-88.5 184-191.8c0-95.6-69.8-174.9-161.3-189.6l-6.7-1.1v-6.8V16.2zM192 336a80 80 0 1 0 0-160 80 80 0 1 0 0 160zm0-176a96 96 0 1 1 0 192 96 96 0 1 1 0-192zm16 96a16 16 0 1 0 -32 0 16 16 0 1 0 32 0zm-48 0a32 32 0 1 1 64 0 32 32 0 1 1 -64 0z"/></svg>