<svg xmlns="http://www.w3.org/2000/svg" viewBox="0 0 448 512"><!--! Font Awesome Pro 6.5.1 by @fontawesome - https://fontawesome.com License - https://fontawesome.com/license (Commercial License) Copyright 2023 Fonticons, Inc. --><path d="M224 0C135.6 0 64 71.6 64 160c0 5.6 .3 11 .8 16.5C37.3 180 16 203.5 16 232v48 8h8H64h66.7H317.3 384h40 8v-8V232c0-28.5-21.3-52-48.8-55.5c.6-5.4 .8-10.9 .8-16.5C384 71.6 312.4 0 224 0zM80 160C80 80.5 144.5 16 224 16s144 64.5 144 144c0 7.7-.6 15.3-1.8 22.7l-1.5 9.3h9.4H376c22.1 0 40 17.9 40 40v40H384 317.3 130.7 64 32V232c0-22.1 17.9-40 40-40h1.9 9.4l-1.5-9.3c-1.2-7.4-1.8-15-1.8-22.7zM214.5 497.2L224 512l9.5-14.8L347.4 320h-19L224 482.4 119.6 320h-19L214.5 497.2z"/></svg>