<svg xmlns="http://www.w3.org/2000/svg" viewBox="0 0 512 512"><!--! Font Awesome Pro 6.5.1 by @fontawesome - https://fontawesome.com License - https://fontawesome.com/license (Commercial License) Copyright 2023 Fonticons, Inc. --><path d="M73.3 0c19.5 0 38.5 7.7 52.3 21.5L114.2 32.9C103.5 22.1 88.6 16 73.3 16C41.8 16 16 41.5 16 72.6c0 15.6 6.5 30.6 17.9 41.3L128 202.1l94.1-88.2C233.5 103.1 240 88.2 240 72.6c0-31-25.8-56.6-57.3-56.6c-15.3 0-30.2 6.1-41 16.9l-2.5 2.5L128 46.6 116.7 35.3l-2.5-2.5 11.3-11.3L128 24l2.5-2.5C144.3 7.7 163.2 0 182.7 0C222.8 0 256 32.5 256 72.6c0 20.1-8.3 39.2-22.9 52.9L128 224 22.9 125.5C8.3 111.8 0 92.6 0 72.6C0 32.5 33.2 0 73.3 0zM512 6.2V16 176v0c0 26.5-28.7 48-64 48s-64-21.5-64-48s28.7-48 64-48c19.1 0 36.3 6.3 48 16.3V25.8L352 54.6V208v0c0 26.5-28.7 48-64 48s-64-21.5-64-48s28.7-48 64-48c19.1 0 36.3 6.3 48 16.3V48 41.4l6.4-1.3 160-32L512 6.2zM483.7 154.9c-8.6-6.4-21.1-10.9-35.7-10.9s-27.1 4.4-35.7 10.9s-12.3 14.1-12.3 21.1s3.8 14.7 12.3 21.1s21.1 10.9 35.7 10.9s27.1-4.4 35.7-10.9s12.3-14.1 12.3-21.1v0c0-7.1-3.8-14.7-12.3-21.1zm-160 32c-8.6-6.4-21.1-10.9-35.7-10.9s-27.1 4.4-35.7 10.9s-12.3 14.1-12.3 21.1s3.8 14.7 12.3 21.1s21.1 10.9 35.7 10.9s27.1-4.4 35.7-10.9s12.3-14.1 12.3-21.1v0c0-7.1-3.8-14.7-12.3-21.1zM472 256h8 11.4l-3.8 10.7L451.4 368H504h8v8 16 3.9l-3.1 2.4-144 112-2.2 1.7H360h-8H340.6l3.8-10.7L380.6 400H328h-8v-8V376.9 373l3.1-2.4 144-112.9 2.2-1.7H472zM336 380.8V384h56 11.4l-3.8 10.7-33.8 94.7L496 388.1V384H440 428.6l3.8-10.7 33.8-94.7L336 380.8zM200 272l16 32h56 16v16V496v16H272 16 0V496 320 304H16 72l16-32H200zm16 48h-9.9l-4.4-8.8L190.1 288H97.9L86.3 311.2 81.9 320H72 16V496H272V320H216zm-32 88a40 40 0 1 0 -80 0 40 40 0 1 0 80 0zm-40 56a56 56 0 1 1 0-112 56 56 0 1 1 0 112z"/></svg>