<svg xmlns="http://www.w3.org/2000/svg" viewBox="0 0 576 512"><!--! Font Awesome Pro 6.5.1 by @fontawesome - https://fontawesome.com License - https://fontawesome.com/license (Commercial License) Copyright 2023 Fonticons, Inc. --><path d="M240 16h96v96H240V16zM224 0V16v96 16h16 96 16V112 16 0H336 240 224zM192 64H16 0V80 496v16H16 560h16V496 80 64H560 384V80H560V496H16V80H192V64zm48 192a48 48 0 1 1 96 0 48 48 0 1 1 -96 0zm112 0a64 64 0 1 0 -128 0 64 64 0 1 0 128 0zM214.2 368H367.1l21.3 64h16.9l-26.7-80h-176L176 432h16.9l21.3-64z"/></svg>