<svg xmlns="http://www.w3.org/2000/svg" viewBox="0 0 576 512"><!--! Font Awesome Pro 6.5.1 by @fontawesome - https://fontawesome.com License - https://fontawesome.com/license (Commercial License) Copyright 2023 Fonticons, Inc. --><path d="M16 48v64H560V48H16zm0 80V464H560V128H16zM0 32H16 560h16V48 464v16H560 16 0V464 48 32zM192 288a48 48 0 1 0 0-96 48 48 0 1 0 0 96zm0-112a64 64 0 1 1 0 128 64 64 0 1 1 0-128zM102.2 416H85.3L112 336H272l26.7 80H281.8l-21.3-64H123.5l-21.3 64zM352 224h8H504h8v16h-8H360h-8V224zm0 64h8H504h8v16h-8H360h-8V288zm0 64h8H504h8v16h-8H360h-8V352z"/></svg>