<svg xmlns="http://www.w3.org/2000/svg" viewBox="0 0 576 512"><!--! Font Awesome Pro 6.5.1 by @fontawesome - https://fontawesome.com License - https://fontawesome.com/license (Commercial License) Copyright 2023 Fonticons, Inc. --><path d="M560 336H464V192h64.1c20.4 38.1 31.9 81.7 31.9 128v16zm-112 0H378.5c-13.2-37.3-48.7-64-90.5-64s-77.4 26.7-90.5 64H128V192H320h16H448V336zm-65.3 16H448h16 96V464H384V368c0-5.5-.5-10.8-1.3-16zM128 352h65.3c-.9 5.2-1.3 10.5-1.3 16v96H16V352h96 16zm-16-16H16V320c0-46.3 11.6-89.9 32-128.1v.1h64V336zM518.8 176H336V52.2C413 65.9 478.8 112.1 518.8 176zM288 48c10.8 0 21.5 .6 32 1.9V176H57.2C105.3 99.1 190.7 48 288 48zM16 480H192 384 560h16V464 320C576 160.9 447.1 32 288 32S0 160.9 0 320V464v16H16zM288 288c44.2 0 80 35.8 80 80v96H208V368c0-44.2 35.8-80 80-80z"/></svg>