<svg xmlns="http://www.w3.org/2000/svg" viewBox="0 0 448 512"><!--! Font Awesome Pro 6.5.1 by @fontawesome - https://fontawesome.com License - https://fontawesome.com/license (Commercial License) Copyright 2023 Fonticons, Inc. --><path d="M432 352H16V464H432V352zm-11.3-16L288 203.3l-90.3 90.3L155.3 336H420.7zm-282.3-5.7L180.7 288 128 235.3 27.3 336H132.7l5.7-5.7zM16 48V324.7L122.3 218.3l5.7-5.7 5.7 5.7L192 276.7l90.3-90.3 5.7-5.7 5.7 5.7L432 324.7V48H16zM448 336v8 8V464v16H432 16 0V464 352v-8-8V48 32H16 432h16V48 336zM88 144a24 24 0 1 0 48 0 24 24 0 1 0 -48 0zm24 40a40 40 0 1 1 0-80 40 40 0 1 1 0 80z"/></svg>