<svg xmlns="http://www.w3.org/2000/svg" viewBox="0 0 640 512"><!--! Font Awesome Pro 6.5.1 by @fontawesome - https://fontawesome.com License - https://fontawesome.com/license (Commercial License) Copyright 2023 Fonticons, Inc. --><path d="M16.2 5L9.9 0 0 12.5l6.3 5L623.8 507l6.3 5 9.9-12.5-6.3-5L16.2 5zM467.3 464h-280L310.8 340.5l-12.6-10L288 340.7l-86.5-86.5-10.6-8.4-4.5 4.5L80 356.7V158.3L64 145.6V464v16H80 487.5l-20.3-16zM560 32H152.5l20.3 16H560V292.7L453.7 186.3l-5.7-5.7-5.7 5.7L400.7 228l12.6 10L448 203.3l112 112v38.4l16 12.6V48 32H560zM80 379.3l112-112L276.7 352l-112 112H80V379.3z"/></svg>