<svg xmlns="http://www.w3.org/2000/svg" viewBox="0 0 512 512"><!--! Font Awesome Pro 6.5.1 by @fontawesome - https://fontawesome.com License - https://fontawesome.com/license (Commercial License) Copyright 2023 Fonticons, Inc. --><path d="M16 48V356.7L122.3 250.3l5.7-5.7 5.7 5.7L224 340.7 378.3 186.3l5.7-5.7 5.7 5.7L496 292.7V48H16zm0 331.3V464h84.7l112-112L128 267.3 16 379.3zm368-176L123.3 464H496V315.3l-112-112zM0 32H16 496h16V48 464v16H496 16 0V464 48 32zM168 160a40 40 0 1 0 -80 0 40 40 0 1 0 80 0zm-96 0a56 56 0 1 1 112 0A56 56 0 1 1 72 160z"/></svg>