<svg xmlns="http://www.w3.org/2000/svg" viewBox="0 0 512 512"><!--! Font Awesome Pro 6.5.1 by @fontawesome - https://fontawesome.com License - https://fontawesome.com/license (Commercial License) Copyright 2023 Fonticons, Inc. --><path d="M16 48V464H496V48H16zM0 32H16 496h16V48 464v16H496 16 0V464 48 32zM304 192a48 48 0 1 0 -96 0 48 48 0 1 0 96 0zM166.2 368H345.8l-21.3-64H187.5l-21.3 64zM336 288l26.7 80 5.3 16H351.1 160.9 144l5.3-16L176 288H336zM256 128a64 64 0 1 1 0 128 64 64 0 1 1 0-128z"/></svg>