<svg xmlns="http://www.w3.org/2000/svg" viewBox="0 0 576 512"><!--! Font Awesome Pro 6.5.1 by @fontawesome - https://fontawesome.com License - https://fontawesome.com/license (Commercial License) Copyright 2023 Fonticons, Inc. --><path d="M560 48V228.7l-90.3-90.3-5.7-5.7-5.7 5.7L304 292.7l-90.3-90.3-5.7-5.7-5.7 5.7L112 292.7V48H560zM112 368V315.3l96-96L292.7 304 229 367.7c-.1 .1-.2 .2-.3 .3H112zm448 0H251.3l58.3-58.3L464 155.3l96 96V368zM112 32H96V48 368v16h16H560h16V368 48 32H560 112zm136 96a24 24 0 1 1 -48 0 24 24 0 1 1 48 0zM224 88a40 40 0 1 0 0 80 40 40 0 1 0 0-80zM16 128H0v16V464v16H16 464h16V464 416H464v48H16V144H64V128H16z"/></svg>