<svg xmlns="http://www.w3.org/2000/svg" viewBox="0 0 576 512"><!--! Font Awesome Pro 6.5.1 by @fontawesome - https://fontawesome.com License - https://fontawesome.com/license (Commercial License) Copyright 2023 Fonticons, Inc. --><path d="M16 80V432H40c0-1.8 .6-3.6 1.8-5.1l144-176 6.6-8 6.1 8.4 45.6 62.8L345.8 187l6.2-7.8 6.2 7.8 192 240-6.2 5h16V80H16zM58.3 432h91.4l4-5 80-100-42.1-57.9L58.3 432zm111.9 0H533.8L352 204.8 250.1 332.2 170.2 432zM0 64H16 560h16V80 432v16H560 16 0V432 80 64zM128 224a32 32 0 1 0 0-64 32 32 0 1 0 0 64zm0-80a48 48 0 1 1 0 96 48 48 0 1 1 0-96z"/></svg>