<svg xmlns="http://www.w3.org/2000/svg" viewBox="0 0 448 512"><!--! Font Awesome Pro 6.5.1 by @fontawesome - https://fontawesome.com License - https://fontawesome.com/license (Commercial License) Copyright 2023 Fonticons, Inc. --><path d="M340 376h92v88H16V376h92 17.3H322.7 340zm-6.5-16L304 288H144l-29.5 72H16V48H432V360H333.5zm-201.6 0l22.9-56H293.3l22.9 56H131.8zM448 368v-8V48 32H432 16 0V48 360v8 8 88 16H16 432h16V464 376v-8zM176 192a48 48 0 1 1 96 0 48 48 0 1 1 -96 0zm48 64a64 64 0 1 0 0-128 64 64 0 1 0 0 128z"/></svg>