<svg xmlns="http://www.w3.org/2000/svg" viewBox="0 0 576 512"><!--! Font Awesome Pro 6.5.1 by @fontawesome - https://fontawesome.com License - https://fontawesome.com/license (Commercial License) Copyright 2023 Fonticons, Inc. --><path d="M560 48V368H458L416 256H256L214 368H112V48H560zM464 384h96 16V368 48 32H560 112 96V48 368v16h16 96 17.1H446.9 464zm-23.1-16H231.1l36-96H404.9l36 96zM64 128H16 0v16V464v16H16 464h16V464 416H464v48H16V144H64V128zm224 32a48 48 0 1 1 96 0 48 48 0 1 1 -96 0zm48 64a64 64 0 1 0 0-128 64 64 0 1 0 0 128z"/></svg>