<svg xmlns="http://www.w3.org/2000/svg" viewBox="0 0 512 512"><!--! Font Awesome Pro 6.5.1 by @fontawesome - https://fontawesome.com License - https://fontawesome.com/license (Commercial License) Copyright 2023 Fonticons, Inc. --><path d="M16 322l.5-2H123.1l29.8 59.6 2.2 4.4H160 352h4.9l2.2-4.4L388.9 320H495.5l.5 2V464H16V322zM84.5 48h343l64 256H384h-4.9l-2.2 4.4L347.1 368H164.9l-29.8-59.6-2.2-4.4H128 20.5l64-256zM0 320V464v16H16 496h16V464 320L440 32H72L0 320zM152 112h-8v16h8H368h8V112h-8H152zm-24 64h-8v16h8H384h8V176h-8H128zm-16 64h-8v16h8H392h8V240h-8H112z"/></svg>