<svg xmlns="http://www.w3.org/2000/svg" viewBox="0 0 512 512"><!--! Font Awesome Pro 6.5.1 by @fontawesome - https://fontawesome.com License - https://fontawesome.com/license (Commercial License) Copyright 2023 Fonticons, Inc. --><path d="M16 176H139.1l29.8 59.6c1.4 2.7 4.1 4.4 7.2 4.4H336c3 0 5.8-1.7 7.2-4.4L372.9 176H496V304H16V176zm5.5-16L90.1 16H421.9l68.6 144H368c-3 0-5.8 1.7-7.2 4.4L331.1 224H180.9l-29.8-59.6c-1.4-2.7-4.1-4.4-7.2-4.4H21.5zM80 0L0 168V304v16H16 496h16V304 168L432 0H80zM184 416l-32-64H16 0v16V496v16H16 496h16V496 368 352H496 360l-32 64H184zm185.9-48H496V496H16V368H142.1l27.6 55.2c2.7 5.4 8.3 8.8 14.3 8.8H328c6.1 0 11.6-3.4 14.3-8.8L369.9 368z"/></svg>