<svg xmlns="http://www.w3.org/2000/svg" viewBox="0 0 512 512"><!--! Font Awesome Pro 6.5.1 by @fontawesome - https://fontawesome.com License - https://fontawesome.com/license (Commercial License) Copyright 2023 Fonticons, Inc. --><path d="M264 312v8H248v-8V35.3L141.7 141.7l-5.7 5.7L124.7 136l5.7-5.7 120-120L256 4.7l5.7 5.7 120 120 5.7 5.7L376 147.3l-5.7-5.7L264 35.3V312zm-112 8l32 64H328l32-64H496h16v16V496v16H496 16 0V496 336 320H16 152zm190.3 71.2c-2.7 5.4-8.2 8.8-14.3 8.8H184c-6.1 0-11.6-3.4-14.3-8.8L142.1 336H16V496H496V336H369.9l-27.6 55.2z"/></svg>