<svg xmlns="http://www.w3.org/2000/svg" viewBox="0 0 320 512"><!--! Font Awesome Pro 6.5.1 by @fontawesome - https://fontawesome.com License - https://fontawesome.com/license (Commercial License) Copyright 2023 Fonticons, Inc. --><path d="M0 32H8 112s0 0 0 0h8H312h8V48h-8H178c44.1 22.8 74.9 67.7 77.7 120H312h8v16h-8H255.8c-4.2 75.8-66.9 136-143.8 136H23L252.3 465.2l-8.6 13.5-240-152L0 324.4V320v-8-8H8 112c68 0 123.6-53 127.8-120H8 0V168H8 239.8C235.6 101 180 48 112 48c0 0 0 0 0 0H8 0V32z"/></svg>