<svg xmlns="http://www.w3.org/2000/svg" viewBox="0 0 576 512"><!--! Font Awesome Pro 6.5.1 by @fontawesome - https://fontawesome.com License - https://fontawesome.com/license (Commercial License) Copyright 2023 Fonticons, Inc. --><path d="M40 32H32v8V256 384v88 8h8H536h8v-8V320 256 112 98.4L532.1 105 368 196.9V112 98.1l-12 7L192 200.7V40 32h-8H40zm8 224V48H176V214.7v13.9l12-7 164-95.6v84.6 13.6l11.9-6.7L528 125.6V256v64V464H48V384 256zm80 48h-8v8 64 8h8 64 8v-8V312v-8h-8H128zm8 64V320h48v48H136zm112-64v8 64 8h8 64 8v-8V312v-8h-8H256h-8zm16 16h48v48H264V320zm120-16h-8v8 64 8h8 64 8v-8V312v-8h-8H384zm8 64V320h48v48H392z"/></svg>