<svg xmlns="http://www.w3.org/2000/svg" viewBox="0 0 640 512"><!--! Font Awesome Pro 6.5.1 by @fontawesome - https://fontawesome.com License - https://fontawesome.com/license (Commercial License) Copyright 2023 Fonticons, Inc. --><path d="M16 80V432H624V80H16zM0 64H16 624h16V80 432v16H624 16 0V432 80 64zm280 96h32 20c28.7 0 52 23.3 52 52c0 15.7-6.9 29.7-17.9 39.2c19.8 7.4 33.9 26.4 33.9 48.8c0 28.7-23.3 52-52 52H312 280h-8v-8V320 256 192 168v-8h8zM248.7 352H231.3l-17.4-40H106.1L88.7 352H71.3l1.4-3.2 80-184 2.1-4.8h10.5l2.1 4.8 80 184 1.4 3.2zM160 188.1L113.1 296h93.9L160 188.1zM288 192v56h44c19.9 0 36-16.1 36-36s-16.1-36-36-36H288v16zm44 72H288v56 16h60c19.9 0 36-16.1 36-36s-16.1-36-36-36H332z"/></svg>