<svg xmlns="http://www.w3.org/2000/svg" viewBox="0 0 640 512"><!--! Font Awesome Pro 6.5.1 by @fontawesome - https://fontawesome.com License - https://fontawesome.com/license (Commercial License) Copyright 2023 Fonticons, Inc. --><path d="M624 80V432H16V80H624zM16 64H0V80 432v16H16 624h16V432 80 64H624 16zm88 104v16h8 24V328H112h-8v16h8 64 8V328h-8H152V176v-8h-8H112h-8zm156 26.5c15.1-12.9 37.7-11.3 50.8 3.6c12.5 14.3 11.8 35.9-1.6 49.4l-74.8 74.8-2.3 2.3V328v8 8h8 96 8V328h-8H251.3l69.1-69.1c19.4-19.4 20.5-50.6 2.4-71.2c-18.8-21.5-51.5-23.9-73.2-5.3l-22.8 19.5 10.4 12.1L260 194.5z"/></svg>