<svg xmlns="http://www.w3.org/2000/svg" viewBox="0 0 320 512"><!--! Font Awesome Pro 6.5.1 by @fontawesome - https://fontawesome.com License - https://fontawesome.com/license (Commercial License) Copyright 2023 Fonticons, Inc. --><path d="M136 48C78.6 48 32 94.6 32 152v8H16v-8C16 85.7 69.7 32 136 32h48c66.3 0 120 53.7 120 120v6.3c0 33.8-16.4 65.5-44 85l-92 64.9V352v16 8H152v-8V352 304v-4.1V136v-8h16v8V288.6l82.7-58.4c23.4-16.5 37.3-43.3 37.3-71.9V152c0-57.4-46.6-104-104-104H136zm8 384h32v32H144V432z"/></svg>