<svg xmlns="http://www.w3.org/2000/svg" viewBox="0 0 512 512"><!--! Font Awesome Pro 6.5.1 by @fontawesome - https://fontawesome.com License - https://fontawesome.com/license (Commercial License) Copyright 2023 Fonticons, Inc. --><path d="M112 96V72 64h16v8V96h37.9 21.8l-16.6 14.1c-3.6 3.1-7.3 6.4-10.9 10.1c-55.7 55.7-46.7 114.7-27.8 140.9l74.7-74.7-12.7-12.7-5.7-5.7L200 156.7l5.7 5.7 12.7 12.7 44.7-44.7 2.3-2.3h3.3H400V104 96h16v8 24h47.3C458.1 96.1 422.8 48 344 48c-26 0-47.2 5.3-64.2 13.4l-5.8 2.8-4-5C252 36.3 219.1 16 168 16C89.3 16 53.9 64.1 48.7 96H112zm0 16H40 32v-8C32 63.1 74.5 0 168 0c52.4 0 88.7 19.7 110.6 44.4C296.8 36.7 318.5 32 344 32c93.5 0 136 63.1 136 104v8h-8H416 400 306.8c2 10.3 4 22.1 5.5 35.3c5.2 45.4 5 106.7-15.6 173C363.4 356.8 416 412.2 416 480v16 16H400 48 32V496 480c0-70.7 57.3-128 128-128h42.5c26-58.4 37.4-113.8 42.3-154.9c1.2-10.5 2.1-20 2.6-28.4L137.5 278.6l-5.7 5.7-5.7-5.7c-28.5-28.5-43-101.2 19.5-166.6H128 112zm148.7 87c-4.9 40.7-16 95.2-40.7 153h60.1c21.1-65.3 21.5-126.1 16.4-170.9c-1.6-14.1-3.7-26.6-5.9-37.1H272.1l-7.9 7.9c-.3 12-1.2 28.1-3.5 47.1zM160 368C98.1 368 48 418.1 48 480v16H400V480c0-61.9-50.1-112-112-112H160z"/></svg>