<svg xmlns="http://www.w3.org/2000/svg" viewBox="0 0 320 512"><!--! Font Awesome Pro 6.5.1 by @fontawesome - https://fontawesome.com License - https://fontawesome.com/license (Commercial License) Copyright 2023 Fonticons, Inc. --><path d="M256 16V64H64V16H256zM48 16V64H16 0V80 496v16H16 304h16V496 80 64H304 272V16 0H256 64 48V16zM256 80h16 32V496H16V80H48 64 256zM128 208c-35.3 0-64-28.7-64-64H88c35.3 0 64 28.7 64 64H128zM88 128l-24 0H48v16c0 44.2 35.8 80 80 80h24 16 24c44.2 0 80-35.8 80-80V128H256l-24 0c-31.7 0-59 18.4-72 45.1C147 146.4 119.7 128 88 128zm104 80H168c0-35.3 28.7-64 64-64h24c0 35.3-28.7 64-64 64zM128 312c-35.3 0-64-28.7-64-64H88c35.3 0 64 28.7 64 64H128zM88 232H64 48v16c0 44.2 35.8 80 80 80h24 16 24c44.2 0 80-35.8 80-80V232H256 232c-31.7 0-59 18.4-72 45.1C147 250.4 119.7 232 88 232zm104 80H168c0-35.3 28.7-64 64-64h24c0 35.3-28.7 64-64 64zM128 416c-35.3 0-64-28.7-64-64H88c35.3 0 64 28.7 64 64H128zM88 336H64 48v16c0 44.2 35.8 80 80 80h24v24 8h16v-8V432h24c44.2 0 80-35.8 80-80V336H256 232c-31.7 0-59 18.4-72 45.1C147 354.4 119.7 336 88 336zm104 80H168c0-35.3 28.7-64 64-64h24c0 35.3-28.7 64-64 64z"/></svg>