<svg xmlns="http://www.w3.org/2000/svg" viewBox="0 0 576 512"><!--! Font Awesome Pro 6.5.1 by @fontawesome - https://fontawesome.com License - https://fontawesome.com/license (Commercial License) Copyright 2023 Fonticons, Inc. --><path d="M296 0V8 308.7l42.9-42.9 5.7-5.7 11.3 11.3-5.7 5.7L307.3 320H368h8v16h-8H307.3l42.9 42.9 5.7 5.7-11.3 11.3-5.7-5.7L296 347.3v84.4c58.1-4.1 104-52.6 104-111.7c0-37.3-18.2-70.4-46.3-90.7l-10.5-7.6 11.4-6C400.6 191.6 432 143.5 432 88c0-26.8-7.3-51.8-20-73.2l10.9-11C504.8 50.6 560 138.8 560 240c0 150.2-121.8 272-272 272S16 390.2 16 240C16 138.8 71.2 50.6 153.1 3.7l10.9 11C151.3 36.2 144 61.2 144 88c0 55.5 31.4 103.6 77.4 127.7l11.4 6-10.5 7.6C194.2 249.6 176 282.7 176 320c0 59.2 45.9 107.6 104 111.7V347.3l-42.9 42.9-5.7 5.7-11.3-11.3 5.7-5.7L268.7 336H208h-8V320h8 60.7l-42.9-42.9-5.7-5.7 11.3-11.3 5.7 5.7L280 308.7V8 0h16zm0 448h-7.8l-.2 0-.2 0H280v-.2C213 443.6 160 388 160 320c0-38.3 16.8-72.7 43.5-96.1C158.2 195.6 128 145.3 128 88c0-19.5 3.5-38.1 9.8-55.4C101 59.4 71.6 95.7 53.2 137.9l.5 .5 80 80 5.7 5.7-5.7 5.7 0 0-5.7 5.7-5.7-5.7L46.8 154.1c-6.8 19-11.4 39.1-13.5 59.9l4.4 4.4 64 64 5.7 5.7-5.7 5.7L96 299.3l-5.7-5.7L32 235.4c0 1.5 0 3.1 0 4.6c0 141.4 114.6 256 256 256s256-114.6 256-256c0-1.6 0-3.1 0-4.6l-58.3 58.3-5.7 5.7L468.7 288l5.7-5.7 64-64 4.4-4.4c-2.1-20.8-6.7-40.9-13.5-59.9l-75.6 75.6-5.7 5.7L436.7 224l5.7-5.7 80-80 .5-.5C504.4 95.7 475 59.4 438.2 32.6C444.5 49.9 448 68.5 448 88c0 57.3-30.2 107.6-75.5 135.9C399.2 247.3 416 281.7 416 320c0 68-53 123.6-120 127.8v.2z"/></svg>