<svg xmlns="http://www.w3.org/2000/svg" viewBox="0 0 640 512"><!--! Font Awesome Pro 6.5.1 by @fontawesome - https://fontawesome.com License - https://fontawesome.com/license (Commercial License) Copyright 2023 Fonticons, Inc. --><path d="M208 16h36L368.1 184 208 184V16zM384.1 200H494.6L624 245.7v20.7L494.6 312H384.1h-.2H152h-2.9l-2.2 1.9L101.1 352H48V264H152h8V248h-8H48V160h53.1l45.8 38.1 2.2 1.9H152 383.9h.2zM32 264v96 8h8 64 2.9l2.2-1.9L154.9 328l37.1 0V496h-8v16h8l8 0 47.9 0h.2H304h8V496h-8H263.9L388 328H496h1.4l1.3-.5 136-48 5.3-1.9V272 240v-5.7l-5.3-1.9-136-48-1.3-.5H496 388L263.9 16H304h8V0h-8H248.1h-.2H200h-8-8V16h8V184l-37.1 0-45.8-38.1-2.2-1.9H104 40 32v8 96H8 0v16H8 32zm176 64l160.1 0L244 496H208V328z"/></svg>