<svg xmlns="http://www.w3.org/2000/svg" viewBox="0 0 512 512"><!--! Font Awesome Pro 6.5.1 by @fontawesome - https://fontawesome.com License - https://fontawesome.com/license (Commercial License) Copyright 2023 Fonticons, Inc. --><path d="M248 0h-5.4l-2 5-56 136-.6 1.5V144v70.7l-4.1 2.4L16 314V264v-8H0v8 64 48 32 8H16v-8V384H184v5.1l-54.2 65.8-1.8 2.2V460v44 8h8H248h16H376h8v-8V460v-2.9l-1.8-2.2L328 389.1V384H496v24 8h16v-8V376 328 264v-8H496v8 50L332.1 217.1l-4.1-2.4V144v-1.6l-.6-1.5L271.4 5l-2-5H264 248zm16 496V416v-8H248v8 80H144V462.9l54.2-65.8 1.8-2.2V392 145.6L253.4 16h5.3L312 145.6V392v2.9l1.8 2.2L368 462.9V496H264zM496 368H328V233.3l168 99.3V368zm-312 0H16V332.6l168-99.3V368z"/></svg>