<svg xmlns="http://www.w3.org/2000/svg" viewBox="0 0 640 512"><!--! Font Awesome Pro 6.5.1 by @fontawesome - https://fontawesome.com License - https://fontawesome.com/license (Commercial License) Copyright 2023 Fonticons, Inc. --><path d="M448 0V43c0 44.6 17.7 87.3 49.2 118.8l21 21C534.7 199.3 544 221.7 544 245v43H528V245c0-19.1-7.6-37.4-21.1-50.9l-21-21C451.4 138.6 432 91.8 432 43V0h16zM624 288V245c0-44.6-17.7-87.3-49.2-118.8l-21-21C537.3 88.7 528 66.3 528 43V0h16V43c0 19.1 7.6 37.4 21.1 50.9l21 21C620.6 149.4 640 196.2 640 245v43H624zM14.8 441.4C5.1 435.6 0 432 0 432s5.1-3.6 14.8-9.4C50.7 401.5 149.5 352 288 352H624h16v16V496v16H624 288c-138.5 0-237.3-49.5-273.2-70.6zM30.7 432c12.6 7 30.6 16.1 53.3 25.1C132.5 476.6 202.4 496 288 496h54L249.6 372.8l-2.5-3.3c-67.1 4.9-122.6 21.1-163.2 37.4C61.3 415.9 43.3 425 30.7 432zm235.6-63.6l92.1 122.8L362 496H502L409.6 372.8 406 368H288c-7.3 0-14.6 .1-21.7 .4zM426 368l92.4 123.2L522 496H624V368H426z"/></svg>