<svg xmlns="http://www.w3.org/2000/svg" viewBox="0 0 448 512"><!--! Font Awesome Pro 6.5.1 by @fontawesome - https://fontawesome.com License - https://fontawesome.com/license (Commercial License) Copyright 2023 Fonticons, Inc. --><path d="M320 112a96 96 0 1 0 -192 0 96 96 0 1 0 192 0zm16 0c0 59.2-45.9 107.6-104 111.7V352H432h16v16V496v16H432 16 0V496 368 352H16 216V223.7c-58.1-4.1-104-52.6-104-111.7C112 50.1 162.1 0 224 0s112 50.1 112 112zM64 304h8 48 8v16h-8H72 64V304zM432 496V368H16V496H432zM192 80a16 16 0 1 0 32 0 16 16 0 1 0 -32 0zm16 32a32 32 0 1 1 0-64 32 32 0 1 1 0 64z"/></svg>