<svg xmlns="http://www.w3.org/2000/svg" viewBox="0 0 384 512"><!--! Font Awesome Pro 6.5.1 by @fontawesome - https://fontawesome.com License - https://fontawesome.com/license (Commercial License) Copyright 2023 Fonticons, Inc. --><path d="M112 16h96V80H112V16zM96 80H64V96H96h16 96 16 32V80H224V16 0H208 112 96V16 80zm272 64V496H16V256c0-61.9 50.1-112 112-112H368zM128 128C57.3 128 0 185.3 0 256V496v16H16 368h16V496 144 128H368 128zm120 80h-8v8V360v8h8 64 8v-8V216v-8h-8H248zm8 144V224h48V352H256z"/></svg>