<svg xmlns="http://www.w3.org/2000/svg" viewBox="0 0 640 512"><!--! Font Awesome Pro 6.5.1 by @fontawesome - https://fontawesome.com License - https://fontawesome.com/license (Commercial License) Copyright 2023 Fonticons, Inc. --><path d="M384 190.1V172.4 160 144 128H368 352 128C57.3 128 0 185.3 0 256V480v16 16H16 32 352h16 16V496 480 207.8 190.1zM416 496v16H608l32-32V416l-12.7-12.7L616 392l11.3-11.3L640 368V304l-12.7-12.7L616 280l11.3-11.3L640 256V190.1L575.7 160H448.3L416 175.1v17.7L451.8 176H572.2L624 200.3v49.1l-19.3 19.3L593.4 280l11.3 11.3L624 310.6v50.7l-19.3 19.3L593.4 392l11.3 11.3L624 422.6v50.7L601.4 496H416zM64 96H80 96h16 96 16 16 16V80H240 224V64 16 0H208 112 96V16 64 80H80 64V96zM368 215.3V480v16H352 32 16V480 256c0-61.9 50.1-112 112-112H352h16v16 30.1 25.2zM192 16h16V32 64 80H192 128 112V64 32 16h16 64zm56 192h-8v8 8V352v8 8h8 8 48 8 8v-8-8V224v-8-8h-8-8H256h-8zm8 32V224h16 16 16v16 96 16H288 272 256V336 240zM448 64v8 56h16V80h96v48h16V72 64h-8H456h-8z"/></svg>