<svg xmlns="http://www.w3.org/2000/svg" viewBox="0 0 448 512"><!--! Font Awesome Pro 6.5.1 by @fontawesome - https://fontawesome.com License - https://fontawesome.com/license (Commercial License) Copyright 2023 Fonticons, Inc. --><path d="M304 16V48H288 160 144V16H304zM128 64h16V96L32 240V496v16H48 400h16V496 240l-14.4-18.5c26.8-7.7 46.4-32.3 46.4-61.5c0-35.3-28.7-64-64-64c-23.6 0-44.2 12.8-55.3 31.8L304 96V64h16V48 16 0H304 144 128V16 48 64zm32 0H288V96v5.5l3.4 4.3L400 245.5V496H48V245.5L156.6 105.8l3.4-4.3V96 64zm179.6 77.8c7.2-17.5 24.4-29.8 44.4-29.8c26.5 0 48 21.5 48 48c0 24.2-17.9 44.3-41.3 47.5l-51.2-65.8zM112 304H336v96H112V304zM96 288v16 96 16h16H336h16V400 304 288H336 112 96z"/></svg>