<svg xmlns="http://www.w3.org/2000/svg" viewBox="0 0 576 512"><!--! Font Awesome Pro 6.5.1 by @fontawesome - https://fontawesome.com License - https://fontawesome.com/license (Commercial License) Copyright 2023 Fonticons, Inc. --><path d="M560 196.9L288 287.6 16 196.9V128v-2.7L288 216l272-90.7V128v68.9zm0 16.9v39.1l-48 16v16.9l48-16V404.5L288 495.1 16 404.5V269.8l48 16V268.9l-48-16V213.8l269.5 89.8 2.5 .8 2.5-.8L560 213.8zm0-106.2v.9L288 199.1 16 108.5v-.9L288 16.9l272 90.7zM576 128v-8V96L288 0 0 96v24 8V416l288 96 288-96V128zM96 279.6v16.9l96 32V311.6l-96-32zm189.5 80l2.5 .8 2.5-.8L352 339.1V322.2l-64 21.3-64-21.3v16.9l61.5 20.5zM384 328.4l96-32V279.6l-96 32v16.9z"/></svg>