<svg xmlns="http://www.w3.org/2000/svg" viewBox="0 0 640 512"><!--! Font Awesome Pro 6.5.1 by @fontawesome - https://fontawesome.com License - https://fontawesome.com/license (Commercial License) Copyright 2023 Fonticons, Inc. --><path d="M448 128a128 128 0 1 1 0 256 128 128 0 1 1 0-256zm0 272c23.8 0 46.3-5.8 66-16H624h16V368 144 128H624 514c-19.8-10.2-42.2-16-66-16s-46.3 5.8-66 16H219.4L0 192V320l219.4 64H382c19.8 10.2 42.2 16 66 16zm176-32H538.5c32.6-26.4 53.5-66.8 53.5-112s-20.9-85.6-53.5-112H624V368zM221.7 144H357.5C324.9 170.4 304 210.8 304 256s20.9 85.6 53.5 112H221.7L16 308V204l205.7-60zm191.9 66.3l-5.7-5.7L396.7 216l5.7 5.7L436.7 256l-34.3 34.3-5.7 5.7L408 307.3l5.7-5.7L448 267.3l34.3 34.3 5.7 5.7L499.3 296l-5.7-5.7L459.3 256l34.3-34.3 5.7-5.7L488 204.7l-5.7 5.7L448 244.7l-34.3-34.3z"/></svg>