<svg xmlns="http://www.w3.org/2000/svg" viewBox="0 0 512 512"><!--! Font Awesome Pro 6.5.1 by @fontawesome - https://fontawesome.com License - https://fontawesome.com/license (Commercial License) Copyright 2023 Fonticons, Inc. --><path d="M287.2 328.4l-9.3-3-6.9 6.9-33.3 33.3-2.3 2.3H232 192 176v16 40 8h-8H128 112v16 40 8h-8H24 16v-8V408v-3.3l2.3-2.3L179.7 241l6.9-6.9-3-9.3c-4.9-15.4-7.6-31.8-7.6-48.8c0-88.4 71.6-160 160-160s160 71.6 160 160s-71.6 160-160 160c-17.1 0-33.5-2.7-48.8-7.6zM232 384h9.9l7-7 33.3-33.3c16.9 5.4 35 8.3 53.7 8.3c97.2 0 176-78.8 176-176S433.2 0 336 0S160 78.8 160 176c0 18.7 2.9 36.8 8.3 53.7L7 391l-7 7V408v80 8 16H16h8 80 8 16V496v-8V464 448h16 24 8 16V432v-8V400 384h16 24zM368 184a40 40 0 1 0 0-80 40 40 0 1 0 0 80zm-24-40a24 24 0 1 1 48 0 24 24 0 1 1 -48 0z"/></svg>