<svg xmlns="http://www.w3.org/2000/svg" viewBox="0 0 576 512"><!--! Font Awesome Pro 6.5.1 by @fontawesome - https://fontawesome.com License - https://fontawesome.com/license (Commercial License) Copyright 2023 Fonticons, Inc. --><path d="M16 80V432H560V80H16zM0 64H16 560h16V80 432v16H560 16 0V432 80 64zM80 336v32h32V336H80zM64 320H80h32 16v16 32 16H112 80 64V368 336 320zm336 16H176v32H400V336zM176 320H400h16v16 32 16H400 176 160V368 336 320h16zM80 240v32h32V240H80zM64 224H80h32 16v16 32 16H112 80 64V272 240 224zm144 16H176v32h32V240zm-32-16h32 16v16 32 16H208 176 160V272 240 224h16zm96 16v32h32V240H272zm-16-16h16 32 16v16 32 16H304 272 256V272 240 224zm144 16H368v32h32V240zm-32-16h32 16v16 32 16H400 368 352V272 240 224h16zm96 16v32h32V240H464zm-16-16h16 32 16v16 32 16H496 464 448V272 240 224zm48 112H464v32h32V336zm-32-16h32 16v16 32 16H496 464 448V368 336 320h16zM80 144v32h32V144H80zM64 128H80h32 16v16 32 16H112 80 64V176 144 128zm144 16H176v32h32V144zm-32-16h32 16v16 32 16H208 176 160V176 144 128h16zm96 16v32h32V144H272zm-16-16h16 32 16v16 32 16H304 272 256V176 144 128zm144 16H368v32h32V144zm-32-16h32 16v16 32 16H400 368 352V176 144 128h16zm96 16v32h32V144H464zm-16-16h16 32 16v16 32 16H496 464 448V176 144 128z"/></svg>