<svg xmlns="http://www.w3.org/2000/svg" viewBox="0 0 640 512"><!--! Font Awesome Pro 6.5.1 by @fontawesome - https://fontawesome.com License - https://fontawesome.com/license (Commercial License) Copyright 2023 Fonticons, Inc. --><path d="M624 80V432H176V80H624zM176 64H160V80 432v16h16H624h16V432 80 64H624 176zm96 272v32H240V336h32zm-32-16H224v16 32 16h16 32 16V368 336 320H272 240zm96 16H464v32H336V336zm-16-16v16 32 16h16H464h16V368 336 320H464 336 320zm-48-80v32H240V240h32zm-32-16H224v16 32 16h16 32 16V272 240 224H272 240zm96 16h32v32H336V240zm-16-16v16 32 16h16 32 16V272 240 224H368 336 320zm144 16v32H432V240h32zm-32-16H416v16 32 16h16 32 16V272 240 224H464 432zm96 16h32v32H528V240zm-16-16v16 32 16h16 32 16V272 240 224H560 528 512zm48 112v32H528V336h32zm-32-16H512v16 32 16h16 32 16V368 336 320H560 528zM240 144h32v32H240V144zm-16-16v16 32 16h16 32 16V176 144 128H272 240 224zm144 16v32H336V144h32zm-32-16H320v16 32 16h16 32 16V176 144 128H368 336zm96 16h32v32H432V144zm-16-16v16 32 16h16 32 16V176 144 128H464 432 416zm144 16v32H528V144h32zm-32-16H512v16 32 16h16 32 16V176 144 128H560 528zM105.2 173.7l5.7-5.7L99.5 156.7l-5.7 5.7-88 88L.2 256l5.7 5.7 88 88 5.7 5.7L110.8 344l-5.7-5.7L22.8 256l82.3-82.3z"/></svg>