<svg xmlns="http://www.w3.org/2000/svg" viewBox="0 0 640 512"><!--! Font Awesome Pro 6.5.1 by @fontawesome - https://fontawesome.com License - https://fontawesome.com/license (Commercial License) Copyright 2023 Fonticons, Inc. --><path d="M101.7 178.3L96 172.7 84.7 184l5.7 5.7 104 104 5.7 5.7L211.3 288l-5.7-5.7-104-104zM312 240v8h16v-8V96 88H312v8V240zm122.3 42.3l-5.7 5.7L440 299.3l5.7-5.7 104-104 5.7-5.7L544 172.7l-5.7 5.7-104 104zM0 400v16H8 120h8V400h-8H8 0zm200 0h-8v16h8H440h8V400h-8H200zm320 0h-8v16h8H632h8V400h-8H520z"/></svg>