<svg xmlns="http://www.w3.org/2000/svg" viewBox="0 0 576 512"><!--! Font Awesome Pro 6.5.1 by @fontawesome - https://fontawesome.com License - https://fontawesome.com/license (Commercial License) Copyright 2023 Fonticons, Inc. --><path d="M16 16V272H560V16H16zM0 0H16 560h16V16 272v16H560 16 0V272 16 0zM80 176v32h32V176H80zM64 160H80h32 16v16 32 16H112 80 64V208 176 160zM208 80H176v32h32V80zM176 64h32 16V80v32 16H208 176 160V112 80 64h16zm0 112v32H400V176H176zm-16-16h16H400h16v16 32 16H400 176 160V208 176 160zm336 16H464v32h32V176zm-32-16h32 16v16 32 16H496 464 448V208 176 160h16zM80 80v32h32V80H80zM64 64H80h32 16V80v32 16H112 80 64V112 80 64zM304 80H272v32h32V80zM272 64h32 16V80v32 16H304 272 256V112 80 64h16zm96 16v32h32V80H368zM352 64h16 32 16V80v32 16H400 368 352V112 80 64zM496 80H464v32h32V80zM464 64h32 16V80v32 16H496 464 448V112 80 64h16zM149.7 349.5L288 487.9 426.3 349.5l5.7-5.7 11.3 11.3-5.7 5.7-144 144-5.7 5.7-5.7-5.7-144-144-5.7-5.7L144 343.9l5.7 5.7z"/></svg>