<svg xmlns="http://www.w3.org/2000/svg" viewBox="0 0 512 512"><!--! Font Awesome Pro 6.5.1 by @fontawesome - https://fontawesome.com License - https://fontawesome.com/license (Commercial License) Copyright 2023 Fonticons, Inc. --><path d="M312 16c13.3 0 24 10.7 24 24s-10.7 24-24 24H208V16H312zM208 0H192V16 32h-8c-39.8 0-72 32.2-72 72v40H64L0 272v24 56 16H16 496h16V352 296 272L448 144H128V104c0-30.9 25.1-56 56-56h8V64 80h16H312c22.1 0 40-17.9 40-40s-17.9-40-40-40H208zM16 352V304H496v48H16zm0-64V275.8L73.9 160H112h16H438.1L496 275.8V288H16zM128 496v16h8H256 376h8V496h-8H264V400H248v96H136h-8z"/></svg>