<svg xmlns="http://www.w3.org/2000/svg" viewBox="0 0 576 512"><!--! Font Awesome Pro 6.5.1 by @fontawesome - https://fontawesome.com License - https://fontawesome.com/license (Commercial License) Copyright 2023 Fonticons, Inc. --><path d="M144 272a128 128 0 1 0 0-256 128 128 0 1 0 0 256zM287.8 152c-4.2 75.8-66.9 136-143.8 136C64.5 288 0 223.5 0 144S64.5 0 144 0c76.8 0 139.6 60.2 143.8 136H352v-8V112h16H528h16v16 32 16H528 368 352V160v-8H287.8zM528 160V128H368v16 16H528zM272 320h16 48V280v-8h8H456h8v8 40h48 16 16v16H528V496v16H512 288 272V496 336H256V320h16zm80 0h96V288H352v32zm160 16H288V496H512V336zM224 144A80 80 0 1 0 64 144a80 80 0 1 0 160 0zM48 144a96 96 0 1 1 192 0A96 96 0 1 1 48 144zM0 496H224v16H0V496zM160 336v64h16c17.7 0 32-14.3 32-32s-14.3-32-32-32H160zm16 80H160v32 16H144 48 32V448 336 320H48h96 16 16c26.5 0 48 21.5 48 48s-21.5 48-48 48zM48 336V448h96V416 400 336H48z"/></svg>