<svg xmlns="http://www.w3.org/2000/svg" viewBox="0 0 640 512"><!--! Font Awesome Pro 6.5.1 by @fontawesome - https://fontawesome.com License - https://fontawesome.com/license (Commercial License) Copyright 2023 Fonticons, Inc. --><path d="M328.4 28.4l-80 344L246 382.7 468.7 160 330.3 21.7l-.3-.3-1.6 7zM238.6 414.8l-2.6 .6-94.3 94.3-2.3 2.3H136 88 80v-8V318.1L12.1 358.9 0 366.1V352 256 241.9l12.1 7.3L80 289.9V160H8 0V144H8 88h8v8V289.9l67.9-40.7 12.1-7.3V256v96 14.1l-12.1-7.3L96 318.1V496h36.7l91.9-91.9 .6-2.6 7.6-32.7 80-344L318.6 0H344 608h16 16V16 32 296v25.4l-24.8 5.8-344 80-32.7 7.6zM480 171.3L257.3 394l10.3-2.4 344-80 7-1.6-.3-.3L480 171.3zM624 32V27.3L491.3 160 624 292.7V32zM608 16H347.3L480 148.7 612.7 16H608zM16 270.1v67.7L72.5 304 16 270.1zm144 67.7V270.1L103.5 304 160 337.9z"/></svg>