<svg xmlns="http://www.w3.org/2000/svg" viewBox="0 0 448 512"><!--! Font Awesome Pro 6.5.1 by @fontawesome - https://fontawesome.com License - https://fontawesome.com/license (Commercial License) Copyright 2023 Fonticons, Inc. --><path d="M17.1 256H0l6-16L96 0H352l90 240 6 16H430.9 17.1zm6-16H424.9l-84-224H107.1l-84 224zM160 320V288h16v32 7.8l-6.1 4.8 0 0 0 0 0 0-.1 .1-.4 .3c-.4 .3-1 .8-1.8 1.5c-1.6 1.3-3.9 3.4-6.7 6c-5.6 5.3-13 13-20.4 22.4C125.4 382.1 112 406.6 112 432c0 20.4 6.8 37.7 13.9 50.1c3.4 6 6.8 10.7 9.4 13.9H312.7c2.6-3.2 6-7.9 9.4-13.9c7.1-12.4 13.9-29.6 13.9-50.1c0-25.4-13.4-49.9-28.6-69.2c-7.4-9.4-14.9-17.1-20.4-22.4c-2.8-2.6-5.1-4.7-6.7-6c-.8-.7-1.4-1.2-1.8-1.5l-.4-.3-.1-.1 0 0 0 0 0 0 0 0-6.1-4.8V320 288h16v32s64 50.5 64 112c0 48-32 80-32 80H128s-32-32-32-80c0-61.5 64-112 64-112zM139.4 500.7s0 0 0 0l0 0z"/></svg>