<svg xmlns="http://www.w3.org/2000/svg" viewBox="0 0 512 512"><!--! Font Awesome Pro 6.5.1 by @fontawesome - https://fontawesome.com License - https://fontawesome.com/license (Commercial License) Copyright 2023 Fonticons, Inc. --><path d="M374.6 80l-4.7-4.7L331.9 37.3C318.3 23.6 299.8 16 280.6 16C240.5 16 208 48.5 208 88.6c0 19.2 7.6 37.7 21.3 51.3l38.1 38.1 4.7 4.7v6.6 76.1l32 32L489.4 112l-32-32H381.3h-6.6zM464 64l36.7 36.7L512 112l-11.3 11.3L315.3 308.7 304 320l-11.3-11.3L256 272V189.3l-25-25-94.1 94.1L198.2 496H376h8v16h-8H192 8 0V496H8 181.7L120.3 258l-1.1-4.4 3.2-3.2L219.7 153l-1.8-1.8C201.3 134.6 192 112.1 192 88.6C192 39.7 231.7 0 280.6 0c23.5 0 46 9.3 62.6 25.9L381.3 64H464zM386 280.5l12-12c5.6 2.3 11.6 3.5 18 3.5c26.5 0 48-21.5 48-48c0-6.4-1.2-12.4-3.5-18l12-12c4.8 9 7.5 19.2 7.5 30c0 35.3-28.7 64-64 64c-10.9 0-21.1-2.7-30-7.5z"/></svg>