<svg xmlns="http://www.w3.org/2000/svg" viewBox="0 0 512 512"><!--! Font Awesome Pro 6.5.1 by @fontawesome - https://fontawesome.com License - https://fontawesome.com/license (Commercial License) Copyright 2023 Fonticons, Inc. --><path d="M16 164C16 82.3 82.3 16 164 16h4c79.5 0 144 64.5 144 144h8c-100.7 0-183.2 77.4-191.3 176c-.4 5.3-.7 10.6-.7 16h16H496h16c0-5.4-.2-10.7-.7-16c-8.1-98.6-90.7-176-191.3-176h8C328 71.6 256.4 0 168 0h-4C73.4 0 0 73.4 0 164V504v8H16v-8V164zm304 12c91.8 0 167.2 70.3 175.3 160H144.7c8.1-89.7 83.5-160 175.3-160zM241.6 384c7.4 36.5 39.7 64 78.4 64s71-27.5 78.4-64H382c-7.1 27.6-32.2 48-62 48s-54.9-20.4-62-48H241.6z"/></svg>