<svg xmlns="http://www.w3.org/2000/svg" viewBox="0 0 640 512"><!--! Font Awesome Pro 6.5.1 by @fontawesome - https://fontawesome.com License - https://fontawesome.com/license (Commercial License) Copyright 2023 Fonticons, Inc. --><path d="M448 288c-5.4 0-10.7-.3-16-.8V368H328V233.8c-5.9-6.7-11.3-13.9-16-21.5V368H200V200v-8H184v8V368H80V200v-8H64v8V376v8h8H184h16H312h16H440h8v-8V288zM16 160H291.2c-1.1-5.2-1.9-10.6-2.4-16H16V122.5l240-105 56.8 24.9c2.9-4.6 6.1-9.1 9.5-13.3L256 0 0 112v32 16H16zM40 432H32v16h8H472h8V432h-8H40zM8 496H0v16H8 504h8V496h-8H8zM448 16.1a112 112 0 1 1 0 224 112 112 0 1 1 0-224zm0 240c32.5 0 62.1-12.1 84.7-32l89.7 89.5 5.7 5.7L639.3 308l-5.7-5.7L544 212.8c19.9-22.6 32-52.2 32-84.7c0-70.7-57.3-128-128-128s-128 57.3-128 128s57.3 128 128 128z"/></svg>