<svg xmlns="http://www.w3.org/2000/svg" viewBox="0 0 640 512"><!--! Font Awesome Pro 6.5.1 by @fontawesome - https://fontawesome.com License - https://fontawesome.com/license (Commercial License) Copyright 2023 Fonticons, Inc. --><path d="M328 0H312V8 184v8h16v-8V8 0zM38.5 124.8l-9.7 12.7 6.4 4.9 136 104 6.4 4.9 9.7-12.7-6.4-4.9-136-104-6.4-4.9zm572.7 12.7l-9.7-12.7-6.4 4.9-136 104-6.4 4.9 9.7 12.7 6.4-4.9 136-104 6.4-4.9zM192 352v16H176 128L71.1 496 64 512H81.5h477H576l-7.1-16L512 368H464 448h0V352 304 288H432 208 192v16 48zm240 16H208V304H432v64zM208 384H432h16 0 53.6l49.8 112H88.6l49.8-112H192h0 16z"/></svg>