<svg xmlns="http://www.w3.org/2000/svg" viewBox="0 0 512 512"><!--! Font Awesome Pro 6.5.1 by @fontawesome - https://fontawesome.com License - https://fontawesome.com/license (Commercial License) Copyright 2023 Fonticons, Inc. --><path d="M352 16V80H256V40 16h96zM256 96h96 16V80 16 0H352 256 240V16 56 80 96v48H40 32v16h8H472h8V144h-8H256V96zM80 200v-8H64v8V376v8h8H184h16H312h16H440h8v-8V200v-8H432v8V368H328V200v-8H312v8V368H200V200v-8H184v8V368H80V200zM40 432H32v16h8H472h8V432h-8H40zM8 496H0v16H8 504h8V496h-8H8z"/></svg>