<svg xmlns="http://www.w3.org/2000/svg" viewBox="0 0 512 512"><!--! Font Awesome Pro 6.5.1 by @fontawesome - https://fontawesome.com License - https://fontawesome.com/license (Commercial License) Copyright 2023 Fonticons, Inc. --><path d="M16 144H496V122.5L256 17.5 16 122.5V144zM0 112L256 0 512 112v32 16H496 16 0V144 112zm80 88V368H184V200v-8h16v8V368H312V200v-8h16v8V368H432V200v-8h16v8V376v8h-8H328 312 200 184 72 64v-8V200v-8H80v8zM40 432H472h8v16h-8H40 32V432h8zM8 496H504h8v16h-8H8 0V496H8z"/></svg>