<svg xmlns="http://www.w3.org/2000/svg" viewBox="0 0 512 512"><!--! Font Awesome Pro 6.5.1 by @fontawesome - https://fontawesome.com License - https://fontawesome.com/license (Commercial License) Copyright 2023 Fonticons, Inc. --><path d="M264 0V8v8.2c97 4 175.4 79.9 183.3 175.8H464h8v16h-8H448 432 80 64 48 40V192h8H64.7C72.6 96.1 151 20.1 248 16.2V8 0h16zM80.7 192H431.3C423.2 102.3 347.8 32 256 32S88.8 102.3 80.7 192zM80 248V368H184V248v-8h16v8V368H312V248v-8h16v8V368H432V248v-8h16v8V376v8h-8H328 312 200 184 72 64v-8V248v-8H80v8zM40 432H472h8v16h-8H40 32V432h8zM8 496H504h8v16h-8H8 0V496H8z"/></svg>