<svg xmlns="http://www.w3.org/2000/svg" viewBox="0 0 640 512"><!--! Font Awesome Pro 6.5.1 by @fontawesome - https://fontawesome.com License - https://fontawesome.com/license (Commercial License) Copyright 2023 Fonticons, Inc. --><path d="M16 80V432H312V80H16zM328 432H624V80H328V432zM624 64h16V80 432v16H624 16 0V432 80 64H16 624zM488 160v8 24h56 16 8v16h-8H548.9l-52 104c3.4 2.2 6.8 4.3 10.3 6.3L540 337.1l6.9 4L539 354.9l-6.9-4-32.7-18.7c-5.1-2.9-10.1-6.1-15-9.4l-56.7 28.4-7.2 3.6-7.2-14.3 7.2-3.6L470 312c-5.1-4.2-10-8.6-14.6-13.3l-29.1-29.1-5.7-5.7L432 252.7l5.7 5.7 29.1 29.1c5.4 5.4 11.1 10.4 17.1 15.1L531.1 208H480 400h-8V192h8 72V168v-8h16zm-333.2 0h10.5l2.1 4.8 80 184 1.4 3.2H231.3l-17.4-40H106.1L88.7 352H71.3l1.4-3.2 80-184 2.1-4.8zm5.2 28.1L113.1 296h93.9L160 188.1z"/></svg>