<svg xmlns="http://www.w3.org/2000/svg" viewBox="0 0 640 512"><!--! Font Awesome Pro 6.5.1 by @fontawesome - https://fontawesome.com License - https://fontawesome.com/license (Commercial License) Copyright 2023 Fonticons, Inc. --><path d="M80 48H560V352h16V48 32H560 80 64V48 352H80V48zM16 425.4V400H624v25.4L585.4 464H54.6L16 425.4zM624 384H16 0v16 32l48 48H592l48-48V400 384H624zM288 104h-8v8 64H216h-8v8 64 8h8 64v64 8h8 64 8v-8V256h64 8v-8V184v-8h-8H360V112v-8h-8H288zm8 80V120h48v64 8h8 64v48H352h-8v8 64H296V248v-8h-8H224V192h64 8v-8z"/></svg>