<svg xmlns="http://www.w3.org/2000/svg" viewBox="0 0 640 512"><!--! Font Awesome Pro 6.5.1 by @fontawesome - https://fontawesome.com License - https://fontawesome.com/license (Commercial License) Copyright 2023 Fonticons, Inc. --><path d="M80 32H280V48H80V352H64V48 32H80zM560 48H360V32H560h16V48 352H560V48zM54.6 464H585.4L624 425.4V400H16v25.4L54.6 464zM640 384v16 32l-48 48H48L0 432V400 384H16 624h16zM328 40V292.7l74.3-74.3 5.7-5.7L419.3 224l-5.7 5.7-88 88-5.7 5.7-5.7-5.7-88-88-5.7-5.7L232 212.7l5.7 5.7L312 292.7V40 32h16v8z"/></svg>