<svg xmlns="http://www.w3.org/2000/svg" viewBox="0 0 640 512"><!--! Font Awesome Pro 6.5.1 by @fontawesome - https://fontawesome.com License - https://fontawesome.com/license (Commercial License) Copyright 2023 Fonticons, Inc. --><path d="M80 48H560V352h16V48 32H560 80 64V48 352H80V48zM16 425.4V400H624v25.4L585.4 464H54.6L16 425.4zM624 384H16 0v16 32l48 48H592l48-48V400 384H624zM176 120h-8v8 96 8h8 64 8v-8V128v-8h-8H176zm8 96V136h48v80H184zm120-96h-8v16h8 8v88 8h16v-8V128v-8h-8H304zm88 0v8 96 8h8 64 8v-8V128v-8h-8H400h-8zm16 16h48v80H408V136zM192 280h-8v16h8 8v56h16V288v-8h-8H192zm248 8v-8h-8H416h-8v16h8 8v56h16V288zm-80 0v-8h-8H288h-8v8 64h16V296h48v56h16V288z"/></svg>