<svg xmlns="http://www.w3.org/2000/svg" viewBox="0 0 640 512"><!--! Font Awesome Pro 6.5.1 by @fontawesome - https://fontawesome.com License - https://fontawesome.com/license (Commercial License) Copyright 2023 Fonticons, Inc. --><path d="M80 48H560V352h16V48 32H560 80 64V48 352H80V48zM16 425.4V400H624v25.4L585.4 464H54.6L16 425.4zM624 384H16 0v16 32l48 48H592l48-48V400 384H624zM269.7 157.7l5.7-5.7L264 140.7l-5.7 5.7-64 64-5.7 5.7 5.7 5.7 64 64 5.7 5.7L275.3 280l-5.7-5.7L211.3 216l58.3-58.3zm112-11.3l-5.7-5.7L364.7 152l5.7 5.7L428.7 216l-58.3 58.3-5.7 5.7L376 291.3l5.7-5.7 64-64 5.7-5.7-5.7-5.7-64-64z"/></svg>