<svg xmlns="http://www.w3.org/2000/svg" viewBox="0 0 384 512"><!--! Font Awesome Pro 6.5.1 by @fontawesome - https://fontawesome.com License - https://fontawesome.com/license (Commercial License) Copyright 2023 Fonticons, Inc. --><path d="M144 32v70c15.3-3.9 31.4-6 48-6c10.9 0 21.6 .9 32 2.7V32h16v70c82.8 21.3 144 96.5 144 186H368c0-80.6-54.1-148.5-128-169.4L240 288H224l0-173.1c-10.4-1.9-21.1-2.9-32-2.9c-16.6 0-32.7 2.3-48 6.6L144 288H128l0-164C62.4 149.6 16 213.4 16 288c0 97.2 78.8 176 176 176H384v16H192 0V464H115.1C47.4 434.4 0 366.7 0 288c0-83.6 53.4-154.7 128-181.1V32h16z"/></svg>