<svg xmlns="http://www.w3.org/2000/svg" viewBox="0 0 512 512"><!--! Font Awesome Pro 6.5.1 by @fontawesome - https://fontawesome.com License - https://fontawesome.com/license (Commercial License) Copyright 2023 Fonticons, Inc. --><path d="M97.1 252.5C106.8 164.5 181.4 96 272 96v0h16 88c42.3 0 79.1-23.4 98.2-58.1c3.6-6.5 6.5-13.3 8.8-20.5c3.1 7 6 14.2 8.7 21.5c13.1 36 20.4 75.8 20.4 117.6C512 317.1 405.1 447.3 273 448l-1 0c-97.1 0-175.9-78.7-176-175.8C47.7 305.3 16 361 16 424v48 8H0v-8V424c0-72.8 38.9-136.5 97.1-171.5zm15.2 9.7c-.2 3.2-.3 6.5-.3 9.8c0 88.4 71.6 160 160 160h0l.9 0C393.5 431.4 496 311.3 496 156.6c0-35.1-5.3-68.5-15-99.3C457.8 90.3 419.5 112 376 112H288v0H272c-78.5 0-143.8 56.5-157.4 131.1C140.5 230.8 169.5 224 200 224H312h8v16h-8H200c-31.8 0-61.6 8-87.7 22.2z"/></svg>