<svg xmlns="http://www.w3.org/2000/svg" viewBox="0 0 640 512"><!--! Font Awesome Pro 6.5.1 by @fontawesome - https://fontawesome.com License - https://fontawesome.com/license (Commercial License) Copyright 2023 Fonticons, Inc. --><path d="M451.5 267.2c18-25.9 28.5-57.3 28.5-91.2c0-88.4-71.6-160-160-160s-160 71.6-160 160c0 33.9 10.5 65.3 28.5 91.2c4.5 6.5 9.5 13.3 14.5 20.2l0 0 0 0c12.5 17.2 25.9 35.5 36.3 54.4c7.4 13.5 11.6 27.8 14 42.2H237c-2.2-12-5.9-23.7-11.8-34.5c-9.9-18-22.2-34.9-34.5-51.8l0 0 0 0 0 0c-5.2-7.1-10.4-14.2-15.4-21.4C155.6 247.9 144 213.3 144 176C144 78.8 222.8 0 320 0s176 78.8 176 176c0 37.3-11.6 71.9-31.4 100.3c-5 7.2-10.2 14.3-15.4 21.4l0 0 0 0 0 0 0 0c-12.3 16.8-24.6 33.7-34.5 51.8c-5.9 10.8-9.6 22.5-11.8 34.5H386.7c2.4-14.4 6.6-28.7 14-42.2c10.4-19 23.7-37.3 36.3-54.4c5-6.9 10-13.7 14.5-20.2zM256 496H384V432H256v64zm-16-80h16H384h16v16 64 16H384 256 240V496 432 416zm88-312V264v8H312v-8V104 96h16v8zM304 304h32v32H304V304zM49.1 4.1l75 45 6.9 4.1L122.7 67l-6.9-4.1-75-45L34 13.7 42.3 0l6.9 4.1zm550 13.7l-75 45L517.3 67 509 53.3l6.9-4.1 75-45L597.7 0 606 13.7l-6.9 4.1zM8 160H88h8v16H88 8 0V160H8zm544 0h80 8v16h-8H552h-8V160h8zM124.1 270.9l-75 45L42.3 320 34 306.3l6.9-4.1 75-45 6.9-4.1 8.2 13.7-6.9 4.1zm400-13.7l75 45 6.9 4.1L597.7 320l-6.9-4.1-75-45-6.9-4.1 8.2-13.7 6.9 4.1z"/></svg>