<svg xmlns="http://www.w3.org/2000/svg" viewBox="0 0 576 512"><!--! Font Awesome Pro 6.5.1 by @fontawesome - https://fontawesome.com License - https://fontawesome.com/license (Commercial License) Copyright 2023 Fonticons, Inc. --><path d="M192 0c96.7 0 175.1 77.9 176 174.4H352C351.1 86.8 279.8 16 192 16C103.6 16 32 87.6 32 176c0 33.9 10.5 65.3 28.5 91.2c4.5 6.5 9.5 13.3 14.5 20.2l0 0 0 0c12.5 17.2 25.9 35.5 36.3 54.4c7.4 13.5 11.6 27.8 14 42.2H109c-2.2-12-5.9-23.7-11.8-34.5c-9.9-18-22.2-34.9-34.5-51.8l0 0 0 0 0 0c-5.2-7.1-10.4-14.2-15.4-21.4C27.6 247.9 16 213.3 16 176C16 78.8 94.8 0 192 0zm80 452.3V496v16H256 128 112V496 432 416h16H251l21 36.3zM184 80c-48.6 0-88 39.4-88 88H80c0-57.4 46.6-104 104-104V80zM128 432v64H256V432H128zM460.1 248.8c7.9 3.4 15.4 7.7 22.3 12.8l35-20.2 0 0 37 64 8 13.9-13.9 8-21.3 12.3c.4 4 .7 8.1 .7 12.3s-.2 8.2-.7 12.3l21.3 12.3 13.9 8-8 13.9-37 64-35.1-20.2c-6.9 5.1-14.3 9.4-22.3 12.8V481v16h-16H388 372V481 454.8c-8-3.4-15.6-7.7-22.5-12.9l-34.9 20.1-37-64-8-13.9 13.9-8 21.1-12.2c-.4-4.1-.7-8.2-.7-12.4s.2-8.3 .7-12.4l-21.1-12.2-13.9-8 8-13.9 28.9-50.1 8-13.9 13.9 8 21.1 12.2c6.9-5.1 14.5-9.4 22.5-12.9V222.4v-16h16 56.1 16v16 26.4zm51.5 14.4l-21.2 12.2-9.1 5.2-8.4-6.2c-5.9-4.3-12.3-8-19.1-11l-9.7-4.2V248.8 222.4H388v26.2 10.6l-9.7 4.1c-6.9 2.9-13.3 6.6-19.3 11l-8.4 6.2-9.1-5.2-21.1-12.2-28.9 50.1 21.1 12.2 9 5.2-1.1 10.4c-.4 3.5-.6 7-.6 10.6s.2 7.2 .6 10.6l1.1 10.4-9.1 5.2-21.1 12.1 29 50.1 21.1-12.1 9.1-5.2L359 429c5.9 4.4 12.4 8.1 19.3 11l9.7 4.1v10.6V481h56.1V454.6 444.1l9.7-4.2c6.8-2.9 13.2-6.6 19.1-11l8.4-6.2 9.1 5.2 21.2 12.2 29-50.1-21.3-12.3-9-5.2 1.1-10.4c.4-3.5 .6-7 .6-10.5s-.2-7.1-.6-10.5l-1.1-10.4 9-5.2 21.3-12.3-29-50.1zM416 383.7a32 32 0 1 0 0-64 32 32 0 1 0 0 64zm0-80a48 48 0 1 1 0 96 48 48 0 1 1 0-96z"/></svg>