<svg xmlns="http://www.w3.org/2000/svg" viewBox="0 0 320 512"><!--! Font Awesome Pro 6.5.1 by @fontawesome - https://fontawesome.com License - https://fontawesome.com/license (Commercial License) Copyright 2023 Fonticons, Inc. --><path d="M176 14V3.8L166 6.3 6.2 46.2 .1 47.7V54v73.8V134v10.2 63.5V214v0 10.2V294v10.2l9.9-2.5 143.8-36 0 0 150-37.5v63.5L198 318.3l-6.1 1.5V326v42H80 64v16 64 16H80h32v40 8h8 80 8v-8V464h32 16V448 384 368H240 207.9V332.3l105.9-26.5 6.1-1.5V298 224.3l0 0V218 144.3 138 127.8 58 47.8L310 50.3 176 83.8V14zM303.9 148.3v63.5L150 250.2 16.1 283.7V220.2l287.8-71.9zm0-16.5L16.1 203.7V140.2l153.8-38.4 6.1-1.5 127.9-32v63.5zM160 87.8l-143.9 36V60.2L160 24.3V87.8zM240 384v64H200 120 80V384H240zM192 496H128V464h64v32zM112 368h16V305.2l-16 4V368z"/></svg>