<svg xmlns="http://www.w3.org/2000/svg" viewBox="0 0 640 512"><!--! Font Awesome Pro 6.5.1 by @fontawesome - https://fontawesome.com License - https://fontawesome.com/license (Commercial License) Copyright 2023 Fonticons, Inc. --><path d="M44.1 33.1L37.3 29 29 42.7l6.9 4.1 80 48 6.9 4.1L131 85.3l-6.9-4.1-80-48zm560 13.7l6.9-4.1L602.7 29l-6.9 4.1-80 48L509 85.3 517.3 99l6.9-4.1 80-48zM8 192H0v16H8 88h8V192H88 8zm544 0h-8v16h8 80 8V192h-8H552zm-88 0V320h16V192c0-88.4-71.6-160-160-160s-160 71.6-160 160V320h16V192c0-79.5 64.5-144 144-144s144 64.5 144 144zM112 464V368H528v96H112zM96 352v16 96 16h16H528h16V464 368 352H528 112 96zM320 112V96c-53 0-96 43-96 96h16c0-44.2 35.8-80 80-80z"/></svg>