<svg xmlns="http://www.w3.org/2000/svg" viewBox="0 0 640 512"><!--! Font Awesome Pro 6.5.1 by @fontawesome - https://fontawesome.com License - https://fontawesome.com/license (Commercial License) Copyright 2023 Fonticons, Inc. --><path d="M480 176c0 33.9-10.5 65.3-28.5 91.2c-4.5 6.5-9.5 13.3-14.5 20.2c-12.5 17.2-25.9 35.5-36.3 54.4c-7.4 13.5-11.6 27.8-14 42.2H403c2.2-12 5.9-23.7 11.8-34.5c9.9-18 22.2-34.9 34.5-51.8l0 0 0 0 0 0c5.2-7.1 10.4-14.2 15.4-21.4c19.8-28.5 31.4-63 31.4-100.3C496 78.8 417.2 0 320 0S144 78.8 144 176c0 37.3 11.6 71.9 31.4 100.3c5 7.2 10.2 14.3 15.4 21.4l0 0 0 0 0 0c12.3 16.8 24.6 33.7 34.5 51.8c5.9 10.8 9.6 22.5 11.8 34.5h16.2c-2.4-14.4-6.6-28.7-14-42.2c-10.4-19-23.7-37.3-36.3-54.4l0 0 0 0c-5-6.9-10-13.7-14.5-20.2c-18-25.9-28.5-57.3-28.5-91.2c0-88.4 71.6-160 160-160s160 71.6 160 160zm-256-8c0-48.6 39.4-88 88-88V64c-57.4 0-104 46.6-104 104h16zm32 328V432H384v64H256zm-16-80v16 64 16h16H384h16V496 432 416H384 256 240zM49.1 4.1L42.3 0 34 13.7l6.9 4.1 75 45 6.9 4.1L131 53.3l-6.9-4.1-75-45zm550 13.7l6.9-4.1L597.7 0l-6.9 4.1-75 45L509 53.3 517.3 67l6.9-4.1 75-45zM8 160H0v16H8 88h8V160H88 8zm544 0h-8v16h8 80 8V160h-8H552zM124.1 270.9l6.9-4.1L122.7 253l-6.9 4.1-75 45L34 306.3 42.3 320l6.9-4.1 75-45zm400-13.7l-6.9-4.1L509 266.7l6.9 4.1 75 45 6.9 4.1 8.2-13.7-6.9-4.1-75-45z"/></svg>