<svg xmlns="http://www.w3.org/2000/svg" viewBox="0 0 640 512"><!--! Font Awesome Pro 6.5.1 by @fontawesome - https://fontawesome.com License - https://fontawesome.com/license (Commercial License) Copyright 2023 Fonticons, Inc. --><path d="M336 3.8V14 83.8L470 50.3l9.9-2.5V58v69.8V138v6.2V218v6.2l0 0V298v6.2l-6.1 1.5L367.9 332.3V368H400h16v16 64 16H400 368v40 8h-8H280h-8v-8V464H240 224V448 384 368h16H351.9V326v-6.2l6.1-1.5 105.9-26.5V228.3l-150 37.5 0 0L170 301.7l-9.9 2.5V294 224.2 214v0-6.2V144.2 134v-6.2V54 47.7l6.1-1.5L326 6.3 336 3.8zm127.9 208V148.3L176.1 220.2v63.5L310 250.2l153.9-38.5zm0-143.5L336 100.3l-6.1 1.5L176.1 140.2v63.5l287.8-71.9V68.3zM176.1 123.7L320 87.8V24.3l-143.9 36v63.5zM240 384v64h40 80 40V384H240zm112 80H288v32h64V464zM272 309.2l16-4V368H272V309.2zM17.1 20.1l75 45L99 69.3 90.7 83l-6.9-4.1-75-45L2 29.7 10.3 16l6.9 4.1zm614 13.7l-75 45L549.3 83 541 69.3l6.9-4.1 75-45 6.9-4.1L638 29.7l-6.9 4.1zM8 176H88h8v16H88 8 0V176H8zm544 0h80 8v16h-8H552h-8V176h8zM92.1 286.9l-75 45L10.3 336 2 322.3l6.9-4.1 75-45 6.9-4.1L99 282.7l-6.9 4.1zm464-13.7l75 45 6.9 4.1L629.7 336l-6.9-4.1-75-45-6.9-4.1 8.2-13.7 6.9 4.1z"/></svg>