<svg xmlns="http://www.w3.org/2000/svg" viewBox="0 0 640 512"><!--! Font Awesome Pro 6.5.1 by @fontawesome - https://fontawesome.com License - https://fontawesome.com/license (Commercial License) Copyright 2023 Fonticons, Inc. --><path d="M11.3 .7L4.8 15.3l144 64 7.3 3.2 6.5-14.6-7.3-3.2L11.3 .7zM162.6 188.1l-6.5-14.6-7.3 3.2-144 64 6.5 14.6 144-64 7.3-3.2zM237.4 176H402.6l58.2 320L368 496V432c0-26.5-21.5-48-48-48s-48 21.5-48 48v64l-92.8 0 58.2-320zM477.1 496L418.9 176H424h8V160h-8-8H224h-8-8v16h8 5.1L162.9 496 144 496h-8v16h8l16 0h16.3l95.7 0h16 64 16l95.7 0H480l16 0h8V496h-8l-18.9 0zM352 496H288V432c0-17.7 14.3-32 32-32s32 14.3 32 32v64zM484.8 64.7l-7.3 3.2 6.5 14.6 7.3-3.2 144-64L628.8 .7l-144 64zm0 126.6l144 64 6.5-14.6-144-64-7.3-3.2-6.5 14.6 7.3 3.2zM324.2 3.6L320 1l-4.2 2.6-112 69.6L197 77.4 205.4 91l6.8-4.2L224 79.5V128h16V69.5l80-49.7 80 49.7V128h16V79.5l11.8 7.3 6.8 4.2L443 77.4l-6.8-4.2L324.2 3.6z"/></svg>