<svg xmlns="http://www.w3.org/2000/svg" viewBox="0 0 384 512"><!--! Font Awesome Pro 6.5.1 by @fontawesome - https://fontawesome.com License - https://fontawesome.com/license (Commercial License) Copyright 2023 Fonticons, Inc. --><path d="M16 16V496H368V16H16zM0 0H16 368h16V16 496v16H368 16 0V496 16 0zM272 264H112V400H272V264zM112 248H272V112H112V248zM96 96h16H272h16v16V400v16H272 112 96V400 112 96zm96-56a16 16 0 1 1 0 32 16 16 0 1 1 0-32zm0 400a16 16 0 1 1 0 32 16 16 0 1 1 0-32zM152 160v48h80V160H152zm-16-16h16 80 16v16 48 16H232 152 136V208 160 144z"/></svg>