<svg xmlns="http://www.w3.org/2000/svg" viewBox="0 0 576 512"><!--! Font Awesome Pro 6.5.1 by @fontawesome - https://fontawesome.com License - https://fontawesome.com/license (Commercial License) Copyright 2023 Fonticons, Inc. --><path d="M101.4 42.1L96 37.2l-5.4 4.8-80 72-5.9 5.4 10.7 11.9 5.9-5.4L88 66V446l-66.6-60-5.9-5.4L4.7 392.6l5.9 5.4 80 72 5.4 4.8 5.4-4.8 80-72 5.9-5.4-10.7-11.9-5.9 5.4L104 446V66l66.6 60 5.9 5.4 10.7-11.9-5.9-5.4-80-72zM264 88h-8v16h8H568h8V88h-8H264zm-8 160h-8v16h8H568h8V248h-8H256zm0 160v16h8H568h8V408h-8H264h-8z"/></svg>