<svg xmlns="http://www.w3.org/2000/svg" viewBox="0 0 640 512"><!--! Font Awesome Pro 6.5.1 by @fontawesome - https://fontawesome.com License - https://fontawesome.com/license (Commercial License) Copyright 2023 Fonticons, Inc. --><path d="M16.2 5L9.9 0 0 12.5l6.3 5L623.8 507l6.3 5 9.9-12.5-6.3-5L16.2 5zM576 256c0-88.4-71.6-160-160-160H360h-8v16h8 56c79.5 0 144 64.5 144 144c0 29.2-8.7 56.4-23.6 79.1L549 345c17.1-25.5 27-56.1 27-89zm-112 8h8V248h-8H426.1l20.3 16H464zM193.7 248H176h-8v16h8 37.9l-20.3-16zm-90-71.1L91 167C74 192.4 64 223 64 256c0 88.4 71.6 160 160 160h56 8V400h-8H224c-79.5 0-144-64.5-144-144c0-29.2 8.7-56.4 23.6-79.1z"/></svg>