<svg xmlns="http://www.w3.org/2000/svg" viewBox="0 0 576 512"><!--! Font Awesome Pro 6.5.1 by @fontawesome - https://fontawesome.com License - https://fontawesome.com/license (Commercial License) Copyright 2023 Fonticons, Inc. --><path d="M32 256c0-88.4 71.6-160 160-160h56 8v16h-8H192c-79.5 0-144 64.5-144 144s64.5 144 144 144h56 8v16h-8H192c-88.4 0-160-71.6-160-160zm512 0c0 88.4-71.6 160-160 160H328h-8V400h8 56c79.5 0 144-64.5 144-144s-64.5-144-144-144H328h-8V96h8 56c88.4 0 160 71.6 160 160zm-400-8H432h8v16h-8H144h-8V248h8z"/></svg>