<svg xmlns="http://www.w3.org/2000/svg" viewBox="0 0 640 512"><!--! Font Awesome Pro 6.5.1 by @fontawesome - https://fontawesome.com License - https://fontawesome.com/license (Commercial License) Copyright 2023 Fonticons, Inc. --><path d="M16.2 5L9.9 0 0 12.5l6.3 5L623.8 507l6.3 5 9.9-12.5-6.3-5L16.2 5zM406.5 416H320c-61.9 0-112-50.1-112-112c0-13.8 2.5-27 7-39.1l-13.1-10.4c-6.4 15.2-9.9 31.9-9.9 49.5c0 70.7 57.3 128 128 128H426.7l-20.3-16zM432 208c0 13.8-2.5 27-7 39.1l13.1 10.4c6.4-15.2 9.9-31.9 9.9-49.5c0-70.7-57.3-128-128-128H213.3l20.3 16H320c61.9 0 112 50.1 112 112zM46.2 131.5l-12.6-9.9C12.7 144.4 0 174.7 0 208c0 70.7 57.3 128 128 128h24V320H128C66.1 320 16 269.9 16 208c0-29.6 11.5-56.4 30.2-76.5zM640 304c0-70.7-57.3-128-128-128H488v16h24c61.9 0 112 50.1 112 112c0 29.6-11.4 56.4-30.2 76.5l12.6 9.9C627.3 367.6 640 337.3 640 304z"/></svg>