<svg xmlns="http://www.w3.org/2000/svg" viewBox="0 0 320 512"><!--! Font Awesome Pro 6.5.1 by @fontawesome - https://fontawesome.com License - https://fontawesome.com/license (Commercial License) Copyright 2023 Fonticons, Inc. --><path d="M80 142c0-51.9 42.1-94 94-94c11 0 21.8 1.9 32.1 5.7l71.1 25.9 7.5 2.7 5.5-15-7.5-2.7L211.6 38.6C199.6 34.2 186.8 32 174 32C113.3 32 64 81.3 64 142v82H0v16H64v80H0v16H59.4L.8 460.6 0 462.2V464v8 8H8 312h8V464h-8H16.8L77.1 336H256V320H80V240H256V224H80V142z"/></svg>