<svg xmlns="http://www.w3.org/2000/svg" viewBox="0 0 512 512"><!--! Font Awesome Pro 6.5.1 by @fontawesome - https://fontawesome.com License - https://fontawesome.com/license (Commercial License) Copyright 2023 Fonticons, Inc. --><path d="M384 59.5L496 22.2V148.5L384 185.8V128 59.5zM368 48v80 63.1V208 390.8c-19.6-23.2-55.3-38.8-96-38.8c-61.9 0-112 35.8-112 80s50.1 80 112 80s112-35.8 112-80V202.7L512 160V16.9 0L496 5.3 368 48zm0 384c0 15.6-8.8 31.2-26.1 43.5C324.6 487.9 300 496 272 496s-52.6-8.1-69.9-20.5c-17.3-12.3-26.1-28-26.1-43.5s8.8-31.2 26.1-43.5C219.4 376.1 244 368 272 368s52.6 8.1 69.9 20.5c17.3 12.3 26.1 28 26.1 43.5zM8 64H0V80H8 280h8V64h-8H8zM8 192H0v16H8 280h8V192h-8H8zM8 320H0v16H8 152h8V320h-8H8z"/></svg>