<svg xmlns="http://www.w3.org/2000/svg" viewBox="0 0 512 512"><!--! Font Awesome Pro 6.5.1 by @fontawesome - https://fontawesome.com License - https://fontawesome.com/license (Commercial License) Copyright 2023 Fonticons, Inc. --><path d="M144 96l11.3-11.3L208 32H432h16V48v96 16H432 208l-52.7-52.7L144 96zm288 48V48H214.6l-48 48 48 48H432zM96 96A32 32 0 1 0 32 96a32 32 0 1 0 64 0zM16 96a48 48 0 1 1 96 0A48 48 0 1 1 16 96zM96 256a32 32 0 1 0 -64 0 32 32 0 1 0 64 0zm-80 0a48 48 0 1 1 96 0 48 48 0 1 1 -96 0zM64 384a32 32 0 1 0 0 64 32 32 0 1 0 0-64zm0 80a48 48 0 1 1 0-96 48 48 0 1 1 0 96zm80-48l11.3-11.3L208 352H432h16v16 96 16H432 208l-52.7-52.7L144 416zm288 48V368H214.6l-48 48 48 48H432zM155.3 267.3L144 256l11.3-11.3L208 192H496h16v16 96 16H496 208l-52.7-52.7zM214.6 304H496V208H214.6l-48 48 48 48z"/></svg>