<svg xmlns="http://www.w3.org/2000/svg" viewBox="0 0 512 512"><!--! Font Awesome Pro 6.5.1 by @fontawesome - https://fontawesome.com License - https://fontawesome.com/license (Commercial License) Copyright 2023 Fonticons, Inc. --><path d="M40 40V56h8H72V208H32 24v16h8 96 8V208h-8H88V48 40H80 48 40zM200 88v16h8H496h8V88h-8H208h-8zm0 160v16h8H496h8V248h-8H208h-8zm0 160v16h8H496h8V408h-8H208h-8zM80 288c-30.9 0-56 25.1-56 56H40c0-22.1 17.9-40 40-40h2.1c20.9 0 37.9 17 37.9 37.9c0 9.6-3.6 18.8-10.2 25.9L18.2 466 16 468.3v3.2 .6 8h8H136h8V464h-8H41.9l79.6-85.3c9.3-10 14.5-23.1 14.5-36.8c0-29.8-24.1-53.9-53.9-53.9H80z"/></svg>