<svg xmlns="http://www.w3.org/2000/svg" viewBox="0 0 512 512"><!--! Font Awesome Pro 6.5.1 by @fontawesome - https://fontawesome.com License - https://fontawesome.com/license (Commercial License) Copyright 2023 Fonticons, Inc. --><path d="M264 8V96v8H248V96 8 0h16V8zm0 408v88 8H248v-8V416v-8h16v8zM-8 248H0 96h8v16H96 0-8V248zm424 0h88 8v16h-8H416h-8V248h8zM441.5 83.5l-5.7 5.7-62.2 62.2L368 157l-11.3-11.3 5.7-5.7 62.2-62.2 5.7-5.7 11.3 11.3zM147.3 377.6L85.1 439.8l-5.7 5.7L68.2 434.2l5.7-5.7L136 366.3l5.7-5.7L153 372l-5.7 5.7zM73.8 66.5l5.7 5.7L147.3 140l5.7 5.7L141.7 157l-5.7-5.7L68.2 83.5l-5.7-5.7L73.8 66.5zM373.6 366.3l62.2 62.2 5.7 5.7-11.3 11.3-5.7-5.7-62.2-62.2-5.7-5.7L368 360.7l5.7 5.7z"/></svg>