<svg xmlns="http://www.w3.org/2000/svg" viewBox="0 0 512 512"><!--! Font Awesome Pro 6.5.1 by @fontawesome - https://fontawesome.com License - https://fontawesome.com/license (Commercial License) Copyright 2023 Fonticons, Inc. --><path d="M72 16C41.1 16 16 41.1 16 72v56c0 26.5 21.5 48 48 48s48-21.5 48-48V80 72h16v8 48c0 18.6-7.9 35.4-20.6 47.1L146.9 208H184c0-27.8 11.6-52.8 25.5-71.9c2.1-2.9 4.3-5.6 6.5-8.3V120 38.8l-41.3-6.9-7.9-1.3 2.6-15.8 7.9 1.3 48 8 6.7 1.1V32v79.3c7.4-6.5 14.5-11.5 20.4-14.4l3.6-1.8 3.6 1.8c5.9 3 13.1 7.9 20.4 14.4V32 25.2l6.7-1.1 48-8 7.9-1.3 2.6 15.8-7.9 1.3L296 38.8V120v7.8c2.2 2.6 4.4 5.4 6.5 8.3c14 19.1 25.5 44.1 25.5 71.9h37.1l39.5-32.9C391.9 163.4 384 146.6 384 128V80 72h16v8 48c0 26.5 21.5 48 48 48s48-21.5 48-48V72c0-30.9-25.1-56-56-56h-5.9l21.7 94.2 1.8 7.8L442 121.6l-1.8-7.8-24-104L413.9 0H424h16c39.8 0 72 32.2 72 72v56c0 35.3-28.7 64-64 64c-10.8 0-20.9-2.7-29.9-7.4l-45 37.5-2.2 1.9H368 328v32h54.1l46.3-23.2 7.2-3.6 7.2 14.3-7.2 3.6-48 24-1.7 .8H384 328v32h70.5L437 288.6l7.4-3 5.9 14.9-7.4 3-40 16-1.4 .6H400 328v32h24 2.4l2 1.3 24 16 6.7 4.4-8.9 13.3-6.7-4.4-22-14.7H326.1l-19.9 74.6C332.7 450.5 352 475 352 504v8h-8H168h-8v-8c0-29 19.3-53.5 45.8-61.4L185.9 368H162.4l-22 14.7-6.7 4.4-8.9-13.3 6.7-4.4 24-16 2-1.3H160h24V320H112h-1.5l-1.4-.6-40-16-7.4-3 5.9-14.9 7.4 3L113.5 304H184V272H128h-1.9l-1.7-.8-48-24-7.2-3.6 7.2-14.3 7.2 3.6L129.9 256H184V224H144h-2.9l-2.2-1.9-45-37.5C84.9 189.3 74.8 192 64 192c-35.3 0-64-28.7-64-64V72C0 32.2 32.2 0 72 0H88 98.1L95.8 9.8l-24 104L70 121.6 54.4 118l1.8-7.8L77.9 16H72zM200 256v16 25.8l56 14 56-14V272 256 208c0-23.4-9.8-45.1-22.5-62.5c-11.2-15.4-24.3-26.7-33.5-32.4c-9.3 5.7-22.3 17-33.5 32.4C209.8 162.9 200 184.6 200 208v48zm0 58.2V320v25.8l56 14 56-14V320v-5.8l-54.1 13.5-1.9 .5-1.9-.5L200 314.2zm9.4 80.1L256 407.7l46.6-13.3 8.5-31.9-53.1 13.3-1.9 .5-1.9-.5-53.1-13.3 8.5 31.9zm4.8 18l9.1 34.2 2.3 8.6-8.9 1.3c-20.5 3.1-36.7 19.1-40.2 39.5H335.3c-3.4-20.4-19.7-36.4-40.2-39.5l-8.9-1.3 2.3-8.6 9.1-34.2-39.6 11.3-2.2 .6-2.2-.6-39.6-11.3z"/></svg>