<svg xmlns="http://www.w3.org/2000/svg" viewBox="0 0 512 512"><!--! Font Awesome Pro 6.5.1 by @fontawesome - https://fontawesome.com License - https://fontawesome.com/license (Commercial License) Copyright 2023 Fonticons, Inc. --><path d="M209.8 467.4c13-15.4 29.2-35.1 46.2-57.3l0 26.1c-22.2 28.1-41.8 50.8-53.3 63.9c-6.8 7.7-10.7 12-10.7 12s-4-4.3-10.7-12C140.8 454.2 0 287.9 0 192C0 86 86 0 192 0c95.7 0 175 70 189.6 161.5c-5.3 .9-10.6 2.1-15.6 3.8C353.1 80.7 280.1 16 192 16C94.8 16 16 94.8 16 192c0 24.1 10.6 55.3 28.2 90c17.5 34.2 40.9 70 64.7 102.6c23.7 32.6 47.4 61.8 65.3 82.8c7 8.2 13 15.2 17.8 20.6c4.8-5.4 10.8-12.4 17.8-20.6zM192 112a80 80 0 1 1 0 160 80 80 0 1 1 0-160zm64 80a64 64 0 1 0 -128 0 64 64 0 1 0 128 0zm144 16c-26.5 0-48 21.5-48 48v64h96V256c0-26.5-21.5-48-48-48zm-64 48c0-35.3 28.7-64 64-64s64 28.7 64 64v64h32 16v16V496v16H496 304 288V496 336 320h16 32V256zm-32 80V496H496V336H464 448 352 336 304z"/></svg>