<svg xmlns="http://www.w3.org/2000/svg" viewBox="0 0 448 512"><!--! Font Awesome Pro 6.5.1 by @fontawesome - https://fontawesome.com License - https://fontawesome.com/license (Commercial License) Copyright 2023 Fonticons, Inc. --><path d="M112 128v64H336V128c0-61.9-50.1-112-112-112s-112 50.1-112 112zM96 192V128C96 57.3 153.3 0 224 0s128 57.3 128 128v64h80 16v16V496v16H432 16 0V496 208 192H16 96zm0 16H16V496H432V208H352 336 112 96zm135.3 52.7L317.4 448H299.8l-22.1-48H170.3l-22.1 48H130.6l86.1-187.3 2.1-4.7h10.3l2.1 4.7zM270.3 384L224 283.2 177.7 384h92.7z"/></svg>