<svg xmlns="http://www.w3.org/2000/svg" viewBox="0 0 576 512"><!--! Font Awesome Pro 6.5.1 by @fontawesome - https://fontawesome.com License - https://fontawesome.com/license (Commercial License) Copyright 2023 Fonticons, Inc. --><path d="M448 16c-61.9 0-112 50.1-112 112v64h96 16v16V496v16H432 16 0V496 208 192H16 320V128C320 57.3 377.3 0 448 0s128 57.3 128 128v88 8H560v-8V128c0-61.9-50.1-112-112-112zM16 208V496H432V208H336 320 16zM272 336H176v32h96V336zm16-16v16 32 16H272 176 160V368 336 320h16 96 16z"/></svg>