<svg xmlns="http://www.w3.org/2000/svg" viewBox="0 0 448 512"><!--! Font Awesome Pro 6.5.1 by @fontawesome - https://fontawesome.com License - https://fontawesome.com/license (Commercial License) Copyright 2023 Fonticons, Inc. --><path d="M224 16c61.9 0 112 50.1 112 112v64H112V128c0-61.9 50.1-112 112-112zM96 128v64H16 0v16V496v16H16 432h16V496 208 192H432 352V128C352 57.3 294.7 0 224 0S96 57.3 96 128zM16 208H96h16H336h16 80V496H16V208zM208 400V304h32v96H208zM192 288v16 96 16h16 32 16V400 304 288H240 208 192z"/></svg>