<svg xmlns="http://www.w3.org/2000/svg" viewBox="0 0 448 512"><!--! Font Awesome Pro 6.5.1 by @fontawesome - https://fontawesome.com License - https://fontawesome.com/license (Commercial License) Copyright 2023 Fonticons, Inc. --><path d="M112 128v64H336V128c0-61.9-50.1-112-112-112s-112 50.1-112 112zM96 192V128C96 57.3 153.3 0 224 0s128 57.3 128 128v64h80 16v16V496v16H432 16 0V496 208 192H16 96zm0 16H16V496H432V208H352 336 112 96zm88 40v8 40h80V256v-8h16v8 40h40 8v16h-8H280v80h40 8v16h-8H280v40 8H264v-8V408H184v40 8H168v-8V408H128h-8V392h8 40V312H128h-8V296h8 40V256v-8h16zm0 144h80V312H184v80z"/></svg>