<svg xmlns="http://www.w3.org/2000/svg" viewBox="0 0 576 512"><!--! Font Awesome Pro 6.5.1 by @fontawesome - https://fontawesome.com License - https://fontawesome.com/license (Commercial License) Copyright 2023 Fonticons, Inc. --><path d="M312 32h-8V48h8 64c98.9 0 179.6 78.1 183.8 176H444.6l-53.7-92-6.5-11.2-7.1 10.9-52.7 80.8-53.9-80.9-6.3-9.5-6.8 9.2L189.6 224H48 32v16 99.2l54.9 25.1L2.1 480H21.9l79.8-108.9 73.8 33.8L120.2 480H140l50.4-68.4L200 416h89.6l-40 64h18.9l40-64H480c6.2 0 12.3-.6 18.2-1.7L531.1 480h17.9l-35.1-70.1C550.2 396.2 576 361.1 576 320V240 224h-.2C571.6 117.3 483.8 32 376 32H312zM111.4 357.9L197.7 240H435.4l1.7 2.9 5-2.9H560v80c0 44.2-35.8 80-80 80H203.5l-92.1-42.1zM177.9 240L96.5 351.1 48 328.9V240H177.9zm31.6-16l54.2-74 49.4 74H209.5zm126.7 0l47.5-72.8L426.1 224H336.1zM496 320a16 16 0 1 0 -32 0 16 16 0 1 0 32 0z"/></svg>