<svg xmlns="http://www.w3.org/2000/svg" viewBox="0 0 448 512"><!--! Font Awesome Pro 6.5.1 by @fontawesome - https://fontawesome.com License - https://fontawesome.com/license (Commercial License) Copyright 2023 Fonticons, Inc. --><path d="M432 496H16V224C16 109.1 109.1 16 224 16s208 93.1 208 208V496zM224 0C100.3 0 0 100.3 0 224V496v16H16 432h16V496 224C448 100.3 347.7 0 224 0zM56 144v8 56c0 48.6 39.4 88 88 88h27.1l-8 16H152c-39.8 0-72 32.2-72 72s32.2 72 72 72h72 72c39.8 0 72-32.2 72-72s-32.2-72-72-72H284.9l-8-16h30.2c50.6 0 90.8-42.6 87.8-93.2l-3-51.3-.4-7.5H384 290.3c-24.1 0-46.6 12-59.9 32.1l-6.3 9.5-6.3-9.5c-13.4-20-35.8-32.1-59.9-32.1H64 56zm16 16h85.7c18.7 0 36.2 9.4 46.6 24.9l13 19.5 6.7 10 6.7-10 13-19.5C254 169.4 271.5 160 290.3 160h86.2l2.6 43.8c2.4 41.4-30.4 76.2-71.9 76.2H264 251.1l5.8 11.6 16 32 2.2 4.4H280h16c30.9 0 56 25.1 56 56s-25.1 56-56 56H224 152c-30.9 0-56-25.1-56-56s25.1-56 56-56h16 4.9l2.2-4.4 16-32 5.8-11.6H184 144c-39.8 0-72-32.2-72-72V160zm120 80H152c-22.1 0-40-17.9-40-40h40c22.1 0 40 17.9 40 40zm0 16c8.8 0 16-7.2 16-16c0-30.9-25.1-56-56-56H112c-8.8 0-16 7.2-16 16c0 30.9 25.1 56 56 56h40zm104-16H256c0-22.1 17.9-40 40-40h40c0 22.1-17.9 40-40 40zm0 16c30.9 0 56-25.1 56-56c0-8.8-7.2-16-16-16H296c-30.9 0-56 25.1-56 56c0 8.8 7.2 16 16 16h40zM136 384c0-8.8 7.2-16 16-16H296c8.8 0 16 7.2 16 16s-7.2 16-16 16H152c-8.8 0-16-7.2-16-16zm-16 0c0 17.7 14.3 32 32 32H296c17.7 0 32-14.3 32-32s-14.3-32-32-32H152c-17.7 0-32 14.3-32 32z"/></svg>