<svg xmlns="http://www.w3.org/2000/svg" viewBox="0 0 640 512"><!--! Font Awesome Pro 6.5.1 by @fontawesome - https://fontawesome.com License - https://fontawesome.com/license (Commercial License) Copyright 2023 Fonticons, Inc. --><path d="M312 0V8v8V219.6l-56 35.6V112 96H240 152c-26.9 35.8-51.5 73.2-73.8 112.1C42.3 271.1 0 348.4 0 423c0 49.1 39.8 89 89 89c38.2 0 78.8-12.6 117.7-24.7c16.8-5.2 33.4-10.4 49.3-14.3V305.6l-16 10.2V460.7c-12.6 3.5-25.8 7.6-38.8 11.6l0 0 0 0 0 0 0 0c-11 3.4-21.9 6.8-32.3 9.8c-28 8-54.8 14-79.9 14c-40.3 0-73-32.7-73-73c0-69.7 39.7-143.3 76.1-207c20.6-36 43.3-70.7 67.9-104.1h80V265.4L139.7 329.3l-6.7 4.3 8.6 13.5 6.7-4.3L320 233.5 491.7 342.7l6.7 4.3 8.6-13.5-6.7-4.3L400 265.4V112h80c24.7 33.4 47.3 68 67.9 104.1C584.3 279.7 624 353.3 624 423c0 40.3-32.7 73-73 73c-25.1 0-51.9-5.9-79.9-14c-10.4-3-21.3-6.4-32.3-9.8l0 0 0 0c-13.1-4-26.2-8.1-38.8-11.6V315.8l-16-10.2V473c15.9 4 32.5 9.1 49.3 14.3C472.2 499.4 512.8 512 551 512c49.1 0 89-39.8 89-89c0-74.6-42.3-152-78.2-214.9C539.5 169.2 514.9 131.8 488 96H400 384v16V255.2l-56-35.6V16 8 0H312z"/></svg>