<svg xmlns="http://www.w3.org/2000/svg" viewBox="0 0 512 512"><!--! Font Awesome Pro 6.5.1 by @fontawesome - https://fontawesome.com License - https://fontawesome.com/license (Commercial License) Copyright 2023 Fonticons, Inc. --><path d="M208 16a192 192 0 1 1 0 384 192 192 0 1 1 0-384zm0 400c54.6 0 104.2-21 141.3-55.4L499.9 511.3l11.3-11.3L360.6 349.3C395 312.2 416 262.6 416 208C416 93.1 322.9 0 208 0S0 93.1 0 208S93.1 416 208 416zM96 192H80v16 16l0 64v16 16H96h32 16V304 288 224 208 192H128 96zm96-96H176v16 16V288v16 16h16 32 16V304 288 128 112 96H224 192zm96 64H272v16 16 96 16 16h16 32 16V304 288 192 176 160H320 288zM112 208h16v16 64 16H112 96V288 224 208h16zm80 80V128 112h16 16v16V288v16H208 192V288zM320 176v16 96 16H304 288V288 192 176h16 16z"/></svg>