<svg xmlns="http://www.w3.org/2000/svg" viewBox="0 0 448 512"><!--! Font Awesome Pro 6.5.1 by @fontawesome - https://fontawesome.com License - https://fontawesome.com/license (Commercial License) Copyright 2023 Fonticons, Inc. --><path d="M0 32H8 136h8v8V256c0 44.2 35.8 80 80 80s80-35.8 80-80V40 32h8H440h8v8V256c0 123.7-100.3 224-224 224S0 379.7 0 256V40 32zM16 48v96H128V48H16zm0 208c0 114.9 93.1 208 208 208s208-93.1 208-208V160H320v96c0 53-43 96-96 96s-96-43-96-96V160H16v96zM432 144V48H320v96H432z"/></svg>