<svg xmlns="http://www.w3.org/2000/svg" viewBox="0 0 576 512"><!--! Font Awesome Pro 6.5.1 by @fontawesome - https://fontawesome.com License - https://fontawesome.com/license (Commercial License) Copyright 2023 Fonticons, Inc. --><path d="M272 432H16V208C16 137.3 73.3 80 144 80s128 57.3 128 128V432zm16-224c0-55.7-31.7-104.1-78-128H432c70.7 0 128 57.3 128 128V432H288V208zM272 448h16H560h16V432 208c0-79.5-64.5-144-144-144H144C64.5 64 0 128.5 0 208V432v16H16 272zM72 192H64v16h8H216h8V192h-8H72zm304 0h-8v16h8 56v80 8h8 64 8v-8V200v-8h-8H440 376zm72 88V208h48v72H448z"/></svg>