<svg xmlns="http://www.w3.org/2000/svg" viewBox="0 0 576 512"><!--! Font Awesome Pro 6.5.1 by @fontawesome - https://fontawesome.com License - https://fontawesome.com/license (Commercial License) Copyright 2023 Fonticons, Inc. --><path d="M352 200V104 40 32h8 96 8v8 64 8h-8l-88 0v88 8H352v-8zM448 96V48l-80 0V96l80 0zM560 208c0-47.4-25.7-88.7-64-110.9V79c47.4 23.6 80 72.5 80 129V432v16H560 288 272 16 0V432 208C0 128.5 64.5 64 144 64H320V80H210c46.3 23.9 78 72.3 78 128V432H560V208zM272 432V208c0-70.7-57.3-128-128-128S16 137.3 16 208V432H272zM64 192h8H216h8v16h-8H72 64V192z"/></svg>