<svg xmlns="http://www.w3.org/2000/svg" viewBox="0 0 512 512"><!--! Font Awesome Pro 6.5.1 by @fontawesome - https://fontawesome.com License - https://fontawesome.com/license (Commercial License) Copyright 2023 Fonticons, Inc. --><path d="M408 0H336h-8-8V8 128c-48.7 .2-97.4 17.5-134.6 51.9c-45.7 34.4-67.6 72.9-88.1 108.8c-19 33.2-36.7 64.3-70.8 88L0 393.8l1.8 59.1 43.7 19.2s99.8 39.9 243.3 39.9C454.7 512 512 375.9 512 305.2c0-45.4-18.7-90.7-56-125.3c-25.2-23.4-55.7-38.8-88-46.4V150c28.3 7.3 54.9 21.2 77.1 41.7c34.1 31.6 50.9 72.7 50.9 113.6c0 31.8-13.1 79.9-45.8 119.8c-32.1 39.3-83.4 71-161.4 71c-70.3 0-129.9-9.8-171.8-19.5c-21-4.9-37.5-9.7-48.7-13.4c-5.6-1.8-9.9-3.3-12.7-4.3c-1.4-.5-2.5-.9-3.2-1.2l-.7-.3-34.2-15-1.2-39.9 18.8-12.2 .2-.1 .2-.2c37.2-25.8 56.5-59.8 75.2-92.5l2.7-4.8c19.7-34.5 40.4-68.9 81.6-99.9l.6-.5 .6-.6C230.4 160 275.2 144.2 320 144v24 8h16v-8V144.6v-16-70C351.9 81.2 378.2 96 408 96h80 8V88c0-48.6-39.4-88-88-88zm0 80c-37.1 0-67.6-28-71.6-64H408c37.1 0 67.6 28 71.6 64H408zm16 240v-8H408v8c0 48.6-39.4 88-88 88h-8v16h8c57.4 0 104-46.6 104-104z"/></svg>