<svg xmlns="http://www.w3.org/2000/svg" viewBox="0 0 512 512"><!--! Font Awesome Pro 6.5.1 by @fontawesome - https://fontawesome.com License - https://fontawesome.com/license (Commercial License) Copyright 2023 Fonticons, Inc. --><path d="M256 16a240 240 0 1 1 0 480 240 240 0 1 1 0-480zm0 496A256 256 0 1 0 256 0a256 256 0 1 0 0 512zM221.5 82.9l-12.6 3.5C134.6 106.9 80 175.1 80 256s54.6 149.1 128.9 169.6l12.6 3.5 5.9-11.6c5.3-10.4 16.1-17.5 28.5-17.5s23.2 7.1 28.5 17.5l5.9 11.6 12.6-3.5C377.4 405.1 432 336.9 432 256s-54.6-149.1-128.9-169.6l-12.6-3.5-5.9 11.6C279.2 104.9 268.4 112 256 112s-23.2-7.1-28.5-17.5l-5.9-11.6zm-8.3 18.9c7.9 15.6 24.1 26.2 42.8 26.2s34.8-10.7 42.8-26.2C366.4 120.5 416 182.5 416 256s-49.6 135.5-117.2 154.2C290.8 394.7 274.7 384 256 384s-34.8 10.7-42.8 26.2C145.6 391.5 96 329.5 96 256s49.6-135.5 117.2-154.2zM204 180H180v24h24V180zm0 64H180v24h24V244zm-24 64v24h24V308H180zm88-104V180H244v24h24zm0 128V308H244v24h24zm40-152v24h24V180H308zm-64 64v24h24V244H244zm88 0H308v24h24V244zm-24 64v24h24V308H308z"/></svg>