<svg xmlns="http://www.w3.org/2000/svg" viewBox="0 0 320 512"><!--! Font Awesome Pro 6.5.1 by @fontawesome - https://fontawesome.com License - https://fontawesome.com/license (Commercial License) Copyright 2023 Fonticons, Inc. --><path d="M165.7 10.3L160 4.7l-5.7 5.7-64 64L84.7 80 96 91.3l5.7-5.7L152 35.3V128H96 88v16h8 56v48.2C67.4 196.4 0 266.3 0 352c0 88.4 71.6 160 160 160s160-71.6 160-160c0-85.7-67.4-155.6-152-159.8V144h56 8V128h-8H168V35.3l50.3 50.3 5.7 5.7L235.3 80l-5.7-5.7-64-64zM160 496a144 144 0 1 1 0-288 144 144 0 1 1 0 288z"/></svg>