<svg xmlns="http://www.w3.org/2000/svg" viewBox="0 0 512 512"><!--! Font Awesome Pro 6.5.1 by @fontawesome - https://fontawesome.com License - https://fontawesome.com/license (Commercial License) Copyright 2023 Fonticons, Inc. --><path d="M376 0h-8V16h8 92.7l-97.2 97.2C342.3 82.9 301.4 64 256 64C167.6 64 96 135.6 96 224c0 85.7 67.4 155.6 152 159.8V432H200h-8v16h8 48v56 8h16v-8V448h48 8V432h-8H264V383.8c84.6-4.2 152-74.1 152-159.8c0-37.2-12.7-71.5-34-98.7l98-98V120v8h16v-8V8 0h-8H376zM256 80a144 144 0 1 1 0 288 144 144 0 1 1 0-288z"/></svg>