<svg xmlns="http://www.w3.org/2000/svg" viewBox="0 0 576 512"><!--! Font Awesome Pro 6.5.1 by @fontawesome - https://fontawesome.com License - https://fontawesome.com/license (Commercial License) Copyright 2023 Fonticons, Inc. --><path d="M432 272c70.7 0 128-57.3 128-128s-57.3-128-128-128c-55.2 0-102.3 35-120.2 84H294.8C313.4 42 367.8 0 432 0c79.5 0 144 64.5 144 144s-64.5 144-144 144c-32.1 0-61.7-10.5-85.6-28.2l11.5-11.5C378.8 263.2 404.4 272 432 272zM0 144V128H16 400h16v16L219.3 340.7 216 344V496h96 8v16h-8H208 104 96V496h8 96V344l-3.3-3.3L0 144zm393.4 0H22.6l184 184h2.7l184-184z"/></svg>