<svg xmlns="http://www.w3.org/2000/svg" viewBox="0 0 640 512"><!--! Font Awesome Pro 6.5.1 by @fontawesome - https://fontawesome.com License - https://fontawesome.com/license (Commercial License) Copyright 2023 Fonticons, Inc. --><path d="M187.2 144l4-2.7 87.9-58.6c2.6-1.8 5.7-2.7 8.9-2.7h64c3.2 0 6.2 .9 8.9 2.7l87.9 58.6 4 2.7h4.8H512h16v16 64c0 51-18.4 97.8-48.9 134l-.8 .2 .1 .6C440.3 403.6 383.5 432 320 432s-120.3-28.4-158.4-73.2l.1-.6-.8-.2C130.4 321.8 112 275 112 224V160 144h16 8 46.3 4.8zm-4.8-16H136h-8H112 96 8 0v8V328v6.2l6.1 1.5 144 36 2 .5C193.1 418.7 253.1 448 320 448s126.9-29.3 167.9-75.7l2-.5 144-36 6.1-1.5V328 136v-8h-8H544 528 512 457.7L369.8 69.4C364.5 65.9 358.3 64 352 64H288c-6.3 0-12.5 1.9-17.8 5.4L182.3 128zM16 144H96v16 64c0 47.5 14.8 91.5 40 127.7l-120-30V144zM624 321.8l-120 30c25.2-36.2 40-80.3 40-127.7V160 144h80V321.8zM208 192h-8v16h8H432h8V192h-8H208zm-8 64v16h8H432h8V256h-8H208h-8zm40 64h-8v16h8H400h8V320h-8H240z"/></svg>