<svg xmlns="http://www.w3.org/2000/svg" viewBox="0 0 640 512"><!--! Font Awesome Pro 6.5.1 by @fontawesome - https://fontawesome.com License - https://fontawesome.com/license (Commercial License) Copyright 2023 Fonticons, Inc. --><path d="M144 300.8c0-49.1 23.3-119.3 61-173.9L264 48H376l58.6 78.9C472.5 181.6 496 251.8 496 300.8c0 64.2-40.2 120-98.6 146.6c16.5-18.5 26.6-43 26.6-70.1c0-23.6-8.5-53.1-20.7-80.4c-12.2-27.4-28.7-53.7-45.6-70.6l-2.3-2.3H352 288h-3.3l-2.3 2.3c-16.9 16.9-33.4 43.2-45.6 70.6c-12.2 27.3-20.7 56.8-20.7 80.4c0 27 10 51.7 26.7 70.3C183.6 421 144 364.8 144 300.8zM272 452c-24.2-15.8-40-43.3-40-74.6c0-20.4 7.5-47.5 19.3-73.9c11.2-25 25.7-48.3 40.1-63.4h57.2c14.4 15.2 28.9 38.5 40.1 63.4C400.5 329.8 408 357 408 377.3c0 31.4-16 58.7-40 74.5v22.5c56.6-13.6 103.4-50.8 127.2-100l139-38.6 5.9-1.6V328 136v-8h-8H456c-.5 0-.9 0-1.4 .1c-2.3-3.6-4.6-7.1-7-10.5L384 32H256l-64 85.6c-2.4 3.4-4.7 6.9-7 10.5c-.3 0-.7-.1-1-.1H8 0v8V328v6.1l5.9 1.6 138.8 38.6c23.5 49.2 70.1 86.6 127.3 100.2V452zM624 321.9L502.9 355.6c5.9-17.2 9.1-35.6 9.1-54.8c0-45.1-18.1-105-47.8-156.8H624V321.9zM16 144H175.4C145.9 195.8 128 255.7 128 300.8c0 19.1 3.2 37.5 9 54.7L16 321.9V144zM296 320h-8v8V504v8h16v-8V336h32V504v8h16v-8V328v-8h-8H296z"/></svg>