<svg xmlns="http://www.w3.org/2000/svg" viewBox="0 0 576 512"><!--! Font Awesome Pro 6.5.1 by @fontawesome - https://fontawesome.com License - https://fontawesome.com/license (Commercial License) Copyright 2023 Fonticons, Inc. --><path d="M576 32H560 512 496V48 72 367.3c0 35.7-28.9 64.7-64.7 64.7c-31.2 0-58-22.3-63.6-53.1l-.4-2.1-4.3-23.6-2.9-15.7-15.7 2.9-47.2 8.6-15.7 2.9 2.9 15.7 4.3 23.6 .4 2.1C301.5 462 361.4 512 431.3 512C511.2 512 576 447.2 576 367.3V72 48 32zM512 72V48h48V72v72H512V72zm0 88h48v32H512V160zm0 207.3V208h48V367.3C560 438.4 502.4 496 431.3 496c-62.2 0-115.5-44.5-126.6-105.6l-.4-2.1-4.3-23.6 47.2-8.6 4.3 23.6 .4 2.1c7 38.4 40.4 66.2 79.4 66.2c44.5 0 80.7-36.1 80.7-80.7zM256 288H432h16V272 80 64H432 16 0V80 272v16H16 192l18.3-64h27.4L256 288zm-61.1-68.4l-15 52.4H16V80H432V272H268.1l-15-52.4L249.8 208H237.7 210.3 198.2l-3.3 11.6z"/></svg>