<svg xmlns="http://www.w3.org/2000/svg" viewBox="0 0 512 512"><!--! Font Awesome Pro 6.5.1 by @fontawesome - https://fontawesome.com License - https://fontawesome.com/license (Commercial License) Copyright 2023 Fonticons, Inc. --><path d="M193.4 56L56 193.4l-8-8V48H185.4l8 8zM192 32H48 32V48 192l12.7 12.7L56 216l11.3-11.3 63-63L244.7 256 130.3 370.3l-63-63L56 296 44.7 307.3 32 320V464v16H48 192l12.7-12.7L216 456l-11.3-11.3-63-63L256 267.3 370.3 381.7l-63 63L296 456l11.3 11.3L320 480H464h16V464 320l-12.7-12.7L456 296l-11.3 11.3-63 63L267.3 256 381.7 141.7l63 63L456 216l11.3-11.3L480 192V48 32H464 320L307.3 44.7 296 56l11.3 11.3 63 63L256 244.7 141.7 130.3l63-63L216 56 204.7 44.7 192 32zm-6.6 432H48V326.6l8-8L193.4 456l-8 8zm141.3 0l-8-8L456 318.6l8 8V464H326.6zm0-416H464V185.4l-8 8L318.6 56l8-8z"/></svg>