<svg xmlns="http://www.w3.org/2000/svg" viewBox="0 0 576 512"><!--! Font Awesome Pro 6.5.1 by @fontawesome - https://fontawesome.com License - https://fontawesome.com/license (Commercial License) Copyright 2023 Fonticons, Inc. --><path d="M528 48h32V464H528V48zM512 32V48 464v16h16 32 16V464 48 32H560 528 512zM480 65.8L16 181.8V168v-8H0v8 17.8V192 320v6.2V344v8H16v-8V330.2l145.6 36.4c-1 5.6-1.6 11.4-1.6 17.4c0 53 43 96 96 96c42.9 0 79.1-28.1 91.5-66.8l-1.7-.5L480 446.2V429.8L16 313.8V198.2l464-116V65.8zM176 384c0-4.6 .4-9.1 1.1-13.5l154.8 38.7C321.4 441 291.4 464 256 464c-44.2 0-80-35.8-80-80zm80-96l-.4 0h.7l-.4 0z"/></svg>