<svg xmlns="http://www.w3.org/2000/svg" viewBox="0 0 576 512"><!--! Font Awesome Pro 6.5.1 by @fontawesome - https://fontawesome.com License - https://fontawesome.com/license (Commercial License) Copyright 2023 Fonticons, Inc. --><path d="M368 16H16V496H311.2c6.1 5.8 12.7 11.1 19.6 16H16 0V496 16 0H16 368h16V16 198.6c-5.4 1.5-10.8 3.3-16 5.4V16zM64 128h8H312h8v16h-8H72 64V128zm8 96H280h8v16h-8H72 64V224h8zm0 96H216h8v16h-8H72 64V320h8zm488 48a128 128 0 1 0 -256 0 128 128 0 1 0 256 0zm-272 0a144 144 0 1 1 288 0 144 144 0 1 1 -288 0zm156-76v24H420V292h24zM408 456V440h8 8V360h-8-8V344h8 16 8v8 88h8 8v16h-8-8H424h-8-8z"/></svg>