<svg xmlns="http://www.w3.org/2000/svg" viewBox="0 0 576 512"><!--! Font Awesome Pro 6.5.1 by @fontawesome - https://fontawesome.com License - https://fontawesome.com/license (Commercial License) Copyright 2023 Fonticons, Inc. --><path d="M0 64V80v66.7c18.6 6.6 32 24.4 32 45.3s-13.4 38.7-32 45.3V432v16H16 96h16H224h16 96 16H464h16 80 16V432 237.3c-18.6-6.6-32-24.4-32-45.3s13.4-38.7 32-45.3V80 64H560 16 0zM112 400v-8H96v8 32H16V336H560v96H480V400v-8H464v8 32H352V400v-8H336v8 32H240V400v-8H224v8 32H112V400zM48 192c0-23.7-12.9-44.4-32-55.4V80H560v56.6c-19.1 11.1-32 31.7-32 55.4s12.9 44.4 32 55.4V320H16V247.4c19.1-11.1 32-31.7 32-55.4zm144-64H176 144 128v16 16 64 16 16h16 32 16V240 224 160 144 128zm-48 32V144h32v16 64 16H144V224 160zm176-32H304 272 256v16 16 64 16 16h16 32 16V240 224 160 144 128zm-48 32V144h32v16 64 16H272V224 160zm176-32H432 400 384v16 16 64 16 16h16 32 16V240 224 160 144 128zm-48 32V144h32v16 64 16H400V224 160z"/></svg>