<svg xmlns="http://www.w3.org/2000/svg" viewBox="0 0 640 512"><!--! Font Awesome Pro 6.5.1 by @fontawesome - https://fontawesome.com License - https://fontawesome.com/license (Commercial License) Copyright 2023 Fonticons, Inc. --><path d="M251.8 48.7c2.7 4.8 4.2 10.2 4.2 15.7C256 81.8 241.8 96 224.4 96h-.8C206.2 96 192 81.8 192 64.4c0-5.5 1.4-10.9 4.2-15.7l18.6-32.6L224 0l9.2 16.1 18.6 32.6zm-41.8 7.9c-1.3 2.4-2.1 5-2.1 7.7C208 73 215 80 223.6 80h.8C233 80 240 73 240 64.4c0-2.7-.7-5.4-2.1-7.7L224 32.2 210.1 56.7l-13.9-7.9 13.9 7.9zm233.8-7.9c2.7 4.8 4.2 10.2 4.2 15.7C448 81.8 433.8 96 416.4 96h-.8C398.2 96 384 81.8 384 64.4c0-5.5 1.4-10.9 4.2-15.7l18.6-32.6L416 0l9.2 16.1 18.6 32.6zM416 32.2L402.1 56.7c-1.4 2.4-2.1 5-2.1 7.7C400 73 407 80 415.6 80h.8C425 80 432 73 432 64.4c0-2.7-.7-5.4-2.1-7.7L416 32.2zm-384 0L18.1 56.7c-1.3 2.4-2.1 5-2.1 7.7C16 73 23 80 31.6 80h.8C41 80 48 73 48 64.4c0-2.7-.7-5.4-2.1-7.7L32 32.2zM22.8 16.1L32 0l9.2 16.1L59.8 48.7C62.6 53.5 64 58.9 64 64.4C64 81.8 49.8 96 32.4 96h-.8C14.2 96 0 81.8 0 64.4c0-5.5 1.4-10.9 4.2-15.7L22.8 16.1zM128 32.2L114.1 56.7c-1.3 2.4-2.1 5-2.1 7.7C112 73 119 80 127.6 80h.8C137 80 144 73 144 64.4c0-2.7-.7-5.4-2.1-7.7L128 32.2zm-9.2-16.1L128 0l9.2 16.1 18.6 32.6c2.7 4.8 4.2 10.2 4.2 15.7C160 81.8 145.8 96 128.4 96h-.8C110.2 96 96 81.8 96 64.4c0-5.5 1.4-10.9 4.2-15.7l18.6-32.6zm192 0L320 0l9.2 16.1 18.6 32.6c2.7 4.8 4.2 10.2 4.2 15.7C352 81.8 337.8 96 320.4 96h-.8C302.2 96 288 81.8 288 64.4c0-5.5 1.4-10.9 4.2-15.7l18.6-32.6zM320 32.2L306.1 56.7c-1.3 2.4-2.1 5-2.1 7.7C304 73 311 80 319.6 80h.8C329 80 336 73 336 64.4c0-2.7-.7-5.4-2.1-7.7L320 32.2zm192 0L498.1 56.7c-1.4 2.4-2.1 5-2.1 7.7C496 73 503 80 511.6 80h.8C521 80 528 73 528 64.4c0-2.7-.7-5.4-2.1-7.7L512 32.2zm-9.2-16.1L512 0l9.2 16.1 18.6 32.6c2.7 4.8 4.2 10.2 4.2 15.7C544 81.8 529.8 96 512.4 96h-.8C494.2 96 480 81.8 480 64.4c0-5.5 1.4-10.9 4.2-15.7l18.6-32.6zM608 32.2L594.1 56.7c-1.3 2.4-2.1 5-2.1 7.7C592 73 599 80 607.6 80h.8C617 80 624 73 624 64.4c0-2.7-.7-5.4-2.1-7.7L608 32.2zm-9.2-16.1L608 0l9.2 16.1 18.6 32.6c2.7 4.8 4.2 10.2 4.2 15.7C640 81.8 625.8 96 608.4 96h-.8C590.2 96 576 81.8 576 64.4c0-5.5 1.4-10.9 4.2-15.7l18.6-32.6zM40 128v8l0 176c0 30.9 25.1 56 56 56h24V136v-8h16v8V368h80V136v-8h16v8V368h80l0-232v-8h16v8l0 232h80V136v-8h16v8V368h80V136v-8h16v8V368h24c30.9 0 56-25.1 56-56l0-176v-8h16v8l0 176c0 39.8-32.2 72-72 72H328V496H504h8v16h-8H320 136h-8V496h8H312V384H96c-39.8 0-72-32.2-72-72l0-176 0-8H40z"/></svg>