<svg xmlns="http://www.w3.org/2000/svg" viewBox="0 0 384 512"><!--! Font Awesome Pro 6.5.1 by @fontawesome - https://fontawesome.com License - https://fontawesome.com/license (Commercial License) Copyright 2023 Fonticons, Inc. --><path d="M309.5 0l-3.4-3.3L302.9 0h-.1C275.1 29.5 235.7 48 192 48S108.9 29.5 81.1 0h-.1L77.8-3.3 74.5 0H60.1c2.1 2.7 4.3 5.2 6.5 7.8l-.1 .1L72 13.6c3.2 3.3 6.5 6.4 10 9.4c.7 .6 1.3 1.1 2 1.7c16.3 13.7 35.3 24.4 56 31.1C68.2 78 16 144.9 16 224c0 94.5 74.5 171.6 168 175.8V448H128h-8v16h8 56v40 8h16v-8V464h56 8V448h-8H200V399.8c93.5-4.2 168-81.3 168-175.8c0-79.1-52.2-146-124-168.2c17.1-5.6 33-13.8 47.2-24.2c2-1.5 4-3 6-4.6c5.2-4.2 10.2-8.7 14.9-13.5l5.6-5.7-.1-.1c2.2-2.5 4.4-5.1 6.5-7.8H309.5zM191.9 384C103.6 383.9 32 312.3 32 224c0-88.4 71.6-160 160-160s160 71.6 160 160c0 88.3-71.6 159.9-159.9 160l-.1 0-.1 0z"/></svg>