<svg xmlns="http://www.w3.org/2000/svg" viewBox="0 0 512 512"><!--! Font Awesome Pro 6.5.1 by @fontawesome - https://fontawesome.com License - https://fontawesome.com/license (Commercial License) Copyright 2023 Fonticons, Inc. --><path d="M160 416H144 16 0V400 16 0H16 496h16V16 400v16H496 304L176 501.3 160 512V492.8 432 416zm0-16h16v16 66.1l119.1-79.4 4-2.7H304 496V16H16V400H160zm8-264c0-30.9 25.1-56 56-56h56.2c35.2 0 63.8 28.6 63.8 63.8c0 21.4-10.8 41.5-28.7 53.3L264 230.9V256v8H248v-8V226.5v-4.3l3.6-2.4 54.9-36.2c13.4-8.8 21.5-23.8 21.5-39.9c0-26.4-21.4-47.8-47.8-47.8H224c-22.1 0-40 17.9-40 40l0 6.5-16 0V136zm72 152h32v32H240V288z"/></svg>