<svg xmlns="http://www.w3.org/2000/svg" viewBox="0 0 512 512"><!--! Font Awesome Pro 6.5.1 by @fontawesome - https://fontawesome.com License - https://fontawesome.com/license (Commercial License) Copyright 2023 Fonticons, Inc. --><path d="M160 416H144 16 0V400 16 0H16 496h16V16 400v16H496 304L176 501.3 160 512V492.8 432 416zm0-16h16v16 66.1l119.1-79.4 4-2.7H304 496V16H16V400H160zM224 88h64 8v8 64h64 8v8 64 8h-8H296v64 8h-8H224h-8v-8V240H152h-8v-8V168v-8h8 64V96 88h8zm8 80v8h-8H160v48h64 8v8 64h48V232v-8h8 64V176H288h-8v-8V104H232v64z"/></svg>