<svg xmlns="http://www.w3.org/2000/svg" viewBox="0 0 512 512"><!--! Font Awesome Pro 6.5.1 by @fontawesome - https://fontawesome.com License - https://fontawesome.com/license (Commercial License) Copyright 2023 Fonticons, Inc. --><path d="M160 416H144 16 0V400 16 0H16 496h16V16 400v16H496 304L176 501.3 160 512V492.8 432 416zm0-16h16v16 66.1l119.1-79.4 4-2.7H304 496V16H16V400H160zM352 84.5V96 248c0 22.1-21.5 40-48 40s-48-17.9-48-40s21.5-40 48-40c12.3 0 23.5 3.9 32 10.2V107.5l-112 42V280c0 22.1-21.5 40-48 40s-48-17.9-48-40s21.5-40 48-40c12.3 0 23.5 3.9 32 10.2V144v-5.5l5.2-1.9 128-48L352 84.5zM304 224c-20.5 0-32 13.4-32 24s11.5 24 32 24s32-13.4 32-24s-11.5-24-32-24zM176 256c-20.5 0-32 13.4-32 24s11.5 24 32 24s32-13.4 32-24s-11.5-24-32-24z"/></svg>