<svg xmlns="http://www.w3.org/2000/svg" viewBox="0 0 640 512"><!--! Font Awesome Pro 6.5.1 by @fontawesome - https://fontawesome.com License - https://fontawesome.com/license (Commercial License) Copyright 2023 Fonticons, Inc. --><path d="M80 320H96v16 30.1V384l16-8 112-56H400h16V304 16 0H400 16 0V16 304v16H16 80zM16 304V16H400V304H224h-3.8l-3.4 1.7L112 358.1V320 304H96 16zm240 48v80 16h16H416l112 56 16 8V494.1 464 448h16 64 16V432 144 128H624 448v16H624V432H544 528v16 38.1L423.2 433.7l-3.4-1.7H416 272V352H256zM215.1 85.3V78.2H200.9v7.1V97.3c-6.5 .6-12.6 2-17.9 4.4c-10 4.4-17.9 12.2-19.9 23.1c-1.2 6.5-.5 12.4 2 17.6c2.5 5.1 6.4 8.9 10.8 11.8c8.1 5.3 19.1 8.6 28.8 11.4l0 0 1.4 .4c10.8 3.2 19.9 6 26.1 10.4c2.9 2.1 4.8 4.2 5.9 6.6c1 2.3 1.6 5.5 .8 9.9c-1.1 5.9-4.9 10.4-11.6 13.2c-6.9 2.9-16.7 3.8-28 2.1c-5.6-.9-15.3-4.1-22.9-6.6l0 0 0 0c-1.7-.5-3.2-1.1-4.6-1.5l-6.8-2.2-4.4 13.5 6.8 2.2c1.1 .4 2.5 .8 4 1.3l0 0 0 0c7.5 2.5 18.8 6.2 25.7 7.3l0 0c1.3 .2 2.5 .4 3.8 .5v12.1 7.1h14.2v-7.1V223c6.4-.4 12.4-1.7 17.7-3.9c10.3-4.3 18.1-12.2 20.1-23.8c1.2-6.8 .6-12.8-1.8-18.2c-2.4-5.3-6.3-9.3-10.7-12.4c-8.5-6-20.2-9.4-30.3-12.4l-.1 0 0 0c-10.8-3.2-20-5.9-26.3-10c-3-2-4.8-4-5.9-6.1c-1-2.1-1.5-4.8-.8-8.9c.9-4.9 4.6-9.4 11.6-12.5c7-3.1 16.9-4.4 28-2.7c3.6 .6 14.8 2.7 18.3 3.6l3.6-13.8c-4.2-1.1-15.9-3.3-19.7-3.9c-1.3-.2-2.5-.4-3.8-.5V85.3z"/></svg>