<svg xmlns="http://www.w3.org/2000/svg" viewBox="0 0 640 512"><!--! Font Awesome Pro 6.5.1 by @fontawesome - https://fontawesome.com License - https://fontawesome.com/license (Commercial License) Copyright 2023 Fonticons, Inc. --><path d="M96 320H80 16 0V304 16 0H16 400h16V16 304v16H400 224L112 376l-16 8V366.1 336 320zm0-16h16v16 38.1l104.8-52.4 3.4-1.7H224 400V16H16V304H96zM256 432V352h16v80H416h3.8l3.4 1.7L528 486.1V448 432h16 80V144H448V128H624h16v16V432v16H624 560 544v16 30.1V512l-16-8L416 448H272 256V432z"/></svg>