<svg xmlns="http://www.w3.org/2000/svg" viewBox="0 0 512 512"><!--! Font Awesome Pro 6.5.1 by @fontawesome - https://fontawesome.com License - https://fontawesome.com/license (Commercial License) Copyright 2023 Fonticons, Inc. --><path d="M160 432V416H144 16 0V400 16 0H16 496h16V16 400v16H496 304L176 501.3 160 512V492.8 432zm0-32h16v16 66.1l119.1-79.4 4-2.7H304 496V16H16V400H160zM88 128a40 40 0 1 1 80 0 40 40 0 1 1 -80 0zm40 24a24 24 0 1 0 0-48 24 24 0 1 0 0 48zm168.4-28.8l6 8 120 160 1.6 2.1V296v16 8h-8H96 88v-8V296v-3.1l2.1-2.3 72-80 5.6-6.3 6 6 25.9 25.9 90.4-105.4 6.5-7.6zm-.8 25.6L206.1 253.2l-5.6 6.6-6.1-6.1-26-26L104 299.1V304H408v-5.3L295.6 148.8z"/></svg>