<svg xmlns="http://www.w3.org/2000/svg" viewBox="0 0 640 512"><!--! Font Awesome Pro 6.5.1 by @fontawesome - https://fontawesome.com License - https://fontawesome.com/license (Commercial License) Copyright 2023 Fonticons, Inc. --><path d="M208 416h16v16 60.8V512l16-10.7L368 416H528h16V400 200h32v8 16h16 32 16V208 176 160H624 592 576v16 8H544V16 0H528 112 96V16 184H64v-8V160H48 16 0v16 32 16H16 48 64V208v-8H96V400v16h16 96zm-96-16V16H528V400H368h-4.8l-4 2.7L240 482.1V416 400H224 112zM160 96H480V288H160V96zM144 80V96 288v16h16H480h16V288 96 80H480 160 144zm80 136a24 24 0 1 1 0-48 24 24 0 1 1 0 48zm-40-24a40 40 0 1 0 80 0 40 40 0 1 0 -80 0zm256 0a24 24 0 1 1 -48 0 24 24 0 1 1 48 0zm-24-40a40 40 0 1 0 0 80 40 40 0 1 0 0-80zm208 24v32H592V176h32zM16 176H48v32H16V176z"/></svg>