<svg xmlns="http://www.w3.org/2000/svg" viewBox="0 0 512 512"><!--! Font Awesome Pro 6.5.1 by @fontawesome - https://fontawesome.com License - https://fontawesome.com/license (Commercial License) Copyright 2023 Fonticons, Inc. --><path d="M160 416H144 16 0V400 16 0H16 496h16V16 400v16H496 304L176 501.3 160 512V492.8 432 416zm0-16h16v16 66.1l119.1-79.4 4-2.7H304 496V16H16V400H160zm53.7-258.3L147.3 208l66.3 66.3 5.7 5.7L208 291.3l-5.7-5.7-72-72-5.7-5.7 5.7-5.7 72-72 5.7-5.7L219.3 136l-5.7 5.7zm96-11.3l72 72 5.7 5.7-5.7 5.7-72 72-5.7 5.7L292.7 280l5.7-5.7L364.7 208l-66.3-66.3-5.7-5.7L304 124.7l5.7 5.7z"/></svg>