<svg xmlns="http://www.w3.org/2000/svg" viewBox="0 0 512 512"><!--! Font Awesome Pro 6.5.1 by @fontawesome - https://fontawesome.com License - https://fontawesome.com/license (Commercial License) Copyright 2023 Fonticons, Inc. --><path d="M160 416H144 16 0V400 16 0H16 496h16V16 400v16H496 304L176 501.3 160 512V492.8 432 416zm0-16h16v16 66.1l119.1-79.4 4-2.7H304 496V16H16V400H160zM300.5 112.3l.2-.2 40.1 40.1 11.3 11.3-11.3 11.3L220.9 294.7l-44.3 6.9L160 304.1l2.6-16.6 6.9-44.3 131-131zm.2 22.4L279.3 156l28.8 28.8 21.4-21.4-28.8-28.8zM184.5 250.9L179.2 285l34.1-5.3 83.5-83.5L268 167.3l-83.5 83.5z"/></svg>