<svg xmlns="http://www.w3.org/2000/svg" viewBox="0 0 512 512"><!--! Font Awesome Pro 6.5.1 by @fontawesome - https://fontawesome.com License - https://fontawesome.com/license (Commercial License) Copyright 2023 Fonticons, Inc. --><path d="M160 416H144 16 0V400 16 0H16 496h16V16 400v16H496 304L176 501.3 160 512V492.8 432 416zm0-16h16v16 66.1l119.1-79.4 4-2.7H304 496V16H16V400H160zm32-256a16 16 0 1 1 0 32 16 16 0 1 1 0-32zm128 0a16 16 0 1 1 0 32 16 16 0 1 1 0-32zM167.2 244.7l5.3 6C193 273.6 222.8 288 256 288s63-14.4 83.5-37.3l5.3-6 11.9 10.7-5.3 6C328 287.5 293.9 304 256 304s-72-16.5-95.4-42.7l-5.3-6 11.9-10.7z"/></svg>