<svg xmlns="http://www.w3.org/2000/svg" viewBox="0 0 512 512"><!--! Font Awesome Pro 6.5.1 by @fontawesome - https://fontawesome.com License - https://fontawesome.com/license (Commercial License) Copyright 2023 Fonticons, Inc. --><path d="M160 416H144 16 0V400 16 0H16 496h16V16 400v16H496 304L176 501.3 160 512V492.8 432 416zm0-16h16v16 66.1l119.1-79.4 4-2.7H304 496V16H16V400H160zM72 240H312h8v16h-8H72 64V240h8zm304 0h64 8v16h-8H376h-8V240h8zM72 304h96 8v16h-8H72 64V304h8zm160 0H440h8v16h-8H232h-8V304h8z"/></svg>