<svg xmlns="http://www.w3.org/2000/svg" viewBox="0 0 512 512"><!--! Font Awesome Pro 6.5.1 by @fontawesome - https://fontawesome.com License - https://fontawesome.com/license (Commercial License) Copyright 2023 Fonticons, Inc. --><path d="M160 416H144 16 0V400 16 0H16 496h16V16 400v16H496 304L176 501.3 160 512V492.8 432 416zm0-16h16v16 66.1l119.1-79.4 4-2.7H304 496V16H16V400H160zm64-272H144v80h80V176v-8V128zm-80 96H128V208 128 112h16 80 16v16 40 8 32 16 48 5.5l-5.2 1.9-64 24-7.5 2.8-5.6-15 7.5-2.8L224 266.5V224H144zm224-96H288v80h80V176v-8V128zm-80 96H272V208 128 112h16 80 16v16 40 8 32 16 48 5.5l-5.2 1.9-64 24-7.5 2.8-5.6-15 7.5-2.8L368 266.5V224H288z"/></svg>