<svg xmlns="http://www.w3.org/2000/svg" viewBox="0 0 512 512"><!--! Font Awesome Pro 6.5.1 by @fontawesome - https://fontawesome.com License - https://fontawesome.com/license (Commercial License) Copyright 2023 Fonticons, Inc. --><path d="M160 432V416H144 16 0V400 16 0H16 496h16V16 400v16H496 304L176 501.3 160 512V492.8 432zm0-32h16v16 66.1l119.1-79.4 4-2.7H304 496V16H16V400H160zm62.8-244.2L256 208.9l33.2-53.1 2.4-3.8 4.4 0 8 0 8 0v8 96 8H296v-8V175.1l-33.2 53.1L256 239.1l-6.8-10.9L216 175.1V256v8H200v-8V160v-8l8 0 8 0 4.4 0 2.4 3.8zM372.8 152H392h8v16h-8H372.8c-7.1 0-12.8 5.8-12.8 12.8c0 4.3 2.1 8.3 5.7 10.7l29.4 19.6c8 5.3 12.8 14.4 12.8 24c0 15.9-12.9 28.8-28.8 28.8H352h-8V248h8 27.2c7.1 0 12.8-5.8 12.8-12.8c0-4.3-2.1-8.3-5.7-10.7l-29.4-19.6c-8-5.3-12.8-14.4-12.8-24c0-15.9 12.9-28.8 28.8-28.8zM104 180.8c0-15.9 12.9-28.8 28.8-28.8H152h8v16h-8H132.8c-7.1 0-12.8 5.8-12.8 12.8c0 4.3 2.1 8.3 5.7 10.7l29.4 19.6c8 5.3 12.8 14.4 12.8 24c0 15.9-12.9 28.8-28.8 28.8H112h-8V248h8 27.2c7.1 0 12.8-5.8 12.8-12.8c0-4.3-2.1-8.3-5.7-10.7l-29.4-19.6c-8-5.3-12.8-14.4-12.8-24z"/></svg>