<svg xmlns="http://www.w3.org/2000/svg" viewBox="0 0 512 512"><!--! Font Awesome Pro 6.5.1 by @fontawesome - https://fontawesome.com License - https://fontawesome.com/license (Commercial License) Copyright 2023 Fonticons, Inc. --><path d="M160 416H144 16 0V400 16 0H16 496h16V16 400v16H496 304L176 501.3 160 512V492.8 432 416zm0-16h16v16 66.1l119.1-79.4 4-2.7H304 496V16H16V400H160zM264 104V276.7l74.3-74.3 5.7-5.7L355.3 208l-5.7 5.7-88 88-5.7 5.7-5.7-5.7-88-88-5.7-5.7L168 196.7l5.7 5.7L248 276.7V104 96h16v8z"/></svg>