<svg xmlns="http://www.w3.org/2000/svg" viewBox="0 0 640 512"><!--! Font Awesome Pro 6.5.1 by @fontawesome - https://fontawesome.com License - https://fontawesome.com/license (Commercial License) Copyright 2023 Fonticons, Inc. --><path d="M256 496c51.3 0 98.9-16.1 137.9-43.5c2 5.1 4.2 10 6.8 14.8C359.5 495.5 309.7 512 256 512C114.6 512 0 397.4 0 256S114.6 0 256 0C369.8 0 466.3 74.3 499.6 177l-11.5 17.6C461 91.8 367.3 16 256 16C123.5 16 16 123.5 16 256s107.5 240 240 240zM144 144v64h32V144H144zm-16-16h16 32 16v16 64 16H176 144 128V208 144 128zm112 16v64h32V144H240zm0-16h32 16v16 64 16H272 240 224V208 144 128h16zm96 16v64h32V144H336zm-16-16h16 32 16v16 64 16H368 336 320V208 144 128zM447.9 344.3c-10.4 15.9-15.9 34.5-15.9 53.5V400c0 53 43 96 96 96s96-43 96-96v-2.1c0-19-5.5-37.6-15.9-53.5L528 221.3l-80.1 123zm-13.4-8.7l84-128.9L528 192l9.5 14.7 84 128.9c12.1 18.5 18.5 40.2 18.5 62.3V400c0 61.9-50.1 112-112 112s-112-50.1-112-112v-2.1c0-22.1 6.4-43.7 18.5-62.3z"/></svg>