<svg xmlns="http://www.w3.org/2000/svg" viewBox="0 0 640 512"><!--! Font Awesome Pro 6.5.1 by @fontawesome - https://fontawesome.com License - https://fontawesome.com/license (Commercial License) Copyright 2023 Fonticons, Inc. --><path d="M256 16c82.6 0 155.4 41.7 198.6 105.2L493.4 160C455.4 66.2 363.4 0 256 0C114.6 0 0 114.6 0 256S114.6 512 256 512c33.5 0 65.5-6.4 94.8-18.1c-4.3-3.9-8.5-8.1-12.4-12.4C312.7 490.9 284.9 496 256 496C123.5 496 16 388.5 16 256S123.5 16 256 16zM384 144V128H368 336 320v16 64 16h14.1c2.9-4 5.9-7.9 8.9-11.7c1.2-1.4 2.3-2.9 3.5-4.3H336V144h32v40.1c5.3-5.4 10.7-10.5 16-15.3V144zm-240 0h32v64H144V144zm-16-16v16 64 16h16 32 16V208 144 128H176 144 128zm112 16h32v64H240V144zm0-16H224v16 64 16h16 32 16V208 144 128H272 240zm260.7 84.8L448 160.2c-42.7 26.7-128 102.4-128 192c0 88.4 71.6 160 160 160s160-71.6 160-160c0-26.7-19.2-96-96-160l-20.7 20.7L512 224.2l-11.3-11.3zM576 422.6c0-70.4-96-134.4-96-134.4s-96 64-96 134.4c0 18.2 5.8 35.1 15.7 49.2C361.3 445.9 336 402 336 352.2c0-39.7 19-77.6 44.5-109.6c21.3-26.7 46.2-48.2 65.4-61.8l54.7 54.7L512 246.8l11.3-11.3L544.8 214C609.1 272.5 624 332 624 352.2c0 49.8-25.3 93.7-63.7 119.6c9.9-14.1 15.7-31 15.7-49.2zm-96 73.6c-45.2 0-80-34-80-73.6c0-28.5 20-58.2 43.5-82.5c11.4-11.8 22.8-21.5 31.4-28.3c1.8-1.5 3.5-2.8 5.1-3.9c1.5 1.2 3.2 2.5 5.1 3.9c8.6 6.8 20 16.5 31.4 28.3C540 364.4 560 394 560 422.6c0 39.6-34.8 73.6-80 73.6z"/></svg>