<svg xmlns="http://www.w3.org/2000/svg" viewBox="0 0 512 512"><!--! Font Awesome Pro 6.5.1 by @fontawesome - https://fontawesome.com License - https://fontawesome.com/license (Commercial License) Copyright 2023 Fonticons, Inc. --><path d="M496 256A240 240 0 1 0 16 256a240 240 0 1 0 480 0zM0 256a256 256 0 1 1 512 0A256 256 0 1 1 0 256zM144 144v64h32V144H144zm-16-16h16 32 16v16 64 16H176 144 128V208 144 128zm112 16v64h32V144H240zm0-16h32 16v16 64 16H272 240 224V208 144 128h16zm96 16v64h32V144H336zm-16-16h16 32 16v16 64 16H368 336 320V208 144 128z"/></svg>