<svg xmlns="http://www.w3.org/2000/svg" viewBox="0 0 640 512"><!--! Font Awesome Pro 6.5.1 by @fontawesome - https://fontawesome.com License - https://fontawesome.com/license (Commercial License) Copyright 2023 Fonticons, Inc. --><path d="M496 256l0 1.7 15.8-12.2C506.3 109 393.9 0 256 0C114.6 0 0 114.6 0 256S114.6 512 256 512c80.2 0 151.7-36.8 198.6-94.5l.4-1.5H434.9c-43.9 49.1-107.8 80-178.9 80C123.5 496 16 388.5 16 256S123.5 16 256 16s240 107.5 240 240zM144 144h32v64H144V144zm-16-16v16 64 16h16 32 16V208 144 128H176 144 128zm112 16h32v64H240V144zm0-16H224v16 64 16h16 32 16V208 144 128H272 240zm96 16h32v64H336V144zm-16-16v16 64 16h16 32 16V208 144 128H368 336 320zM470.3 486.9L464 512l20.4-15.8L640 376v-8V352H624 576.5 560l4-16 21.7-86.9L592 224l-20.4 15.8L416 360v8 16h16 47.5H496l-4 16-21.7 86.9zM496 368H432v-.1l133.3-103-20.8 83.3-5 19.9H560h64v.1l-133.3 103 20.8-83.3 5-19.9H496z"/></svg>