<svg xmlns="http://www.w3.org/2000/svg" viewBox="0 0 384 512"><!--! Font Awesome Pro 6.5.1 by @fontawesome - https://fontawesome.com License - https://fontawesome.com/license (Commercial License) Copyright 2023 Fonticons, Inc. --><path d="M272 16H112V256c0 44.2 35.8 80 80 80s80-35.8 80-80H200h-8V240h8 72V192H200h-8V176h8 72V128H200h-8V112h8 72V16zm16 96v16 48 16 48 16c0 53-43 96-96 96s-96-43-96-96V16 0h16H272h16V16v96zM48 192v8 56c0 79.5 64.5 144 144 144s144-64.5 144-144V200v-8h16v8 56c0 85.7-67.4 155.6-152 159.8V496h80 8v16h-8H192 104 96V496h8 80V415.8C99.4 411.6 32 341.7 32 256V200v-8H48z"/></svg>