<svg xmlns="http://www.w3.org/2000/svg" viewBox="0 0 512 512"><!--! Font Awesome Pro 6.5.1 by @fontawesome - https://fontawesome.com License - https://fontawesome.com/license (Commercial License) Copyright 2023 Fonticons, Inc. --><path d="M168 8V0H152V8 64H80 64V80v72H8 0v16H8 64v80H8 0v16H8 64v80H8 0v16H8 64v72 16H80h72v56 8h16v-8V448h80v56 8h16v-8V448h80v56 8h16v-8V448h72 16V432 360h56 8V344h-8H448V264h56 8V248h-8H448V168h56 8V152h-8H448V80 64H432 360V8 0H344V8 64H264V8 0H248V8 64H168V8zm80 72h16 80 16 72v72 16 80 16 80 16 72H360 344 264 248 168 152 80V360 344 264 248 168 152 80h72 16 80zm120 64V368H144V144H368zM144 128H128v16V368v16h16H368h16V368 144 128H368 144z"/></svg>