<svg xmlns="http://www.w3.org/2000/svg" viewBox="0 0 384 512"><!--! Font Awesome Pro 6.5.1 by @fontawesome - https://fontawesome.com License - https://fontawesome.com/license (Commercial License) Copyright 2023 Fonticons, Inc. --><path d="M112 16H272V256c0 44.2-35.8 80-80 80s-80-35.8-80-80V16zM96 0V16 256c0 53 43 96 96 96s96-43 96-96V16 0H272 112 96zM48 200v-8H32v8 56c0 85.7 67.4 155.6 152 159.8V496H104 96v16h8 88 88 8V496h-8H200V415.8c84.6-4.2 152-74.1 152-159.8V200v-8H336v8 56c0 79.5-64.5 144-144 144s-144-64.5-144-144V200z"/></svg>