<svg xmlns="http://www.w3.org/2000/svg" viewBox="0 0 640 512"><!--! Font Awesome Pro 6.5.1 by @fontawesome - https://fontawesome.com License - https://fontawesome.com/license (Commercial License) Copyright 2023 Fonticons, Inc. --><path d="M387.6 401.1l-14.3-11.3C356.8 396.4 338.8 400 320 400c-79.5 0-144-64.5-144-144V234l-16-12.6V256c0 85.7 67.4 155.6 152 159.8V496H232h-8v16h8 88 88 8V496h-8H328V415.8c21.2-1 41.3-6.2 59.6-14.7zM240 101.1V16H400v96H328h-8v16h8 72v48H334.9l20.3 16H400v35.4l16 12.6V240 192 176 128 112 16 0H400 240 224V16 88.5l16 12.6zM476.8 288c2.1-10.4 3.2-21.1 3.2-32V200v-8H464v8 56c0 7.1-.5 14-1.5 20.8L476.8 288zM16.2 5L9.9 0 0 12.5l6.3 5L623.8 507l6.3 5 9.9-12.5-6.3-5L16.2 5z"/></svg>