<svg xmlns="http://www.w3.org/2000/svg" viewBox="0 0 512 512"><!--! Font Awesome Pro 6.5.1 by @fontawesome - https://fontawesome.com License - https://fontawesome.com/license (Commercial License) Copyright 2023 Fonticons, Inc. --><path d="M168 0h-8V8 32H136h-8v8V312v8h8H280h8v-8V144c97.2 0 176 78.8 176 176s-78.8 176-176 176H208 8 0v16H8 208h80H504h8V496h-8H364.9C432.6 466.4 480 398.7 480 320c0-106-86-192-192-192V40 32h-8H256V8 0h-8H168zM272 128v16V304H144V48h24 8V40 16h64V40v8h8 24v80zM160 352v16h8 80 8V352h-8H168h-8zM96 416v16h8H312h8V416h-8H104 96z"/></svg>