<svg xmlns="http://www.w3.org/2000/svg" viewBox="0 0 512 512"><!--! Font Awesome Pro 6.5.1 by @fontawesome - https://fontawesome.com License - https://fontawesome.com/license (Commercial License) Copyright 2023 Fonticons, Inc. --><path d="M21.7 10.3L16 4.7 4.7 16l5.7 5.7 112 112 0 0-63 63L48 208l11.3 11.3L64 224H208h16V208 64l-4.7-4.7L208 48 196.7 59.3l-63 63 0 0-112-112zm480 11.3l5.7-5.7L496 4.7l-5.7 5.7-112 112 0 0-63-63L304 48 292.7 59.3 288 64V208v16h16H448l4.7-4.7L464 208l-11.3-11.3-63-63 0 0 112-112zm-368 368l63 63L208 464l11.3-11.3L224 448V304 288H208 64l-4.7 4.7L48 304l11.3 11.3 63 63-112 112L4.7 496 16 507.3l5.7-5.7 112-112zm244.7 0l112 112 5.7 5.7L507.3 496l-5.7-5.7-112-112 63-63L464 304l-11.3-11.3L448 288H304 288v16V448l4.7 4.7L304 464l11.3-11.3 63-63zM208 70.6V208H70.6L208 70.6zm0 370.7L70.6 304H208V441.4zM441.4 304L304 441.4V304H441.4zM304 70.6L441.4 208H304V70.6z"/></svg>