<svg xmlns="http://www.w3.org/2000/svg" viewBox="0 0 448 512"><!--! Font Awesome Pro 6.5.1 by @fontawesome - https://fontawesome.com License - https://fontawesome.com/license (Commercial License) Copyright 2023 Fonticons, Inc. --><path d="M0 136C0 60.9 60.9 0 136 0h16.3c60.3 0 113.3 39.7 130.4 97.5l33.3 112.8 21.3-30.8 4.7-6.8 6.6 4.9 92.8 68.8 6.2 4.6-4.4 6.4L367.6 368H348.2l77.6-113.4-80-59.3-26.1 37.8-9.5 13.7-4.7-16L267.4 102c-15.1-51-61.9-86-115.1-86H136C69.7 16 16 69.7 16 136v8.2c0 9.8 1.2 19.6 3.6 29.1L68.2 368H51.8L4.1 177.2C1.4 166.4 0 155.4 0 144.2V136zM48 416v80H368V416H48zM32 400H48 368h16v16 80 16H368 48 32V496 416 400z"/></svg>