<svg xmlns="http://www.w3.org/2000/svg" viewBox="0 0 320 512"><!--! Font Awesome Pro 6.5.1 by @fontawesome - https://fontawesome.com License - https://fontawesome.com/license (Commercial License) Copyright 2023 Fonticons, Inc. --><path d="M288 16V496H32V16H288zM32 0H16V16 496v16H32 288h16V496 16 0H288 32zM240 144v96H80V144H240zM80 128H64v16 96 16H80 240h16V240 144 128H240 80zm24-64H96V80h8H216h8V64h-8H104zM72 320H88v16H72V320zm0-16H56v16 16 16H72 88h16V336 320 304H88 72zm0 112V400H88v16H72zM56 384v16 16 16H72 88h16V416 400 384H88 72 56zm112-64v16H152V320h16zm-16-16H136v16 16 16h16 16 16V336 320 304H168 152zm0 96h16v16H152V400zm-16-16v16 16 16h16 16 16V416 400 384H168 152 136zm96-64h16v16H232V320zm0-16H216v16 16 16h16 16 16V336 320 304H248 232zm0 112V400h16v16H232zm-16-32v16 16 16h16 16 16V416 400 384H248 232 216z"/></svg>