<svg xmlns="http://www.w3.org/2000/svg" viewBox="0 0 512 512"><!--! Font Awesome Pro 6.5.1 by @fontawesome - https://fontawesome.com License - https://fontawesome.com/license (Commercial License) Copyright 2023 Fonticons, Inc. --><path d="M48 16H336V284c5.2-4 10.5-7.9 16-11.5V16 0H336 48 32V16 496v16H48 224c0-5.4 .1-10.7 .4-16H48V16zm96 416h-8v16h8 87.1c1.2-5.4 2.6-10.7 4.1-16H144zM512 272V256c-141.4 0-256 114.6-256 256h16c0-132.5 107.5-240 240-240zM496 480a16 16 0 1 1 -32 0 16 16 0 1 1 32 0zm-48 0a32 32 0 1 0 64 0 32 32 0 1 0 -64 0zm-80 32c0-79.5 64.5-144 144-144V352c-88.4 0-160 71.6-160 160h16z"/></svg>