<svg xmlns="http://www.w3.org/2000/svg" viewBox="0 0 512 512"><!--! Font Awesome Pro 6.5.1 by @fontawesome - https://fontawesome.com License - https://fontawesome.com/license (Commercial License) Copyright 2023 Fonticons, Inc. --><path d="M48 16H224V0H48 32V16 496v16H48 336h16V496 288H336V496H48V16zm96 416h-8v16h8 96 8V432h-8H144zM256 16c132.5 0 240 107.5 240 240h16C512 114.6 397.4 0 256 0V16zm16 208a16 16 0 1 1 32 0 16 16 0 1 1 -32 0zm48 0a32 32 0 1 0 -64 0 32 32 0 1 0 64 0zm80 32h16c0-88.4-71.6-160-160-160v16c79.5 0 144 64.5 144 144z"/></svg>