<svg xmlns="http://www.w3.org/2000/svg" viewBox="0 0 640 512"><!--! Font Awesome Pro 6.5.1 by @fontawesome - https://fontawesome.com License - https://fontawesome.com/license (Commercial License) Copyright 2023 Fonticons, Inc. --><path d="M560 80H16V432H328.9l-2.3 16H16 0V432 80 64H16 560h16V80v92.4L564.4 184l0 0-4.4 4.4V80zM384 304v16H96V304H384zM96 208H480v16H96V208zm466.9 15.9l11.3 11.3 54.5 54.5L640 300.9l-11.3 11.3L443.3 497.6l-74.7 11.6L352 511.9l2.6-16.6 11.6-74.7L562.9 223.9zM381.2 428.2l-10 64.5 64.5-10L573.5 344.8 519 290.4 381.2 428.2zM617.4 300.9l-54.5-54.5L530.4 279l54.5 54.5 32.5-32.5z"/></svg>