<svg xmlns="http://www.w3.org/2000/svg" viewBox="0 0 640 512"><!--! Font Awesome Pro 6.5.1 by @fontawesome - https://fontawesome.com License - https://fontawesome.com/license (Commercial License) Copyright 2023 Fonticons, Inc. --><path d="M624 48V368H112V48H624zM112 32H96V48 368v16h16H624h16V368 48 32H624 112zM64 128H16 0v16V464v16H16 528h16V464 416H528v48H16V144H64V128zm224 80a80 80 0 1 1 160 0 80 80 0 1 1 -160 0zm176 0a96 96 0 1 0 -192 0 96 96 0 1 0 192 0zm136-48V144h-8-8c-30.9 0-56-25.1-56-56V80 72H512v8 8c0 39.8 32.2 72 72 72h8 8zm-456 0h8c39.8 0 72-32.2 72-72V80 72H208v8 8c0 30.9-25.1 56-56 56h-8-8v16h8zm456 96h-8-8c-39.8 0-72 32.2-72 72v8 8h16v-8-8c0-30.9 25.1-56 56-56h8 8V256zm-456 0h-8v16h8 8c30.9 0 56 25.1 56 56v8 8h16v-8-8c0-39.8-32.2-72-72-72h-8z"/></svg>