<svg xmlns="http://www.w3.org/2000/svg" viewBox="0 0 640 512"><!--! Font Awesome Pro 6.5.1 by @fontawesome - https://fontawesome.com License - https://fontawesome.com/license (Commercial License) Copyright 2023 Fonticons, Inc. --><path d="M635.3 72l-5.7 5.7-64 64-11.3-11.3L604.7 80 408 80l-.1 0H48V332.1l-9.9 9.9L32 348.1V80 64H48 556.1l0 0 48.6 0L554.3 13.7 565.7 2.4l64 64 5.7 5.7zM35.3 448l50.3 50.3L74.3 509.7l-64-64L4.7 440l5.7-5.7 64-64 11.3 11.3L35.3 432l48.6 0 0 0H96.6L240 432l.2 0H592V179.9l9.9-9.9 6.1-6.1V432v16H592 96.6 83.9l-48.6 0zM480 408V392c0-39.8 32.2-72 72-72h16 8v16h-8H552c-30.9 0-56 25.1-56 56v16 8H480v-8zM160 96v8 16c0 39.8-32.2 72-72 72H72 64V176h8H88c30.9 0 56-25.1 56-56V104 96h16zM400 256a80 80 0 1 0 -160 0 80 80 0 1 0 160 0zm-176 0a96 96 0 1 1 192 0 96 96 0 1 1 -192 0z"/></svg>