<svg xmlns="http://www.w3.org/2000/svg" viewBox="0 0 576 512"><!--! Font Awesome Pro 6.5.1 by @fontawesome - https://fontawesome.com License - https://fontawesome.com/license (Commercial License) Copyright 2023 Fonticons, Inc. --><path d="M16 441.7V85c93.6 37.2 186.6 13.5 273.8-8.7l2.2-.6c93.8-23.9 181.1-45.6 268-5.5V427c-93.6-37.2-186.6-13.5-273.8 8.7l-2.2 .6c-93.8 23.9-181.1 45.6-268 5.5zm0-374C10.7 65.5 5.3 63 0 60.3V78.1 451.7c96 48.9 192 24.5 288 0c90.7-23.1 181.3-46.2 272-7.5c5.3 2.3 10.7 4.8 16 7.5V433.9 60.3c-96-48.9-192-24.5-288 0c-90.7 23.1-181.3 46.2-272 7.5zM384 256c0-59-40.4-112-96-112s-96 53-96 112s40.4 112 96 112s96-53 96-112zm-96 96c-44.2 0-80-43-80-96s35.8-96 80-96s80 43 80 96s-35.8 96-80 96zM536 160h8V144h-8-8c-30.9 0-56-25.1-56-56V80 72H456v8 8c0 39.8 32.2 72 72 72h8zM32 216h8 8c39.8 0 72-32.2 72-72v-8-8H104v8 8c0 30.9-25.1 56-56 56H40 32v16zm504 80h-8c-39.8 0-72 32.2-72 72v8 8h16v-8-8c0-30.9 25.1-56 56-56h8 8V296h-8zM32 360c0 4.4 3.6 8 8 8h8c30.9 0 56 25.1 56 56v8c0 4.4 3.6 8 8 8s8-3.6 8-8v-8c0-39.8-32.2-72-72-72H40c-4.4 0-8 3.6-8 8zM272 200h-8v16h8 8v80H264h-8v16h8 16 16 16 8V296h-8H296V208v-8h-8H272z"/></svg>