<svg xmlns="http://www.w3.org/2000/svg" viewBox="0 0 640 512"><!--! Font Awesome Pro 6.5.1 by @fontawesome - https://fontawesome.com License - https://fontawesome.com/license (Commercial License) Copyright 2023 Fonticons, Inc. --><path d="M16 80H560V188.4l4.4-4.4 0 0L576 172.4V80 64H560 16 0V80 432v16H16 326.6l2.3-16H16V80zM256 304v16H384V304H256zm224-96H256v16H480V208zM152 152H136v8 16.4c-8.4 .7-16.2 2.6-23 5.7c-12.4 5.6-21.9 15.4-24.2 28.8c-1.4 8.2-.6 15.4 2.4 21.8c3 6.3 7.8 11 13.2 14.7c10 6.8 23.7 10.9 35.9 14.6l1.7 .5c13.4 4 25 7.8 32.9 13.5c3.7 2.7 6.3 5.7 7.7 9c1.4 3.3 2.1 7.6 1.1 13.5c-1.4 8.2-6.5 14.1-15.1 17.8c-5.7 2.5-13 3.8-21.3 3.8h-.5c-4.3 0-8.8-.4-13.6-1.1c-7.1-1.2-19.2-5.3-28.8-8.5l0 0 0 0 0 0c-2.1-.7-4-1.4-5.7-1.9l-7.6-2.5-5.1 15.2 7.6 2.5c1.4 .5 3.1 1 5 1.7l0 0 0 0 0 0c9.4 3.2 23.4 8 32 9.4l0 0c1.8 .3 3.7 .5 5.5 .7l0 16.6v8h16v-8l0-16.1c8.3-.5 16-2.1 22.7-5c12.6-5.4 22.1-15.4 24.5-29.7c1.5-8.5 .7-16-2.1-22.6c-2.9-6.6-7.5-11.6-13-15.5c-10.5-7.6-24.9-12-37.6-15.8l-.3-.1 0 0 0 0c-13.4-4-25-7.5-32.9-12.9c-3.8-2.6-6.3-5.3-7.7-8.3c-1.4-2.9-2.1-6.8-1.1-12.2c1.2-6.8 6.2-12.9 15.1-17c9-4.1 21.4-5.7 35.4-3.5c4.5 .7 18.5 3.4 22.9 4.6l4.1-15.5c-5.2-1.4-19.8-4.2-24.6-4.9c-1.8-.3-3.7-.5-5.5-.7V160v-8zm410.9 71.9L366.2 420.6l-11.6 74.7L352 511.9l16.6-2.6 74.7-11.6L628.7 312.3 640 300.9l-11.3-11.3-54.5-54.5-11.3-11.3zM381.2 428.2L519 290.4l54.5 54.5L435.7 482.6l-64.5 10 10-64.5zM617.4 300.9l-32.5 32.5L530.4 279l32.5-32.5 54.5 54.5z"/></svg>