<svg xmlns="http://www.w3.org/2000/svg" viewBox="0 0 512 512"><!--! Font Awesome Pro 6.5.1 by @fontawesome - https://fontawesome.com License - https://fontawesome.com/license (Commercial License) Copyright 2023 Fonticons, Inc. --><path d="M176 16c16.2 0 31.1 6 42.3 16C231.6 43.7 240 60.9 240 80c-35.3 0-64-28.7-64-64zm112 0c16.2 0 31.1 6 42.3 16C343.6 43.7 352 60.9 352 80c-35.3 0-64-28.7-64-64zm112 0c16.2 0 31 6 42.3 16C455.6 43.7 464 60.9 464 80c-35.3 0-64-28.7-64-64zm64 128c0 19.1-8.4 36.3-21.7 48c-11.3 10-26.1 16-42.3 16c0-35.3 28.7-64 64-64zm-112 0c0 19.1-8.4 36.3-21.7 48c-11.3 10-26.1 16-42.3 16c0-35.3 28.7-64 64-64zm-112 0c0 19.1-8.4 36.3-21.7 48c-11.3 10-26.1 16-42.3 16c0-35.3 28.7-64 64-64zM160 0V16c0 44.2 35.8 80 80 80h16V80c0-44.2-35.8-80-80-80H160zM272 0V16c0 44.2 35.8 80 80 80h16V80c0-44.2-35.8-80-80-80H272zM400 0H384V16c0 44.2 35.8 80 80 80h16V80c0-44.2-35.8-80-80-80zm80 128H464c-44.2 0-80 35.8-80 80v16h16c44.2 0 80-35.8 80-80V128zm-128 0c-44.2 0-80 35.8-80 80v16h16c44.2 0 80-35.8 80-80V128H352zm-96 0H240c-44.2 0-80 35.8-80 80v16h16c44.2 0 80-35.8 80-80V128zM40 32H32V48h8 80 8V32h-8H40zM8 104H0v16H8 152h8V104h-8H8zm24 72v16h8 80 8V176h-8H40 32zm40 96c0 30.9-25.1 56-56 56V272H72zM16 424V344c39.8 0 72-32.2 72-72H424c0 39.8 32.2 72 72 72v80c-39.8 0-72 32.2-72 72H88c0-39.8-32.2-72-72-72zm480-96c-30.9 0-56-25.1-56-56h56v56zM440 496c0-30.9 25.1-56 56-56v56H440zM16 440c30.9 0 56 25.1 56 56H16V440zm192-56a48 48 0 1 1 96 0 48 48 0 1 1 -96 0zm112 0a64 64 0 1 0 -128 0 64 64 0 1 0 128 0zM16 256H0v16V496v16H16 496h16V496 272 256H496 16z"/></svg>