<svg xmlns="http://www.w3.org/2000/svg" viewBox="0 0 576 512"><!--! Font Awesome Pro 6.5.1 by @fontawesome - https://fontawesome.com License - https://fontawesome.com/license (Commercial License) Copyright 2023 Fonticons, Inc. --><path d="M560 80V432H16V80H560zM16 64H0V80 432v16H16 560h16V432 80 64H560 16zM544 184V168h-8-8c-30.9 0-56-25.1-56-56v-8V96H456v8 8c0 39.8 32.2 72 72 72h8 8zM40 184h8c39.8 0 72-32.2 72-72v-8V96H104v8 8c0 30.9-25.1 56-56 56H40 32v16h8zM544 328h-8-8c-39.8 0-72 32.2-72 72v8 8h16v-8-8c0-30.9 25.1-56 56-56h8 8V328zM40 328H32v16h8 8c30.9 0 56 25.1 56 56v8 8h16v-8-8c0-39.8-32.2-72-72-72H40zM288 144a112 112 0 1 1 0 224 112 112 0 1 1 0-224zm0 240a128 128 0 1 0 0-256 128 128 0 1 0 0 256zM272 200h-8v16h8 8v80H264h-8v16h8 16 16 16 8V296h-8H296V208v-8h-8H272z"/></svg>