<svg xmlns="http://www.w3.org/2000/svg" viewBox="0 0 512 512"><!--! Font Awesome Pro 6.5.1 by @fontawesome - https://fontawesome.com License - https://fontawesome.com/license (Commercial License) Copyright 2023 Fonticons, Inc. --><path d="M352 0V16h8 92.7L287.6 181.1 181.2 89.9l-5.3-4.5L170.7 90 42.7 202l10.5 12L176.1 106.6l106.7 91.5 5.6 4.8 5.2-5.2L464 27.3V120v8h16v-8V8 0h-8H360h-8zM496 272v56c-30.9 0-56-25.1-56-56h56zM88 272H424c0 39.8 32.2 72 72 72v80c-39.8 0-72 32.2-72 72H88c0-39.8-32.2-72-72-72V344c39.8 0 72-32.2 72-72zM440 496c0-30.9 25.1-56 56-56v56H440zM16 440c30.9 0 56 25.1 56 56H16V440zM72 272c0 30.9-25.1 56-56 56V272H72zM16 256H0v16V496v16H16 496h16V496 272 256H496 16zM208 384a48 48 0 1 1 96 0 48 48 0 1 1 -96 0zm112 0a64 64 0 1 0 -128 0 64 64 0 1 0 128 0z"/></svg>