<svg xmlns="http://www.w3.org/2000/svg" viewBox="0 0 640 512"><!--! Font Awesome Pro 6.5.1 by @fontawesome - https://fontawesome.com License - https://fontawesome.com/license (Commercial License) Copyright 2023 Fonticons, Inc. --><path d="M0 0H8 632h8V8 152v8H624v-8V16H16V152v8H0v-8V8 0zM512 80v8l0 416v8h-8l-368 0h-8v-8l0-416V80h16v8l0 408 352 0 0-408V80h16zM320 200c-50 0-88 33.5-88 72s38 72 88 72s88-33.5 88-72s-38-72-88-72zm104 72c0 49.9-48 88-104 88s-104-38.1-104-88s48-88 104-88s104 38.1 104 88zm48 120c0 4.4-3.6 8-8 8h-8c-30.9 0-56 25.1-56 56v8c0 4.4-3.6 8-8 8s-8-3.6-8-8v-8c0-39.8 32.2-72 72-72h8c4.4 0 8 3.6 8 8zm-296-8h8c39.8 0 72 32.2 72 72v8c0 4.4-3.6 8-8 8s-8-3.6-8-8v-8c0-30.9-25.1-56-56-56h-8c-4.4 0-8-3.6-8-8s3.6-8 8-8z"/></svg>