<svg xmlns="http://www.w3.org/2000/svg" viewBox="0 0 576 512"><!--! Font Awesome Pro 6.5.1 by @fontawesome - https://fontawesome.com License - https://fontawesome.com/license (Commercial License) Copyright 2023 Fonticons, Inc. --><path d="M16 80V432H560V80H16zM0 64H16 560h16V80 432v16H560 16 0V432 80 64zM536 184h-8c-39.8 0-72-32.2-72-72v-8V96h16v8 8c0 30.9 25.1 56 56 56h8 8v16h-8zM32 184V168h8 8c30.9 0 56-25.1 56-56v-8V96h16v8 8c0 39.8-32.2 72-72 72H40 32zM536 328h8v16h-8-8c-30.9 0-56 25.1-56 56v8 8H456v-8-8c0-39.8 32.2-72 72-72h8zM32 328h8 8c39.8 0 72 32.2 72 72v8 8H104v-8-8c0-30.9-25.1-56-56-56H40 32V328zm336-72a80 80 0 1 0 -160 0 80 80 0 1 0 160 0zm-176 0a96 96 0 1 1 192 0 96 96 0 1 1 -192 0z"/></svg>