<svg xmlns="http://www.w3.org/2000/svg" viewBox="0 0 576 512"><!--! Font Awesome Pro 6.5.1 by @fontawesome - https://fontawesome.com License - https://fontawesome.com/license (Commercial License) Copyright 2023 Fonticons, Inc. --><path d="M560 48V464H16V48H560zM16 32H0V48 464v16H16 560h16V464 48 32H560 16zM279 148.1l-6.5 17L214 318.7l-39.4-59.1-2.4-3.6H168 80V112H496V400H80V272h83.7l45.6 68.4 8.6 12.9 5.5-14.5 57.5-151 39.9 79.7 2.2 4.4H328h80 8V256h-8H332.9l-45.8-91.6L279 148.1zM64 96v16V400v16H80 496h16V400 112 96H496 80 64z"/></svg>