<svg xmlns="http://www.w3.org/2000/svg" viewBox="0 0 576 512"><!--! Font Awesome Pro 6.5.1 by @fontawesome - https://fontawesome.com License - https://fontawesome.com/license (Commercial License) Copyright 2023 Fonticons, Inc. --><path d="M0 0H8 216h8V8 168v8h-8H104 96V160h8H208V16H16V376c0 66.3 53.7 120 120 120h40V398.5c0-81.1 51.7-152.8 128-178.7V167.4c-27.1-3.9-48-27.2-48-55.4c0-30.9 25.1-56 56-56h7c19.4-33.5 55.6-56 97-56s77.7 22.5 97 56h7c30.9 0 56 25.1 56 56c0 28.2-20.9 51.6-48 55.4V240v16H512 320 304V240v-3.2c-67 25.1-112 89.4-112 161.7V496H496V464H440h-7.4l-.6-7.3-.7-8c-3.8-45.6-41.9-80.7-87.7-80.7H328h-8V352h8 15.7c37.1 0 69.9 19.5 88.3 49.1V296v-8h11.5l2.4 2.5 128 136 2.2 2.3V432v72 8H560v-8V435.2l-112-119V448h56 8v8 48 8h-8H136C60.9 512 0 451.1 0 376V8 0zM416 16c-53 0-96 43-96 96v40 16 72H512V168 152 112c0-53-43-96-96-96zM304 151.2V112c0-14.1 2.6-27.6 7.4-40c-21.8 .3-39.4 18.1-39.4 40c0 19.4 13.7 35.5 32 39.2zM560 112c0-21.9-17.6-39.6-39.4-40c4.7 12.4 7.4 25.9 7.4 40v39.2c18.3-3.7 32-19.8 32-39.2zm-192 0a16 16 0 1 1 32 0 16 16 0 1 1 -32 0zm80-16a16 16 0 1 1 0 32 16 16 0 1 1 0-32zm-96 16c0 17.4 11.1 32.2 26.7 37.7l5.3 1.9v5.7V200h64V157.3v-5.7l5.3-1.9c15.5-5.5 26.7-20.3 26.7-37.7c0-22.1-17.9-40-40-40H392c-22.1 0-40 17.9-40 40zm40-56h48c30.9 0 56 25.1 56 56c0 22.3-13.1 41.6-32 50.6V208v8h-8H376h-8v-8V162.6c-18.9-9-32-28.3-32-50.6c0-30.9 25.1-56 56-56z"/></svg>