<svg xmlns="http://www.w3.org/2000/svg" viewBox="0 0 640 512"><!--! Font Awesome Pro 6.5.1 by @fontawesome - https://fontawesome.com License - https://fontawesome.com/license (Commercial License) Copyright 2023 Fonticons, Inc. --><path d="M328 32h-8V48h8 74l59.6 201.1c-34.3 12.8-62.5 38.4-78.6 70.9H272 256V304 208 192H240 128C57.3 192 0 249.3 0 320v48 16H16 64c0 53 43 96 96 96s96-43 96-96H368h4 12c0-70.7 57.3-128 128-128c35.4 0 67.5 14.4 90.7 37.6L614 282.4C587.9 256.2 551.9 240 512 240c-12.1 0-23.9 1.5-35.1 4.3L445.9 139.9l54.5 27.2 1.7 .8H504h16 8v-8V64 56h-8H504h-1.9l-1.7 .8-64 32-4.9 2.4L415.7 37.7 414 32h-6H328zm40.9 336H16V320c0-61.9 50.1-112 112-112H240V320v16h16H376.2c-3.6 10.2-6.1 20.9-7.3 32zm74.7-247.2l-3.8-1.9-4.1-13.7 .8 1.5 7.2-3.6L505.9 72H512v80h-6.1l-62.3-31.2zM240 128v32H112V128H240zM112 112H96v16 32 16h16H240h16V160 128 112H240 112zM80 384H240c0 44.2-35.8 80-80 80s-80-35.8-80-80zm432-80a80 80 0 1 1 0 160 80 80 0 1 1 0-160zm0 176a96 96 0 1 0 0-192 96 96 0 1 0 0 192z"/></svg>