<svg xmlns="http://www.w3.org/2000/svg" viewBox="0 0 512 512"><!--! Font Awesome Pro 6.5.1 by @fontawesome - https://fontawesome.com License - https://fontawesome.com/license (Commercial License) Copyright 2023 Fonticons, Inc. --><path d="M252.3 160L469.5 0l40.6 47.2L397.3 160H374.6L488.3 46.4 467 21.7 279.3 160h-27zM480 256c0 77.1-37.9 139-108.4 170.1c-5 2.2-10.1 4.2-15.5 6.1c3.4 4.3 6.6 8.8 9.5 13.6c9.1 15 15.2 32 17.4 50.2c.7 5.2 1 10.6 1 16H368 144 128c0-5.4 .3-10.8 1-16c2.3-18.2 8.4-35.2 17.4-50.2c2.9-4.7 6-9.3 9.5-13.6c-5.3-1.9-10.5-3.9-15.5-6.1C69.9 395 32 333.1 32 256V224 208H16 8 0V192H8h8H32 48 464h16 16 8 8v16h-8-8H480v16 32zM343.6 442.2l-14-17.5 21.1-7.5C424.6 390.9 464 332 464 256V208H48v48c0 76 39.4 134.9 113.2 161.2l21.1 7.5-14 17.5c-12.1 15.2-20.4 33.6-23.3 53.8H366.9c-2.9-20.2-11.1-38.6-23.3-53.8z"/></svg>