<svg xmlns="http://www.w3.org/2000/svg" viewBox="0 0 640 512"><!--! Font Awesome Pro 6.5.1 by @fontawesome - https://fontawesome.com License - https://fontawesome.com/license (Commercial License) Copyright 2023 Fonticons, Inc. --><path d="M400 2.7l6.4 8.5c19.4 25.8 44.3 46.4 72.9 65.9c18 12.3 37.1 23.8 57.1 35.9l0 0c12 7.3 24.3 14.7 37 22.6c27.2 17.1 42.6 47.3 42.6 79c0 14.8-3.3 28.9-9.2 41.4H588.7c7.2-12.1 11.3-26.3 11.3-41.4c0-26.6-12.9-51.5-35.1-65.4c-12.1-7.6-24.2-14.9-36.1-22.1c-20.3-12.3-40.1-24.3-58.5-36.7C443.9 72.4 419.8 52.9 400 28.9c-19.8 24-43.9 43.4-70.3 61.4c-18.3 12.4-38.1 24.4-58.5 36.7l0 0c-11.9 7.2-24 14.5-36.1 22.1c-22.2 13.9-35.1 38.8-35.1 65.4c0 15.1 4.1 29.3 11.3 41.4H193.2c-5.9-12.6-9.2-26.6-9.2-41.4c0-31.7 15.4-61.9 42.6-79c12.6-7.9 24.9-15.4 37-22.6l0 0 0 0c20-12.1 39.1-23.6 57.1-35.9c28.6-19.4 53.5-40.1 72.9-65.9L400 2.7zM84.6 9.4L105 23.6c34.4 23.9 55 63.2 55 105.1V248v8H144v-8V160H16v16V496H120h8v16h-8H8 0v-8V176 128.8C0 86.8 20.5 47.6 55 23.6L75.4 9.4 80 6.3l4.6 3.2zM144 128.8c0-36.7-18-71.1-48.1-92L80 25.7l-15.9 11C34 57.7 16 92.1 16 128.8V144H144V128.8zM640 288v8V504v8h-8H576 560 528 512 464 448 352 336 288 272 240 224 168h-8v-8V296v-8h8H632h8zM448 416c0-15.1-7.1-29.3-19.2-38.4L400 356l-28.8 21.6C359.1 386.7 352 400.9 352 416v80h96V416zm64 80V400 384h16 32 16v16 96h48V304H176V496h48V400 384h16 32 16v16 96h48V416c0-20.1 9.5-39.1 25.6-51.2L400 336l38.4 28.8C454.5 376.9 464 395.9 464 416v80h48zm16 0h32V400H528v96zm-256 0V400H240v96h32z"/></svg>