<svg xmlns="http://www.w3.org/2000/svg" viewBox="0 0 640 512"><!--! Font Awesome Pro 6.5.1 by @fontawesome - https://fontawesome.com License - https://fontawesome.com/license (Commercial License) Copyright 2023 Fonticons, Inc. --><path d="M376.7 80.8L415 11.9 401 4.1l-40 72-1.7 3.1 1.1 3.3 14.1 42.2L320 161.1V137.9v-32H296.2V63.7 55.5H279.8v8.2 42.2H256v32V161l-54.5-36.3 14.1-42.2 1.1-3.3L215 76.1l-40-72-14 7.8 38.3 68.9-14.9 44.7-1.9 5.8 5.1 3.4 62.3 41.5L76.3 202.1C32.7 207.6 0 244.6 0 288.6c0 77.6 93.8 116.5 148.8 61.9L256 257.1v19.6l-53.7 53.7-2.3 2.3V336v45.9l-39 70.2 14 7.8 40-72 1-1.8V384 339.3l40-40v61.3 32h64v-32V299.3l18.3 18.3 11.3-11.3L320 276.7V257.1l26.7 23.3 6 5.3 10.5-12.1-6-5.3L320 235.9V191.4l177.4 26.5 0 0 .2 0c4.2 .5 8.2 1.4 12.1 2.6l7.7 2.3 4.7-15.3-7.6-2.3c-4.7-1.4-9.6-2.5-14.7-3.1L326.2 176.2l62.3-41.5 5.1-3.4-1.9-5.8L376.7 80.8zM256 191.4v44.5L138.1 338.6c-.1 .1-.3 .2-.4 .4C92.8 383.9 16 352.1 16 288.6c0-35.9 26.8-66.2 62.4-70.7l0 0 .2 0L256 191.4zM392 376h-8v16h8 32v64H392h-8v16h8 32v32 8l16 0v-8V472h64v32 8l16 0v-8V472h64v32 8l16 0v-8V472h32 8V456h-8H600V392h32 8V376h-8H600V312h32 8V296h-8H600V264v-8H584v8 32H520V264v-8H504v8 32H440V264v-8H424v8 32H392h-8v16h8 32v64H392zm192 16v64H520V392h64zm0-80v64H520V312h64zM440 392h64v64H440V392zm0-16V312h64v64H440zM272 360.6l0-222.7v-16h32v16l0 222.7v16H272v-16z"/></svg>