<svg xmlns="http://www.w3.org/2000/svg" viewBox="0 0 640 512"><!--! Font Awesome Pro 6.5.1 by @fontawesome - https://fontawesome.com License - https://fontawesome.com/license (Commercial License) Copyright 2023 Fonticons, Inc. --><path d="M264 32h-8V48h8 83.1l20.2 39.4-111.6 79-30.3-18.9c-20.3-12.7-43.9-19.5-67.8-19.5H40c-4.4 0-8 3.6-8 8v48 8h8 71.8c94.2 0 171.7 74.2 175.8 168.4l.3 8 .3 7.7H296h48 8v-8V352c0-59.2 32.2-110.9 79.9-138.6L446.6 242C409.1 264.3 384 305.2 384 352c0 70.7 57.3 128 128 128s128-57.3 128-128s-57.3-128-128-128c-18.2 0-35.5 3.8-51.2 10.6L406.1 128H504h8v-8V40 32h-8H448h-2.5l-2.1 1.5L380.5 78 359.1 36.3 356.9 32H352 264zm-3.4 150.5l114-80.8 50 97.4C371.7 229.5 336 286.6 336 352v8H303.7l0-.3C299.2 257 214.6 176 111.8 176H48V144H157.6c21 0 41.6 5.9 59.4 17l34.8 21.8 4.5 2.8 4.3-3.1zM496 112H397.9L387.9 92.4 450.5 48H496v64zM453.9 256.2l51 99.4 3.7 7.1 14.2-7.3-3.6-7.1-51-99.4c13.5-5.7 28.3-8.9 43.9-8.9c61.9 0 112 50.1 112 112s-50.1 112-112 112s-112-50.1-112-112c0-40.6 21.6-76.1 53.9-95.8zM239.7 344H191.5c-3.9-31.6-30.9-56-63.5-56c-35.3 0-64 28.7-64 64s28.7 64 64 64c32.6 0 59.6-24.4 63.5-56h48.2c-4.1 58.1-52.6 104-111.7 104C66.1 464 16 413.9 16 352s50.1-112 112-112c59.2 0 107.6 45.9 111.7 104zm-64.4 0H128h-8v16h8 47.3c-3.8 22.7-23.6 40-47.3 40c-26.5 0-48-21.5-48-48s21.5-48 48-48c23.8 0 43.5 17.3 47.3 40zM128 480a128 128 0 1 0 0-256 128 128 0 1 0 0 256z"/></svg>