<svg xmlns="http://www.w3.org/2000/svg" viewBox="0 0 640 512"><!--! Font Awesome Pro 6.5.1 by @fontawesome - https://fontawesome.com License - https://fontawesome.com/license (Commercial License) Copyright 2023 Fonticons, Inc. --><path d="M288 0h8H504h8V8 192h48V104 96h16v8 88h56 8v8V496v8H624v-8V208H576 560 504h-8v-8V16H304V170l-16-25.6V8 0zm72 72h8 64 8v8 64 8h-8H368h-8v-8V80 72zm16 16v48h48V88H376zm8 112h48 8v8 48 8H424v-8V216H384h-8V200h8zm104 64h8 64 8v8 64 8h-8H496h-8v-8V272v-8zm16 64h48V280H504v48zm-8 64h64 8v8 64 8h-8H496h-8v-8V400v-8h8zm8 64h48V408H504v48zm-34 40l10 16H461.1 18.9 0l10-16L230.6 143.1 240 128l9.4 15.1L470 496zM341.1 320H242.7l-44.6 53.1-6 7.2-6.1-7-46.9-53.6L28.9 496H451.1l-110-176zm-10-16L240 158.2 147.9 305.5l43.9 50.2 41-48.8 2.4-2.9H239h92.1z"/></svg>