<svg xmlns="http://www.w3.org/2000/svg" viewBox="0 0 640 512"><!--! Font Awesome Pro 6.5.1 by @fontawesome - https://fontawesome.com License - https://fontawesome.com/license (Commercial License) Copyright 2023 Fonticons, Inc. --><path d="M496 80a64 64 0 1 1 128 0A64 64 0 1 1 496 80zm144 0A80 80 0 1 0 480 80a80 80 0 1 0 160 0zM16 444.9L256 92.4 496 444.9V496h-.2H16V444.9zM16 512H457h39 16H624h16V496 433.7L489.6 206.5 480 192l-9.6 14.5-57.9 87.4L265.7 78.2 256 64l-9.7 14.2L0 440v56 16H16zm608-16H512V440L422.3 308.2 480 221 624 438.5V496z"/></svg>