<svg xmlns="http://www.w3.org/2000/svg" viewBox="0 0 512 512"><!--! Font Awesome Pro 6.5.1 by @fontawesome - https://fontawesome.com License - https://fontawesome.com/license (Commercial License) Copyright 2023 Fonticons, Inc. --><path d="M402.7 16.2C390.6 17.4 379.6 22.4 371 30l0 0c-.6 .5-1.1 1-1.6 1.5C383.4 47.7 392 68.8 392 92v12.6l.6 0c17 1.2 33 6 47.3 13.5c1.8-1.3 3.5-2.6 5.2-4.1l0 0c2.9-2.6 5.5-5.4 7.9-8.5c.9-1.2 1.7-2.4 2.5-3.6C460.8 93.2 464 83 464 72c0-30.9-25.1-56-56-56c-1.8 0-3.5 .1-5.3 .2zM408 0c39.8 0 72 32.2 72 72c0 2.7-.1 5.3-.4 8c-1.2 10.9-4.8 21.1-10.3 29.9c-3.7 6-8.3 11.5-13.6 16.1l0 0c-.4 .4-.8 .7-1.2 1.1C484.6 149 504 184.5 504 224.3V256v8h-8H373.2l-35.8 78.8 57 17.5 5.6 1.7V368v40 8h-8H344h-8H104 96 56c-22.1 0-40 17.9-40 40s17.9 40 40 40H472h8v16h-8H56c-30.9 0-56-25.1-56-56s25.1-56 56-56H96V336c0-87.3 66.6-159 151.7-167.2C223.4 153.9 208 127.3 208 98V92c0-50.8 41.2-92 92-92c21.9 0 42 7.6 57.8 20.4c.8-.8 1.7-1.6 2.6-2.4l0 0c3.8-3.4 8-6.4 12.5-8.9C383.3 3.3 395.3 0 408 0zM336 96v32 8h-8H296h-8V120h8 24V96 88h16v8zm80 80a16 16 0 1 1 0 32 16 16 0 1 1 0-32zM112 336v64H336h8 40V373.9l-98.4-30.3-7.6-2.4 4.7-15.3 7.6 2.4 31.6 9.7 38.8-85.4 2.1-4.7H368 488V224.3c0-54.6-42.2-99.8-96.6-103.7l-8-.6-7.4-.5V112 92c0-42-34-76-76-76s-76 34-76 76v6c0 28.8 18.4 54.4 45.8 63.5l20.7 6.9L288 184H264c-83.9 0-152 68.1-152 152z"/></svg>