<svg xmlns="http://www.w3.org/2000/svg" viewBox="0 0 640 512"><!--! Font Awesome Pro 6.5.1 by @fontawesome - https://fontawesome.com License - https://fontawesome.com/license (Commercial License) Copyright 2023 Fonticons, Inc. --><path d="M232 48V85l54 61.7 2 2.3v3 96 8h-8H168h-8v-8V152v-3l2-2.3L216 85V48H112V368H464V48H440 232zm248 0V224h24c48.6 0 88-39.4 88-88s-39.4-88-88-88H480zm0 192V368v16H464 112 96V368 48 32h16H440h24 16 24c57.4 0 104 46.6 104 104s-46.6 104-104 104H480zM0 464H8 568h8v16h-8H8 0V464zM176 155v85h96V155l-48-54.9L176 155z"/></svg>