<svg xmlns="http://www.w3.org/2000/svg" viewBox="0 0 512 512"><!--! Font Awesome Pro 6.5.1 by @fontawesome - https://fontawesome.com License - https://fontawesome.com/license (Commercial License) Copyright 2023 Fonticons, Inc. --><path d="M176 128l0 0 11.3-11.3 73.4-73.4L272 32l11.3 11.3 73.4 73.4L368 128l0 0H345.4l0 0L272 54.6 198.6 128l0 0H176zM48 128H32V48 32H48 226.7l-16 16H48v80zm128 48v72 8H160v-8V176H112V280v8H96v-8V176H16V464H368V176H344 176zm0-16H344h24 16 24c57.4 0 104 46.6 104 104s-46.6 104-104 104H384v96 16H368 16 0V464 176 160H16 96h16 48 16zm208 16V352h24c48.6 0 88-39.4 88-88s-39.4-88-88-88H384z"/></svg>