<svg xmlns="http://www.w3.org/2000/svg" viewBox="0 0 576 512"><!--! Font Awesome Pro 6.5.1 by @fontawesome - https://fontawesome.com License - https://fontawesome.com/license (Commercial License) Copyright 2023 Fonticons, Inc. --><path d="M152 80v37L98 178.7 96 181v3 96 8h8H216h8v-8V184v-3l-2-2.3L168 117V80H336h32V272v16V432H16V80H152zM384 432V288h48c61.9 0 112-50.1 112-112s-50.1-112-112-112H384 368 336 16 0V80 432v16H16 368h16V432zm48-160H384V80h48c53 0 96 43 96 96s-43 96-96 96zM112 187l48-54.9L208 187v85H112V187z"/></svg>