<svg xmlns="http://www.w3.org/2000/svg" viewBox="0 0 512 512"><!--! Font Awesome Pro 6.5.1 by @fontawesome - https://fontawesome.com License - https://fontawesome.com/license (Commercial License) Copyright 2023 Fonticons, Inc. --><path d="M80 8V0H64V8c0 27.3 5.1 45.2 13.6 57.9C86 78.4 97.1 85 106.7 90.6l.4 .3c9.9 5.9 18.2 10.9 24.4 20.1c6.2 9.2 10.9 23.5 10.9 49v8h16v-8c0-27.3-5.1-45.2-13.6-57.9c-8.4-12.5-19.5-19.1-29.1-24.7l-.4-.3C105.4 71.2 97.1 66.2 90.9 57C84.7 47.8 80 33.5 80 8zM209.6 8V0h-16V8c0 27.3 5.1 45.2 13.6 57.9c8.4 12.5 19.5 19.1 29.1 24.7l.4 .3c9.9 5.9 18.2 10.9 24.4 20.1c6.2 9.2 10.9 23.5 10.9 49v8h16v-8c0-27.3-5.1-45.2-13.6-57.9C266 89.6 254.9 83 245.3 77.4l-.4-.3C235 71.2 226.7 66.2 220.5 57c-6.2-9.2-10.9-23.5-10.9-49zM344 208h24V496H16V208H344zm40 176V208h24c48.6 0 88 39.4 88 88s-39.4 88-88 88H384zm0 112V400h24c57.4 0 104-46.6 104-104s-46.6-104-104-104H384 368 344 16 0v16V496v16H16 368h16V496z"/></svg>