<svg xmlns="http://www.w3.org/2000/svg" viewBox="0 0 512 512"><!--! Font Awesome Pro 6.5.1 by @fontawesome - https://fontawesome.com License - https://fontawesome.com/license (Commercial License) Copyright 2023 Fonticons, Inc. --><path d="M512 5.2V16 128 368s0 0 0 0c0 44.2-43 80-96 80s-96-35.8-96-80s43-80 96-80c33.4 0 62.8 14.2 80 35.8V139L192 237.8V432v0c0 44.2-43 80-96 80s-96-35.8-96-80s43-80 96-80c33.4 0 62.8 14.2 80 35.8V232 112v-6l5.7-1.7 320-96L512 5.2zM496 368c0-32.7-33-64-80-64s-80 31.3-80 64s33 64 80 64s80-31.3 80-64c0 0 0 0 0 0zM96 368c-47 0-80 31.3-80 64s33 64 80 64s80-31.3 80-64v0c0-32.7-33-64-80-64zm96-147l304-98.8V26.8L192 118V221z"/></svg>