<svg xmlns="http://www.w3.org/2000/svg" viewBox="0 0 640 512"><!--! Font Awesome Pro 6.5.1 by @fontawesome - https://fontawesome.com License - https://fontawesome.com/license (Commercial License) Copyright 2023 Fonticons, Inc. --><path d="M16.2 5L9.9 0 0 12.5l6.3 5L623.8 507l6.3 5 9.9-12.5-6.3-5L16.2 5zM367.3 201.6L560 139V323.8c-17.2-21.6-46.6-35.8-80-35.8c-1.1 0-2.1 0-3.2 0l22.5 17.8c29.2 5.7 50.6 24.2 57.9 45.7L576 366.4V128 16 5.2L565.7 8.3l-320 96-1.2 .3 15.3 12.1L560 26.8v95.4L352.2 189.7l15.1 11.9zM240 284.6V387.8c-17.2-21.6-46.6-35.8-80-35.8c-53 0-96 35.8-96 80s43 80 96 80s96-35.8 96-80v0V297.2l-16-12.6zM240 432v0c0 32.7-33 64-80 64s-80-31.3-80-64s33-64 80-64s80 31.3 80 64z"/></svg>