<svg xmlns="http://www.w3.org/2000/svg" viewBox="0 0 640 512"><!--! Font Awesome Pro 6.5.1 by @fontawesome - https://fontawesome.com License - https://fontawesome.com/license (Commercial License) Copyright 2023 Fonticons, Inc. --><path d="M528 208c0 100.7-77.4 183.2-176 191.3v1.7c0 5-.5 9.8-1.5 14.5c48.8-3.4 93-23.6 126.8-54.9L627.9 511.3l11.3-11.3L488.6 349.3C523 312.2 544 262.6 544 208C544 93.1 450.9 0 336 0C227.9 0 139.1 82.5 129 187.9l16.7-5.6C158.3 88.4 238.7 16 336 16c106 0 192 86 192 192zM320 156.8l-10.5 3.5-192 64-5.5 1.8v5.8 72V432.3c-11.7-10-28.9-16.3-48-16.3c-35.3 0-64 21.5-64 48s28.7 48 64 48s64-21.5 64-48l0-.1 0-.1V309.7L304 251V368.2c-11.7-10-28.9-16.2-48-16.2c-35.3 0-64 21.5-64 48s28.7 48 64 48c35.2 0 63.7-21.3 64-47.6l0-.2v-.2-160-72V156.8zm-28.3 222c8.6 6.4 12.3 14.1 12.3 21.1s-3.8 14.7-12.3 21.1s-21.1 10.9-35.7 10.9s-27.1-4.4-35.7-10.9s-12.3-14.1-12.3-21.1s3.8-14.7 12.3-21.1s21.1-10.9 35.7-10.9s27.1 4.4 35.7 10.9zM128 292.8V237.7L304 179v55.1L128 292.8zM112 464.1c0 7.1-3.8 14.7-12.3 21.1s-21.1 10.9-35.7 10.9s-27.1-4.4-35.7-10.9S16 471.2 16 464.1s3.8-14.7 12.3-21.1s21.1-10.9 35.7-10.9s27.1 4.4 35.7 10.9s12.3 14.1 12.3 21.1z"/></svg>