<svg xmlns="http://www.w3.org/2000/svg" viewBox="0 0 640 512"><!--! Font Awesome Pro 6.5.1 by @fontawesome - https://fontawesome.com License - https://fontawesome.com/license (Commercial License) Copyright 2023 Fonticons, Inc. --><path d="M432 16V176H208V16H432zM208 0H192V16 176v16h16H312v56H8 0v16H8 152v56H48 32v16V496v16H48 272h16V496 336 320H272 168V264H472v56H368 352v16V496v16h16H592h16V496 336 320H592 488V264H632h8V248h-8H328V192H432h16V176 16 0H432 208zM48 336H272V496H48V336zm544 0V496H368V336H592z"/></svg>