<svg xmlns="http://www.w3.org/2000/svg" viewBox="0 0 512 512"><!--! Font Awesome Pro 6.5.1 by @fontawesome - https://fontawesome.com License - https://fontawesome.com/license (Commercial License) Copyright 2023 Fonticons, Inc. --><path d="M96 32h8H504h8v8V472v8h-8H112h-8H56 8 0v-8V136v-8H8 64v16H16V464H56 96V40 32zm16 16V464H496V48H112zM352 96h8 80 8v16h-8H360h-8V96zm0 64h8 80 8v16h-8H360h-8V160zm0 64h8 80 8v16h-8H360h-8V224zM160 288h8H440h8v16h-8H168h-8V288zm0 64h8H440h8v16h-8H168h-8V352zm16-240V224H304V112H176zM160 96h16H304h16v16V224v16H304 176 160V224 112 96z"/></svg>