<svg xmlns="http://www.w3.org/2000/svg" viewBox="0 0 576 512"><!--! Font Awesome Pro 6.5.1 by @fontawesome - https://fontawesome.com License - https://fontawesome.com/license (Commercial License) Copyright 2023 Fonticons, Inc. --><path d="M432 48H16V464H320l0 16H16 0V464 48 32H16 432h16V48 161.3c-5.5 .9-10.9 2.3-16 4.1V48zM368 256v32H352V128H232v88.8c18.3 3.7 32 19.8 32 39.2c0 22.1-17.9 40-40 40s-40-17.9-40-40c0-19.4 13.7-35.5 32-39.2V120v-8h8H360h8v8V256zM320 400H88 80v-8V120v-8h8 64 8v16h-8H96V384H320l0 16zM224 232a24 24 0 1 0 0 48 24 24 0 1 0 0-48zm240-24c-26.5 0-48 21.5-48 48v64h96V256c0-26.5-21.5-48-48-48zm-64 48c0-35.3 28.7-64 64-64s64 28.7 64 64v64h32 16v16V496v16H560 368 352V496 336 320h16 32V256zm-32 80V496H560V336H528 512 416 400 368z"/></svg>