<svg xmlns="http://www.w3.org/2000/svg" viewBox="0 0 512 512"><!--! Font Awesome Pro 6.5.1 by @fontawesome - https://fontawesome.com License - https://fontawesome.com/license (Commercial License) Copyright 2023 Fonticons, Inc. --><path d="M432 48H16V464H228c-.9 5.3-1.6 10.6-2.2 16H16 0V464 48 32H16 432h16V48 231.1c-5.4 1.2-10.7 2.6-16 4.1V48zm-64 72V262.5c-5.4 3.2-10.8 6.5-16 10V128H232v88.8c18.3 3.7 32 19.8 32 39.2c0 22.1-17.9 40-40 40s-40-17.9-40-40c0-19.4 13.7-35.5 32-39.2V120v-8h8H360h8v8zM246.6 400H88 80v-8V120v-8h8 64 8v16h-8H96V384H253.9c-2.6 5.2-5.1 10.6-7.3 16zM224 232a24 24 0 1 0 0 48 24 24 0 1 0 0-48zm288 40c-132.5 0-240 107.5-240 240H256c0-141.4 114.6-256 256-256v16zM464 480a16 16 0 1 0 32 0 16 16 0 1 0 -32 0zm48 0a32 32 0 1 1 -64 0 32 32 0 1 1 64 0zM368 512H352c0-88.4 71.6-160 160-160v16c-79.5 0-144 64.5-144 144z"/></svg>