<svg xmlns="http://www.w3.org/2000/svg" viewBox="0 0 576 512"><!--! Font Awesome Pro 6.5.1 by @fontawesome - https://fontawesome.com License - https://fontawesome.com/license (Commercial License) Copyright 2023 Fonticons, Inc. --><path d="M432 48H16V464H263.1l-2.5 16H16 0V464 48 32H16 432h16V48 229.5l-16 16V48zm-64 72V309.5l-16 16V128H232v88.8c18.3 3.7 32 19.8 32 39.2c0 22.1-17.9 40-40 40s-40-17.9-40-40c0-19.4 13.7-35.5 32-39.2V120v-8h8H360h8v8zM277.5 400H88 80v-8V120v-8h8 64 8v16h-8H96V384H293.5l-16 16zM448 480h-5.8l5.8-5.8V480zM224 232a24 24 0 1 0 0 48 24 24 0 1 0 0-48zm274.9-8.1l11.3 11.3 54.5 54.5L576 300.9l-11.3 11.3L379.3 497.6l-74.7 11.6L288 511.9l2.6-16.6 11.6-74.7L498.9 223.9zM317.2 428.2l-10 64.5 64.5-10L509.5 344.8 455 290.4 317.2 428.2zM553.4 300.9l-54.5-54.5L466.4 279l54.5 54.5 32.5-32.5z"/></svg>