<svg xmlns="http://www.w3.org/2000/svg" viewBox="0 0 640 512"><!--! Font Awesome Pro 6.5.1 by @fontawesome - https://fontawesome.com License - https://fontawesome.com/license (Commercial License) Copyright 2023 Fonticons, Inc. --><path d="M16.2 5L9.9 0 0 12.5l6.3 5L623.8 507l6.3 5 9.9-12.5-6.3-5L16.2 5zM544 48V32H528 152.5l20.3 16H528V328.5l16 12.6V48zM96 170.9V464v16h16H487.5l-20.3-16H112V183.5L96 170.9zM184 400H386.2l-20.3-16H192V246.7L176 234V392v8h8zM464 120v-8h-8H320h-8v8 38l16 12.6V128H448V265.3L464 278V120zm-208-8h-2.2l2.2 1.7V112z"/></svg>