<svg xmlns="http://www.w3.org/2000/svg" viewBox="0 0 640 512"><!--! Font Awesome Pro 6.5.1 by @fontawesome - https://fontawesome.com License - https://fontawesome.com/license (Commercial License) Copyright 2023 Fonticons, Inc. --><path d="M432 48H16V464H380.5l1.1 16H16 0V464 48 32H16 432h16V48 160h-8.7L432 174.6V48zm-64 72v88H352V128H232v88.8c18.3 3.7 32 19.8 32 39.2c0 22.1-17.9 40-40 40s-40-17.9-40-40c0-19.4 13.7-35.5 32-39.2V120v-8h8H360h8v8zM352 384V288h15.9l.1 1.1V392v8h-8H88 80v-8V120v-8h8 64 8v16h-8H96V384H352zM224 232a24 24 0 1 0 0 48 24 24 0 1 0 0-48zm235.1-39.9H464h96 4.9l2.2 4.4 21.8 43.6H632h8v16h-8H584 440 392h-8v-16h8 43.1l21.8-43.6 2.2-4.4zm-6.1 48H571.1l-16-32H468.9l-16 32zM400 288.2h16l14.9 207.9H593.1L608 288.2h16L608 512.1H416L400 288.2z"/></svg>