<svg xmlns="http://www.w3.org/2000/svg" viewBox="0 0 640 512"><!--! Font Awesome Pro 6.5.1 by @fontawesome - https://fontawesome.com License - https://fontawesome.com/license (Commercial License) Copyright 2023 Fonticons, Inc. --><path d="M432 48H16V464H378.2c21.1 10.2 44.8 16 69.8 16H432 16 0V464 48 32H16 432h16V48 160c-5.4 0-10.7 .3-16 .8V48zm-64 72v61.4c-5.6 3.2-10.9 6.7-16 10.6V128H232v88.8c18.3 3.7 32 19.8 32 39.2c0 22.1-17.9 40-40 40s-40-17.9-40-40c0-19.4 13.7-35.5 32-39.2V120v-8h8H360h8v8zM309.4 400H88 80v-8V120v-8h8 64 8v16h-8H96V384H301.3c2.4 5.5 5.1 10.8 8.1 16zM224 232a24 24 0 1 0 0 48 24 24 0 1 0 0-48zM448 432.2a112 112 0 1 0 0-224 112 112 0 1 0 0 224zm0 16c-70.7 0-128-57.3-128-128s57.3-128 128-128s128 57.3 128 128c0 32.5-12.1 62.1-32 84.7l93.7 93.7c3.1 3.1 3.1 8.2 0 11.3s-8.2 3.1-11.3 0l-93.7-93.7c-22.6 19.9-52.2 32-84.7 32z"/></svg>