<svg xmlns="http://www.w3.org/2000/svg" viewBox="0 0 448 512"><!--! Font Awesome Pro 6.5.1 by @fontawesome - https://fontawesome.com License - https://fontawesome.com/license (Commercial License) Copyright 2023 Fonticons, Inc. --><path d="M432 48V464H16V48H432zM16 32H0V48 464v16H16 432h16V464 48 32H432 16zm64 80v8V392v8h8H360h8v-8V120v-8h-8H224h-8v8 96.8c-18.3 3.7-32 19.8-32 39.2c0 22.1 17.9 40 40 40s40-17.9 40-40c0-19.4-13.7-35.5-32-39.2V128H352V384H96V128h56 8V112h-8H88 80zM224 280a24 24 0 1 1 0-48 24 24 0 1 1 0 48z"/></svg>