<svg xmlns="http://www.w3.org/2000/svg" viewBox="0 0 512 512"><!--! Font Awesome Pro 6.5.1 by @fontawesome - https://fontawesome.com License - https://fontawesome.com/license (Commercial License) Copyright 2023 Fonticons, Inc. --><path d="M112 416H96V400 48 32h16H464h16V48 320l-96 96H112zm265.4-16L464 313.4V48H112V400H377.4zM248 112h8 64 8v8 64h64 8v8 64 8h-8H328v64 8h-8H256h-8v-8V264H184h-8v-8V192v-8h8 64V120v-8zm16 16v64 8h-8H192v48h64 8v8 64h48V256v-8h8 64V200H320h-8v-8V128H264zM16 128H64v16H16V496H368V448h16v48 16H368 16 0V496 144 128H16z"/></svg>