<svg xmlns="http://www.w3.org/2000/svg" viewBox="0 0 448 512"><!--! Font Awesome Pro 6.5.1 by @fontawesome - https://fontawesome.com License - https://fontawesome.com/license (Commercial License) Copyright 2023 Fonticons, Inc. --><path d="M432 48V320H304 288v16V464H16V48H432zm-6.6 288L304 457.4V336H425.4zM16 480H288h16L448 336V320 48 32H432 16 0V48 464v16H16zM72 96H64v8 48 8h8 48 8v-8V104 96h-8H72zm8 48V112h32v32H80zM64 224v8 48 8h8 48 8v-8V232v-8h-8H72 64zm16 16h32v32H80V240zM72 352H64v8 48 8h8 48 8v-8V360v-8h-8H72zm8 48V368h32v32H80z"/></svg>