<svg xmlns="http://www.w3.org/2000/svg" viewBox="0 0 576 512"><!--! Font Awesome Pro 6.5.1 by @fontawesome - https://fontawesome.com License - https://fontawesome.com/license (Commercial License) Copyright 2023 Fonticons, Inc. --><path d="M48 48v64H72 88h24V48H48zm24 80H48 32V112 48 32H48h64 16V48 72H448V48 32h16 64 16V48v64 16H528 504V384h24 16v16 64 16H528 464 448V464 440H128v24 16H112 48 32V464 400 384H48 72l0-256zm16 0l0 256h24 16v16 24H448V400 384h16 24V128H464 448V112 88H128v24 16H112 88zm0 272H72 48v64h64V400H88zM528 112V48H464v64h24 16 24zM488 400H464v64h64V400H504 488zM136 136h8H304h8v8V272v8h-8H144h-8v-8V144v-8zm16 16V264H296V152H152zm208 80h72 8v8V368v8h-8H272h-8v-8V328v-8h16v8 32H424V248H360h-8V232h8z"/></svg>