<svg xmlns="http://www.w3.org/2000/svg" viewBox="0 0 512 512"><!--! Font Awesome Pro 6.5.1 by @fontawesome - https://fontawesome.com License - https://fontawesome.com/license (Commercial License) Copyright 2023 Fonticons, Inc. --><path d="M96 16H16V96H0V16 0H16 96V16zm32 0V0h96V16H128zM0 128H16v96H0V128zM336 16H256V0h80 16V16 128H336V16zm0 144h16v16 80 80 16H336 224 176 160V336 256 176 160h16H288h48zM160 384h16V496h80v16H176 160V496 384zm-32-32H16 0V336 256H16v80H128v16zM384 176V160H496h16v16 80H496V176H384zm32 336V496h80V416h16v80 16H496 416zm80-224h16v96H496V288zM288 512V496h96v16H288zM176 176V336H336V176H176z"/></svg>