<svg xmlns="http://www.w3.org/2000/svg" viewBox="0 0 512 512"><!--! Font Awesome Pro 6.5.1 by @fontawesome - https://fontawesome.com License - https://fontawesome.com/license (Commercial License) Copyright 2023 Fonticons, Inc. --><path d="M16 16H336V128h16V16 0H336 16 0V16 336v16H16 128V336H16V16zM160 384V496v16h16H496h16V496 176 160H496 384v16H496V496H176V384H160zm96-32h80 16V336 288H336v48H256v16zm96-176V160H336 288v16h48v80h16V176zM224 352V336H176V256H160v80 16h16 48zM160 224h16V176h80V160H176 160v16 48z"/></svg>