<svg xmlns="http://www.w3.org/2000/svg" viewBox="0 0 448 512"><!--! Font Awesome Pro 6.5.1 by @fontawesome - https://fontawesome.com License - https://fontawesome.com/license (Commercial License) Copyright 2023 Fonticons, Inc. --><path d="M16 48V272H176V48H16zM0 32H16 176h16V48 272v16H176 16 0V272 48 32zM272 240V464H432V240H272zm-16-16h16H432h16v16V464v16H432 272 256V464 240 224zM176 336H16V464H176V336zM16 320H176h16v16V464v16H176 16 0V464 336 320H16zM272 48V176H432V48H272zM256 32h16H432h16V48 176v16H432 272 256V176 48 32z"/></svg>