<svg xmlns="http://www.w3.org/2000/svg" viewBox="0 0 512 512"><!--! Font Awesome Pro 6.5.1 by @fontawesome - https://fontawesome.com License - https://fontawesome.com/license (Commercial License) Copyright 2023 Fonticons, Inc. --><path d="M16 345.4V166.6L166.6 16H345.4L496 166.6V345.4L345.4 496H166.6L16 345.4zM160 0L0 160V352L160 512H352L512 352V160L352 0H160zm80 144h32v32H240V144zm-16-16v16 32 16h16 32 16V176 144 128H272 240 224zM152 248h-8v16h8H360h8V248h-8H152zm120 88v32H240V336h32zm-32-16H224v16 32 16h16 32 16V368 336 320H272 240z"/></svg>