<svg xmlns="http://www.w3.org/2000/svg" viewBox="0 0 512 512"><!--! Font Awesome Pro 6.5.1 by @fontawesome - https://fontawesome.com License - https://fontawesome.com/license (Commercial License) Copyright 2023 Fonticons, Inc. --><path d="M16 345.4V166.6L166.6 16H345.4L496 166.6V345.4L345.4 496H166.6L16 345.4zM160 0L0 160V352L160 512H352L512 352V160L352 0H160zm25.8 174.5l-11.3 11.3 5.7 5.7L244.7 256l-64.6 64.6-5.7 5.7 11.3 11.3 5.7-5.7L256 267.3l64.6 64.6 5.7 5.7 11.3-11.3-5.7-5.7L267.3 256l64.6-64.6 5.7-5.7-11.3-11.3-5.7 5.7L256 244.7l-64.6-64.6-5.7-5.7z"/></svg>