<svg xmlns="http://www.w3.org/2000/svg" viewBox="0 0 640 512"><!--! Font Awesome Pro 6.5.1 by @fontawesome - https://fontawesome.com License - https://fontawesome.com/license (Commercial License) Copyright 2023 Fonticons, Inc. --><path d="M352 80H264v80H384l64 32 160-32 32 32L432 416H384 112 96V400 345.1L0 304V176 160H16 96h16H248V80l-88 0V64H352V80zM96 176H16V293.4l80 34.3V176zm349.8 32.8l-4.9-2.5L380.2 176H112V334.6 352v48H384h41L617.8 192.4l-15-15L451.1 207.7l-5.4 1.1zM624 400c0-4.7-1.9-12.2-6.2-22.2c-4.1-9.6-9.7-19.9-15.5-29.6c-3.5-5.9-7.1-11.4-10.3-16.3c-3.2 4.9-6.8 10.4-10.3 16.3c-5.8 9.7-11.4 20-15.5 29.6c-4.3 10-6.2 17.5-6.2 22.2c0 17.7 14.3 32 32 32c10.1 0 18-3 23.1-7.8c4.9-4.5 8.9-12 8.9-24.2zm-80 0c0-22.7 24.2-61.6 38.2-82.2C588 309.4 592 304 592 304s4 5.4 9.8 13.8c14 20.6 38.2 59.5 38.2 82.2c0 32-21.5 48-48 48s-48-21.5-48-48z"/></svg>