<svg xmlns="http://www.w3.org/2000/svg" viewBox="0 0 576 512"><!--! Font Awesome Pro 6.5.1 by @fontawesome - https://fontawesome.com License - https://fontawesome.com/license (Commercial License) Copyright 2023 Fonticons, Inc. --><path d="M512.9 65.4c-9.1-34.1-44.2-54.4-78.4-45.3l-30.9 8.3 74.5 278.2 30.9-8.3c34.1-9.1 54.4-44.2 45.3-78.4L512.9 65.4zM430.4 4.7c42.7-11.4 86.5 13.9 98 56.6l41.4 154.5c11.4 42.7-13.9 86.5-56.6 98l-30.9 8.3-15.5 4.1-4.1-15.5L428.6 183.7 80 274V496h50.2l69-210.2 18.4-4.8-23.3 71H349.7l-31.8-97 15.5-4L413.8 496H568h8v16h-8H80 64 8 0V496H8 64V168v-8H80v8 89.5l140.4-36.4 39.2-119.6 1.8-5.5h5.8 9.6 5.8l1.8 5.5 31.1 94.9 108.9-28.2L388.1 32.6 384 17.1 399.5 13l30.9-8.3zM300 200.5L272 115 238.8 216.4 300 200.5zM397 496L355 368H189L147 496H397z"/></svg>