<svg xmlns="http://www.w3.org/2000/svg" viewBox="0 0 448 512"><!--! Font Awesome Pro 6.5.1 by @fontawesome - https://fontawesome.com License - https://fontawesome.com/license (Commercial License) Copyright 2023 Fonticons, Inc. --><path d="M224 48C109.1 48 16 141.1 16 256c0 78.7 43.7 147.2 108.2 182.5l4.2 2.3v4.7l0 26.5v8h-8H8 0V464H8 112.3l0-13.8C45.2 411.5 0 339.1 0 256C0 132.3 100.3 32 224 32s224 100.3 224 224c0 83.1-45.2 155.5-112.3 194.2V464H440h8v16h-8H327.7h-8v-8V445.5v-4.7l4.2-2.3C388.3 403.2 432 334.7 432 256c0-114.9-93.1-208-208-208z"/></svg>