<svg xmlns="http://www.w3.org/2000/svg" viewBox="0 0 384 512"><!--! Font Awesome Pro 6.5.1 by @fontawesome - https://fontawesome.com License - https://fontawesome.com/license (Commercial License) Copyright 2023 Fonticons, Inc. --><path d="M224 80H160V48c0-17.7 14.3-32 32-32s32 14.3 32 32V80zm16 0V48c0-26.5-21.5-48-48-48s-48 21.5-48 48V80H112 96V96v48 9.7C38.6 186.9 0 248.9 0 320C0 426 86 512 192 512s192-86 192-192c0-71.1-38.6-133.1-96-166.3V144 96 80H272 240zm25.4 80c38.7 17.8 69.8 49.1 87.2 88H31.4c17.4-38.9 48.6-70.2 87.2-88H265.4zM144 96h16 64 16 32v48H112V96h32zM16 320c0-19.6 3.2-38.4 9.1-56H358.9c5.9 17.6 9.1 36.4 9.1 56s-3.2 38.4-9.1 56H25.1c-5.9-17.6-9.1-36.4-9.1-56zM192 496c-71.6 0-133.1-42.7-160.6-104H352.6C325.1 453.3 263.6 496 192 496z"/></svg>