<svg xmlns="http://www.w3.org/2000/svg" viewBox="0 0 640 512"><!--! Font Awesome Pro 6.5.1 by @fontawesome - https://fontawesome.com License - https://fontawesome.com/license (Commercial License) Copyright 2023 Fonticons, Inc. --><path d="M170.8 204.1l22.1-14.7 7.1-4.8V176 160 144H184 136 120v16 16 8.6l7.1 4.8 22.1 14.7L122.7 224H48v0H32V144c0-53 43-96 96-96h64c53 0 96 43 96 96v48.5 28.6V224h-1.3H280v0H264v0H197.3l-26.6-19.9zM192 240h74.3c6.9 23.1 28.3 40 53.7 40h77.4c-22.6 15.9-37.4 42.2-37.4 72H264V296v-8h-8H104c-28.2 0-51.6-20.9-55.4-48H128l32-24 32 24zM16 240H32v18.9C32 381 131 480 253.1 480H416.9C540.1 480 640 380.1 640 256.9c0-84.4-56.5-158.4-138-180.6l-43.9-12-7 14.1 66.3 51c21.8 16.8 34.6 42.7 34.6 70.2c0 20.3-9.4 38.4-24 50.2V184v-8h-8H448h-8v8 80H344v-8c0-8.8 7.2-16 16-16h8 32 8v-8V168v-8h-8H368h-8c-20.9 0-40.2 6.7-56 18V144c0-5.4-.4-10.8-1.1-16H312h8V112h-8H299.4C285.6 65.7 242.7 32 192 32H128C77.3 32 34.4 65.7 20.6 112H8 0v16H8h9.1c-.7 5.2-1.1 10.6-1.1 16v80 16zm288-16V198.9c14.4-14.1 34.2-22.9 56-22.9h8 24v48H368h-8c-17.7 0-32 14.3-32 32v8h-8c-16.4 0-30.5-9.9-36.7-24H288h16V224zM253.1 464C146.4 464 58.7 382.5 48.9 278.4C62.1 294 81.9 304 104 304H248v48H208h-8H160h-8v16h8 40 8 48 8H368h8v-8-8c0-39.7 32.1-71.8 71.7-72h.3v0h8v-8V192h56v67.2 17 87.7l-52.6 37.6-6.5 4.6 9.3 13 6.5-4.6 56-40 3.4-2.4V368 269.1c23.9-13.9 40-39.9 40-69.6c0-32.5-15.1-63.1-40.8-82.9L493 90.4l4.8 1.3C572.3 112 624 179.7 624 256.9C624 371.3 531.3 464 416.9 464H253.1zM112 144a16 16 0 1 0 -32 0 16 16 0 1 0 32 0zm112 16a16 16 0 1 0 0-32 16 16 0 1 0 0 32zm-88 16V160h16 16 16v16l-24 16-24-16z"/></svg>