<svg xmlns="http://www.w3.org/2000/svg" viewBox="0 0 448 512"><!--! Font Awesome Pro 6.5.1 by @fontawesome - https://fontawesome.com License - https://fontawesome.com/license (Commercial License) Copyright 2023 Fonticons, Inc. --><path d="M16 48V464H432V48H16zM0 32H16 432h16V48 464v16H432 16 0V464 48 32zM80 256c0 39.4 15.7 67.9 31.5 86.7c7.9 9.5 15.9 16.4 21.8 21c2.3 1.8 4.3 3.2 5.8 4.3H308.9c1.5-1 3.5-2.5 5.8-4.3c5.9-4.6 13.8-11.6 21.8-21C352.3 323.9 368 295.4 368 256s-15.7-67.9-31.5-86.7c-7.9-9.5-15.9-16.4-21.8-21c-2.3-1.8-4.3-3.2-5.8-4.3H139.1c-1.5 1-3.5 2.5-5.8 4.3c-5.9 4.6-13.8 11.6-21.8 21C95.7 188.1 80 216.6 80 256zm-16 0c0-88 70.4-128 70.4-128H313.6s70.4 40 70.4 128s-70.4 128-70.4 128H134.4s-70.4-40-70.4-128zm104-64v8 64 8H152v-8V200v-8h16zm128 0v8 64 8H280v-8V200v-8h16zM240 304c0-8.8-7.2-16-16-16s-16 7.2-16 16v16h32V304zm-48 0c0-17.7 14.3-32 32-32s32 14.3 32 32v16 16H240 208 192V320 304z"/></svg>