<svg xmlns="http://www.w3.org/2000/svg" viewBox="0 0 448 512"><!--! Font Awesome Pro 6.5.1 by @fontawesome - https://fontawesome.com License - https://fontawesome.com/license (Commercial License) Copyright 2023 Fonticons, Inc. --><path d="M16 16V160H432V16H16zM0 168V16 0H16 432h16V16 168 496v16H432 16 0V496 168zm432 8H16V496H432V176zM80 80a16 16 0 1 1 0 32 16 16 0 1 1 0-32zm80 16a16 16 0 1 1 32 0 16 16 0 1 1 -32 0zM272 80a16 16 0 1 1 0 32 16 16 0 1 1 0-32zm80 16a16 16 0 1 1 32 0 16 16 0 1 1 -32 0zM80 240V432H368V240H80zM64 224H80 368h16v16V432v16H368 80 64V432 240 224zm64 64h8H312h8v16h-8H136h-8V288z"/></svg>