<svg xmlns="http://www.w3.org/2000/svg" viewBox="0 0 576 512"><!--! Font Awesome Pro 6.5.1 by @fontawesome - https://fontawesome.com License - https://fontawesome.com/license (Commercial License) Copyright 2023 Fonticons, Inc. --><path d="M187.2 308.6l49.4-105.8L510 20.6 555.4 66 373.2 339.4 267.4 388.8l-80.2-80.2zm68.4 91c.3 2.8 .4 5.6 .4 8.4c0 46.3-35.8 84.3-81.2 87.7l-3.4 .3H168 32 16V464H32 64 80V448 408c0-48.6 39.4-88 88-88c2.8 0 5.6 .1 8.4 .4l79.2 79.2zm16.3 4.7L384 352 576 64 512 0 224 192 171.7 304.1c-1.2 0-2.5-.1-3.7-.1c-57.4 0-104 46.6-104 104v24 16H48 32 16 0v16 32 16H16 32 160h8 8v-.3c53.7-4.1 96-49 96-103.7c0-1.2 0-2.5-.1-3.7z"/></svg>