<svg xmlns="http://www.w3.org/2000/svg" viewBox="0 0 576 512"><!--! Font Awesome Pro 6.5.1 by @fontawesome - https://fontawesome.com License - https://fontawesome.com/license (Commercial License) Copyright 2023 Fonticons, Inc. --><path d="M492.7 11.3L504 0l11.3 11.3 49.4 49.4L576 72 564.7 83.3l-295 295L268 380l.3 .3c2.4 8.8 3.7 18.1 3.7 27.7c0 54.7-42.3 99.6-96 103.7v.3h-8-8H64 32 16 0V496 464 448H16 32 48 64V432 408c0-57.4 46.6-104 104-104c9.6 0 18.9 1.3 27.7 3.7l.3 .3 1.7-1.7 295-295zM258.3 367L339 286.3 289.7 237 209 317.7 258.3 367zM192 323.3c-7.6-2.2-15.7-3.3-24-3.3c-48.6 0-88 39.4-88 88v40 16H64 32 16v32H32 64 168h3.4l3.4-.3c45.4-3.5 81.2-41.4 81.2-87.7c0-8.3-1.2-16.4-3.3-24L192 323.3zM553.4 72L504 22.6l-203 203L350.3 275l203-203z"/></svg>