<svg xmlns="http://www.w3.org/2000/svg" viewBox="0 0 640 512"><!--! Font Awesome Pro 6.5.1 by @fontawesome - https://fontawesome.com License - https://fontawesome.com/license (Commercial License) Copyright 2023 Fonticons, Inc. --><path d="M304 16H80V272H304V16zM80 0H304h16V16 272v16H304 80 64V272 16 0H80zM560 112H400V272H560V112zM400 96H560h16v16V272v16H560 400 384V272 112 96h16zM0 352H8 80h8 8H312h8 8H544h8 8 72 8v16h-8H560V496h72 8v16h-8H560h-8-8H328h-8-8H96 88 80 8 0V496H8 80V368H8 0V352zM96 496H312V368H96V496zm232 0H544V368H328V496z"/></svg>