<svg xmlns="http://www.w3.org/2000/svg" viewBox="0 0 640 512"><!--! Font Awesome Pro 6.5.1 by @fontawesome - https://fontawesome.com License - https://fontawesome.com/license (Commercial License) Copyright 2023 Fonticons, Inc. --><path d="M496 16V272H144V16H256V124v20l16-12 48-36 48 36 16 12V124 16H496zM272 16h96v96L329.6 83.2 320 76l-9.6 7.2L272 112V16zM496 0H384 368 272 256 144 128V16 272v16h16H496h16V272 16 0H496zM0 352v16H8 80V496H8 0v16H8 80h8 8H312h8 8H544h8 8 72 8V496h-8H560V368h72 8V352h-8H560h-8-8H328h-8-8H96 88 80 8 0zM96 496V368H312V496H96zm232 0V368H544V496H328z"/></svg>