<svg xmlns="http://www.w3.org/2000/svg" viewBox="0 0 384 512"><!--! Font Awesome Pro 6.5.1 by @fontawesome - https://fontawesome.com License - https://fontawesome.com/license (Commercial License) Copyright 2023 Fonticons, Inc. --><path d="M304 16h40 8V0h-8H208h-8H184 136C78.6 0 32 46.6 32 104s46.6 104 104 104h56V312v8h16v-8l0-104v-8V24 16h80V312v8h16v-8V16zM192 24V192H136c-48.6 0-88-39.4-88-88s39.4-88 88-88h48 8v8zM109.4 341.9l5.9-5.4-10.8-11.8-5.9 5.4-88 80L4.1 416l6.5 5.9 88 80 5.9 5.4 10.8-11.8-5.9-5.4L36.7 424H376h8V408h-8H36.7l72.7-66.1z"/></svg>