<svg xmlns="http://www.w3.org/2000/svg" viewBox="0 0 512 512"><!--! Font Awesome Pro 6.5.1 by @fontawesome - https://fontawesome.com License - https://fontawesome.com/license (Commercial License) Copyright 2023 Fonticons, Inc. --><path d="M512 224c0-5.2-.2-10.6-.7-16C503.3 114.4 425.4 0 256 0S8.7 114.4 .7 208c-.5 5.4-.7 10.8-.7 16H16 52.7L160 331.3V336 496v16h16H336h16V496 336v-4.7L459.3 224H496h16zm-75.3 0l-96 96H336 264V224H383.6h16 37.1zM248 224v96H176h-4.7l-96-96h37.1 16H248zm88 272H176V336H336V496zM16.8 208C23.5 134.9 76.6 47.1 190.6 22.6C144 57 112 127.1 112 208H16.8zM167.3 70c24-34.7 55.6-54 88.7-54s64.6 19.3 88.7 54c24 34.6 39.3 83.4 39.3 138H128c0-54.6 15.3-103.3 39.3-138zm154-47.4C435.4 47.1 488.5 134.9 495.2 208H400c0-80.9-32-151-78.6-185.4z"/></svg>