<svg xmlns="http://www.w3.org/2000/svg" viewBox="0 0 512 512"><!--! Font Awesome Pro 6.5.1 by @fontawesome - https://fontawesome.com License - https://fontawesome.com/license (Commercial License) Copyright 2023 Fonticons, Inc. --><path d="M128.6 41.6L127.3 48h-6.5H80V64 96H240V64 48H199.2h-6.5l-1.3-6.4C188.4 27 175.5 16 160 16s-28.4 11-31.4 25.6zM64 48V40 32h8 42.7C121.3 13.4 139.1 0 160 0s38.7 13.4 45.3 32H248h8v8 8h48 16V64 96H304V64H256v40 8h-8H72 64v-8V64H16V432H192v16H16 0V432 64 48H16 64zM496 496V230.6L409.4 144H240V496H496zm16-272V496v16H496 240 224V496 144 128h16H416l96 96z"/></svg>