<svg xmlns="http://www.w3.org/2000/svg" viewBox="0 0 512 512"><!--! Font Awesome Pro 6.5.1 by @fontawesome - https://fontawesome.com License - https://fontawesome.com/license (Commercial License) Copyright 2023 Fonticons, Inc. --><path d="M416 16C195.1 16 16 195.1 16 416v80H96c220.9 0 400-179.1 400-400V16H416zm0-16h80 16V16 96c0 229.8-186.2 416-416 416H16 0V496 416C0 186.2 186.2 0 416 0zM304 144a64 64 0 1 1 128 0 64 64 0 1 1 -128 0zm64 48a48 48 0 1 0 0-96 48 48 0 1 0 0 96zm-112 0a64 64 0 1 1 0 128 64 64 0 1 1 0-128zm48 64a48 48 0 1 0 -96 0 48 48 0 1 0 96 0zM144 304a64 64 0 1 1 0 128 64 64 0 1 1 0-128zm48 64a48 48 0 1 0 -96 0 48 48 0 1 0 96 0z"/></svg>