<svg xmlns="http://www.w3.org/2000/svg" viewBox="0 0 512 512"><!--! Font Awesome Pro 6.5.1 by @fontawesome - https://fontawesome.com License - https://fontawesome.com/license (Commercial License) Copyright 2023 Fonticons, Inc. --><path d="M442.3 143l47-47L416 22.6l-47 47L442.3 143zM431 154.3L357.7 81 174.4 264.2 150 362l97.8-24.5L431 154.3zM352 64l5.7-5.7 47-47L416 0l11.3 11.3 73.4 73.4L512 96l-11.3 11.3-47 47L448 160l-5.7 5.7L256 352 145.6 379.6 128 384l4.4-17.6L160 256 346.3 69.7 352 64zM0 72c0-4.4 3.6-8 8-8H216h8V80h-8H16V496H432V296v-8h16v8V504c0 4.4-3.6 8-8 8H8c-4.4 0-8-3.6-8-8V72z"/></svg>