<svg xmlns="http://www.w3.org/2000/svg" viewBox="0 0 640 512"><!--! Font Awesome Pro 6.5.1 by @fontawesome - https://fontawesome.com License - https://fontawesome.com/license (Commercial License) Copyright 2023 Fonticons, Inc. --><path d="M570.3 143L497 69.7l47-47L617.4 96l-47 47zM480 64l-5.7 5.7L320 224 292.4 334.4 288 352l17.6-4.4L416 320 570.3 165.7 576 160l5.7-5.7 47-47L640 96 628.7 84.7 555.3 11.3 544 0 532.7 11.3l-47 47L480 64zm5.7 17L559 154.3 407.8 305.6 310 330l24.5-97.8L485.7 81zM8 128H0v8V504v8H8 568h8v-8V264v-8H560v8V496H16V144H312h8V128h-8H8zM144 304H112v32h32V304zm64 0v32h32V304H208z"/></svg>