<svg xmlns="http://www.w3.org/2000/svg" viewBox="0 0 512 512"><!--! Font Awesome Pro 6.5.1 by @fontawesome - https://fontawesome.com License - https://fontawesome.com/license (Commercial License) Copyright 2023 Fonticons, Inc. --><path d="M0 512l4.4-17.6L40 352 380.7 11.3 392 0l11.3 11.3 97.4 97.4L512 120l-11.3 11.3L160 472 17.6 507.6 0 512zM160 408v41.4l251-251L313.7 101 62.6 352H104h8v8 40h40 8v8zm-16 48V416H104 96v-8V368H56c-1.2 0-2.3-.3-3.3-.7L22 490l122.7-30.7c-.5-1-.7-2.1-.7-3.3zM422.3 187l67-67L392 22.6l-67 67L422.3 187zM317.7 173.1l-144 144-5.7 5.7-11.3-11.3 5.7-5.7 144-144 5.7-5.7 11.3 11.3-5.7 5.7z"/></svg>