<svg xmlns="http://www.w3.org/2000/svg" viewBox="0 0 640 512"><!--! Font Awesome Pro 6.5.1 by @fontawesome - https://fontawesome.com License - https://fontawesome.com/license (Commercial License) Copyright 2023 Fonticons, Inc. --><path d="M128 48a40 40 0 1 1 0 80 40 40 0 1 1 0-80zm0 96a56 56 0 1 0 0-112 56 56 0 1 0 0 112zM512 48a40 40 0 1 1 0 80 40 40 0 1 1 0-80zm0 96a56 56 0 1 0 0-112 56 56 0 1 0 0 112zM72 264v-8H56v8 89.7L18.6 287.6 61.2 192H200.6l7.1-16H56 50.8l-2.1 4.7L2.3 284.7 .6 288.4l2 3.5L56 386.1V456v8h8H192h8v-8V366.3l-16-28.2V448H72V264zm384 74.1l-16 28.2V456v8h8H576h8v-8V386.1l53.4-94.2 2-3.5-1.6-3.7-46.4-104-2.1-4.7H584 432.2l7.1 16H578.8l42.6 95.6L584 353.7V264v-8H568v8V448H456V338.1zM272 96a48 48 0 1 1 96 0 48 48 0 1 1 -96 0zm112 0A64 64 0 1 0 256 96a64 64 0 1 0 128 0zM264 272H248v8 73.7l-37.4-66.1L253.2 192H386.8l42.6 95.6L392 353.7V280v-8H376v8V464H264V280v-8zM248 386.1V472v8h8H384h8v-8V386.1l53.4-94.2 2-3.5-1.6-3.7-46.4-104-2.1-4.7H392 248h-5.2l-2.1 4.7-46.4 104-1.6 3.7 2 3.5L248 386.1z"/></svg>