<svg xmlns="http://www.w3.org/2000/svg" viewBox="0 0 576 512"><!--! Font Awesome Pro 6.5.1 by @fontawesome - https://fontawesome.com License - https://fontawesome.com/license (Commercial License) Copyright 2023 Fonticons, Inc. --><path d="M158.1 142.9L209.6 224H240h16 16v16 32 16H256 240 192 174.4L168 277.9l-3-4.8-13-20.5v28.7 1.2V480v16 16H136 104 88V496 480 368 352H72v16l0 112 0 16 0 16H56 24 8V496 480 336 320H8V304 288 160 144 128H24 40 80h51.1 17.6l9.4 14.9zM240 240H209.6h-8.8l-4.7-7.4-51.5-81.1-4.7-7.4h-8.8H40 24v16V288v16h0v16V480v16H56V480 352 336H72 88h16v16V480v16h32V480 252.7 197.6l29.5 46.5 13 20.5 4.7 7.4H192h48 16V240H240zM120 56A40 40 0 1 0 40 56a40 40 0 1 0 80 0zM24 56a56 56 0 1 1 112 0A56 56 0 1 1 24 56zM306.9 39.8L329 128h47 16v0h7.9l.1 0 .1 0H408l0 0h16 47l22.1-88.2L497 24.2l15.5 3.9 31 7.8L559 39.8l-3.9 15.5L527 167.8 521 192H496h-8H472v16V480v16 16H456 424 408V496 480 368 352H392v16l0 112 0 16 0 16H376 344 328V496 480 208 192H312h-8H279L273 167.8 244.8 55.3 241 39.8l15.5-3.9 31-7.8L303 24.2l3.9 15.5zM329 144H316.5l-3-12.1L291.4 43.6l-31 7.8 28.1 112.5 3 12.1H304h24 16v16V480v16h32V480 352 336h16 16 16v16V480v16h32V480 192 176h16 24 12.5l3-12.1L539.6 51.4l-31-7.8-22.1 88.2-3 12.1H471 424v0H408 392 376v0H329zM440 56a40 40 0 1 0 -80 0 40 40 0 1 0 80 0zm-40.2 56C369 111.9 344 86.9 344 56c0-30.9 25.1-56 56-56s56 25.1 56 56c0 30.9-24.9 55.9-55.8 56l-.1 0-.1 0-.1 0-.1 0z"/></svg>