<svg xmlns="http://www.w3.org/2000/svg" viewBox="0 0 512 512"><!--! Font Awesome Pro 6.5.1 by @fontawesome - https://fontawesome.com License - https://fontawesome.com/license (Commercial License) Copyright 2023 Fonticons, Inc. --><path d="M128 16a48 48 0 1 1 0 96 48 48 0 1 1 0-96zm0 112A64 64 0 1 0 128 0a64 64 0 1 0 0 128zM47.3 176H208.7l6.7 160H192 144 112 64 40.7l6.7-160zM120 352h16V504v8h8 48 8v-8V352h16 16l-.7-16L224 160H32L24.7 336 24 352H40 56V504v8h8 48 8v-8V352zm64 144H152V352h32V496zM104 352V496H72V352h32zM384 16a48 48 0 1 1 0 96 48 48 0 1 1 0-96zm0 112A64 64 0 1 0 384 0a64 64 0 1 0 0 128zm-80.7 48H464.7l6.7 160H448 400 368 320 296.7l6.7-160zM376 352h16V504v8h8 48 8v-8V352h16 16l-.7-16L480 160H288l-7.3 176-.7 16h16 16V504v8h8 48 8v-8V352zm64 144H408V352h32V496zM360 352V496H328V352h32z"/></svg>