<svg xmlns="http://www.w3.org/2000/svg" viewBox="0 0 640 512"><!--! Font Awesome Pro 6.5.1 by @fontawesome - https://fontawesome.com License - https://fontawesome.com/license (Commercial License) Copyright 2023 Fonticons, Inc. --><path d="M128 112a48 48 0 1 0 0-96 48 48 0 1 0 0 96zM128 0a64 64 0 1 1 0 128A64 64 0 1 1 128 0zM47.3 176L40.7 336H64h48 31.4l16 16H152V496h32V376.6l16 16V504v8h-8H144h-8v-8V352H120V504v8h-8H64 56v-8V352H40 24l.7-16L32 160H224l1.3 30.2-13.5 13.5-1.8 1.8L208.7 176H47.3zM440 504V392.6l16-16V496h32V352h-7.4l16-16H528h48 23.3l-6.7-160H431.3l-1.2 29.5-1.8-1.8-13.5-13.5L416 160H608l7.3 176 .7 16H600 584V504v8h-8H528h-8v-8V352H504V504v8h-8H448h-8v-8zM104 352H72V496h32V352zM512 112a48 48 0 1 0 0-96 48 48 0 1 0 0 96zM512 0a64 64 0 1 1 0 128A64 64 0 1 1 512 0zm56 496V352H536V496h32zM245.7 237.7L187.3 296H452.7l-58.3-58.3-5.7-5.7L400 220.7l5.7 5.7 72 72 5.7 5.7-5.7 5.7-72 72-5.7 5.7L388.7 376l5.7-5.7L452.7 312H187.3l58.3 58.3 5.7 5.7L240 387.3l-5.7-5.7-72-72-5.7-5.7 5.7-5.7 72-72 5.7-5.7L251.3 232l-5.7 5.7z"/></svg>