<svg xmlns="http://www.w3.org/2000/svg" viewBox="0 0 640 512"><!--! Font Awesome Pro 6.5.1 by @fontawesome - https://fontawesome.com License - https://fontawesome.com/license (Commercial License) Copyright 2023 Fonticons, Inc. --><path d="M324.4 2.9L320 0l-4.4 3-312 208 8.9 13.3L320 19.2l307.6 205 8.9-13.3-312-208zM496 272a24 24 0 1 1 0 48 24 24 0 1 1 0-48zm0 64a40 40 0 1 0 0-80 40 40 0 1 0 0 80zm83 152.5l3.9 7 7.8 14 14-7.8 14-7.8 14-7.8-7.8-14-3.9-7L565 364.3 558.1 352H544 448 433.9L427 364.3 371 465.1l-3.9 7-7.8 14 14 7.8 14 7.8 14 7.8 7.8-14 3.9-7 11-19.8 16-28.8v32.9V496v16h16 80 16V496 472.8 439.8l16 28.8 11 19.8zm-43-48.6V496H456V439.8 400H443.8L426 432l-27 48.6-3.9 7-14-7.8 3.9-7 56-100.8 2.3-4.1H448h96 4.7l2.3 4.1 56 100.8 3.9 7-14 7.8-3.9-7L566 432l-17.8-32H536v39.8zM120 296a24 24 0 1 1 48 0 24 24 0 1 1 -48 0zm64 0a40 40 0 1 0 -80 0 40 40 0 1 0 80 0zm32 172.6l11 19.8 3.9 7 7.8 14 14-7.8 14-7.8 14-7.8-7.8-14-3.9-7L213 364.3 206.1 352H192 96 81.9L75 364.3 19 465.1l-3.9 7-7.8 14 14 7.8 14 7.8 14 7.8 7.8-14 3.9-7 11-19.8 16-28.8v32.9V496v16h16 80 16V496 472.8 439.8l16 28.8zM184 496H104V439.8 400H91.8L74 432 47 480.7l-3.9 7-14-7.8 3.9-7L89 372.1l2.3-4.1H96h96 4.7l2.3 4.1 56 100.8 3.9 7-14 7.8-3.9-7L214 432l-17.8-32H184v39.8V496zM320 160a24 24 0 1 1 0 48 24 24 0 1 1 0-48zm0 64a40 40 0 1 0 0-80 40 40 0 1 0 0 80zm69 28.3L382.1 240H368 272 257.9L251 252.3 213.4 320H225l3.4 6.1 36.7-66 2.3-4.1H272h96 4.7l2.3 4.1 36.7 66L415 320h11.5L389 252.3zm1 67.7l-17.8-32H360v39.8V384l0 0 0 0v16h0 10.6l5.4 0v-9.7l0 0V384 360.8 327.8l16 28.8 1.4 2.4 9.2-16.5L390 320zM280 384V327.8 288H267.8L250 320l-12.5 22.5 9.2 16.5 1.4-2.4 16-28.8v32.9V384l0 0v16l5.4 0H280l0 0V384l0 0z"/></svg>