<svg xmlns="http://www.w3.org/2000/svg" viewBox="0 0 640 512"><!--! Font Awesome Pro 6.5.1 by @fontawesome - https://fontawesome.com License - https://fontawesome.com/license (Commercial License) Copyright 2023 Fonticons, Inc. --><path d="M213.9 231.2l-59.3-88.9L145.1 128H128 80 64 48v16 16V274.7c0 17 6.7 33.3 18.7 45.3l22.6 22.6 56.7 56.7 6.3 37.9 8 48 4 24 .5 2.7h48.7 16.2l-2.2-13.3-.5-2.7-3.5-21.3-8-48-8-48-1.7-10.1-7.3-7.3L144 306.7V270.5 241.7l16 24 5.4 8.1 4.7 7.1 7.6 3.8 65.7 32.8 14.3 7.2L260 320H378.3l2.3 4.6 14.3-7.2 65.7-32.8 7.6-3.8 4.7-7.1 5.4-8.1 16-24v28.8 36.2l-54.6 54.6-7.3 7.3-1.7 10.1-8 48-8 48L411.2 496l-.5 2.7L408.5 512h16.2 48.7l.5-2.7 4-24 8-48 6.3-37.9 56.7-56.7L571.6 320c12-12 18.7-28.3 18.7-45.3V160 144 128h-16-16-48H493.2l-9.5 14.3-59.3 88.9-8.4 4.2V136v-8h-8H232h-8v8V236.2l-10.1-5zm26.1 13V144H400v99.4l-33.7 16.8L352 267.4l7.2 14.3L370.3 304H268l11.2-22.3 7.2-14.3L272 260.2l-32-16zm24.8 30.3l-14.3 28.6-65.7-32.8-3.8-1.9-2.4-3.5-21.4-32.1-29.3-44v52.8 65.1 6.6l4.7 4.7 54.6 54.6 3.6 3.6 .8 5.1 8 48 8 48 3.1 18.6H178.5l-2.2-13.4-8-48-6.3-37.9-.8-5.1-3.6-3.6-56.7-56.7L78.1 308.7c-9-9-14.1-21.2-14.1-33.9V160 144H80h48 8.6l4.7 7.1 59.3 88.9 2.4 3.5 3.8 1.9 58.1 29zM128 16a32 32 0 1 1 0 64 32 32 0 1 1 0-64zm48 32A48 48 0 1 0 80 48a48 48 0 1 0 96 0zM373.5 274.5l58.1-29 3.8-1.9 2.4-3.5L497 151.1l4.7-7.1h8.6 48 16v16V274.7c0 12.7-5.1 24.9-14.1 33.9l-22.6 22.6-56.8 56.7-3.6 3.6-.8 5.1-6.3 37.9-8 48L459.9 496H427.4l3.1-18.6 8-48 8-48 .8-5.1 3.6-3.6 54.6-54.6 4.7-4.7v-6.6V241.7 188.8l-29.3 44-21.4 32.1-2.4 3.5-3.8 1.9-65.7 32.8-14.3-28.6zM510.3 16a32 32 0 1 1 0 64 32 32 0 1 1 0-64zm-48 32a48 48 0 1 0 96 0 48 48 0 1 0 -96 0zM9.5 486.3L6.4 496 1.3 512H18.1 68.5l2-6.3 33-103.7L90.8 389.3 56.8 496H23.2l1.5-4.9L65.3 363.8 52.5 351 9.5 486.3zM588.3 351l-12.7 12.7 40.5 127.4 1.5 4.9H584l-34-106.7L537.3 402l33 103.7 2 6.3h50.4 16.8l-5.1-16-3.1-9.7L588.3 351z"/></svg>