<svg xmlns="http://www.w3.org/2000/svg" viewBox="0 0 640 512"><!--! Font Awesome Pro 6.5.1 by @fontawesome - https://fontawesome.com License - https://fontawesome.com/license (Commercial License) Copyright 2023 Fonticons, Inc. --><path d="M120 56a40 40 0 1 1 80 0 40 40 0 1 1 -80 0zm96 0A56 56 0 1 0 104 56a56 56 0 1 0 112 0zM100.9 128h-5l-2.2 4.5L8.8 308.5l-3.5 7.2 14.4 7 3.5-7.2L105.9 144H214.1l82.7 171.5 3.5 7.2 14.4-7-3.5-7.2-84.9-176-2.2-4.5h-5H100.9zM104 240H88v8V504v8h8 48 8v-8V352h16V504v8h8 48 8v-8V248v-8H216v8V496H184V344v-8h-8H144h-8v8V496H104V248v-8zM440 56a40 40 0 1 1 80 0 40 40 0 1 1 -80 0zm96 0A56 56 0 1 0 424 56a56 56 0 1 0 112 0zM439.6 210.5l2.5-7.6-15.2-5.1-2.5 7.6-56 168L364.9 384H376h32V504v8h8 48 8v-8V384h16V504v8h8 48 8v-8V384h32 11.1l-3.5-10.5-56-168-2.5-7.6-15.2 5.1 2.5 7.6L572.9 368H552 536 504 488 472 456 424 408 387.1l52.5-157.5zM424 496V384h32V496H424zm80-112h32V496H504V384zM415.9 128l-2.2 4.5-84.9 176-3.5 7.2 14.4 7 3.5-7.2L425.9 144H534.1l82.7 171.5 3.5 7.2 14.4-7-3.5-7.2-84.9-176-2.2-4.5h-5H420.9h-5z"/></svg>