<svg xmlns="http://www.w3.org/2000/svg" viewBox="0 0 640 512"><!--! Font Awesome Pro 6.5.1 by @fontawesome - https://fontawesome.com License - https://fontawesome.com/license (Commercial License) Copyright 2023 Fonticons, Inc. --><path d="M320 96a24 24 0 1 0 0-48 24 24 0 1 0 0 48zm0-64a40 40 0 1 1 0 80 40 40 0 1 1 0-80zm69 108.3L426.6 208H415l-3.4 6.1-36.7-66-2.3-4.1H368 272h-4.7l-2.3 4.1-36.7 66L225 208H213.4L251 140.3l6.9-12.3H272h96 14.1l6.9 12.3zm1 67.7l12.5 22.5-9.2 16.5-1.4-2.4-16-28.8v32.9V272h0v16h-5.4H360h0 0V272h0V215.8 176h12.2L390 208zM280 272v16h0H269.4 264v-9.7l0 0V272 248.8 215.8l-16 28.8-1.4 2.4-9.2-16.5L250 208l17.8-32H280v39.8V272h0zm216-64a24 24 0 1 0 0-48 24 24 0 1 0 0 48zm0-64a40 40 0 1 1 0 80 40 40 0 1 1 0-80zm83 232.5l-11-19.8-16-28.8v32.9V384v16H536 456 440V384 360.8 327.8l-16 28.8-11 19.8-3.9 7-7.8 14-14-7.8-14-7.8-14-7.8 7.8-14 3.9-7 56-100.8 6.9-12.3H448h96 14.1l6.9 12.3 56 100.8 3.9 7 7.8 14-14 7.8-14 7.8-14 7.8-7.8-14-3.9-7zm-43-48.6V288h12.2L566 320l27 48.6 3.9 7 14-7.8-3.9-7L551 260.1l-2.3-4.1H544 448h-4.7l-2.3 4.1L385 360.9l-3.9 7 14 7.8 3.9-7L426 320l17.8-32H456v39.8V384h80V327.8zM8 464H632h8v16h-8H8 0V464H8zM168 184a24 24 0 1 0 -48 0 24 24 0 1 0 48 0zm-64 0a40 40 0 1 1 80 0 40 40 0 1 1 -80 0zM216 356.6l-16-28.8v32.9V384v16H184 104 88V384 360.8 327.8L72 356.6 61 376.5l-3.9 7-7.8 14-14-7.8-14-7.8-14-7.8 7.8-14 3.9-7L75 252.3 81.9 240H96h96 14.1l6.9 12.3 56 100.8 3.9 7 7.8 14-14 7.8-14 7.8-14 7.8-7.8-14-3.9-7-11-19.8zM184 384V327.8 288h12.2L214 320l27 48.6 3.9 7 14-7.8-3.9-7L199 260.1l-2.3-4.1H192 96 91.3L89 260.1 33 360.9l-3.9 7 14 7.8 3.9-7L74 320l17.8-32H104v39.8V384h80z"/></svg>