<svg xmlns="http://www.w3.org/2000/svg" viewBox="0 0 512 512"><!--! Font Awesome Pro 6.5.1 by @fontawesome - https://fontawesome.com License - https://fontawesome.com/license (Commercial License) Copyright 2023 Fonticons, Inc. --><path d="M274.7 204.8l-58.7-66.1L206.4 128H192 104 84.7l-9 17L11.2 266.9 3.7 281l14.1 7.5 28.3 15L60.3 311l3.7-7 3.8-7.1L80 273.7v34.2V480v16 16H96h32 16V496 480 368 352h16 4.2L192 407.6V480v16 16h16 32 16V496 480 400v-7.6l-3.4-6.8L216 312.4V259.3 235.2l16 18 .1 .1 5.3 5.9 7.4 2.8 63.3 23.8-11.6 31.5-2.8 7.5 15 5.5 2.8-7.5 11.6-31.4 .7 .2 15 5.6 5.6-15 11.2-30 5.6-15-15-5.6-1-.4 16.1-43.7 82.9 30.8 15 5.6 5.4-15.1L512 75.6 415.8 39.8l9.2-25 2.8-7.5-15-5.5-2.8 7.5-9.2 24.9L323.8 5.6 308.8 0l-5.4 15.1L256 148.4 346.3 182l-16.1 43.7-55.6-20.8zm65.9 41.8l-11.2 30-15-5.6-64-24-3.7-1.4-2.6-3L228 224.5l-28-31.5v42.1 77.3 3.8l1.7 3.4 36.6 73.2 1.7 3.4V400v80 16H208V480 407.6v-3.8l-1.7-3.4-27.8-55.6-4.4-8.8h-9.9H144 128v16V480v16H96V480 273.7 209.3L65.9 266.2 53.6 289.3l-28.3-15L89.9 152.5l4.5-8.5H104h88 7.2l4.8 5.4 58.7 66.1 2.6 3 3.7 1.4L325.6 241l15 5.6zM144 16a32 32 0 1 1 0 64 32 32 0 1 1 0-64zm0 80a48 48 0 1 0 0-96 48 48 0 1 0 0 96zM318.5 20.7L491.6 85.1 449.5 203.3 276.4 138.9 318.5 20.7z"/></svg>