<svg xmlns="http://www.w3.org/2000/svg" viewBox="0 0 576 512"><!--! Font Awesome Pro 6.5.1 by @fontawesome - https://fontawesome.com License - https://fontawesome.com/license (Commercial License) Copyright 2023 Fonticons, Inc. --><path d="M316.7 205.6l115.7 99.2c4.7-2.6 9.3-5.5 14.2-8.9l-107.3-92-12.2-10.4 11.3-11.3 6.1-6.1H456h24 16V160 112 96H480 456 328 311.4l-11.7 11.7-128 128L160 247.4V264v48.3c5.3 2 10.7 3.7 16 4.8V264v-9.9l7-7L311 119l7-7H328 456h24v48H456 344.6h-6.6l-4.7 4.7-17.5 17.5-12.2 12.2 13.1 11.2zM144 160a48 48 0 1 1 -96 0 48 48 0 1 1 96 0zM96 224A64 64 0 1 0 96 96a64 64 0 1 0 0 128zm.6 107c-.2-.3-.4-.6-.6-.9c-.2 .3-.4 .6-.6 .9c-4.3 6.1-8.5 12.2-13.3 17.9c-4.8 5.8-11.8 13.5-20.2 21.2C44.6 385.8 22.5 400 0 400v16c28.7 0 54.6-17.8 72.6-34.1c10.2-9.2 18.2-18.4 23.4-24.8c5.2 6.4 13.3 15.6 23.4 24.8c18 16.3 43.9 34.1 72.6 34.1s54.6-17.8 72.6-34.1c10.2-9.2 18.2-18.4 23.4-24.8c5.2 6.4 13.3 15.6 23.4 24.8c18 16.3 43.9 34.1 72.6 34.1s54.6-17.8 72.6-34.1c10.2-9.2 18.2-18.4 23.4-24.8c5.2 6.4 13.3 15.6 23.4 24.8c18 16.3 43.9 34.1 72.6 34.1V400c-22.5 0-44.6-14.2-61.8-29.9c-8.5-7.7-15.4-15.4-20.2-21.2c-4.8-5.8-9-11.8-13.3-17.9l-.6-.9-.6 .9c-4.3 6.1-8.5 12.1-13.3 17.9c-4.8 5.8-11.8 13.5-20.2 21.2C428.5 385.8 406.5 400 384 400s-44.6-14.2-61.8-29.9c-8.5-7.7-15.4-15.4-20.2-21.2c-4.8-5.8-9-11.8-13.3-17.9c-.2-.3-.4-.6-.6-.9c-.2 .3-.4 .6-.6 .9c-4.3 6.1-8.5 12.1-13.3 17.9c-4.8 5.8-11.8 13.5-20.2 21.2C236.5 385.8 214.5 400 192 400s-44.6-14.2-61.8-29.9c-8.5-7.7-15.4-15.4-20.2-21.2c-4.8-5.8-9-11.8-13.3-17.9z"/></svg>