<svg xmlns="http://www.w3.org/2000/svg" viewBox="0 0 640 512"><!--! Font Awesome Pro 6.5.1 by @fontawesome - https://fontawesome.com License - https://fontawesome.com/license (Commercial License) Copyright 2023 Fonticons, Inc. --><path d="M392 16a40 40 0 1 1 0 80 40 40 0 1 1 0-80zm0 96A56 56 0 1 0 392 0a56 56 0 1 0 0 112zM616 376a112 112 0 1 1 -224 0 112 112 0 1 1 224 0zM504 248a128 128 0 1 0 0 256 128 128 0 1 0 0-256zM240 384A112 112 0 1 1 16 384a112 112 0 1 1 224 0zM128 256a128 128 0 1 0 0 256 128 128 0 1 0 0-256zM325.1 121.8c-3-2.5-7.3-2.4-10.3 .1L235.3 190c-20.3 17.4-18.1 49.4 4.3 64L336 316.4V416v8h16v-8V312v-4.4l-3.7-2.4-100-64.7c-13.5-8.7-14.8-27.9-2.6-38.4l74.4-63.8 82.8 67.8 2.2 1.8H408h80 8V192h-8H410.9l-85.8-70.2z"/></svg>