<svg xmlns="http://www.w3.org/2000/svg" viewBox="0 0 512 512"><!--! Font Awesome Pro 6.5.1 by @fontawesome - https://fontawesome.com License - https://fontawesome.com/license (Commercial License) Copyright 2023 Fonticons, Inc. --><path d="M176 38.1l160-20V64H176V38.1zM336 2L160 24V64 80h16H336h16V64 16.1 0L336 2zM176 112c0 44.2 35.8 80 80 80s80-35.8 80-80c0-5.5-.6-10.8-1.6-16H318c1.3 5.1 2 10.5 2 16c0 35.3-28.7 64-64 64s-64-28.7-64-64c0-5.5 .7-10.9 2-16H177.6c-1 5.2-1.6 10.5-1.6 16zM368 396.8l29.4 49.8 8.1 13.8 13.8-8.1 41.3-24.4 13.8-8.1-8.1-13.8-84-142.1 38.7-67.1 8-13.9-13.9-8 8-13.9 48-83.1 8-13.9-13.9-8-13.9-8-13.9-8-13.9-8-8 13.9 13.9 8-8 13.9-40 69.3-8 13.9-13.9-8-8 13.9L313 224H176 153.2l-11.6 19.7L45.7 405.9l-8.1 13.8 13.8 8.1 41.3 24.4 13.8 8.1 8.1-13.8L144 396.8l16-27.1v31.5V496v16h16H336h16V496 401.2 369.7l16 27.1zM331.4 224l34.2-59.3 13.9 8 8-13.9 56-97 13.9 8-56 97-8 13.9 13.9 8L373 248l-2.6-4.3L358.8 224H336h-4.6zM336 481.3L180.4 240H336h13.7l7 11.8L452.5 414l-41.3 24.4-45.4-76.9L355.4 344H336v25.7V481.3zM326.5 496H176V369.7 344H156.6l-10.4 17.6-45.4 76.9L59.5 414l95.9-162.2 6.5-11L326.5 496zM304 288a16 16 0 1 1 0 32 16 16 0 1 1 0-32zm0 48a32 32 0 1 0 0-64 32 32 0 1 0 0 64z"/></svg>