<svg xmlns="http://www.w3.org/2000/svg" viewBox="0 0 448 512"><!--! Font Awesome Pro 6.5.1 by @fontawesome - https://fontawesome.com License - https://fontawesome.com/license (Commercial License) Copyright 2023 Fonticons, Inc. --><path d="M184 56a40 40 0 1 1 80 0 40 40 0 1 1 -80 0zm96 0A56 56 0 1 0 168 56a56 56 0 1 0 112 0zM136 248v-8H120v8V504v8h8 48 8v-8V352h16V504v8h8 48 8v-8V248v-8H248v8V496H216V344v-8h-8H176h-8v8V496H136V248zm224 88c13.3 0 24 10.7 24 24V504v8h16v-8V360c0-22.1-17.9-40-40-40s-40 17.9-40 40v16 8h16v-8V360c0-13.3 10.7-24 24-24zM132.9 128c-3.1 0-5.9 1.8-7.2 4.5l-84.9 176-3.5 7.2 14.4 7 3.5-7.2L137.9 144H246.8l98.5 148.4 4.4 6.7 13.3-8.9-4.4-6.7-100.9-152c-1.5-2.2-4-3.6-6.7-3.6H132.9z"/></svg>