<svg xmlns="http://www.w3.org/2000/svg" viewBox="0 0 576 512"><!--! Font Awesome Pro 6.5.1 by @fontawesome - https://fontawesome.com License - https://fontawesome.com/license (Commercial License) Copyright 2023 Fonticons, Inc. --><path d="M160 96a40 40 0 1 0 0-80 40 40 0 1 0 0 80zm0-96a56 56 0 1 1 0 112A56 56 0 1 1 160 0zM95.9 128h5H219.1h5l2.2 4.5 63.5 131.7c-3.7 5-7.1 10.2-10.2 15.6L214.1 144H105.9L23.2 315.5l-3.5 7.2-14.4-7 3.5-7.2 84.9-176 2.2-4.5zM104 248V496h32V344v-8h8 32 8v8V496h32V248v-8h16v8V504v8h-8H176h-8v-8V352H152V504v8h-8H96 88v-8V248v-8h16v8zM560 368a128 128 0 1 0 -256 0 128 128 0 1 0 256 0zm-272 0a144 144 0 1 1 288 0 144 144 0 1 1 -288 0zm205.7-50.3L443.3 368l50.3 50.3 5.7 5.7L488 435.3l-5.7-5.7L432 379.3l-50.3 50.3-5.7 5.7L364.7 424l5.7-5.7L420.7 368l-50.3-50.3-5.7-5.7L376 300.7l5.7 5.7L432 356.7l50.3-50.3 5.7-5.7L499.3 312l-5.7 5.7z"/></svg>