<svg xmlns="http://www.w3.org/2000/svg" viewBox="0 0 576 512"><!--! Font Awesome Pro 6.5.1 by @fontawesome - https://fontawesome.com License - https://fontawesome.com/license (Commercial License) Copyright 2023 Fonticons, Inc. --><path d="M340.3 240.2l-9.7-19.3L322.8 241l-22.2 57.1L369 340.9l20.4 12.8-6.6 23.2-32 112-2.1 7.2H416c0-.4 0-.8 .1-1.2L446.7 288H384 364.2l-8.8-17.7-15.1-30.1zM448 272h7.9 .3H464V240H448 403.8h-9.9l-4.4-8.8-39.2-78.3-2.7-5.4-5.6-2.3-80-32-2.9-1.1H256 192h-6.6l-4.7 4.7-48 48L121.4 176 144 198.6l11.3-11.3 38.6-38.6 4.7-4.7h6.6 27.7 22.2l-7 21.1-31.3 94c-7 21 1.3 44.1 20.1 55.9l86.2 53.9 10.2 6.4L330 386.8l-25.4 88.8L298.8 496h33.3l3.3-11.6 32-112 3.3-11.6-10.2-6.4-68.4-42.7-11.2-7 4.8-12.3 30-77.3 13.1-33.6L345 213.7l24.7 49.4 4.4 8.8H384h64zm16 16h-1.1L432.1 496H560V440v-8h16v8 64 8h-8H344.1 294.2 277.6 8 0V496H8 64c0-.5 0-1 .1-1.4l54.9-298.2-9-9L98.7 176l11.3-11.3 11.3-11.3 48-48 9.4-9.4H192h64 6.2l5.7 2.3 80 32 11.3 4.5 5.4 10.9L403.8 224H448h16 16v16 32 16H464zM132.8 210.1L80.1 496h37.1l0 0 73.6-157.7c3.7 4.1 7.8 8 12.3 11.5L134.9 496h35.3l60-128.6 13.7 8.5L187.8 496h94.3l7.1-24.8 25.4-88.8-86.2-53.9c-25.1-15.7-36.1-46.5-26.8-74.5l26-78 5.3-16H216.1 205.3l-38.6 38.6-11.3 11.3L144 221.3l-11.2-11.2zM336 80a32 32 0 1 0 0-64 32 32 0 1 0 0 64zM288 48a48 48 0 1 1 96 0 48 48 0 1 1 -96 0z"/></svg>