<svg xmlns="http://www.w3.org/2000/svg" viewBox="0 0 576 512"><!--! Font Awesome Pro 6.5.1 by @fontawesome - https://fontawesome.com License - https://fontawesome.com/license (Commercial License) Copyright 2023 Fonticons, Inc. --><path d="M224 0h8 46.1H288 568h8V8 440v8 56c0 4.4-3.6 8-8 8s-8-3.6-8-8V448H312h-8v-8V368v-1.2l.4-1.1 31.4-102L281.6 16H240V192H224V8 0zm73.9 16l53.9 246.3 .5 2.1-.6 2L320 369.2V432H560V16H297.9zM240 320V504c0 4.4-3.6 8-8 8s-8-3.6-8-8V320h16zm-82.7-96H224h16 16v16 32 16H240 224 144 130.7l-2.7-2.7-6.6-6.6-9.4-9.4 0 18.7 0 3.9 0 49.4 41.6 55.5 6.4 8.5V416v64 16 16H144 112 96V496 480 426.7L80 405.3 64 384v26.7V480v16 16H48 16 0V496 480 298.7l0 0V288 192 176 160H16 32 80 93.3l9.4 9.4L157.3 224zM240 240H224 157.3h-6.6l-4.7-4.7L91.3 180.7 86.6 176H80 32 16v16 96 5.3l0 0v5.3V480v16H48V480 384 336l28.8 38.4 32 42.7 3.2 4.3v5.3V480v16h32V480 416v-5.3l-3.2-4.3L99.2 350.9 96 346.7l0-5.3 0-72.1 0-38.6 27.3 27.3 9.4 9.4 4.7 4.7H144h80 16V240zM64 112a32 32 0 1 0 0-64 32 32 0 1 0 0 64zM16 80a48 48 0 1 1 96 0A48 48 0 1 1 16 80z"/></svg>