<svg xmlns="http://www.w3.org/2000/svg" viewBox="0 0 512 512"><!--! Font Awesome Pro 6.5.1 by @fontawesome - https://fontawesome.com License - https://fontawesome.com/license (Commercial License) Copyright 2023 Fonticons, Inc. --><path d="M260.2 4.4L256 1.8l-4.2 2.6-248 152L0 158.7v4.5V504v8H16v-8V167.7L256 20.6 496 167.7V504v8h16v-8V163.2v-4.5l-3.8-2.3-248-152zM232 168a24 24 0 1 1 48 0 24 24 0 1 1 -48 0zm64 0a40 40 0 1 0 -80 0 40 40 0 1 0 80 0zM216 296v-8H200v8V504v8h8 40 8 0 8 40 8v-8V296v-8H296v8V496H264V384v-8h0H248h0v8V496H216V296zm-11.1-72H200l-2.2 4.4-60.9 120-3.6 7.1 14.3 7.2 3.6-7.1L209.8 240h92.3l58.7 115.6 3.6 7.1 14.3-7.2-3.6-7.1-60.9-120L312 224h-4.9H204.9z"/></svg>