<svg xmlns="http://www.w3.org/2000/svg" viewBox="0 0 384 512"><!--! Font Awesome Pro 6.5.1 by @fontawesome - https://fontawesome.com License - https://fontawesome.com/license (Commercial License) Copyright 2023 Fonticons, Inc. --><path d="M80 80a32 32 0 1 0 0-64 32 32 0 1 0 0 64zM80 0a48 48 0 1 1 0 96A48 48 0 1 1 80 0zm37.4 273.7l-5.4-8.1-16-24v28.8 36.2l54.6 54.6 7.3 7.3 1.7 10.1 8 48 4 24 4 24 0 0 3.5 21.3 .5 2.7 2.2 13.3H165.6 116.9l-.5-2.7-4-24 0 0-4-24-4-24-6.3-37.9L41.4 342.6 18.7 320C6.7 308 0 291.7 0 274.7V160 144 128H16 32 80 97.1l9.5 14.3L161.1 224H224h16 16v16 32h32 80V112H208v80H192V112 96h16H368h16v16V272v16H368 256 240 224 208 192 144 126.9l-9.5-14.3zM192 272h16 16 16V240H224 161.1h-8.6l-4.8-7.1L93.3 151.1 88.6 144H80 32 16v16V274.7c0 12.7 5.1 24.9 14.1 33.9l22.6 22.6 56.8 56.7 3.6 3.6 .8 5.1 6.3 37.9 4 24 4 24 0 0 0 0 0 0 2.2 13.4h32.4l-3.1-18.6 0 0 0 0 0 0-4-24-4-24-8-48-.8-5.1-3.6-3.6L84.7 318.1 80 313.4v-6.6V241.7 188.8l29.3 44 21.4 32.1 4.7 7.1H144h48zM0 480L0 346.5l16 16L16 480l0 16 32 0 0-16 0-85.5 16 16v37.4L64 480l0 16 0 16-16 0-32 0L0 512l0-16 0-16z"/></svg>