<svg xmlns="http://www.w3.org/2000/svg" viewBox="0 0 448 512"><!--! Font Awesome Pro 6.5.1 by @fontawesome - https://fontawesome.com License - https://fontawesome.com/license (Commercial License) Copyright 2023 Fonticons, Inc. --><path d="M288 80A64 64 0 1 1 160 80a64 64 0 1 1 128 0zM224 0a80 80 0 1 0 0 160A80 80 0 1 0 224 0zM124 192h-4l-2.4 3.2L1.6 349.9 0 352l0 2.7 0 54.1 0 4.9 4.4 2.2 184 92 7.2 3.6 3.6-7.2 37.6-75.1 3.6-7.2-7.2-3.6-89.1-44.5v-70H176V344v3.3l2.3 2.3 48 48 1.1 1.1 1.4 .6 49.6 21.3-8.1 10.1-5 6.2 6.2 5 65.6 52.5 6.2 5 5-6.2L446.2 371l1.8-2.2 0-2.8 0-44.5 0-2.9-1.9-2.2L344.9 194.9l-2.4-2.9h-3.7H124zM353.6 326.8l-64.7 80.9-52.3-22.4L192 340.7V295.9v-8h-8H136.1h-8v8 82.9 4.9l4.4 2.2 86.3 43.2L188.4 490 16 403.8l0-46.4L128 208H335l97 116.4 0 38.8L341 477l-53.1-42.5 78.2-97.7 5-6.2-12.5-10-5 6.2zM272 376a48 48 0 1 0 0-96 48 48 0 1 0 0 96zm-32-48a32 32 0 1 1 64 0 32 32 0 1 1 -64 0z"/></svg>