<svg xmlns="http://www.w3.org/2000/svg" viewBox="0 0 512 512"><!--! Font Awesome Pro 6.5.1 by @fontawesome - https://fontawesome.com License - https://fontawesome.com/license (Commercial License) Copyright 2023 Fonticons, Inc. --><path d="M217 160l6.1 24.2L225 192h95 16 16v16 32 16H336 320 257.5 241l4 16 4 16H352h22.1l7.8 20.7 34.7 91.7 19.2-6 15.3-4.8 15.3-4.8 4.8 15.3 9.6 30.5 4.8 15.3-15.3 4.8-15.3 4.8-48 15.1-28.8 9-10.7-28.3L329.9 352H224h-7c-29.4 0-55-20-62.1-48.5L129 199.8 123 176l-4-16h16.5H160h32 25zm103 48H225 212.5l-3-12.1-1.9-7.8-3-12.1H192 160 139.5l5 19.9 25.9 103.8C175.8 321 195 336 217 336h7H329.9h11.1l3.9 10.3 37.5 99.3 5.3 14.1 14.4-4.5 48-15.1 15.3-4.8-9.6-30.5-15.3 4.8-19.2 6L407 420.2l-5.3-14.1L367 314.3 363.1 304H352 249 236.5l-3-12.1-8-32-5-19.9H241h79 16V208H320zM192 80a32 32 0 1 0 -64 0 32 32 0 1 0 64 0zm-80 0a48 48 0 1 1 96 0 48 48 0 1 1 -96 0zM32.2 137.6l15.7-3.2L102.5 400H296h8v16h-8H96 89.5l-1.3-6.4-56-272z"/></svg>