<svg xmlns="http://www.w3.org/2000/svg" viewBox="0 0 640 512"><!--! Font Awesome Pro 6.5.1 by @fontawesome - https://fontawesome.com License - https://fontawesome.com/license (Commercial License) Copyright 2023 Fonticons, Inc. --><path d="M392 96a40 40 0 1 0 0-80 40 40 0 1 0 0 80zm0-96a56 56 0 1 1 0 112A56 56 0 1 1 392 0zM314.8 121.9c2.9-2.5 7.3-2.6 10.3-.1L410.9 192H488h8v16h-8H408h-2.9l-2.2-1.8-82.8-67.8-74.4 63.8c-12.2 10.4-10.9 29.7 2.6 38.4l100 64.7 3.7 2.4V312 416v8H336v-8V316.4L239.6 254c-22.4-14.5-24.6-46.6-4.3-64l79.5-68.1zM482 256h60 8v8 13.6c3.6 1.3 7 2.7 10.4 4.3l9.6-9.6 5.7-5.7 5.7 5.7 42.4 42.4 5.7 5.7-5.7 5.7-9.6 9.6c1.6 3.4 3 6.8 4.3 10.4H632h8v8 60 8h-8H618.4c-1.3 3.6-2.7 7-4.3 10.4l9.6 9.6 5.7 5.7-5.7 5.7-42.4 42.4-5.7 5.7-5.7-5.7-9.6-9.6c-3.4 1.6-6.8 3-10.4 4.3V504v8h-8H482h-8v-8V490.4c-3.6-1.3-7-2.7-10.4-4.3l-9.6 9.6-5.7 5.7-5.7-5.7-42.4-42.4-5.7-5.7 5.7-5.7 9.6-9.6c-1.6-3.4-3-6.8-4.3-10.4H392h-8v-8V354v-8h8 13.6c1.3-3.6 2.7-7 4.3-10.4l-9.6-9.6-5.7-5.7 5.7-5.7 42.4-42.4 5.7-5.7 5.7 5.7 9.6 9.6c3.4-1.6 6.8-3 10.4-4.3V264v-8h8zm8 27.3v6l-5.7 1.7c-6.4 1.9-12.6 4.5-18.4 7.6l-5.2 2.8-4.2-4.2-8-8-31.1 31.1 8 8 4.2 4.2-2.8 5.2c-3.1 5.8-5.7 12-7.6 18.4l-1.7 5.7h-6H400v44h11.3 6l1.7 5.7c1.9 6.4 4.5 12.6 7.6 18.4l2.8 5.2-4.2 4.2-8 8 31.1 31.1 8-8 4.2-4.2 5.2 2.8c5.8 3.1 12 5.7 18.4 7.6l5.7 1.7v6V496h44V484.7v-6l5.7-1.7c6.4-1.9 12.6-4.5 18.4-7.6l5.2-2.8 4.2 4.2 8 8 31.1-31.1-8-8-4.2-4.2 2.8-5.2c3.1-5.8 5.7-12 7.6-18.4l1.7-5.7h6H624V362H612.7h-6l-1.7-5.7c-1.9-6.4-4.5-12.6-7.6-18.4l-2.8-5.2 4.2-4.2 8-8-31.1-31.1-8 8-4.2 4.2-5.2-2.8c-5.8-3.1-12-5.7-18.4-7.6l-5.7-1.7v-6V272H490v11.3zM472 384a40 40 0 1 0 80 0 40 40 0 1 0 -80 0zm40 56a56 56 0 1 1 0-112 56 56 0 1 1 0 112zM90 256h8 60 8v8 13.6c3.6 1.3 7 2.7 10.4 4.3l9.6-9.6 5.7-5.7 5.7 5.7 42.4 42.4 5.7 5.7-5.7 5.7-9.6 9.6c1.6 3.4 3 6.8 4.3 10.4H248h8v8 60 8h-8H234.4c-1.3 3.6-2.7 7-4.3 10.4l9.6 9.6 5.7 5.7-5.7 5.7-42.4 42.4-5.7 5.7-5.7-5.7-9.6-9.6c-3.4 1.6-6.8 3-10.4 4.3V504v8h-8H98 90v-8V490.4c-3.6-1.3-7-2.7-10.4-4.3L70 495.7l-5.7 5.7-5.7-5.7L16.3 453.3l-5.7-5.7 5.7-5.7 9.6-9.6c-1.6-3.4-3-6.8-4.3-10.4H8 0v-8V354v-8H8 21.6c1.3-3.6 2.7-7 4.3-10.4L16.3 326l-5.7-5.7 5.7-5.7 42.4-42.4 5.7-5.7 5.7 5.7 9.6 9.6c3.4-1.6 6.8-3 10.4-4.3V264v-8zm16 16v11.3 6l-5.7 1.7c-6.4 1.9-12.6 4.5-18.4 7.6l-5.2 2.8-4.2-4.2-8-8L33.2 320.4l8 8 4.2 4.2-2.8 5.2c-3.1 5.8-5.7 12-7.6 18.4L33.3 362h-6H16v44H27.3h6l1.7 5.7c1.9 6.4 4.5 12.6 7.6 18.4l2.8 5.2-4.2 4.2-8 8 31.1 31.1 8-8 4.2-4.2 5.2 2.8c5.8 3.1 12 5.7 18.4 7.6l5.7 1.7v6V496h44V484.7v-6l5.7-1.7c6.4-1.9 12.6-4.5 18.4-7.6l5.2-2.8 4.2 4.2 8 8 31.1-31.1-8-8-4.2-4.2 2.8-5.2c3.1-5.8 5.7-12 7.6-18.4l1.7-5.7h6H240V362H228.7h-6l-1.7-5.7c-1.9-6.4-4.5-12.6-7.6-18.4l-2.8-5.2 4.2-4.2 8-8-31.1-31.1-8 8-4.2 4.2-5.2-2.8c-5.8-3.1-12-5.7-18.4-7.6l-5.7-1.7v-6V272H106zm22 72a40 40 0 1 0 0 80 40 40 0 1 0 0-80zm56 40A56 56 0 1 1 72 384a56 56 0 1 1 112 0zM250 80H201.3l-51.4 42 34.4 46.9 81.9-67L250 80zm38 24.7l-94.3 77.1L181.3 192l-9.5-12.9L128 119.3 195.6 64h62.6L288 104.7z"/></svg>