<svg xmlns="http://www.w3.org/2000/svg" viewBox="0 0 384 512"><!--! Font Awesome Pro 6.5.1 by @fontawesome - https://fontawesome.com License - https://fontawesome.com/license (Commercial License) Copyright 2023 Fonticons, Inc. --><path d="M261.4 257.8l-6.1-9.1-12-18-5.2 21L224.2 307l54.4 54.4 9.4 9.4V384v96 16 16H272 240 224V496 480 397.3l-69.7-69.7-1.1-.3 .2-.7-3.3-3.3c-15.8-15.8-22.2-38.6-16.9-60.3l27.8-114.5 3.8-15.8 3.8-15.5L184 121l15.7 3.9 48 12 12 3 6.9 10.3L305.1 208H352h16V168v-8h16v8 40h0v16 32 16h0V504v8H368v-8V272H352 288 270.9l-9.5-14.2zM368 256V224H352 305.1h-8.6l-4.8-7.1-38.5-57.8-3.4-5.1-6-1.5-48-12-15.6-3.9-3.8 15.7L148.7 266.8c-3.9 16.3 .9 33.4 12.7 45.3l1.1 1.1 2.2 2.2 .9 .9 5.5 5.5 64.2 64.2 4.7 4.7v6.6V480v16h32V480 384v-6.6l-4.7-4.7-54.4-54.4-6.4-6.4 2.2-8.8 19.1-76.3 8.8-35.1 20.1 30.1 18.1 27.1 4.7 7.1H288h64 16zM272 48a32 32 0 1 0 -64 0 32 32 0 1 0 64 0zM240 0a48 48 0 1 1 0 96 48 48 0 1 1 0-96zM117.3 334c3 4.2 6.4 8.2 10.1 11.9l2.6 2.6L91.2 496h33.1l31.9-121.2 13.1 13.1L136.7 512H87 70.5l4.2-16 42.6-162zM127.5 96H144l-4 16L96 288 15.9 274.6 0 272l4.2-15.5L48 96h79.5zM84.1 269.8L123.5 112H60.2L20.1 259.1l64 10.7z"/></svg>