<svg xmlns="http://www.w3.org/2000/svg" viewBox="0 0 576 512"><!--! Font Awesome Pro 6.5.1 by @fontawesome - https://fontawesome.com License - https://fontawesome.com/license (Commercial License) Copyright 2023 Fonticons, Inc. --><path d="M336 192H320 160 137.2l-11.6 19.7L29.7 373.9l-8.1 13.8 13.8 8.1 41.3 24.4 13.8 8.1 8.1-13.8L128 364.8l16-27.1v31.4V496v16h16H320h16V306.2l-16-27.1v58.5V496H160V337.7 279.2l-29.8 50.4L84.8 406.4 43.5 382l95.9-162.2 7-11.8H160 320h0 13.7H336V192zM176 80a64 64 0 1 1 128 0A64 64 0 1 1 176 80zm144 0A80 80 0 1 0 160 80a80 80 0 1 0 160 0zm128 64h16V256v13.3 22.2 22.3 11.5V352v16h16 48v16H472h-2H446.9 416V208 192 160 144h16V128 16h16V128v16zM416 496V400h36.9l2.1 5.6L488.9 496H416zm56-96h15.1H528h16V384 368 352H528 496 480V336 325.3L544 304V208 192H528 512 496v16 56l-16 5.3V264v-8-3.5V192 176 144 128H464V112 16 0H448 432 416 400V16h16V32v80 16H400v16 16 16 16H384 368v16V384v16h16 16v16 80 16h16 78.9H512l-6-16-30-80-6-16h2zm8-91.5V286.2l5.1-1.7 16-5.3 10.9-3.6V264 208h16v84.5l-48 16zM384 208h16V384H384V208z"/></svg>