<svg xmlns="http://www.w3.org/2000/svg" viewBox="0 0 448 512"><!--! Font Awesome Pro 6.5.1 by @fontawesome - https://fontawesome.com License - https://fontawesome.com/license (Commercial License) Copyright 2023 Fonticons, Inc. --><path d="M240 64a48 48 0 1 1 96 0 48 48 0 1 1 -96 0zm112 0A64 64 0 1 0 224 64a64 64 0 1 0 128 0zM156.7 144h-4.8l-2.2 4.3L79.8 280.9c-20.2 38.5-9.4 85.9 25.6 111.8L158.6 432H40 32v8 64 8h8H274.2 280l1.8-5.5L302 445.3l1.8-5.5-4.7-3.4L187.7 354l45-90 42.9 58.9 5 6.8 6.6-5.4L410.2 223.7l6.2-5.1-5.1-6.2-40.5-49.5-5.1-6.2-6.2 5.1-64.1 52.5-48.7-66.9-2.4-3.3h-4.1H156.7zM94 288.4L161.5 160h74.7l51.3 70.5 5 6.8L299 232l64.5-52.8 30.4 37.2L283.5 306.7l-45.6-62.7-7.7-10.6-5.9 11.8L170.4 352.9l-3 6 5.4 4L285 445.8 268.4 496H48V448H182.9h24.3l-19.5-14.4-72.8-53.8c-28.6-21.1-37.5-60-20.9-91.4z"/></svg>