<svg xmlns="http://www.w3.org/2000/svg" viewBox="0 0 512 512"><!--! Font Awesome Pro 6.5.1 by @fontawesome - https://fontawesome.com License - https://fontawesome.com/license (Commercial License) Copyright 2023 Fonticons, Inc. --><path d="M216 56a40 40 0 1 1 80 0 40 40 0 1 1 -80 0zm96 0A56 56 0 1 0 200 56a56 56 0 1 0 112 0zM196.9 128h-5l-2.2 4.5-84.9 176-3.5 7.2 14.4 7 3.5-7.2L201.9 144H310.1l82.7 171.5 3.5 7.2 14.4-7-3.5-7.2-84.9-176-2.2-4.5h-5H196.9zM200 240H184v8V504v8h8 48 8v-8V352h16V504v8h8 48 8v-8V248v-8H312v8V496H280V344v-8h-8H240h-8v8V496H200V248v-8zM106.3 117.7l11.3-11.3L13.7 2.3 2.3 13.7l104 104zm299.3 0l104-104L498.3 2.3l-104 104 11.3 11.3zM2.3 498.3l11.3 11.3 104-104-11.3-11.3-104 104zm403.3-104l-11.3 11.3 104 104 11.3-11.3-104-104z"/></svg>