<svg xmlns="http://www.w3.org/2000/svg" viewBox="0 0 576 512"><!--! Font Awesome Pro 6.5.1 by @fontawesome - https://fontawesome.com License - https://fontawesome.com/license (Commercial License) Copyright 2023 Fonticons, Inc. --><path d="M232 56a40 40 0 1 0 -80 0 40 40 0 1 0 80 0zm-96 0a56 56 0 1 1 112 0A56 56 0 1 1 136 56zM104 248V496h32V344v-8h8 32 8v8V496h32V248v-8h16v8V504v8h-8H176h-8v-8V352H152V504v8h-8H96 88v-8V248v-8h16v8zM95.9 128h5H219.1h4.3l2.4 3.6 100.9 152 4.4 6.7-13.3 8.9-4.4-6.7L214.8 144H105.9L23.2 315.5l-3.5 7.2-14.4-7 3.5-7.2 84.9-176 2.2-4.5zM463.4 492.7l-42.7-42.7L408.8 438l-7.5 15.1-14 27.9-7.2 14.3-7.2 14.3-14.3-7.2L330 488.2 315.7 481l7.2-14.3 7.2-14.3 41.4-82.7 51.2-8.3L448 386.7l16 16 0-22.6 0-44.1 0-13.3 9.4-9.4 16-16 9.4-9.4H512h32 16 16v16 16V446.1c0 36.4-29.5 65.9-65.9 65.9c-17.5 0-34.3-6.9-46.6-19.3zm-90.5-18.8l21.5-43 9.9-19.9 15.7 15.7 54.7 54.7c9.4 9.4 22.1 14.6 35.3 14.6c27.6 0 49.9-22.4 49.9-49.9V320 304H544 512h-6.6l-4.7 4.7-16 16-4.7 4.7 0 6.6 0 66.7 0 38.6-27.3-27.3-35.6-35.6L382 384.2l-37.7 75.4-7.2 14.3 28.6 14.3 7.2-14.3zM464 240a32 32 0 1 0 -64 0 32 32 0 1 0 64 0zm-32-48a48 48 0 1 1 0 96 48 48 0 1 1 0-96zM296 40h8 56 8V56h-8H304h-8V40zm-12.4 64.8l48 24 7.2 3.6-7.2 14.3-7.2-3.6-48-24-7.2-3.6 7.2-14.3 7.2 3.6z"/></svg>