<svg xmlns="http://www.w3.org/2000/svg" viewBox="0 0 576 512"><!--! Font Awesome Pro 6.5.1 by @fontawesome - https://fontawesome.com License - https://fontawesome.com/license (Commercial License) Copyright 2023 Fonticons, Inc. --><path d="M276.3 240.2l15.1 30.1 8.8 17.7H320h64 16 16V272 240 224H400 384 339.8l-39.2-78.3-5.4-10.9-11.3-4.5-80-32L198.2 96H192 128 114.7l-9.4 9.4-48 48L46.1 164.7 34.7 176l11.3 11.3 22.6 22.6L80 221.3l11.3-11.3 11.3-11.3L141.3 160h10.8 16.9l-5.3 16-26 78c-9.3 28 1.7 58.8 26.8 74.5l86.2 53.9-25.4 88.8L218.1 496l-4.6 16h16.6 49.9l6.6-23.2 32-112 6.6-23.2L305 340.9l-68.3-42.7L258.8 241l7.8-20.1 9.7 19.3zm30.4 120.6l-3.3 11.6-32 112L268.1 496H234.8l5.8-20.4L266 386.8l3.3-11.6-10.2-6.4-86.2-53.9c-18.8-11.8-27.1-34.8-20.1-55.9l31.3-94 7-21.1H168.9 141.3h-6.6l-4.7 4.7L91.3 187.3 80 198.6 57.4 176l11.3-11.3 48-48 4.7-4.7H128h64 3.1l2.9 1.1 80 32 5.6 2.3 2.7 5.4 39.2 78.3 4.4 8.8h9.9H384h16v32H384 320h-9.9l-4.4-8.8L281 213.7l-16.1-32.3-13.1 33.6-30 77.3-4.8 12.3 11.2 7 68.3 42.7 10.2 6.4zM272 16a32 32 0 1 1 0 64 32 32 0 1 1 0-64zm48 32a48 48 0 1 0 -96 0 48 48 0 1 0 96 0zM111.3 314.8L97.6 352H16 0v16 32 16H16 142.4l19-51.7-13.9-8.7 0 0L131.2 400H16V368H97.6h11.2l3.8-10.5 9.2-25.2c-4.2-5.5-7.7-11.4-10.6-17.6zM560 16V496H400V320H384V496v16h16H560h16V496 16 0H560 400 384V16 192h16V16H560z"/></svg>