<svg xmlns="http://www.w3.org/2000/svg" viewBox="0 0 320 512"><!--! Font Awesome Pro 6.5.1 by @fontawesome - https://fontawesome.com License - https://fontawesome.com/license (Commercial License) Copyright 2023 Fonticons, Inc. --><path d="M160 96a40 40 0 1 0 0-80 40 40 0 1 0 0 80zm0-96a56 56 0 1 1 0 112A56 56 0 1 1 160 0zM122.1 202.9l-2.5 7.6L67.1 368H88h16 32 16 16 16 32 16 20.9L200.4 210.5l-2.5-7.6 15.2-5.1 2.5 7.6 56 168 3.5 10.5H264 232V504v8h-8H176h-8v-8V384H152V504v8h-8H96 88v-8V384H56 44.9l3.5-10.5 56-168 2.5-7.6 15.2 5.1zM104 384V496h32V384H104zm80 112h32V384H184V496zM100.9 128H219.1h5l2.2 4.5 84.9 176 3.5 7.2-14.4 7-3.5-7.2L214.1 144H105.9L23.2 315.5l-3.5 7.2-14.4-7 3.5-7.2 84.9-176 2.2-4.5h5z"/></svg>