<svg xmlns="http://www.w3.org/2000/svg" viewBox="0 0 640 512"><!--! Font Awesome Pro 6.5.1 by @fontawesome - https://fontawesome.com License - https://fontawesome.com/license (Commercial License) Copyright 2023 Fonticons, Inc. --><path d="M112 265.7l5.4 8.1 9.5 14.3H144h48 16V408v96 8h16v-8V416H624v88 8h16v-8V408 200v-9.7V8 0h-8H488h-8V8 64v1.2l.4 1.2 46 145.8L224 270.3V240 224H208 192 161.1l-54.5-81.7L97.1 128H80 32 16 0v16 16V274.7c0 17 6.7 33.3 18.7 45.3l22.6 22.6L96 397.3V480v16 16h16 32 16V496 480 384 370.7l-9.4-9.4L96 306.7V270.5 241.7l16 24zM224 288v-1.4l400-76.9V400H224V288zm-80 89.4V384v96 16H112V480 397.3v-6.6l-4.7-4.7L52.7 331.3 30.1 308.7c-9-9-14.1-21.2-14.1-33.9V160 144H32 80h8.6l4.7 7.1 54.5 81.7 4.8 7.1h8.6H192h16v32H192 144h-8.6l-4.7-7.1-21.4-32.1L80 188.8v52.8 65.1 6.6l4.7 4.7 54.6 54.6 4.7 4.7zM80 16a32 32 0 1 1 0 64 32 32 0 1 1 0-64zm48 32A48 48 0 1 0 32 48a48 48 0 1 0 96 0zM624 193.4l-81.8 15.7L496 62.8V16H624V193.4zM320 320a16 16 0 1 0 -32 0 16 16 0 1 0 32 0zM0 480l0 16 0 16 16 0 32 0 16 0 0-16 0-16v0V410.5l-16-16L48 480l0 16-32 0 0-16 0-117.5-16-16L0 480z"/></svg>