<svg xmlns="http://www.w3.org/2000/svg" viewBox="0 0 640 512"><!--! Font Awesome Pro 6.5.1 by @fontawesome - https://fontawesome.com License - https://fontawesome.com/license (Commercial License) Copyright 2023 Fonticons, Inc. --><path d="M184.8 19.2l32.6 70.9 75.7-18.7 20.5-5.1-9.5 18.8L269 154.8l61.9 47.5 16.7 12.8L327 219.5l-76.4 16 1.4 78 .4 21.1-16.2-13.4L176 271.4l-60.1 49.7L99.6 334.6l.4-21.1 1.4-78L25 219.5 4.4 215.2l16.7-12.8L83 154.8 47.9 85.1 38.4 66.3l20.5 5.1 75.7 18.7 32.6-70.9L176 0l8.8 19.2zm36.4 86.4l-12.9 3.2-5.5-12L176 38.3 149.1 96.7l-5.5 12-12.9-3.2L68.4 90.2l28.9 57.4 6 11.8-10.5 8.1-51 39.2 62.9 13.2 13 2.7-.2 13.2-1.2 64.3 49.5-41 10.2-8.4 10.2 8.4 49.5 41-1.2-64.3-.2-13.2 13-2.7 62.9-13.2-51-39.2-10.5-8.1 6-11.8 28.9-57.4-62.4 15.4zM520 56a40 40 0 1 0 -80 0 40 40 0 1 0 80 0zm-96 0a56 56 0 1 1 112 0A56 56 0 1 1 424 56zm15.6 154.5L387.1 368H408h16 32 16 16 16 32 16 20.9L520.4 210.5l-2.5-7.6 15.2-5.1 2.5 7.6 56 168 3.5 10.5H584 552V504v8h-8H496h-8v-8V384H472V504v8h-8H416h-8v-8V384H376 364.9l3.5-10.5 56-168 2.5-7.6 15.2 5.1-2.5 7.6zM424 496h32V384H424V496zm80-112V496h32V384H504zM415.9 128h5H539.1h5l2.2 4.5 84.9 176 3.5 7.2-14.4 7-3.5-7.2L534.1 144H425.9L343.2 315.5l-3.5 7.2-14.4-7 3.5-7.2 84.9-176 2.2-4.5z"/></svg>