<svg xmlns="http://www.w3.org/2000/svg" viewBox="0 0 512 512"><!--! Font Awesome Pro 6.5.1 by @fontawesome - https://fontawesome.com License - https://fontawesome.com/license (Commercial License) Copyright 2023 Fonticons, Inc. --><path d="M372.3 240.2l15.1 30.1 8.8 17.7H416h64 16 16V272 240 224H496 480 435.8l-39.2-78.3-5.4-10.9-11.3-4.5-80-32L294.2 96H288 224 210.7l-9.4 9.4-48 48-11.3 11.3L130.7 176l11.3 11.3 22.6 22.6L176 221.3l11.3-11.3 11.3-11.3L237.3 160h10.8 16.9l-5.3 16-26 78c-9.3 28 1.7 58.8 26.8 74.5l86.2 53.9-25.4 88.8L314.1 496l-4.6 16h16.6 49.9l6.6-23.2 32-112 6.6-23.2L401 340.9l-68.3-42.7L354.8 241l7.8-20.1 9.7 19.3zm30.4 120.6l-3.3 11.6-32 112L364.1 496H330.8l5.8-20.4L362 386.8l3.3-11.6-10.2-6.4-86.2-53.9c-18.8-11.8-27.1-34.8-20.1-55.9l31.3-94 7-21.1H264.9 237.3h-6.6l-4.7 4.7-38.6 38.6L176 198.6 153.4 176l11.3-11.3 48-48 4.7-4.7H224h64 3.1l2.9 1.1 80 32 5.6 2.3 2.7 5.4 39.2 78.3 4.4 8.8h9.9H480h16v32H480 416h-9.9l-4.4-8.8L377 213.7l-16.1-32.3-13.1 33.6-30.1 77.3-4.8 12.3 11.2 7 68.3 42.7 10.2 6.4zM368 16a32 32 0 1 1 0 64 32 32 0 1 1 0-64zm48 32a48 48 0 1 0 -96 0 48 48 0 1 0 96 0zM207.3 314.8L193.6 352H112 96v16 32 16h16H238.4l19-51.7-13.9-8.7 0 0L227.2 400H112V368h81.6 11.2l3.8-10.5 9.2-25.2c-4.2-5.5-7.7-11.4-10.6-17.6zM8 95.8H0v16H8 152h8v-16h-8H8zm-8 64v16H8 88h8v-16H88 8 0zm8 64H0v16H8 136h8v-16h-8H8z"/></svg>