<svg xmlns="http://www.w3.org/2000/svg" viewBox="0 0 640 512"><!--! Font Awesome Pro 6.5.1 by @fontawesome - https://fontawesome.com License - https://fontawesome.com/license (Commercial License) Copyright 2023 Fonticons, Inc. --><path d="M320 112a48 48 0 1 0 0-96 48 48 0 1 0 0 96zM320 0a64 64 0 1 1 0 128A64 64 0 1 1 320 0zM239.3 176l-6.7 160H256h48 32 48 23.3l-6.7-160H239.3zM312 352V504v8h-8H256h-8v-8V352H232 216l.7-16L224 160H416l7.3 176 .7 16H408 392V504v8h-8H336h-8v-8V352H312zm64 144V352H344V496h32zM296 352H264V496h32V352zM112 464c38.3 0 74-11.2 104-30.6v18.7C185.4 469.9 149.9 480 112 480H72 64v-8V448c0-45.7 14.7-88 39.7-122.3C40.6 275.9 0 198.7 0 112V40 32H8 34.9c84.9 0 161.1 37.1 213.4 96H226.3C177.6 78.6 109.8 48 34.9 48H16v64c0 81.6 38.1 154.2 97.6 201.2l6 4.8 6 4.8-4.5 6.2-4.5 6.2C93.6 366.8 80 405.8 80 448v16h32zm312-11.8V433.4c30 19.4 65.7 30.6 104 30.6h32V448c0-42.2-13.6-81.2-36.7-112.9l-4.5-6.2-4.5-6.2 6-4.8 6-4.8C585.9 266.2 624 193.6 624 112V48H605.1c-74.9 0-142.7 30.6-191.5 80H391.7C444 69.1 520.2 32 605.1 32H632h8v8 72c0 86.7-40.6 163.9-103.7 213.7C561.3 360 576 402.3 576 448v24 8h-8H528c-37.9 0-73.4-10.1-104-27.8z"/></svg>