<svg xmlns="http://www.w3.org/2000/svg" viewBox="0 0 256 512"><!--! Font Awesome Pro 6.5.1 by @fontawesome - https://fontawesome.com License - https://fontawesome.com/license (Commercial License) Copyright 2023 Fonticons, Inc. --><path d="M176 64A48 48 0 1 0 80 64a48 48 0 1 0 96 0zM64 64a64 64 0 1 1 128 0A64 64 0 1 1 64 64zM40.7 336H64h48 32 48 23.3l-6.7-160H47.3L40.7 336zM136 352H120V504v8h-8H64 56v-8V352H40 24l.7-16L32 160H224l7.3 176 .7 16H216 200V504v8h-8H144h-8v-8V352zm48 0H152V496h32V352zM72 352V496h32V352H72z"/></svg>