<svg xmlns="http://www.w3.org/2000/svg" viewBox="0 0 320 512"><!--! Font Awesome Pro 6.5.1 by @fontawesome - https://fontawesome.com License - https://fontawesome.com/license (Commercial License) Copyright 2023 Fonticons, Inc. --><path d="M120 56a40 40 0 1 1 80 0 40 40 0 1 1 -80 0zm96 0A56 56 0 1 0 104 56a56 56 0 1 0 112 0zM168 384V504v8l0 0h8 48 8v-8V416l0-168v-8H216v8V496H184l0-80 0-32V368H168V144h-8v0h54.1l82.7 171.5 3.5 7.2 14.4-7-3.5-7.2-84.9-176-2.2-4.5h-5H160v0H100.9h-5l-2.2 4.5L8.8 308.5l-3.5 7.2 14.4 7 3.5-7.2L105.9 144H152V368h8v16h8zm-8-16v16h-8V504v8h-8H96 88v-8V384H56 44.9l3.5-10.5 56-168 2.5-7.6 15.2 5.1-2.5 7.6L67.1 368H88h16 32 16 8zM104 496h32V384H104V496z"/></svg>