<svg xmlns="http://www.w3.org/2000/svg" viewBox="0 0 576 512"><!--! Font Awesome Pro 6.5.1 by @fontawesome - https://fontawesome.com License - https://fontawesome.com/license (Commercial License) Copyright 2023 Fonticons, Inc. --><path d="M256 32a32 32 0 1 1 0 64 32 32 0 1 1 0-64zm0 80a48 48 0 1 0 0-96 48 48 0 1 0 0 96zm96 304H288l-26.7 80L256 512h16.9H560h16V496 464L457.8 301.5 448 288l-10 13.4-54.8 73-6-3.3-60.6-33.7-4.9-12.2L253.7 180.1l-5.1-12.7-12.7-5.1-80-32-22-8.8L119 140 70.5 200.7 27.9 177l-7-3.9-7.8 14 7 3.9L369.5 385.1l4 2.2L352 416zM238.9 186.1l55.6 139.1L84.7 208.6 131.5 150l7.4-9.3 11 4.4 80 32 6.4 2.5 2.5 6.4zM447.8 314.9L560 469.2V496H278.2l21.3-64H352h8l4.8-6.4 83-110.7zm-383.9-26l-.2 .7L6.8 496 2.4 512H19 68.8l40.8-148.2 4.4-16.1 14.2 8.8L160 376.2V480v16 16h16 32 16V496 480 358.3 340.9L208 332v26.4V480v16H176V480 376.2v-8.9l-7.6-4.7-45.9-28.4-18.2-11.2-5.7 20.6L56.6 496H23.4L79.1 293.9l.2-.5 8.5-28.2-14.3-8-9.5 31.7z"/></svg>