<svg xmlns="http://www.w3.org/2000/svg" viewBox="0 0 512 512"><!--! Font Awesome Pro 6.5.1 by @fontawesome - https://fontawesome.com License - https://fontawesome.com/license (Commercial License) Copyright 2023 Fonticons, Inc. --><path d="M294.4 307.2L240 234.7l-16-21.3V240v48 18.7l54.6 54.6 9.4 9.4V384v96 16 16H272 240 224V496 480 397.3L146.7 320c-12-12-18.7-28.3-18.7-45.3v-7.4V231.6l-16 32L92.6 302.3l-7.2 14.3-7.2 14.3L64 323.8 35.4 309.5l-14.3-7.2L28.2 288l7.2-14.3 64-128 8.8-17.7H128h32 64 16l9.6 12.8 96 128 9.6 12.8 9.6 12.8L352 304l-25.6 19.2-12.8 9.6L304 320l-9.6-12.8zm-27.1 65.5l-54.6-54.6-4.7-4.7v-6.6V288 213.3 176h8l20.8 27.7 70.4 93.9 9.6 12.8 25.6-19.2-9.6-12.8-96-128L232 144h-8H160 128h-9.9l-4.4 8.8-64 128-7.2 14.3 17 8.5 11.6 5.8 7.2-14.3 35.4-70.8L137.9 176H144v55.6 43.2c0 12.7 5.1 24.9 14.1 33.9l77.3 77.3 4.7 4.7v6.6V480v16h32V480 384v-6.6l-4.7-4.7zM208 48a32 32 0 1 0 -64 0 32 32 0 1 0 64 0zM176 0a48 48 0 1 1 0 96 48 48 0 1 1 0-96zM121 376.2l7.4-29.4L141.5 360l-5 20.1-12 48-6 24-6 24-5 19.9h33l3-12.1 6-24 6-24 12-48 .4-1.5 13.2 13.2-10 40.2-6 24-6 24-6 24-.1 .2H87L91 496.2l.1-.2L97 472.2l6-24 6-24 12-48zM462.1 503.9L350.4 345.2l12.8-9.6 112 159.1 4.6 6.5-13.1 9.2-4.6-6.5z"/></svg>