<svg xmlns="http://www.w3.org/2000/svg" viewBox="0 0 640 512"><!--! Font Awesome Pro 6.5.1 by @fontawesome - https://fontawesome.com License - https://fontawesome.com/license (Commercial License) Copyright 2023 Fonticons, Inc. --><path d="M152 56a40 40 0 1 1 80 0 40 40 0 1 1 -80 0zm96 0A56 56 0 1 0 136 56a56 56 0 1 0 112 0zM132.9 128h-4.8l-2.3 4.3-92.9 176 14.1 7.5L137.7 144H251.1 400v32H256h-8v8 56h0v8V496H216V344v-8h-8H176h-8v8V496H136V248v-8H120v8V504v8h8 48 8v-8V352h16V504v8h8 48 8v-8V256h0V192H408h8v-8V136v-8h-8H336V16H624V304H336V224H320v80 16h16H624h16V304 16 0H624 336 320V16 128H251.1 132.9z"/></svg>