<svg xmlns="http://www.w3.org/2000/svg" viewBox="0 0 640 512"><!--! Font Awesome Pro 6.5.1 by @fontawesome - https://fontawesome.com License - https://fontawesome.com/license (Commercial License) Copyright 2023 Fonticons, Inc. --><path d="M232 56a40 40 0 1 0 -80 0 40 40 0 1 0 80 0zm-96 0a56 56 0 1 1 112 0A56 56 0 1 1 136 56zm-3.1 72H251.1h5l2.2 4.5 84.9 176 3.5 7.2-14.4 7-3.5-7.2L246.1 144H137.9L55.2 315.5l-3.5 7.2-14.4-7 3.5-7.2 84.9-176 2.2-4.5h5zM136 240v8V496h32V344v-8h8 32 8v8V496h32V248v-8h16v8V496H632h8v16h-8H8 0V496H8 120V248v-8h16zm48 256h16V352H184V496zM488 40V32h16v8l0 347.5 82.1-89 5.4-5.9 11.8 10.9-5.4 5.9-96 104-5.9 6.4-5.9-6.4-96-104-5.4-5.9 11.8-10.9 5.4 5.9 82.1 89L488 40z"/></svg>