<svg xmlns="http://www.w3.org/2000/svg" viewBox="0 0 576 512"><!--! Font Awesome Pro 6.5.1 by @fontawesome - https://fontawesome.com License - https://fontawesome.com/license (Commercial License) Copyright 2023 Fonticons, Inc. --><path d="M160 16a40 40 0 1 1 0 80 40 40 0 1 1 0-80zm0 96A56 56 0 1 0 160 0a56 56 0 1 0 0 112zM95.9 128l-2.2 4.5L8.8 308.5l-3.5 7.2 14.4 7 3.5-7.2L105.9 144H214.1l65.6 135.9c3.1-5.4 6.5-10.6 10.2-15.6L226.3 132.5l-2.2-4.5h-5H100.9h-5zM104 248v-8H88v8V504v8h8 48 8v-8V352h16V504v8h8 48 8v-8V248v-8H216v8V496H184V344v-8h-8H144h-8v8V496H104V248zm328-8a128 128 0 1 1 0 256 128 128 0 1 1 0-256zm0 272a144 144 0 1 0 0-288 144 144 0 1 0 0 288zm80-136V360h-8H360h-8v16h8H504h8z"/></svg>