<svg xmlns="http://www.w3.org/2000/svg" viewBox="0 0 576 512"><!--! Font Awesome Pro 6.5.1 by @fontawesome - https://fontawesome.com License - https://fontawesome.com/license (Commercial License) Copyright 2023 Fonticons, Inc. --><path d="M288 16a72 72 0 1 1 0 144 72 72 0 1 1 0-144zm0 160A88 88 0 1 0 288 0a88 88 0 1 0 0 176zm-72.7 32h-1.7l-1.6 .7L7.7 301.6 .4 304.9l3.3 7.3L36.9 385l3.3 7.3 7.3-3.3L176 330.5V456v8h16v-8V318.1 305.7l-11.3 5.1L48.1 371.1 21.6 312.8 217.1 224H358.9l195.4 88.8-26.5 58.3L395.3 310.8 384 305.7v12.4V456v8h16v-8V330.5L528.6 389l7.3 3.3 3.3-7.3 33.1-72.8 3.3-7.3-7.3-3.3L364 208.7l-1.6-.7h-1.7H215.3zM8 496H0v16H8 568h8V496h-8H8zM80 224a16 16 0 1 0 0-32 16 16 0 1 0 0 32zM336 336a16 16 0 1 0 -32 0 16 16 0 1 0 32 0zM464 224a16 16 0 1 0 0-32 16 16 0 1 0 0 32z"/></svg>