<svg xmlns="http://www.w3.org/2000/svg" viewBox="0 0 512 512"><!--! Font Awesome Pro 6.5.1 by @fontawesome - https://fontawesome.com License - https://fontawesome.com/license (Commercial License) Copyright 2023 Fonticons, Inc. --><path d="M64 48H192V18.3L64 35.3V48zM48 21.3L192 2.1 208 0V16.1 48 64H192 64 48V48 21.3zM312 192h13.3H442.7 456l2.4 13.1 18 96 .6 2.9 3 16H463.7h-3H307.3h-3H288l3-16 .6-2.9 18-96L312 192zM460.7 304l-3-16-15-80H325.3l-15 80-3 16h16.3H444.4h16.3zM432 96a48 48 0 1 0 -96 0 48 48 0 1 0 96 0zM384 32a64 64 0 1 1 0 128 64 64 0 1 1 0-128zM64 96c0-5.5 .7-10.9 2-16H82.7C81 85 80 90.4 80 96c0 26.5 21.5 48 48 48s48-21.5 48-48c0-5.6-1-11-2.7-16H190c1.3 5.1 2 10.5 2 16c0 35.3-28.7 64-64 64s-64-28.7-64-64zM51.3 304H194.1L68 215 51.3 304zm150.8-14l-15.4-82H85.9l116.2 82zM56 192H200l21 112 3 16H207.7 48.3 32l3-16L56 192zm87.3 164.7l6 5.3 72 64 6.7 6-6.7 6-72 64-6 5.3-10.6-12 6-5.3L195 440H8 0V424H8 195l-56.3-50-6-5.3 10.6-12zM362.7 362l6-5.3 10.6 12-6 5.3L317 424H504h8v16h-8H317l56.3 50 6 5.3-10.6 12-6-5.3-72-64-6.7-6 6.7-6 72-64z"/></svg>