<svg xmlns="http://www.w3.org/2000/svg" viewBox="0 0 640 512"><!--! Font Awesome Pro 6.5.1 by @fontawesome - https://fontawesome.com License - https://fontawesome.com/license (Commercial License) Copyright 2023 Fonticons, Inc. --><path d="M320 16a48 48 0 1 1 0 96 48 48 0 1 1 0-96zm0 112A64 64 0 1 0 320 0a64 64 0 1 0 0 128zm-51.9 48H371.9l54.9 192H384 336 304 256 213.2l54.9-192zM312 384h16V504v8h8 48 8v-8V384h39.4H448l-4.6-16L384 160H256L196.6 368 192 384h16.6H248V504v8h8 48 8v-8V384zm64 112H344V384h32V496zM296 384V496H264V384h32zM34.9 32H8 0v8 72c0 86.7 40.6 163.9 103.7 213.7C78.7 360 64 402.3 64 448v24 8h8 40c37.9 0 73.4-10.1 104-27.8V433.4C186 452.8 150.3 464 112 464H80V448c0-42.2 13.6-81.2 36.7-112.9l4.5-6.2 4.5-6.2-6-4.8-6-4.8C54.1 266.2 16 193.6 16 112V48H34.9c77.1 0 146.7 32.4 195.7 84.4l5.1-17.7C184.1 63.6 113.2 32 34.9 32zM528 464c-38.3 0-74-11.2-104-30.6v18.7c30.6 17.7 66.1 27.8 104 27.8h40 8v-8V448c0-45.7-14.7-88-39.7-122.3C599.4 275.9 640 198.7 640 112V40 32h-8H605.1c-78.3 0-149.3 31.6-200.8 82.7l5.1 17.7C458.5 80.4 528 48 605.1 48H624v64c0 81.6-38.1 154.2-97.6 201.2l-6 4.8-6 4.8 4.5 6.2 4.5 6.2C546.4 366.8 560 405.8 560 448v16H528z"/></svg>