<svg xmlns="http://www.w3.org/2000/svg" viewBox="0 0 512 512"><!--! Font Awesome Pro 6.5.1 by @fontawesome - https://fontawesome.com License - https://fontawesome.com/license (Commercial License) Copyright 2023 Fonticons, Inc. --><path d="M256 0H240V8 202.6l16-4.3V8 0zm0 314.2V432v5.7L101.2 496.5l5.7 15 400-152 5.2-2V352 296v-8H496v8 50.5L320 413.4V256l-40.2-30.9-65.9 17.6-32.7-71.9-7.1-15.5-6.6-14.6-14.3 7.1-15.3 7.6-26.1 12.9L83.8 182l13.1 28.3 36.4 78.9c9.8 21.2 33.4 32.3 55.9 26.3L240 301.9l16-4.3v16.6zm48 105.2l-32 12.2v-134V276.8l-20.1 5.4L185.1 300c-15 4-30.8-3.4-37.3-17.5l-36.4-78.9-6.5-14.1 14-6.9 26.1-12.9 14.8-7.3 6.8 15.1 32.7 71.9 5.6 12.3 13.1-3.5 58.3-15.6L304 263.9V419.4zM112 48a32 32 0 1 1 0 64 32 32 0 1 1 0-64zm48 32A48 48 0 1 0 64 80a48 48 0 1 0 96 0zM96.6 395.2l3 7.1 7.2-2.8 104-40 7.5-2.9-5.7-14.9-7.5 2.9-96.8 37.2-93-216.9L.6 171.2l96 224z"/></svg>