<svg xmlns="http://www.w3.org/2000/svg" viewBox="0 0 640 512"><!--! Font Awesome Pro 6.5.1 by @fontawesome - https://fontawesome.com License - https://fontawesome.com/license (Commercial License) Copyright 2023 Fonticons, Inc. --><path d="M272 48a32 32 0 1 0 -64 0 32 32 0 1 0 64 0zm-80 0a48 48 0 1 1 96 0 48 48 0 1 1 -96 0zM347.6 77.3l3.6 7.2 39.1 78.2L576 240v96l-90.4 60.3L563.9 496h8.8l45.7-45.7 5.7-5.7L635.3 456l-5.7 5.7-48 48-2.3 2.3H576 560.1h-.2H424h-8V496h8H543.5l-75.4-96h-129c-3.3-5.7-7.2-11.1-11.6-16H471.9h.2 3.1L560 327.4V250.7L388.6 179.2 300.1 282.4c-3 3.5-7.5 5.6-12.1 5.6H89.9L57.8 352.2c-6.7 .4-13.3 1.5-19.5 3.3L80 272H288l54.9-64H288h-4l-2.4-3.2L236 144H164.9l-45.8 91.6-3.6 7.2-14.3-7.2 3.6-7.2 48-96 2.2-4.4H160h80 4l2.4 3.2L292 192h64.6l19.3-22.5-39-78-3.6-7.2 14.3-7.2zM304 448c0-26.5-21.5-48-48-48H64c-26.5 0-48 21.5-48 48s21.5 48 48 48H256c26.5 0 48-21.5 48-48zM64 384H256c35.3 0 64 28.7 64 64s-28.7 64-64 64H64c-35.3 0-64-28.7-64-64s28.7-64 64-64z"/></svg>