<svg xmlns="http://www.w3.org/2000/svg" viewBox="0 0 512 512"><!--! Font Awesome Pro 6.5.1 by @fontawesome - https://fontawesome.com License - https://fontawesome.com/license (Commercial License) Copyright 2023 Fonticons, Inc. --><path d="M174.4 227.4l44-51.4 13.7-16H211.1 160 144 128V144 112 96h16 16H320h13.3l9.4 9.4 13.8 13.8L371 133.7l11.4 11.4-12.9 9.8-16.4 12.4L230.1 260.8 223 269l-12.1-10.4 7.1-8.3L219 249l1.4-1 123.1-93.5 14.6-11.1-13-13-13.8-13.8-4.7-4.7H320 160 144v32h16 72.1 34.8l-22.6 26.4-57.7 67.4c-5.5 6.5-10 13.8-13.3 21.7L116.1 398.6l29.6 12.2 57.2-139.2c1.9-4.7 4.6-9.1 8-13L223 269c-2.2 2.6-4 5.5-5.3 8.7L160.5 416.9l-1 2.4L496 251.1V184v-8h16v8 72 4.9l-4.4 2.2-496 248L4.4 496.8l139.2-69.6-4-1.6L110 413.4l-14.8-6.1 6.1-14.8 57.2-139.2c3.9-9.5 9.3-18.2 15.9-26zM432 48a32 32 0 1 0 -64 0 32 32 0 1 0 64 0zM400 0a48 48 0 1 1 0 96 48 48 0 1 1 0-96z"/></svg>