<svg xmlns="http://www.w3.org/2000/svg" viewBox="0 0 512 512"><!--! Font Awesome Pro 6.5.1 by @fontawesome - https://fontawesome.com License - https://fontawesome.com/license (Commercial License) Copyright 2023 Fonticons, Inc. --><path d="M48 48a32 32 0 1 1 64 0A32 32 0 1 1 48 48zm80 0A48 48 0 1 0 32 48a48 48 0 1 0 96 0zM112 265.7l5.4 8.1 9.5 14.3H144h80 5.7l24.6 105.6C236.1 404.9 224 425 224 448c0 35.3 28.7 64 64 64c33.8 0 61.6-26.3 63.8-59.5l154-36.7-3.7-15.6-151.2 36C345.4 406.5 319.3 384 288 384c-6.6 0-12.9 1-18.9 2.8L215.8 158.2l-1.8-7.8L198.4 154l1.8 7.8L214.7 224H161.1l-54.5-81.7L97.1 128H80 32 16 0v16 16V274.7c0 17 6.7 33.3 18.7 45.3l22.6 22.6 56.7 56.7 6.3 37.9 4 24 4 24 0 0 4 24 .5 2.7h48.7 16.2l-2.2-13.3-.5-2.7-3.5-21.3 0 0-4-24-4-24-8-48-1.7-10.1-7.3-7.3L96 306.7V270.5 241.7l16 24zM218.5 240l7.5 32H224 144h-8.6l-4.7-7.1-21.4-32.1L80 188.8v52.8 65.1 6.6l4.7 4.7 54.6 54.6 3.6 3.6 .8 5.1 8 48 4 24 4 24 0 0 0 0 0 0 3.1 18.6H130.4l-2.2-13.4 0 0 0 0 0 0-4-24-4-24-6.3-37.9-.8-5.1-3.6-3.6L52.7 331.3 30.1 308.7c-9-9-14.1-21.2-14.1-33.9V160 144H32 80h8.6l4.7 7.1 54.5 81.7 4.8 7.1h8.6 57.3zM0 346.5L0 480l0 16 0 16 16 0 32 0 16 0 0-16 0-16 0-32.1V410.5l-16-16L48 480l0 16-32 0 0-16 0-117.5-16-16zM288 400a48 48 0 1 1 0 96 48 48 0 1 1 0-96z"/></svg>