<svg xmlns="http://www.w3.org/2000/svg" viewBox="0 0 448 512"><!--! Font Awesome Pro 6.5.1 by @fontawesome - https://fontawesome.com License - https://fontawesome.com/license (Commercial License) Copyright 2023 Fonticons, Inc. --><path d="M289.5 237.6l71.7-66.9L373.7 159l11.7-10.9L374 136.8l-12.1-12.1-19.3-19.3L333.3 96H320 160 144 128v16 32 16h16 16 49.8 25l-19.2 16-1.2 1c-28.9 24.1-30.9 67.8-4.3 94.4L288 349.3V432v16 16h16 32 16V448 432 336 322.7l-9.4-9.4-53.5-53.5-11.3-11.3 11.7-10.9zM336 329.4V336v96 16H304V432 349.3v-6.6l-4.7-4.7-77.9-77.9c-20-20-18.5-52.7 3.2-70.8l20.4-17L279 144H234.8 160 144V112h16H320h6.6l4.7 4.7L350.6 136l11.7 11.7L350.2 159l-83.4 77.8-12.1 11.3 11.7 11.7 64.9 64.9 4.7 4.7zM400 16a32 32 0 1 1 0 64 32 32 0 1 1 0-64zm48 32a48 48 0 1 0 -96 0 48 48 0 1 0 96 0zM148.4 468.3l6.5-4.6-9.3-13-6.5 4.6L105 479.7 13.7 388.3 2.3 399.6l96.2 96.2 4.8 4.8 5.5-3.9 39.6-28.3zm259.5 37l8-48-15.8-2.6L393.2 496H264h-8v16h8H400h6.8l1.1-6.7zM81.4 353.4L70.1 364.7 58.7 376l11.3 11.3 22.6 22.6L104 421.3l11.3-11.3 11.3-11.3 82.7-82.7-11.3-11.3-82.7 82.7L104 398.6 81.4 376l11.3-11.3 83.8-83.8c-3.2-4.6-6-9.4-8.2-14.4L81.4 353.4z"/></svg>