<svg xmlns="http://www.w3.org/2000/svg" viewBox="0 0 640 512"><!--! Font Awesome Pro 6.5.1 by @fontawesome - https://fontawesome.com License - https://fontawesome.com/license (Commercial License) Copyright 2023 Fonticons, Inc. --><path d="M16 16H624V432H411.2l10.7 16H624h16V432 16 0H624 16 0V16 432v16H16 308.2l24.7 37.1 8.9 13.3 8.9 13.3 13.3-8.9 26.6-17.8 13.3-8.9-8.9-13.3-8.9-13.3L321.1 352l-10.7-16 19.2 0 55.3 0 40 48H379.2l10.7 16H576h16V384 64 48H576 352 336 304 288 64 48V64 384v16H64 96V384H64V64H288v63.3L141.6 229.8 128 239.3l0 16.7 0 128 0 16v16h16l32 0h16V400 384l0-81.5 0-28.8 16 24L265.5 384H224v16h52.2l21.3 32H200 120 16V16zM304 64h32v80 8.3l-6.8 4.8-57.1 39.9-12.7 8.9 8.4 13L308 280.7l4.7 7.3h8.7l78.6 0h7.5l4.8 5.8L487.5 384H445.8l-48.5-58.2-4.8-5.8H385l-74.6 0-29.9 0 16.6 24.9 75.7 113.6 8.9 13.3-26.6 17.8-8.9-13.3L205.3 264.8l-9.5-14.3L176 264.3l0 9.4L176 384v16l0 0H144V384l0-128v-8.3l0 0 6.8-4.8L176 225.3v0l2-1.4 0 0 119.2-83.4 6.8-4.8v-8.3V64zm48 0H576V384H508.3l-3.7-4.5-80-96L415 272l-15 0-78.6 0-40.1-61.8 57.1-39.9 13.6-9.6V144 64zM112 132a36 36 0 1 1 72 0 36 36 0 1 1 -72 0zm36 52a52 52 0 1 0 0-104 52 52 0 1 0 0 104z"/></svg>