<svg xmlns="http://www.w3.org/2000/svg" viewBox="0 0 256 512"><!--! Font Awesome Pro 6.5.1 by @fontawesome - https://fontawesome.com License - https://fontawesome.com/license (Commercial License) Copyright 2023 Fonticons, Inc. --><path d="M176 64A48 48 0 1 0 80 64a48 48 0 1 0 96 0zM64 64a64 64 0 1 1 128 0A64 64 0 1 1 64 64zM21.2 368H64h48 32 48 42.8L179.9 176H76.1L21.2 368zM136 384H120V504v8h-8H64 56v-8V384H16.6 0l4.6-16L64 160H192l59.4 208 4.6 16H239.4 200V504v8h-8H144h-8v-8V384zm48 0H152V496h32V384zM72 384V496h32V384H72z"/></svg>