<svg xmlns="http://www.w3.org/2000/svg" viewBox="0 0 384 512"><!--! Font Awesome Pro 6.5.1 by @fontawesome - https://fontawesome.com License - https://fontawesome.com/license (Commercial License) Copyright 2023 Fonticons, Inc. --><path d="M216 368H200h-8-8H168 136V288 270.8 204.6l-30.2 58.9L89.4 295.3l-7.3 14.2L53.7 294.9 61 280.7l65.7-128 4.5-8.7H136h4.9H192h32 18.7l15.9 84.7 2 10.7 10.7 2.1c36.9 7.1 64.7 39.6 64.7 78.5v48H304 272h-8H248 216zm56 16h8 24 32 16V368 320c0-46.8-33.4-85.7-77.7-94.3L256 128H224 192h0H140.9 136 121.4l-8.9 17.4-65.7 128-7.3 14.2-7.3 14.2 14.2 7.3 28.5 14.6 14.2 7.3 7.3-14.2 7.3-14.2 .3-.6 7.2-14 8.8-17.2V288v17.8V480v16 16h16 32 16l0-16V480 400 384h8 8v16l0 80 0 16v16h16 32 16V496 480 400 384h8zm-24 0v96 16H216V480 384h32zm-80 0v96 16H136V480 384h32zM248 56c0-30.9-25.1-56-56-56s-56 25.1-56 56s25.1 56 56 56h0c30.9 0 56-25.1 56-56zm-96 0a40 40 0 1 1 80 0 40 40 0 1 1 -80 0z"/></svg>