<svg xmlns="http://www.w3.org/2000/svg" viewBox="0 0 384 512"><!--! Font Awesome Pro 6.5.1 by @fontawesome - https://fontawesome.com License - https://fontawesome.com/license (Commercial License) Copyright 2023 Fonticons, Inc. --><path d="M48 32h8H184c70.1 0 129.1 47.5 146.7 112H384v16H334.1c1.2 7.8 1.9 15.8 1.9 24c0 13.8-1.8 27.3-5.3 40H384v16H325.4c-22.3 56.2-77.2 96-141.4 96H64V472v8H48v-8V328 240H0V224H48V160H0V144H48V40 32zM64 240v80H184c55.1 0 102.6-32.8 124-80H64zm250-16c3.9-12.6 6-26.1 6-40c0-8.2-.7-16.2-2.1-24H64v64H314zM184 48H64v96H314c-17.1-55.6-68.8-96-130-96z"/></svg>