<svg xmlns="http://www.w3.org/2000/svg" viewBox="0 0 640 512"><!--! Font Awesome Pro 6.5.1 by @fontawesome - https://fontawesome.com License - https://fontawesome.com/license (Commercial License) Copyright 2023 Fonticons, Inc. --><path d="M104 0H248h8V16h-8H123.3l168 168h57.4L506.3 26.3l5.7-5.7L523.3 32l-5.7 5.7-160 160-2.3 2.3H352 288h-3.3l-2.3-2.3L112 27.3V152v8H96v-8V8 0h8zM416 464V384c-62.3-20.8-129.7-20.8-192 0v80L64 512 0 384c37.3-48 153.6-144 320-144s282.7 96 320 144L576 512 416 464zM208 384V372.5l10.9-3.6c65.6-21.9 136.5-21.9 202.1 0l10.9 3.6V384v68.1l135.7 40.7L621 386.1C580.1 339 471.7 256 320 256S59.9 339 19 386.1L72.3 492.8 208 452.1V384z"/></svg>