<svg xmlns="http://www.w3.org/2000/svg" viewBox="0 0 640 512"><!--! Font Awesome Pro 6.5.1 by @fontawesome - https://fontawesome.com License - https://fontawesome.com/license (Commercial License) Copyright 2023 Fonticons, Inc. --><path d="M512 512C264.6 512 64 311.4 64 64l0-32L208 0l80 144-83.8 67c36.1 68.4 92.3 124.6 160.8 160.8L432 288l144 80L544 512H512zM80 64l0 0c0 238.6 193.4 432 432 432h19.2l26.6-119.8L436 308.6l-58.6 73.2-8.3 10.3-11.7-6.2C286.2 348.3 227.7 289.8 190 218.5l-6.2-11.7 10.3-8.3L267.4 140 199.8 18.2 80 44.8 80 64zM417.8 6.5l5.7 5.7L488 76.7l64.6-64.6 5.7-5.7 11.3 11.3-5.7 5.7L499.3 88l64.6 64.6 5.7 5.7-11.3 11.3-5.7-5.7L488 99.3l-64.6 64.6-5.7 5.7-11.3-11.3 5.7-5.7L476.7 88 412.1 23.4l-5.7-5.7L417.8 6.5z"/></svg>