<svg xmlns="http://www.w3.org/2000/svg" viewBox="0 0 512 512"><!--! Font Awesome Pro 6.5.1 by @fontawesome - https://fontawesome.com License - https://fontawesome.com/license (Commercial License) Copyright 2023 Fonticons, Inc. --><path d="M0 64C0 311.4 200.6 512 448 512h32l32-144L368 288l-67 83.8C232.5 335.7 176.3 279.5 140.2 211L224 144 144 0 0 32 0 64zM16 44.8L135.8 18.2 203.4 140l-73.2 58.6-10.3 8.3 6.2 11.7c37.6 71.3 96.2 129.8 167.4 167.4l11.7 6.2 8.3-10.3L372 308.6l121.7 67.6L467.1 496H448C209.4 496 16 302.6 16 64l0 0 0-19.2z"/></svg>