<svg xmlns="http://www.w3.org/2000/svg" viewBox="0 0 576 512"><!--! Font Awesome Pro 6.5.1 by @fontawesome - https://fontawesome.com License - https://fontawesome.com/license (Commercial License) Copyright 2023 Fonticons, Inc. --><path d="M224 16V32 48 432H96V48 32 16H224zM80 16V32H16 0V48 496v16H16 560h16V496 48 32H560 240V16 0H224 96 80V16zM16 48H80V432v16H96 224h16V432 48H560V496H16V48zm304 64H480v80H320V112zM304 96v16 80 16h16H480h16V192 112 96H480 320 304zm0 160v8 64 8h8 64 8v-8V264v-8h-8H312h-8zm16 16h48v48H320V272zm104-16h-8v8 64 8h8 64 8v-8V264v-8h-8H424zm8 64V272h48v48H432zm-16 48v8 64 8h8 64 8v-8V376v-8h-8H424h-8zm16 16h48v48H432V384zM312 368h-8v8 64 8h8 64 8v-8V376v-8h-8H312zm8 64V384h48v48H320z"/></svg>