<svg xmlns="http://www.w3.org/2000/svg" viewBox="0 0 512 512"><!--! Font Awesome Pro 6.5.1 by @fontawesome - https://fontawesome.com License - https://fontawesome.com/license (Commercial License) Copyright 2023 Fonticons, Inc. --><path d="M256 120c-80 0-128 24-128 24L96 224H0V128s96-96 256-96s256 96 256 96v96H416l-32-80s-48-24-128-24zM115.4 132.4c13.6-6.8 27.7-11.8 42.4-15.8C181 110.2 214.4 104 256 104s75 6.2 98.2 12.6c14.6 4 28.8 9.1 42.4 15.8L426.8 208H496V135c-8.7-7.7-29.1-24.3-59.7-41C394.1 71 332.7 48 256 48S117.9 71 75.7 94c-30.6 16.7-51 33.3-59.7 41v73H85.2l30.2-75.6zM256 240a72 72 0 1 0 0 144 72 72 0 1 0 0-144zm56 72a56 56 0 1 1 -112 0 56 56 0 1 1 112 0zM32 480V384L160 160H352L480 384v96H32zm432-16V388.2L342.7 176H169.3L48 388.2V464H464z"/></svg>