<svg xmlns="http://www.w3.org/2000/svg" viewBox="0 0 512 512"><!--! Font Awesome Pro 6.5.1 by @fontawesome - https://fontawesome.com License - https://fontawesome.com/license (Commercial License) Copyright 2023 Fonticons, Inc. --><path d="M112 48V464H16V48h96zM16 32H0V48 464v16H16h96 16V464 48 32H112 16zM496 48V464H176V48H496zM176 32H160V48 464v16h16H496h16V464 48 32H496 176zm64 336a32 32 0 1 1 64 0 32 32 0 1 1 -64 0zm80 0a48 48 0 1 0 -96 0 48 48 0 1 0 96 0zm32-32v16h8 80 8V336h-8H360h-8zm0 48v16h8 80 8V384h-8H360h-8zM240 112H432V240H240V112zM224 96v16V240v16h16H432h16V240 112 96H432 240 224z"/></svg>