<svg xmlns="http://www.w3.org/2000/svg" viewBox="0 0 640 512"><!--! Font Awesome Pro 6.5.1 by @fontawesome - https://fontawesome.com License - https://fontawesome.com/license (Commercial License) Copyright 2023 Fonticons, Inc. --><path d="M208 16V260.7L314.3 154.3l5.7-5.7 5.7 5.7L384 212.7 506.3 90.3l5.7-5.7 5.7 5.7L624 196.7V16H208zm0 267.3V336h52.7l112-112L320 171.3l-112 112zM283.3 336H624V219.3l-112-112L389.7 229.7 283.3 336zM640 218.9V336v16H624 208 192V336 16 0h16H624h16V16 213.9c.5 1.6 .5 3.4 0 5zM288 72a24 24 0 1 0 0 48 24 24 0 1 0 0-48zm40 24a40 40 0 1 1 -80 0 40 40 0 1 1 80 0zM128 160h32v16H128v80 80 72 88H384V408 384h16v16h64V384h16v16 8 8 80 16H464 400h-8-8H128h-8-8H16 0V496 416v-8-8V344v-8-8V264v-8-8V176 160H16h96 8 8zM112 416H16v80h96V416zm0-16V344H16v56h96zm0-72V264H16v64h96zm0-80V176H16v72h96zM464 416H400v80h64V416z"/></svg>