<svg xmlns="http://www.w3.org/2000/svg" viewBox="0 0 640 512"><!--! Font Awesome Pro 6.5.1 by @fontawesome - https://fontawesome.com License - https://fontawesome.com/license (Commercial License) Copyright 2023 Fonticons, Inc. --><path d="M592 16H176V336h20.7l5.7-5.7 240-240 5.7-5.7 5.7 5.7 72.1 72.1-17 5.7L448 107.3 219.3 336H400v16H176 160V336 16 0h16H592h16V16 135l-16 5.3V16zM264 96a24 24 0 1 0 48 0 24 24 0 1 0 -48 0zm24 40a40 40 0 1 1 0-80 40 40 0 1 1 0 80zM128 96v16 80 80 72 40 48H296.5c-2.7 5-4.9 10.3-6.3 16H128h-8-8H16 0V432 352v-8-8V280v-8-8V200v-8-8V112 96H16h96 8 8zM16 352v80h96V352H16zm0-16h96V280H16v56zm0-72h96V200H16v64zm0-80h96V112H16v72zm624-27.2v11.1 72 152c0 .9-.1 1.7-.4 2.5c.3 1.8 .4 3.6 .4 5.5c0 26.5-28.7 48-64 48s-64-21.5-64-48s28.7-48 64-48c19.1 0 36.3 6.3 48 16.2V251L448 309.7V463.9l0 .1c0 26.5-28.7 47.9-64 47.9c-35.3 0-64-21.5-64-48s28.7-48 64-48c19.1 0 36.3 6.3 48 16.2V303.9v-72-5.8l5.5-1.8 192-64 10.5-3.5zm-220.3 286c-8.6-6.4-21.1-10.9-35.7-10.9s-27.1 4.4-35.7 10.9s-12.3 14.1-12.3 21.1s3.8 14.7 12.3 21.1s21.1 10.9 35.7 10.9s27.1-4.4 35.7-10.9s12.3-14.1 12.3-21.1s-3.8-14.7-12.3-21.1zm28.3-150l176-58.7V179L448 237.7v55.1zM624 399.9c0-7.1-3.8-14.7-12.3-21.1s-21.1-10.9-35.7-10.9s-27.1 4.4-35.7 10.9s-12.3 14.1-12.3 21.1s3.8 14.7 12.3 21.1s21.1 10.9 35.7 10.9s27.1-4.4 35.7-10.9s12.3-14.1 12.3-21.1z"/></svg>