<svg xmlns="http://www.w3.org/2000/svg" viewBox="0 0 512 512"><!--! Font Awesome Pro 6.5.1 by @fontawesome - https://fontawesome.com License - https://fontawesome.com/license (Commercial License) Copyright 2023 Fonticons, Inc. --><path d="M112 352v64 16H96 64 48V416 352H16V496H496V352H464v64 16H448 416 400V416 352H384v64 16H368 336 320V416 352H272v64 16H256 224 208V416 352H192v64 16H176 144 128V416 352H112zm336 0H416v64h32V352zm16-16h32V297.9L376.8 238.3c-5.4-2.7-8.8-8.3-8.8-14.3V192c0-97.2-78.8-176-176-176S16 94.8 16 192V336H48 64 96h16 16 16 32 16 16 16 32 16 48 16 32 16 16 16 32 16zM336 416h32V352H336v64zm-80-64H224v64h32V352zM144 416h32V352H144v64zM96 352H64v64H96V352zm416-64v48 8 8V496v16H496 16 0V496 352v-8-8V192C0 86 86 0 192 0S384 86 384 192v32l128 64z"/></svg>