<svg xmlns="http://www.w3.org/2000/svg" viewBox="0 0 576 512"><!--! Font Awesome Pro 6.5.1 by @fontawesome - https://fontawesome.com License - https://fontawesome.com/license (Commercial License) Copyright 2023 Fonticons, Inc. --><path d="M560 224H464V328v8h-8H432v96H560V224zM416 432V336H392h-8v-8V224H328V328v8h-8H296v96H416zm-136 0V336H256h-8v-8V224H192V328v8h-8H160v96H280zm-136 0V336H120h-8v-8V224H16V432H144zm0-112h16 16V224H128v96h16zm136 0h16 16V224H264v96h16zm136 0h16 16V224H400v96h16zM560 208V80H16V208H120h64 72 64 72 64H560zm16 0v8 8V432v16H560 16 0V432 224v-8-8V80 64H16 560h16V80 208z"/></svg>