<svg xmlns="http://www.w3.org/2000/svg" viewBox="0 0 576 512"><!--! Font Awesome Pro 6.5.1 by @fontawesome - https://fontawesome.com License - https://fontawesome.com/license (Commercial License) Copyright 2023 Fonticons, Inc. --><path d="M288 64C179.6 64 87.3 133.6 53.7 230.6L51.8 236H46.1 44.8h-28v56h28H56h6.6l5.9-3 49.5-24.8 3.2-1.6 3.3 1.3 65 26 9.9 4 10-3.7 75.7-27.5 2.7-1 2.7 1 75.7 27.5 10 3.7 9.9-4 65-26 3.3-1.3 3.2 1.6L507.5 289l5.9 3H520h11.2 28V236h-28-1.3-5.7l-1.9-5.4C488.7 133.6 396.5 64 288 64zM40.5 220C77.8 119.6 174.5 48 288 48s210.2 71.6 247.5 172h31.7 8v8 72 8h-8-36H520h-8.5-1.9l-1.7-.8-7.6-3.8L454 280.2l-61.7 24.7L379.6 310l-2.8 1.1-2.9-1L361 305.4l-73-26.5-73 26.5L202.1 310l-2.9 1-2.8-1.1-12.8-5.1L122 280.2 75.7 303.4l-7.6 3.8-1.7 .8H64.5 56 44.8 8.8 .8v-8V228v-8h8H40.5zm18 115.4c5.6-.5 11-1.2 16.2-2.1L107.5 432H468.5l32.9-98.7c5.2 .9 10.6 1.7 16.2 2.1L480 448H96L58.5 335.4zM199.2 139.6l-24 48-3.6 7.2-14.3-7.2 3.6-7.2 24-48 3.6-7.2 14.3 7.2-3.6 7.2zm192-7.2l24 48 3.6 7.2-14.3 7.2-3.6-7.2-24-48-3.6-7.2 14.3-7.2 3.6 7.2zM296 136v48 8H280v-8V136v-8h16v8z"/></svg>