<svg xmlns="http://www.w3.org/2000/svg" viewBox="0 0 640 512"><!--! Font Awesome Pro 6.5.1 by @fontawesome - https://fontawesome.com License - https://fontawesome.com/license (Commercial License) Copyright 2023 Fonticons, Inc. --><path d="M480 32h-1.5l-1.4 .5L415.4 56.3c-12.9 5-23.8 13.3-31.9 23.7c-.8 0-1.5 0-2.3 0H240C157 80 88.8 143.1 80.8 224H45.2C29.1 224 16 210.9 16 194.8v-1.5c0-11.7 7.5-22 18.5-25.7l24-8 7.6-2.5-5.1-15.2-7.6 2.5-24 8C11.9 158.3 0 174.7 0 193.3v1.5c0 25 20.2 45.2 45.2 45.2H80v16c0 52.1 27.7 97.8 69.2 123l34.2 95.6 1.9 5.3h5.6H264h8v-8V416h48 64v56 8h8 73.1 5.6l1.9-5.3 22.2-62.1c34.2-8.1 64-29.8 81.9-60.6H632h8v-8V216v-8h-8H586.5c-13.2-5.9-24.7-15.2-33.1-27.1c28.1-12.4 46.6-40.3 46.6-71.5V96 88h-8H512V40 32h-8H480zm31.3 72H584v5.4c0 25.7-15.7 48.5-39.4 57.9c-11-16.4-24.2-30.9-39.2-43.1c2.9-6.3 4.9-13.1 5.9-20.2zM421.2 71.2L481.5 48H496V94c0 10.2-2.8 19.9-7.7 28.3l-3.6 6.1 5.7 4.3c18.1 13.7 33.7 30.9 45.7 51c10.7 17.8 26.7 31.6 45.7 39.7l1.5 .6h1.6H624V336H572.1h-4.8l-2.3 4.2c-16.1 30.1-44.8 51.1-77.8 57.6l-4.5 .9-1.5 4.3-21.8 61H400V408v-8h-8H320 264h-8v8 56H196.5l-33.2-93-1-2.8-2.5-1.5C121.6 344.6 96 303.3 96 256V240c0-79.5 64.5-144 144-144H381.2c2 0 4 0 6 .1l4.4 .1 2.5-3.6c6.5-9.5 15.8-17.1 27.1-21.4zM464 256a16 16 0 1 0 0-32 16 16 0 1 0 0 32z"/></svg>