<svg xmlns="http://www.w3.org/2000/svg" viewBox="0 0 576 512"><!--! Font Awesome Pro 6.5.1 by @fontawesome - https://fontawesome.com License - https://fontawesome.com/license (Commercial License) Copyright 2023 Fonticons, Inc. --><path d="M176 112c0-53 43-96 96-96c48 0 87.8 35.2 94.9 81.2l15.8-2.4C374.4 41.1 328 0 272 0C210.1 0 160 50.1 160 112h16zm207.6 32l4.8-5.3C403 122.3 424.3 112 448 112h27.5l-11 44.1-2.6 10.3 8.5 6.4c19.8 14.9 35.6 34.7 45.6 57.6l4.2 9.6h10.5H560V368H512h-8l-4.8 6.4c-14.9 19.8-34.7 35.6-57.6 45.6l-9.6 4.2v10.5V496H336V448h8 8V432h-8-8H320 256 240h-8-8v16h8 8v48H144V416v-8l-6.4-4.8C102.6 376.9 80 335.1 80 288c0-79.5 64.5-144 144-144H376.4h7.2zM256 464V448h16 32 16v16 32 16h16 96 16V496 434.7c25.5-11.1 47.5-28.7 64-50.7h48 16V368 240 224H560 530.7c-11.1-25.5-28.7-47.5-50.7-64l12-48 4-16H479.5 448c-28.4 0-54 12.4-71.6 32H224c-83 0-151.2 63.1-159.2 144H52c-19.9 0-36-16.1-36-36s16.1-36 36-36h4 8V184H56 52c-28.7 0-52 23.3-52 52s23.3 52 52 52H64c0 52.3 25.1 98.8 64 128v80 16h16 96 16V496 464zM416 240a16 16 0 1 1 0 32 16 16 0 1 1 0-32zm0 48a32 32 0 1 0 0-64 32 32 0 1 0 0 64z"/></svg>