<svg xmlns="http://www.w3.org/2000/svg" viewBox="0 0 512 512"><!--! Font Awesome Pro 6.5.1 by @fontawesome - https://fontawesome.com License - https://fontawesome.com/license (Commercial License) Copyright 2023 Fonticons, Inc. --><path d="M176 0h8 64 8V8 232H504h8v8V504v8h-8H408h-8v-8V408H224v96 8h-8H104 96v-8V220.9L4.4 175.2 0 172.9V168 72 64H8 176V8 0zm16 16V72v8h-8H16v83.1l91.6 45.8 4.4 2.2V216v28.7l34.3-12.2 2.5-.9 2.5 .7 51.5 15.3L240 234.4V16H192zM112 316.4l31.3-11.9 3.2-1.2 3.1 1.5 30.6 14.5 38.9-14.8 3.2-1.2 3.1 1.5 30.6 14.5 38.9-14.8 3.2-1.2 3.1 1.5 30.6 14.5 38.9-14.8 3.2-1.2 3.1 1.5 30.6 14.5 38.9-14.8 3.2-1.2 3.1 1.5 30.6 14.5 12.7-4.8V248H249.4l-43.7 15.5-2.5 .9-2.5-.7-51.5-15.3L112 261.6v54.8zm0 17.1v70.7l29-11.6 2.7-1.1 2.8 .9L192 407.6l16-5.3V400v-8h8H408h8v8 7.6l45.5-15.2 2.8-.9 2.7 1.1 29 11.6V331.6l-10.2 3.9-3.2 1.2-3.1-1.5-30.6-14.5L410 335.5l-3.2 1.2-3.1-1.5-30.6-14.5-38.9 14.8-3.2 1.2-3.1-1.5-30.6-14.5-38.9 14.8-3.2 1.2-3.1-1.5-30.6-14.5-38.9 14.8-3.2 1.2-3.1-1.5-30.6-14.5L112 333.5zm384 87.9l-32.2-12.9-45.2 15.1-2.5 .8V496h80V421.4zm-288-2.3l-13.5 4.5-2.5 .8-2.5-.8-45.2-15.1L112 421.4V496h96V419.1zM176 128a16 16 0 1 0 0 32 16 16 0 1 0 0-32zm32 16a32 32 0 1 1 -64 0 32 32 0 1 1 64 0z"/></svg>