<svg xmlns="http://www.w3.org/2000/svg" viewBox="0 0 640 512"><!--! Font Awesome Pro 6.5.1 by @fontawesome - https://fontawesome.com License - https://fontawesome.com/license (Commercial License) Copyright 2023 Fonticons, Inc. --><path d="M48 112V400H16V112H48zM16 96H0v16V400v16H16 48 64V400 384H320.7c-.5-5.3-.7-10.6-.7-16H64V144H448v54.6c5.2-1.5 10.6-2.7 16-3.7V112h32v80c5.4 0 10.7 .2 16 .7V112 96H496 464 448v16 16H64V112 96H48 16zM496 240a128 128 0 1 1 0 256 128 128 0 1 1 0-256zm0 272a144 144 0 1 0 0-288 144 144 0 1 0 0 288zm75.3-184L560 316.7l-5.7 5.7L480 396.7l-42.3-42.3-5.7-5.7L420.7 360l5.7 5.7 48 48 5.7 5.7 5.7-5.7 80-80 5.7-5.7z"/></svg>