<svg xmlns="http://www.w3.org/2000/svg" viewBox="0 0 640 512"><!--! Font Awesome Pro 6.5.1 by @fontawesome - https://fontawesome.com License - https://fontawesome.com/license (Commercial License) Copyright 2023 Fonticons, Inc. --><path d="M498.7 0h-4l-2.4 3.1L256 312.4V232v-8h-8H8 0v8V360c0 83.9 68.1 152 152 152h9.8c51.5 0 99.5-26.1 127.5-69.3L535 64h97 8V56 8 0h-8H498.7zM367.1 193.3L502.6 16H624V48H530.7h-4.3L524 51.6 410.8 226.1l-43.7-32.8zM357.4 206l44.7 33.5L275.9 434c-25.1 38.7-68 62-114.1 62H152C76.9 496 16 435.1 16 360V240H240v96 23.6l14.4-18.8L357.4 206z"/></svg>