<svg xmlns="http://www.w3.org/2000/svg" viewBox="0 0 512 512"><!--! Font Awesome Pro 6.5.1 by @fontawesome - https://fontawesome.com License - https://fontawesome.com/license (Commercial License) Copyright 2023 Fonticons, Inc. --><path d="M264 40c0-4.4-3.6-8-8-8s-8 3.6-8 8V70.8L112 50.4 96 48V64.2v63.6V144l16-2.4 136-20.4V192H64V176 160H48 16 0v16V464v16H16 48 64V464 448H448v16 16h16 32 16V464 176 160H496 464 448v16 16H264V121.2l136 20.4 16 2.4V127.8 64.2 48l-16 2.4L264 70.8V40zM448 208V432H64V208H256 448zM248 87v18L112 125.4V66.6L248 87zm16 18V87L400 66.6v58.8L264 105zM48 176V464H16V176H48zm416 0h32V464H464V176z"/></svg>