<svg xmlns="http://www.w3.org/2000/svg" viewBox="0 0 640 512"><!--! Font Awesome Pro 6.5.1 by @fontawesome - https://fontawesome.com License - https://fontawesome.com/license (Commercial License) Copyright 2023 Fonticons, Inc. --><path d="M224 192l-64 48V496H16V361.1l112-67.2V275.2L0 352V496v16H16 160v0h16 80 16 96 16 80 16v0H624h16V496 352L512 275.2v18.7l112 67.2V496H480V240l-64-48V96L331.3 11.3 320 0 308.7 11.3 224 96v96zM464 496H384V384c0-35.3-28.7-64-64-64s-64 28.7-64 64V496H176V248l57.6-43.2L240 200v-8V102.6l80-80 80 80V192v8l6.4 4.8L464 248V496zm-96 0H272V384c0-26.5 21.5-48 48-48s48 21.5 48 48V496z"/></svg>