<svg xmlns="http://www.w3.org/2000/svg" viewBox="0 0 576 512"><!--! Font Awesome Pro 6.5.1 by @fontawesome - https://fontawesome.com License - https://fontawesome.com/license (Commercial License) Copyright 2023 Fonticons, Inc. --><path d="M576 256c0-19.8-16.2-35.8-33.3-46.3C525.2 199 503.4 192 486.8 192H368l-1.3 0-35.3-64H344h8v-8V72 64h-8H296L263 4.1 260.7 0H256 168 157.5l2.8 10.1L210.5 192H192l-68 0L78.4 131.2 76 128H72l-56 0H5.6l2.7 10.1L31.2 224C13.9 224.4 0 238.6 0 256s13.9 31.6 31.2 32L8.3 373.9 5.6 384H16 72h4l2.4-3.2L124 320h68l18.5 0L160.3 501.9 157.5 512H168l88 0h4.7l2.3-4.1L296 448h48 8v-8V392v-8h-8H331.3l35.3-64 1.3 0 118.8 0c16.6 0 38.3-6.7 55.8-17.3C559.8 292.3 576 276.2 576 256zM322.5 400H336v32H304.9l17.7-32zM336 112H322.5L304.9 80H336v32zM35.5 272H32c-8.8 0-16-7.2-16-16s7.2-16 16-16h3.5l4.3 16-4.3 16zm451.4-64c13 0 31.8 5.7 47.5 15.3c16.1 9.9 25.7 21.8 25.7 32.7c0 11.3-9.6 23.2-25.6 33c-15.6 9.5-34.5 15-47.5 15L368 304l-6.1 0h-4.7l-125.7 0H221 192 120h-4l-2.4 3.2L68 368H26.4L55.7 258.1l.5-2.1-.5-2.1L26.4 144 68 144l45.6 60.8L116 208h4l72 0h29 10.5l125.7 0h4.7l6.1 0H486.8zM251.3 16l97.1 176H227.1L178.5 16l72.8 0zm97.1 304L251.3 496l-72.8 0 48.6-176H348.4z"/></svg>