<svg xmlns="http://www.w3.org/2000/svg" viewBox="0 0 576 512"><!--! Font Awesome Pro 6.5.1 by @fontawesome - https://fontawesome.com License - https://fontawesome.com/license (Commercial License) Copyright 2023 Fonticons, Inc. --><path d="M512 112a48 48 0 1 0 0-96 48 48 0 1 0 0 96zM512 0a64 64 0 1 1 0 128A64 64 0 1 1 512 0zM224 496c114.9 0 208-93.1 208-208c0-98.5-68.4-180.9-160.3-202.5l8.2 57.4 .5 3.6-2.4 2.8L186.9 255.6 211.3 280H320h8v8 64 2l-1 1.8-56 104-2.3 4.2H264 224h-8v-8V392H192h-8v-8V323.3L124.7 264H64 60.7l-2.3-2.3L24.8 228.1c-5.7 19-8.8 39.1-8.8 59.9c0 114.9 93.1 208 208 208zM30.6 211.3L67.3 248H128h3.3l2.3 2.3 64 64 2.3 2.3V320v56h24 8v8 64h27.2L312 350V296H208h-3.3l-2.3-2.3-32-32-5.2-5.2 4.8-5.6 93.6-109.2-8.5-59.2C245 80.8 234.6 80 224 80C136.2 80 61.1 134.4 30.6 211.3zM269.3 68.6C371.3 89.5 448 179.8 448 288c0 123.7-100.3 224-224 224S0 411.7 0 288S100.3 64 224 64c9.7 0 19.3 .6 28.8 1.8c5.5 .7 11 1.6 16.4 2.7c.1 0 .1 0 .2 0z"/></svg>