<svg xmlns="http://www.w3.org/2000/svg" viewBox="0 0 512 512"><!--! Font Awesome Pro 6.5.1 by @fontawesome - https://fontawesome.com License - https://fontawesome.com/license (Commercial License) Copyright 2023 Fonticons, Inc. --><path d="M-9.9 0H0 128h3.3l2.3 2.3 248 248 5.7 5.7H504h8v16h-8H257L16 334.2v76.2L257.4 496H504h8v16h-8H256h-1.4l-1.3-.5-248-88L0 421.7V416 328v-6.2l6-1.5 48.9-12.6L-7.8 9.6-9.9 0zM124.7 16H9.9L70.4 303.6 254 256.3l1-.3h1H364.7L124.7 16zM200 368H376h8v16h-8H200h-8V368h8z"/></svg>