<svg xmlns="http://www.w3.org/2000/svg" viewBox="0 0 576 512"><!--! Font Awesome Pro 6.5.1 by @fontawesome - https://fontawesome.com License - https://fontawesome.com/license (Commercial License) Copyright 2023 Fonticons, Inc. --><path d="M542.7 209.7C559.8 220.2 576 236.2 576 256c0 20.2-16.2 36.3-33.3 46.7c-17.6 10.7-39.3 17.3-55.8 17.3L368 320l-1.3 0L263 507.9l-2.3 4.1H256l-88 0H157.5l2.8-10.1L210.5 320 192 320H124L78.4 380.8 76 384H72 16 5.6l2.7-10.1L39.7 256 8.3 138.1 5.6 128H16l56 0h4l2.4 3.2L124 192l68 0h18.5L160.3 10.1 157.5 0H168h88 4.7L263 4.1 366.7 192l1.3 0H486.8c16.6 0 38.3 7 55.9 17.7zM368 208l-6.1 0h-4.7l-125.7 0H221 192l-72 0h-4l-2.4-3.2L68 144l-41.6 0L55.7 253.9l.5 2.1-.5 2.1L26.4 368H68l45.6-60.8L116 304h4 72 29 10.5l125.7 0h4.7l6.1 0 118.8 0c13 0 31.9-5.6 47.5-15c16-9.7 25.6-21.6 25.6-33c0-10.9-9.6-22.8-25.7-32.7c-15.7-9.6-34.5-15.3-47.5-15.3H368zm-19.6-16L251.3 16l-72.8 0 48.6 176H348.4zM227.1 320L178.5 496l72.8 0 97.1-176H227.1z"/></svg>