<svg xmlns="http://www.w3.org/2000/svg" viewBox="0 0 576 512"><!--! Font Awesome Pro 6.5.1 by @fontawesome - https://fontawesome.com License - https://fontawesome.com/license (Commercial License) Copyright 2023 Fonticons, Inc. --><path d="M249.3 0H256h64 6.7l1.1 6.7L336.3 56H384V40 32h16v8V88h8 8v16h-8-8v48 8H384v-8V136H350l8.2 48H474.3c18.9 0 43.7 7.8 63.8 20c10.1 6.1 19.4 13.6 26.3 22.2s11.6 18.7 11.6 29.8c0 22.5-18.2 40.5-37.9 52.4C518 320.4 493.1 328 474.3 328l-116.1 0L350 376h34V360v-8h8 8v8 48h8 8v8 8h-8-8v48 8h-8-8v-8V456H336.3l-8.4 49.3-1.1 6.7H320 256h-6.7l-1.1-6.7L239.7 456H192h-8v-8V384v-8h8 34l-8.9-52.1L135.2 313l-15.4 64.8-1.5 6.1H112 64 57.6l-1.4-6.2L38.7 300.2l0 0C16.5 297.2 0 278.3 0 256s16.5-41.2 38.7-44.2l0 0 17.5-77.6 1.4-6.2H64h48 6.3l1.5 6.1L135.2 199l81.9-10.9L226 136H192h-8v-8V64 56h8 47.7l8.4-49.3L249.3 0zm98 120H384V104 88 72H339.1l8.2 48zM236.9 72H200v48h28.7l8.2-48zM339.1 440H384V424 408 392H347.3l-8.2 48zM228.7 392H200v48h36.9l-8.2-48zM313.3 16H262.7l-29 169.8 13.2-1.8 .5-.1h.5 94L313.3 16zM248 328h-.5l-.5-.1-13.2-1.8 29 169.8h50.5L342 328H248zM70.4 144L53.1 220.8l-1.2 5.4-5.5 .7-5.6 .7C26.6 229.6 16 241.7 16 256s10.6 26.4 24.8 28.3l5.6 .7 5.5 .7 1.2 5.4L70.4 368h35.3l15.7-65.7 1.7-7 7.2 1L248.5 312l225.8 0c15.3 0 37.4-6.4 55.5-17.4C548.5 283.5 560 269.5 560 256c0-6.4-2.7-13.1-8.1-19.8s-13.1-13-22.1-18.5c-18.2-11.1-40.2-17.7-55.5-17.7H248.5L130.2 215.8l-7.2 1-1.7-7L105.7 144H70.4z"/></svg>