<svg xmlns="http://www.w3.org/2000/svg" viewBox="0 0 640 512"><!--! Font Awesome Pro 6.5.1 by @fontawesome - https://fontawesome.com License - https://fontawesome.com/license (Commercial License) Copyright 2023 Fonticons, Inc. --><path d="M258.8 2.8C239 2.8 223 19 212.5 36.1C201.7 53.6 194.8 75.4 194.8 92l0 78.8 0 9.3L6.9 283.8l-4.1 2.3v4.7 88 10.5l10.1-2.8 181.9-50.2 0 10.5 0 44L134 436.4l-3.2 2.4v4l0 56v10.4l10.1-2.7 117.9-31.5L368 504.2V487.6L260.9 459.1l-2.1-.6-2.1 .6L146.8 488.4l0-41.6 60.8-45.6 3.2-2.4v-4l0-48 0-21V315.3 184.9l0-14.1 0-78.8c0-13 5.7-31.9 15.3-47.5c9.9-16.1 21.8-25.7 32.7-25.7c11.3 0 23.2 9.6 33 25.6c9.5 15.6 15 34.5 15 47.5l0 78.8 0 14.1v4.7l0 125.7v10.5 21l0 48v4l3.2 2.4 26 19.5c-2.5-7.9-4.4-16-5.8-24.3l-7.5-5.6 0-44V336.3l7.7 2.1c.9-5.3 2-10.5 3.4-15.7l-11.1-3.1V198.4l66.1 36.5c4.4-3.8 9-7.4 13.7-10.7l-79.8-44 0-9.3 0-78.8c0-16.6-6.7-38.3-17.3-55.8C295 19 279 2.8 258.8 2.8zM18.8 295.5l176-97.1V319.7l-176 48.6 0-72.8zM368 368a128 128 0 1 1 256 0 128 128 0 1 1 -256 0zm272 0a144 144 0 1 0 -288 0 144 144 0 1 0 288 0zM508 444V420H484v24h24zm-4-164H488v8 96 8h16v-8V288v-8z"/></svg>