<svg xmlns="http://www.w3.org/2000/svg" viewBox="0 0 640 512"><!--! Font Awesome Pro 6.5.1 by @fontawesome - https://fontawesome.com License - https://fontawesome.com/license (Commercial License) Copyright 2023 Fonticons, Inc. --><path d="M351.4 372.5L283.3 496H210.5l50.2-181.9 2.8-10.1H253 152h-4l-2.4 3.2L100 368H58.4L87.7 258.1l.5-2.1-.5-2.1L58.4 144h3.5L41.7 128H37.6l2.7 10.1L71.7 256 40.3 373.9 37.6 384H48h56 4l2.4-3.2L156 320h86.5L192.3 501.9 189.5 512H200h88 4.7l2.3-4.1 69.1-125.3-12.7-10zM192.3 10.1l18.8 68.2L232.3 95 210.5 16l72.8 0L386.9 203.9l2.3 4.1h4.7H518.8c13 0 31.8 5.7 47.5 15.3c16.1 9.9 25.7 21.8 25.7 32.7c0 11.3-9.6 23.2-25.6 33c-15.6 9.5-34.5 15-47.5 15H497l20.3 16h1.5c16.6 0 38.3-6.7 55.8-17.3C591.8 292.3 608 276.2 608 256c0-19.8-16.2-35.8-33.3-46.3C557.2 199 535.4 192 518.8 192H398.7L295 4.1 292.7 0H288 200 189.5l2.8 10.1zM16.2 5L9.9 0 0 12.5l6.3 5L623.8 507l6.3 5 9.9-12.5-6.3-5L16.2 5z"/></svg>