<svg xmlns="http://www.w3.org/2000/svg" viewBox="0 0 512 512"><!--! Font Awesome Pro 6.5.1 by @fontawesome - https://fontawesome.com License - https://fontawesome.com/license (Commercial License) Copyright 2023 Fonticons, Inc. --><path d="M176 72c0 35.3 28.7 64 64 64V112c0-35.3-28.7-64-64-64V72zM160 32h16c44.2 0 80 35.8 80 80v24 16H240c-44.2 0-80-35.8-80-80V48 32zm16 216v24c35.3 0 64-28.7 64-64V184c-35.3 0-64 28.7-64 64zm-16 40V272 248c0-44.2 35.8-80 80-80h16v16 24c0 44.2-35.8 80-80 80H160zM288 48V72c0 35.3 28.7 64 64 64V112c0-35.3-28.7-64-64-64zm0-16c44.2 0 80 35.8 80 80v24 16H352c-44.2 0-80-35.8-80-80V48 32h16zm0 216v24c35.3 0 64-28.7 64-64V184c-35.3 0-64 28.7-64 64zm-16 40V272 248c0-44.2 35.8-80 80-80h16v16 24c0 44.2-35.8 80-80 80H272zM400 48V72c0 35.3 28.7 64 64 64V112c0-35.3-28.7-64-64-64zm0-16c44.2 0 80 35.8 80 80v24 16H464c-44.2 0-80-35.8-80-80V48 32h16zm0 216v24c35.3 0 64-28.7 64-64V184c-35.3 0-64 28.7-64 64zm-16 40V272 248c0-44.2 35.8-80 80-80h16v16 24c0 44.2-35.8 80-80 80H384zM0 152H8 152h8v16h-8H8 0V152zM40 80h80 8V96h-8H40 32V80h8zM32 224h8 80 8v16h-8H40 32V224zm80 220v20H400V444 431.6l12-3.1c43.3-11.1 76.4-47.5 82.9-92.5H416 96 17.1c6.4 45 39.6 81.3 82.9 92.5l12 3.1V444zm-16 0C45.8 431 7.5 388.5 1 336c-.7-5.2-1-10.6-1-16H16 96 416h80 16c0 5.4-.3 10.8-1 16c-6.5 52.5-44.8 95-95 108v20 16H400 112 96V464 444z"/></svg>