<svg xmlns="http://www.w3.org/2000/svg" viewBox="0 0 640 512"><!--! Font Awesome Pro 6.5.1 by @fontawesome - https://fontawesome.com License - https://fontawesome.com/license (Commercial License) Copyright 2023 Fonticons, Inc. --><path d="M16 16H0v8V184c0 22.1 17.9 40 40 40H64V488v8H80v-8V224h24c22.1 0 40-17.9 40-40V24 16H128v8V184c0 13.3-10.7 24-24 24H80V24 16H64v8V208H40c-13.3 0-24-10.7-24-24V24 16zM498 78.9C455.3 39.8 398.4 16 336 16c-61.5 0-117.5 23.1-160 61.1V99.2C216.7 57.7 273.3 32 336 32c60.3 0 115 23.8 155.3 62.5c2-5.5 4.3-10.7 6.7-15.6zm40.6 272.9C502.6 427.6 425.4 480 336 480c-91.4 0-170.1-54.8-204.9-133.3c-4.9 2-10.1 3.5-15.6 4.4C152.4 436.3 237.2 496 336 496c98.4 0 183-59.2 220-144H544c-1.8 0-3.7-.1-5.4-.2zM480 256a144 144 0 1 0 -288 0 144 144 0 1 0 288 0zm-272 0a128 128 0 1 1 256 0 128 128 0 1 1 -256 0zM624 21.2C589.7 34.1 512 72.8 512 160V304v16h16 96V488v8h16v-8V320v-8-8V32.6 16s-6.3 1.6-16 5.2zm0 17.2V304H528V160c0-48.8 27.6-80.5 57.1-100.8C599 49.6 613 42.8 624 38.4z"/></svg>