<svg xmlns="http://www.w3.org/2000/svg" viewBox="0 0 576 512"><!--! Font Awesome Pro 6.5.1 by @fontawesome - https://fontawesome.com License - https://fontawesome.com/license (Commercial License) Copyright 2023 Fonticons, Inc. --><path d="M112 8V0H96V8 112h16V8zM288 8V0H272V8 112h16V8zM8 144H0v16H8 40v80c0 81.3 63.8 147.6 144 151.8V504v8h16v-8V391.8c20-1 39-6 56.3-14c-.2-3.2-.3-6.5-.3-9.8c0-2.7 .1-5.4 .2-8.1c-19.1 10.3-41 16.1-64.2 16.1c-75.1 0-136-60.9-136-136V160H328v66c5.1-3.8 10.5-7.3 16-10.5V160h32 8V144h-8H344 328 56 40 8zm424 96a128 128 0 1 1 0 256 128 128 0 1 1 0-256zm0 272a144 144 0 1 0 0-288 144 144 0 1 0 0 288zm24.8-231.2l-18.3 17.5-84 80L340 392h20 51.8l-7.7 38.4-5 24.8 18.3-17.5 84-80L516 344H496 444.2l7.7-38.4 5-24.8zM380 376l51.2-48.8-4.6 23.2-1.9 9.6h9.8H476l-51.2 48.8 4.6-23.2 1.9-9.6h-9.8H380z"/></svg>