<svg xmlns="http://www.w3.org/2000/svg" viewBox="0 0 576 512"><!--! Font Awesome Pro 6.5.1 by @fontawesome - https://fontawesome.com License - https://fontawesome.com/license (Commercial License) Copyright 2023 Fonticons, Inc. --><path d="M112 8V0H96V8 112h16V8zM288 8V0H272V8 112h16V8zM8 144H0v16H8 40v80c0 81.3 63.8 147.6 144 151.8V504v8h16v-8V391.8c20-1 39-6 56.3-14c-.2-3.2-.3-6.5-.3-9.8c0-2.7 .1-5.4 .2-8.1c-19.1 10.3-41 16.1-64.2 16.1c-75.1 0-136-60.9-136-136V160H328v66c5.1-3.8 10.5-7.3 16-10.5V160h32 8V144h-8H344 328 56 40 8zM304 368a128 128 0 1 1 256 0 128 128 0 1 1 -256 0zm272 0a144 144 0 1 0 -288 0 144 144 0 1 0 288 0zm-82.3-50.3l5.7-5.7L488 300.7l-5.7 5.7L432 356.7l-50.3-50.3-5.7-5.7L364.7 312l5.7 5.7L420.7 368l-50.3 50.3-5.7 5.7L376 435.3l5.7-5.7L432 379.3l50.3 50.3 5.7 5.7L499.3 424l-5.7-5.7L443.3 368l50.3-50.3z"/></svg>