<svg xmlns="http://www.w3.org/2000/svg" viewBox="0 0 448 512"><!--! Font Awesome Pro 6.5.1 by @fontawesome - https://fontawesome.com License - https://fontawesome.com/license (Commercial License) Copyright 2023 Fonticons, Inc. --><path d="M192 16h96c17.7 0 32 14.3 32 32s-14.3 32-32 32H192V16zM176 0V16 40h-8c-39.8 0-72 32.2-72 72v48H8 0v16H8 440h8V160h-8H112V112c0-30.9 25.1-56 56-56h8V80 96h16 96c26.5 0 48-21.5 48-48s-21.5-48-48-48H192 176zM45.5 208L80 512H368l34.5-304H386.4L353.7 496H94.3L61.6 208H45.5zm185.8 28.6L224 220.9l-7.3 15.7-27.5 59.5-65.1 7.7-17.2 2 12.7 11.8 48.1 44.5L155 426.6l-3.4 17 15.1-8.5 57.2-32 57.2 32 15.1 8.5-3.4-17-12.8-64.3 48.1-44.5L341.1 306l-17.2-2-65.1-7.7-27.5-59.5zM201.9 307L224 259.1 246.1 307 248 311l4.4 .5 52.3 6.2L266 353.6l-3.3 3 .9 4.4 10.3 51.7-46-25.7-3.9-2.2-3.9 2.2-46 25.7L184.4 361l.9-4.4-3.3-3-38.7-35.8 52.3-6.2 4.4-.5 1.9-4.1z"/></svg>