<svg xmlns="http://www.w3.org/2000/svg" viewBox="0 0 448 512"><!--! Font Awesome Pro 6.5.1 by @fontawesome - https://fontawesome.com License - https://fontawesome.com/license (Commercial License) Copyright 2023 Fonticons, Inc. --><path d="M288 16H192V80h96c17.7 0 32-14.3 32-32s-14.3-32-32-32zM192 0h96c26.5 0 48 21.5 48 48s-21.5 48-48 48H192 176V80 56h-8c-30.9 0-56 25.1-56 56v48H440h8v16h-8H8 0V160H8 96V112c0-39.8 32.2-72 72-72h8V16 0h16zM80 512L45.5 208H61.6L94.3 496H353.7l32.7-288h16.1L368 512H80z"/></svg>