<svg xmlns="http://www.w3.org/2000/svg" viewBox="0 0 384 512"><!--! Font Awesome Pro 6.5.1 by @fontawesome - https://fontawesome.com License - https://fontawesome.com/license (Commercial License) Copyright 2023 Fonticons, Inc. --><path d="M200 8V0H184V8 32H72 64v8V64H40 32v8V496H8 0v16H8 376h8V496h-8H352V72 64h-8H320V40 32h-8H200V8zM336 496H48V80H70.5 72h8H304h8 2.8H336V496zM184 48h16H304V64H80V48H184zM96 272h64v64H96V272zM80 256v16 64 16H96h64 16V336 272 256H160 96 80zM288 144v24H264V144h24zm-64 0h24v24H224V144zm0 40h24v24H224V184zm64 24H264V184h24v24zm-64-80H208v16 64 16h16 64 16V208 144 128H288 224zm-88 16h24v24H136V144zm-16 24H96V144h24v24zm0 16v24H96V184h24zm16 0h24v24H136V184zM80 128v16 64 16H96h64 16V208 144 128H160 96 80z"/></svg>