<svg xmlns="http://www.w3.org/2000/svg" viewBox="0 0 640 512"><!--! Font Awesome Pro 6.5.1 by @fontawesome - https://fontawesome.com License - https://fontawesome.com/license (Commercial License) Copyright 2023 Fonticons, Inc. --><path d="M112 48A32 32 0 1 0 48 48a32 32 0 1 0 64 0zM32 48a48 48 0 1 1 96 0A48 48 0 1 1 32 48zm480 0V176H624V48H512zm-16 0H240V176H496V48zM224 32h16H624h16V48 176v16H624 240 224V176 48 32zM384 336V464H624V336H384zm-16 0H240V464H368V336zM224 320h16H624h16v16V464v16H624 240 224V464 336 320zM112 336a32 32 0 1 0 -64 0 32 32 0 1 0 64 0zm-80 0a48 48 0 1 1 96 0 48 48 0 1 1 -96 0zm11.5 96L22.2 496H137.8l-21.3-64H43.5zM128 416l26.7 80 5.3 16H143.1 16.9 0l5.3-16L32 416h96zM22.2 208H137.8l-21.3-64H43.5L22.2 208zM32 128h96l26.7 80 5.3 16H143.1 16.9 0l5.3-16L32 128z"/></svg>