<svg xmlns="http://www.w3.org/2000/svg" viewBox="0 0 448 512"><!--! Font Awesome Pro 6.5.1 by @fontawesome - https://fontawesome.com License - https://fontawesome.com/license (Commercial License) Copyright 2023 Fonticons, Inc. --><path d="M167.6 0h11.2c41.8 0 79.3 11.2 107.3 32.3C312.9 52.7 330.7 82 335 118.2c28.8 12.1 49 40.6 49 73.8v13.5c37.3 13.2 64 48.7 64 90.5v96 8h-8H357.3l10.7-8.3V384h64V296c0-36.6-24.6-67.5-58.2-77l-5.8-1.6v-6.1V192c0-28-18-51.8-43.1-60.5l-4.9-1.7-.4-5.2c-2.8-34-18.6-60.9-43.1-79.5c-22.2-16.8-51.9-26.9-86.1-28.8C194.5 28.3 200 46 200 63.4c0 34.5-24.7 54.1-41.9 63.6l-1.8 1h-2.1H144c-35.3 0-64 28.7-64 64v19.3 6.1L74.2 219C40.6 228.5 16 259.4 16 296v88H80v16H8 0v-8V296c0-41.8 26.7-77.4 64-90.5V192c0-44.2 35.8-80 80-80h8.2c15.1-8.7 31.8-23.9 31.8-48.6c0-17.5-6.7-36.1-11-47.8l0-.1 0 0 0 0c-.7-1.8-1.3-3.5-1.8-5L167.6 0zm-1.3 486.9L188 400l4-16H175.5 128 112V368v-8L267.6 239.8 288 224l-6.3 25.1L260 336l-4 16h16.5H320h16v16 8L180.4 496.2 160 512l6.3-25.1zM192 368h20.5l-5 19.9-20.8 83.3L320 368.1V368H256 235.5l5-19.9 20.8-83.3L128 367.9v.1h64z"/></svg>