<svg xmlns="http://www.w3.org/2000/svg" viewBox="0 0 512 512"><!--! Font Awesome Pro 6.5.1 by @fontawesome - https://fontawesome.com License - https://fontawesome.com/license (Commercial License) Copyright 2023 Fonticons, Inc. --><path d="M224 0H204.7l13.7 13.7 5.3 5.3C234.1 29.4 240 43.7 240 58.5V74.7c0 25-20.3 45.3-45.3 45.3H183.2 160c-39.8 0-72 32.2-72 72c0 11.9 2.9 23.1 8 32.9c-36.3 5.8-64 37.2-64 75.1c0 22 9.3 41.7 24.2 55.6C23.6 365.7 0 396.1 0 432v72 8H8 504h8v-8V432c0-35.9-23.6-66.3-56.2-76.4C470.7 341.7 480 322 480 300c0-37.9-27.7-69.3-64-75.1c5.1-9.9 8-21.1 8-32.9c0-37.1-28-67.6-64-71.6C359.5 53.8 305.4 0 238.6 0H224zm32 58.5c0-15.4-4.9-30.2-13.8-42.5C298.7 17.9 344 64.4 344 121.4c0 1.9-.1 3.8-.3 5.7l-1 8.9h9 .4c30.9 0 56 25.1 56 56c0 13.3-4.6 25.4-12.3 35l-10.4 13H402h2c33.1 0 60 26.9 60 60c0 23-12.9 42.9-31.9 53l-25.5 13.5 28.8 1.5c33.8 1.8 60.6 29.7 60.6 63.9v64H16V432c0-34.2 26.8-62.1 60.6-63.9l28.8-1.5L79.9 353C60.9 342.9 48 323 48 300c0-33.1 26.9-60 60-60h2 16.7l-10.4-13c-7.7-9.6-12.3-21.7-12.3-35c0-30.9 25.1-56 56-56h23.2 11.5c33.9 0 61.3-27.5 61.3-61.3V58.5zM192 304a16 16 0 1 0 0-32 16 16 0 1 0 0 32zm144-16a16 16 0 1 0 -32 0 16 16 0 1 0 32 0zM160 368H148.5l4.1 10.8L160 376c-7.5 2.8-7.5 2.8-7.5 2.8l0 0 0 0 0 .1 .1 .2 .3 .7c.2 .6 .6 1.3 1 2.3c.9 1.9 2.2 4.6 4 7.9c3.6 6.4 9.2 15 17.3 23.5C191.3 430.7 217.3 448 256 448s64.7-17.3 80.8-34.5c8-8.6 13.6-17.1 17.3-23.5c1.8-3.2 3.1-5.9 4-7.9c.4-1 .8-1.7 1-2.3l.3-.7 .1-.2 0-.1 0 0 0 0s0 0-7.5-2.8l7.5 2.8 4.1-10.8H352 160zm26.8 34.5c-6.2-6.6-10.7-13.2-13.9-18.5H339c-3.1 5.3-7.7 11.9-13.9 18.5C311.3 417.3 289.3 432 256 432s-55.3-14.7-69.2-29.5z"/></svg>