<svg xmlns="http://www.w3.org/2000/svg" viewBox="0 0 512 512"><!--! Font Awesome Pro 6.5.1 by @fontawesome - https://fontawesome.com License - https://fontawesome.com/license (Commercial License) Copyright 2023 Fonticons, Inc. --><path d="M264 8V0H248V8 248v8h16v-8V8zM40 263.1c0-83.6 47.5-156.1 117-192l-7.3-14.2C75 95.5 24 173.3 24 263.1c0 128.1 103.9 232 232 232s232-103.9 232-232c0-89.8-51-167.7-125.6-206.2L355 71.1c69.5 35.9 117 108.4 117 192c0 119.3-96.7 216-216 216s-216-96.7-216-216z"/></svg>