<svg xmlns="http://www.w3.org/2000/svg" viewBox="0 0 384 512"><!--! Font Awesome Pro 6.5.1 by @fontawesome - https://fontawesome.com License - https://fontawesome.com/license (Commercial License) Copyright 2023 Fonticons, Inc. --><path d="M368 16v96H16V16H368zM16 0H0V16v96 16H16 368h16V112 16 0H368 16zM32 160V496v16H48 336h16V496 160H336V496H48V160H32zm133.3 33.3h-8v8 52h-52-8v8 53.3 8h8 52v52 8h8 53.3 8v-8-52h52 8v-8V261.3v-8h-8-52v-52-8h-8H165.3zm8 68v-52h37.3v52 8h8 52v37.3h-52-8v8 52H173.3v-52-8h-8-52V269.3h52 8v-8z"/></svg>