<svg xmlns="http://www.w3.org/2000/svg" viewBox="0 0 576 512"><!--! Font Awesome Pro 6.5.1 by @fontawesome - https://fontawesome.com License - https://fontawesome.com/license (Commercial License) Copyright 2023 Fonticons, Inc. --><path d="M368 16v96H16V16H368zM16 0H0V16v96 16H16 368h16V112 16 0H368 16zM32 416v80 16H48 330.8c-6.9-4.9-13.5-10.2-19.6-16H48V416H152h8V400h-8H48V320H152h8V304h-8H48V224H152h8V208h-8H48V160H32v48 16 80 16 80 16zM352 160H336v60.5c5.2-3.4 10.5-6.5 16-9.3V160zm80 80a128 128 0 1 1 0 256 128 128 0 1 1 0-256zm0 272a144 144 0 1 0 0-288 144 144 0 1 0 0 288zM376 300.7L364.7 312l5.7 5.7 112 112 5.7 5.7L499.3 424l-5.7-5.7-112-112-5.7-5.7z"/></svg>