<svg xmlns="http://www.w3.org/2000/svg" viewBox="0 0 640 512"><!--! Font Awesome Pro 6.5.1 by @fontawesome - https://fontawesome.com License - https://fontawesome.com/license (Commercial License) Copyright 2023 Fonticons, Inc. --><path d="M144 16V160H128V16 0h16H448l64 64v96H496V70.6L441.4 16H144zM333.7 208H80V400h48V336 320h16H288c0 5.4 .3 10.7 .8 16H144V496H496V472.7c.7-.2 1.4-.5 2.2-.7L512 485.8V496v16H496 144 128V496 416H80 64V400 208 192H80 352c-6.5 4.9-12.6 10.2-18.2 16zM448 432.2a112 112 0 1 0 0-224 112 112 0 1 0 0 224zm0 16c-70.7 0-128-57.3-128-128s57.3-128 128-128s128 57.3 128 128c0 32.5-12.1 62.1-32 84.7l89.7 89.5 5.7 5.7L628 511.3l-5.7-5.7-89.7-89.5c-22.6 19.9-52.2 32-84.7 32z"/></svg>