<svg xmlns="http://www.w3.org/2000/svg" viewBox="0 0 640 512"><!--! Font Awesome Pro 6.5.1 by @fontawesome - https://fontawesome.com License - https://fontawesome.com/license (Commercial License) Copyright 2023 Fonticons, Inc. --><path d="M480 496H144V336H305.1l-20.3-16H144 128v16 64H80V208h63l-20.3-16H80 64v16V400v16H80h48v80 16h16H496h16V499.3l-4.2-3.3H496 480zM144 16h16H441.4L496 70.6V160h16V64L448 0H144 128V12.7l4.2 3.3H144zM560 192H355.1l20.3 16H560V353.7l16 12.6V208 192H560zm-48 96V256H480v32h32zM16.2 5L9.9 0 0 12.5l6.3 5L623.8 507l6.3 5 9.9-12.5-6.3-5L16.2 5z"/></svg>