<svg xmlns="http://www.w3.org/2000/svg" viewBox="0 0 640 512"><!--! Font Awesome Pro 6.5.1 by @fontawesome - https://fontawesome.com License - https://fontawesome.com/license (Commercial License) Copyright 2023 Fonticons, Inc. --><path d="M424 8V0H408V8 120v8h16v-8V8zM261.7 42.3L256 36.7 244.7 48l5.7 5.7 80 80 5.7 5.7L347.3 128l-5.7-5.7-80-80zm320 11.3l5.7-5.7L576 36.7l-5.7 5.7-80 80-5.7 5.7L496 139.3l5.7-5.7 80-80zM272 320a144 144 0 1 1 288 0 144 144 0 1 1 -288 0zm304 0c0-43.6-17.4-83.1-45.7-112H624V432H576 560 530.3c28.3-28.9 45.7-68.4 45.7-112zm0 128h48 16V432 208 192H624 512c-26.7-20.1-60-32-96-32s-69.3 11.9-96 32H16 0v16V432v16H16 64v56 8H80v-8V448H320c26.7 20.1 60 32 96 32s69.3-11.9 96-32l0 0h48v56 8h16v-8V448zM80 432H64 16V208H301.7C273.4 236.9 256 276.4 256 320s17.4 83.1 45.7 112H80zm32-112a16 16 0 1 1 -32 0 16 16 0 1 1 32 0zM96 288a32 32 0 1 0 0 64 32 32 0 1 0 0-64zm96 48a16 16 0 1 1 0-32 16 16 0 1 1 0 32zm-32-16a32 32 0 1 0 64 0 32 32 0 1 0 -64 0z"/></svg>