<svg xmlns="http://www.w3.org/2000/svg" viewBox="0 0 448 512"><!--! Font Awesome Pro 6.5.1 by @fontawesome - https://fontawesome.com License - https://fontawesome.com/license (Commercial License) Copyright 2023 Fonticons, Inc. --><path d="M136 0H248h8V8 56h80 3.3l2.3 2.3 56 56 5.7 5.7L392 131.3l-5.7-5.7L332.7 72H256v56H240V16H144V128H128V8 0h8zM48 512H32l1.1-16L56 160H328l22.9 336 1.1 16H336 48zm286.8-16L313.1 176H70.9L49.1 496H334.9zM168 256h48 8v8 40h40 8v8 48 8h-8H224v40 8h-8H168h-8v-8V368H120h-8v-8V312v-8h8 40V264v-8h8zm8 56v8h-8H128v32h40 8v8 40h32V360v-8h8 40V320H216h-8v-8V272H176v40z"/></svg>