<svg xmlns="http://www.w3.org/2000/svg" viewBox="0 0 448 512"><!--! Font Awesome Pro 6.5.1 by @fontawesome - https://fontawesome.com License - https://fontawesome.com/license (Commercial License) Copyright 2023 Fonticons, Inc. --><path d="M136 0H248h8V8 56h80 3.3l2.3 2.3 56 56 5.7 5.7L392 131.3l-5.7-5.7L332.7 72H256v56H240V16H144V128H128V8 0h8zM48 512H32l1.1-16L56 160H328l22.9 336 1.1 16H336 48zm286.8-16L313.1 176H70.9L49.1 496H334.9zM192 240.5l6.9 11.4 48.6 80.9c5.6 9.4 8.6 20.1 8.6 31c0 33.2-27 60.2-60.2 60.2h-7.6C155 424 128 397 128 363.8c0-10.9 3-21.6 8.6-31l48.6-80.9 6.9-11.4zm0 31.1L150.3 341c-4.1 6.9-6.3 14.7-6.3 22.7c0 24.4 19.8 44.2 44.2 44.2h7.6c24.4 0 44.2-19.8 44.2-44.2c0-8-2.2-15.9-6.3-22.7L192 271.5z"/></svg>