<svg xmlns="http://www.w3.org/2000/svg" viewBox="0 0 512 512"><!--! Font Awesome Pro 6.5.1 by @fontawesome - https://fontawesome.com License - https://fontawesome.com/license (Commercial License) Copyright 2023 Fonticons, Inc. --><path d="M173.9 15.7C187 5.8 204.8 0 224 0s37 5.8 50.1 15.7S296 39.7 296 56c0 20.3-13.5 37-32 46.6V128H376h8v8V248h25.4c9.6-18.5 26.4-32 46.6-32c16.3 0 30.5 8.8 40.3 21.9S512 268.8 512 288s-5.8 37-15.7 50.1s-24 21.9-40.3 21.9c-20.3 0-37-13.5-46.6-32H384V504v8h-8H256h-8v-8V465.6v-5.2l4.8-2.1c17.3-7.5 27.2-20.7 27.2-34.2c0-10.2-5.5-20-15.5-27.5S240.1 384 224 384s-30.4 4.9-40.5 12.5S168 413.8 168 424c0 13.6 9.9 26.7 27.2 34.2l4.8 2.1v5.2V504v8h-8H8 0v-8V320v-8H8 46.4h5.2l2.1 4.8C61.3 334.1 74.4 344 88 344c10.2 0 20-5.5 27.5-15.5s12.5-24.3 12.5-40.5s-4.9-30.4-12.5-40.5S98.2 232 88 232c-13.6 0-26.7 9.9-34.2 27.2L51.7 264H46.4 8 0v-8V136v-8H8 184V102.6C165.5 93 152 76.3 152 56c0-16.3 8.8-30.5 21.9-40.3zm9.6 12.8C173.5 36 168 45.8 168 56c0 13.6 9.9 26.7 27.2 34.2l4.8 2.1v5.2V136v8h-8H16V248H41.4C51 229.5 67.7 216 88 216c16.3 0 30.5 8.8 40.3 21.9S144 268.8 144 288s-5.8 37-15.7 50.1s-24 21.9-40.3 21.9c-20.3 0-37-13.5-46.6-32H16V496H184V470.6c-18.5-9.6-32-26.4-32-46.6c0-16.3 8.8-30.5 21.9-40.3S204.8 368 224 368s37 5.8 50.1 15.7s21.9 24 21.9 40.3c0 20.3-13.5 37-32 46.6V496H368V320v-8h8 38.4 5.2l2.1 4.8c7.5 17.3 20.7 27.2 34.2 27.2c10.2 0 20-5.5 27.5-15.5s12.5-24.3 12.5-40.5s-4.9-30.4-12.5-40.5S466.2 232 456 232c-13.6 0-26.7 9.9-34.2 27.2l-2.1 4.8h-5.2H376h-8v-8V144H256h-8v-8V97.6 92.3l4.8-2.1C270.1 82.7 280 69.6 280 56c0-10.2-5.5-20-15.5-27.5S240.1 16 224 16s-30.4 4.9-40.5 12.5z"/></svg>