<svg xmlns="http://www.w3.org/2000/svg" viewBox="0 0 640 512"><!--! Font Awesome Pro 6.5.1 by @fontawesome - https://fontawesome.com License - https://fontawesome.com/license (Commercial License) Copyright 2023 Fonticons, Inc. --><path d="M128 64h8H288h8v8V95.5v4.9l-4.4 2.2C274.7 111.2 264 126.8 264 144c0 25.5 24 48 56 48s56-22.5 56-48c0-17.2-10.7-32.8-27.6-41.4l-4.4-2.2V95.5 72 64h8H504h8v8V216h25.4c9.6-18.5 26.4-32 46.6-32c16.3 0 30.5 8.8 40.3 21.9S640 236.8 640 256s-5.8 37-15.7 50.1s-24 21.9-40.3 21.9c-20.3 0-37-13.5-46.6-32H512V440v8h-8H352h-8v-8V416.5v-4.9l4.4-2.2c16.9-8.6 27.6-24.2 27.6-41.4c0-25.5-24-48-56-48s-56 22.5-56 48c0 17.2 10.7 32.8 27.6 41.4l4.4 2.2v4.9V440v8h-8H136h-8v-8V296H102.6C93 314.5 76.3 328 56 328c-16.3 0-30.5-8.8-40.3-21.9S0 275.2 0 256s5.8-37 15.7-50.1S39.7 184 56 184c20.3 0 37 13.5 46.6 32H128V72 64zm16 16V224v8h-8H97.6 92.3l-2.1-4.8C82.7 209.9 69.6 200 56 200c-10.2 0-20 5.5-27.5 15.5S16 239.9 16 256s4.9 30.4 12.5 40.5S45.8 312 56 312c13.6 0 26.7-9.9 34.2-27.2l2.1-4.8h5.2H136h8v8V432H280V421.2c-19-11.3-32-30.7-32-53.2c0-36.3 33.3-64 72-64s72 27.7 72 64c0 22.6-13 41.9-32 53.2V432H496V288v-8h8 38.4 5.2l2.1 4.8c7.5 17.3 20.7 27.2 34.2 27.2c10.2 0 20-5.5 27.5-15.5s12.5-24.3 12.5-40.5s-4.9-30.4-12.5-40.5S594.2 200 584 200c-13.6 0-26.7 9.9-34.2 27.2l-2.1 4.8h-5.2H504h-8v-8V80H360V90.8c19 11.3 32 30.7 32 53.2c0 36.3-33.3 64-72 64s-72-27.7-72-64c0-22.6 13-41.9 32-53.2V80H144z"/></svg>