<svg xmlns="http://www.w3.org/2000/svg" viewBox="0 0 512 512"><!--! Font Awesome Pro 6.5.1 by @fontawesome - https://fontawesome.com License - https://fontawesome.com/license (Commercial License) Copyright 2023 Fonticons, Inc. --><path d="M296 0h-8V8 72v8h8 32c13.3 0 24 10.7 24 24s-10.7 24-24 24H296h-8v8 56 8h8 56v16c0 22.1 17.9 40 40 40s40-17.9 40-40V200h72 8v-8V8 0h-8H296zm8 64V16H496V184H424h-8v8 24c0 13.3-10.7 24-24 24s-24-10.7-24-24V192v-8h-8H304V144h24c22.1 0 40-17.9 40-40s-17.9-40-40-40H304zM8 64H0v8V288 504v8H8 224 440h8v-8V288v-8h-8H352h-8v8 32c0 13.3-10.7 24-24 24s-24-10.7-24-24V288v-8h-8H232V72 64h-8H8zM216 80V280H168V256c0-22.1-17.9-40-40-40s-40 17.9-40 40v24H16V80H216zM96 296h8v-8V256c0-13.3 10.7-24 24-24s24 10.7 24 24v32 8h8 56v48H192c-22.1 0-40 17.9-40 40s17.9 40 40 40h24v72H16V296H96zM232 416v-8h-8H192c-13.3 0-24-10.7-24-24s10.7-24 24-24h32 8v-8V296h48v24c0 22.1 17.9 40 40 40s40-17.9 40-40V296h72V496H232V416z"/></svg>