<svg xmlns="http://www.w3.org/2000/svg" viewBox="0 0 448 512"><!--! Font Awesome Pro 6.5.1 by @fontawesome - https://fontawesome.com License - https://fontawesome.com/license (Commercial License) Copyright 2023 Fonticons, Inc. --><path d="M176 48V208H16V48H176zM16 32H0V48 208v16H16 176h16V208 48 32H176 16zM176 304V464H16V304H176zM16 288H0v16V464v16H16 176h16V464 304 288H176 16zM272 48H432V208H272V48zM256 32V48 208v16h16H432h16V208 48 32H432 272 256zm0 256v8V472v8h16v-8V304h32V408v8h8 48 8v-8V304h32V408v8h8 32 8V400h-8H416V296v-8h-8H360h-8v8V400H320V296v-8h-8H264h-8zm80-176h32v32H336V112zM320 96v16 32 16h16 32 16V144 112 96H368 336 320zM112 112v32H80V112h32zM80 96H64v16 32 16H80h32 16V144 112 96H112 80zm0 272h32v32H80V368zM64 352v16 32 16H80h32 16V400 368 352H112 80 64zm256 96v32h32V448H320zm128 0H416v32h32V448z"/></svg>