<svg xmlns="http://www.w3.org/2000/svg" viewBox="0 0 448 512"><!--! Font Awesome Pro 6.5.1 by @fontawesome - https://fontawesome.com License - https://fontawesome.com/license (Commercial License) Copyright 2023 Fonticons, Inc. --><path d="M0 216C0 149.7 53.7 96 120 96h16 8v16h-8H120C62.6 112 16 158.6 16 216v8H176h16v16V400v16H176 16 0V400 312 240 224v-8zm16 96v88H176V240H16v72zm240-96c0-66.3 53.7-120 120-120h16 8v16h-8H376c-57.4 0-104 46.6-104 104v8H432h16v16V400v16H432 272 256V400 312 240 224v-8zm16 96v88H432V240H272v72z"/></svg>