<svg xmlns="http://www.w3.org/2000/svg" viewBox="0 0 576 512"><!--! Font Awesome Pro 6.5.1 by @fontawesome - https://fontawesome.com License - https://fontawesome.com/license (Commercial License) Copyright 2023 Fonticons, Inc. --><path d="M0 80C0 35.8 35.8 0 80 0h8 8V16H88 80C44.7 16 16 44.7 16 80V96h96 16v16 96 16H112 16 0V208 160 112 96 80zm16 32v48 48h96V112H16zM160 80c0-44.2 35.8-80 80-80h8 8V16h-8-8c-35.3 0-64 28.7-64 64V96h96 16v16 96 16H272 176 160V208 160 112 96 80zm16 80v48h96V112H176v48zM576 432c0 44.2-35.8 80-80 80h-8-8V496h8 8c35.3 0 64-28.7 64-64V416H464 448V400l0-96V288h16 96 16v16 48 48 16 16zm-16-32V352 304H464l0 96h96zM416 432c0 44.2-35.8 80-80 80h-8-8V496h8 8c35.3 0 64-28.7 64-64V416H304 288V400l0-96V288h16 96l16 0v16l0 48v48 16 16zm-16-80l0-48H304l0 96h96V352z"/></svg>