<svg xmlns="http://www.w3.org/2000/svg" viewBox="0 0 448 512"><!--! Font Awesome Pro 6.5.1 by @fontawesome - https://fontawesome.com License - https://fontawesome.com/license (Commercial License) Copyright 2023 Fonticons, Inc. --><path d="M448 296c0 66.3-53.7 120-120 120H312h-8V400h8 16c57.4 0 104-46.6 104-104v-8H272 256V272 112 96h16H432h16v16 88 72 16 8zm-16-96V112H272V272H432V200zM192 296c0 66.3-53.7 120-120 120H56 48V400h8H72c57.4 0 104-46.6 104-104v-8H16 0V272 112 96H16 176h16v16 88 72 16 8zm-16-96V112H16V272H176V200z"/></svg>