<svg xmlns="http://www.w3.org/2000/svg" viewBox="0 0 512 512"><!--! Font Awesome Pro 6.5.1 by @fontawesome - https://fontawesome.com License - https://fontawesome.com/license (Commercial License) Copyright 2023 Fonticons, Inc. --><path d="M324.4 112c17.4 0 34.5 4.2 49.9 12c12.6-27.2 17.3-57.9 12.9-88.4L384.5 16l-21.8 0-8.1 8c-10.5 10.4-19.1 22.1-25.9 34.7c-2.5-6-5.2-11.8-8.3-17.6c6.5-10.2 14.1-19.8 22.9-28.5L353.8 2.3 356.1 0l3.3 0 32 0 6.9 0 1 6.9 3.8 26.4c4.9 34.2-.6 68.6-15 99c2 1.4 3.9 2.9 5.8 4.4l59.1 48.2 2.9 2.4v3.8V280v8h-8H365.9L484.8 498.3c.4 .7 .8 1.4 1.1 2.2l5.6 11.5H478.8 405.3h-4.7l-2.3-4.1-70.6-125L283.6 432H304h32 8v8 64 8h-8H304 176 144l-40 0H96v-8V471.4c-9.4 5.4-20.3 8.6-32 8.6c-35.3 0-64-28.7-64-64s28.7-64 64-64c15.3 0 29.4 5.4 40.4 14.4c21-69.9 79.2-123.7 151.6-138.4V183.2c-40.3-38.7-59.6-94.5-51.7-149.9l3.8-26.4 1-6.9L216 0l32 0 3.3 0 2.3 2.3L264 12.6c27.6 27.4 44 63.1 47.4 100.6c4.2-.8 8.6-1.2 13-1.2zM100 384.2C91.2 374.3 78.3 368 64 368c-26.5 0-48 21.5-48 48s21.5 48 48 48c12.3 0 23.5-4.6 32-12.2V424c0-13.6 1.4-26.9 4-39.8zM220.1 35.5C212.9 86.6 231 138 268.7 173.2l.8 .7 2.6 2.4 0 3.5 0 .6v54.2 6.8l-6.7 1.1C178.3 257.1 112 332.8 112 424v72l32 0h32H304h24V448H304 265.6h-18l12-13.4L323.3 364l7.4-8.3 5.5 9.7L410 496h55.1L345.3 283.9 338.5 272h13.7H440V194.9l-56.2-45.8C367 135.5 346.1 128 324.4 128c-6.2 0-12.2 1.1-17.7 3.1l-10.4 3.7-.3-11c-1.1-37-16.2-72.9-43.2-99.8l-8.1-8-21.8 0-2.8 19.5zM352 176a16 16 0 1 1 0 32 16 16 0 1 1 0-32z"/></svg>