<svg xmlns="http://www.w3.org/2000/svg" viewBox="0 0 512 512"><!--! Font Awesome Pro 6.5.1 by @fontawesome - https://fontawesome.com License - https://fontawesome.com/license (Commercial License) Copyright 2023 Fonticons, Inc. --><path d="M232 0h60.2H296h8 64 8 3.8H440h3.3l2.3 2.3 32 32 3.8 3.8-2.1 5L457.4 94.3l36.7 44.6 1.8 2.2V144v40 5.6l-5.3 1.9-87.1 31.7-47.2 31.5-2 1.3H352 336 320h-2.4l-2-1.3-47.2-31.5-87.1-31.7-5.3-1.9V184 144v-2.9l1.8-2.2 36.7-44.6L192.6 43.2l-2.1-5 3.8-3.8 32-32L228.7 0H232zM367.8 227.9l27.8-18.5 .8-.5 .9-.3 4.5-1.6-51.5-41.2c-6.3-5.1-11.2-11.5-14.2-18.7c-3.1 7.2-7.9 13.6-14.2 18.7l-51.5 41.2 4.5 1.6 .9 .3 .8 .5 27.8 18.5c-.2-1.3-.2-2.6-.2-3.9c0-17.7 14.3-32 32-32s32 14.3 32 32c0 1.3-.1 2.6-.2 3.9zM336 240a16 16 0 1 0 0-32 16 16 0 1 0 0 32zM299.8 16l-80.8 98.2L266.9 86c25.7-15.1 58-3.5 69.1 22.6c11.2-26.1 43.4-37.7 69.1-22.6l47.9 28.2L372.2 16H368 304h-4.2zM446 80.4l16.5-38.6L436.7 16H393l53 64.4zM235.3 16L209.5 41.8 226 80.4 279 16H235.3zm184 184.4l60.6-22V148.6L397 99.8c-19.3-11.3-44-.3-48.3 21.6c-2.4 11.9 2.1 24.2 11.6 31.7l59.1 47.3zM311.8 153.1c9.5-7.6 13.9-19.8 11.6-31.7c-4.4-21.9-29.1-33-48.3-21.6l-83 48.8v29.8l60.6 22 59.1-47.3zm138.4 77.4C469 249.7 480 275.8 480 303.4V328v4.2l-3.5 2.4-66.7 45.3-5.5 3.7-4.7-4.7-37.3-37.3-5.7-5.7 5.7-5.7 48-48 5.7-5.7L427.3 288l-5.7 5.7L379.3 336l26.9 26.9L464 323.8V303.4c0-26.3-11.8-51-31.6-67.6l17.8-5.3zm-242.6-4.3l7.3 2.2C149.9 254.3 104 317.8 104 392v8 8H88v-8-8c0-19.5 2.9-38.3 8.3-56H16v72c0 48.6 39.4 88 88 88H336V472c0-22.1-17.9-40-40-40H248h-8V416h8 48c30.9 0 56 25.1 56 56v24H464V472c0-22.1-17.9-40-40-40H408h-8V416h8 16c30.9 0 56 25.1 56 56v24 8 8h-8H104C46.6 512 0 465.4 0 408V40 32H8 120h8v8V274.7c17.5-22.6 39.9-41.2 65.7-54.2c4.4 2.4 9 4.3 13.9 5.8zM102 320c2.9-7.2 6.3-14.3 10-21V240H16v80h86zm10-176H16v80h96V144zm0-16V48H16v80h96zM287.5 380.6l-82.7-37.3-7.3-3.3 6.6-14.6 7.3 3.3 77 34.7 20.3-25.9-57.5-43.1-6.4-4.8 9.6-12.8 6.4 4.8 64 48 6.5 4.9-5.1 6.4L297 378.2l-3.9 4.9-5.7-2.6zM272 128a16 16 0 1 1 32 0 16 16 0 1 1 -32 0zm112-16a16 16 0 1 1 0 32 16 16 0 1 1 0-32z"/></svg>