<svg xmlns="http://www.w3.org/2000/svg" viewBox="0 0 512 512"><!--! Font Awesome Pro 6.5.1 by @fontawesome - https://fontawesome.com License - https://fontawesome.com/license (Commercial License) Copyright 2023 Fonticons, Inc. --><path d="M501 19l7.8-1.9L505.1 1.6l-7.8 1.9L6.1 120.2 0 121.7V128v16 96 8V496v16H16 496h16V496 144 128H496 42.6L501 19zM16 144H496v96H16V144zM496 256V496H16V256H496zM424 376a56 56 0 1 1 -112 0 56 56 0 1 1 112 0zm-128 0a72 72 0 1 0 144 0 72 72 0 1 0 -144 0zM64 336v16h8H216h8V336h-8H72 64zm16 64v16h8H200h8V400h-8H88 80z"/></svg>