<svg xmlns="http://www.w3.org/2000/svg" viewBox="0 0 512 512"><!--! Font Awesome Pro 6.5.1 by @fontawesome - https://fontawesome.com License - https://fontawesome.com/license (Commercial License) Copyright 2023 Fonticons, Inc. --><path d="M501 19l7.8-1.9L505.1 1.6l-7.8 1.9L6.1 120.2 0 121.7V128v0 16 96 8V496v16H16 496h16V496 144 128H496 42.6L501 19zM16 144H496V496H16V248v-8V144zM352 400a80 80 0 1 1 0-160 80 80 0 1 1 0 160zm0-176a96 96 0 1 0 0 192 96 96 0 1 0 0-192zM88 240H80v16h8H200h8V240h-8H88zM72 312H64v16h8H216h8V312h-8H72zm16 72H80v16h8H200h8V384h-8H88z"/></svg>