<svg xmlns="http://www.w3.org/2000/svg" viewBox="0 0 640 512"><!--! Font Awesome Pro 6.5.1 by @fontawesome - https://fontawesome.com License - https://fontawesome.com/license (Commercial License) Copyright 2023 Fonticons, Inc. --><path d="M352 48c0-26.5 21.5-48 48-48s48 21.5 48 48V64h64l0-16c0-26.5 21.5-48 48-48s48 21.5 48 48v8 8H592V56 48c0-17.7-14.3-32-32-32s-32 14.3-32 32V80l44.8 44.8 55.9 40.3 6.1 4.4-3.9 6.3-24 38.7-4.1 6.6-6.7-3.8-20-11.4V320v16H560 392 376V320 205.8l-20 11.4-6.7 3.8-4.1-6.6-24-38.7-3.9-6.3 6.1-4.4 55.9-40.3L432 72V48c0-17.7-14.3-32-32-32s-32 14.3-32 32v8 8H352V56 48zm40 86.6V320H560V134.6L505.4 80H448h-1.4L392 134.6zM304.2 69.9c6.9-5.5 15-9.6 23.8-11.9V74.7c-5.1 1.8-9.7 4.4-13.8 7.7l-12 9.5L292.1 80.4C283.3 70.3 270.4 64 256 64s-27.3 6.3-36.1 16.4L209.8 91.9l-12-9.5C189.7 75.9 179.3 72 168 72c-22.5 0-41.5 15.6-46.6 36.5l-3.5 14.2-14.5-2.2c-2.4-.4-4.9-.6-7.4-.6c-26.5 0-48 21.5-48 48c0 4 .5 7.9 1.4 11.6l3 12.1-11 5.9C26.3 205.7 16 221.7 16 240s10.3 34.3 25.4 42.4l11 5.9-3 12.1C48.5 304.1 48 308 48 312c0 26.5 21.5 48 48 48c2.5 0 5-.2 7.4-.6l14.5-2.2 3.5 14.2c5.1 21 24.1 36.6 46.6 36.6c11.3 0 21.7-3.9 29.8-10.4l12-9.5 10.1 11.5c8.8 10.1 21.7 16.4 36.1 16.4s27.3-6.3 36.1-16.4l10.1-11.5 12 9.5c8.2 6.5 18.5 10.4 29.8 10.4c22.5 0 41.5-15.6 46.6-36.6l.8-3.4H447c-7.4 4.1-15.7 6.8-24.6 7.7L391.8 505.8l-1.5 6.2H384 312h-8v-8V448v-8h16v8 48h57.7l27.7-117.9C397.6 404.6 373.1 424 344 424c-15 0-28.9-5.2-39.8-13.9c-11.7 13.4-29 21.9-48.2 21.9s-36.5-8.5-48.2-21.9C196.9 418.8 183 424 168 424c-29.1 0-53.6-19.4-61.4-45.9L134.3 496H192V448v-8h16v8 56 8h-8H128h-6.3l-1.5-6.2L89.6 375.7C57.3 372.5 32 345.2 32 312c0-5.3 .7-10.5 1.9-15.5C13.7 285.7 0 264.5 0 240s13.7-45.7 33.9-56.5c-1.2-5-1.9-10.2-1.9-15.5c0-35.3 28.7-64 64-64c3.3 0 6.6 .3 9.8 .8C112.7 76.8 137.9 56 168 56c15 0 28.9 5.2 39.8 13.9C219.5 56.5 236.8 48 256 48s36.5 8.5 48.2 21.9zm34.5 103.8l16 25.8L376 187.4V146.8l-37.3 26.9zm258.5 25.8l16-25.8L576 146.8v40.5l21.3 12.2zM448 176a16 16 0 1 1 0 32 16 16 0 1 1 0-32zm48 16a16 16 0 1 1 32 0 16 16 0 1 1 -32 0z"/></svg>