<svg xmlns="http://www.w3.org/2000/svg" viewBox="0 0 640 512"><!--! Font Awesome Pro 6.5.1 by @fontawesome - https://fontawesome.com License - https://fontawesome.com/license (Commercial License) Copyright 2023 Fonticons, Inc. --><path d="M327.1 14l28.4 55.7 61.7 9.8L432.7 82 421.7 93.1l-44.2 44.3 9.7 61.8 2.4 15.5-14-7.1L320 179.2l-55.7 28.4-14 7.1 2.4-15.5 9.7-61.8L218.3 93.1 207.3 82l15.5-2.5 61.7-9.8L312.9 14 320 0l7.1 14zM296.9 80.6L295 84.2l-4 .6-50.3 8 36 36.1 2.9 2.9-.6 4L271 186.2l45.4-23.1 3.6-1.8 3.6 1.8L369 186.2l-7.9-50.4-.6-4 2.9-2.9 36-36.1-50.3-8-4-.6-1.8-3.6L320 35.2 296.9 80.6zM240 496H400V272H240V496zM224 256h16H400h16v16V496v16H400 240 224V496 272 256zM16 336V496H176V336H16zM0 320H16 176h16v16V496v16H176 16 0V496 336 320zm624 80H464v96H624V400zM464 384H624h16v16 96 16H624 464 448V496 400 384h16z"/></svg>