<svg xmlns="http://www.w3.org/2000/svg" viewBox="0 0 576 512"><!--! Font Awesome Pro 6.5.1 by @fontawesome - https://fontawesome.com License - https://fontawesome.com/license (Commercial License) Copyright 2023 Fonticons, Inc. --><path d="M59.1 5.1L48 .5v12V84.1C19 104.3 0 137.9 0 176c0 61.9 50.1 112 112 112L39.2 433.7 32 448l14.3 7.2 99.4 49.7L160 512l7.2-14.3L272 288h64v16 8h16v-8V288 272 184h48v88 8h16v-8V184h48v16 5.3l4.9 2.1 96 40L576 252V240 112 100l-11.1 4.6-96 40-4.9 2.1V152v16H416V80 72H400v8 88H352V80 64 48 40H336v8V64H201.6L59.1 5.1zM254.1 288L152.8 490.5 53.5 440.8 129.9 288H254.1zM480 194.7V184 168 157.3L560 124V228l-80-33.3zM199.8 80h.4H336v96 96H112c-53 0-96-43-96-96s43-96 96-96h87.8zM159.7 64H112c-17.2 0-33.5 3.9-48 10.8V24.4L159.7 64zM128 176a16 16 0 1 0 -32 0 16 16 0 1 0 32 0zm48 16a16 16 0 1 0 0-32 16 16 0 1 0 0 32zm80-16a16 16 0 1 0 -32 0 16 16 0 1 0 32 0z"/></svg>