<svg xmlns="http://www.w3.org/2000/svg" viewBox="0 0 384 512"><!--! Font Awesome Pro 6.5.1 by @fontawesome - https://fontawesome.com License - https://fontawesome.com/license (Commercial License) Copyright 2023 Fonticons, Inc. --><path d="M81.3 459l-8.2-5.9L64.2 458 16 484.8V27.2L64.2 54l8.8 4.9L81.3 53l47.3-33.8 54.9 34.3 8.5 5.3 8.5-5.3 54.9-34.3L302.7 53l8.2 5.9 8.8-4.9L368 27.2V484.8L319.8 458l-8.8-4.9-8.2 5.9-47.3 33.8-54.9-34.3-8.5-5.3-8.5 5.3-54.9 34.3L81.3 459zM0 512l16-8.9L72 472l56 40 64-40 64 40 56-40 56 31.1 16 8.9V493.7 18.3 0L368 8.9 312 40 256 0 192 40 128 0 72 40 16 8.9 0 0V18.3 493.7 512zM96 152H88v16h8H288h8V152h-8H96zM88 344v16h8H288h8V344h-8H96 88zm8-96H88v16h8H288h8V248h-8H96z"/></svg>