<svg xmlns="http://www.w3.org/2000/svg" viewBox="0 0 576 512"><!--! Font Awesome Pro 6.5.1 by @fontawesome - https://fontawesome.com License - https://fontawesome.com/license (Commercial License) Copyright 2023 Fonticons, Inc. --><path d="M16 48V464H560V48H16zM0 32H16 560h16V48 464v16H560 16 0V464 48 32zM320 280a56 56 0 1 0 112 0 56 56 0 1 0 -112 0zm56-72c22.6 0 42.8 10.4 56 26.7V168v-8h16v8V280v64 8H432v-8V325.3c-13.2 16.3-33.4 26.7-56 26.7c-39.8 0-72-32.2-72-72s32.2-72 72-72zM183.1 160h5.2 7.3 5.2l2.1 4.8L284.2 352H266.8l-20.8-48H138.1l-20.8 48H99.8L181 164.8l2.1-4.8zM145 288h94L192 179.7 145 288z"/></svg>