<svg xmlns="http://www.w3.org/2000/svg" viewBox="0 0 640 512"><!--! Font Awesome Pro 6.5.1 by @fontawesome - https://fontawesome.com License - https://fontawesome.com/license (Commercial License) Copyright 2023 Fonticons, Inc. --><path d="M496 144v48c5.4 0 10.7 .2 16 .7V144 128H496L16 128H0v16V496v16H16l378.8 0c-6.9-4.9-13.4-10.2-19.6-16L16 496l0-352 480 0zM464 64L48 64V80l416 0V64zM416 0H96V16l320 0V0zM368 368a128 128 0 1 1 256 0 128 128 0 1 1 -256 0zm272 0a144 144 0 1 0 -288 0 144 144 0 1 0 288 0zM504 296v-8H488v8 64H424h-8v16h8 64v64 8h16v-8V376h64 8V360h-8H504V296z"/></svg>