<svg xmlns="http://www.w3.org/2000/svg" viewBox="0 0 576 512"><!--! Font Awesome Pro 6.5.1 by @fontawesome - https://fontawesome.com License - https://fontawesome.com/license (Commercial License) Copyright 2023 Fonticons, Inc. --><path d="M560 48V464H16V48H560zM16 32H0V48 464v16H16 560h16V464 48 32H560 16zM192 152v16h8H440h8V152h-8H200h-8zm0 96v16h8H440h8V248h-8H200h-8zm0 96v16h8H440h8V344h-8H200h-8zM128 144a16 16 0 1 0 0 32 16 16 0 1 0 0-32zm16 112a16 16 0 1 0 -32 0 16 16 0 1 0 32 0zm-16 80a16 16 0 1 0 0 32 16 16 0 1 0 0-32z"/></svg>