<svg xmlns="http://www.w3.org/2000/svg" viewBox="0 0 640 512"><!--! Font Awesome Pro 6.5.1 by @fontawesome - https://fontawesome.com License - https://fontawesome.com/license (Commercial License) Copyright 2023 Fonticons, Inc. --><path d="M496 144v48c5.4 0 10.7 .2 16 .7V144 128H496L16 128H0v16V496v16H16l378.8 0c-6.9-4.9-13.4-10.2-19.6-16L16 496l0-352 480 0zM464 64L48 64V80l416 0V64zM416 0H96V16l320 0V0zM572.5 470.7C551.1 486.6 524.7 496 496 496s-55.1-9.4-76.5-25.3L451.7 432h88.5l32.2 38.7zm12.2-10.3l-34.5-41.4-2.4-2.9H544 448h-3.7l-2.4 2.9-34.5 41.4C383.1 437 368 404.3 368 368c0-70.7 57.3-128 128-128s128 57.3 128 128c0 36.3-15.1 69-39.3 92.3zM640 368a144 144 0 1 0 -288 0 144 144 0 1 0 288 0zM496 304a32 32 0 1 1 0 64 32 32 0 1 1 0-64zm0 80a48 48 0 1 0 0-96 48 48 0 1 0 0 96z"/></svg>