<svg xmlns="http://www.w3.org/2000/svg" viewBox="0 0 512 512"><!--! Font Awesome Pro 6.5.1 by @fontawesome - https://fontawesome.com License - https://fontawesome.com/license (Commercial License) Copyright 2023 Fonticons, Inc. --><path d="M16 48V464H496V48H16zM0 32H16 496h16V48 464v16H496 16 0V464 48 32zM185.8 174.5l5.7 5.7L256 244.7l64.6-64.6 5.7-5.7 11.3 11.3-5.7 5.7L267.3 256l64.6 64.6 5.7 5.7-11.3 11.3-5.7-5.7L256 267.3l-64.6 64.6-5.7 5.7-11.3-11.3 5.7-5.7L244.7 256l-64.6-64.6-5.7-5.7 11.3-11.3z"/></svg>