<svg xmlns="http://www.w3.org/2000/svg" viewBox="0 0 512 512"><!--! Font Awesome Pro 6.5.1 by @fontawesome - https://fontawesome.com License - https://fontawesome.com/license (Commercial License) Copyright 2023 Fonticons, Inc. --><path d="M219.4 0H224h64 4.6l2.3 3.9L399.2 179.3l15.8-77 1.6-7.8 15.7 3.2-1.6 7.8L411.3 200l-1.8 8.8-8.5-2.8-91.4-30.4-7.6-2.5 5-15.2 7.6 2.5 68.2 22.7L283.4 16H228.6l-66 111.1-13.7-8.2L217.1 3.9 219.4 0zM419.6 245l13.7-8.2 69.5 116.9 2.4 4.1-2.4 4.1-39.5 66.3-2.3 3.9h-4.5l-211.3 0 56.3 50 6 5.3-10.6 12-6-5.3-72-64-6.7-6 6.7-6 72-64 6-5.3 10.6 12-6 5.3L245 416l206.8 0 34.7-58.3L419.6 245zM116.4 173.4L42.5 197.9l-7.6 2.5-5-15.2 7.6-2.5 91.4-30.4 8.5-2.8 1.8 8.8 19.4 94.4 1.6 7.8-15.7 3.2L143 256l-14.7-71.4L25.4 357.7 60.2 416 176 416v16L55.6 432H51.1l-2.3-3.9L9.2 361.8l-2.4-4.1 2.4-4.1L116.4 173.4z"/></svg>