<svg xmlns="http://www.w3.org/2000/svg" viewBox="0 0 448 512"><!--! Font Awesome Pro 6.5.1 by @fontawesome - https://fontawesome.com License - https://fontawesome.com/license (Commercial License) Copyright 2023 Fonticons, Inc. --><path d="M0 0H8 72 376h64 8V16h-8H384V96v8h-8H72 64V96 16H8 0V0zM80 16V88H368V16H80zM64 152h8H376h8v16h-8H72 64V152zm0 64h8H440h8v16h-8H72 64V216zm0 64h8H376h8v16h-8H72 64V280zm0 64h8H376h8v16h-8H72 64V344zM8 512H0V496H8 64V416v-8h8H376h8v8 80h56 8v16h-8H376 72 8zm72-88v72H368V424H80z"/></svg>