<svg xmlns="http://www.w3.org/2000/svg" viewBox="0 0 512 512"><!--! Font Awesome Pro 6.5.1 by @fontawesome - https://fontawesome.com License - https://fontawesome.com/license (Commercial License) Copyright 2023 Fonticons, Inc. --><path d="M256 16a240 240 0 1 1 0 480 240 240 0 1 1 0-480zm0 496A256 256 0 1 0 256 0a256 256 0 1 0 0 512zM160 128v8V280v96 8h16v-8V288h91.9l69.3 96H357l-70.3-97.3c37.2-6.9 65.3-39.5 65.3-78.7c0-44.2-35.8-80-80-80H168h-8zm16 144V144h96c35.3 0 64 28.7 64 64s-28.7 64-64 64H176z"/></svg>