<svg xmlns="http://www.w3.org/2000/svg" viewBox="0 0 512 512"><!--! Font Awesome Pro 6.5.1 by @fontawesome - https://fontawesome.com License - https://fontawesome.com/license (Commercial License) Copyright 2023 Fonticons, Inc. --><path d="M345.4 16l80 80-80 80H336V104 88 16h9.4zM320 16V88H8 0v8V264v8H16v-8V104H320v72 16h16 16l84.7-84.7L448 96 436.7 84.7 352 0H336 320V16zM166.6 496l-80-80 80-80H176v72 16 72h-9.4zm25.4 0V424H504h8v-8V248v-8H496v8V408H192V336 320H176 160L75.3 404.7 64 416l11.3 11.3L160 512h16 16V496z"/></svg>