<svg xmlns="http://www.w3.org/2000/svg" viewBox="0 0 512 512"><!--! Font Awesome Pro 6.5.1 by @fontawesome - https://fontawesome.com License - https://fontawesome.com/license (Commercial License) Copyright 2023 Fonticons, Inc. --><path d="M414.8 464.3C397.1 475.1 384 480 384 480s10-10 18.8-27.2c7-13.6 13.2-31.6 13.2-52.8c0-61.9-50.1-112-112-112H240 224v16 64 16H208 192L11.8 218.9 0 208l11.8-10.9L192 32h16 16V48v64 16h16 96c97.2 0 176 78.8 176 176c0 87.1-59.3 137.2-97.2 160.3zM426.4 437c3.6-2.8 7.3-5.8 11-9c29.7-26 58.5-66 58.5-124c0-88.4-71.6-160-160-160H224 208V128 48h-9.8L23.7 208 198.2 368H208V288 272h16 80c70.7 0 128 57.3 128 128c0 13.6-2.2 26-5.6 37z"/></svg>