<svg xmlns="http://www.w3.org/2000/svg" viewBox="0 0 640 512"><!--! Font Awesome Pro 6.5.1 by @fontawesome - https://fontawesome.com License - https://fontawesome.com/license (Commercial License) Copyright 2023 Fonticons, Inc. --><path d="M0 168C0 92.9 60.9 32 136 32H376c75.1 0 136 60.9 136 136V280v56 8 8 8 16c0 13.3 10.7 24 24 24s24-10.7 24-24V280v-8h8 64 8v8 96c0 57.4-46.6 104-104 104c-37.1 0-69.6-19.4-88-48.6V472v8h-8H296h-8v-8V368H160V472v8h-8H8 0v-8V280 168zM496 288H16V464H144V360v-8h8H296h8v8V464H432V376v-8-8h16v8 8c0 48.6 39.4 88 88 88s88-39.4 88-88V288H576v88c0 22.1-17.9 40-40 40s-40-17.9-40-40V360v-8-8-8V288zM16 272H496V168c0-66.3-53.7-120-120-120H136C69.7 48 16 101.7 16 168V272zM136 128v24h24 8v16h-8H136v24 8H120v-8V168H96 88V152h8 24V128v-8h16v8zm128-8v8 24h24 8v16h-8H264v24 8H248v-8V168H224h-8V152h8 24V128v-8h16zm128 8v24h24 8v16h-8H392v24 8H376v-8V168H352h-8V152h8 24V128v-8h16v8z"/></svg>