<svg xmlns="http://www.w3.org/2000/svg" viewBox="0 0 640 512"><!--! Font Awesome Pro 6.5.1 by @fontawesome - https://fontawesome.com License - https://fontawesome.com/license (Commercial License) Copyright 2023 Fonticons, Inc. --><path d="M80 64a48 48 0 1 1 96 0A48 48 0 1 1 80 64zm112 0A64 64 0 1 0 64 64a64 64 0 1 0 128 0zM40.7 336l6.7-160H208.7l6.7 160H192 144 112 64 40.7zM136 352V504v8h8 48 8v-8V352h16 16l-.7-16L224 160H32L24.7 336 24 352H40 56V504v8h8 48 8v-8V352h16zm48 0V496H152V352h32zM72 352h32V496H72V352zM320 0H304V8 504v8h16v-8V8 0zM512 16a48 48 0 1 1 0 96 48 48 0 1 1 0-96zm0 112A64 64 0 1 0 512 0a64 64 0 1 0 0 128zm-51.9 48H563.9l54.9 192H576 528 496 448 405.2l54.9-192zM504 384h16V504v8h8 48 8v-8V384h39.4H640l-4.6-16L576 160H448L388.6 368 384 384h16.6H440V504v8h8 48 8v-8V384zm64 112H536V384h32V496zM488 384V496H456V384h32z"/></svg>