<svg xmlns="http://www.w3.org/2000/svg" viewBox="0 0 640 512"><!--! Font Awesome Pro 6.5.1 by @fontawesome - https://fontawesome.com License - https://fontawesome.com/license (Commercial License) Copyright 2023 Fonticons, Inc. --><path d="M144 96a40 40 0 1 0 0-80 40 40 0 1 0 0 80zm0-96a56 56 0 1 1 0 112A56 56 0 1 1 144 0zM79.7 128h5.2H203.1h5.2l2.1 4.8 76.9 176-14.7 6.4L197.8 144H90.2L15.3 315.2 .7 308.8l76.9-176 2.1-4.8zM88 248V496h32V344v-8h8 32 8v8V496h32V248v-8h16v8V504v8h-8H160h-8v-8V352H136V504v8h-8H80 72v-8V248v-8H88v8zM496 96a40 40 0 1 0 0-80 40 40 0 1 0 0 80zm0-96a56 56 0 1 1 0 112A56 56 0 1 1 496 0zM458.1 202.9l-2.5 7.6L403.1 368H424h16 32 16 16 16 32 16 20.9L536.4 210.5l-2.5-7.6 15.2-5.1 2.5 7.6 56 168 3.5 10.5H600 568V504v8h-8H512h-8v-8V384H488V504v8h-8H432h-8v-8V384H392 380.9l3.5-10.5 56-168 2.5-7.6 15.2 5.1zM440 384V496h32V384H440zm80 112h32V384H520V496zM436.9 128H555.1h5.2l2.1 4.8 76.9 176-14.7 6.4L549.8 144H442.2L367.3 315.2l-14.7-6.4 76.9-176 2.1-4.8h5.2zM328 8V504v8H312v-8V8 0h16V8z"/></svg>