<svg xmlns="http://www.w3.org/2000/svg" viewBox="0 0 576 512"><!--! Font Awesome Pro 6.5.1 by @fontawesome - https://fontawesome.com License - https://fontawesome.com/license (Commercial License) Copyright 2023 Fonticons, Inc. --><path d="M16 176H176v-9.4l-80-80-80 80V176zM0 160L84.7 75.3 96 64l11.3 11.3L192 160v16 16H176 104V400H312h8v16h-8H96 88v-8V192H16 0V176 160zM400 336v9.4l80 80 80-80V336H400zm-16 16V336 320h16 72V112H264h-8V96h8H480h8v8V320h72 16v16 16l-84.7 84.7L480 448l-11.3-11.3L384 352z"/></svg>