<svg xmlns="http://www.w3.org/2000/svg" viewBox="0 0 448 512"><!--! Font Awesome Pro 6.5.1 by @fontawesome - https://fontawesome.com License - https://fontawesome.com/license (Commercial License) Copyright 2023 Fonticons, Inc. --><path d="M436 68l0-8 16 0 0 8 0 368 0 8-16 0 0-8 0-368zM156 188l0-16 0-64 0-16 16 0 16 0L336.7 240.7 348 252l-11.3 11.3L188 412l-16 0-16 0 0-16 0-64 0-16-16 0L12 316l-16 0 0-16 0-96 0-16 16 0 128 0 16 0zm16 0l0 16-16 0L12 204l0 96 144 0 16 0 0 16 0 80 9.4 0 144-144-144-144-9.4 0 0 80z"/></svg>