<svg xmlns="http://www.w3.org/2000/svg" viewBox="0 0 384 512"><!--! Font Awesome Pro 6.5.1 by @fontawesome - https://fontawesome.com License - https://fontawesome.com/license (Commercial License) Copyright 2023 Fonticons, Inc. --><path d="M139.9 0H144h96 4.1l2.4 3.4 40 56 3.2 4.5-3.1 4.6-44.2 66.3C324 156.9 384 231.4 384 320c0 106-86 192-192 192S0 426 0 320c0-88.6 60-163.1 141.5-185.3L97.3 68.4l-3.1-4.6 3.2-4.5 40-56L139.9 0zM265.1 72H118.9l39.3 59c11-1.9 22.2-3 33.7-3s22.8 1 33.7 3l39.3-59zm-.6-16L235.9 16H148.1L119.5 56H264.5zM192 496a176 176 0 1 0 0-352 176 176 0 1 0 0 352z"/></svg>