<svg xmlns="http://www.w3.org/2000/svg" viewBox="0 0 640 512"><!--! Font Awesome Pro 6.5.1 by @fontawesome - https://fontawesome.com License - https://fontawesome.com/license (Commercial License) Copyright 2023 Fonticons, Inc. --><path d="M53.2 464L172.1 48H312v56 8h16v-8V48H467.9l41.3 144.5c5.8 .4 11.6 1.2 17.3 2.1L480 32H160L36.6 464 32 480H48.6 360.2c-4.2-5.1-8.1-10.4-11.8-16H328V420.6c-2.1-6.7-3.8-13.6-5.1-20.6H312v8 56H53.2zM328 312V200v-8H312v8V312v8h14.6c.4-1.5 .9-3.1 1.4-4.6V312zm168-72a128 128 0 1 1 0 256 128 128 0 1 1 0-256zm0 272a144 144 0 1 0 0-288 144 144 0 1 0 0 288zm75.3-184L560 316.7l-5.7 5.7L480 396.7l-42.3-42.3-5.7-5.7L420.7 360l5.7 5.7 48 48 5.7 5.7 5.7-5.7 80-80 5.7-5.7z"/></svg>