<svg xmlns="http://www.w3.org/2000/svg" viewBox="0 0 640 512"><!--! Font Awesome Pro 6.5.1 by @fontawesome - https://fontawesome.com License - https://fontawesome.com/license (Commercial License) Copyright 2023 Fonticons, Inc. --><path d="M432 112V275.2 336H579.1l-140-224H432zm0 240H416 304 288 176 160 48 32V336 112 96H48 64l96 153.6V112 96h16 16l96 153.6V112 96h16 16l96 153.6V112 96h16 16L598 336l10 16H589.1 432zM176 275.2V336H288V279.8L183.1 112H176V275.2zm-16 4.6L55.1 112H48V336H160V279.8zM304 336H416V279.8L311.1 112H304V275.2 336zM0 432H8 632h8v16h-8H8 0V432z"/></svg>