<svg xmlns="http://www.w3.org/2000/svg" viewBox="0 0 640 512"><!--! Font Awesome Pro 6.5.1 by @fontawesome - https://fontawesome.com License - https://fontawesome.com/license (Commercial License) Copyright 2023 Fonticons, Inc. --><path d="M16 40V32H0v8V80 96 288v16V472v8H16v-8V304H624V472v8h16v-8V304 288 96 80 40 32H624v8V80H16V40zm0 56H119.1L24.8 284.4 23.1 288H16V96zm608 0V288H520.9L615.2 99.6l1.8-3.6H624zM456.9 96H599.1L504.8 284.4l-1.8 3.6H360.9L455.2 99.6l1.8-3.6zM279.1 96L184.8 284.4l-1.8 3.6H40.9L135.2 99.6l1.8-3.6H279.1zm17.9 0H439.1L344.8 284.4l-1.8 3.6H200.9L295.2 99.6l1.8-3.6z"/></svg>