<svg xmlns="http://www.w3.org/2000/svg" viewBox="0 0 640 512"><!--! Font Awesome Pro 6.5.1 by @fontawesome - https://fontawesome.com License - https://fontawesome.com/license (Commercial License) Copyright 2023 Fonticons, Inc. --><path d="M320 16V0h16H472h16H624h16V16 496v16H624 336 320V496 16zm16 0V496H472V416v-8h16v8 80H624V16H488V96v8H472V96 16H336zM488 192v8V312v8H472v-8V200v-8h16zM8 96H288v16H232v80h56v16H8 0V192H8 88V112H8 0V96H8zM272 304h16v16H272c-39.8 0-72 32.2-72 72V504v8h-8H96 88v-8V392c0-39.8-32.2-72-72-72H8 0V304H8h8c48.6 0 88 39.4 88 88V496h80V392c0-48.6 39.4-88 88-88zM216 112H104v80H216V112z"/></svg>