<svg xmlns="http://www.w3.org/2000/svg" viewBox="0 0 640 512"><!--! Font Awesome Pro 6.5.1 by @fontawesome - https://fontawesome.com License - https://fontawesome.com/license (Commercial License) Copyright 2023 Fonticons, Inc. --><path d="M53.2 464L172.1 48H312v56 8h16v-8V48H467.9l32.9 115.3c5.2-1.3 10.4-2.2 15.9-2.7L480 32H160L36.6 464 32 480H48.6 384l0-16H328V408v-8H312v8 56H53.2zM328 200v-8H312v8V312v8h16v-8V200zm200 8c26.5 0 48 21.5 48 48v64H480V256c0-26.5 21.5-48 48-48zm-64 48v64H432 416v16V496v16h16H624h16V496 336 320H624 592V256c0-35.3-28.7-64-64-64s-64 28.7-64 64zm-32 80h32 16 96 16 32V496H432V336z"/></svg>