<svg xmlns="http://www.w3.org/2000/svg" viewBox="0 0 512 512"><!--! Font Awesome Pro 6.5.1 by @fontawesome - https://fontawesome.com License - https://fontawesome.com/license (Commercial License) Copyright 2023 Fonticons, Inc. --><path d="M256 0C176.5 0 112 64.5 112 144v32H40 32v8V422.1L.8 484.4 0 486.1V488v16 8H8 120h8v-8V389l50 56.3 2.4 2.7H184 328h3.6l2.4-2.7L384 389V504v8h8H504h8v-8V488v-1.9l-.8-1.7L480 422.1V184v-8h-8H400V144C400 64.5 335.5 0 256 0zM400 192h64V424v1.9l.8 1.7L496 489.9V496H400V371v-3V192zm-16-16H128V144c0-70.7 57.3-128 128-128s128 57.3 128 128v32zM128 192H384V365l-59.6 67H187.6L128 365V192zm-16 0V368v3V496H16v-6.1l31.2-62.3 .8-1.7V424 192h64zm88-96a24 24 0 1 1 48 0 24 24 0 1 1 -48 0zm64 0a40 40 0 1 0 -80 0 40 40 0 1 0 80 0zm40 32a16 16 0 1 0 0-32 16 16 0 1 0 0 32zM192 240v16h8H312h8V240h-8H200h-8zm0 64v16h8H312h8V304h-8H200h-8z"/></svg>