<svg xmlns="http://www.w3.org/2000/svg" viewBox="0 0 640 512"><!--! Font Awesome Pro 6.5.1 by @fontawesome - https://fontawesome.com License - https://fontawesome.com/license (Commercial License) Copyright 2023 Fonticons, Inc. --><path d="M328 0V8 96H528h16v16V496v16H528 112 96V496 112 96h16H312V8 0h16zM112 112V496H528V112H328 312 112zm88 288h48 8v16h-8H200h-8V400h8zm96 0h48 8v16h-8H296h-8V400h8zm96 0h48 8v16h-8H392h-8V400h8zM224 216a40 40 0 1 0 0 80 40 40 0 1 0 0-80zm56 40a56 56 0 1 1 -112 0 56 56 0 1 1 112 0zm96 0a40 40 0 1 0 80 0 40 40 0 1 0 -80 0zm40 56a56 56 0 1 1 0-112 56 56 0 1 1 0 112zM16 224H64v16H16V400H64v16H16 0V400 240 224H16zM624 400V240H576V224h48 16v16V400v16H624 576V400h48z"/></svg>