<svg xmlns="http://www.w3.org/2000/svg" viewBox="0 0 512 512"><!--! Font Awesome Pro 6.5.1 by @fontawesome - https://fontawesome.com License - https://fontawesome.com/license (Commercial License) Copyright 2023 Fonticons, Inc. --><path d="M393.9 79.5c47.4 37 75.8 89.3 83.8 144.5H461.5c-7.8-50.4-34.1-98-77.5-131.9c-81.9-64-196.6-57-270.1 11.9l47.7 47.7L173 163l-11.3 11.3L144 192H32 16V176 64L33.7 46.3 45 35 56.3 46.3l46.4 46.4c79.1-74.5 203-82.2 291.3-13.2zM45 57.7l-13 13V176H137.4l13-13L45 57.7zM467 477l-11.3-11.3-45.8-45.8c-79.2 74-202.6 81.5-290.7 12.7c-47.4-37-75.8-89.3-83.8-144.5H51.6c7.8 50.4 34.1 98 77.5 131.9c81.6 63.8 196 57 269.5-11.4l-48.2-48.2L339 349l11.3-11.3L368 320H480h16v16V448l-17.7 17.7L467 477zm0-22.6l13-13V336H374.6l-13 13L467 454.3z"/></svg>