<svg xmlns="http://www.w3.org/2000/svg" viewBox="0 0 576 512"><!--! Font Awesome Pro 6.5.1 by @fontawesome - https://fontawesome.com License - https://fontawesome.com/license (Commercial License) Copyright 2023 Fonticons, Inc. --><path d="M352 0c71.4 0 136.7 26 187 69L527.7 80.3C480.3 40.2 419 16 352 16s-128.3 24.2-175.7 64.3L165 69C215.3 26 280.6 0 352 0zm0 112c40.4 0 77.7 13.6 107.4 36.6L448 160c-26.7-20.1-60-32-96-32s-69.3 11.9-96 32l-11.4-11.4c29.7-22.9 67-36.6 107.4-36.6zm8 112v8 88H560h16v16V496v16H560 16 0V496 336 320H16 344V232v-8h16zM344 336v0H16V496H560V336H360v0H344zM208 400v32H176V400h32zM80 400h32v32H80V400z"/></svg>