<svg xmlns="http://www.w3.org/2000/svg" viewBox="0 0 512 512"><!--! Font Awesome Pro 6.5.1 by @fontawesome - https://fontawesome.com License - https://fontawesome.com/license (Commercial License) Copyright 2023 Fonticons, Inc. --><path d="M224 304H208V288l0-64V208 128 112l0-96V0H192 16 0V16 304 496v16H16 208l288 0h16V496 320 304H496 400 384 304 288 224zm160 16v88 8h16v-8V320h96l0 176-288 0H16l0-192L16 16l176 0 0 96-88 0H96v16h8l88 0v80H104 96v16h8 88l0 80H104 96v16h8 88l0 88v8h16v-8l0-88h80v88 8h16v-8V320h80z"/></svg>