<svg xmlns="http://www.w3.org/2000/svg" viewBox="0 0 512 512"><!--! Font Awesome Pro 6.5.1 by @fontawesome - https://fontawesome.com License - https://fontawesome.com/license (Commercial License) Copyright 2023 Fonticons, Inc. --><path d="M16 16V496H496V470.6L434.3 409l-20.7 20.7-5.7 5.7L396.7 424l5.7-5.7L423 397.7 354.3 329l-20.7 20.7-5.7 5.7L316.7 344l5.7-5.7L343 317.7 274.3 249l-20.7 20.7-5.7 5.7L236.7 264l5.7-5.7L263 237.7 194.3 169l-20.7 20.7-5.7 5.7L156.7 184l5.7-5.7L183 157.7 114.3 89 93.7 109.7 88 115.3 76.7 104l5.7-5.7L103 77.7 41.4 16H16zM205.7 157.7l68.7 68.7 11.3 11.3 68.7 68.7 11.3 11.3 68.7 68.7 11.3 11.3L512 464v32 16H496 16 0V496 16 0H16 48l66.3 66.3 11.3 11.3 68.7 68.7 11.3 11.3zm-85.7 79l13.7 13.7 128 128L275.3 392H256 128h-8v-8V256 236.7zm16 38.6V376H236.7L136 275.3z"/></svg>