<svg xmlns="http://www.w3.org/2000/svg" viewBox="0 0 512 512"><!--! Font Awesome Pro 6.5.1 by @fontawesome - https://fontawesome.com License - https://fontawesome.com/license (Commercial License) Copyright 2023 Fonticons, Inc. --><path d="M0 32H8 120c75.1 0 136 60.9 136 136c0 68.8-51 125.6-117.3 134.7L197.8 480H180.9L122.2 304c-.7 0-1.5 0-2.2 0H16V480H0V296 40 32zM16 288H120c66.3 0 120-53.7 120-120s-53.7-120-120-120H16V288zM296 160H400c61.9 0 112 50.1 112 112s-50.1 112-112 112H304V504v8H288v-8V384 368 168v-8h8zM400 368c53 0 96-43 96-96s-43-96-96-96H304V368h96z"/></svg>