<svg xmlns="http://www.w3.org/2000/svg" viewBox="0 0 640 512"><!--! Font Awesome Pro 6.5.1 by @fontawesome - https://fontawesome.com License - https://fontawesome.com/license (Commercial License) Copyright 2023 Fonticons, Inc. --><path d="M240 16V32H368V16H240zM224 32V16 0h16H368h16V16 32H600h8v8V152v8h-8H384V392v8h-8H284.7c2.2 7.6 3.3 15.7 3.3 24c0 48.6-39.4 88-88 88s-88-39.4-88-88c0-10.5 1.8-20.6 5.2-30L3.3 310.5 0 308.1V304 40 32H8 224zM384 48H368 240 224 16V299.9l108.2 79.3C139.5 353.4 167.7 336 200 336c34.2 0 63.8 19.5 78.4 48H368V152v-8h8H592V48H384zM200 496a72 72 0 1 0 0-144 72 72 0 1 0 0 144zm288 0a72 72 0 1 0 0-144 72 72 0 1 0 0 144zm0-160a88 88 0 1 1 0 176 88 88 0 1 1 0-176zM288 128H96v96H288V128zM96 112H288h16v16 96 16H288 96 80V224 128 112H96zm320 80h8H528h2.7l2.2 1.7 104 80 3.1 2.4V280 392v8h-8H592h-8V384h8 32V288H424h-8V272h8H608.5l-83.2-64H424h-8V192z"/></svg>