<svg xmlns="http://www.w3.org/2000/svg" viewBox="0 0 512 512"><!--! Font Awesome Pro 6.5.1 by @fontawesome - https://fontawesome.com License - https://fontawesome.com/license (Commercial License) Copyright 2023 Fonticons, Inc. --><path d="M405 16l-62.9 91.2L333 120.4c4.1 2.6 8.6 5.6 13.3 8.8C406.9 170.8 512 262.9 512 416v80 16H496 16 0V496 416C0 262.9 105.1 170.8 165.7 129.2c4.7-3.3 9.2-6.2 13.3-8.8l-9.1-13.2L107 16 96 0h19.4H396.6 416L405 16zm91 400c0-156.4-115.8-246.4-171.6-282.1l-9.2-5.9H196.8l-9.2 5.9C131.8 169.6 16 259.6 16 416v80H496V416zM319.3 112l.5-.7L385.5 16H126.5l65.7 95.3 .5 .7H319.3zM197.7 250.3L256 308.7l58.3-58.3 5.7-5.7L331.3 256l-5.7 5.7L267.3 320l58.3 58.3 5.7 5.7L320 395.3l-5.7-5.7L256 331.3l-58.3 58.3-5.7 5.7L180.7 384l5.7-5.7L244.7 320l-58.3-58.3-5.7-5.7L192 244.7l5.7 5.7z"/></svg>