<svg xmlns="http://www.w3.org/2000/svg" viewBox="0 0 384 512"><!--! Font Awesome Pro 6.5.1 by @fontawesome - https://fontawesome.com License - https://fontawesome.com/license (Commercial License) Copyright 2023 Fonticons, Inc. --><path d="M381.5 496l2.5 16H367.8 16.2 0l2.5-16L62.7 110.7C72.7 47 127.5 0 192 0s119.3 47 129.3 110.7L381.5 496zM315.3 176H68.7l-50 320H365.3l-50-320zm-2.5-16l-7.3-46.9C296.7 57.2 248.6 16 192 16S87.3 57.2 78.5 113.1L71.2 160H312.8zM176 64a16 16 0 1 1 32 0 16 16 0 1 1 -32 0zM144 80a16 16 0 1 1 0 32 16 16 0 1 1 0-32zm80 16a16 16 0 1 1 32 0 16 16 0 1 1 -32 0zM123.4 224h16.1L111 448H94.9l28.4-224zm137.3 0l28.4 224H273L244.5 224h16.1z"/></svg>