<svg xmlns="http://www.w3.org/2000/svg" viewBox="0 0 512 512"><!--! Font Awesome Pro 6.5.1 by @fontawesome - https://fontawesome.com License - https://fontawesome.com/license (Commercial License) Copyright 2023 Fonticons, Inc. --><path d="M496 80v96H16V80H496zM16 64H0V80v96 16H16 496h16V176 80 64H496 16zM0 320v8V440v8H8 504h8v-8V328v-8h-8H392h-2.4l-2 1.3-67.6 45-67.6-45-2-1.3H248 8 0zm16 16H245.6l70 46.7 4.4 3 4.4-3 70-46.7H496v96H16V336zM130.8 224.5l-3-1.1-3 1.3-112 48-7.4 3.2 6.3 14.7 7.4-3.2 109-46.7 125 46.9 2.8 1.1 2.8-1.1 125-46.9 109 46.7 7.4 3.2 6.3-14.7-7.4-3.2-112-48-3-1.3-3 1.1L256 271.5 130.8 224.5z"/></svg>