<svg xmlns="http://www.w3.org/2000/svg" viewBox="0 0 512 512"><!--! Font Awesome Pro 6.5.1 by @fontawesome - https://fontawesome.com License - https://fontawesome.com/license (Commercial License) Copyright 2023 Fonticons, Inc. --><path d="M192 16V0C368.7 0 512 143.3 512 320H496C496 152.1 359.9 16 192 16zM416 320H400c0-114.9-93.1-208-208-208V96c123.7 0 224 100.3 224 224zM16 304c0 106 86 192 192 192c34.9 0 67.6-9.3 95.8-25.6L41.6 208.2C25.3 236.4 16 269.1 16 304zM0 304c0-39.3 10.9-76.1 29.9-107.5c2.8-4.7 5.8-9.2 9-13.6l11.5 11.5 128 128 0 0 20.3-20.3c-4.2-6.3-6.6-13.9-6.6-22.1c0-22.1 17.9-40 40-40s40 17.9 40 40s-17.9 40-40 40c-8.2 0-15.7-2.4-22.1-6.6l-20.3 20.3 0 0 128 128 11.5 11.5c-4.4 3.2-9 6.2-13.6 9C284.1 501.1 247.3 512 208 512C93.1 512 0 418.9 0 304zm256-24a24 24 0 1 0 -48 0 24 24 0 1 0 48 0z"/></svg>