<svg xmlns="http://www.w3.org/2000/svg" viewBox="0 0 640 512"><!--! Font Awesome Pro 6.5.1 by @fontawesome - https://fontawesome.com License - https://fontawesome.com/license (Commercial License) Copyright 2023 Fonticons, Inc. --><path d="M508.8 32H512h80 3.3l2.3 2.3 40 40 2.3 2.3V80v24 8h-8H539.8L283.8 421.8C253.4 458.7 208.1 480 160.3 480C71.8 480 0 408.2 0 319.7v-7.9c0-11.1 1.1-22.1 3.3-33L30.2 144H8 0V128H8 40 248h32 8v16h-8H253.5L193.6 301.2l21.7 16.2L342.4 193.7l-20.1-20.1-5.7-5.7L328 156.7l5.7 5.7 20.2 20.2 37.2-36.2-20.8-20.8-5.7-5.7L376 108.7l5.7 5.7 20.9 20.9 37.2-36.2L418.3 77.7 412.7 72 424 60.7l5.7 5.7 21.6 21.6 55.2-53.7 2.3-2.3zM19 282c-2 9.8-3 19.8-3 29.8v7.9C16 399.4 80.6 464 160.3 464c43 0 83.8-19.2 111.2-52.4L529.8 98.9l2.4-2.9H536h88V83.3L588.7 48H515.2L221.6 333.6l-4.9 4.8-5.5-4.1-32-23.8-4.8-3.6 2.2-5.7L236.4 144H46.6L19 282zm93-58a16 16 0 1 1 32 0 16 16 0 1 1 -32 0zM96 304a16 16 0 1 1 0 32 16 16 0 1 1 0-32z"/></svg>