<svg xmlns="http://www.w3.org/2000/svg" viewBox="0 0 640 512"><!--! Font Awesome Pro 6.5.1 by @fontawesome - https://fontawesome.com License - https://fontawesome.com/license (Commercial License) Copyright 2023 Fonticons, Inc. --><path d="M102.4 .1C68.3 21.5 0 82 0 153.7c0 7.6 .7 15 1.9 22.3H18.2c-1.5-7.2-2.2-14.7-2.2-22.3C16 122.9 30.7 93.3 50.9 68c16-20.1 34.7-36.5 49.5-47.2l41.9 41.9 11.3 11.3 11.3-11.3 15-15c49 45.5 60.1 91.2 60.1 106.1c0 7.6-.8 15.1-2.2 22.3h16.3c1.3-7.2 1.9-14.7 1.9-22.3c0-21.3-15.4-76.8-76.8-128L164.9 40 153.6 51.3 142.3 40 102.4 .1zM128 102.5s-48.2 32.1-68.2 73.5H77.9c6.1-10.4 14.2-20.4 23.2-29.7s18-17 24.8-22.3c.7-.6 1.4-1.1 2.1-1.6c.7 .5 1.4 1.1 2.1 1.6c6.8 5.4 15.8 13.1 24.8 22.3s17.1 19.4 23.2 29.7h18.1c-20-41.4-68.2-73.5-68.2-73.5zM512 64h-3.3l-2.3 2.3-55.2 53.7L429.7 98.3 424 92.7 412.7 104l5.7 5.7 21.4 21.4-37.2 36.2-21-21-5.7-5.7L364.7 152l5.7 5.7 20.8 20.8L354 214.6l-20.3-20.3-5.7-5.7L316.7 200l5.7 5.7 20.1 20.1L207 357.6l-13.7-9L230 224h18 8V208h-8H224 40 8 0v16H8 29.4L6.2 305C2.1 319.5 0 334.5 0 349.6v2.1C0 440.2 71.8 512 160.3 512c47.8 0 93.1-21.3 123.6-58.2L539.8 144H632h8v-8V112v-3.3l-2.3-2.3-40-40L595.3 64H592 512zM46 224H213.3l-37 125.7-1.7 5.7 4.9 3.3 24 15.8 5.4 3.5 4.6-4.5L515.3 80h73.4L624 115.3V128H536h-3.8l-2.4 2.9L271.5 443.6C244.1 476.8 203.3 496 160.3 496C80.6 496 16 431.4 16 351.7v-2.1c0-13.6 1.9-27.1 5.6-40.2L46 224zM80 384a16 16 0 1 0 0-32 16 16 0 1 0 0 32zm48-112a16 16 0 1 0 -32 0 16 16 0 1 0 32 0z"/></svg>