<svg xmlns="http://www.w3.org/2000/svg" viewBox="0 0 640 512"><!--! Font Awesome Pro 6.5.1 by @fontawesome - https://fontawesome.com License - https://fontawesome.com/license (Commercial License) Copyright 2023 Fonticons, Inc. --><path d="M105.9 .4L256.7 50.7C262.9 21.7 288.6 0 319.3 0c35.3 0 64 28.7 64 64c0 9.6-2.1 18.7-5.9 26.9l160.5 53.5 7.6 2.5-5.1 15.2-7.6-2.5L368.6 104.9c-10.1 12.2-24.7 20.6-41.3 22.6V504v8h-8-216-8V496h8 208V127.5c-30.6-3.8-54.4-29.2-55.9-60.4L100.8 15.6 105.9 .4zM319.3 112a48 48 0 1 0 0-96 48 48 0 1 0 0 96zM136.7 80.9L255.9 270.6l.2 40L182.6 384H73.5L.1 310.6v-40L117.9 80.9l9.4-15.1 9.5 15.1zM18.1 272H237.9L127.3 96 18.1 272zm-2 16v16l64 64H176l64-64-.1-16H16.1zm495-96l9.5 15.1L639.7 396.8l.2 40-73.4 73.4H457.4L384 436.8v-40L501.7 207.1l9.4-15.1zm.1 30.2L402 398.2H621.7l-110.5-176zM400 430.2l64 64h95.9l64-64-.1-16H400v16z"/></svg>