<svg xmlns="http://www.w3.org/2000/svg" viewBox="0 0 512 512"><!--! Font Awesome Pro 6.5.1 by @fontawesome - https://fontawesome.com License - https://fontawesome.com/license (Commercial License) Copyright 2023 Fonticons, Inc. --><path d="M399.6 35.4C410 23.1 425.3 16 441.4 16C471.5 16 496 40.5 496 70.6v4c0 13.8-4.9 27.2-13.8 37.8L347.5 272H200L399.6 35.4zM347.5 288h7.4l4.8-5.7L494.4 122.7C505.8 109.2 512 92.2 512 74.6v-4C512 31.6 480.4 0 441.4 0c-20.8 0-40.6 9.2-54 25.1L187.8 261.7 179.1 272l-13.5 16h20.9H200 347.5zM3.2 497.5L-10 511H9c17.9 0 94.7-8.6 167.3-39.1c65.8-27.7 130.8-74.6 142-151.9H302.1C291 387.5 233.6 430.4 170 457.1c-53.7 22.6-109.9 32.8-140.6 36.3L198.5 320H176.1L3.2 497.5z"/></svg>