<svg xmlns="http://www.w3.org/2000/svg" viewBox="0 0 576 512"><!--! Font Awesome Pro 6.5.1 by @fontawesome - https://fontawesome.com License - https://fontawesome.com/license (Commercial License) Copyright 2023 Fonticons, Inc. --><path d="M441.4 16c-16.1 0-31.4 7.1-41.7 19.4L200 272H347.5L482.2 112.4c8.9-10.6 13.8-24 13.8-37.8v-4C496 40.5 471.5 16 441.4 16zM354.9 288h-7.4H200 186.5 165.6l13.5-16 8.7-10.3L387.4 25.1C400.8 9.2 420.6 0 441.4 0c39 0 70.6 31.6 70.6 70.6v4c0 17.6-6.2 34.6-17.6 48.1L359.7 282.3l-4.8 5.7zM176.1 320h22.3L29.5 493.5c30.7-3.6 86.9-13.7 140.6-36.3c63.5-26.7 121-69.6 132-137.1h16.2c-11.2 77.3-76.3 124.2-142 151.9C103.7 502.4 26.8 511 9 511H-10L3.2 497.5 176.1 320zM232 496h80 8v16h-8H232h-8V496h8zm128 0h80 8v16h-8H360h-8V496h8zm128 0h80 8v16h-8H488h-8V496h8z"/></svg>