<svg xmlns="http://www.w3.org/2000/svg" viewBox="0 0 640 512"><!--! Font Awesome Pro 6.5.1 by @fontawesome - https://fontawesome.com License - https://fontawesome.com/license (Commercial License) Copyright 2023 Fonticons, Inc. --><path d="M534.1 .4L383.3 50.7C377.1 21.7 351.4 0 320.7 0c-35.3 0-64 28.7-64 64c0 9.6 2.1 18.7 5.9 26.9L102.1 144.4l-7.6 2.5 5.1 15.2 7.6-2.5 164.2-54.7c10.1 12.2 24.7 20.6 41.3 22.6V504v8h8 216 8V496h-8-208V127.5c30.6-3.8 54.4-29.2 55.9-60.4L539.2 15.6 534.1 .4zM320.7 16a48 48 0 1 1 0 96 48 48 0 1 1 0-96zM503.3 80.9L384.2 270.6l-.2 40L457.4 384H566.5l73.4-73.4v-40L522.1 80.9l-9.4-15.1-9.5 15.1zM621.9 272H402.1L512.7 96 621.9 272zm2 16v16l-64 64H464l-64-64 .1-16H623.9zm-495-96l-9.5 15.1L.3 396.8l-.2 40 73.4 73.4H182.6L256 436.8v-40L138.3 207.1 128.9 192zm-.1 30.2L238 398.2H18.3l110.5-176zM240 430.2l-64 64H80.1l-64-64 .1-16H240v16z"/></svg>