<svg xmlns="http://www.w3.org/2000/svg" viewBox="0 0 512 512"><!--! Font Awesome Pro 6.5.1 by @fontawesome - https://fontawesome.com License - https://fontawesome.com/license (Commercial License) Copyright 2023 Fonticons, Inc. --><path d="M144 0H128V64h16V0zM272 0H256V64h16V0zM384 0V288h16V0H384zm64 0V288h16V0H448zM320 0V64h16V0H320zM192 0V64h16V0H192zM512 0H496V288h16V0zM336 112V496H16V112H336zM16 96H0v16V496v16H16 336h16V496 112 96H336 16zm64 80H272V432H80V176zM64 160v16V432v16H80 272h16V432 176 160H272 80 64z"/></svg>