<svg xmlns="http://www.w3.org/2000/svg" viewBox="0 0 576 512"><!--! Font Awesome Pro 6.5.1 by @fontawesome - https://fontawesome.com License - https://fontawesome.com/license (Commercial License) Copyright 2023 Fonticons, Inc. --><path d="M416 32V48H576V32H416zM576 80H416V96H576V80zm0 48H416v16H576V128zm0 64H416v16H576V192zM416 272v16H576V272H416zm160 48H416v16H576V320zM416 376v16H576V376H416zm160 88H416v16H576V464zM21.5 394.1L97.5 256H112 244.5L130.1 458 21.5 394.1zm60-142.3L0 400l122.2 71.9L136 480l7.9-13.9L262.9 256H336h16V240 48 32H336 112C50.1 32 0 82.1 0 144c0 51.3 34.5 94.5 81.5 107.8zM112 240c-53 0-96-43-96-96s43-96 96-96H336V240H272 253.6 112z"/></svg>