<svg xmlns="http://www.w3.org/2000/svg" viewBox="0 0 512 512"><!--! Font Awesome Pro 6.5.1 by @fontawesome - https://fontawesome.com License - https://fontawesome.com/license (Commercial License) Copyright 2023 Fonticons, Inc. --><path d="M144 0H128V64h16V0zM272 0H256V64h16V0zM384 0V288h16V0H384zm64 0V288h16V0H448zM320 0V64h16V0H320zM192 0V64h16V0H192zM512 0H496V288h16V0zM336 112V496H16V112H336zM16 96H0v16V496v16H16 336h16V496 112 96H336 16zm64 80H272v64H80V176zM64 160v16 64 16H80 272h16V240 176 160H272 80 64zM80 400h64v32H80V400zM64 384v16 32 16H80h64 16V432 400 384H144 80 64zm208 16v32H208V400h64zm-64-16H192v16 32 16h16 64 16V432 400 384H272 208zM80 304h64v32H80V304zM64 288v16 32 16H80h64 16V336 304 288H144 80 64zm208 16v32H208V304h64zm-64-16H192v16 32 16h16 64 16V336 304 288H272 208z"/></svg>