<svg xmlns="http://www.w3.org/2000/svg" viewBox="0 0 512 512"><!--! Font Awesome Pro 6.5.1 by @fontawesome - https://fontawesome.com License - https://fontawesome.com/license (Commercial License) Copyright 2023 Fonticons, Inc. --><path d="M171.2 0H176 336h4.8l2.3 4.3 72 136 .9 1.8v2 64 3.7l-2.8 2.4-49.4 42.4 56.7 56.7 5.7 5.7 3.5 3.5 5.7 5.7 70.8 70.8 5.7 5.7-11.3 11.3-5.7-5.7L424 339.3 387.3 376l70.8 70.8 5.7 5.7-11.3 11.3-5.7-5.7L376 387.3 339.3 424l70.8 70.8 5.7 5.7-11.3 11.3-5.7-5.7-76.4-76.4L98.4 213.8 96 211.4V208 144v-2l.9-1.8 72-136L171.2 0zM346.3 261.7l-144-144-2.3-2.3V112v-8V96h8 88 8v16h-8H219.3L352.4 245.1 400 204.3V146L331.2 16H180.8L112 146v58.6L324.3 409.3l.2-.2 3.5 3.5L412.7 328l-3.5-3.5-62.8-62.8zM227.7 391.6L113.2 506.1l-5.7 5.7L96.2 500.5l5.7-5.7L216.4 380.3l11.3 11.3zm-48-48L65.2 458.1l-5.7 5.7L48.2 452.5l5.7-5.7L168.4 332.3l11.3 11.3zm-48-48L17.2 410.1l-5.7 5.7L.2 404.5l5.7-5.7L120.4 284.3l11.3 11.3z"/></svg>