<svg xmlns="http://www.w3.org/2000/svg" viewBox="0 0 448 512"><!--! Font Awesome Pro 6.5.1 by @fontawesome - https://fontawesome.com License - https://fontawesome.com/license (Commercial License) Copyright 2023 Fonticons, Inc. --><path d="M224 192a88 88 0 1 0 0-176 88 88 0 1 0 0 176zm0 16c-43.3 0-80.4-26.4-96-64h-83l10.2 20.4 3 6-5.3 4L29.3 192l23.5 17.6 5.3 4-3 6L44.9 240H136h9.8l-1.9 9.6-28.8 144 49.4-24.7 3.8-1.9 3.7 2.1 52 29.7 52-29.7 3.7-2.1 3.8 1.9 49.4 24.7-28.8-144-1.9-9.6H312h91.1l-10.2-20.4-3-6 5.3-4L418.7 192l-23.5-17.6-5.3-4 3-6L403.1 144H320c-15.7 37.6-52.8 64-96 64zM328 104c0 8.3-1 16.3-2.8 24H416h12.9l-5.8 11.6-13 26 26.7 20 8.5 6.4-8.5 6.4-26.7 20 13 26 5.8 11.6H416 321.8l30.1 150.4 3.2 16-14.6-7.3-60.2-30.1L228 414.9l-4 2.3-4-2.3-52.3-29.9-60.2 30.1-14.6 7.3 3.2-16L126.2 256H32 19.1l5.8-11.6 13-26-26.7-20L2.7 192l8.5-6.4 26.7-20-13-26L19.1 128H32h90.8c-1.8-7.7-2.8-15.7-2.8-24C120 46.6 166.6 0 224 0s104 46.6 104 104zM176 88a16 16 0 1 1 32 0 16 16 0 1 1 -32 0zm80 0a16 16 0 1 1 0 32 16 16 0 1 1 0-32zM216 504V436.9l8 4.6 8-4.6V504v8H216v-8z"/></svg>