<svg xmlns="http://www.w3.org/2000/svg" viewBox="0 0 640 512"><!--! Font Awesome Pro 6.5.1 by @fontawesome - https://fontawesome.com License - https://fontawesome.com/license (Commercial License) Copyright 2023 Fonticons, Inc. --><path d="M160 112H16 0v16V496v16H16 256h16 96 16 10.8c-6.9-4.9-13.4-10.2-19.6-16H368 304 272V384c0-26.5 21.5-48 48-48c1 0 1.9 0 2.9 .1c1-5.3 2.2-10.6 3.6-15.8c-2.1-.2-4.3-.3-6.5-.3c-35.3 0-64 28.7-64 64V496H16V128H160h5l4.1-2.9L320 19.5 470.8 125.1 475 128h5H624V247.2c5.8 6.1 11.1 12.7 16 19.6V128 112H624 480L320 0 160 112zM72 192H64v8 80 8h8 64 8v-8V200v-8h-8H72zm8 80V208h48v64H80zM320 112a64 64 0 1 1 0 128 64 64 0 1 1 0-128zm0 144a80 80 0 1 0 0-160 80 80 0 1 0 0 160zm8-112v-8H312v8 32 8h8 24 8V168h-8H328V144zM64 320v8 80 8h8 64 8v-8V328v-8h-8H72 64zm16 16h48v64H80V336zm288 32a128 128 0 1 1 256 0 128 128 0 1 1 -256 0zm272 0a144 144 0 1 0 -288 0 144 144 0 1 0 288 0zm-82.3-50.3l5.7-5.7L552 300.7l-5.7 5.7L496 356.7l-50.3-50.3-5.7-5.7L428.7 312l5.7 5.7L484.7 368l-50.3 50.3-5.7 5.7L440 435.3l5.7-5.7L496 379.3l50.3 50.3 5.7 5.7L563.3 424l-5.7-5.7L507.3 368l50.3-50.3z"/></svg>