<svg xmlns="http://www.w3.org/2000/svg" viewBox="0 0 640 512"><!--! Font Awesome Pro 6.5.1 by @fontawesome - https://fontawesome.com License - https://fontawesome.com/license (Commercial License) Copyright 2023 Fonticons, Inc. --><path d="M496 240a128 128 0 1 1 0 256 128 128 0 1 1 0-256zm0 272a144 144 0 1 0 0-288 144 144 0 1 0 0 288zm12-92H484v24h24V420zm-4-132v-8H488v8 96 8h16v-8V288zM16 112H160L320 0 480 112H624h16v16V266.8c-4.9-6.9-10.2-13.5-16-19.6V128H480h-5l-4.1-2.9L320 19.5 169.2 125.1 165 128h-5H16V496H256V384c0-35.3 28.7-64 64-64c2.2 0 4.4 .1 6.5 .3c-1.4 5.2-2.7 10.4-3.6 15.8c-1-.1-1.9-.1-2.9-.1c-26.5 0-48 21.5-48 48V496h32 64 7.2c6.1 5.8 12.7 11.1 19.6 16H384 368 272 256 16 0V496 128 112H16zm48 80h8 64 8v8 80 8h-8H72 64v-8V200v-8zm16 16v64h48V208H80zm304-32a64 64 0 1 0 -128 0 64 64 0 1 0 128 0zm-144 0a80 80 0 1 1 160 0 80 80 0 1 1 -160 0zm88-40v8 24h16 8v16h-8H320h-8v-8V144v-8h16zM72 320h64 8v8 80 8h-8H72 64v-8V328v-8h8zm8 80h48V336H80v64z"/></svg>