<svg xmlns="http://www.w3.org/2000/svg" viewBox="0 0 576 512"><!--! Font Awesome Pro 6.5.1 by @fontawesome - https://fontawesome.com License - https://fontawesome.com/license (Commercial License) Copyright 2023 Fonticons, Inc. --><path d="M400 16V64H296V32 16H400zM280 76.1L173.2 160H8 0v8V504v8H8 224h16 96 16H568h8v-8V168v-8h-8H402.8L300.9 80H400h16V64 16 0H400 296 280V16 32 64 76.1zM336 416v80H240V416c0-26.5 21.5-48 48-48s48 21.5 48 48zm224 80H352V416c0-35.3-28.7-64-64-64s-64 28.7-64 64v80H16V176H176h2.8l2.2-1.7L288 90.2l107.1 84.1 2.2 1.7H400 560V496zM328 240a40 40 0 1 1 -80 0 40 40 0 1 1 80 0zm-40-56a56 56 0 1 0 0 112 56 56 0 1 0 0-112zM72 224H64v8 80 8h8 80 8v-8V232v-8h-8H72zm8 80V240h64v64H80zm336-80v8 80 8h8 80 8v-8V232v-8h-8H424h-8zm16 16h64v64H432V240zM72 352H64v8 80 8h8 80 8v-8V360v-8h-8H72zm8 80V368h64v64H80zm336-80v8 80 8h8 80 8v-8V360v-8h-8H424h-8zm16 16h64v64H432V368z"/></svg>