<svg xmlns="http://www.w3.org/2000/svg" viewBox="0 0 640 512"><!--! Font Awesome Pro 6.5.1 by @fontawesome - https://fontawesome.com License - https://fontawesome.com/license (Commercial License) Copyright 2023 Fonticons, Inc. --><path d="M592 16H48V236.8c-5.7 3.3-11.1 7.2-16 11.6V16 0H48 592h16V16 248.4c-4.9-4.4-10.3-8.3-16-11.6V16zM96 368a48 48 0 1 0 0-96 48 48 0 1 0 0 96zm0-112a64 64 0 1 1 0 128 64 64 0 1 1 0-128zM320 368a48 48 0 1 0 0-96 48 48 0 1 0 0 96zm0-112a64 64 0 1 1 0 128 64 64 0 1 1 0-128zm272 64a48 48 0 1 0 -96 0 48 48 0 1 0 96 0zm-112 0a64 64 0 1 1 128 0 64 64 0 1 1 -128 0zM43.5 432L16.9 512H0l32-96H160l32 96H175.1l-26.7-80H43.5zm197.3 80H224l32-96H384l32 96H399.1l-26.7-80H267.5l-26.7 80zm250.7-80l-26.7 80H448l32-96H608l32 96H623.1l-26.7-80H491.5z"/></svg>