<svg xmlns="http://www.w3.org/2000/svg" viewBox="0 0 512 512"><!--! Font Awesome Pro 6.5.1 by @fontawesome - https://fontawesome.com License - https://fontawesome.com/license (Commercial License) Copyright 2023 Fonticons, Inc. --><path d="M336 104v72h72L490.9 65.5 446.5 21.1 336 104zm-4.7 88l-71 71L249 251.7l71-71V176 96L448 0l64 64L416 192H336h-4.7zm-224 308.7L96 512 84.7 500.7 11.3 427.3 0 416l11.3-11.3L172.7 243.3 184 232l11.3 11.3 73.4 73.4L280 328l-11.3 11.3L107.3 500.7zM257.4 328L184 254.6 22.6 416 96 489.4 257.4 328z"/></svg>