<svg xmlns="http://www.w3.org/2000/svg" viewBox="0 0 576 512"><!--! Font Awesome Pro 6.5.1 by @fontawesome - https://fontawesome.com License - https://fontawesome.com/license (Commercial License) Copyright 2023 Fonticons, Inc. --><path d="M560 48H16V192.4c-5.3-.3-10.6-.4-16-.4V48 32H16 560h16V48 464v16H560 288c0-5.4-.1-10.7-.4-16H560V48zM0 240V224c141.4 0 256 114.6 256 256H240C240 347.5 132.5 240 0 240zM48 448a16 16 0 1 0 -32 0 16 16 0 1 0 32 0zM0 448a32 32 0 1 1 64 0A32 32 0 1 1 0 448zm144 32c0-79.5-64.5-144-144-144V320c88.4 0 160 71.6 160 160H144z"/></svg>