<svg xmlns="http://www.w3.org/2000/svg" viewBox="0 0 640 512"><!--! Font Awesome Pro 6.5.1 by @fontawesome - https://fontawesome.com License - https://fontawesome.com/license (Commercial License) Copyright 2023 Fonticons, Inc. --><path d="M16 16V496H96V16H16zM0 0H16 96h16V16 32H528V16 0h16 80 16V16 496v16H624 544 528V496 480H112v16 16H96 16 0V496 16 0zM112 464H528V48H112V464zm82.1-136l7-12 35-60-35-60-7-12H208h70.1l35-60 6.9-11.8 6.9 11.8 35 60H432h13.9l-7 12-35 60 35 60 7 12H432 361.9l-35 60L320 399.9 313.1 388l-35-60H208 194.1zM320 368.1L343.4 328H296.6L320 368.1zM287.3 312h65.5l32.7-56-32.7-56H287.3l-32.7 56 32.7 56zm130.8 0l-23.4-40.1L371.3 312h46.8zm0-112H371.3l23.4 40.1L418.1 200zM320 143.9L296.6 184h46.8L320 143.9zm-74.7 96.2L268.7 200H221.9l23.4 40.1zM268.7 312l-23.4-40.1L221.9 312h46.8zM624 16H544V496h80V16z"/></svg>