<svg xmlns="http://www.w3.org/2000/svg" viewBox="0 0 576 512"><!--! Font Awesome Pro 6.5.1 by @fontawesome - https://fontawesome.com License - https://fontawesome.com/license (Commercial License) Copyright 2023 Fonticons, Inc. --><path d="M16 104c0-30.9 25.1-56 56-56s56 25.1 56 56V400c0 44.2 35.8 80 80 80H496c44.2 0 80-35.8 80-80V344v-8h-8-.7-.7-.7-.7-.7-.7-.7-.7-.7-.7-.7-.7-.7-.7-.7-.7-.7-.7-.7-.7-.7-.7-.7-.7-.7-.7-.7-.7-.7-.7-.6-.6-.6-.6-.6-.6-.6-.6H542h-.6-.6-.6-.6-.6-.6-.6-.6-.6-.6H535h-.6-.6-.6-.6-.6-.6-.6-.6-.6-.6-.6-.6H527h-.6-.6-.6-.6H524h-.6-.6-.6-.6H521h-.6-.6-.6-.6H518h-.6-.6-.6-.6-.6-.6-.6-.6-.6-.6-.6H511h-.6-.6-.6-.6-.6-.6-.6-.6-.6-.6-.6-.6-.6H503h-.6-.6-.6-.6-.6-.6H499h-.6-.6-.6-.6-.6-.6-.6-.6H494h-.6-.6-.6-.6-.5-.5-.5-.5-.5-.5H488h-.5-.5-.5-.5-.5-.5-.5-.5-.5-.5H482h-.5H481h-.5-.5-.5-.5-.5-.5-.5-.5-.5-.5-.5-.5-.5-.5H473h-.5H472h-.5-.5-.5-.5-.5-.5-.5-.5-.5-.5-.5-.5-.5-.5-.5-.5-.5-.5-.5-.5-.5-.5-.5-.5-.5-.5H458h-.5H457h-.5H456h-.5H455h-.5H454h-.5H453h-.5H452h-.5-.5-.5-.5-.5-.5-.5-.5-.5-.5-.5-.5-.5-.5-.5-.5-.5-.5-.5-.5-.5-.5-.5-.5-.5-.5-.5-.5-.5-.5-.5-.5-.5-.5-.5-.5-.5-.5-.5-.5-.5-.5-.5H430h-.5H429h-.5H428h-.5H427h-.5H426h-.5H425h-.5H424h-.5H423h-.5H422h-.5H421h-.5H420h-.5H419h-.5H418h-.5-.5-.5-.5-.5-.5-.5-.5-.5-.5-.5-.5-.5-.5-.5-.5-.5-.5-.5-.5-.5-.5-.5-.5-.5-.5-.5-.5-.5-.5-.5-.5-.5-.5-.5-.5-.5-.5-.5-.5-.5-.5-.5H396h-.5H395h-.5H394h-.5H393h-.5H392h-.5H391h-.5H390h-.5-.5-.5-.5-.5-.5-.5-.5-.5-.5-.5-.5-.5-.5-.5-.5-.5-.5-.5-.5-.5-.5-.5-.5-.5-.5H376h-.5H375h-.5-.5-.5-.5-.5-.5-.5-.5-.5-.5-.5-.5-.5-.5H367h-.5H366h-.5-.5-.5-.5-.5-.5-.5-.5-.5-.5H360h-.5-.5-.5-.5-.5-.5-.5-.6-.6-.6H354h-.6-.6-.6-.6-.6-.6-.6-.6H349h-.6-.6-.6-.6-.6-.6H345h-.6-.6-.6-.6-.6-.6-.6-.6-.6-.6-.6-.6-.6H337h-.6-.6-.6-.6-.6-.6-.6-.6-.6-.6-.6H330h-.6-.6-.6-.6H327h-.6-.6-.6-.6H324h-.6-.6-.6-.6H321h-.6-.6-.6-.6-.6-.6-.6-.6-.6-.6-.6-.6H313h-.6-.6-.6-.6-.6-.6-.6-.6-.6-.6H306h-.6-.6-.6-.6-.6-.6-.6-.6-.7-.7-.7-.7-.7-.7-.7-.7-.7-.7-.7-.7-.7-.7-.7-.7-.7-.7-.7-.7-.7-.7-.7-.7-.7-.7-.7-.7-.7-.7H280h-8v8 56c0 35.3-28.7 64-64 64s-64-28.7-64-64V104c0-22.6-10.4-42.8-26.7-56H408c30.9 0 56 25.1 56 56V304h16V104c0-39.8-32.2-72-72-72H72C32.2 32 0 64.2 0 104v96 8H8 96V192H16V104zM496 464H256c19.4-14.6 32-37.8 32-64V352h.2 .7 .7 .7 .7 .7 .7 .7 .7 .7 .7 .7 .7 .7 .7 .7 .7 .7 .7 .7 .6 .6 .6 .6 .6 .6 .6 .6 .6 .6 .6 .6 .6 .6 .6 .6 .6 .6 .6 .6 .6 .6 .6 .6 .6 .6 .6 .6 .6 .6 .6 .6 .6 .6 .6 .6 .6 .6 .6 .6 .6 .6 .6 .6 .6 .6 .6 .6 .6 .6 .6 .6 .6 .6 .6 .6 .6 .6 .6 .6 .6 .6 .6 .6 .6 .6 .6 .6 .6 .6 .6 .6 .6 .6 .6 .6 .6 .6 .6 .6 .6 .6 .6 .6 .6 .6 .6 .6 .6 .6 .6 .6 .6 .5 .5 .5 .5 .5 .5 .5 .5 .5 .5 .5 .5 .5 .5 .5 .5 .5 .5 .5 .5 .5 .5 .5 .5 .5 .5 .5 .5 .5 .5 .5 .5 .5 .5 .5 .5 .5 .5 .5 .5 .5 .5 .5 .5 .5 .5 .5 .5 .5 .5 .5 .5 .5 .5 .5 .5 .5 .5 .5 .5 .5 .5 .5 .5 .5 .5 .5 .5 .5 .5 .5 .5 .5 .5 .5 .5 .5 .5 .5 .5 .5 .5 .5 .5 .5 .5 .5 .5 .5 .5 .5 .5 .5 .5 .5 .5 .5 .5 .5 .5 .5 .5 .5 .5 .5 .5 .5 .5 .5 .5 .5 .5 .5 .5 .5 .5 .5 .5 .5 .5 .5 .5 .5 .5 .5 .5 .5 .5 .5 .5 .5 .5 .5 .5 .5 .5 .5 .5 .5 .5 .5 .5 .5 .5 .5 .5 .5 .5 .5 .5 .5 .5 .5 .5 .5 .5 .5 .5 .5 .5 .5 .5 .5 .5 .5 .5 .5 .5 .5 .5 .5 .5 .5 .5 .5 .5 .5 .5 .5 .5 .5 .5 .5 .5 .5 .5 .5 .5 .5 .5 .5 .5 .5 .5 .5 .5 .5 .5 .5 .5 .5 .5 .5 .5 .5 .5 .5 .5 .5 .5 .5 .5 .5 .5 .5 .5 .5 .5 .5 .5 .5 .5 .5 .5 .5 .5 .5 .5 .5 .5 .5 .5 .5 .5 .5 .5 .5 .5 .5 .5 .5 .5 .5 .5 .5 .5 .5 .5 .5 .5 .5 .5 .5 .5 .5 .5 .5 .5 .5 .5 .5 .5 .5 .5 .6 .6 .6 .6 .6 .6 .6 .6 .6 .6 .6 .6 .6 .6 .6 .6 .6 .6 .6 .6 .6 .6 .6 .6 .6 .6 .6 .6 .6 .6 .6 .6 .6 .6 .6 .6 .6 .6 .6 .6 .6 .6 .6 .6 .6 .6 .6 .6 .6 .6 .6 .6 .6 .6 .6 .6 .6 .6 .6 .6 .6 .6 .6 .6 .6 .6 .6 .6 .6 .6 .6 .6 .6 .6 .6 .6 .6 .6 .6 .6 .6 .6 .6 .6 .6 .6 .6 .6 .6 .6 .6 .6 .6 .6 .7 .7 .7 .7 .7 .7 .7 .7 .7 .7 .7 .7 .7 .7 .7 .7 .7 .7 .2v48c0 35.3-28.7 64-64 64z"/></svg>