<svg xmlns="http://www.w3.org/2000/svg" viewBox="0 0 576 512"><!--! Font Awesome Pro 6.5.1 by @fontawesome - https://fontawesome.com License - https://fontawesome.com/license (Commercial License) Copyright 2023 Fonticons, Inc. --><path d="M16 104c0-30.9 25.1-56 56-56s56 25.1 56 56v91.3L156.7 224 128 252.7V400c0 44.2 35.8 80 80 80H496c44.2 0 80-35.8 80-80V344v-8H412.2L384 371.2 355.8 336H272v64c0 35.3-28.7 64-64 64s-64-28.7-64-64V259.3L179.3 224 144 188.7V104c0-22.6-10.4-42.8-26.7-56H408c30.9 0 56 25.1 56 56v20.7L428.7 160 464 195.3v25.4L428.7 256 464 291.3V304h16V284.7L451.3 256 480 227.3V188.7L451.3 160 480 131.3V104c0-39.8-32.2-72-72-72H72C32.2 32 0 64.2 0 104V208H96V192H16V104zM496 464H256c19.4-14.6 32-37.8 32-64V352h60.2L384 396.8 419.8 352H560l0 48c0 35.3-28.7 64-64 64z"/></svg>