<svg xmlns="http://www.w3.org/2000/svg" viewBox="0 0 640 512"><!--! Font Awesome Pro 6.5.1 by @fontawesome - https://fontawesome.com License - https://fontawesome.com/license (Commercial License) Copyright 2023 Fonticons, Inc. --><path d="M352 0H540.6l-3.2 16H352C221 16 137 69.7 85.5 123.1c-25.9 26.8-43.6 53.6-54.8 73.7c-2.3 4-4.2 7.8-6 11.2H499l-3.2 16H17.2 0s2.1-6 6.9-16C31.3 156.8 124.5 0 352 0zM636.6 16l-18.3 85.5 5.8-29.1L569.6 326.7 529.9 512H480.8 464.4l3.4-16 27.4-128 3.4-16H482.3 416 400 384V336 304 288h16 16 96.4L574.1 0h49.1 15.3 1 .4l-3.4 16zM416 336h82.7 19.8l-4.1 19.4L484.2 496h32.7l37-172.6L619.8 16H587.1l-59 275.4L525.4 304H512.4 416 400v32h16z"/></svg>