<svg xmlns="http://www.w3.org/2000/svg" viewBox="0 0 448 512"><!--! Font Awesome Pro 6.5.1 by @fontawesome - https://fontawesome.com License - https://fontawesome.com/license (Commercial License) Copyright 2023 Fonticons, Inc. --><path d="M432 416V16H214.6L96 134.6V416H432zM98.7 109.3L208 0H432h16V16 416v16H432 96 80V416 128l18.7-18.7 0 0zM248 72v8 64 8H232v-8V80 72h16zm64 0v8 64 8H296v-8V80 72h16zm64 0v8 64 8H360v-8V80 72h16zM0 208l48-48v22.6l-32 32V496H352V464h16v32 16H352 16 0V496 208z"/></svg>