<svg xmlns="http://www.w3.org/2000/svg" viewBox="0 0 512 512"><!--! Font Awesome Pro 6.5.1 by @fontawesome - https://fontawesome.com License - https://fontawesome.com/license (Commercial License) Copyright 2023 Fonticons, Inc. --><path d="M331 75L267.3 11.3 256 0 244.7 11.3 181 75H91 75V91v90L11.3 244.7 0 256l11.3 11.3L75 331v90 16H91h90l63.7 63.7L256 512l11.3-11.3L331 437h90 16V421 331l63.7-63.7L512 256l-11.3-11.3L437 181V91 75H421 331zm90 16v90 6.6l4.7 4.7L489.4 256l-63.7 63.7-4.7 4.7V331v90H331h-6.6l-4.7 4.7L256 489.4l-63.7-63.7-4.7-4.7H181 91V331v-6.6l-4.7-4.7L22.6 256l63.7-63.7 4.7-4.7V181 91h90 6.6l4.7-4.7L256 22.6l63.7 63.7 4.7 4.7H331h90z"/></svg>