<svg xmlns="http://www.w3.org/2000/svg" viewBox="0 0 640 512"><!--! Font Awesome Pro 6.5.1 by @fontawesome - https://fontawesome.com License - https://fontawesome.com/license (Commercial License) Copyright 2023 Fonticons, Inc. --><path d="M240 16V240H16V16H240zM16 0H0V16 240v16H16 240h16V240 16 0H240 16zM624 272V496H400V272H624zM400 256H384v16V496v16h16H624h16V496 272 256H624 400zM160 288V400v16h16H352V400H176V288H160zM480 112V96H464 288v16H464V224h16V112zM176 80v96H80V80h96zM80 64H64V80v96 16H80h96 16V176 80 64H176 80zM464 336h96v96H464V336zm-16-16v16 96 16h16 96 16V432 336 320H560 464 448z"/></svg>