<svg xmlns="http://www.w3.org/2000/svg" viewBox="0 0 640 512"><!--! Font Awesome Pro 6.5.1 by @fontawesome - https://fontawesome.com License - https://fontawesome.com/license (Commercial License) Copyright 2023 Fonticons, Inc. --><path d="M432 48V464H16V48H432zM16 32H0V48 464v16H16 432h16V464 48 32H432 16zM96 96H80v8V280v8H96v-8V104 96zm64 0H144v8V280v8h16v-8V104 96zM604.1 78.9l6.9-4.1L602.7 61l-6.9 4.1-80 48-6.9 4.1 8.2 13.7 6.9-4.1 80-48zM520 248h-8v16h8H632h8V248h-8H520zm4.1 137.1l-6.9-4.1L509 394.7l6.9 4.1 80 48 6.9 4.1 8.2-13.7-6.9-4.1-80-48z"/></svg>