<svg xmlns="http://www.w3.org/2000/svg" viewBox="0 0 640 512"><!--! Font Awesome Pro 6.5.1 by @fontawesome - https://fontawesome.com License - https://fontawesome.com/license (Commercial License) Copyright 2023 Fonticons, Inc. --><path d="M16 48H432v74.5l16-29.3V48 32H432 16 0V48 464v16H16 237l8.7-16H16V48zm80 56V96H80v8V280v8H96v-8V104zm64 0V96H144v8V280v8h16v-8V104zm96 408h18.2H621.8 640l-8.7-16L457.1 176.7 448 160l-9.1 16.7L264.7 496 256 512zm357-16H283L448 193.4 613 496zM456 296v-8H440v8 96 8h16v-8V296zM436 424v24h24V424H436z"/></svg>