<svg xmlns="http://www.w3.org/2000/svg" viewBox="0 0 512 512"><!--! Font Awesome Pro 6.5.1 by @fontawesome - https://fontawesome.com License - https://fontawesome.com/license (Commercial License) Copyright 2023 Fonticons, Inc. --><path d="M16 48V208H496V48H16zM0 32H16 496h16V48 208v16H496 16 0V208 48 32zM16 304V464H496V304H16zM0 288H16 496h16v16V464v16H496 16 0V464 304 288zm336 96a16 16 0 1 1 32 0 16 16 0 1 1 -32 0zm16-272a16 16 0 1 1 0 32 16 16 0 1 1 0-32zm48 272a16 16 0 1 1 32 0 16 16 0 1 1 -32 0zm16-272a16 16 0 1 1 0 32 16 16 0 1 1 0-32z"/></svg>