<svg xmlns="http://www.w3.org/2000/svg" viewBox="0 0 512 512"><!--! Font Awesome Pro 6.5.1 by @fontawesome - https://fontawesome.com License - https://fontawesome.com/license (Commercial License) Copyright 2023 Fonticons, Inc. --><path d="M160 224h18.4H397.6 416l-9.1-16L297.2 16.1 288 0l-9.2 16.1L169.1 208 160 224zM288 32.2L388.4 208H187.6L288 32.2zM128 272a112 112 0 1 1 0 224 112 112 0 1 1 0-224zm0 240a128 128 0 1 0 0-256 128 128 0 1 0 0 256zM496 288V480H304V288H496zM304 272H288v16V480v16h16H496h16V480 288 272H496 304z"/></svg>