<svg xmlns="http://www.w3.org/2000/svg" viewBox="0 0 576 512"><!--! Font Awesome Pro 6.5.1 by @fontawesome - https://fontawesome.com License - https://fontawesome.com/license (Commercial License) Copyright 2023 Fonticons, Inc. --><path d="M400 240V224H384 326.5c-52.2 0-94.5 42.3-94.5 94.5c0 9.8 1.6 18.8 4.2 27c-3.6-2.2-7.2-4.7-10.8-7.3C195.3 316.8 168 285 168 240c0-79.5 64.5-144 144-144h72 16V80 16h9.4l144 144-144 144H400V240zM280 384s-11.7-9.6-21-25.9c-6-10.6-11-24.1-11-39.6c0-43.4 35.2-78.5 78.5-78.5H368h16v16 48 16h16 16L564.7 171.3 576 160l-11.3-11.3L416 0H400 384V16 64 80H368 312c-88.4 0-160 71.6-160 160c0 70.4 57.8 111.2 95.7 130.4C266.2 379.8 280 384 280 384zM8 32H0v8V504v8H8 472h8v-8V392v-8H464v8V496H16V48H152h8V32h-8H8z"/></svg>