<svg xmlns="http://www.w3.org/2000/svg" viewBox="0 0 384 512"><!--! Font Awesome Pro 6.5.1 by @fontawesome - https://fontawesome.com License - https://fontawesome.com/license (Commercial License) Copyright 2023 Fonticons, Inc. --><path d="M16 16V496H208V344v-8h8H368V16H16zM224 489.4L361.4 352H224V489.4zm0 22.6H16 0V496 16 0H16 368h16V16 352L224 512zM173.7 77.7l-96 96L72 179.3 60.7 168l5.7-5.7 96-96 5.7-5.7L179.3 72l-5.7 5.7zm96 32l-160 160-5.7 5.7L92.7 264l5.7-5.7 160-160 5.7-5.7L275.3 104l-5.7 5.7z"/></svg>