<svg xmlns="http://www.w3.org/2000/svg" viewBox="0 0 640 512"><!--! Font Awesome Pro 6.5.1 by @fontawesome - https://fontawesome.com License - https://fontawesome.com/license (Commercial License) Copyright 2023 Fonticons, Inc. --><path d="M16 0V8 176H624V8 0h16V8 176v8 8V432v8 8 56 8H624v-8V448H16v56 8H0v-8V448v-8-8V192v-8-8V8 0H16zm0 432H624V192H16V432zM464 16H368v96h96V16zM368 0h96 16V16v96 16H464 368 352V112 16 0h16zM112 272v96h96V272H112zM96 256h16 96 16v16 96 16H208 112 96V368 272 256zm176 16v96h96V272H272zm-16-16h16 96 16v16 96 16H368 272 256V368 272 256z"/></svg>