<svg xmlns="http://www.w3.org/2000/svg" viewBox="0 0 512 512"><!--! Font Awesome Pro 6.5.1 by @fontawesome - https://fontawesome.com License - https://fontawesome.com/license (Commercial License) Copyright 2023 Fonticons, Inc. --><path d="M250.2 19.4l5.8-2.2 5.8 2.2L469.3 99.9l9.6 3.7 .6 10.3c2.8 47.8-4.7 121.5-36 193.6C412 379.9 356.2 451.2 262.3 491.8l-6.4 2.7-6.4-2.7C155.8 451.2 100 379.9 68.5 307.5c-31.3-72.1-38.8-145.8-36-193.6l.6-10.3 9.6-3.7L250.2 19.4zM495.5 113l-1.2-20.5L475.1 85 267.6 4.5 256 0 244.4 4.5 36.9 85 17.8 92.5 16.6 113c-2.9 49.9 4.9 126.3 37.3 200.9c32.7 75.3 91 150 189.4 192.6L256 512l12.7-5.5c98.4-42.6 156.7-117.3 189.4-192.6c32.4-74.7 40.2-151 37.3-200.9zM240 96h-8v8 16c0 22.9-27.7 34.4-43.9 18.2l-11.3-11.3-5.7-5.7-5.7 5.7-11.3 11.3 0 0 0 0 0 0 0 0 0 0 0 0 0 0 0 0 0 0 0 0 0 0 0 0 0 0 0 0 0 0 0 0 0 0 0 0 0 0 0 0 0 0 0 0 0 0 0 0 0 0 0 0 0 0 0 0 0 0 0 0 0 0 0 0 0 0 0 0 0 0 0 0 0 0 0 0 0 0 0 0 0 0 0 0 0 0 0 0 0 0 0 0 0 0 0 0 0 0 0 0 0 0-11.3 11.3-5.7 5.7 5.7 5.7 11.3 11.3c16.2 16.2 4.7 43.9-18.2 43.9H120h-8v8 16 16 8h8 16c22.9 0 34.4 27.7 18.2 43.9l-11.3 11.3-5.7 5.7 5.7 5.7 11.3 11.3 0 0 0 0 0 0 0 0 11.3 11.3 5.7 5.7 5.7-5.7 11.3-11.3c16.2-16.2 43.9-4.7 43.9 18.2v16 8h8 16 16 8v-8V360c0-22.9 27.7-34.4 43.9-18.2l11.3 11.3 5.7 5.7 5.7-5.7 11.3-11.3 11.3-11.3 5.7-5.7-5.7-5.7-11.3-11.3C341.6 291.7 353.1 264 376 264h16 8v-8V240 224v-8h-8H376c-22.9 0-34.4-27.7-18.2-43.9l11.3-11.3 5.7-5.7-5.7-5.7-11.3-11.3-11.3-11.3-5.7-5.7-5.7 5.7-11.3 11.3C307.7 154.4 280 142.9 280 120V104 96h-8H256 240zm8 24v-8h8 8v8c0 37.2 44.9 55.8 71.2 29.5l5.7-5.7 5.7 5.7 5.7 5.7-5.7 5.7C320.2 187.1 338.8 232 376 232h8v8 8h-8c-37.2 0-55.8 44.9-29.5 71.2l5.7 5.7-5.7 5.7-5.7 5.7-5.7-5.7C308.9 304.2 264 322.8 264 360v8h-8-8v-8c0-37.1-44.9-55.8-71.2-29.5l-5.7 5.7-5.6-5.6 0 0 0 0 0 0 0 0-5.6-5.6 5.7-5.7c26.3-26.3 7.7-71.2-29.5-71.2h-8v-8-8h8c37.2 0 55.8-44.9 29.5-71.2l-5.7-5.7 5.7-5.7 0 0 0 0 0 0 0 0 0 0 0 0 0 0 0 0 0 0 0 0 0 0 0 0 0 0 0 0 0 0 0 0 0 0 0 0 0 0 0 0 0 0 0 0 0 0 0 0 0 0 0 0 0 0 0 0 0 0 0 0 0 0 0 0 0 0 0 0 0 0 0 0 0 0 0 0 0 0 0 0 0 0 0 0 0 0 0 0 0 0 0 0 0 0 5.7-5.7 5.7 5.7c26.3 26.3 71.2 7.7 71.2-29.5zM224 224a16 16 0 1 0 0-32 16 16 0 1 0 0 32zm80 48a16 16 0 1 0 -32 0 16 16 0 1 0 32 0z"/></svg>