<svg xmlns="http://www.w3.org/2000/svg" viewBox="0 0 576 512"><!--! Font Awesome Pro 6.5.1 by @fontawesome - https://fontawesome.com License - https://fontawesome.com/license (Commercial License) Copyright 2023 Fonticons, Inc. --><path d="M200 0h-8V8 64H104 96v8V229.7L13.5 256.4 2.7 259.9l7 9 112 144 12.6-9.8-105-135L280 187V376v8h16v-8V187l250.7 81.1-105 135 12.6 9.8 112-144 7-9-10.9-3.5L480 229.7V72 64h-8H384V8 0h-8H200zM368 64H208V16H368V64zM192 80h8H376h8 80V224.5L290.5 168.4l-2.5-.8-2.5 .8L112 224.5V80h80zM96 426l-.6 .9c-4.3 6.1-8.5 12.2-13.3 17.9c-4.8 5.8-11.8 13.5-20.2 21.2C44.6 481.8 22.5 496 0 496v16c28.7 0 54.6-17.8 72.6-34.1c10.2-9.2 18.2-18.4 23.4-24.8c5.2 6.4 13.3 15.6 23.4 24.8c18 16.3 43.9 34.1 72.6 34.1s54.6-17.8 72.6-34.1c10.2-9.2 18.2-18.4 23.4-24.8c5.2 6.4 13.3 15.6 23.4 24.8c18 16.3 43.9 34.1 72.6 34.1s54.6-17.8 72.6-34.1c10.2-9.2 18.2-18.4 23.4-24.8c5.2 6.4 13.3 15.6 23.4 24.8c18 16.3 43.9 34.1 72.6 34.1V496c-22.5 0-44.6-14.2-61.8-29.9c-8.5-7.7-15.4-15.4-20.2-21.2c-4.8-5.8-9-11.8-13.3-17.9l0 0-.6-.9-.6 .9c-4.3 6.1-8.5 12.2-13.3 17.9c-4.8 5.8-11.8 13.5-20.2 21.2C428.5 481.8 406.5 496 384 496s-44.6-14.2-61.8-29.9c-8.5-7.7-15.4-15.4-20.2-21.2c-4.8-5.8-9-11.8-13.3-17.9l-.6-.9-.6 .9 0 0c-4.3 6.1-8.5 12.2-13.3 17.9c-4.8 5.8-11.8 13.5-20.2 21.2C236.5 481.8 214.5 496 192 496s-44.6-14.2-61.8-29.9c-8.5-7.7-15.4-15.4-20.2-21.2c-4.8-5.8-9-11.8-13.3-17.9L96 426z"/></svg>