<svg xmlns="http://www.w3.org/2000/svg" viewBox="0 0 640 512"><!--! Font Awesome Pro 6.5.1 by @fontawesome - https://fontawesome.com License - https://fontawesome.com/license (Commercial License) Copyright 2023 Fonticons, Inc. --><path d="M166.3 0h-2.9l-2.2 1.8L141.3 18.1l-78.2 64L7.4 127.7l-6.2 5.1 5.1 6.2L97.5 250.4l5.1 6.2 6.2-5.1 51.3-42V504v8h8H472h8v-8V209.5l51.3 42 6.2 5.1 5.1-6.2 91.2-111.4 5.1-6.2-6.2-5.1L576.9 82.1l-78.2-64L478.8 1.8 476.6 0h-2.9H448 416h-8-8H240h-8-8H192 166.3zM224 16h.3c4.1 49.3 45.3 88 95.7 88s91.6-38.7 95.7-88h.3 32 22.8l17.7 14.5 78.2 64L616.3 135l-81.1 99.1-49.5-40.5-8.6-7.1L464 175.8v16.9V496H176V192.7 175.8l-13.1 10.7-8.6 7.1-49.5 40.5L23.7 135 73.3 94.5l78.2-64L169.2 16H192h32zm16.4 0H399.6c-4 40.4-38.1 72-79.6 72s-75.6-31.6-79.6-72z"/></svg>