<svg xmlns="http://www.w3.org/2000/svg" viewBox="0 0 640 512"><!--! Font Awesome Pro 6.5.1 by @fontawesome - https://fontawesome.com License - https://fontawesome.com/license (Commercial License) Copyright 2023 Fonticons, Inc. --><path d="M115.6 0h-4.7l-2.3 4.1L94.9 29 6.9 189 1 199.8l-1 1.8v2.1V216 408v8H8h96 8v-8V230.4l48-87.3V504v8h8H472h8v-8V143.1l48 87.3V408v8h8 96 8v-8V216 203.7v-2.1l-1-1.8L633.1 189l-88-160L531.4 4.1 529.1 0h-4.7H496 472 448 400 240 192 168 144 115.6zM109 36.7L120.3 16H144h24 24 33.3c7.6 45.4 47.1 80 94.7 80s87.1-34.6 94.7-80H448h24 24 23.7L531 36.7l88 160 5 9V216 400H544V228.3v-2.1l-1-1.8L479 108.1 464 112V496H176V112l-15-3.9L97 224.5l-1 1.8v2.1V400H16V216 205.7l5-9 88-160zM398.4 16C391 52.5 358.7 80 320 80s-71-27.5-78.4-64H398.4z"/></svg>