<svg xmlns="http://www.w3.org/2000/svg" viewBox="0 0 384 512"><!--! Font Awesome Pro 6.5.1 by @fontawesome - https://fontawesome.com License - https://fontawesome.com/license (Commercial License) Copyright 2023 Fonticons, Inc. --><path d="M48 0h8 48 8V8 80c0 44.2 35.8 80 80 80s80-35.8 80-80V8 0h8 48 8V8 134.5L383.4 253l.6 1.4V256 504v8h-8H8 0v-8V256v-1.5L.6 253 48 134.5V8 0zM64 16V136v1.5l-.6 1.4L16 257.5V496H368V257.5L320.6 139l-.6-1.4V136 16H288V80c0 53-43 96-96 96s-96-43-96-96V16H64z"/></svg>