<svg xmlns="http://www.w3.org/2000/svg" viewBox="0 0 384 512"><!--! Font Awesome Pro 6.5.1 by @fontawesome - https://fontawesome.com License - https://fontawesome.com/license (Commercial License) Copyright 2023 Fonticons, Inc. --><path d="M56 0H48V8 134.5L.6 253 0 254.5V256 504v8H8 376h8v-8V256v-1.5l-.6-1.4L336 134.5V8 0h-8H280h-8V8 80c0 44.2-35.8 80-80 80s-80-35.8-80-80V8 0h-8H56zm8 136V16H96V80c0 53 43 96 96 96s96-43 96-96V16h32V136v1.5l.6 1.4 11.9 29.7-1.2 .9L16 406V257.5L63.4 139l.6-1.4V136zM16 426l4.8-3.6L338.6 184l14.7 36.9-6.2 4.7-315 240L16 477.9V426zM359.5 236.3l8.5 21.2V496H18.7l23.1-17.6 315-240 2.7-2z"/></svg>