<svg xmlns="http://www.w3.org/2000/svg" viewBox="0 0 512 512"><!--! Font Awesome Pro 6.5.1 by @fontawesome - https://fontawesome.com License - https://fontawesome.com/license (Commercial License) Copyright 2023 Fonticons, Inc. --><path d="M352 88c0-39.8 32.2-72 72-72s72 32.2 72 72c0 16.2-5.4 31.2-14.4 43.2l-4.8 6.4 12.8 9.6 4.8-6.4c11-14.7 17.6-33 17.6-52.8c0-48.6-39.4-88-88-88s-88 39.4-88 88c0 21.4 7.7 41.1 20.4 56.3l-42 42L264 136l-20.7-20.7L232 104l-11.3 11.3-73.4 73.4L136 200l11.3 11.3L168 232 280 344l20.7 20.7L312 376l11.3-11.3 73.4-73.4L408 280l-11.3-11.3L376 248l-50.3-50.3 47.4-47.4 5.7-5.7-5.7-5.7c-13-13-21.1-31-21.1-50.9zM101.7 421.7L152 472l20.7 20.7L184 504l11.3-11.3 81.4-81.4L288 400l-11.3-11.3L256 368 144 256l-20.7-20.7L112 224l-11.3 11.3L19.3 316.7 8 328l11.3 11.3L40 360l50.3 50.3-88 88L-3.3 504 8 515.3l5.7-5.7 88-88zm77.7-201L158.6 200 232 126.6l20.7 20.7 112 112L385.4 280 312 353.4l-20.7-20.7-112-112zm-128 128L30.6 328 112 246.6l20.7 20.7 112 112L265.4 400 184 481.4l-20.7-20.7-112-112z"/></svg>