<svg xmlns="http://www.w3.org/2000/svg" viewBox="0 0 640 512"><!--! Font Awesome Pro 6.5.1 by @fontawesome - https://fontawesome.com License - https://fontawesome.com/license (Commercial License) Copyright 2023 Fonticons, Inc. --><path d="M327.2 145.7l-3.4-1.7H320 272V45.6L446.7 16.4 624 75.5v88L449.9 207 327.2 145.7zM256 160h16 48l128 64 192-48V64L448 0 256 32V144v16zM199.2 366.3L321.9 305 496 348.5v88L318.7 495.6 144 466.4V368h48 3.8l3.4-1.7zM128 352v16V480l192 32 192-64V336L320 288 192 352H144 128zM0 352v8V472v8H8 96V464H16V368H96V352H8 0zM136 160h88V144H144V48h80V32H136h-8v8V152v8h8z"/></svg>