<svg xmlns="http://www.w3.org/2000/svg" viewBox="0 0 640 512"><!--! Font Awesome Pro 6.5.1 by @fontawesome - https://fontawesome.com License - https://fontawesome.com/license (Commercial License) Copyright 2023 Fonticons, Inc. --><path d="M624 224h16V208 176L544 0H111.9l20.3 16H534.5L624 180.1V208H375.4l20.3 16H560V353.7l16 12.6V224h48zM0 176v32 16H16 64V504v8h8H376h8v-8V398.3l-16-12.6V496H80V224h83.3L143 208H16V180.1l27.6-50.6L30.8 119.5 0 176zM304 368H144V256H128V376v8h8H312h8v-8V347.7l-16-12.6V368zM16.2 5L9.9 0 0 12.5l6.3 5L623.8 507l6.3 5 9.9-12.5-6.3-5L16.2 5z"/></svg>