<svg xmlns="http://www.w3.org/2000/svg" viewBox="0 0 640 512"><!--! Font Awesome Pro 6.5.1 by @fontawesome - https://fontawesome.com License - https://fontawesome.com/license (Commercial License) Copyright 2023 Fonticons, Inc. --><path d="M80 224H426.8c2.7-5.6 5.8-11 9.3-16H16V180.1L105.5 16h429L624 180.1V208h-4.1c3.5 5 6.6 10.4 9.3 16H640V208 176L544 0H96L0 176v32 16H16 64V504c0 4.4 3.6 8 8 8H376c4.4 0 8-3.6 8-8V256H368V496H80V224zm48 136c0 13.3 10.7 24 24 24H296c13.3 0 24-10.7 24-24V256H304V360c0 4.4-3.6 8-8 8H152c-4.4 0-8-3.6-8-8V256H128V360zM528 208c26.5 0 48 21.5 48 48v64H480V256c0-26.5 21.5-48 48-48zm-64 48v64H432 416v16V496v16h16H624h16V496 336 320H624 592V256c0-35.3-28.7-64-64-64s-64 28.7-64 64zm-32 80h32 16 96 16 32V496H432V336z"/></svg>