<svg xmlns="http://www.w3.org/2000/svg" viewBox="0 0 512 512"><!--! Font Awesome Pro 6.5.1 by @fontawesome - https://fontawesome.com License - https://fontawesome.com/license (Commercial License) Copyright 2023 Fonticons, Inc. --><path d="M8 32H0v8V472v8H16v-8V48h84.7l53.7 53.7 1 1c-38.2 44-36.4 110.7 5.5 152.5l18.3 18.3-16.8 16.8-5.7 5.7L168 307.3l5.7-5.7 192-192 5.7-5.7L360 92.7l-5.7 5.7-16.8 16.8L319.2 96.8C277.4 55 210.7 53.1 166.7 91.3l-1-1-56-56L107.3 32H104 8zm318.2 94.5L190.5 262.2l-18.3-18.3c-37.5-37.5-37.5-98.3 0-135.8s98.3-37.5 135.8 0l18.3 18.3zM416 208a16 16 0 1 0 -32 0 16 16 0 1 0 32 0zm-80 80a16 16 0 1 0 0-32 16 16 0 1 0 0 32zm-48 48a16 16 0 1 0 -32 0 16 16 0 1 0 32 0zm80 48a16 16 0 1 0 0-32 16 16 0 1 0 0 32zm-64 64a16 16 0 1 0 0-32 16 16 0 1 0 0 32zM432 320a16 16 0 1 0 0-32 16 16 0 1 0 0 32zm80-80a16 16 0 1 0 -32 0 16 16 0 1 0 32 0z"/></svg>