<svg xmlns="http://www.w3.org/2000/svg" viewBox="0 0 512 512"><!--! Font Awesome Pro 6.5.1 by @fontawesome - https://fontawesome.com License - https://fontawesome.com/license (Commercial License) Copyright 2023 Fonticons, Inc. --><path d="M80 16V192H432V70.6L377.4 16H80zM448 192h48 16v16V368v16H496 16 0V368 208 192H16 64V16 0H80 384l64 64V192zM16 208V368H496V208H16zM56 416H72v88 8H56v-8V416zm96 0h16v88 8H152v-8V416zm96 0h16v88 8H248v-8V416zm96 0h16v88 8H344v-8V416zm96 0h16v88 8H440v-8V416zm8-128H416V256h32v32z"/></svg>