<svg xmlns="http://www.w3.org/2000/svg" viewBox="0 0 512 512"><!--! Font Awesome Pro 6.5.1 by @fontawesome - https://fontawesome.com License - https://fontawesome.com/license (Commercial License) Copyright 2023 Fonticons, Inc. --><path d="M0 32H8 440h8V48h-8H16v80H336c97.2 0 176 78.8 176 176s-78.8 176-176 176H288h-8H232 207l20.3-14.5L275 431.4l-48.2-41.4-20.5-17.6 26.8 3.6 110.6 14.7c5.4 .7 10.8 .5 16.2-.5c14.1-2.8 24.2-15.2 24.2-29.6V356c0-19.9-16.1-36-36-36H240c-97.2 0-176-78.8-176-176H8 0v-8V40 32zM240 304H348c28.7 0 52 23.3 52 52v4.8c0 22-15.5 40.9-37.1 45.2c-7 1.4-14.3 1.6-21.4 .7l-83.8-11.2 35.5 30.4 7.8 6.6-8.3 5.9L257 464h23 8 48c2.7 0 5.4-.1 8-.2V432v-8h16v8 30.2c46.8-7 87-34.3 111.3-72.7l-41.8-13.9-7.6-2.5 5.1-15.2 7.6 2.5 44.7 14.9C490 353.8 496 329.6 496 304c0-24.7-5.6-48.2-15.6-69.1l-42.7 42.7-5.7 5.7L420.7 272l5.7-5.7 46-46C444.2 174.5 393.7 144 336 144V248v8H320v-8V144H80c0 88.4 71.6 160 160 160zM192 176a16 16 0 1 1 0 32 16 16 0 1 1 0-32z"/></svg>