<svg xmlns="http://www.w3.org/2000/svg" viewBox="0 0 512 512"><!--! Font Awesome Pro 6.5.1 by @fontawesome - https://fontawesome.com License - https://fontawesome.com/license (Commercial License) Copyright 2023 Fonticons, Inc. --><path d="M410.3 458.3l-5.7 5.7L416 475.3l5.7-5.7 80-80 5.7-5.7-5.7-5.7-80-80-5.7-5.7L404.7 304l5.7 5.7L476.7 376H324L134.4 123.2 132 120h-4H8 0v16H8 124L313.6 388.8 316 392h4H476.7l-66.3 66.3zM134.4 388.8L204 296l-10-13.3L124 376H8 0v16H8 128h4l2.4-3.2zM254 229.3L324 136H476.7l-66.3 66.3-5.7 5.7L416 219.3l5.7-5.7 80-80 5.7-5.7-5.7-5.7-80-80L416 36.7 404.7 48l5.7 5.7L476.7 120H320h-4l-2.4 3.2L244 216l10 13.3z"/></svg>