<svg xmlns="http://www.w3.org/2000/svg" viewBox="0 0 512 512"><!--! Font Awesome Pro 6.5.1 by @fontawesome - https://fontawesome.com License - https://fontawesome.com/license (Commercial License) Copyright 2023 Fonticons, Inc. --><path d="M496 48V80H16V48H496zM16 32H0V48 80 96H16 496h16V80 48 32H496 16zm8 96L6 176 0 192H17.1 494.9 512l-6-16-18-48H470.9l18 48H23.1l18-48H24zM6 272L0 288H17.1 494.9 512l-6-16-18-48H470.9l18 48H23.1l18-48H24L6 272zm18 48L6 368 0 384H17.1 494.9 512l-6-16-18-48H470.9l18 48H23.1l18-48H24zM6 464L0 480H17.1 494.9 512l-6-16-18-48H470.9l18 48H23.1l18-48H24L6 464z"/></svg>