<svg xmlns="http://www.w3.org/2000/svg" viewBox="0 0 640 512"><!--! Font Awesome Pro 6.5.1 by @fontawesome - https://fontawesome.com License - https://fontawesome.com/license (Commercial License) Copyright 2023 Fonticons, Inc. --><path d="M405.3 352L192 480H48 32V464 384H8 0v-8V136v-8H8 32V48 32H48 192L405.3 160H456c66.8 0 134.7 38.3 174.4 91.2L634 256l-3.6 4.8C590.7 313.7 522.8 352 456 352H405.3zm-31.1 0H185.4L136 370v94h51.6L374.2 352zM98.7 383.5l-1.3 .5H96 48v80h72V375.8l-21.3 7.7zM374.2 160L187.6 48H136v94l49.4 18H374.2zM48 48v80H96h1.4l1.3 .5 21.3 7.7V48H48zM16 248H184h8v16h-8H16V368H94.6l86.7-31.5 1.3-.5H184 456c59.2 0 120.4-33.1 157.9-80c-37.5-46.9-98.7-80-157.9-80H184h-1.4l-1.3-.5L94.6 144H16V248zm480-32v80H480V216h16z"/></svg>