<svg xmlns="http://www.w3.org/2000/svg" viewBox="0 0 512 512"><!--! Font Awesome Pro 6.5.1 by @fontawesome - https://fontawesome.com License - https://fontawesome.com/license (Commercial License) Copyright 2023 Fonticons, Inc. --><path d="M224 0h-5l-2.2 4.5L93.8 258.2l-9.1 9.1L33.1 318.9C11.9 340.1 0 368.9 0 398.9C0 461.3 50.7 512 113.1 512c30 0 58.8-11.9 80-33.1l51.5-51.5 9.1-9.1 253.7-123L512 293v-5V216v-8h-8H416V104 96h-8H304V8 0h-8H224zM330 363.5l-85.2 41.3-.1-.1-63-63L260.3 263l137.1-43.3L330 363.5zM292.3 114.6L249 251.7l-78.6 78.6-63-63-.1-.1L148.5 182l143.8-67.5zM288 98.9L159.6 159.2 229 16h59V98.9zM268.3 243.7L309.9 112H400v90.1L268.3 243.7zM53 321.7l43-43L233.4 416l-43 43L53 321.7zM179 470.3c-17.9 16.5-41.4 25.7-65.8 25.7C59.5 496 16 452.5 16 398.9c0-24.4 9.2-47.9 25.7-65.8L179 470.3zM352.8 352.4L413.1 224H496v59L352.8 352.4z"/></svg>