<svg xmlns="http://www.w3.org/2000/svg" viewBox="0 0 640 512"><!--! Font Awesome Pro 6.5.1 by @fontawesome - https://fontawesome.com License - https://fontawesome.com/license (Commercial License) Copyright 2023 Fonticons, Inc. --><path d="M16.2 5L9.9 0 0 12.5l6.3 5L623.8 507l6.3 5 9.9-12.5-6.3-5L16.2 5zM345.7 368H328h-8v16h8 37.9l-20.3-16zM454 181.6l-37 59.2 12.6 10 49.1-78.6L490 154.4l-20.2 6L357.1 193.6l15.4 12.1L454 181.6zM304 135.9V120c0-48.6-39.4-88-88-88c-17.1 0-33.1 4.9-46.6 13.4L182.9 56c9.9-5.1 21.2-8 33.1-8c39.8 0 72 32.2 72 72v15.9c0 1 0 2.1 0 3.1l15.8 12.5c.2-5.2 .2-10.4 .2-15.6zM117.7 264.3L112 266v6V472v8h8 72 4.8l2.3-4.3 39.7-74.9c14.9-28.2 27.2-57.8 36.8-88.2L262 302c-9.4 31.6-22 62.2-37.4 91.3L187.2 464H128V278l75.4-22.3L188 243.6l-70.3 20.8zM632 384h8V368h-8H578.1l20.3 16H632zm-64-80c4.4 0 8-3.6 8-8s-3.6-8-8-8H476.7L497 304h71zM8 368H0v16H8 56h8V368H56 8z"/></svg>