<svg xmlns="http://www.w3.org/2000/svg" viewBox="0 0 640 512"><!--! Font Awesome Pro 6.5.1 by @fontawesome - https://fontawesome.com License - https://fontawesome.com/license (Commercial License) Copyright 2023 Fonticons, Inc. --><path d="M80 0l0 32H16 0V48 400v16H16 80l0 96H96l0-96H348.5c-3.4-5.2-6.5-10.5-9.3-16H16V48H560V160h16V48 32H560 496l0-32H480l0 32H96L96 0H80zM431.9 192h-2l-1.8 .9C382.9 217.2 352 265 352 320c0 46.4 21.9 87.7 56 114v70 8h16v-8V430v-4.1l-3.3-2.4c-32-23.3-52.7-61-52.7-103.5c0-48.2 26.6-90.2 66-112h6v80 3.3l2.3 2.3 48 48 5.7 5.7 5.7-5.7 48-48 2.3-2.3V288 208h6c39.4 21.8 66 63.8 66 112c0 42.5-20.7 80.2-52.7 103.5l-3.3 2.4V430v74 8h16v-8V434c34.1-26.3 56-67.6 56-114c0-55-30.9-102.8-76.2-127.1l-1.8-.9h-2H544h-8v8 84.7l-40 40-40-40V200v-8h-8H431.9z"/></svg>