<svg xmlns="http://www.w3.org/2000/svg" viewBox="0 0 640 512"><!--! Font Awesome Pro 6.5.1 by @fontawesome - https://fontawesome.com License - https://fontawesome.com/license (Commercial License) Copyright 2023 Fonticons, Inc. --><path d="M144 120c0-39.8 32.2-72 72-72s72 32.2 72 72v15.9c0 26.8-2.1 53.6-6.4 80L117.7 264.3 112 266v6V472v8h8 72 4.8l2.3-4.3 39.7-74.9c21.8-41.2 37.9-85 48-130.5l4.8-21.8c1.5-6.7 2.8-13.4 4.1-20.1L454 181.6 385.2 291.8 377.6 304H392 568c4.4 0 8-3.6 8-8s-3.6-8-8-8H406.4l72.3-115.8L490 154.4l-20.2 6L298.6 210.9c3.6-24.8 5.4-49.9 5.4-75V120c0-48.6-39.4-88-88-88s-88 39.4-88 88v40c0 4.4 3.6 8 8 8s8-3.6 8-8V120zM128 278l150.4-44.4c-.8 3.8-1.6 7.7-2.4 11.5l-4.8 21.8c-9.8 44.1-25.5 86.6-46.6 126.5L187.2 464H128V278zM8 368H0v16H8 56h8V368H56 8zm320 0h-8v16h8H632h8V368h-8H328z"/></svg>