<svg xmlns="http://www.w3.org/2000/svg" viewBox="0 0 640 512"><!--! Font Awesome Pro 6.5.1 by @fontawesome - https://fontawesome.com License - https://fontawesome.com/license (Commercial License) Copyright 2023 Fonticons, Inc. --><path d="M512 315.8l16 12.6V16h64V379l16 12.6V16 0H592 528 512V16 315.8zm-64-50.5V144 128H432 368 352v16 45.5l16 12.6V144h64V252.7l16 12.6zM352 373V496v16h16 64 16V496 448.8l-16-12.6V496H368V385.6L352 373zM203.8 256H192v16V496v16h16 64 16V496 322.5l-16-12.6V496H208V272h16.1l-20.3-16zM112 400v96H48V400h64zM48 384H32v16 96 16H48h64 16V496 400 384H112 48zM16.2 5L9.9 0 0 12.5l6.3 5L623.8 507l6.3 5 9.9-12.5-6.3-5L16.2 5z"/></svg>