<svg xmlns="http://www.w3.org/2000/svg" viewBox="0 0 640 512"><!--! Font Awesome Pro 6.5.1 by @fontawesome - https://fontawesome.com License - https://fontawesome.com/license (Commercial License) Copyright 2023 Fonticons, Inc. --><path d="M104 48c-39.8 0-72 32.2-72 72v40 8H16v-8V120c0-48.6 39.4-88 88-88s88 39.4 88 88v15.9c0 25.1-1.8 50.2-5.4 75l171.2-50.6 20.2-6-11.2 17.9L294.4 288H376h8v16h-8H280 265.6l7.6-12.2L342 181.6 183.7 228.4c-1.2 6.7-2.6 13.4-4.1 20.1l-4.8 21.8c-10.1 45.5-26.3 89.3-48 130.5L87.1 475.7 84.8 480H80 8 0v-8V272v-6l5.7-1.7 163.9-48.4c4.3-26.5 6.4-53.2 6.4-80V120c0-39.8-32.2-72-72-72zm62.4 185.5L16 278V464H75.2l37.4-70.7c21.1-39.9 36.8-82.4 46.6-126.5l4.8-21.8c.9-3.8 1.7-7.7 2.4-11.5zM208 368h8H376h8v16h-8H216h-8V368zM528 208c-26.5 0-48 21.5-48 48v64h96V256c0-26.5-21.5-48-48-48zm-64 48c0-35.3 28.7-64 64-64s64 28.7 64 64v64h32 16v16V496v16H624 432 416V496 336 320h16 32V256zm-32 80V496H624V336H592 576 480 464 432z"/></svg>