<svg xmlns="http://www.w3.org/2000/svg" viewBox="0 0 640 512"><!--! Font Awesome Pro 6.5.1 by @fontawesome - https://fontawesome.com License - https://fontawesome.com/license (Commercial License) Copyright 2023 Fonticons, Inc. --><path d="M584 8V0H568V8 360.1l16 12.6V8zM456 455.1l-16-12.6V504v8h16v-8V455.1zM328 354l-16-12.6V504v8h16v-8V354zM440 104V259l16 12.6V104 96H440v8zM200 288H184v8V504v8h16v-8V296v-8zM72 384H56v8V504v8H72v-8V392v-8zM16.2 5L9.9 0 0 12.5l6.3 5L623.8 507l6.3 5 9.9-12.5-6.3-5L16.2 5z"/></svg>