<svg xmlns="http://www.w3.org/2000/svg" viewBox="0 0 384 512"><!--! Font Awesome Pro 6.5.1 by @fontawesome - https://fontawesome.com License - https://fontawesome.com/license (Commercial License) Copyright 2023 Fonticons, Inc. --><path d="M16 16V496H368V134.6L249.4 16H16zM256 0L384 128V496v16H368 16 0V496 16 0H16 256zM80 288v64h72 80 72V288H232 152 80zm160 80v64h64V368H240zm80 80H304 240h-8-8H160h-8-8H80 64V432 208 192H80h64 8 8 64 8 8 64 16v16V432v16zM240 208v64h64V208H240zm-80 0v64h64V208H160zm-16 0H80v64h64V208zm0 224V368H80v64h64zm16 0h64V368H160v64z"/></svg>