<svg xmlns="http://www.w3.org/2000/svg" viewBox="0 0 448 512"><!--! Font Awesome Pro 6.5.1 by @fontawesome - https://fontawesome.com License - https://fontawesome.com/license (Commercial License) Copyright 2023 Fonticons, Inc. --><path d="M96 416V16H313.4L432 134.6V416H96zM448 128L320 0H96 80V16 416v16H96 432h16V416 128zM48 80H16 0V96 496v16H16 352h16V496 464H352v32H16V96H48V80zm112 64h-8v8 64 64 64 8h8 64 80 64 8v-8V280 216 152v-8h-8H304 224 160zm8 64V160h48v48H168zm64 0V160h64v48H232zm80 0V160h48v48H312zm-8 16h56v48H304 224 168V224h56 80zm8 64h48v48H312V288zm-16 0v48H232V288h64zm-80 0v48H168V288h48z"/></svg>