<svg xmlns="http://www.w3.org/2000/svg" viewBox="0 0 512 512"><!--! Font Awesome Pro 6.5.1 by @fontawesome - https://fontawesome.com License - https://fontawesome.com/license (Commercial License) Copyright 2023 Fonticons, Inc. --><path d="M264 72c0-30.9 25.1-56 56-56s56 25.1 56 56v48 8h16v-8V72c0-39.8-32.2-72-72-72s-72 32.2-72 72V288H144V232v-8h-8H40 32v16h8 88v48H8 0v8 48 8H8 504h8v-8V296v-8h-8H384V240h88 8V224h-8H376h-8v8 56H264V72zM16 304H128h16H248h16H368h16H496v32H16V304zm16 80v24c0 57.4 46.6 104 104 104H376c57.4 0 104-46.6 104-104V384H464v24c0 48.6-39.4 88-88 88H136c-48.6 0-88-39.4-88-88V384H32z"/></svg>