<svg xmlns="http://www.w3.org/2000/svg" viewBox="0 0 640 512"><!--! Font Awesome Pro 6.5.1 by @fontawesome - https://fontawesome.com License - https://fontawesome.com/license (Commercial License) Copyright 2023 Fonticons, Inc. --><path d="M44.1 33.1l80 48 6.9 4.1L122.7 99l-6.9-4.1-80-48L29 42.7 37.3 29l6.9 4.1zm560 13.7l-80 48L517.3 99 509 85.3l6.9-4.1 80-48 6.9-4.1L611 42.7l-6.9 4.1zM8 192H88h8v16H88 8 0V192H8zm544 0h80 8v16h-8H552h-8V192h8zM464 96l28 224H475.9l-26-208H190.1l-26 208H148L176 96H464zM245 160L225 320H208.9l20-160H245zM528 368H112v96H528V368zM112 352H528h16v16 96 16H528 112 96V464 368 352h16z"/></svg>