<svg xmlns="http://www.w3.org/2000/svg" viewBox="0 0 512 512"><!--! Font Awesome Pro 6.5.1 by @fontawesome - https://fontawesome.com License - https://fontawesome.com/license (Commercial License) Copyright 2023 Fonticons, Inc. --><path d="M264 0V8 80H416h8V96h-8H264v80H480h8v16h-8H264v80H384h8v16h-8H264v77.7L368 336h64 16v16 88l-64 72H128L64 440V352 336H80h64l104 29.7V288H128h-8V272h8H248V192H32 24V176h8H248V96H96 88V80h8H248V8 0h16zm0 384h-5.8l-2.2 .6-2.2-.6H248v-1.6L141.8 352H80v81.9L135.2 496H376.8L432 433.9V352H370.2L264 382.4V384zm-96 48a16 16 0 1 0 32 0 16 16 0 1 0 -32 0zm16 32a32 32 0 1 1 0-64 32 32 0 1 1 0 64zm136-32a16 16 0 1 0 32 0 16 16 0 1 0 -32 0zm16 32a32 32 0 1 1 0-64 32 32 0 1 1 0 64z"/></svg>