<svg xmlns="http://www.w3.org/2000/svg" viewBox="0 0 512 512"><!--! Font Awesome Pro 6.5.1 by @fontawesome - https://fontawesome.com License - https://fontawesome.com/license (Commercial License) Copyright 2023 Fonticons, Inc. --><path d="M369.6 0l-7.1 32H96 89.4l-1.2 6.5-88 464L-1.7 512H8 472h32 8V496h-8H480V360v-5.4l-5-2L321.3 291.1 386 0H369.6zM201.8 48H358.9l-32 144H256h-8v16h8 67.4l-17.8 80H224h-8v16h8 86.5L464 365.4V496H17.7l41-216h90.2 6.6l1.3-6.4L201.8 48zm-16.3 0L142.2 264H61.7l41-216h82.8z"/></svg>