<svg xmlns="http://www.w3.org/2000/svg" viewBox="0 0 640 512"><!--! Font Awesome Pro 6.5.1 by @fontawesome - https://fontawesome.com License - https://fontawesome.com/license (Commercial License) Copyright 2023 Fonticons, Inc. --><path d="M385.3 0l-5.7 32H160h-6.6l-1.3 6.5-72 368L78.3 416H88 472h8v-8V288v-5.1l-4.6-2.2L361 227.4 401.6 0H385.3zM259.2 48H376.7l-20 112H296h-8v16h8 57.9l-8.6 48H280h-8v16h8 70.2L464 293.1V400H97.7L129 240h7 76.7 6.5l1.3-6.4L258.7 50.1l.4-2.1zm-16.3 0L206.2 224H136h-3.8L166.6 48h76.2zM640 424v-8H624v8 72H8 0v16H8 632h8v-8V424z"/></svg>