<svg xmlns="http://www.w3.org/2000/svg" viewBox="0 0 640 512"><!--! Font Awesome Pro 6.5.1 by @fontawesome - https://fontawesome.com License - https://fontawesome.com/license (Commercial License) Copyright 2023 Fonticons, Inc. --><path d="M17.4 86.2c-.9 5.6-1.4 11.3-1.4 17V120c0 57.4 46.6 104 104 104h40V160H97c-41 0-75.4-31.1-79.5-71.9c-.1-.6-.1-1.2-.2-1.8zM97 144h63V112 96h16H464h16v16 32h63c32.8 0 60.3-24.9 63.5-57.5c.9-9-.1-18-3-26.5L592.4 26.5 606.2 19l7.5 9.3c17 21.3 26.3 47.7 26.3 75V120c0 66.3-53.7 120-120 120H480V368v16H464 414.4L376 512H264L225.6 384H176 160V368 240H120C53.7 240 0 186.3 0 120V103.3C0 76 9.3 49.6 26.3 28.3L33.8 19l13.8 7.5L36.4 59.9c-2.8 8.5-3.9 17.6-3 26.5C36.8 119.1 64.2 144 97 144zm383 80h40c57.4 0 104-46.6 104-104V103.3c0-5.7-.5-11.4-1.4-17c0 .6-.1 1.2-.2 1.8C618.3 128.9 584 160 543 160H480v64zm-16-64V144 112H176v32 16V368h49.6 11.9l3.4 11.4 35 116.6h88.2l35-116.6 3.4-11.4h11.9H464V160zM256 232a24 24 0 1 0 0 48 24 24 0 1 0 0-48zm40 24a40 40 0 1 1 -80 0 40 40 0 1 1 80 0zm64 0a24 24 0 1 0 48 0 24 24 0 1 0 -48 0zm24 40a40 40 0 1 1 0-80 40 40 0 1 1 0 80z"/></svg>