<svg xmlns="http://www.w3.org/2000/svg" viewBox="0 0 640 512"><!--! Font Awesome Pro 6.5.1 by @fontawesome - https://fontawesome.com License - https://fontawesome.com/license (Commercial License) Copyright 2023 Fonticons, Inc. --><path d="M8 32H0V48H8 32V256c0 70.7 57.3 128 128 128v80H40 32v16h8H632h8v-8V392v-8H624v8 72H432V384h16c70.7 0 128-57.3 128-128V112h24 8V96h-8H576 560h-8-8H480 464v16V224v16H448 407c-83.1 0-159.6-45.7-199-118.9C178.4 66.2 121.1 32 58.8 32H56 48 32 8zM416 464H176V384H416v80zM552 112h8V256c0 61.9-50.1 112-112 112H160C98.1 368 48 317.9 48 256V48h8 2.8c56.5 0 108.4 31 135.2 80.7C236.1 207.1 318 256 407 256h57 16V240 112h64 8z"/></svg>