<svg xmlns="http://www.w3.org/2000/svg" viewBox="0 0 512 512"><!--! Font Awesome Pro 6.5.1 by @fontawesome - https://fontawesome.com License - https://fontawesome.com/license (Commercial License) Copyright 2023 Fonticons, Inc. --><path d="M104 0V8 96h40 16v16 96 16H144 104V504v8H88v-8V224H48 32V208 112 96H48 88V8 0h16zM88 208h16 40V112H104 88 48v96H88zM264 0V8 288h40 16v16 96 16H304 264v88 8H248v-8V416H208 192V400 304 288h16 40V8 0h16zm0 400h40V304H264 248 208v96h40 16zM424 8V128h40 16v16 96 16H464 424V504v8H408v-8V256H368 352V240 144 128h16 40V8 0h16V8zM408 240h16 40V144H424 408 368v96h40z"/></svg>