<svg xmlns="http://www.w3.org/2000/svg" viewBox="0 0 640 512"><!--! Font Awesome Pro 6.5.1 by @fontawesome - https://fontawesome.com License - https://fontawesome.com/license (Commercial License) Copyright 2023 Fonticons, Inc. --><path d="M432 416H80l0 80 304 0h48V416zm-48 96L80 512H64V496 416H16 0V400 112 96H16 64V16 0H80 432h16V16 96h48 16v16V400v16H496 448v80H584V223.3c-22.7-3.8-40-23.6-40-47.3c0-26.5 21.5-48 48-48s48 21.5 48 48c0 23.8-17.3 43.5-40 47.3V504v8h-8H448 432 384h0zM624 176a32 32 0 1 0 -64 0 32 32 0 1 0 64 0zM432 16L80 16V96H432V16zm64 96H16V400H496V112zM88 176h8 72 11.7l-4.2 10.9L117.5 336H100.3l56-144H96 88V176zM228.3 336l56-144H224h-8V176h8 72 11.7l-4.2 10.9L245.5 336H228.3zm128 0l56-144H352h-8V176h8 72 11.7l-4.2 10.9L373.5 336H356.3z"/></svg>