<svg xmlns="http://www.w3.org/2000/svg" viewBox="0 0 640 512"><!--! Font Awesome Pro 6.5.1 by @fontawesome - https://fontawesome.com License - https://fontawesome.com/license (Commercial License) Copyright 2023 Fonticons, Inc. --><path d="M176 0C96.5 0 32 64.5 32 144V280v8h8H176 299.3c22.6 19.9 52.2 32 84.7 32s62.1-12.1 84.7-32H496 600h8v-8V180v-4-1.7l0 0C607.1 113.2 557.3 64 496 64c-10.7 0-21 1.5-30.8 4.3C443.8 27.7 401.1 0 352 0c-32.6 0-62.5 12.2-85.1 32.3C242.2 12.1 210.5 0 176 0zM48 144C48 73.3 105.3 16 176 16c33 0 63.1 12.5 85.8 33l5.6 5.1 5.4-5.4C293.1 28.5 321.1 16 352 16c45.2 0 84.1 26.8 101.8 65.3l3.1 6.7 6.9-2.5C473.9 82 484.7 80 496 80c53 0 96 43 96 96c0 1.2 0 2.5-.1 3.7l-.2 5.9 .3 .1V272H496 465.6h-3.1l-2.3 2.1c-20 18.5-46.7 29.9-76.1 29.9s-56.2-11.3-76.1-29.9l-2.3-2.1h-3.1H176 48V144zM72 384H64v16h8H216h8V384h-8H72zm192 0h-8v16h8H632h8V384h-8H264zM8 496H0v16H8 376h8V496h-8H8zm416 0h-8v16h8H568h8V496h-8H424z"/></svg>