<svg xmlns="http://www.w3.org/2000/svg" viewBox="0 0 640 512"><!--! Font Awesome Pro 6.5.1 by @fontawesome - https://fontawesome.com License - https://fontawesome.com/license (Commercial License) Copyright 2023 Fonticons, Inc. --><path d="M448 0V43c0 46.7 18.5 91.4 51.5 124.5l21 21c15 15 23.4 35.4 23.4 56.6v43h16V245c0-25.5-10.1-49.9-28.1-67.9l-21-21C480.9 126.1 464 85.4 464 43V0H448zM640 288V245c0-46.7-18.5-91.4-51.5-124.5l-21-21C552.4 84.5 544 64.2 544 43V0H528V43c0 25.5 10.1 49.9 28.1 67.9l21 21c30 30 46.9 70.7 46.9 113.1v43h16zM0 352v16V496v16H16 224h16H496h16V496 368 352H496 240 224 16 0zM496 496H240V368H496V496zm-272 0H16V368H224V496zM640 360v-8H624v8V504v8h16v-8V360zm-80-8H544v8V504v8h16v-8V360v-8zm40 8v-8H584v8V504v8h16v-8V360z"/></svg>