<svg xmlns="http://www.w3.org/2000/svg" viewBox="0 0 448 512"><!--! Font Awesome Pro 6.5.1 by @fontawesome - https://fontawesome.com License - https://fontawesome.com/license (Commercial License) Copyright 2023 Fonticons, Inc. --><path d="M160 0h8H312h8V8v8 3.9l-3.1 2.4L181 128H312h8v16h-8H168h-8v-8-8-3.9l3.1-2.4L299 16H168h-8V0zM0 256H8 216h8v8 8 3.1l-2.1 2.3L18.9 496H216h8v16h-8H8 0v-8-8-3.1l2.1-2.3L205.1 272H8 0V256zm296-32H440h8v8 8 3.3l-2.3 2.3L307.3 384H440h8v16h-8H296h-8v-8-8-3.3l2.3-2.3L428.7 240H296h-8V224h8z"/></svg>