<svg xmlns="http://www.w3.org/2000/svg" viewBox="0 0 448 512"><!--! Font Awesome Pro 6.5.1 by @fontawesome - https://fontawesome.com License - https://fontawesome.com/license (Commercial License) Copyright 2023 Fonticons, Inc. --><path d="M80 16H368V176h16V16 0H368 80 64V16 176H80V16zM368 224h5.9c26.4 32.9 42.1 74.6 42.1 120c0 61.8-29.2 116.9-74.7 152H106.7C61.2 460.9 32 405.8 32 344c0-45.4 15.8-87.1 42.1-120H80 368zM8 208H0v16H8 54.1C30.1 257.9 16 299.3 16 344c0 69 33.6 130.2 85.3 168H346.7c51.7-37.8 85.3-99 85.3-168c0-44.7-14.1-86.1-38.1-120H440h8V208h-8H384 368 80 64 8zM144 320a16 16 0 1 0 0-32 16 16 0 1 0 0 32zm176-16a16 16 0 1 0 -32 0 16 16 0 1 0 32 0zm-97.2 16C197 320 176 341 176 366.8c0 7.3 1.7 14.4 4.9 20.9l35.9 71.8 7.2 14.3 7.2-14.3 35.9-71.8c3.3-6.5 4.9-13.7 4.9-20.9c0-25.9-21-46.8-46.8-46.8h-2.3zM192 366.8c0-17 13.8-30.8 30.8-30.8h2.3c17 0 30.8 13.8 30.8 30.8c0 4.8-1.1 9.5-3.3 13.8L224 438.1l-28.7-57.5c-2.1-4.3-3.3-9-3.3-13.8z"/></svg>