<svg xmlns="http://www.w3.org/2000/svg" viewBox="0 0 640 512"><!--! Font Awesome Pro 6.5.1 by @fontawesome - https://fontawesome.com License - https://fontawesome.com/license (Commercial License) Copyright 2023 Fonticons, Inc. --><path d="M128 0h8H320h4.8l2.2 4.3 96 184 3.7 7.1-14.2 7.4-3.7-7.1L315.2 16H144v88 8H128v-8V8 0zM537.9 234.8l88-104 12.2 10.3L552 242.9V397.1l86.1 101.8-12.2 10.3-88-104-1.9-2.2V400 320H446.4c20.7 20.3 33.6 48.7 33.6 80c0 61.9-50.1 112-112 112H112C50.1 512 0 461.9 0 400c0-44.7 26.2-83.2 64-101.2V152v-8h8 64 3.6l2.4 2.6L211.6 224H424h8v8 72H536V240v-2.9l1.9-2.2zM80 160V292.6c10.1-3 20.9-4.6 32-4.6H368c17.2 0 33.5 3.9 48 10.8V240H208h-3.6l-2.4-2.6L132.4 160H80zM368 304H112c-53 0-96 43-96 96s43 96 96 96H368c53 0 96-43 96-96s-43-96-96-96zm16 80a16 16 0 1 1 0 32 16 16 0 1 1 0-32zM80 400a16 16 0 1 1 32 0 16 16 0 1 1 -32 0zm112-16a16 16 0 1 1 0 32 16 16 0 1 1 0-32zm80 16a16 16 0 1 1 32 0 16 16 0 1 1 -32 0z"/></svg>