<svg xmlns="http://www.w3.org/2000/svg" viewBox="0 0 448 512"><!--! Font Awesome Pro 6.5.1 by @fontawesome - https://fontawesome.com License - https://fontawesome.com/license (Commercial License) Copyright 2023 Fonticons, Inc. --><path d="M232 8V0H216V8 108.7L165.7 58.3 160 52.7 148.7 64l5.7 5.7L216 131.3V242.1l-96-55.4L97.4 102.5l-2.1-7.7L79.9 98.9l2.1 7.7 18.4 68.8L20.2 129.1l-6.9-4-8 13.9 6.9 4 80.3 46.3L23.7 207.7l-7.7 2.1 4.1 15.5 7.7-2.1L112 200.6 208 256l-96 55.4L27.8 288.8l-7.7-2.1-4.1 15.5 7.7 2.1 68.8 18.4L12.2 369.1l-6.9 4 8 13.9 6.9-4 80.3-46.3L82 405.4l-2.1 7.7 15.5 4.1 2.1-7.7L120 325.3l96-55.4V380.7l-61.7 61.7-5.7 5.7L160 459.3l5.7-5.7L216 403.3V504v8h16v-8V403.3l50.3 50.3 5.7 5.7L299.3 448l-5.7-5.7L232 380.7V269.9l96 55.4 22.6 84.2 2.1 7.7 15.5-4.1-2.1-7.7-18.4-68.8 80.3 46.3 6.9 4 8-13.9-6.9-4-80.3-46.3 68.8-18.4 7.7-2.1-4.1-15.5-7.7 2.1L336 311.4 240 256l96-55.4 84.2 22.6 7.7 2.1 4.1-15.5-7.7-2.1-68.8-18.4 80.3-46.3 6.9-4-8-13.9-6.9 4-80.3 46.3L366 106.6l2.1-7.7-15.5-4.1-2.1 7.7L328 186.7l-96 55.4V131.3l61.7-61.7 5.7-5.7L288 52.7l-5.7 5.7L232 108.7V8z"/></svg>