<svg xmlns="http://www.w3.org/2000/svg" viewBox="0 0 640 512"><!--! Font Awesome Pro 6.5.1 by @fontawesome - https://fontawesome.com License - https://fontawesome.com/license (Commercial License) Copyright 2023 Fonticons, Inc. --><path d="M184 72V64H168v8 52.7L133.7 90.3 128 84.7 116.7 96l5.7 5.7L168 147.3v94.8L85.9 194.7 69.2 132.4l-2.1-7.7-15.5 4.1 2.1 7.7 12.6 46.9L20.7 157.1l-6.9-4-8 13.9 6.9 4 45.6 26.3L11.4 209.8l-7.7 2.1 4.1 15.5 7.7-2.1 62.4-16.7L160 256 77.9 303.4 15.5 286.7l-7.7-2.1L3.6 300.1l7.7 2.1 46.9 12.6L12.7 341.1l-6.9 4 8 13.9 6.9-4 45.6-26.3L53.7 375.5l-2.1 7.7 15.5 4.1 2.1-7.7 16.7-62.4L168 269.9v94.8l-45.7 45.7-5.7 5.7L128 427.3l5.7-5.7L168 387.3V440v8h16v-8V387.3l34.3 34.3 5.7 5.7L235.3 416l-5.7-5.7L184 364.7V269.9l82.1 47.4 16.7 62.4 2.1 7.7 15.5-4.1-2.1-7.7-12.6-46.9 45.6 26.3 6.9 4 8-13.9-6.9-4-45.6-26.3 46.9-12.6 7.7-2.1-4.1-15.5-7.7 2.1-62.4 16.7L192 256l82.1-47.4 62.4 16.7 7.7 2.1 4.1-15.5-7.7-2.1-46.9-12.6 45.6-26.3 6.9-4-8-13.9-6.9 4-45.6 26.3 12.6-46.9 2.1-7.7-15.5-4.1-2.1 7.7-16.7 62.4L184 242.1V147.3l45.7-45.7 5.7-5.7L224 84.7l-5.7 5.7L184 124.7V72zm296-8V80h8 72c35.3 0 64 28.7 64 64s-28.7 64-64 64H392h-8v16h8H560c44.2 0 80-35.8 80-80s-35.8-80-80-80H488h-8zm0 384h8 72c44.2 0 80-35.8 80-80s-35.8-80-80-80H392h-8v16h8H560c35.3 0 64 28.7 64 64s-28.7 64-64 64H488h-8v16z"/></svg>