<svg xmlns="http://www.w3.org/2000/svg" viewBox="0 0 512 512"><!--! Font Awesome Pro 6.5.1 by @fontawesome - https://fontawesome.com License - https://fontawesome.com/license (Commercial License) Copyright 2023 Fonticons, Inc. --><path d="M240 48a32 32 0 1 0 -64 0 32 32 0 1 0 64 0zm-80 0a48 48 0 1 1 96 0 48 48 0 1 1 -96 0zM16 192H225.3c.9 5.5 2.3 10.9 4.1 16H16V496H496V208H410.5c1.8-5.1 3.2-10.5 4.1-16H496h16v16V496v16H496 16 0V496 208 192H16zm64 80H96 320h96 16v16V416v16H416 96 80V416 288 272zM96 416H416V288H96V416zM384 48a16 16 0 1 0 0-32 16 16 0 1 0 0 32zm0-48a32 32 0 1 1 0 64 32 32 0 1 1 0-64zM368 176a48 48 0 1 0 -96 0 48 48 0 1 0 96 0zm-112 0a64 64 0 1 1 128 0 64 64 0 1 1 -128 0z"/></svg>