<svg xmlns="http://www.w3.org/2000/svg" viewBox="0 0 512 512"><!--! Font Awesome Pro 6.5.1 by @fontawesome - https://fontawesome.com License - https://fontawesome.com/license (Commercial License) Copyright 2023 Fonticons, Inc. --><path d="M288 104V96H144V16H288V0H144 128V16 96v8 8V272L38.4 339.2 48 352l89.6-67.2L144 280v-8V112H288v-8zM38.4 339.2C14.2 357.3 0 385.8 0 416c0 53 43 96 96 96c20.8 0 41-6.7 57.6-19.2l21.6-16.2c-2.6-4.8-4.9-9.8-6.8-14.9L144 480c-13.8 10.4-30.7 16-48 16c-44.2 0-80-35.8-80-80c0-25.2 11.9-48.9 32-64l-9.6-12.8zM336 112H496V360L336 480c-13.8 10.4-30.7 16-48 16c-44.2 0-80-35.8-80-80c0-25.2 11.9-48.9 32-64l89.6-67.2L336 280v-8V112zM320 272l-89.6 67.2C206.2 357.3 192 385.8 192 416c0 53 43 96 96 96c20.8 0 41-6.7 57.6-19.2L512 368V112v-8V96 16 0H496 336 320V16 96v8 8V272zM336 96V16H496V96H336z"/></svg>