<svg xmlns="http://www.w3.org/2000/svg" viewBox="0 0 384 512"><!--! Font Awesome Pro 6.5.1 by @fontawesome - https://fontawesome.com License - https://fontawesome.com/license (Commercial License) Copyright 2023 Fonticons, Inc. --><path d="M200 0H185.1l8.3 12.4 10.8 16.3c2.5 3.7 3.8 8.1 3.8 12.6C208 53.8 197.8 64 185.3 64H108c-33.1 0-60 26.9-60 60c0 13.5 4.5 26 12 36H56v.5C24.4 164.4 0 191.4 0 224v56 8H8 376h8v-8V224c0-32.6-24.4-59.6-56-63.5V160h-8-1.8c11.1-12.5 17.8-29 17.8-47C336 50.6 285.4 0 223 0H200zm93.6 160H232h-8v16h8 33.1 30.6H320c26.5 0 48 21.5 48 48v48H16V224c0-26.5 21.5-48 48-48H80.3 104h3.9H112V160h-8H82.7C71.4 152 64 138.9 64 124c0-24.3 19.7-44 44-44h77.3C206.7 80 224 62.7 224 41.3c0-7.6-2.3-15.1-6.5-21.5L214.9 16H223c53.6 0 97 43.4 97 97c0 19.9-10.6 37.3-26.4 47zM64 328v-8H48v8 48 8h8H88.9l15.1 121 .9 7H112 272h7.1l.9-7 15.1-121H328h8v-8V328v-8H320v8 40H288h-7.1l-.9 7L264.9 496H119.1L103.9 375l-.9-7H96 64V328z"/></svg>