<svg xmlns="http://www.w3.org/2000/svg" viewBox="0 0 640 512"><!--! Font Awesome Pro 6.5.1 by @fontawesome - https://fontawesome.com License - https://fontawesome.com/license (Commercial License) Copyright 2023 Fonticons, Inc. --><path d="M16 326.3V368H312h16H624V326.3L556.9 16H83.1L16 326.3zM624 384H328V496H440h8v16h-8H328 312 200h-8V496h8H312V384H16 0V368 324.6L70.2 0H569.8L640 324.6V368v16H624zM82.8 320H66.5l3.5-16L121.8 64H518.2l51.9 240 3.5 16H557.2 82.8zm144.1-16l9-104H108.8L86.3 304H226.9zm16.1 0H397l-9-104H252l-9 104zm170.1 0H553.7L531.2 200H404.1l9 104zM527.8 184L505.3 80H393.7l9 104h125zM377.6 80H262.4l-9 104H386.6l-9-104zM246.3 80H134.7L112.2 184h125l9-104z"/></svg>