<svg xmlns="http://www.w3.org/2000/svg" viewBox="0 0 512 512"><!--! Font Awesome Pro 6.5.1 by @fontawesome - https://fontawesome.com License - https://fontawesome.com/license (Commercial License) Copyright 2023 Fonticons, Inc. --><path d="M256 16C123.5 16 16 123.5 16 256c0 12.4 .9 24.5 2.7 36.4C92.4 320.6 172.4 336 256 336s163.6-15.4 237.3-43.6c1.4-9.3 2.3-18.7 2.6-28.4H416h-8V248h8 88 8v8c0 14.8-1.3 29.2-3.7 43.3l-.7 4-3.6 1.8-1.4 .7-.3 .2-.4 .1C425.7 335.8 342.7 352 256 352c-82.1 0-160.8-14.6-233.7-41.2C47.1 416.9 142.3 496 256 496c82 0 154.5-41.2 197.8-104H400h-8V376h8 68.5l6.8 12.1C430.5 462.3 349 512 256 512C114.6 512 0 397.4 0 256S114.6 0 256 0c78.4 0 148.7 35.3 195.6 90.8L445.5 104H360h-8V88h8 67.4C383.8 43.6 323.1 16 256 16zm88 128h8 96 8v16h-8H352h-8V144zm0 48h8 96 8v16h-8H352h-8V192zM192 224a64 64 0 1 0 0-128 64 64 0 1 0 0 128zm0-144a80 80 0 1 1 0 160 80 80 0 1 1 0-160zm0 64a16 16 0 1 1 0 32 16 16 0 1 1 0-32z"/></svg>