<svg xmlns="http://www.w3.org/2000/svg" viewBox="0 0 512 512"><!--! Font Awesome Pro 6.5.1 by @fontawesome - https://fontawesome.com License - https://fontawesome.com/license (Commercial License) Copyright 2023 Fonticons, Inc. --><path d="M279.8 408.2l-12.6-12.8-3.2-3.3V496h80 8v16h-8H264 248 168h-8V496h8 80V392.1l-3.2 3.3-12.6 12.8c-53.1 53.1-139.2 53.1-192.3 0s-53.1-139.2 0-192.3L256 0l0 0L472.2 215.8c53.1 53.1 53.1 139.2 0 192.3s-139.2 53.1-192.3 0zM51.1 396.9c46.9 46.8 122.8 46.9 169.7 0l0 0 23.8-24.1L256 361.2l11.4 11.6 23.8 24.1 0 0c46.9 46.8 122.8 46.8 169.7 0c46.9-46.9 46.9-122.8 0-169.7l0 0L256 22.6 51.1 227.1l0 0C4.3 274 4.3 350 51.1 396.9z"/></svg>