<svg xmlns="http://www.w3.org/2000/svg" viewBox="0 0 512 512"><!--! Font Awesome Pro 6.5.1 by @fontawesome - https://fontawesome.com License - https://fontawesome.com/license (Commercial License) Copyright 2023 Fonticons, Inc. --><path d="M440 40v8 56h56 8v16h-8H440v56 8H424v-8V120H368h-8V104h8 56V48 40h16zm0 288v8 56h56 8v16h-8H440v56 8H424v-8V408H368h-8V392h8 56V336v-8h16zm-73.9-63.1L256 320 200.9 430.1 192 448l-8.9-17.9L128 320 17.9 264.9 0 256l17.9-8.9L128 192 183.1 81.9 192 64l8.9 17.9L256 192l110.1 55.1L384 256l-17.9 8.9zM241.7 312.8l2.4-4.8 4.8-2.4L348.2 256l-99.4-49.7-4.8-2.4-2.4-4.8L192 99.8l-49.7 99.4-2.4 4.8-4.8 2.4L35.8 256l99.4 49.7 4.8 2.4 2.4 4.8L192 412.2l49.7-99.4z"/></svg>