<svg xmlns="http://www.w3.org/2000/svg" viewBox="0 0 384 512"><!--! Font Awesome Pro 6.5.1 by @fontawesome - https://fontawesome.com License - https://fontawesome.com/license (Commercial License) Copyright 2023 Fonticons, Inc. --><path d="M16 16V496H368V16H16zM0 0H16 368h16V16 496v16H368 16 0V496 16 0zM288 336A96 96 0 1 0 96 336a96 96 0 1 0 192 0zM80 336a112 112 0 1 1 224 0A112 112 0 1 1 80 336zm112 32a32 32 0 1 0 0-64 32 32 0 1 0 0 64zm0-80a48 48 0 1 1 0 96 48 48 0 1 1 0-96zm32-176a32 32 0 1 0 -64 0 32 32 0 1 0 64 0zm-80 0a48 48 0 1 1 96 0 48 48 0 1 1 -96 0z"/></svg>