<svg xmlns="http://www.w3.org/2000/svg" viewBox="0 0 640 512"><!--! Font Awesome Pro 6.5.1 by @fontawesome - https://fontawesome.com License - https://fontawesome.com/license (Commercial License) Copyright 2023 Fonticons, Inc. --><path d="M16 16H256V0H16 0V16 496v16H16 256V496H16V16zM176 224c-61.9 0-112 50.1-112 112s50.1 112 112 112c31.3 0 59.7-12.9 80-33.6V389.1C238.8 415 209.4 432 176 432c-53 0-96-43-96-96s43-96 96-96c33.4 0 62.8 17 80 42.9V257.6c-20.3-20.7-48.7-33.6-80-33.6zm0 80a32 32 0 1 1 0 64 32 32 0 1 1 0-64zm0 80a48 48 0 1 0 0-96 48 48 0 1 0 0 96zM128 128a48 48 0 1 1 96 0 48 48 0 1 1 -96 0zm112 0a64 64 0 1 0 -128 0 64 64 0 1 0 128 0zM624 16V496H304V16H624zM304 0H288V16 496v16h16H624h16V496 16 0H624 304zM464 240a96 96 0 1 1 0 192 96 96 0 1 1 0-192zm0 208a112 112 0 1 0 0-224 112 112 0 1 0 0 224zM432 336a32 32 0 1 1 64 0 32 32 0 1 1 -64 0zm80 0a48 48 0 1 0 -96 0 48 48 0 1 0 96 0zM464 80a48 48 0 1 1 0 96 48 48 0 1 1 0-96zm0 112a64 64 0 1 0 0-128 64 64 0 1 0 0 128z"/></svg>