<svg xmlns="http://www.w3.org/2000/svg" viewBox="0 0 576 512"><!--! Font Awesome Pro 6.5.1 by @fontawesome - https://fontawesome.com License - https://fontawesome.com/license (Commercial License) Copyright 2023 Fonticons, Inc. --><path d="M106.7 0h10.7l2 4.9L223.8 256H206.5l-33.3-80H50.8L17.5 256H.2L104.6 4.9l2-4.9zm59.9 160L112 28.8 57.4 160H166.6zM264 0h88c35.3 0 64 28.7 64 64c0 20.1-9.3 38.1-23.8 49.8c32 7.3 55.8 36 55.8 70.2c0 39.8-32.2 72-72 72H264h-8v-8V120 8 0h8zM400 64c0-26.5-21.5-48-48-48H272v96h80c26.5 0 48-21.5 48-48zM272 240H376c30.9 0 56-25.1 56-56s-25.1-56-56-56H352 272V240zm299.3 52.8l-5.7 5.7-208 208-5.5 5.5-5.7-5.3-120-112-5.8-5.5 10.9-11.7 5.8 5.5L351.8 489.7 554.3 287.1l5.7-5.7 11.3 11.3z"/></svg>