<svg xmlns="http://www.w3.org/2000/svg" viewBox="0 0 512 512"><!--! Font Awesome Pro 6.5.1 by @fontawesome - https://fontawesome.com License - https://fontawesome.com/license (Commercial License) Copyright 2023 Fonticons, Inc. --><path d="M439.2 116.4l-56-112-14.3 7.2 53.6 107.2L328 226.7V144c0-27.4-15.3-51.2-37.9-63.4l-7-3.8-3.8 7L256 127.1 232.7 83.8l-3.8-7-7 3.8C199.3 92.7 184 116.6 184 144v82.7L89.6 118.8 143.2 11.6 128.8 4.4l-56 112c-1.5 2.9-1 6.4 1.1 8.8l97.2 111.1-133-35L15.6 133.5 .4 138.5l24 72c.9 2.6 2.9 4.5 5.6 5.2L167.8 252 30 288.3c-2.6 .7-4.7 2.6-5.6 5.2l-24 72 15.2 5.1 22.6-67.9 115.6-30.4-80.2 107c-1.6 2.1-2 4.8-1.2 7.3l40 120 15.2-5.1-38.7-116 57.7-77c-1.7 7.5-2.6 15.3-2.6 23.3v8.3C144 400 194.5 448 256 448s112-48 112-107.8v-8.3c0-8-.9-15.8-2.6-23.4l57.7 77-38.7 116 15.2 5.1 40-120c.8-2.5 .4-5.2-1.2-7.3l-80.2-107 115.6 30.4 22.6 67.9 15.2-5.1-24-72c-.9-2.6-2.9-4.5-5.6-5.2L344.2 252 482 215.7c2.6-.7 4.7-2.6 5.6-5.2l24-72-15.2-5.1-22.6 67.9-133 35L438 125.3c2.1-2.4 2.6-5.9 1.1-8.8zM222.7 99L249 147.8l7 13.1 7-13.1L289.3 99c13.8 10.2 22.7 26.6 22.7 45V253.1v4l3.2 2.4c22.5 16.9 36.8 43 36.8 72.3v8.3c0 50.4-42.7 91.8-96 91.8s-96-41.4-96-91.8v-8.3c0-29.3 14.3-55.4 36.8-72.3l3.2-2.4v-4V144c0-18.4 8.9-34.8 22.7-45zM216 280h-8v8 16 2.7l1.6 2.1L230 336l-20.4 27.2-1.6 2.1V368v16 8h8 80 8v-8V368v-2.7l-1.6-2.1L282 336l20.4-27.2 1.6-2.1V304 288v-8h-8H216zm8 21.3V296h64v5.3l-22.4 29.9L262 336l3.6 4.8L288 370.7V376H224v-5.3l22.4-29.9L250 336l-3.6-4.8L224 301.3z"/></svg>