<svg xmlns="http://www.w3.org/2000/svg" viewBox="0 0 512 512"><!--! Font Awesome Pro 6.5.1 by @fontawesome - https://fontawesome.com License - https://fontawesome.com/license (Commercial License) Copyright 2023 Fonticons, Inc. --><path d="M224 80h64V16l-64 0V80zM208 96V80 16 0h16 64 16V16 80 96l-16 0H224 208zM80 224H16v64H80V224zM16 208H80 96v16 64 16H80 16 0V288 224 208H16zM224 432v64h64V432H224zm-16 64V432 416h16 64 16v16 64 16H288 224 208V496zM432 224v64h64V224H432zm-16-16h16 64 16v16 64 16H496 432 416V288 224 208zM108.9 357.8L63.7 403.1l45.3 45.3 45.3-45.3-45.3-45.3zM52.4 391.8l45.3-45.3 11.3-11.3 11.3 11.3 45.3 45.3 11.3 11.3-11.3 11.3-45.3 45.3L108.9 471 97.6 459.6 52.4 414.4 41 403.1l11.3-11.3zm305.5 11.3l45.3 45.3 45.3-45.3-45.3-45.3-45.3 45.3zm33.9 56.6l-45.3-45.3-11.3-11.3 11.3-11.3 45.3-45.3 11.3-11.3 11.3 11.3 45.3 45.3L471 403.1l-11.3 11.3-45.3 45.3L403.1 471l-11.3-11.3zM108.9 154.2l45.3-45.3L108.9 63.7 63.7 108.9l45.3 45.3zm0 22.6L97.6 165.5 52.4 120.2 41 108.9 52.4 97.6 97.6 52.4 108.9 41l11.3 11.3 45.3 45.3 11.3 11.3-11.3 11.3-45.3 45.3-11.3 11.3z"/></svg>