<svg xmlns="http://www.w3.org/2000/svg" viewBox="0 0 512 512"><!--! Font Awesome Pro 6.5.1 by @fontawesome - https://fontawesome.com License - https://fontawesome.com/license (Commercial License) Copyright 2023 Fonticons, Inc. --><path d="M410.3 53.7L404.7 48 416 36.7l5.7 5.7 80 80 5.7 5.7-5.7 5.7-80 80-5.7 5.7L404.7 208l5.7-5.7L476.7 136H323.3l-120 120 120 120H476.7l-66.3-66.3-5.7-5.7L416 292.7l5.7 5.7 80 80 5.7 5.7-5.7 5.7-80 80-5.7 5.7L404.7 464l5.7-5.7L476.7 392H320h-3.3l-2.3-2.3L188.7 264H8 0V248H8 188.7L314.3 122.3l2.3-2.3H320 476.7L410.3 53.7z"/></svg>