<svg xmlns="http://www.w3.org/2000/svg" viewBox="0 0 512 512"><!--! Font Awesome Pro 6.5.1 by @fontawesome - https://fontawesome.com License - https://fontawesome.com/license (Commercial License) Copyright 2023 Fonticons, Inc. --><path d="M51 237.8c7.8 11.9 12.1 25.7 12.4 39.8c.4 17-4.9 33.7-15.2 47.4L16 368v79.9V464l16-1.5L192 448c20.7 0 40.8 7 57 20l55 44h79.9H400l-1.8-16-6.7-59.9c-4.7-42.2 13.3-83.8 47.3-109.3L512 272V192l-74.4-27.9c-33.9-12.7-60.3-40.1-71.7-74.4L336 0H256L220.8 42.2c-27.7 33.2-71.1 49-113.7 41.2L16 66.9 0 64V80.3 160l51 77.8zM16 155.2V83.2l88.3 16.1c48.2 8.8 97.4-9.1 128.8-46.7L263.5 16h61l26.2 78.7c13 38.9 42.8 69.9 81.3 84.3l64 24V264l-66.8 50.1c-38.5 28.9-58.9 76-53.6 123.8l6.5 58.1H309.6L259 455.5c-19-15.2-42.6-23.5-67-23.5c-.5 0-1 0-1.4 .1L32 446.5V373.3l29-38.7c12.4-16.5 18.9-36.7 18.4-57.3c-.4-17.2-5.6-33.9-15-48.2L16 155.2z"/></svg>