<svg xmlns="http://www.w3.org/2000/svg" viewBox="0 0 512 512"><!--! Font Awesome Pro 6.5.1 by @fontawesome - https://fontawesome.com License - https://fontawesome.com/license (Commercial License) Copyright 2023 Fonticons, Inc. --><path d="M96 0V8 120v8h16v-8V16h96V120v8h16v-8V8 0h-8H104 96zM224 176c44.2 0 80 35.8 80 80V496H16V256c0-44.2 35.8-80 80-80H224zM96 160c-53 0-96 43-96 96V496v16H16 304h16V496 256c0-53-43-96-96-96H96zM232 336A72 72 0 1 1 88 336a72 72 0 1 1 144 0zm-72-88a88 88 0 1 0 0 176 88 88 0 1 0 0-176zM344 0H328V8 40H296h-8V56h8 32V88v8h16V88 56h32 8V40h-8H344V8 0zM472 0H456V8 40H424h-8V56h8 32V88v8h16V88 56h32 8V40h-8H472V8 0zm0 200v-8H456v8 32H424h-8v16h8 32v32 8h16v-8V248h32 8V232h-8H472V200zM408 96H392v8 32H360h-8v16h8 32v32 8h16v-8V152h32 8V136h-8H408V104 96z"/></svg>