<svg xmlns="http://www.w3.org/2000/svg" viewBox="0 0 512 512"><!--! Font Awesome Pro 6.5.1 by @fontawesome - https://fontawesome.com License - https://fontawesome.com/license (Commercial License) Copyright 2023 Fonticons, Inc. --><path d="M480 16a16 16 0 1 1 32 0 16 16 0 1 1 -32 0zM416 80a16 16 0 1 1 32 0 16 16 0 1 1 -32 0zM16 128a16 16 0 1 1 0 32 16 16 0 1 1 0-32zm128 0a16 16 0 1 1 0 32 16 16 0 1 1 0-32zm224 0a16 16 0 1 1 0 32 16 16 0 1 1 0-32zm112 16a16 16 0 1 1 32 0 16 16 0 1 1 -32 0zm-64 64a16 16 0 1 1 32 0 16 16 0 1 1 -32 0zM80 192a16 16 0 1 1 0 32 16 16 0 1 1 0-32zm400 80a16 16 0 1 1 32 0 16 16 0 1 1 -32 0zM16 256a16 16 0 1 1 0 32 16 16 0 1 1 0-32zM80 64a16 16 0 1 1 0 32 16 16 0 1 1 0-32zM16 0a16 16 0 1 1 0 32A16 16 0 1 1 16 0zM264 64v8V256H400h16v16 24l-96 88V496v16H304 208 192V496 384L96 296V272 256h16H248V72 64h16zm0 208H248 112v17l90.8 83.2L208 377v7V496h96V384v-7l5.2-4.8L400 289V272H264z"/></svg>