<svg xmlns="http://www.w3.org/2000/svg" viewBox="0 0 384 512"><!--! Font Awesome Pro 6.5.1 by @fontawesome - https://fontawesome.com License - https://fontawesome.com/license (Commercial License) Copyright 2023 Fonticons, Inc. --><path d="M0 0H16V89.8L128 119v16.5L6 103.7l-6-1.6V96 0zM256 119L368 89.8V0h16V96v6.2l-6 1.6L256 135.6V119zM160 40c0-4.4 3.6-8 8-8h48c4.4 0 8 3.6 8 8V240h88 8v16h-8H216 168 72 64V240h8 88V40zm16 200h32V48H176V240zm-32 80a16 16 0 1 1 0 32 16 16 0 1 1 0-32zM80 384a16 16 0 1 1 0 32 16 16 0 1 1 0-32zm144-48a16 16 0 1 1 32 0 16 16 0 1 1 -32 0zm-32 48a16 16 0 1 1 0 32 16 16 0 1 1 0-32zm-64 80a16 16 0 1 1 32 0 16 16 0 1 1 -32 0zm112-16a16 16 0 1 1 0 32 16 16 0 1 1 0-32zm112 16a16 16 0 1 1 32 0 16 16 0 1 1 -32 0zm-48-80a16 16 0 1 1 0 32 16 16 0 1 1 0-32zM0 464a16 16 0 1 1 32 0A16 16 0 1 1 0 464z"/></svg>