<svg xmlns="http://www.w3.org/2000/svg" viewBox="0 0 448 512"><!--! Font Awesome Pro 6.5.1 by @fontawesome - https://fontawesome.com License - https://fontawesome.com/license (Commercial License) Copyright 2023 Fonticons, Inc. --><path d="M432 48V464H16V48H432zM16 32H0V48 464v16H16 432h16V464 48 32H432 16zM64 160v8V344v8H80v-8V187.3l72.7 160 2.1 4.7H160h8 8v-8V168v-8H160v8V324.7l-72.7-160L85.2 160H80 72 64zm168 0v8 64V344v8h16v-8V240h64 8V224h-8H248V176h64 8V160h-8H240h-8zm152 8v-8H368v8V344v8h16v-8V168z"/></svg>