<svg xmlns="http://www.w3.org/2000/svg" viewBox="0 0 448 512"><!--! Font Awesome Pro 6.5.1 by @fontawesome - https://fontawesome.com License - https://fontawesome.com/license (Commercial License) Copyright 2023 Fonticons, Inc. --><path d="M16 464V48H432V464H16zM0 480H16 432h16V464 48 32H432 16 0V48 464v16zM284.7 332.7l-25.4-25.4L248 296l11.3-11.3 73.4-73.4L344 200l-11.3-11.3-41.4-41.4L280 136l-11.3 11.3-73.4 73.4L184 232l-11.3-11.3-25.4-25.4L136 184l-11.3 11.3L112 208V352v16h16H272l12.7-12.7L296 344l-11.3-11.3zm-48-48L225.4 296l11.3 11.3L273.4 344l-8 8H128V214.6l8-8 36.7 36.7L184 254.6l11.3-11.3L280 158.6 321.4 200l-84.7 84.7z"/></svg>