<svg xmlns="http://www.w3.org/2000/svg" viewBox="0 0 448 512"><!--! Font Awesome Pro 6.5.1 by @fontawesome - https://fontawesome.com License - https://fontawesome.com/license (Commercial License) Copyright 2023 Fonticons, Inc. --><path d="M432 48V464H16V48H432zM16 32H0V48 464v16H16 432h16V464 48 32H432 16zM144 96H128v8 56H88 72v16 32 16H88h96 16V208 176 160H184 144V104 96zm0 80h40v32H88V176h40 16zm0 80H128v8V408v8h16v-8V264v-8zM320 104V96H304v8V256H264 248v16 32 16h16 96 16V304 272 256H360 320V104zM304 272h16 40v32H264V272h40zm16 88v-8H304v8 48 8h16v-8V360z"/></svg>