<svg xmlns="http://www.w3.org/2000/svg" viewBox="0 0 448 512"><!--! Font Awesome Pro 6.5.1 by @fontawesome - https://fontawesome.com License - https://fontawesome.com/license (Commercial License) Copyright 2023 Fonticons, Inc. --><path d="M16 48V464H432V48H16zM0 32H16 432h16V48 464v16H432 16 0V464 48 32zM187 384H162.7l74.1-64.8c-4.2 .6-8.5 .8-12.8 .8c-53 0-96-43-96-96s43-96 96-96s96 43 96 96v0c0 16.7-4.3 32.4-11.7 46c-5.4 9.8-12.5 18.8-21.1 26.3L187 384zm37-80a80 80 0 1 0 -.1-160 80 80 0 1 0 .1 160z"/></svg>