<svg xmlns="http://www.w3.org/2000/svg" viewBox="0 0 576 512"><!--! Font Awesome Pro 6.5.1 by @fontawesome - https://fontawesome.com License - https://fontawesome.com/license (Commercial License) Copyright 2023 Fonticons, Inc. --><path d="M346.2 32H352 568h8V48h-8H357.8L215.6 474.5l-1.8 5.5H203.1l-2.2-4.4L83.1 240H8 0V224H8 88h4.9l2.2 4.4L206.5 451.1 344.4 37.5l1.8-5.5zM400 228.7l5.7 5.7L480 308.7l74.3-74.3 5.7-5.7L571.3 240l-5.7 5.7L491.3 320l74.3 74.3 5.7 5.7L560 411.3l-5.7-5.7L480 331.3l-74.3 74.3-5.7 5.7L388.7 400l5.7-5.7L468.7 320l-74.3-74.3-5.7-5.7L400 228.7z"/></svg>