<svg xmlns="http://www.w3.org/2000/svg" viewBox="0 0 448 512"><!--! Font Awesome Pro 6.5.1 by @fontawesome - https://fontawesome.com License - https://fontawesome.com/license (Commercial License) Copyright 2023 Fonticons, Inc. --><path d="M432 48V464H16V48H432zm16-16H432 16 0V48 464v16H16 432h16V464 48 32zM163.3 179.3l25.4 25.4L200 216l-11.3 11.3-73.4 73.4L104 312l11.3 11.3 41.4 41.4L168 376l11.3-11.3 73.4-73.4L264 280l11.3 11.3 25.4 25.4L312 328l11.3-11.3L336 304V160 144H320 176l-12.7 12.7L152 168l11.3 11.3zm48 48L222.6 216l-11.3-11.3L174.6 168l8-8H320V297.4l-8 8-36.7-36.7L264 257.4l-11.3 11.3L168 353.4 126.6 312l84.7-84.7z"/></svg>