<svg xmlns="http://www.w3.org/2000/svg" viewBox="0 0 448 512"><!--! Font Awesome Pro 6.5.1 by @fontawesome - https://fontawesome.com License - https://fontawesome.com/license (Commercial License) Copyright 2023 Fonticons, Inc. --><path d="M16 48V464H432V48H16zM0 32H16 432h16V48 464v16H432 16 0V464 48 32zM284.7 179.3l-25.4 25.4L248 216l11.3 11.3 73.4 73.4L344 312l-11.3 11.3-41.4 41.4L280 376l-11.3-11.3-73.4-73.4L184 280l-11.3 11.3-25.4 25.4L136 328l-11.3-11.3L112 304V160 144h16H272l12.7 12.7L296 168l-11.3 11.3zm-48 48L225.4 216l11.3-11.3L273.4 168l-8-8H128V297.4l8 8 36.7-36.7L184 257.4l11.3 11.3L280 353.4 321.4 312l-84.7-84.7z"/></svg>