<svg xmlns="http://www.w3.org/2000/svg" viewBox="0 0 448 512"><!--! Font Awesome Pro 6.5.1 by @fontawesome - https://fontawesome.com License - https://fontawesome.com/license (Commercial License) Copyright 2023 Fonticons, Inc. --><path d="M16 48V464H432V48H16zM0 32H16 432h16V48 464v16H432 16 0V464 48 32zm261 96h24.3l-74.1 64.8c4.2-.6 8.5-.8 12.8-.8c53 0 96 43 96 96s-43 96-96 96s-96-43-96-96v0c0-16.7 4.3-32.4 11.7-46c5.4-9.8 12.5-18.8 21.1-26.3L261 128zm-37 80a80 80 0 1 0 .1 160A80 80 0 1 0 224 208z"/></svg>