<svg xmlns="http://www.w3.org/2000/svg" viewBox="0 0 448 512"><!--! Font Awesome Pro 6.5.1 by @fontawesome - https://fontawesome.com License - https://fontawesome.com/license (Commercial License) Copyright 2023 Fonticons, Inc. --><path d="M16 48V464H432V48H16zM0 32H16 432h16V48 464v16H432 16 0V464 48 32zM112 256h80V216 176H112v80zm0 16H96V256 176 160h16 80 16v16 40 40 16 16c0 30.9-25.1 56-56 56h-8-8V328h8 8c22.1 0 40-17.9 40-40V272H112zm224-16V216 176H256v80h80zm16-80v40 40 16 16c0 30.9-25.1 56-56 56h-8-8V328h8 8c22.1 0 40-17.9 40-40V272H256 240V256 176 160h16 80 16v16z"/></svg>