<svg xmlns="http://www.w3.org/2000/svg" viewBox="0 0 576 512"><!--! Font Awesome Pro 6.5.1 by @fontawesome - https://fontawesome.com License - https://fontawesome.com/license (Commercial License) Copyright 2023 Fonticons, Inc. --><path d="M16 48H432V164.6c5.2-1.5 10.5-2.7 16-3.5V48 32H432 16 0V48 464v16H16 320l0-16H16V48zm215.2 84.6l-2.2-4.6H218.9l-2.2 4.6L97.8 384h17.7l30.3-64H302.2L320 357.5l0-37.4L231.2 132.6zM294.7 304H153.3L224 154.7 294.7 304zM464 208c26.5 0 48 21.5 48 48v64H416V256c0-26.5 21.5-48 48-48zm-64 48v64H368 352v16V496v16h16H560h16V496 336 320H560 528V256c0-35.3-28.7-64-64-64s-64 28.7-64 64zm-32 80h32 16 96 16 32V496H368V336z"/></svg>