<svg xmlns="http://www.w3.org/2000/svg" viewBox="0 0 448 512"><!--! Font Awesome Pro 6.5.1 by @fontawesome - https://fontawesome.com License - https://fontawesome.com/license (Commercial License) Copyright 2023 Fonticons, Inc. --><path d="M16 48V464H432V48H16zM0 32H16 432h16V48 464v16H432 16 0V464 48 32zM166.3 374.9L188 288l4-16H175.5 128 112V256v-8L267.6 127.8 288 112l-6.3 25.1L260 224l-4 16h16.5H320h16v16 8L180.4 384.2 160 400l6.3-25.1zM192 256h20.5l-5 19.9-20.8 83.3L320 256.1V256H256 235.5l5-19.9 20.8-83.3L128 255.9v.1h64z"/></svg>