<svg xmlns="http://www.w3.org/2000/svg" viewBox="0 0 448 512"><!--! Font Awesome Pro 6.5.1 by @fontawesome - https://fontawesome.com License - https://fontawesome.com/license (Commercial License) Copyright 2023 Fonticons, Inc. --><path d="M432 48V464H16V48H432zM16 32H0V48 464v16H16 432h16V464 48 32H432 16zM260.7 176l5.7 5.7L340.7 256l-74.3 74.3-5.7 5.7L272 347.3l5.7-5.7 80-80 5.7-5.7-5.7-5.7-80-80-5.7-5.7L260.7 176zm-79 5.7l5.7-5.7L176 164.7l-5.7 5.7-80 80L84.7 256l5.7 5.7 80 80 5.7 5.7L187.3 336l-5.7-5.7L107.3 256l74.3-74.3z"/></svg>