<svg xmlns="http://www.w3.org/2000/svg" viewBox="0 0 448 512"><!--! Font Awesome Pro 6.5.1 by @fontawesome - https://fontawesome.com License - https://fontawesome.com/license (Commercial License) Copyright 2023 Fonticons, Inc. --><path d="M16 48V464H432V48H16zM0 32H16 432h16V48 464v16H432 16 0V464 48 32zm295.3 79.9l11.3 11.3 50.2 50.2 11.3 11.3L356.8 196 182.3 370.6l-69.7 10.9L96 384l2.6-16.6 10.9-69.7L295.3 111.9zM124.4 305.4l-9.3 59.5 59.5-9.3L304.4 225.8l-50.2-50.2L124.4 305.4zM345.5 184.7l-50.2-50.2-29.8 29.8 50.2 50.2 29.8-29.8z"/></svg>