<svg xmlns="http://www.w3.org/2000/svg" viewBox="0 0 448 512"><!--! Font Awesome Pro 6.5.1 by @fontawesome - https://fontawesome.com License - https://fontawesome.com/license (Commercial License) Copyright 2023 Fonticons, Inc. --><path d="M432 48L16 48l0 416 416 0 0-416zm16-16V48l0 416v16H432L16 480H0V464 48 32H16 432h16zM112 144v32h16l96 0 16 0 0-32H224l-96 0-16 0zm144 48l-16 0-16 0-96 0-16 0H96V176 144 128h16l16 0 96 0h16 16v16l0 32 0 16zM112 240v32h16H320h16V240H320 128 112zm0 96v32h16 32 16V336H160 128 112zm16-112H320h16 16v16 32 16H336 320 128 112 96V272 240 224h16 16zm0 96h32 16 16v16 32 16H176 160 128 112 96V368 336 320h16 16z"/></svg>