<svg xmlns="http://www.w3.org/2000/svg" viewBox="0 0 448 512"><!--! Font Awesome Pro 6.5.1 by @fontawesome - https://fontawesome.com License - https://fontawesome.com/license (Commercial License) Copyright 2023 Fonticons, Inc. --><path d="M16 48V464H432V48H16zM0 32H16 432h16V48 464v16H432 16 0V464 48 32zm128 96h8H236c37.6 0 68 30.4 68 68c0 22.1-10.6 41.8-26.9 54.2c29.3 7.6 50.9 34.2 50.9 65.8c0 37.6-30.4 68-68 68H136h-8v-8V264v-8-8V136v-8zm160 68c0-28.7-23.3-52-52-52H144V248h92c28.7 0 52-23.3 52-52zM144 368H260c28.7 0 52-23.3 52-52s-23.3-52-52-52H236 144V368z"/></svg>