<svg xmlns="http://www.w3.org/2000/svg" viewBox="0 0 448 512"><!--! Font Awesome Pro 6.5.1 by @fontawesome - https://fontawesome.com License - https://fontawesome.com/license (Commercial License) Copyright 2023 Fonticons, Inc. --><path d="M16 48V464H432V48H16zM0 32H16 432h16V48 464v16H432 16 0V464 48 32zm296 96h8v11.6l-2.7 2.4L189.4 239.9l58.1-.3c40-.2 72.5 32.2 72.5 72.2c0 39.9-32.3 72.2-72.2 72.2H176.7c-18.2 0-34.8-10.3-42.9-26.5l-4.9-9.9-3.6-7.2 14.3-7.2 3.6 7.2 4.9 9.9c5.4 10.8 16.5 17.7 28.6 17.7h71.1c31 0 56.2-25.2 56.2-56.2c0-31.1-25.3-56.3-56.4-56.2L168 256l-8 0V244.4l2.7-2.4 112-98H136h-8V128h8H296z"/></svg>