<svg xmlns="http://www.w3.org/2000/svg" viewBox="0 0 448 512"><!--! Font Awesome Pro 6.5.1 by @fontawesome - https://fontawesome.com License - https://fontawesome.com/license (Commercial License) Copyright 2023 Fonticons, Inc. --><path d="M16 48V464H432V48H16zM0 32H16 432h16V48 464v16H432 16 0V464 48 32zm168 96H296h8v16h-8H174.4l-20.5 88.9 101.5 9.3c36.6 3.3 64.6 34 64.6 70.8c0 39.3-31.8 71.1-71.1 71.1H195.9c-26.7 0-51.7-13.4-66.5-35.5l13.3-8.9c11.9 17.7 31.9 28.5 53.2 28.5h53.1c30.4 0 55.1-24.7 55.1-55.1c0-28.5-21.7-52.3-50.1-54.9L143.3 248l-9.1-.8 2.1-8.9 24-104 1.4-6.2H168z"/></svg>