<svg xmlns="http://www.w3.org/2000/svg" viewBox="0 0 448 512"><!--! Font Awesome Pro 6.5.1 by @fontawesome - https://fontawesome.com License - https://fontawesome.com/license (Commercial License) Copyright 2023 Fonticons, Inc. --><path d="M16 48V464H432V48H16zM0 32H16 432h16V48 464v16H432 16 0V464 48 32zm144 96h8H256h8v8 43.3c0 15.6-7.6 30.2-20.3 39.2l-37.5 26.4 69.6 72.5 45.9-58.4 4.9-6.3 12.6 9.9-4.9 6.3L287 329.1 339.7 384H317.5L277 341.8l-30.7 39.1-2.4 3.1H240 224 120h-8v-8V329.2c0-23.4 11.4-45.3 30.5-58.8l39.3-27.7-22.2-23.1c-10-10.4-15.6-24.3-15.6-38.8V136v-8zm51 105.3l39.4-27.8c8.5-6 13.5-15.7 13.5-26.1V144H160v36.7c0 10.3 4 20.2 11.1 27.7L195 233.3zm-2 21l-41.3 29.1C136.8 293.9 128 311 128 329.2V368H236.1l29.7-37.8L193 254.3z"/></svg>