<svg xmlns="http://www.w3.org/2000/svg" viewBox="0 0 448 512"><!--! Font Awesome Pro 6.5.1 by @fontawesome - https://fontawesome.com License - https://fontawesome.com/license (Commercial License) Copyright 2023 Fonticons, Inc. --><path d="M432 48V464H16V48H432zm16-16H432 16 0V48 464v16H16 432h16V464 48 32zM378.9 230.6c-85.6-83.5-224.3-83.5-309.8 0L58.4 241l-4.7 4.6 3.6 5.5 37.3 57.2 3.2 4.9 5.6-1.6 74.7-20.8 6.6-1.8-.8-6.8L179.1 240c29.4-7.7 60.4-7.7 89.7 0l-4.8 42.3-.8 6.8 6.6 1.8 74.7 20.8 5.6 1.6 3.2-4.9 37.3-57.2 3.6-5.5-4.7-4.6-10.7-10.4zM80.3 242.1c79.4-77.4 208.1-77.4 287.5 0l0 0 6 5.8-30.5 46.8-62.4-17.4 4.8-42.3 .8-6.6-6.4-1.9c-36.4-11-75.4-11-111.8 0l-6.4 1.9 .8 6.6 4.8 42.3-62.4 17.4L74.3 247.9l6-5.8z"/></svg>