<svg xmlns="http://www.w3.org/2000/svg" viewBox="0 0 448 512"><!--! Font Awesome Pro 6.5.1 by @fontawesome - https://fontawesome.com License - https://fontawesome.com/license (Commercial License) Copyright 2023 Fonticons, Inc. --><path d="M16 48V464H432V48H16zM0 32H16 432h16V48 464v16H432 16 0V464 48 32zM352 384v16H96V384H352zM128 116.7l5.7 5.7 64 64 5.7 5.7L192 203.3l-5.7-5.7L136 147.3V312v8H120v-8V147.3L69.7 197.7 64 203.3 52.7 192l5.7-5.7 64-64 5.7-5.7zm192 0l5.7 5.7 64 64 5.7 5.7L384 203.3l-5.7-5.7L328 147.3V312v8H312v-8V147.3l-50.3 50.3-5.7 5.7L244.7 192l5.7-5.7 64-64 5.7-5.7z"/></svg>