<svg xmlns="http://www.w3.org/2000/svg" viewBox="0 0 448 512"><!--! Font Awesome Pro 6.5.1 by @fontawesome - https://fontawesome.com License - https://fontawesome.com/license (Commercial License) Copyright 2023 Fonticons, Inc. --><path d="M432 48V464H16V48H432zm16-16H432 16 0V48 464v16H16 432h16V464 48 32zM273 124.1l-40 72-3.3 5.9 5.3 4.2 36.6 29.3c-16.3 28.3-39.8 51.8-68.1 68.1L174.3 267l-4.2-5.3-5.9 3.3-72 40-5.2 2.9 1.3 5.8 16 72 1.4 6.3H112h16c128.1 0 232-103.9 232-232v0l0-16 0-6.4-6.3-1.4-72-16-5.8-1.3-2.9 5.2zM344 160c0 119.3-96.7 216-216 216h-9.6l-13.3-59.9L166 282.3l29.3 36.6 4.1 5.2 5.8-3.1c35.6-18.8 64.9-48.1 83.7-83.7l3.1-5.8-5.2-4.1L250.3 198l33.8-60.9L344 150.4l0 9.6 8 0-8 0z"/></svg>