<svg xmlns="http://www.w3.org/2000/svg" viewBox="0 0 448 512"><!--! Font Awesome Pro 6.5.1 by @fontawesome - https://fontawesome.com License - https://fontawesome.com/license (Commercial License) Copyright 2023 Fonticons, Inc. --><path d="M16 48V464H432V48H16zM0 32H16 432h16V48 464v16H432 16 0V464 48 32zM144.8 176.8c-43.7 43.7-43.7 114.7 0 158.4s114.7 43.7 158.4 0l5.7-5.7 11.3 11.3-5.7 5.7c-50 50-131 50-181 0s-50-131 0-181s131-50 181 0l5.7 5.7-11.3 11.3-5.7-5.7c-43.7-43.7-114.7-43.7-158.4 0z"/></svg>