<svg xmlns="http://www.w3.org/2000/svg" viewBox="0 0 448 512"><!--! Font Awesome Pro 6.5.1 by @fontawesome - https://fontawesome.com License - https://fontawesome.com/license (Commercial License) Copyright 2023 Fonticons, Inc. --><path d="M432 48V464H16V48H432zM16 32H0V48 464v16H16 432h16V464 48 32H432 16zm96 304a32 32 0 1 1 0 64 32 32 0 1 1 0-64zm0 80a48 48 0 1 0 0-96 48 48 0 1 0 0 96zM64 112c167.9 0 304 136.1 304 304h16C384 239.3 240.7 96 64 96v16zM288 416c0-123.7-100.3-224-224-224v16c114.9 0 208 93.1 208 208h16z"/></svg>