<svg xmlns="http://www.w3.org/2000/svg" viewBox="0 0 640 512"><!--! Font Awesome Pro 6.5.1 by @fontawesome - https://fontawesome.com License - https://fontawesome.com/license (Commercial License) Copyright 2023 Fonticons, Inc. --><path d="M16.2 5L9.9 0 0 12.5l6.3 5L623.8 507l6.3 5 9.9-12.5-6.3-5L16.2 5zM487.5 480l-20.3-16H112V183.5L96 170.9V464v16h16H487.5zM152.5 32l20.3 16H528V328.5l16 12.6V48 32H528 152.5zM240 284.6V288v16 72 8h16v-8V352 304v-6.8l-16-12.6zm192-31.9c5.1-11.2 8-23.6 8-36.7c0-48.6-39.4-88-88-88H274.1l20.3 16 57.7 0c39.8 0 72 32.2 72 72c0 9.3-1.8 18.2-5 26.4l13 10.3z"/></svg>