<svg xmlns="http://www.w3.org/2000/svg" viewBox="0 0 448 512"><!--! Font Awesome Pro 6.5.1 by @fontawesome - https://fontawesome.com License - https://fontawesome.com/license (Commercial License) Copyright 2023 Fonticons, Inc. --><path d="M16 48V464H432V48H16zM0 32H16 432h16V48 464v16H432 16 0V464 48 32zm320 80H219.3l34.3 34.3 6.9 6.9-8.1 5.4-39.1 26.1 39.8 33.1 6.1 5.1L249 235.3l-6.1-5.1-48-40-8.2-6.9 8.9-5.9 39.9-26.6L196.7 112H128v96c0 53 43 96 96 96s96-43 96-96V112zM128 96H320h16v16 96c0 59.2-45.9 107.6-104 111.7V400h56v16H160V400h56V319.7c-58.1-4.1-104-52.6-104-111.7V112 96h16z"/></svg>