<svg xmlns="http://www.w3.org/2000/svg" viewBox="0 0 448 512"><!--! Font Awesome Pro 6.5.1 by @fontawesome - https://fontawesome.com License - https://fontawesome.com/license (Commercial License) Copyright 2023 Fonticons, Inc. --><path d="M16 48V464H432V48H16zM0 32H16 432h16V48 464v16H432 16 0V464 48 32zm175 92.1l40 72 3.3 5.9-5.3 4.2-36.6 29.3c16.3 28.3 39.8 51.8 68.1 68.1L273.7 267l4.2-5.3 5.9 3.3 72 40 5.2 2.9-1.3 5.8-16 72-1.4 6.3H336 320C191.9 392 88 288.1 88 160v0l0-16 0-6.4 6.3-1.4 72-16 5.8-1.3 2.9 5.2zM104 160c0 119.3 96.7 216 216 216h9.6l13.3-59.9L282 282.3l-29.3 36.6-4.1 5.2-5.8-3.1c-35.6-18.8-64.9-48.1-83.7-83.7l-3.1-5.8 5.2-4.1L197.7 198l-33.8-60.9L104 150.4l0 9.6-8 0 8 0z"/></svg>