<svg xmlns="http://www.w3.org/2000/svg" viewBox="0 0 576 512"><!--! Font Awesome Pro 6.5.1 by @fontawesome - https://fontawesome.com License - https://fontawesome.com/license (Commercial License) Copyright 2023 Fonticons, Inc. --><path d="M8 32H128V48H16V160H0V40 32H8zM0 192H16V320H0V192zM0 352H16V464H128v16H8 0v-8V352zM448 192.7c-5.3-.5-10.6-.7-16-.7V48H320V32H440h8v8V192.7zM288 469.2V480H160V464H284.5c1.1 1.8 2.3 3.5 3.5 5.2zM160 48V32H288V48H160zM560 368a128 128 0 1 0 -256 0 128 128 0 1 0 256 0zm-272 0a144 144 0 1 1 288 0 144 144 0 1 1 -288 0zm152-72v64h64 8v16h-8H440v64 8H424v-8V376H360h-8V360h8 64V296v-8h16v8z"/></svg>