<svg xmlns="http://www.w3.org/2000/svg" viewBox="0 0 448 512"><!--! Font Awesome Pro 6.5.1 by @fontawesome - https://fontawesome.com License - https://fontawesome.com/license (Commercial License) Copyright 2023 Fonticons, Inc. --><path d="M16 48V464H432V48H16zM0 32H16 432h16V48 464v16H432 16 0V464 48 32zM112 256c0 61.9 50.1 112 112 112c27.8 0 53.2-10.1 72.7-26.8L220.4 256h21.5l66.3 73.9C325.5 310.2 336 284.3 336 256c0-61.9-50.1-112-112-112s-112 50.1-112 112zm240 0c0 33.1-12.5 63.2-33.1 85.9L356.6 384H335.1l-27.7-30.9C285 372.4 255.9 384 224 384c-70.7 0-128-57.3-128-128s57.3-128 128-128s128 57.3 128 128z"/></svg>