<svg xmlns="http://www.w3.org/2000/svg" viewBox="0 0 448 512"><!--! Font Awesome Pro 6.5.1 by @fontawesome - https://fontawesome.com License - https://fontawesome.com/license (Commercial License) Copyright 2023 Fonticons, Inc. --><path d="M432 464V48H16V464H432zm16 16H432 16 0V464 48 32H16 432h16V48 464v16zM163.3 332.7l25.4-25.4L200 296l-11.3-11.3-73.4-73.4L104 200l11.3-11.3 41.4-41.4L168 136l11.3 11.3 73.4 73.4L264 232l11.3-11.3 25.4-25.4L312 184l11.3 11.3L336 208V352v16H320 176l-12.7-12.7L152 344l11.3-11.3zm48-48L222.6 296l-11.3 11.3L174.6 344l8 8H320V214.6l-8-8-36.7 36.7L264 254.6l-11.3-11.3L168 158.6 126.6 200l84.7 84.7z"/></svg>