<svg xmlns="http://www.w3.org/2000/svg" viewBox="0 0 512 512"><!--! Font Awesome Pro 6.5.1 by @fontawesome - https://fontawesome.com License - https://fontawesome.com/license (Commercial License) Copyright 2023 Fonticons, Inc. --><path d="M16 140.3C16 71.6 71.6 16 140.3 16s124.3 55.6 124.3 124.3v33.1 8h16v-8V140.3C280.5 62.8 217.7 0 140.3 0S0 62.8 0 140.3s62.8 140.3 140.3 140.3h11.8l13.1 23.7c-20.4 22.1-32.9 51.6-32.9 84V504v8h8H361.2 472h8V496h-8H413.1c24.2-16.6 40.1-44.4 40.1-76c0-26.9-11.6-51.2-30-68h.8V248h32 3.3l2.3-2.3 48-48 2.3-2.3V192 153.4v-3.9l-3.1-2.4-64-49.4L442.7 96H440 416V72 64h-8-8c-13.1 0-24.7 6.3-32 16c-7.3-9.7-18.9-16-32-16h-8-8v8V88v8 8 44.2c0 35.7-6.4 59.1-18.1 80.1c-10.6 18.9-25.5 36.1-45.3 58.9l0 0c-2.8 3.2-5.7 6.5-8.7 10l-11.2 13C218 331.8 208 363.9 208 392v8h16v-8c0-24.9 9-53.1 24.7-71.3l11.2-13c3-3.4 5.8-6.7 8.7-10c19.6-22.6 35.8-41.2 47.2-61.6c13.3-23.9 20.2-50 20.2-87.9V104 96 88 80c13.3 0 24 10.7 24 24h16c0-13.3 10.7-24 24-24v24 8h8 29.3L496 157.3v31.4L452.7 232H416h-8v8V340.8c-13.7-8.1-29.7-12.8-46.8-12.8c-9.6 0-18.9 1.5-27.6 4.2l-7.6 2.4 4.8 15.3 7.6-2.4c7.2-2.3 14.8-3.5 22.8-3.5c42 0 76 34 76 76s-34 76-76 76H148.3V388.3c0-30.1 12.4-57.4 32.3-77l4.3-4.3-2.9-5.3-18.2-33.1-2.3-4.1h-4.7H140.3C71.6 264.5 16 208.9 16 140.3zM432 160a16 16 0 1 0 -32 0 16 16 0 1 0 32 0z"/></svg>