<svg xmlns="http://www.w3.org/2000/svg" viewBox="0 0 512 512"><!--! Font Awesome Pro 6.5.1 by @fontawesome - https://fontawesome.com License - https://fontawesome.com/license (Commercial License) Copyright 2023 Fonticons, Inc. --><path d="M443.7 263.7l33.4-9.6 34.8-9.9V208 48 16 0H496 464 336 306.3L293.1 26.5l-16 32L262.8 87.2l-7.2 14.3 14.3 7.2 57.2 28.6 14.3 7.2 7.2-14.3 14.3-28.6 2.7-5.5H400h16v16 59.8L226.8 225.8l-12 3.4-8.8 8.8L156.1 288H112 96v16 44.1L38.1 406.1 15.4 428.7 4.1 440l11.3 11.3 45.3 45.3L72 507.9l11.3-11.3 22.6-22.6L265.1 314.7l96-27.4 38.6 21.8 13.9 7.9 7.9-13.9 22.2-39.4zm-36.1 31.5L369 273.4l-5.8-3.3-6.4 1.8-96 27.4-4 1.1-2.9 2.9L94.6 462.6 72 485.3 26.7 440l22.6-22.6 57.9-57.9 4.7-4.7v-6.6V304h44.1 6.6l4.7-4.7 49.9-49.9 5.9-5.9 8-2.3 189.2-54.1 11.6-3.3V171.8 96 80H416 365.7h-9.9l-4.4 8.8-2.7 5.5-14.3 28.6L277.1 94.3l14.3-28.6 16-32L316.2 16H336 464h32V48 208v24.1l-23.2 6.6-33.4 9.6-6.3 1.8-3.2 5.7-22.2 39.4z"/></svg>