<svg xmlns="http://www.w3.org/2000/svg" viewBox="0 0 512 512"><!--! Font Awesome Pro 6.5.1 by @fontawesome - https://fontawesome.com License - https://fontawesome.com/license (Commercial License) Copyright 2023 Fonticons, Inc. --><path d="M309.3 155.6l-5.3 4.8v7.2V256v16h16 96c44.2 0 80 35.8 80 80v48H16V352c0-44.2 35.8-80 80-80h96 16V256 167.6v-7.2l-5.3-4.8C186.3 141 176 119.7 176 96c0-44.2 35.8-80 80-80s80 35.8 80 80c0 23.7-10.3 45-26.7 59.6zM512 416V400 352c0-53-43-96-96-96H336 320V240 167.6c19.6-17.6 32-43.1 32-71.6c0-53-43-96-96-96s-96 43-96 96c0 28.4 12.4 54 32 71.6V240v16H176 96c-53 0-96 43-96 96v48 16H16 496h16zM48 456v-8H32v8 48 8h8H472h8v-8V456v-8H464v8 40H48V456z"/></svg>