<svg xmlns="http://www.w3.org/2000/svg" viewBox="0 0 640 512"><!--! Font Awesome Pro 6.5.1 by @fontawesome - https://fontawesome.com License - https://fontawesome.com/license (Commercial License) Copyright 2023 Fonticons, Inc. --><path d="M448 352v64H48 32v16 32 16H48 624h16V464 432 416 336 320 256L256.6 64.3c-21.4-10.7-45-16.3-69-16.3C131.1 48 79.2 78.8 52.1 128.4L7.9 209.5 0 224l16 4 32 8V344v8h8H448zm0-16H64V240l384 96zm176 80H464V336 323.5l-12.1-3L24 213.5l42.2-77.4C90.4 91.6 137 64 187.6 64c21.5 0 42.6 5 61.8 14.6L624 265.9V320v16 80zM464 432H624v32H48V432H448h16z"/></svg>