<svg xmlns="http://www.w3.org/2000/svg" viewBox="0 0 576 512"><!--! Font Awesome Pro 6.5.1 by @fontawesome - https://fontawesome.com License - https://fontawesome.com/license (Commercial License) Copyright 2023 Fonticons, Inc. --><path d="M296.5 25.9l55.1 169.7H530h27.2l-22 16L390.9 316.4 446 486.1l8.4 25.9-22-16L288.1 391.1 143.7 496l-22 16 8.4-25.9 55.1-169.7L40.9 211.6l-22-16H46.1 224.5L279.6 25.9 288.1 0l8.4 25.9zm55.1 185.7H340l-3.6-11.1L296 76.2V377.1l1.5 1.1L424 470.1 375.7 321.4l-3.6-11.1 9.4-6.8L508 211.6H351.6zM280 76.6L239.7 200.5l-3.6 11.1H224.5 68.1l126.5 91.9 9.4 6.8-3.6 11.1L152.1 470.1l126.5-91.9 1.3-1V76.6z"/></svg>