<svg xmlns="http://www.w3.org/2000/svg" viewBox="0 0 512 512"><!--! Font Awesome Pro 6.5.1 by @fontawesome - https://fontawesome.com License - https://fontawesome.com/license (Commercial License) Copyright 2023 Fonticons, Inc. --><path d="M486 368l10 16H477.1 336L265.4 496.9 256 512l-9.4-15.1L176 384H34.9 16l10-16L96 256 26 144 16 128H34.9 176L246.6 15.1 256 0l9.4 15.1L336 128H477.1 496l-10 16L416 256l70 112zM406.6 240.9L467.1 144H346l60.6 96.9zM327.1 144H184.9l-70 112 70 112H327.1l70-112-70-112zm-10-16L256 30.2 194.9 128H317.1zM166 144H44.9l60.6 96.9L166 144zM105.4 271.1L44.9 368H166l-60.6-96.9zM346 368H467.1l-60.6-96.9L346 368zM194.9 384L256 481.8 317.1 384H194.9z"/></svg>