<svg xmlns="http://www.w3.org/2000/svg" viewBox="0 0 576 512"><!--! Font Awesome Pro 6.5.1 by @fontawesome - https://fontawesome.com License - https://fontawesome.com/license (Commercial License) Copyright 2023 Fonticons, Inc. --><path d="M351.6 195.6L296.5 25.9 288.1 0l-8.4 25.9L224.5 195.6H46.1 18.9l22 16L185.2 316.4 130.1 486.1 121.7 512l22-16L288.1 391.1 432.4 496l22 16L446 486.1 390.9 316.4 535.2 211.6l22-16H530 351.6zm156.4 16L381.5 303.5l-9.4 6.8 3.6 11.1L424 470.1 297.5 378.2l-9.4-6.8-9.4 6.8L152.1 470.1l48.3-148.7 3.6-11.1-9.4-6.8L68.1 211.6H224.5h11.6l3.6-11.1L288.1 51.8l48.3 148.7 3.6 11.1h11.6H508z"/></svg>