<svg xmlns="http://www.w3.org/2000/svg" viewBox="0 0 640 512"><!--! Font Awesome Pro 6.5.1 by @fontawesome - https://fontawesome.com License - https://fontawesome.com/license (Commercial License) Copyright 2023 Fonticons, Inc. --><path d="M624 256a176 176 0 1 0 -352 0 176 176 0 1 0 352 0zm16 0c0 106-86 192-192 192c-83.8 0-155.1-53.7-181.3-128.6L183.3 308l-1.7 1.7L139.3 352H232h8v8 64 8h-8H8 0v-8V360v-8H8 116.7l46.7-46.7-68.5-9.3L88 295v-7V224v-7l6.9-.9 68.5-9.3L116.7 160H8 0v-8V88 80H8 232h8v8 64 8h-8H139.3l42.3 42.3 1.7 1.7 83.4-11.4C292.9 117.7 364.2 64 448 64c106 0 192 86 192 192zM261.7 209.5L104 231v50l157.7 21.5C258 287.6 256 272 256 256s2-31.6 5.7-46.5zM16 144H224V96H16v48zm0 224v48H224V368H16zm432-48a64 64 0 1 0 0-128 64 64 0 1 0 0 128zm0-144a80 80 0 1 1 0 160 80 80 0 1 1 0-160zm16 80a16 16 0 1 0 -32 0 16 16 0 1 0 32 0zm-48 0a32 32 0 1 1 64 0 32 32 0 1 1 -64 0z"/></svg>