<svg xmlns="http://www.w3.org/2000/svg" viewBox="0 0 576 512"><!--! Font Awesome Pro 6.5.1 by @fontawesome - https://fontawesome.com License - https://fontawesome.com/license (Commercial License) Copyright 2023 Fonticons, Inc. --><path d="M381.4 391.9l-69.3-97.8c5.1-11.7 7.9-24.6 7.9-38.1c0-53-43-96-96-96s-96 43-96 96s43 96 96 96c3.7 0 7.4-.2 11.1-.6l68.6 96.8C279.1 458.4 252.2 464 224 464C109.1 464 16 370.9 16 256S109.1 48 224 48c112.6 0 204.4 89.5 207.9 201.3c.1 2.2 .1 4.5 .1 6.7c0 2.6 0 5.3-.1 7.9c-1.8 48.9-20.5 93.4-50.4 128zM429 408h-5H392.8l-1.9-2.6c28.8-32.1 48.4-72.6 54.8-117.4h1.7H560v69.1L429 408zm43 .4L576 368V288 272H560 463.5h-16c.4-5.3 .6-10.6 .6-16c0-5.3-.2-10.6-.6-15.8l0-.2h16H560h16V224 144L347.6 55.2C308.2 39.9 266.3 32 224 32C100.3 32 0 132.3 0 256S100.3 480 224 480c31.5 0 62.8-4.4 93-12.9l11.8 16.7L343.2 504H368h56 48V408.4zM447.4 224h-1.7c-8.6-60.3-41.3-112.9-88-147.7L560 154.9V224H447.4zM80 272a16 16 0 1 0 0-32 16 16 0 1 0 0 32zm48-112a16 16 0 1 0 -32 0 16 16 0 1 0 32 0zM112 368a16 16 0 1 0 0-32 16 16 0 1 0 0 32zm32-112a80 80 0 1 1 160 0 80 80 0 1 1 -160 0zM341.9 474.5L252.4 347.7c21.2-6.6 39.2-20.2 51.3-38.3L384.6 424H424h32v64H424 368 351.4l-9.6-13.5z"/></svg>