<svg xmlns="http://www.w3.org/2000/svg" viewBox="0 0 512 512"><!--! Font Awesome Pro 6.5.1 by @fontawesome - https://fontawesome.com License - https://fontawesome.com/license (Commercial License) Copyright 2023 Fonticons, Inc. --><path d="M208 0h8 80 8V8 172.9L446.8 90.4l6.9-4 4 6.9 40 69.3 4 6.9-6.9 4L352 256l142.8 82.4 6.9 4-4 6.9-40 69.3-4 6.9-6.9-4L304 339.1V504v8h-8H216h-8v-8V339.1L65.2 421.6l-6.9 4-4-6.9-40-69.3-4-6.9 6.9-4L160 256 17.2 173.6l-6.9-4 4-6.9 40-69.3 4-6.9 6.9 4L208 172.9V8 0zm16 16V186.7v13.9l-12-6.9L64.2 108.3l-32 55.4L180 249.1l12 6.9-12 6.9L32.2 348.3l32 55.4L212 318.4l12-6.9v13.9V496h64V325.3 311.4l12 6.9 147.8 85.4 32-55.4L332 262.9 320 256l12-6.9 147.8-85.4-32-55.4L300 193.6l-12 6.9V186.7 16H224z"/></svg>