<svg xmlns="http://www.w3.org/2000/svg" viewBox="0 0 640 512"><!--! Font Awesome Pro 6.5.1 by @fontawesome - https://fontawesome.com License - https://fontawesome.com/license (Commercial License) Copyright 2023 Fonticons, Inc. --><path d="M2.3 146.3l144-144 11.3 11.3L16 155.3v51.1l165.2-30C208.8 128.3 260.6 96 320 96s111.2 32.3 138.8 80.4l165.2 30V155.3L482.3 13.7 493.7 2.3l144 144 2.3 2.3V152v57.3V216v80 6.7V360v3.3l-2.3 2.3-144 144-11.3-11.3L624 356.7V305.6l-165.2 30C431.2 383.7 379.4 416 320 416s-111.2-32.3-138.8-80.4L16 305.6v51.1L157.7 498.3l-11.3 11.3-144-144L0 363.3V360 302.7 296 216v-6.7V152v-3.3l2.3-2.3zm465.3 47.9c8 19 12.4 39.9 12.4 61.8s-4.4 42.8-12.4 61.8L624 289.3V222.7L467.6 194.2zM16 289.3l156.4 28.4c-8-19-12.4-39.9-12.4-61.8s4.4-42.8 12.4-61.8L16 222.7v66.6zM464 256a144 144 0 1 0 -288 0 144 144 0 1 0 288 0zm-113-7.9a32 32 0 1 0 -62 15.9 32 32 0 1 0 62-15.9zM272.7 264H224.3c1.7 20.5 9.8 39.2 22.4 54l34.2-34.2c-4.1-5.8-7-12.5-8.2-19.8zM312 351.7V303.3c-7.3-1.2-14-4.1-19.8-8.2L258 329.3c14.8 12.5 33.5 20.7 54 22.4zm70-22.4l-34.2-34.2c-5.8 4.1-12.5 7-19.8 8.2v48.3c20.5-1.7 39.2-9.8 54-22.4zM415.7 264H367.3c-1.2 7.3-4.1 14-8.2 19.8L393.3 318c12.5-14.8 20.7-33.5 22.4-54zm-22.4-70l-34.2 34.2c4.1 5.8 7 12.5 8.2 19.8h48.3c-1.7-20.5-9.8-39.2-22.4-54zM328 160.3v48.3c7.3 1.2 14 4.1 19.8 8.2L382 182.7c-14.8-12.5-33.5-20.7-54-22.4zm-70 22.4l34.2 34.2c5.8-4.1 12.5-7 19.8-8.2V160.3c-20.5 1.7-39.2 9.8-54 22.4zM224.3 248h48.3c1.2-7.3 4.1-14 8.2-19.8L246.7 194c-12.5 14.8-20.7 33.5-22.4 54zM320 144a112 112 0 1 1 0 224 112 112 0 1 1 0-224z"/></svg>