<svg xmlns="http://www.w3.org/2000/svg" viewBox="0 0 640 512"><!--! Font Awesome Pro 6.5.1 by @fontawesome - https://fontawesome.com License - https://fontawesome.com/license (Commercial License) Copyright 2023 Fonticons, Inc. --><path d="M281.1 0l-1 6.8-40 272-.1 .6v.6V472v8h8H392h8v-8V280v-.6l-.1-.6-40-272-1-6.8H352 288h-6.9zm13.8 16h50.2L384 280.6V464H256V280.6L294.9 16zM608 96V88H592v8 32H576h-8v16h8 16V320H512V280v-8h-8H440h-8v16h8 56v32 16V464H440h-8v8 32 8h16v-8V480h56 8v-8V453.3L592 420v28 8h16v-8V144h16 8V128h-8H608V96zM512 336h80v66.7L512 436V336zM344 256v56H296V256c0-13.3 10.7-24 24-24s24 10.7 24 24zm-64 0v56 16h16 48 16V312 256c0-22.1-17.9-40-40-40s-40 17.9-40 40zM32 96v32H16 8v16h8H32V448v8H48v-8V420l80 33.3V472v8h8 56v24 8h16v-8V472v-8h-8H144V336 320 288h56 8V272h-8H136h-8v8 40H48V144H64h8V128H64 48V96 88H32v8zm96 240V436L48 402.7V336h80z"/></svg>