<svg xmlns="http://www.w3.org/2000/svg" viewBox="0 0 512 512"><!--! Font Awesome Pro 6.5.1 by @fontawesome - https://fontawesome.com License - https://fontawesome.com/license (Commercial License) Copyright 2023 Fonticons, Inc. --><path d="M248 395.3V495.9C129.9 492 33.4 402.8 18.1 288H140.7L248 395.3zM260.7 376h-9.4l-97.6-97.6L180.9 224H331.1l27.2 54.4L260.7 376zm3.3 19.3L371.3 288H493.9C478.6 402.8 382.1 492 264 495.9V395.3zM372.9 272l-29.8-59.6-2.2-4.4H336 176h-4.9l-2.2 4.4L139.1 272H16.5c-.3-5.3-.5-10.6-.5-16C16 123.5 123.5 16 256 16s240 107.5 240 240c0 5.4-.2 10.7-.5 16H372.9zM256 512A256 256 0 1 0 256 0a256 256 0 1 0 0 512z"/></svg>