<svg xmlns="http://www.w3.org/2000/svg" viewBox="0 0 576 512"><!--! Font Awesome Pro 6.5.1 by @fontawesome - https://fontawesome.com License - https://fontawesome.com/license (Commercial License) Copyright 2023 Fonticons, Inc. --><path d="M130.1 16.3l-7.6 2.5L64 37.8V192c0 70.7 57.3 128 128 128s128-57.3 128-128V37.8l-58.5-19-7.6-2.5 4.9-15.2 7.6 2.5 64 20.8 5.5 1.8V32 192c0 76.8-60.2 139.6-136 143.8c0 .1 0 .1 0 .2v24c0 75.1 60.9 136 136 136s136-60.9 136-136V255.5c-31.6-3.9-56-30.9-56-63.5c0-35.3 28.7-64 64-64s64 28.7 64 64c0 32.6-24.4 59.6-56 63.5V360c0 83.9-68.1 152-152 152s-152-68.1-152-152V336c0-.1 0-.1 0-.2C108.2 331.6 48 268.8 48 192V32 26.2l5.5-1.8 64-20.8 7.6-2.5 4.9 15.2zM480 144a48 48 0 1 0 0 96 48 48 0 1 0 0-96z"/></svg>