<svg xmlns="http://www.w3.org/2000/svg" viewBox="0 0 384 512"><!--! Font Awesome Pro 6.5.1 by @fontawesome - https://fontawesome.com License - https://fontawesome.com/license (Commercial License) Copyright 2023 Fonticons, Inc. --><path d="M80 16V96H368V16H80zM64 0H80 368h16V16 96v16H368 80 64V96 16 0zm48 264.6l-7.1 4.8L64.6 296.2C34.2 316.4 16 350.5 16 386.9v2.2C16 448.2 63.8 496 122.8 496c21.1 0 41.7-6.2 59.3-17.9L336 375.4V144h16V384L190.9 491.4c-20.2 13.4-43.9 20.6-68.1 20.6C55 512 0 457 0 389.2v-2.2c0-41.8 20.9-80.9 55.7-104.1L96 256V144h16V256v8.6z"/></svg>