<svg xmlns="http://www.w3.org/2000/svg" viewBox="0 0 512 512"><!--! Font Awesome Pro 6.5.1 by @fontawesome - https://fontawesome.com License - https://fontawesome.com/license (Commercial License) Copyright 2023 Fonticons, Inc. --><path d="M160 0V8 176H272c17.8-46.8 63-80 116-80c68.5 0 124 55.5 124 124V320c0 106-86 192-192 192c-71 0-134.9-48.8-173.4-86c-10.2-9.8-23-16.8-35.4-18.1c-6.8-.7-22.3-.7-36.6-.5c-7 .1-13.6 .2-18.5 .3l-.1 0V504v8H48 8 0v-8V360v-8H8 176c48.6 0 88-39.4 88-88V220c0-9.6 1.1-19 3.2-28H152h-8v-8V8 0h16zM388 112c-59.6 0-108 48.4-108 108v44c0 9.1-1.2 17.9-3.3 26.2c24.6-8.8 44.7-10.3 62.2-7.5c20.4 3.3 36.6 12.5 51.2 20.8l.9 .5c15.1 8.6 28.6 16 45 17.9c15.3 1.8 34.2-1.2 60-14.7V220c0-59.6-48.4-108-108-108zM495.9 325.1c-24.4 11.6-44.2 14.7-61.8 12.7c-20.1-2.3-36.1-11.4-51-19.9l-.1-.1c-15.1-8.6-29.1-16.5-46.7-19.4c-17.1-2.8-38.2-.8-67.3 12C252 344.6 216.7 368 176 368H16V496H40V400v-7.8l7.8-.2 .2 8-.2-8 0 0 0 0 0 0 .1 0 .4 0 1.6 0c1.4 0 3.4-.1 5.8-.2c4.9-.1 11.5-.3 18.7-.3c14-.2 30.5-.2 38.4 .6c16.9 1.7 32.9 10.9 44.9 22.5c38.1 36.8 98 81.5 162.3 81.5c95.5 0 173.2-76 175.9-170.9z"/></svg>