<svg xmlns="http://www.w3.org/2000/svg" viewBox="0 0 448 512"><!--! Font Awesome Pro 6.5.1 by @fontawesome - https://fontawesome.com License - https://fontawesome.com/license (Commercial License) Copyright 2023 Fonticons, Inc. --><path d="M304 0H144V16h72V96.2C104.8 100.4 16 191.8 16 304c0 114.9 93.1 208 208 208s208-93.1 208-208c0-50.5-18-96.8-47.9-132.8l37.6-37.6 5.7-5.7L416 116.7l-5.7 5.7-36.9 36.9c-36.1-37.2-86-61-141.4-63.1V16h72V0zM32 304a192 192 0 1 1 384 0A192 192 0 1 1 32 304zm208-64V368c0 26.5 21.5 48 48 48s48-21.5 48-48V240c0-26.5-21.5-48-48-48s-48 21.5-48 48zm48-32c17.7 0 32 14.3 32 32V368c0 17.7-14.3 32-32 32s-32-14.3-32-32V240c0-17.7 14.3-32 32-32zM128.1 232.6c3.6-14.4 16.6-24.6 31.5-24.6c17.9 0 32.4 14.5 32.4 32.4v13c0 10-3.7 19.5-10.4 26.9L139 327.2c-17.4 19.1-27 44.1-27 70V408v8h8 80 8V400h-8H128v-2.9c0-21.9 8.2-43 22.9-59.2l42.6-46.8c9.4-10.3 14.6-23.7 14.6-37.7v-13c0-26.7-21.7-48.4-48.4-48.4c-22.2 0-41.6 15.1-47 36.7l-.3 1.4-1.9 7.8 15.5 3.9 1.9-7.8 .3-1.4z"/></svg>