<svg xmlns="http://www.w3.org/2000/svg" viewBox="0 0 640 512"><!--! Font Awesome Pro 6.5.1 by @fontawesome - https://fontawesome.com License - https://fontawesome.com/license (Commercial License) Copyright 2023 Fonticons, Inc. --><path d="M168 384H384l0-16H176V256v-8H160v8V376v8h8zM385.1 224c19.4 0 37.1-6.3 51.5-16.7c6.7-9.4 14.8-17.8 24-24.8l-10.3-11.4-11.8 13.1c-13 14.4-31.9 23.7-53.3 23.7c-21.3 0-40.3-9.3-53.3-23.7l-11.9-13.1L308 184.3c-13 14.4-31.9 23.7-53.3 23.7c-21.3 0-40.3-9.3-53.3-23.7l-11.9-13.1-11.9 13.1c-13 14.4-31.9 23.7-53.3 23.7c-3.3 0-6.7-.2-10-.7c-42.3-5.7-64.6-56.7-40.5-94.9L136.7 16H503.3l62.8 96.4c11.4 18 12.4 38.9 5.9 56.5c5 2.1 9.7 4.6 14.3 7.4c8.9-22.7 7.7-49.8-6.7-72.6L512 0H128L60.3 103.8c-26.5 42-8.2 98.6 35.7 115.3V256 384 504v8h8H384l0-16H112V384 256 223.2l.2 0c4 .5 8.1 .8 12.1 .8c20.3 0 38.7-6.8 53.4-18.1c4.3-3.3 8.2-6.9 11.8-10.9c3.6 3.9 7.5 7.6 11.8 10.8C216 217.2 234.5 224 254.7 224c20.3 0 38.7-6.8 53.4-18.1c4.3-3.3 8.2-6.9 11.8-10.9c3.6 3.9 7.5 7.6 11.8 10.8c14.7 11.3 33.2 18.1 53.4 18.1zM528 208c26.5 0 48 21.5 48 48v64H480V256c0-26.5 21.5-48 48-48zm-64 48v64H432 416v16V496v16h16H624h16V496 336 320H624 592V256c0-35.3-28.7-64-64-64s-64 28.7-64 64zm-32 80h32 16 96 16 32V496H432V336z"/></svg>