<svg xmlns="http://www.w3.org/2000/svg" viewBox="0 0 512 512"><!--! Font Awesome Pro 6.5.1 by @fontawesome - https://fontawesome.com License - https://fontawesome.com/license (Commercial License) Copyright 2023 Fonticons, Inc. --><path d="M344.1 3.8l-5.5 5.8-5.5-5.8 5.5-5.3 5.5 5.2zM502.4 173.3c5.8 5.5 5.8 5.5 5.8 5.6l0 0 0 0 0 0-.1 .1-.4 .4c-.3 .3-.8 .8-1.5 1.4c-1.3 1.2-3.1 3-5.4 5c-4.6 4.1-11 9.7-18.7 15.2c-10.1 7.3-23 15.3-36.6 19.6c-3.7-4.7-7.7-9.1-11.9-13.5c13-2.4 27.1-10.3 39.2-19.1c7-5.1 13.1-10.3 17.3-14.1l.9-.8-1-.9c-4.3-4-10.6-9.2-18.1-14.5c-15.3-10.7-34.9-20.6-54.5-20.6c-16.7 0-26.6 2.1-32.1 3.9c-2.7 .9-4.4 1.8-5.2 2.2c-.3 .2-.6 .4-.6 .4c-2 1.9-4.8 2.5-7.4 1.8l-5.8-5.8c-.6-2.5 0-5.3 1.8-7.4c.1-.1 .2-.3 .4-.6c.5-.8 1.3-2.4 2.2-5.2c1.8-5.5 3.9-15.4 3.9-32.1c0-19.5-9.9-39.1-20.6-54.5c-5.3-7.5-10.5-13.8-14.5-18.1l-.9-1-.8 .9c-3.9 4.2-9 10.3-14.1 17.3c-8.8 12.1-16.7 26.2-19.1 39.2c-4.3-4.3-8.8-8.3-13.5-11.9c4.3-13.6 12.3-26.5 19.6-36.6c5.5-7.6 11.1-14.1 15.2-18.7c2.1-2.3 3.8-4.1 5-5.4c.6-.6 1.1-1.1 1.4-1.5L333 4l.1-.1 0 0 0 0 0 0s0 0 5.6 5.8c5.5-5.8 5.5-5.8 5.5-5.8l0 0 0 0 0 0 .1 .1 .4 .4c.4 .3 .9 .8 1.5 1.5c1.3 1.3 3.1 3.1 5.2 5.5c4.3 4.7 10 11.5 15.8 19.7c11.3 16.2 23.4 39.1 23.4 63.6c0 7.1-.4 13.3-.9 18.5C425.5 84.7 458.5 57.3 472.3 9l2.2-7.7 15.4 4.4-2.2 7.7c-14.6 51-48.9 81.1-83 108.3c3.8-.3 8-.4 12.6-.4c24.5 0 47.4 12.1 63.6 23.4c8.2 5.7 15 11.5 19.7 15.8c2.4 2.2 4.2 4 5.5 5.2c.6 .6 1.1 1.1 1.5 1.5l.4 .4 .1 .1 0 0 0 0 0 0s0 0-5.8 5.5zm0 0l5.8 5.5 5.3-5.5-5.2-5.5-5.8 5.5zM369.8 188.8l32.7 32.7 8 8c25 25 37.5 57.8 37.5 90.5c0 96-96 192-272 192C48 512 0 464 0 336C0 160 96.2 64 192.2 64c32.7 .1 65.3 12.6 90.3 37.5l8 8 32.7 32.7 46.6 46.6zM311 152.7l-39.9-39.9C249.4 91 220.8 80.1 192.2 80C108.5 80 16 165 16 336c0 62.7 11.9 101.3 35.3 124.7S113.3 496 176 496c171 0 256-92.3 256-176c0-28.7-10.9-57.3-32.8-79.2l-39.9-39.9c-8.7-6.5-17.2-14.1-25.7-22.6s-16.1-16.9-22.6-25.7zm-129.4-3l-32 32-5.7 5.7L132.7 176l5.7-5.7 32-32 5.7-5.7L187.3 144l-5.7 5.7zm64 64l-32 32-5.7 5.7L196.7 240l5.7-5.7 32-32 5.7-5.7L251.3 208l-5.7 5.7zm-96 32l-32 32-5.7 5.7L100.7 272l5.7-5.7 32-32 5.7-5.7L155.3 240l-5.7 5.7zm160 32l-32 32-5.7 5.7L260.7 304l5.7-5.7 32-32 5.7-5.7L315.3 272l-5.7 5.7zm-96 32l-32 32-5.7 5.7L164.7 336l5.7-5.7 32-32 5.7-5.7L219.3 304l-5.7 5.7zm-96 32l-32 32L80 379.3 68.7 368l5.7-5.7 32-32 5.7-5.7L123.3 336l-5.7 5.7zm256 0l-32 32-5.7 5.7L324.7 368l5.7-5.7 32-32 5.7-5.7L379.3 336l-5.7 5.7zm-96 32l-32 32-5.7 5.7L228.7 400l5.7-5.7 32-32 5.7-5.7L283.3 368l-5.7 5.7zm-96 32l-32 32-5.7 5.7L132.7 432l5.7-5.7 32-32 5.7-5.7L187.3 400l-5.7 5.7z"/></svg>