<svg xmlns="http://www.w3.org/2000/svg" viewBox="0 0 640 512"><!--! Font Awesome Pro 6.5.1 by @fontawesome - https://fontawesome.com License - https://fontawesome.com/license (Commercial License) Copyright 2023 Fonticons, Inc. --><path d="M16.2 5L9.9 0 0 12.5l6.3 5L623.8 507l6.3 5 9.9-12.5-6.3-5L16.2 5zM467.3 464H48V133L32 120.4V464v16H48 487.5l-20.3-16zM592 32H152.5l20.3 16H592V379l16 12.6V48 32H592zM456.5 272l20.3 16H496h8V272h-8H456.5zM144 272h-8v16h8H244.3l-20.3-16H144zm160 96h-8v16h8 61.9l-20.3-16H304zm-160 0h-8v16h8 96 8V368h-8H144z"/></svg>