<svg xmlns="http://www.w3.org/2000/svg" viewBox="0 0 384 512"><!--! Font Awesome Pro 6.5.1 by @fontawesome - https://fontawesome.com License - https://fontawesome.com/license (Commercial License) Copyright 2023 Fonticons, Inc. --><path d="M104 0H96V8 128H16 0v16V464v16H16 64v24 8h8 48 8v-8V480H256v24 8h8 48 8v-8V480h48 16V464 144 128H368 288V8 0h-8H104zM304 464H272 256 128 112 80 64 16V144H96h16H272h16 80V464H320 304zm-32 16h32v16H272V480zm-160 0v16H80V480h32zM272 128H112V16H272V128zM80 240v16h8H296h8V240h-8H88 80zm0 112v16h8H296h8V352h-8H88 80z"/></svg>