<svg xmlns="http://www.w3.org/2000/svg" viewBox="0 0 512 512"><!--! Font Awesome Pro 6.5.1 by @fontawesome - https://fontawesome.com License - https://fontawesome.com/license (Commercial License) Copyright 2023 Fonticons, Inc. --><path d="M264 0V8v96 8H248v-8V8 0h16zM0 248H8h96 8v16h-8H8 0V248zm400 0h8 96 8v16h-8H408h-8V248zM264 400v8 96 8H248v-8V408v-8h16zM80.6 69.3L86.3 75l67.9 67.9 5.7 5.7-11.3 11.3-5.7-5.7L75 86.3l-5.7-5.7L80.6 69.3zm-11.3 362l5.7-5.7 67.9-67.9 5.7-5.7 11.3 11.3-5.7 5.7L86.3 437l-5.7 5.7L69.3 431.4zM352.2 148.5l5.7-5.7L425.7 75l5.7-5.7 11.3 11.3L437 86.3l-67.9 67.9-5.7 5.7-11.3-11.3zm11.3 203.6l5.7 5.7L437 425.7l5.7 5.7-11.3 11.3-5.7-5.7-67.9-67.9-5.7-5.7 11.3-11.3zM360 256a104 104 0 1 0 -208 0 104 104 0 1 0 208 0zm-224 0a120 120 0 1 1 240 0 120 120 0 1 1 -240 0z"/></svg>