<svg xmlns="http://www.w3.org/2000/svg" viewBox="0 0 576 512"><!--! Font Awesome Pro 6.5.1 by @fontawesome - https://fontawesome.com License - https://fontawesome.com/license (Commercial License) Copyright 2023 Fonticons, Inc. --><path d="M66.4 33.2l7 1.2 80 13.8 7.9 1.4-2.7 15.8-7.9-1.4-73-12.6L16.4 256H240h16v16 16h64V272 256h16H559.6L498.4 51.3l-73 12.6-7.9 1.4-2.7-15.8 7.9-1.4 80-13.8 7-1.2 2 6.8 64 213.8 .3 1.1V256v16 24 8V464v16H560 336 320V464 304H256V464v16H240 16 0V464 304v-8V272 256v-1.2l.3-1.1 64-213.8 2-6.8zM560 304v-8V272H336v24 83.1l100.4-50.2 7.2-3.6 7.2 14.3-7.2 3.6L336 396.9v59.2l148.2-79.2 7.1-3.8 7.5 14.1-7.1 3.8L355.3 464H560V304zM16 296v8 79.1l108.4-54.2 7.2-3.6 7.2 14.3-7.2 3.6-112 56L16 400.9v59.5l156.2-83.5 7.1-3.8 7.5 14.1-7.1 3.8L43.3 464H240V296 272H16v24z"/></svg>