<svg xmlns="http://www.w3.org/2000/svg" viewBox="0 0 640 512"><!--! Font Awesome Pro 6.5.1 by @fontawesome - https://fontawesome.com License - https://fontawesome.com/license (Commercial License) Copyright 2023 Fonticons, Inc. --><path d="M32 110.6l80-80 80 80V128H32V110.6zm68.7-91.3L16 104v24 16H32h72V472v8h8H320h8v-8V48l192 0 0 320H448 432v16 24l84.7 84.7L528 504l11.3-11.3L624 408V384 368H608 536V40 32h-8L320 32h-8v8V464H120V144h72 16V128 104L123.3 19.3 112 8 100.7 19.3zM448 401.4V384H608v17.4l-80 80-80-80z"/></svg>