<svg xmlns="http://www.w3.org/2000/svg" viewBox="0 0 512 512"><!--! Font Awesome Pro 6.5.1 by @fontawesome - https://fontawesome.com License - https://fontawesome.com/license (Commercial License) Copyright 2023 Fonticons, Inc. --><path d="M0 416c0 53 43 96 96 96s96-43 96-96L192 8V0h-8H8 0V8 416zm96 80c-44.2 0-80-35.8-80-80L16 16l160 0 0 400c0 44.2-35.8 80-80 80zm408 16h8v-8V328v-8h-8H357.9l-16 16H496V496H195.9c-4.6 5.8-9.7 11.1-15.3 16H504zM223.8 423.3L453 194.1l5.7-5.7-5.7-5.7L328.5 58.3l-5.7-5.7-5.7 5.7L224 151.5v22.6l98.8-98.8L436 188.5l-212 212V416c0 2.4-.1 4.9-.2 7.3zM64 48H48V64v64 16H64h64 16V128 64 48H128 64zm0 16H80h32 16V80v32 16H112 80 64V112 80 64zM48 176v16 64 16H64h64 16V256 192 176H128 64 48zm32 16h32 16v16 32 16H112 80 64V240 208 192H80zm32 224a16 16 0 1 1 -32 0 16 16 0 1 1 32 0zM96 384a32 32 0 1 0 0 64 32 32 0 1 0 0-64z"/></svg>