<svg xmlns="http://www.w3.org/2000/svg" viewBox="0 0 512 512"><!--! Font Awesome Pro 6.5.1 by @fontawesome - https://fontawesome.com License - https://fontawesome.com/license (Commercial License) Copyright 2023 Fonticons, Inc. --><path d="M349.9 224H328.6L490.1 40.7 471.3 21.9 241.9 224H217.7L472 0l40 40L349.9 224zM107.3 500.7L96 512 84.7 500.7 11.3 427.3 0 416l11.3-11.3L160 256H329.4 352l-16 16L107.3 500.7zM96 489.4l81.5-81.5c-2.5 .5-5.2-.2-7.2-2.2L144 379.3l-79 79 31 31zM313.4 272H166.6l-56.1 56.1c2.5-.5 5.2 .2 7.2 2.2l32 32 32 32c1.9 2 2.7 4.7 2.2 7.2L313.4 272zM22.6 416l31 31 79-79-26.3-26.3c-1.9-2-2.7-4.7-2.2-7.2L22.6 416z"/></svg>