<svg xmlns="http://www.w3.org/2000/svg" viewBox="0 0 512 512"><!--! Font Awesome Pro 6.5.1 by @fontawesome - https://fontawesome.com License - https://fontawesome.com/license (Commercial License) Copyright 2023 Fonticons, Inc. --><path d="M262.6 345.4L496 112l13.6-95.5L512 0 495.5 2.4 400 16 166.6 249.4l11.3 11.3L407.5 31.1l85.6-12.2-12.2 85.6L251.3 334.1l11.3 11.3zm-153-119l-5.7-5.7-5.7 5.7-32 32-4.4 4.4 3.2 5.4 44.8 74.6L68.7 384H32 28.7l-2.3 2.3L5.5 407.1l-5.7 5.7 5.7 5.7 88 88 5.7 5.7 5.7-5.7 20.8-20.8 2.3-2.3V480 443.3l41.2-41.2 74.6 44.8 5.4 3.2 4.4-4.4 32-32 5.7-5.7-5.7-5.7-176-176zm17.2 113.5L82.1 265.2 104 243.3 268.7 408l-21.9 21.9-74.6-44.8-5.4-3.2-4.4 4.4-48 48-2.3 2.3V440v36.7L99.2 489.5 22.5 412.8 35.3 400H72h3.3l2.3-2.3 48-48 4.4-4.4-3.2-5.4z"/></svg>