<svg xmlns="http://www.w3.org/2000/svg" viewBox="0 0 512 512"><!--! Font Awesome Pro 6.5.1 by @fontawesome - https://fontawesome.com License - https://fontawesome.com/license (Commercial License) Copyright 2023 Fonticons, Inc. --><path d="M8 0H216h8V16h-8H8 0V0H8zM8 80h96 16 96 8V96h-8H120V216v8H104v-8V96H8 0V80H8zM512 6.2V16 176v0c0 26.5-28.7 48-64 48s-64-21.5-64-48s28.7-48 64-48c19.1 0 36.3 6.3 48 16.2V25.8L352 54.6V208v0c0 26.5-28.7 48-64 48s-64-21.5-64-48s28.7-48 64-48c19.1 0 36.3 6.3 48 16.2V48 41.4l6.4-1.3 160-32L512 6.2zM483.7 154.9c-8.6-6.4-21.1-10.9-35.7-10.9s-27.1 4.4-35.7 10.9s-12.3 14.1-12.3 21.1s3.8 14.7 12.3 21.1s21.1 10.9 35.7 10.9s27.1-4.4 35.7-10.9s12.3-14.1 12.3-21.1v0c0-7.1-3.8-14.7-12.3-21.1zm-160 32c-8.6-6.4-21.1-10.9-35.7-10.9s-27.1 4.4-35.7 10.9s-12.3 14.1-12.3 21.1s3.8 14.7 12.3 21.1s21.1 10.9 35.7 10.9s27.1-4.4 35.7-10.9s12.3-14.1 12.3-21.1v0c0-7.1-3.8-14.7-12.3-21.1zM328 352a24 24 0 1 0 0-48 24 24 0 1 0 0 48zm0-64a40 40 0 1 1 0 80 40 40 0 1 1 0-80zm181.7 13.7l-208 208-11.3-11.3 208-208 11.3 11.3zM496 472a24 24 0 1 0 -48 0 24 24 0 1 0 48 0zm-64 0a40 40 0 1 1 80 0 40 40 0 1 1 -80 0zM32 256h96 8v8 37.5c0 19.1-7.6 37.4-21.1 50.9L91.3 376 152 436.7l50.3-50.3 11.3 11.3L163.3 448l50.3 50.3-11.3 11.3L152 459.3l-50.3 50.3L99.3 512H96 16 8v-8V479.8c0-27.6 11-54 30.5-73.5L68.7 376 45.1 352.4C31.6 338.9 24 320.6 24 301.5V264v-8h8zm71.6 85.1c10.5-10.5 16.4-24.7 16.4-39.6V272H40v29.5c0 14.9 5.9 29.1 16.4 39.6L80 364.7l23.6-23.6zM49.8 417.5C33.3 434 24 456.4 24 479.8V496H92.7l48-48L80 387.3 49.8 417.5z"/></svg>