<svg xmlns="http://www.w3.org/2000/svg" viewBox="0 0 640 512"><!--! Font Awesome Pro 6.5.1 by @fontawesome - https://fontawesome.com License - https://fontawesome.com/license (Commercial License) Copyright 2023 Fonticons, Inc. --><path d="M176 288V496h80V384c0-35.3 28.7-64 64-64s64 28.7 64 64V496h80V288 135.7L320 20.5 176 135.7V288zm-16-17.5V128L320 0 480 128V270.5l61.1-66.7L552 192l10.9 11.8L640 288V496v16H624 480 464 384 368 272 256 176 160 16 0V496 288l77.1-84.2L88 192l10.9 11.8L160 270.5zm0 23.7L88 215.7 16 294.2V496H160V294.2zm320 0V496H624V294.2l-72-78.5-72 78.5zM272 496h96V384c0-26.5-21.5-48-48-48s-48 21.5-48 48V496zM229 139.6h11 47.7l26.7-46.8 5.6-9.7 5.6 9.7 26.7 46.8H400h11l-5.5 9.6L381.7 191l23.9 41.8 5.5 9.6H400 352.3l-26.7 46.8-5.6 9.7-5.6-9.7-26.7-46.8H240 229l5.5-9.6L258.3 191l-23.9-41.8-5.5-9.6zm36.7 64.3L251 229.6h29.4l-14.7-25.7zm29.4 25.7h49.7L366.9 191l-22.1-38.6H295.1L273.1 191l22.1 38.6zm7.3 12.8L320 273.1l17.5-30.7H302.5zm57.1-12.8H389l-14.7-25.7-14.7 25.7zm14.7-51.5L389 152.4H359.6l14.7 25.7zm-36.7-38.5L320 108.9l-17.5 30.7h35.1zm-57.1 12.8H251l14.7 25.7 14.7-25.7z"/></svg>