<svg xmlns="http://www.w3.org/2000/svg" viewBox="0 0 640 512"><!--! Font Awesome Pro 6.5.1 by @fontawesome - https://fontawesome.com License - https://fontawesome.com/license (Commercial License) Copyright 2023 Fonticons, Inc. --><path d="M352 80c0-44.2 35.8-80 80-80h72 3.3l2.3 2.3L547.3 40H568c39.8 0 72 32.2 72 72v72 8h-8H608h-4.7l-29.7 29.7-2.3 2.3H568 475.1l-51.5 47.7L468 297.1l4 2.3V304v32 8H456v-8V308.6l-44.7-25.5-.8 .8c-1.7-5.5-3.9-10.8-6.3-15.9l62.4-57.8 2.3-2.1H472h92.7l16-16H544h-3.3l-2.3-2.3L508.7 160H480h-8V144h8 32 3.3l2.3 2.3L547.3 176h49.4H600h8 16V112c0-30.9-25.1-56-56-56H544h-3.3l-2.3-2.3L500.7 16H432c-35.3 0-64 28.7-64 64v8 3.7l-2.8 2.4-56 48L307 144h-3H264c-66.3 0-120 53.7-120 120v24 8h-8H88 83.1l-2.2-4.4L36 201.9l-4.8 9.6c-10 20-15.2 42-15.2 64.3C16 348.8 75.2 408 148.2 408H208V360v-8h16v8 52.9L299.5 496H400V480c0-17.7-14.3-32-32-32h-8-6l-1.7-5.8-16-56-.9-3 1.4-2.8L368 318.2c-1-38.9-32.8-70.2-72-70.2h-8V232h8c48.6 0 88 39.4 88 88v1.9l-.8 1.7-30.6 61.2L366 432h2c26.5 0 48 21.5 48 48v24 8h-8H296h-3.5l-2.4-2.6L212.5 424H148.2C66.3 424 0 357.7 0 275.8c0-24.8 5.8-49.3 16.9-71.5l8-15.9 2.2-4.4H32h8 4.9l2.2 4.4L92.9 280H128V264c0-75.1 60.9-136 136-136h37l51-43.7V80zM496 64a16 16 0 1 1 0 32 16 16 0 1 1 0-32z"/></svg>