<svg xmlns="http://www.w3.org/2000/svg" viewBox="0 0 512 512"><!--! Font Awesome Pro 6.5.1 by @fontawesome - https://fontawesome.com License - https://fontawesome.com/license (Commercial License) Copyright 2023 Fonticons, Inc. --><path d="M16 48V160H128V48H16zm0 128V464H128V176H16zm128 0V464H496V176H144zm352-16V48H144V160H496zM0 32H16 496h16V48 464v16H496 16 0V464 48 32zM440 291.3l-5.7-5.7L408 259.3V368v8h-8H291.3l26.3 26.3 5.7 5.7L312 419.3l-5.7-5.7-40-40-5.7-5.7 5.7-5.7 40-40c3.1-3.1 8.2-3.1 11.3 0s3.1 8.2 0 11.3L291.3 360H392V259.3l-26.3 26.3c-3.1 3.1-8.2 3.1-11.3 0s-3.1-8.2 0-11.3l40-40 5.7-5.7 5.7 5.7 40 40 5.7 5.7L440 291.3z"/></svg>