<svg xmlns="http://www.w3.org/2000/svg" viewBox="0 0 448 512"><!--! Font Awesome Pro 6.5.1 by @fontawesome - https://fontawesome.com License - https://fontawesome.com/license (Commercial License) Copyright 2023 Fonticons, Inc. --><path d="M40 0H32V8 43.1L4.4 56.8 0 59.1V64v96 4.9l4.4 2.2L32 180.9v6.1L4.4 200.8 0 203.1V208v96 4.9l4.4 2.2L32 324.9v6.1L4.4 344.8 0 347.1V352v96 4.9l4.4 2.2L32 468.9V504v8h8H408h8v-8V468.9l27.6-13.8 4.4-2.2V448 352v-4.9l-4.4-2.2L416 331.1v-6.1l27.6-13.8 4.4-2.2V304 208v-4.9l-4.4-2.2L416 187.1v-6.1l27.6-13.8 4.4-2.2V160 64 59.1l-4.4-2.2L416 43.1V8 0h-8H40zm8 48V16H400V48v4.9l4.4 2.2L432 68.9v86.1l-27.6 13.8-4.4 2.2V176v16 4.9l4.4 2.2L432 212.9v86.1l-27.6 13.8-4.4 2.2V320v16 4.9l4.4 2.2L432 356.9v86.1l-27.6 13.8-4.4 2.2V464v32H48V464v-4.9l-4.4-2.2L16 443.1V356.9l27.6-13.8 4.4-2.2V336 320v-4.9l-4.4-2.2L16 299.1V212.9l27.6-13.8 4.4-2.2V192 176v-4.9l-4.4-2.2L16 155.1V68.9L43.6 55.2 48 52.9V48zm64 32H336V432H112V80zM96 64V80 432v16h16H336h16V432 80 64H336 112 96z"/></svg>