<svg xmlns="http://www.w3.org/2000/svg" viewBox="0 0 512 512"><!--! Font Awesome Pro 6.5.1 by @fontawesome - https://fontawesome.com License - https://fontawesome.com/license (Commercial License) Copyright 2023 Fonticons, Inc. --><path d="M64 64h8H440h8V80h-8H328.7L403 256H504h8v16h-8l-94.2 0H392.4l-272.8 0 0 0H102.2l0 0H8 0V256H8 109L183.3 80H72 64V64zM200.7 80l-1.3 3.1L126.4 256H385.6l-73-172.9L311.3 80H200.7zM423.3 304l60.8 144H466.7L405.9 304h17.4zm-317.2 0L45.3 448H27.9L88.7 304h17.4z"/></svg>