<svg xmlns="http://www.w3.org/2000/svg" viewBox="0 0 640 512"><!--! Font Awesome Pro 6.5.1 by @fontawesome - https://fontawesome.com License - https://fontawesome.com/license (Commercial License) Copyright 2023 Fonticons, Inc. --><path d="M16 80V432H624V80H16zM0 64H16 624h16V80 432v16H624 16 0V432 80 64zm80 80v96H336V144H80zM64 128H80 336h16v16 96 16H336 80 64V240 144 128zm0 240h8H344h8v16h-8H72 64V368zm320 0h8H568h8v16h-8H392h-8V368zM96 288v32H64V288H96zm32 0h32v32H128V288zm96 0v32H192V288h32zm32 0h32v32H256V288zm96 32H320V288h32v32z"/></svg>