<svg xmlns="http://www.w3.org/2000/svg" viewBox="0 0 512 512"><!--! Font Awesome Pro 6.5.1 by @fontawesome - https://fontawesome.com License - https://fontawesome.com/license (Commercial License) Copyright 2023 Fonticons, Inc. --><path d="M224 457.4L16 249.4V48H217.4L400 230.6v50.7l-176 176zM416 224L224 32H16 0V48 256L212.7 468.7 224 480l11.3-11.3L416 288V224zM344 36.7L332.7 48l5.7 5.7L494.2 209.6v92.9L338.3 458.3l-5.7 5.7L344 475.3l5.7-5.7L507.9 311.4l2.3-2.3v-3.3V206.2v-3.3l-2.3-2.3L349.7 42.3 344 36.7zM152 144a40 40 0 1 0 -80 0 40 40 0 1 0 80 0zm-40-24a24 24 0 1 1 0 48 24 24 0 1 1 0-48z"/></svg>