<svg xmlns="http://www.w3.org/2000/svg" viewBox="0 0 640 512"><!--! Font Awesome Pro 6.5.1 by @fontawesome - https://fontawesome.com License - https://fontawesome.com/license (Commercial License) Copyright 2023 Fonticons, Inc. --><path d="M136 32v8V308.9l112-37.3V40 32h16v8V266.2l112-37.3V40 32h16v8V223.6l112-37.3V40 32h16v8V180.9l85.5-28.5 7.6-2.5 5.1 15.2-7.6 2.5L520 197.8V472v8H504v-8V203.1L392 240.4V472v8H376v-8V245.8L264 283.1V472v8H248v-8V288.4L136 325.8V472v8H120v-8V331.1L34.5 359.6l-7.6 2.5-5.1-15.2 7.6-2.5L120 314.2V40 32h16z"/></svg>