<svg xmlns="http://www.w3.org/2000/svg" viewBox="0 0 320 512"><!--! Font Awesome Pro 6.5.1 by @fontawesome - https://fontawesome.com License - https://fontawesome.com/license (Commercial License) Copyright 2023 Fonticons, Inc. --><path d="M294.2 296H278l24.8 161.5c-.4 .3-.9 .7-1.4 1c-5.5 3.9-14.1 9.4-26.1 15C251.3 484.5 213.6 496 160 496s-91.3-11.5-115.3-22.5c-12-5.5-20.6-11-26.1-15c-.5-.4-1-.7-1.4-1L42 296H25.8L0 464s48 48 160 48s160-48 160-48L294.2 296zM320 48s-48-48-160-48S0 48 0 48L25.8 216H42L17.2 54.5c.4-.3 .9-.7 1.4-1c5.5-3.9 14.1-9.4 26.1-15C68.7 27.5 106.4 16 160 16s91.3 11.5 115.3 22.5c12 5.5 20.6 11 26.1 15c.5 .4 1 .7 1.4 1L278 216h16.2L320 48zM8 248v16h8H143.6l-46 59.1-4.9 6.3 12.6 9.8 4.9-6.3L160 269l49.7 63.9 4.9 6.3 12.6-9.8-4.9-6.3-46-59.1H304h8V248h-8H160 16 8zM168 64H152v8V216h8 8V72 64zm-8 258.7l-8 10.7V440v8h16v-8V333.3l-8-10.7zM88 79.3l-.7-8L71.3 72.8l.7 8L84.3 216h16.1L88 79.3zm6.9 277.9l-15-11.3L72 431.3l-.7 8 15.9 1.4 .7-8 6.9-75.6zm145.4-11.3l-15 11.3 6.9 75.6 .7 8 15.9-1.4-.7-8-7.8-85.4zM219.6 216h16.1L248 80.7l.7-8-15.9-1.4-.7 8L219.6 216z"/></svg>