<svg xmlns="http://www.w3.org/2000/svg" viewBox="0 0 576 512"><!--! Font Awesome Pro 6.5.1 by @fontawesome - https://fontawesome.com License - https://fontawesome.com/license (Commercial License) Copyright 2023 Fonticons, Inc. --><path d="M344 113.5c0-5.2-2.9-14.5-9.5-27.4c-6.3-12.2-14.8-25.6-23.6-38.2c-8.2-11.7-16.4-22.5-22.9-30.6c-6.4 8.1-14.7 18.9-22.9 30.6c-8.8 12.6-17.3 25.9-23.6 38.2c-6.6 12.9-9.5 22.2-9.5 27.4c0 27.5 24.1 51.5 56 51.5s56-24 56-51.5zm-128 0c0-28.4 41.8-84 61.7-108.9C283.9-3.2 288-8 288-8s4.1 4.8 10.3 12.6C318.2 29.5 360 85.1 360 113.5c0 37.3-32.2 67.5-72 67.5s-72-30.2-72-67.5zM16 128H193.3c.9 5.5 2.3 10.9 4.1 16L16 144l0 352 384 0 0-152v-8h8H560V144l-181.5 0c1.8-5.1 3.2-10.5 4.1-16H560h16v16V352L416 512H16 0V496 144 128H16zM553.4 352H416l0 137.4L553.4 352zM72 216a16 16 0 1 0 32 0 16 16 0 1 0 -32 0zm16 32a32 32 0 1 1 0-64 32 32 0 1 1 0 64z"/></svg>