<svg xmlns="http://www.w3.org/2000/svg" viewBox="0 0 512 512"><!--! Font Awesome Pro 6.5.1 by @fontawesome - https://fontawesome.com License - https://fontawesome.com/license (Commercial License) Copyright 2023 Fonticons, Inc. --><path d="M168 0h-8V8 64H112h-6l-1.7 5.7L58 224H16 0v16V416v16 64 16H16 80 96V496 432H416v64 16h16 64 16V496 432 416 240 224H496 454L407.7 69.7 406 64h-6H352V8 0h-8H168zM496 416H432 416 96 80 16V240H496V416zm-64 16h64v64H432V432zM16 432H80v64H16V432zM336 64H176V16H336V64zM160 80h16H336h16 42l43.2 144H74.8L118 80h42zM96 304a16 16 0 1 1 0 32 16 16 0 1 1 0-32zm0 48a32 32 0 1 0 0-64 32 32 0 1 0 0 64zm304-32a16 16 0 1 1 32 0 16 16 0 1 1 -32 0zm48 0a32 32 0 1 0 -64 0 32 32 0 1 0 64 0z"/></svg>