<svg xmlns="http://www.w3.org/2000/svg" viewBox="0 0 640 512"><!--! Font Awesome Pro 6.5.1 by @fontawesome - https://fontawesome.com License - https://fontawesome.com/license (Commercial License) Copyright 2023 Fonticons, Inc. --><path d="M16 104V76.9C27.1 57.7 76.3 16 192 16s164.9 41.7 176 60.9V96h16V74.9 73l-.8-1.7C370.1 45.2 313.9 0 192 0S13.9 45.2 .8 71.3L0 73v1.9V409.5v8H8 32V464v16H48 96h16V464 417.5H224v-16H112V400H96 48 32v1.5H16V248H192h86.1l4.6-16H200V120H336V104H192 16zm0 16H184V232H16V120zM48 417.5H96V464H48V417.5zM96 336a16 16 0 1 1 0-32 16 16 0 1 1 0 32zM64 320a32 32 0 1 0 64 0 32 32 0 1 0 -64 0zM384 144v32H512V144H384zm-16 32V144 128h16H512h16v16 32h24 6l1.7 5.8L590 288h34 16v16V432v16 48 16H624 576 560V496 448H336v48 16H320 272 256V496 448 432 304 288h16 34l30.3-106.2L338 176h6 24zM560 432h16 48V304H272V432h48 16H560zm16 16v48h48V448H576zm-304 0v48h48V448H272zM528 192H512 384 368 350l-27.4 96H573.4L546 192H528zM320 368a16 16 0 1 0 32 0 16 16 0 1 0 -32 0zm16 32a32 32 0 1 1 0-64 32 32 0 1 1 0 64zm224-48a16 16 0 1 0 0 32 16 16 0 1 0 0-32zm32 16a32 32 0 1 1 -64 0 32 32 0 1 1 64 0z"/></svg>