<svg xmlns="http://www.w3.org/2000/svg" viewBox="0 0 512 512"><!--! Font Awesome Pro 6.5.1 by @fontawesome - https://fontawesome.com License - https://fontawesome.com/license (Commercial License) Copyright 2023 Fonticons, Inc. --><path d="M96 256.8l-7.1 4.8C54.6 284.6 32 323.7 32 368c0 70.7 57.3 128 128 128s128-57.3 128-128c0-44.4-22.6-83.5-56.9-106.5l-7.1-4.8v-8.5V16H96V248.3v8.5zM224 0h16V16 248.3c38.6 25.8 64 69.8 64 119.8c0 79.5-64.5 144-144 144S16 447.6 16 368c0-49.9 25.4-93.9 64-119.8V16 0H96 224zM160 416a48 48 0 1 0 0-96 48 48 0 1 0 0 96zm0-112a64 64 0 1 1 0 128 64 64 0 1 1 0-128zM328 32H504h8V48h-8H328h-8V32h8zm0 128H504h8v16h-8H328h-8V160h8zm32 128H504h8v16h-8H360h-8V288h8z"/></svg>