<svg xmlns="http://www.w3.org/2000/svg" viewBox="0 0 512 512"><!--! Font Awesome Pro 6.5.1 by @fontawesome - https://fontawesome.com License - https://fontawesome.com/license (Commercial License) Copyright 2023 Fonticons, Inc. --><path d="M416 16a48 48 0 1 1 0 96 48 48 0 1 1 0-96zm0 112A64 64 0 1 0 416 0a64 64 0 1 0 0 128zM104.9 261.6l7.1-4.8v-8.5V16H240V248.3v8.5l7.1 4.8c34.3 23 56.9 62.1 56.9 106.5c0 70.7-57.3 128-128 128s-128-57.3-128-128c0-44.4 22.6-83.5 56.9-106.5zM256 0H240 112 96V16 248.3C57.4 274.1 32 318.1 32 368c0 79.5 64.5 144 144 144s144-64.5 144-144c0-49.9-25.4-93.9-64-119.8V16 0zM128 368a48 48 0 1 1 96 0 48 48 0 1 1 -96 0zm112 0c0-32.6-24.4-59.6-56-63.5V72 64H168v8V304.5c-31.6 3.9-56 30.9-56 63.5c0 35.3 28.7 64 64 64s64-28.7 64-64z"/></svg>