<svg xmlns="http://www.w3.org/2000/svg" viewBox="0 0 576 512"><!--! Font Awesome Pro 6.5.1 by @fontawesome - https://fontawesome.com License - https://fontawesome.com/license (Commercial License) Copyright 2023 Fonticons, Inc. --><path d="M565.4 90.1l6.4 5.9-6.4 5.9-96 88-10.8-11.8L539.4 104 36.6 104l80.8 74.1-10.8 11.8-96-88L4.2 96l6.4-5.9 96-88 10.8 11.8L36.6 88l502.9 0L458.6 13.9 469.4 2.1l96 88zM80.2 512H64l2.3-16L96 288 288 160 480 288l29.7 208 2.3 16H495.8 80.2zm305.6-16L296 348.5V496h89.8zM280 184.6L110.8 297.3 82.4 496H280V184.6zM465.2 297.3L296 184.6V317.8L404.5 496h89.1L465.2 297.3z"/></svg>