<svg xmlns="http://www.w3.org/2000/svg" viewBox="0 0 576 512"><!--! Font Awesome Pro 6.5.1 by @fontawesome - https://fontawesome.com License - https://fontawesome.com/license (Commercial License) Copyright 2023 Fonticons, Inc. --><path d="M203.3 128.6l-10.7-11.9-5.9 5.4L120 182 120 8V0H104V8l0 174-66.6-60-5.9-5.4L20.7 128.6l5.9 5.4 80 72 5.4 4.8 5.4-4.8 80-72 5.9-5.4zM64 512H80.2 495.8 512l-2.3-16L480 288 288 160 96 288 66.3 496 64 512zm232-16V348.5L385.8 496H296zm-16 0H82.4l28.4-198.7L280 184.6V496zm16-311.4L465.2 297.3 493.6 496H404.5L296 317.8V184.6zm253.4-50.6l5.9-5.4-10.7-11.9-5.9 5.4L472 182V8 0H456V8 182l-66.6-60-5.9-5.4-10.7 11.9 5.9 5.4 80 72 5.4 4.8 5.4-4.8 80-72z"/></svg>