<svg xmlns="http://www.w3.org/2000/svg" viewBox="0 0 640 512"><!--! Font Awesome Pro 6.5.1 by @fontawesome - https://fontawesome.com License - https://fontawesome.com/license (Commercial License) Copyright 2023 Fonticons, Inc. --><path d="M236.1 120L416 0 608 128l29.5 192 2.5 16H623.8 463.3L461 320H621.4L593.3 137.4 416 19.2 250.5 129.6l-4.3-2.9L236.1 120zM16.2 512H0l2.3-16L32 288 224 160 416 288l29.7 208 2.3 16H431.8 16.2zm305.6-16L232 348.5V496h89.8zM216 184.6L46.8 297.3 18.4 496H216V184.6zM401.2 297.3L232 184.6V317.8L340.5 496h89.1L401.2 297.3z"/></svg>