<svg xmlns="http://www.w3.org/2000/svg" viewBox="0 0 640 512"><!--! Font Awesome Pro 6.5.1 by @fontawesome - https://fontawesome.com License - https://fontawesome.com/license (Commercial License) Copyright 2023 Fonticons, Inc. --><path d="M16.2 5L9.9 0 0 12.5l6.3 5L623.8 507l6.3 5 9.9-12.5-6.3-5L16.2 5zM348.8 187L390 48H557.8l-16 64h16.5l17.5-70.1 2.5-9.9H568 384.2h-.4H168h-6.2l-1.5 6.1 0 .1L174 49l.2-1h199l-38 128.3L348.8 187zM304.7 335.7L291.2 325 250 464H168h-8v16h8 87.8 .4H344h8V464h-8H266.7l38-128.3z"/></svg>