<svg xmlns="http://www.w3.org/2000/svg" viewBox="0 0 448 512"><!--! Font Awesome Pro 6.5.1 by @fontawesome - https://fontawesome.com License - https://fontawesome.com/license (Commercial License) Copyright 2023 Fonticons, Inc. --><path d="M8 32H0v8 64 8H16v-8V48H216l0 224H160h-8v16h8 64 64 8V272h-8H232l0-224H432v56 8h16v-8V40 32h-8H224 8zM442.1 389.7l5.7-5.7-5.7-5.7-80-80-5.7-5.7L345.2 304l5.7 5.7L417.2 376 30.5 376l66.3-66.3 5.7-5.7L91.2 292.7l-5.7 5.7-80 80L-.1 384l5.7 5.7 80 80 5.7 5.7L102.5 464l-5.7-5.7L30.5 392l386.6 0-66.3 66.3-5.7 5.7 11.3 11.3 5.7-5.7 80-80z"/></svg>