<svg xmlns="http://www.w3.org/2000/svg" viewBox="0 0 576 512"><!--! Font Awesome Pro 6.5.1 by @fontawesome - https://fontawesome.com License - https://fontawesome.com/license (Commercial License) Copyright 2023 Fonticons, Inc. --><path d="M485.7 37.5L480 31.9l-5.7 5.7-80 80-5.7 5.7L400 134.5l5.7-5.7L472 62.5l0 387-66.3-66.3-5.7-5.7-11.3 11.3 5.7 5.7 80 80 5.7 5.7 5.7-5.7 80-80 5.7-5.7L560 377.5l-5.7 5.7L488 449.5l0-387 66.3 66.3 5.7 5.7 11.3-11.3-5.7-5.7-80-80zM8 32H0v8 64 8H16v-8V48H152l0 416H72 64v16h8 88 88 8V464h-8H168l0-416H304v56 8h16v-8V40 32h-8H8z"/></svg>