<svg xmlns="http://www.w3.org/2000/svg" viewBox="0 0 512 512"><!--! Font Awesome Pro 6.5.1 by @fontawesome - https://fontawesome.com License - https://fontawesome.com/license (Commercial License) Copyright 2023 Fonticons, Inc. --><path d="M145.1 80h9.2l4.6-8c19.4-33.5 55.6-56 97-56s77.6 22.5 97 56l4.6 8h9.2H368c70.7 0 128 57.3 128 128s-57.3 128-128 128H334.4h-6.5l-4.7 4.6c-17.3 17-41 27.4-67.2 27.4s-49.9-10.4-67.2-27.4l-4.7-4.6h-6.5H144C73.3 336 16 278.7 16 208S73.3 80 144 80h1.1zM256 0c-47.4 0-88.7 25.7-110.9 64H144C64.5 64 0 128.5 0 208s64.5 144 144 144h33.6c20.2 19.8 47.9 32 78.4 32s58.2-12.2 78.4-32H368c79.5 0 144-64.5 144-144s-64.5-144-144-144h-1.1C344.7 25.7 303.4 0 256 0zM168 456H120V408h48v48zm-48-64H104v16 48 16h16 48 16V456 408 392H168 120zM48 464v32H16V464H48zM16 448H0v16 32 16H16 48 64V496 464 448H48 16z"/></svg>