<svg xmlns="http://www.w3.org/2000/svg" viewBox="0 0 384 512"><!--! Font Awesome Pro 6.5.1 by @fontawesome - https://fontawesome.com License - https://fontawesome.com/license (Commercial License) Copyright 2023 Fonticons, Inc. --><path d="M295.4 201.1l6 4.3c23.6 17.2 40.4 39.7 51.3 60.5C363.9 287.2 368 305 368 312v24H200V232v-8H184v8V336H16V312v0c0-9.4 4.3-28 15.3-49c10.9-20.7 27.6-42.4 51.2-58.9l6.2-4.3 .6-7.5L102.8 16H281.2l13.7 177.7 .6 7.3zM200 352H368h16V336 312c0-21.3-21.3-81.6-73.2-119.5L297.2 16H336h8V0h-8H296 88 48 40V16h8H86.8L73.3 191C21.3 227.5 0 286.4 0 312v24 16H16 184V504v8h16v-8V352z"/></svg>