<svg xmlns="http://www.w3.org/2000/svg" viewBox="0 0 512 512"><!--! Font Awesome Pro 6.5.1 by @fontawesome - https://fontawesome.com License - https://fontawesome.com/license (Commercial License) Copyright 2023 Fonticons, Inc. --><path d="M256 32h8 80 8v8V91.2c0 29.7-6.4 58.6-18.1 84.9H448h48 8v8 96 8h-8-8v56 8h-8-8v56 8h-8H440v56 8h-8H384 272 257.1h-2.5l-2.1-1.4-12.3-8.5L160 414.8V395.4l89.3 61.6 10.3 7.1H272 384h40V408v-8h8 24V344v-8h8 8V280v-8h8 8V192H448 321.1 307.9l6.1-11.7c14.2-27 21.9-57.5 21.9-89.1V48H272V91.2c0 45.9-24.6 88.3-64.5 111.1l-30 17.2-.6 .3-.6 .2L160 226v-17l10.1-3.7 29.5-16.8c34.9-19.9 56.4-57.1 56.4-97.2V40 32zM16 208V464h96V208H16zM0 192H16h96 16v16V464v16H112 16 0V464 208 192z"/></svg>