<svg xmlns="http://www.w3.org/2000/svg" viewBox="0 0 512 512"><!--! Font Awesome Pro 6.5.1 by @fontawesome - https://fontawesome.com License - https://fontawesome.com/license (Commercial License) Copyright 2023 Fonticons, Inc. --><path d="M256 480h8 80 8v-8V420.9c0-29.7-6.4-58.6-18.1-84.9H448h48 8v-8V232v-8h-8-8V168v-8h-8-8V104 96h-8H440V40 32h-8H384 272 257.1h-2.5l-2.1 1.4-12.3 8.5L160 97.2v19.4l89.3-61.6L259.5 48H272 384h40v56 8h8 24v56 8h8 8v56 8h8 8v80H448 321.1 307.9l6.1 11.7c14.2 27 21.9 57.5 21.9 89.1V464H272V420.9c0-45.9-24.6-88.3-64.5-111.1l-30-17.2-.6-.3-.6-.2L160 286.1v17l10.1 3.7 29.5 16.8c34.9 19.9 56.4 57 56.4 97.2V472v8zM16 368V112h96V368H16zM0 384H16h96 16V368 112 96H112 16 0v16V368v16z"/></svg>