<svg xmlns="http://www.w3.org/2000/svg" viewBox="0 0 576 512"><!--! Font Awesome Pro 6.5.1 by @fontawesome - https://fontawesome.com License - https://fontawesome.com/license (Commercial License) Copyright 2023 Fonticons, Inc. --><path d="M0 64V80 192v16c26.5 0 48 21.5 48 48s-21.5 48-48 48v16V432v16H16 560h16V432 320 304c-26.5 0-48-21.5-48-48s21.5-48 48-48V192 80 64H560 16 0zM64 256c0-29.8-20.4-54.9-48-62V80H560V194c-27.6 7.1-48 32.2-48 62s20.4 54.9 48 62V432H16V318c27.6-7.1 48-32.2 48-62zm80-80H432V336H144V176zm-16-16v16V336v16h16H432h16V336 176 160H432 144 128z"/></svg>