<svg xmlns="http://www.w3.org/2000/svg" viewBox="0 0 640 512"><!--! Font Awesome Pro 6.5.1 by @fontawesome - https://fontawesome.com License - https://fontawesome.com/license (Commercial License) Copyright 2023 Fonticons, Inc. --><path d="M0 64V80 432v16H16 624h16V432 336 320H624c-26.5 0-48-21.5-48-48s21.5-48 48-48h16V208 80 64H624 16 0zM624 432H16V80H624V208c-35.3 0-64 28.7-64 64s28.7 64 64 64v96zM480 160a16 16 0 1 0 -32 0 16 16 0 1 0 32 0zm0 64a16 16 0 1 0 -32 0 16 16 0 1 0 32 0zm-16 80a16 16 0 1 0 0-32 16 16 0 1 0 0 32zm16 48a16 16 0 1 0 -32 0 16 16 0 1 0 32 0z"/></svg>