<svg xmlns="http://www.w3.org/2000/svg" viewBox="0 0 640 512"><!--! Font Awesome Pro 6.5.1 by @fontawesome - https://fontawesome.com License - https://fontawesome.com/license (Commercial License) Copyright 2023 Fonticons, Inc. --><path d="M112 48V368H624V270c-27.6-7.1-48-32.2-48-62s20.4-54.9 48-62V48H112zM640 160c-26.5 0-48 21.5-48 48s21.5 48 48 48v16 96 16H624 112 96V368 48 32h16H624h16V48v96 16zM480 112a16 16 0 1 1 32 0 16 16 0 1 1 -32 0zm0 64a16 16 0 1 1 32 0 16 16 0 1 1 -32 0zm16 48a16 16 0 1 1 0 32 16 16 0 1 1 0-32zm-16 80a16 16 0 1 1 32 0 16 16 0 1 1 -32 0zM16 88v8V464H552h8v16h-8H8 0v-8V96 88H16zm224 0h56 4.6l2.3 4 44.4 76h43.7c18.2 0 35.6 7.2 48.5 20.1c11 11 11 28.8 0 39.9c-12.9 12.9-30.3 20.1-48.5 20.1H339.3l-44.4 76-2.3 4H288 232 220.9l3.5-10.5L247.6 248H220l-21.6 28.8L196 280h-4H160 149.8l2.5-9.9L167.8 208l-15.5-62.1-2.5-9.9H160h32 4l2.4 3.2L220 168h35.6L232.4 98.5 228.9 88H240zm34.3 85.5l3.5 10.5H266.7 216h-4l-2.4-3.2L188 152H170.2l13.5 54.1 .5 1.9-.5 1.9L170.2 264H188l21.6-28.8L212 232h4 42.7 11.1l-3.5 10.5L243.1 312h40.3l44.4-76 2.3-4h4.6 56.3c13.9 0 27.3-5.5 37.1-15.4c4.8-4.8 4.8-12.5 0-17.2c-9.9-9.9-23.2-15.4-37.1-15.4H342.7h-4.6l-2.3-4-44.4-76H251.1l23.2 69.5z"/></svg>