<svg xmlns="http://www.w3.org/2000/svg" viewBox="0 0 640 512"><!--! Font Awesome Pro 6.5.1 by @fontawesome - https://fontawesome.com License - https://fontawesome.com/license (Commercial License) Copyright 2023 Fonticons, Inc. --><path d="M624 48v98c-27.6 7.1-48 32.2-48 62s20.4 54.9 48 62v98H112V48H624zm16 96V48 32H624 112 96V48 368v16h16H624h16V368 272 256c-26.5 0-48-21.5-48-48s21.5-48 48-48V144zM496 128a16 16 0 1 0 0-32 16 16 0 1 0 0 32zm0 64a16 16 0 1 0 0-32 16 16 0 1 0 0 32zm16 48a16 16 0 1 0 -32 0 16 16 0 1 0 32 0zm-16 80a16 16 0 1 0 0-32 16 16 0 1 0 0 32zM16 96V88H0v8V472v8H8 552h8V464h-8H16V96z"/></svg>