<svg xmlns="http://www.w3.org/2000/svg" viewBox="0 0 640 512"><!--! Font Awesome Pro 6.5.1 by @fontawesome - https://fontawesome.com License - https://fontawesome.com/license (Commercial License) Copyright 2023 Fonticons, Inc. --><path d="M96 48V32h16H624h16V48v96 16c-26.5 0-48 21.5-48 48s21.5 48 48 48v16 96 16H624 112 96V368 272 256c26.5 0 48-21.5 48-48s-21.5-48-48-48V144 48zm16 98c27.6 7.1 48 32.2 48 62s-20.4 54.9-48 62v98H624V270c-27.6-7.1-48-32.2-48-62s20.4-54.9 48-62V48H112v98zM16 88v8V464H552h8v16h-8H8 0v-8V96 88H16zm208 40V288H512V128H224zm-16-16h16H512h16v16V288v16H512 224 208V288 128 112z"/></svg>