<svg xmlns="http://www.w3.org/2000/svg" viewBox="0 0 640 512"><!--! Font Awesome Pro 6.5.1 by @fontawesome - https://fontawesome.com License - https://fontawesome.com/license (Commercial License) Copyright 2023 Fonticons, Inc. --><path d="M96 32V48v96 16c26.5 0 48 21.5 48 48s-21.5 48-48 48v16 96 16h16H624h16V368 272 256c-26.5 0-48-21.5-48-48s21.5-48 48-48V144 48 32H624 112 96zm64 176c0-29.8-20.4-54.9-48-62V48H624v98c-27.6 7.1-48 32.2-48 62s20.4 54.9 48 62v98H112V270c27.6-7.1 48-32.2 48-62zM16 96V88H0v8V472v8H8 552h8V464h-8H16V96z"/></svg>