<svg xmlns="http://www.w3.org/2000/svg" viewBox="0 0 640 512"><!--! Font Awesome Pro 6.5.1 by @fontawesome - https://fontawesome.com License - https://fontawesome.com/license (Commercial License) Copyright 2023 Fonticons, Inc. --><path d="M0 80V64H16 624h16V80 208v16H624c-26.5 0-48 21.5-48 48s21.5 48 48 48h16v16 96 16H624 16 0V432 80zM16 432H624V336c-35.3 0-64-28.7-64-64s28.7-64 64-64V80H16V432zM464 144a16 16 0 1 1 0 32 16 16 0 1 1 0-32zm0 64a16 16 0 1 1 0 32 16 16 0 1 1 0-32zm-16 80a16 16 0 1 1 32 0 16 16 0 1 1 -32 0zm16 48a16 16 0 1 1 0 32 16 16 0 1 1 0-32zM176 128h56 4.6l2.3 4 49 84h39c18.2 0 35.6 7.2 48.5 20.1c11 11 11 28.8 0 39.9c-12.9 12.9-30.3 20.1-48.5 20.1h-39l-49 84-2.3 4H232 176 164.9l3.5-10.5L194.2 296H156l-21.6 28.8L132 328h-4H96 85.8l2.5-9.9L103.8 256 88.2 193.9 85.8 184H96h32 4l2.4 3.2L156 216h38.2l-25.8-77.5L164.9 128H176zm36.9 93.5l3.5 10.5H205.3 152h-4l-2.4-3.2L124 200H106.2l13.5 54.1 .5 1.9-.5 1.9L106.2 312H124l21.6-28.8L148 280h4 53.3 11.1l-3.5 10.5L187.1 368h40.3l49-84 2.3-4h4.6 43.6c13.9 0 27.3-5.5 37.1-15.4c4.8-4.8 4.8-12.5 0-17.2c-9.9-9.9-23.2-15.4-37.1-15.4H283.3h-4.6l-2.3-4-49-84H187.1l25.8 77.5z"/></svg>