<svg xmlns="http://www.w3.org/2000/svg" viewBox="0 0 640 512"><!--! Font Awesome Pro 6.5.1 by @fontawesome - https://fontawesome.com License - https://fontawesome.com/license (Commercial License) Copyright 2023 Fonticons, Inc. --><path d="M112 32v96h96V32H112zM96 16h16 96 16V32v96 16H208 168V256H472V144H432 416V128 32 16h16 96 16V32v96 16H528 488V256H632h8v16h-8H328v96h40 16v16 96 16H368 272 256V480 384 368h16 40V272H8 0V256H8 152V144H112 96V128 32 16zM528 128V32H432v96h40 16 40zM272 384v96h96V384H272z"/></svg>