<svg xmlns="http://www.w3.org/2000/svg" viewBox="0 0 640 512"><!--! Font Awesome Pro 6.5.1 by @fontawesome - https://fontawesome.com License - https://fontawesome.com/license (Commercial License) Copyright 2023 Fonticons, Inc. --><path d="M176 32v96H80V32h96zM80 16H64V32v96 16H80h40V248H8 0v16H8 120h16 80V368H176 160v16 96 16h16 96 16V480 384 368H272 232V264H604.7l-66.3 66.3-5.7 5.7L544 347.3l5.7-5.7 80-80 5.7-5.7-5.7-5.7-80-80-5.7-5.7L532.7 176l5.7 5.7L604.7 248H360V144h40 16V128 32 16H400 304 288V32v96 16h16 40V248H136V144h40 16V128 32 16H176 80zM360 128H344 304V32h96v96H360zM176 384h96v96H176V384z"/></svg>