<svg xmlns="http://www.w3.org/2000/svg" viewBox="0 0 576 512"><!--! Font Awesome Pro 6.5.1 by @fontawesome - https://fontawesome.com License - https://fontawesome.com/license (Commercial License) Copyright 2023 Fonticons, Inc. --><path d="M0 0H8 248h8V8 504v8H240v-8V464H16v40 8H0v-8V8 0zM240 112H16V448H240V112zm0-16V16H16V96H240zM176 216h8 32 8v16h-8H192v80h24 8v16h-8H184h-8v-8V224v-8zM320 0h8H568h8V8 504v8H560v-8V464H336v40 8H320v-8V8 0zM560 112H336V448H560V112zm0-16V16H336V96H560zM496 216h8 32 8v16h-8H512v80h24 8v16h-8H504h-8v-8V224v-8z"/></svg>