<svg xmlns="http://www.w3.org/2000/svg" viewBox="0 0 512 512"><!--! Font Awesome Pro 6.5.1 by @fontawesome - https://fontawesome.com License - https://fontawesome.com/license (Commercial License) Copyright 2023 Fonticons, Inc. --><path d="M136 40h8H368h8v8 80h56l80 80V312v16V464v16H496 16 0V464 328 312 208l80-80h56V48 40zM16 328V464H496V328H352v48 8H336v-8V328H176v48 8H160v-8V328H16zm480-16V214.6L425.4 144H376 360 152 136 86.6L16 214.6V312H160V264v-8h16v8 48H336V264v-8h16v8 48H496zM360 56H152v72H360V56z"/></svg>