<svg xmlns="http://www.w3.org/2000/svg" viewBox="0 0 576 512"><!--! Font Awesome Pro 6.5.1 by @fontawesome - https://fontawesome.com License - https://fontawesome.com/license (Commercial License) Copyright 2023 Fonticons, Inc. --><path d="M16 160c0-26.5 21.5-48 48-48H288c11.8 0 22.2-2.6 30.9-8.3c8.7-5.7 14.3-13.5 17.9-21.8c4.4-10.2 6.2-22 6.8-33.1c20.8 2.3 41 9.1 56.7 20.1c19.2 13.4 31.6 32.8 31.6 59c0 44.2-35.8 80-80 80H16V160zM344 32.8c-5.3-.5-10.7-.8-16-.8c0 30.8-2.3 64-40 64H64C28.7 96 0 124.7 0 160v48 16H16 352c53 0 96-43 96-96c0-58.4-51.6-89.9-104-95.2zM64 264v-8H48v8V416H8 0v8 48 8H8 568h8V464h-8H16V432H56h64 64 64 64 64H568h8V416h-8H384V264v-8H368v8V416H320V264v-8H304v8V416H256V264v-8H240v8V416H192V264v-8H176v8V416H128V264v-8H112v8V416H64V264z"/></svg>