<svg xmlns="http://www.w3.org/2000/svg" viewBox="0 0 512 512"><!--! Font Awesome Pro 6.5.1 by @fontawesome - https://fontawesome.com License - https://fontawesome.com/license (Commercial License) Copyright 2023 Fonticons, Inc. --><path d="M416 48h2.6l2.5-.8 74.9-25v95L428.9 144H416l-152 0H248L96 144H83.1L16 117.2v-95l74.9 25 2.5 .8H96 416zM248 160v80L96 240V160H248zM80 256V504v8H96v-8V256l160 0 160 0V504v8h16v-8V256h72 8V240h-8H432V160l80-32V16.9 0L496 5.3 416 32H96L16 5.3 0 0V16.9 128l80 32v80H8 0v16H8 80zm336-16l-152 0V160H416v80z"/></svg>