<svg xmlns="http://www.w3.org/2000/svg" viewBox="0 0 512 512"><!--! Font Awesome Pro 6.5.1 by @fontawesome - https://fontawesome.com License - https://fontawesome.com/license (Commercial License) Copyright 2023 Fonticons, Inc. --><path d="M256 7l3.7 1.9L411.3 88H416v2.5l27.7 14.5 7.1 3.7-7.4 14.2-7.1-3.7L416 108.5V216v8h-8H345.7l52.9 272H504h8v16h-8H392.1h-.3H120.2h-.3H8 0V496H8 113.4l52.9-272H104 96v-8V108.5L75.7 119.1l-7.1 3.7-7.4-14.2 7.1-3.7L96 90.5V88h4.7L252.3 8.9 256 7zm0 18L112 100.2V208h63.8 .3H335.9h.3H400V100.2L256 25zM382.3 496L377 468.7 256 373.6 135 468.7 129.7 496H382.3zM170.5 286.1L256 353.3l85.5-67.2L329.4 224H182.6l-12.1 62.1zm-3.4 17.7L139.7 444.6l103.4-81.2-76-59.7zm101.9 59.7l103.4 81.2L344.9 303.7l-76 59.7zM160 112v48H352V112H160zM144 96h16H352h16v16 48 16H352 160 144V160 112 96z"/></svg>