<svg xmlns="http://www.w3.org/2000/svg" viewBox="0 0 448 512"><!--! Font Awesome Pro 6.5.1 by @fontawesome - https://fontawesome.com License - https://fontawesome.com/license (Commercial License) Copyright 2023 Fonticons, Inc. --><path d="M169 0h-8V16h8 48V80H137h-8v8 40H17 6.6l2.6 10L56.7 320H48 32v16 32 16H48 81V504v8H97v-8V384H353V504v8h16v-8V384h31 16V368 336 320H400h-6.8l47.5-182 2.6-10H433 321V88 80h-8H233V16h48 8V0h-8H225 169zM376.7 320H321V168.1l0-.1V144H422.6L377.2 318l-.5 2zM305 320H145V168.1l0-.1V144H305v15.9l0 .1V320zm-176 0H73.2l-.5-2L27.3 144H129v15.9l0 .1V320zM305 128H145V96H305v32zm8 208h87v32H369 353 97 81 48V336h89H313z"/></svg>