<svg xmlns="http://www.w3.org/2000/svg" viewBox="0 0 640 512"><!--! Font Awesome Pro 6.5.1 by @fontawesome - https://fontawesome.com License - https://fontawesome.com/license (Commercial License) Copyright 2023 Fonticons, Inc. --><path d="M104 0H96V8 136v8h16v-8V16H282.8l64.8 144h-.9-1-1-1-1-1-1-1-1-1-1-1-1-1-1-1-1-1-1-1-1-1-1-1-1-1-1-1-1-1-1-1-1-1-1-1-1-8v16h8 1 1 1 1 1 1 1 1 1 1 1 1 1 1 1 1 1 1 1 1 1 1 1 1 1 1 1 1 1 1 1 1 1 1 1 1 1 1 1 1 1 1 1 1 1 1 1 1 1 1 1 .9 .9 .9 .9 .9 .9 .9 .9 .9 .9 .9 .9 .9 .9 .9 .9 .9 .9 .9 .9 .9 .9 .9 .9 .9 .9 .9 .9 .9 .9 .9 .9 .9 .9 .9 .9 .9 .9 .9 .9 .9 .9 .9 .9 .9 .9 .9 .9 .9 .9 .9 .9 .9 .9 .9 .9 .9 .9 .9 .9 .9 .9 .9 .9 .9 .9 .9 .9 .9 .9 .9 .9 .9 .9 .9 .9 .9 .9 .9 .9 .9 .9 .9 .9 .9 .9 .9 .9 .9 .9 .9 .9 .9 .9 .9 .9 .9 .9 .9 .9 .9 .9 .9 .9 .9 .9 .9 .8 .8 .8 .8 .8 .8 .8 .8 .8 .8 .8 .8 .8 .8 .8 .8 .8 .8 .8 .8 .8 .8 .8 .8 .8 .8 .8 .8 .8 .8 .8 .8 .8 .8 .8 .8 .8 .8 .8 .8 .8 .8 .8 .8 .8 .8 .8 .8 .8 .8 .8 .8 .8 .8 .8 .8 .7 .1 .8 .8 .8 .8 .8 .8 .8 .8 .8 .8 .8 .7 .7 .7 .7 .7 .7 .7 .7 .7 .7 .7 .7 .7 .7 .7 .7 .7 .7 .7 .7 .7 .7 .7 .7 .7 .7 .7 .7 .7 .7 .7 .7 .7 .7 .7 .7 .7 .7 .7 .7 .7 .7 .7 .7 .7 .7 .7 .7 .7 .7 .7 .7 .6 .6 .6 .6 .6 .6 .6 .6 .6 .6 .6 .6 .6 .6 .6 .6 .6 .6 .6 .6 .6 .6 .6 .6 .6 .6 .6 .6 .6 .6 .6 .6 .6 .6 .6 .6 .6 .6 .6 .6 .6 .6 .6 .6 .6 .6 .6 .5 .5 .5 .5 .5 .5 .5 .5 .5 .5 .5 .5 .5 .5 .5 .5 .5 .5 .5 .5 .5 .5 .5 .5 .5 .5 .5 .5 .5 .5 .5 .5 .5 .5 .5 .5 .5 .5 .5 .5 .4 .4 .4 .4 .4 .4 .4 .4 .4 .4 .4 .4 .4 .4 .4 .4 .4 .4 .4 .4 .4 .4 .4 .4 .4 .4 .4 .4 .4 .4 .4 .4 .4 .4 .4 .4 .4 .3 .3 .3 .3 .3 .3 .3 .3 .3 .3 .3 .3 .3 .3 .3 .3 .3 .3 .3 .3 .3 .3 .3 .3 .3 .3 .3 .3 .3 .3 .3 .3 .3 .3 .2 .2 .2 .2 .2 .2 .2 .1v84.4L557 320H352V290.2v-7.2l-7.2-.7-31.4-3.1 20-24.4 4.6-5.6-5.1-5.1-64.8-64.8-5.1-5.1-5.6 4.6-24.4 20-3.1-31.4-.7-7.2h-7.2H130.2h-7.2l-.7 7.2-3.1 31.4-24.4-20L89.1 174l-5.1 5.1L19.2 243.9 14 249.1l4.6 5.6 20 24.4L7.2 282.2 0 282.9v7.2 91.6 7.2l7.2 .7 31.4 3.1-20 24.4L14 422.9l5.1 5.1 64.8 64.8 5.1 5.1 5.6-4.6 24.4-20 3.1 31.4 .7 7.2h7.2 91.6 7.2l.7-7.2 3.1-31.4 24.4 20 5.6 4.6 5.1-5.1 64.8-64.8 5.1-5.1-4.6-5.6-20-24.4 31.4-3.1 7.2-.7v-7.2V336H560h3l2.3-2 72-64 2.7-2.4V264 168v-8h-8v8l0-8h0 0 0 0 0 0 0 0 0 0 0 0 0-.1-.1-.1-.1-.1-.1-.1-.1-.1H631h-.1-.1-.1-.1-.1-.1-.1-.1-.1H630h-.1-.1-.1-.1-.1-.1-.1H629h-.1-.1-.2-.2-.2H628h-.2-.2-.2-.2-.2H627h-.2-.2-.2-.2-.2-.2-.2-.2-.2H625h-.2-.2-.2-.2-.2-.2-.2-.2H623h-.2-.2-.2H622h-.3-.3-.3H621h-.3-.3-.3-.3-.3-.3H619h-.3-.3-.3-.3-.3-.3H617h-.3-.3H616h-.3-.3-.3-.3-.3-.3-.3-.3-.3-.3-.3H612h-.4-.4H611h-.4-.4-.4-.4-.4-.4-.4H608h-.4-.4-.4-.4-.4-.4-.4-.4-.4-.4-.4-.4-.4-.4H602h-.4-.4-.4-.4-.4-.4H599h-.4-.4-.4-.4-.5-.5-.5-.5-.5-.5H594h-.5H593h-.5-.5-.5-.5-.5-.5-.5-.5-.5-.5-.5-.5-.5-.5-.5-.5-.5-.5-.5-.5-.5H582h-.5H581h-.5-.5-.5-.5-.5-.5-.5-.6-.6-.6H575h-.6-.6-.6-.6-.6-.6H571h-.6-.6-.6-.6-.6-.6-.6-.6-.6-.6-.6H564h-.6-.6-.6-.6-.6-.6-.6-.6-.6-.6-.6-.6H556h-.6-.6-.6-.6-.6-.6-.6-.6-.6-.6-.6-.7-.7-.7-.7-.7H545h-.7-.7H543h-.7-.7-.7-.7-.7-.7-.7-.7-.7-.7-.7-.7-.7-.7-.7H532h-.7-.7-.7-.7-.7-.7H527h-.7-.7-.7-.7-.7-.7H522h-.7-.7-.7-.7-.7-.7-.7-.7-.7-.7-.7-.7-.7H512V75.3l29.7-29.7c3.1-3.1 3.1-8.2 0-11.3s-8.2-3.1-11.3 0l-32 32L496 68.7V72v88h-.5-.8H494h-.8-.8-.8-.8H490h-.8-.8-.8-.8H486h-.8-.8-.8-.8H482h-.8-.8-.8-.8-.8-.8-.8-.8-.8-.8H473h-.8-.8-.8-.8-.8H468h-.8-.8-.8-.8-.8H463h-.8-.8-.8-.8-.8-.8H457h-.9-.9-.9-.9-.9-.9-.9-.9-.9-.9-.9-.9-.9H445h-.9-.9-.9-.9-.9-.9-.9H438h-.9-.9-.9-.9-.9-.9-.9H431h-.9-.9-.9-.9-.9-.9-.9-.9H423h-.9-.9-.9-.9-.9-.9-.9-.9-.9-.9H413h-.9-.9-.9-.9-.9-.9-.9-.9-.9-.9H403h-.9-.9-.9-.9-.9-.9-.9-.9-.9-.9-.9H392 391h-.9-.9-.9-.9-.9-.9-.9-.9-.9-.9-.9-.9-.9H378 377h-.9-.9-.9-.9-.9-.9-.9-.9-.9-.9-.9-.9-.6L295.3 4.7 293.2 0H288 104zM336 320v16 38.6l-32.6 3.3-4.9 .5-1.8 4.6c-.7 1.8-1.4 3.5-2.2 5.3l-2 4.5 3.1 3.8 20.8 25.4-54.6 54.6-25.4-20.8-3.8-3.1-4.5 2c-1.7 .8-3.5 1.5-5.3 2.2l-4.6 1.8-.5 4.9L214.6 496H137.4l-3.3-32.6-.5-4.9-4.6-1.8c-1.8-.7-3.5-1.4-5.3-2.2l-4.5-2-3.8 3.1L90.1 476.4 35.6 421.9l20.8-25.4 3.1-3.8-2-4.5c-.8-1.7-1.5-3.5-2.2-5.3l-1.8-4.6-4.9-.5L16 374.6V297.4l32.6-3.3 4.9-.5 1.8-4.6c.7-1.8 1.4-3.5 2.2-5.3l2-4.5-3.1-3.8L35.6 250.1l54.6-54.6 25.4 20.8 3.8 3.1 4.5-2c1.7-.8 3.5-1.5 5.3-2.2l4.6-1.8 .5-4.9 3.3-32.6h77.2l3.3 32.6 .5 4.9 4.6 1.8c1.8 .7 3.5 1.4 5.3 2.2l4.5 2 3.8-3.1 25.4-20.8 54.6 54.6-20.8 25.4-3.1 3.8 2 4.5c.8 1.7 1.5 3.5 2.2 5.3l1.8 4.6 4.9 .5 32.6 3.3V320zm200 64a56 56 0 1 1 0 112 56 56 0 1 1 0-112zm0 128a72 72 0 1 0 0-144 72 72 0 1 0 0 144zM240 336a64 64 0 1 1 -128 0 64 64 0 1 1 128 0zm-64-80a80 80 0 1 0 0 160 80 80 0 1 0 0-160z"/></svg>