<svg xmlns="http://www.w3.org/2000/svg" viewBox="0 0 576 512"><!--! Font Awesome Pro 6.5.1 by @fontawesome - https://fontawesome.com License - https://fontawesome.com/license (Commercial License) Copyright 2023 Fonticons, Inc. --><path d="M397.8 32H380.9l21.3 64H173.8l21.3-64H178.2L156.9 96H112h-8v16h8 39.6L114.2 224H72 64v16h8 36.9L71.6 352H32 24v16h8H66.2L28.9 480H45.8L83.1 368H492.9l37.3 112h16.9L509.8 368H544h8V352h-8H504.4L467.1 240H504h8V224h-8H461.8L424.4 112H464h8V96h-8H419.1L397.8 32zm9.8 80l37.3 112H131.1l37.3-112H407.6zm42.7 128l37.3 112H88.4l37.3-112H450.2z"/></svg>