<svg xmlns="http://www.w3.org/2000/svg" viewBox="0 0 512 512"><!--! Font Awesome Pro 6.5.1 by @fontawesome - https://fontawesome.com License - https://fontawesome.com/license (Commercial License) Copyright 2023 Fonticons, Inc. --><path d="M256 16C123.5 16 16 123.5 16 256V504v8H0v-8V256C0 114.6 114.6 0 256 0S512 114.6 512 256V504v8H496v-8V256C496 123.5 388.5 16 256 16zM108.7 512l0 0 5.7-5.7L172.7 448H128 112V432 144 128h16H384h16v16V432v16H384 339.3l58.3 58.3 5.7 5.7H380.7l-64-64H195.3l-64 64H108.7zM128 432H384V144H128V432zm48-240H336h16v16 96 16H336 176 160V304 208 192h16zm96 184a16 16 0 1 0 -32 0 16 16 0 1 0 32 0zm64-168H176v96H336V208zM224 376a32 32 0 1 1 64 0 32 32 0 1 1 -64 0z"/></svg>