<svg xmlns="http://www.w3.org/2000/svg" viewBox="0 0 448 512"><!--! Font Awesome Pro 6.5.1 by @fontawesome - https://fontawesome.com License - https://fontawesome.com/license (Commercial License) Copyright 2023 Fonticons, Inc. --><path d="M16 16V432H432V16H16zM0 0H16 432h16V16 432v16H432 363.3l58.3 58.3 5.7 5.7H404.7l-64-64H107.3l-64 64H20.7l5.7-5.7L84.7 448H16 0V432 16 0zM224 272a48 48 0 1 1 0 96 48 48 0 1 1 0-96zm32 48a32 32 0 1 0 -64 0 32 32 0 1 0 64 0zM368 80H80V208H368V80zM80 64H368h16V80 208v16H368 80 64V208 80 64H80z"/></svg>