<svg xmlns="http://www.w3.org/2000/svg" viewBox="0 0 448 512"><!--! Font Awesome Pro 6.5.1 by @fontawesome - https://fontawesome.com License - https://fontawesome.com/license (Commercial License) Copyright 2023 Fonticons, Inc. --><path d="M48 0H44.2L41.8 3 9.8 43l-5 6.2 12.5 10 5-6.2L51.8 16H216V96H80 64v16V432v16H80h36.7L58.3 506.3 52.7 512l0 0H75.3l64-64H308.7l64 64h22.6l-5.7-5.7L331.3 448H368h16V432 112 96H368 232V16H396.2l29.6 37 5 6.2 12.5-10-5-6.2-32-40-2.4-3H400 48zM80 112H216h16H368V432H80V112zm80 224a16 16 0 1 1 0 32 16 16 0 1 1 0-32zm0 48a32 32 0 1 0 0-64 32 32 0 1 0 0 64zm112-32a16 16 0 1 1 32 0 16 16 0 1 1 -32 0zm48 0a32 32 0 1 0 -64 0 32 32 0 1 0 64 0zM304 176v64H144V176H304zM144 160H128v16 64 16h16H304h16V240 176 160H304 144z"/></svg>