<svg xmlns="http://www.w3.org/2000/svg" viewBox="0 0 640 512"><!--! Font Awesome Pro 6.5.1 by @fontawesome - https://fontawesome.com License - https://fontawesome.com/license (Commercial License) Copyright 2023 Fonticons, Inc. --><path d="M0 32H8 520h8v8V368H632h8v16h-8H528 512 320h-8V368h8H512V48H16V368H64h8v16H64 8 0v-8V40 32zM80 96v8V248v8H64v-8V104 96H80zm96 0v8V248v8H160v-8V104 96h16zm96 0v8V248v8H256v-8V104 96h16zm96 0v8V312v8H352v-8V104 96h16zm96 0v8V312v8H448v-8V104 96h16zM272 384a80 80 0 1 0 -160 0 80 80 0 1 0 160 0zM96 384a96 96 0 1 1 192 0A96 96 0 1 1 96 384z"/></svg>