<svg xmlns="http://www.w3.org/2000/svg" viewBox="0 0 512 512"><!--! Font Awesome Pro 6.5.1 by @fontawesome - https://fontawesome.com License - https://fontawesome.com/license (Commercial License) Copyright 2023 Fonticons, Inc. --><path d="M16 256C16 123.5 123.5 16 256 16s240 107.5 240 240V504v8h16v-8V256C512 114.6 397.4 0 256 0S0 114.6 0 256V504v8H16v-8V256zM128 144H384V432H128V144zm-16-16v16V432v16h16 44.7l-58.3 58.3-5.7 5.7 0 0h22.6l64-64H316.7l64 64h22.6l-5.7-5.7L339.3 448H384h16V432 144 128H384 128 112zm64 256a16 16 0 1 0 0-32 16 16 0 1 0 0 32zm176-16a16 16 0 1 0 -32 0 16 16 0 1 0 32 0zM336 208v96H176V208H336zM176 192H160v16 96 16h16H336h16V304 208 192H336 176z"/></svg>