<svg xmlns="http://www.w3.org/2000/svg" viewBox="0 0 512 512"><!--! Font Awesome Pro 6.5.1 by @fontawesome - https://fontawesome.com License - https://fontawesome.com/license (Commercial License) Copyright 2023 Fonticons, Inc. --><path d="M472 0V8 40h32 8V56h-8H472V88v8H456V88 56H424h-8V40h8 32V8 0h16zM56 128v8 32H88h8v16H88 56v32 8H40v-8V184H8 0V168H8 40V136v-8H56zM96 448h8H408h8v8 48 8H400v-8V464H112v40 8H96v-8V456v-8zm72-64H344h8v16h-8H168h-8V384h8zm-8-64h8H344h8v16h-8H168h-8V320zm-56-64H408h8v16h-8H104 96V256h8zm24-64h8H376h8v16h-8H136h-8V192zm72-64H312h8v16h-8H200h-8V128h8zM224 0h8 48 8V16h-8H232h-8V0zm0 64h64 8V80h-8H224h-8V64h8z"/></svg>