<svg xmlns="http://www.w3.org/2000/svg" viewBox="0 0 512 512"><!--! Font Awesome Pro 6.5.1 by @fontawesome - https://fontawesome.com License - https://fontawesome.com/license (Commercial License) Copyright 2023 Fonticons, Inc. --><path d="M144 0h-8H24 16V8 120v8H32v-8V27.3L92.7 88 74.3 106.3 68.7 112 80 123.3l5.7-5.7L104 99.3l26 26c-21.3 27.2-34 61.4-34 98.7c0 85.7 67.4 155.6 152 159.8V432H200h-8v16h8 48v56 8h16v-8V448h48 8V432h-8H264V383.8c84.6-4.2 152-74.1 152-159.8c0-37.2-12.7-71.5-34-98.7l98-98V120v8h16v-8V8 0h-8H376h-8V16h8 92.7l-97.2 97.2C342.3 82.9 301.4 64 256 64s-86.3 18.9-115.5 49.2L115.3 88l18.3-18.3 5.7-5.7L128 52.7l-5.7 5.7L104 76.7 43.3 16H136h8V0zM256 80a144 144 0 1 1 0 288 144 144 0 1 1 0-288z"/></svg>