<svg xmlns="http://www.w3.org/2000/svg" viewBox="0 0 512 512"><!--! Font Awesome Pro 6.5.1 by @fontawesome - https://fontawesome.com License - https://fontawesome.com/license (Commercial License) Copyright 2023 Fonticons, Inc. --><path d="M56 8V0H40V8 40H8 0V56H8 40V88v8H56V88 56H88h8V40H88 56V8zM472 328v-8H456v8 32H424h-8v16h8 32v32 8h16v-8V376h32 8V360h-8H472V328zM104 448H96v8 48 8h16v-8V464H400v40 8h16v-8V456v-8h-8H104zM288 48a32 32 0 1 1 -64 0 32 32 0 1 1 64 0zM256 0a48 48 0 1 0 0 96 48 48 0 1 0 0-96zM168 384h-8v16h8H344h8V384h-8H168zm-8-64v16h8H344h8V320h-8H168h-8zm-56-64H96v16h8H408h8V256h-8H104zm24-64v16h8H376h8V192h-8H136h-8zm72-64h-8v16h8H312h8V128h-8H200z"/></svg>