<svg xmlns="http://www.w3.org/2000/svg" viewBox="0 0 512 512"><!--! Font Awesome Pro 6.5.1 by @fontawesome - https://fontawesome.com License - https://fontawesome.com/license (Commercial License) Copyright 2023 Fonticons, Inc. --><path d="M472 0V8 40h32 8V56h-8H472V88v8H456V88 56H424h-8V40h8 32V8 0h16zM56 64v8 32H88h8v16H88 56v32 8H40v-8V120H8 0V104H8 40V72 64H56zM96 448h8H408h8v8 48 8H400v-8V464H112v40 8H96v-8V456v-8zM256 16a32 32 0 1 0 0 64 32 32 0 1 0 0-64zm48 32a48 48 0 1 1 -96 0 48 48 0 1 1 96 0zM189.6 128h3.8H318.6h3.8l2.4 3L424 254.7l5 6.2-6.2 5-37.5 30-6.2 5-5-6.2-46-57.5V416H312V214.5 191.7l14.2 17.8 55.3 69 25-20L314.8 144H197.2L105.5 258.5l25 20 55.3-69L200 191.7v22.8V416H184V237.3l-46 57.5-5 6.2-6.2-5L89.3 266 83 261l5-6.2L187.2 131l2.4-3zM280 312V416H264V320H248v96H232V312v-8h8 32 8v8z"/></svg>