<svg xmlns="http://www.w3.org/2000/svg" viewBox="0 0 512 512"><!--! Font Awesome Pro 6.5.1 by @fontawesome - https://fontawesome.com License - https://fontawesome.com/license (Commercial License) Copyright 2023 Fonticons, Inc. --><path d="M256 16a32 32 0 1 0 0 64 32 32 0 1 0 0-64zm48 32a48 48 0 1 1 -96 0 48 48 0 1 1 96 0zM189.6 128h3.8H318.6h3.8l2.4 3L424 254.7l5 6.2-6.2 5-37.5 30-6.2 5-5-6.2-46-57.5V288H312V214.5 191.7l14.2 17.8 55.3 69 25-20L314.8 144H197.2L105.5 258.5l25 20 55.3-69L200 191.7v22.8V288H184V237.3l-46 57.5-5 6.2-6.2-5L89.3 266 83 261l5-6.2L187.2 131l2.4-3zM472 128v8 32h32 8v16h-8H472v32 8H456v-8V184H424h-8V168h8 32V136v-8h16zM56 320v8 32H88h8v16H88 56v32 8H40v-8V376H8 0V360H8 40V328v-8H56zM96 448h8H408h8v8 48 8H400v-8V464H112v40 8H96v-8V456v-8zm64-64h8H344h8v16h-8H168h-8V384zm8-64H344h8v16h-8H168h-8V320h8z"/></svg>