<svg xmlns="http://www.w3.org/2000/svg" viewBox="0 0 384 512"><!--! Font Awesome Pro 6.5.1 by @fontawesome - https://fontawesome.com License - https://fontawesome.com/license (Commercial License) Copyright 2023 Fonticons, Inc. --><path d="M112 8V0H96V8 48H48 40V64h8H96V96H48 40v16h8H96v48H40 8 0v16H8 32V496H8 0v16H8 40 344h32 8V496h-8H352V176h24 8V160h-8H344 288V112h48 8V96h-8H288V64h48 8V48h-8H288V8 0H272V8 48H224h-8V64h8 48V96H224h-8v16h8 48v48H112V112h48 8V96h-8H112V64h48 8V48h-8H112V8zM272 176h16 48V496H48V176H96h16H272zM201.8 311.7L198 329.9l18.6 1.1 48.3 2.8-95 85.5 12.4-59 3.8-18.2-18.6-1.1-48.3-2.8 95-85.5-12.4 59zM304 320l-22.5-1.3-47.9-2.8-16.2-.9 3.3-15.8 13.6-64.6L240 208l-20.2 18.2L96.7 336.9 80 352l22.5 1.3 47.9 2.8 16.2 .9-3.3 15.8-13.6 64.6L144 464l20.2-18.2L287.3 335.1 304 320z"/></svg>