<svg xmlns="http://www.w3.org/2000/svg" viewBox="0 0 640 512"><!--! Font Awesome Pro 6.5.1 by @fontawesome - https://fontawesome.com License - https://fontawesome.com/license (Commercial License) Copyright 2023 Fonticons, Inc. --><path d="M520 112.8l.1-.8H504L485.3 294.8l14.9 11.8L520 112.8zM468 464.6L464.8 496H175.2L146.1 210.4l-17.5-13.8L160 504.8l.7 7.2H168 472h7.2l.7-7.2 2.9-28.5L468 464.6zM211.6 64H193l20.3 16H544V64H428.4L390.8 3.8 388.4 0H384 256h-4.4l-2.4 3.8L211.6 64zm168-48l30 48H230.4l30-48H379.6zM16.2 5L9.9 0 0 12.5l6.3 5L623.8 507l6.3 5 9.9-12.5-6.3-5L16.2 5z"/></svg>