<svg xmlns="http://www.w3.org/2000/svg" viewBox="0 0 640 512"><!--! Font Awesome Pro 6.5.1 by @fontawesome - https://fontawesome.com License - https://fontawesome.com/license (Commercial License) Copyright 2023 Fonticons, Inc. --><path d="M512 315.8V112H496V303.2l16 12.6zm-88-69.5V160v-8H408v8 73.7l16 12.6zm-112 95V416v8h16v-8V354l-16-12.6zm-96-75.8V416v8h16v-8V278.3l-16-12.6zm-72-56.8l-16-12.6V504v8h8H504h8v-8-4.7l-4.2-3.3H496 448 144V208.8zM193 64l20.3 16H544V64H428.4L390.8 3.8 388.4 0H384 256h-4.4l-2.4 3.8L211.6 64H193zM379.6 16l30 48H230.4l30-48H379.6zM16.2 5L9.9 0 0 12.5l6.3 5L623.8 507l6.3 5 9.9-12.5-6.3-5L16.2 5z"/></svg>