<svg xmlns="http://www.w3.org/2000/svg" viewBox="0 0 576 512"><!--! Font Awesome Pro 6.5.1 by @fontawesome - https://fontawesome.com License - https://fontawesome.com/license (Commercial License) Copyright 2023 Fonticons, Inc. --><path d="M160 0H288h4.4l2.4 3.8L332.4 64H448V80H0V64H115.6L153.2 3.8 155.6 0H160zM313.6 64l-30-48H164.4l-30 48H313.6zM32 504V112H48V496H311.2c6.1 5.8 12.7 11.1 19.6 16H40 32v-8zM312 239.3V160v-8h16v8 66c-5.6 4.1-10.9 8.5-16 13.3zm104-46.5c-5.4 .5-10.7 1.2-16 2.2V112h16v80.7zM136 160V416v8H120v-8V160v-8h16v8zm96 0V416v8H216v-8V160v-8h16v8zM432 496a128 128 0 1 0 0-256 128 128 0 1 0 0 256zm0-272a144 144 0 1 1 0 288 144 144 0 1 1 0-288zm8 64v8 64h48 8v16h-8H432h-8v-8V296v-8h16z"/></svg>