<svg xmlns="http://www.w3.org/2000/svg" viewBox="0 0 448 512"><!--! Font Awesome Pro 6.5.1 by @fontawesome - https://fontawesome.com License - https://fontawesome.com/license (Commercial License) Copyright 2023 Fonticons, Inc. --><path d="M160 0H288h4.4l2.4 3.8L332.4 64H448V80H0V64H115.6L153.2 3.8 155.6 0H160zM313.6 64l-30-48H164.4l-30 48H313.6zM32 504V112H48V496H400V112h16V504v8h-8H40 32v-8zM219.3 192.5l-5.9 5.4L140.7 264H248c39.8 0 72 32.2 72 72v40 8H304v-8V336c0-30.9-25.1-56-56-56H140.7l72.7 66.1 5.9 5.4-10.8 11.8-5.9-5.4-88-80-6.5-5.9 6.5-5.9 88-80 5.9-5.4 10.8 11.8z"/></svg>