<svg xmlns="http://www.w3.org/2000/svg" viewBox="0 0 448 512"><!--! Font Awesome Pro 6.5.1 by @fontawesome - https://fontawesome.com License - https://fontawesome.com/license (Commercial License) Copyright 2023 Fonticons, Inc. --><path d="M160 0h-4.4l-2.4 3.8L115.6 64H0V80H448V64H332.4L294.8 3.8 292.4 0H288 160zM313.6 64H134.4l30-48H283.6l30 48zM24 112l.1 .8 40 392 .7 7.2H72 376h7.2l.7-7.2 40-392 .1-.8H408L368.8 496H79.2L40 112H24zm208 80H216v8 80H136h-8v16h8 80v80 8h16v-8V296h80 8V280h-8H232V200v-8z"/></svg>