<svg xmlns="http://www.w3.org/2000/svg" viewBox="0 0 448 512"><!--! Font Awesome Pro 6.5.1 by @fontawesome - https://fontawesome.com License - https://fontawesome.com/license (Commercial License) Copyright 2023 Fonticons, Inc. --><path d="M160 0H288h4.4l2.4 3.8L332.4 64H448V80H0V64H115.6L153.2 3.8 155.6 0H160zM313.6 64l-30-48H164.4l-30 48H313.6zM32 504V112H48V496H400V112h16V504v8h-8H40 32v-8zM224 172.7l5.7 5.7 80 80 5.7 5.7L304 275.3l-5.7-5.7L232 203.3V400H216V203.3l-66.3 66.3-5.7 5.7L132.7 264l5.7-5.7 80-80 5.7-5.7z"/></svg>