<svg xmlns="http://www.w3.org/2000/svg" viewBox="0 0 448 512"><!--! Font Awesome Pro 6.5.1 by @fontawesome - https://fontawesome.com License - https://fontawesome.com/license (Commercial License) Copyright 2023 Fonticons, Inc. --><path d="M160 0H288h4.4l2.4 3.8L332.4 64H448V80H0V64H115.6L153.2 3.8 155.6 0H160zM313.6 64l-30-48H164.4l-30 48H313.6zM32 504V112H48V496H400V112h16V504v8h-8H40 32v-8zM153.8 206.5l5.7 5.7L224 276.7l64.6-64.6 5.7-5.7 11.3 11.3-5.7 5.7L235.3 288l64.6 64.6 5.7 5.7-11.3 11.3-5.7-5.7L224 299.3l-64.6 64.6-5.7 5.7-11.3-11.3 5.7-5.7L212.7 288l-64.6-64.6-5.7-5.7 11.3-11.3z"/></svg>