<svg xmlns="http://www.w3.org/2000/svg" viewBox="0 0 640 512"><!--! Font Awesome Pro 6.5.1 by @fontawesome - https://fontawesome.com License - https://fontawesome.com/license (Commercial License) Copyright 2023 Fonticons, Inc. --><path d="M147.6 0l-2.4 3.8L107.6 64H0V80H416V64H308.4L270.8 3.8 268.4 0H264 152h-4.4zm112 16l30 48H126.4l30-48H259.6zM48 120v-8H32v8V504v8h8H376h8v-8V120v-8H368v8V496H48V120zm120 32H152v8V416v8h16v-8V160v-8zm96 0H248v8V416v8h16v-8V160v-8zm376-24H448v16H640V128zM608 256H448v16H608V256zM448 384v16h96V384H448z"/></svg>