<svg xmlns="http://www.w3.org/2000/svg" viewBox="0 0 640 512"><!--! Font Awesome Pro 6.5.1 by @fontawesome - https://fontawesome.com License - https://fontawesome.com/license (Commercial License) Copyright 2023 Fonticons, Inc. --><path d="M160 0h96 4.4l2.4 3.8L300.4 64H416V80H0V64H115.6L153.2 3.8 155.6 0H160zM281.6 64l-30-48H164.4l-30 48H281.6zM448 128H640v16H448V128zm0 128H608v16H448V256zm96 128v16H448V384h96zM64 504.7L31.3 112H47.4l32 384H336.6l32-384h16.1L352 504.7l-.6 7.3H344 72 64.6l-.6-7.3z"/></svg>