<svg xmlns="http://www.w3.org/2000/svg" viewBox="0 0 448 512"><!--! Font Awesome Pro 6.5.1 by @fontawesome - https://fontawesome.com License - https://fontawesome.com/license (Commercial License) Copyright 2023 Fonticons, Inc. --><path d="M160 0h-4.4l-2.4 3.8L115.6 64H0V80H448V64H332.4L294.8 3.8 292.4 0H288 160zM313.6 64H134.4l30-48H283.6l30 48zM24 112l.1 .8 40 392 .7 7.2H72 376h7.2l.7-7.2 40-392 .1-.8H408L368.8 496H79.2L40 112H24zM325.7 229.7l5.7-5.7L320 212.7l-5.7 5.7L192 340.7l-58.3-58.3-5.7-5.7L116.7 288l5.7 5.7 64 64 5.7 5.7 5.7-5.7 128-128z"/></svg>