<svg xmlns="http://www.w3.org/2000/svg" viewBox="0 0 576 512"><!--! Font Awesome Pro 6.5.1 by @fontawesome - https://fontawesome.com License - https://fontawesome.com/license (Commercial License) Copyright 2023 Fonticons, Inc. --><path d="M155.6 0H160 288h4.4l2.4 3.8L332.4 64H448V80H0V64H115.6L153.2 3.8 155.6 0zm128 16H164.4l-30 48H313.6l-30-48zM24 112.8L24 112H40L79.2 496h232c6.1 5.8 12.7 11.1 19.6 16H72 64.8l-.7-7.2-40-392zm391.8 79.9c-5.5 .5-11 1.3-16.3 2.3l8.5-83H424l-.1 .8-8.2 79.9zM432 496a128 128 0 1 0 0-256 128 128 0 1 0 0 256zm0-272a144 144 0 1 1 0 288 144 144 0 1 1 0-288zm8 64v8 64h48 8v16h-8H432h-8v-8V296v-8h16z"/></svg>