<svg xmlns="http://www.w3.org/2000/svg" viewBox="0 0 576 512"><!--! Font Awesome Pro 6.5.1 by @fontawesome - https://fontawesome.com License - https://fontawesome.com/license (Commercial License) Copyright 2023 Fonticons, Inc. --><path d="M136 48V272h80V192 176h16H344h16v16 80h80V48H136zM360 352v16H344 232 216V352 288H136V464H440V288H360v64zM120 48.3C61.9 52.4 16 100.8 16 160V272H120V48.3zM16 288V464H120V288H16zM456 464H560V288H456V464zM560 272V160c0-59.2-45.9-107.6-104-111.7V272H560zM0 160C0 89.3 57.3 32 128 32H448c70.7 0 128 57.3 128 128V464v16H560 16 0V464 160zm344 32H232V352H344V192zm-48 48v64 8H280v-8V240v-8h16v8z"/></svg>