<svg xmlns="http://www.w3.org/2000/svg" viewBox="0 0 448 512"><!--! Font Awesome Pro 6.5.1 by @fontawesome - https://fontawesome.com License - https://fontawesome.com/license (Commercial License) Copyright 2023 Fonticons, Inc. --><path d="M368 208H349 328l13.5 16L416 312v24 16H400 372.5 352l12.8 16L448 472v24 16H432 16 0V496 472L83.2 368 96 352H75.5 48 32V336 312l74.5-88L120 208H99 80 64V192 168L213 11.6 224 0l11 11.6L384 168v24 16H368zm-52.2 10.3L293.5 192H328h40V174.4L224 23.2 80 174.4V192h40 34.5l-22.3 26.3L48 317.9V336H96h33.3l-20.8 26L16 477.6V496H432V477.6L339.5 362l-20.8-26H352h48V317.9l-84.2-99.5zM176 256a16 16 0 1 1 0 32 16 16 0 1 1 0-32zm48-112a16 16 0 1 1 32 0 16 16 0 1 1 -32 0zm48 240a16 16 0 1 1 0 32 16 16 0 1 1 0-32z"/></svg>