<svg xmlns="http://www.w3.org/2000/svg" viewBox="0 0 448 512"><!--! Font Awesome Pro 6.5.1 by @fontawesome - https://fontawesome.com License - https://fontawesome.com/license (Commercial License) Copyright 2023 Fonticons, Inc. --><path d="M349 208h19 16V192 168L235 11.6 224 0 213 11.6 64 168v24 16H80 99h21l-13.5 16L32 312v24 16H48 75.5 96L83.2 368 0 472v24 16H16 432h16V496 472L364.8 368 352 352h20.5H400h16V336 312l-74.5-88L328 208h21zm51 109.9V336H352 318.7l20.8 26L432 477.6V496H16V477.6L108.5 362l20.8-26H96 48V317.9l84.2-99.5L154.5 192H120 80V174.4L224 23.2 368 174.4V192H328 293.5l22.3 26.3L400 317.9z"/></svg>