<svg xmlns="http://www.w3.org/2000/svg" viewBox="0 0 448 512"><!--! Font Awesome Pro 6.5.1 by @fontawesome - https://fontawesome.com License - https://fontawesome.com/license (Commercial License) Copyright 2023 Fonticons, Inc. --><path d="M217.3 0h13.3 5.2L238 4.8l18.7 42.5L299.2 66l4.8 2.1v5.2V86.7v5.2L299.2 94l-42.5 18.7L238 155.2l-2.1 4.8h-5.2H217.3h-5.2l-2.1-4.8-18.7-42.5L148.8 94 144 91.9V86.7 73.3 68.1l4.8-2.1 42.5-18.7L210 4.8 212.1 0h5.2zM204.7 56.6l-1.3 2.8-2.8 1.3L160 78.5v2.9l40.6 17.9 2.8 1.3 1.3 2.8L222.5 144h2.9l17.9-40.6 1.3-2.8 2.8-1.3L288 81.5V78.5L247.4 60.7l-2.8-1.3-1.3-2.8L225.5 16h-2.9L204.7 56.6zM24 312L156.2 132.2 167 137l2.1 4.7L40 317.2V336H80h29.9L93.3 360.9 16 476.8V496H432V476.8l-77.3-116L338.1 336H368h40V317.2L278.9 141.7 281 137l10.8-4.8L424 312v24 16H408 387.2 368l10.7 16L448 472v24 16H432 16 0V496 472L69.3 368 80 352H60.8 40 24V336 312zm136-40a16 16 0 1 1 32 0 16 16 0 1 1 -32 0zM272 384a16 16 0 1 1 0 32 16 16 0 1 1 0-32z"/></svg>