<svg xmlns="http://www.w3.org/2000/svg" viewBox="0 0 448 512"><!--! Font Awesome Pro 6.5.1 by @fontawesome - https://fontawesome.com License - https://fontawesome.com/license (Commercial License) Copyright 2023 Fonticons, Inc. --><path d="M229.7 7.1L224 1.5l-5.7 5.7-152 152L64 161.5v3.3V184v8h8 52.7L34.3 282.3 32 284.7V288v24 8h8H92.7L2.3 410.3 0 412.7V416v24 8H8 152h8 56v56 8h16v-8V448h56 8H440h8v-8V416v-3.3l-2.3-2.3L355.3 320H408h8v-8V288v-3.3l-2.3-2.3L323.3 192H376h8v-8V164.8v-3.3l-2.3-2.3-152-152zM232 432V200v-8H216v8V432H160h-8H16V419.3L117.7 317.7 131.3 304H112 48V291.3L149.7 189.7 163.3 176H144 80v-7.9l144-144 144 144V176H304 284.7l13.7 13.7L400 291.3V304H336 316.7l13.7 13.7L432 419.3V432H296h-8H232z"/></svg>