<svg xmlns="http://www.w3.org/2000/svg" viewBox="0 0 640 512"><!--! Font Awesome Pro 6.5.1 by @fontawesome - https://fontawesome.com License - https://fontawesome.com/license (Commercial License) Copyright 2023 Fonticons, Inc. --><path d="M192 1.1l5.8 6.2 128 136 2.2 2.3v3.2V168v8h-8H268.5l89 82.1 2.6 2.4V264v24 8h-8H299.3l82.3 82.3 2.3 2.3V384v24 8h-8H200v88 8H184v-8V416H8 0v-8V384v-3.3l2.3-2.3L84.7 296H32 24v-8V264v-3.5l2.6-2.4 89-82.1H64 56v-8V148.8v-3.2l2.2-2.3 128-136L192 1.1zM368 400V387.3l-93.7-93.7L260.7 280H280h64V267.5L242.6 173.9l-15-13.9H248h64v-8L192 24.5 72 152v8h64 20.5l-15 13.9L40 267.5V280h64 19.3l-13.7 13.7L16 387.3V400H184V200v-8h16v8V400H368zM448 1.1l5.8 6.2 128 136 2.2 2.3v3.2V168v8h-8H524.5l89 82.1 2.6 2.4V264v24 8h-8H555.3l82.3 82.3 2.3 2.3V384v24 8h-8H456v88 8H440v-8l0-88V400l0-200v-8h16v8V400H624V387.3l-93.7-93.7L516.7 280H536h64V267.5L498.6 173.9l-15-13.9H504h64v-8L448 24.5l-90.2 95.8-5.5 5.8-11.7-11 5.5-5.8 96-102L448 1.1z"/></svg>