<svg xmlns="http://www.w3.org/2000/svg" viewBox="0 0 576 512"><!--! Font Awesome Pro 6.5.1 by @fontawesome - https://fontawesome.com License - https://fontawesome.com/license (Commercial License) Copyright 2023 Fonticons, Inc. --><path d="M296 8V0H280V8 45.3l-1.3 2.2L9.6 496 0 512H18.7 557.3 576l-9.6-16L417.2 247.4 405.6 259 547.7 496H28.3L288 63.1l92.1 153.5-52.9 52.9C316.4 261 302.8 256 288 256c-35.3 0-64 28.7-64 64s28.7 64 64 64s64-28.7 64-64c0-14.8-5-28.4-13.4-39.2l50-50 11.7-11.7L541.7 77.7l5.7-5.7L536 60.7l-5.7 5.7L391.8 204.9 297.3 47.5 296 45.3V8zm40 312a48 48 0 1 1 -96 0 48 48 0 1 1 96 0z"/></svg>