<svg xmlns="http://www.w3.org/2000/svg" viewBox="0 0 640 512"><!--! Font Awesome Pro 6.5.1 by @fontawesome - https://fontawesome.com License - https://fontawesome.com/license (Commercial License) Copyright 2023 Fonticons, Inc. --><path d="M10 496L0 512H18.9 621.1 640l-10-16L329.4 15.1 320 0l-9.4 15.1L10 496zm601.1 0H28.9L320 30.2 611.1 496zM352 432h18.9H493.1 512l-10-16-60.6-96.9L432 304l-9.4 15.1-30.1 48.2-58.6-29.6-38.6-84.9-1.2-2.6-2.5-1.3-48-24-6.5-3.2-3.9 6.1-32 50.9-4.7 7.4 7.8 4 179.6 90.8L362 416l-10 16zm131.1-16H380.9L432 334.2 483.1 416zM272 192a16 16 0 1 1 32 0 16 16 0 1 1 -32 0zm48 0a32 32 0 1 0 -64 0 32 32 0 1 0 64 0zm-8.9 134.1l-91.6-46.4 23.5-37.3 39 19.5 29.2 64.2zm-99.5-1.2l-3 8.4L172.6 432h17l30.9-84.9L280 376.2V424v8h16v-8V371.2v-5l-4.5-2.2-72-35.2-8-3.9z"/></svg>