<svg xmlns="http://www.w3.org/2000/svg" viewBox="0 0 512 512"><!--! Font Awesome Pro 6.5.1 by @fontawesome - https://fontawesome.com License - https://fontawesome.com/license (Commercial License) Copyright 2023 Fonticons, Inc. --><path d="M212.5 240L30.5 128l182-112H240V240H212.5zM208 256h32 16V240 136h88v24 16h16H496h16V160 96 80H496 360 344V96v24H256V16 0H240 208L15.3 118.6 0 128l15.3 9.4L208 256zM360 96H496v64H360V128 96zM288 352v16H272 240 224 16 0v16V496v16H16 496h16V496 440 368 256 240H496 304 288v16 96zM16 384H224V496H16V384zM496 496H240V384h48 16H496v56 56zM304 256H496V368H304V256z"/></svg>