<svg xmlns="http://www.w3.org/2000/svg" viewBox="0 0 512 512"><!--! Font Awesome Pro 6.5.1 by @fontawesome - https://fontawesome.com License - https://fontawesome.com/license (Commercial License) Copyright 2023 Fonticons, Inc. --><path d="M480 16V224H437.5L391.5 101.2 389.5 96H384 128h-5.5l-1.9 5.2L74.5 224H32V16H480zm16 208V16 0H480 32 16V16 224v16V432v16H32 48v48 16H64h64 16V496 448H368v48 16h16 64 16V496 448h16 16V432 240 224zM448 448v48H384V448h64zm16-16H448 384 368 144 128 64 48 32V240H480V432H464zM64 496V448h64v48H64zM420.5 224H91.5l42-112H378.5l42 112zM112 352a16 16 0 1 1 0-32 16 16 0 1 1 0 32zM80 336a32 32 0 1 0 64 0 32 32 0 1 0 -64 0zm336 0a16 16 0 1 1 -32 0 16 16 0 1 1 32 0zm-16-32a32 32 0 1 0 0 64 32 32 0 1 0 0-64z"/></svg>