<svg xmlns="http://www.w3.org/2000/svg" viewBox="0 0 640 512"><!--! Font Awesome Pro 6.5.1 by @fontawesome - https://fontawesome.com License - https://fontawesome.com/license (Commercial License) Copyright 2023 Fonticons, Inc. --><path d="M400 96h8 80 3.3l2.3 2.3 112 112 2.3 2.3V216 400h24 8v16h-8H575.6c.2 2.6 .4 5.3 .4 8c0 48.6-39.4 88-88 88s-88-39.4-88-88c0-2.7 .1-5.4 .4-8H239.6c.2 2.6 .4 5.3 .4 8c0 48.6-39.4 88-88 88s-88-39.4-88-88c0-2.7 .1-5.4 .4-8H8 0V400H8 67.3c10.4-36.9 44.4-64 84.7-64s74.2 27.1 84.7 64H400V104 96zm16 277.4c15.9-22.6 42.2-37.4 72-37.4c40.3 0 74.2 27.1 84.7 64H592V232H416V373.4zM416 216H588.7l-104-104H416V216zM152 496a72 72 0 1 0 0-144 72 72 0 1 0 0 144zm408-72a72 72 0 1 0 -144 0 72 72 0 1 0 144 0z"/></svg>