<svg xmlns="http://www.w3.org/2000/svg" viewBox="0 0 640 512"><!--! Font Awesome Pro 6.5.1 by @fontawesome - https://fontawesome.com License - https://fontawesome.com/license (Commercial License) Copyright 2023 Fonticons, Inc. --><path d="M80 16H400V400H236.7c-10.4-36.9-44.4-64-84.7-64c-29.8 0-56.1 14.8-72 37.4V288H64V400v16h.4c-.2 2.6-.4 5.3-.4 8c0 48.6 39.4 88 88 88s88-39.4 88-88c0-2.7-.1-5.4-.4-8H400h.4c-.2 2.6-.4 5.3-.4 8c0 48.6 39.4 88 88 88s88-39.4 88-88c0-2.7-.1-5.4-.4-8H632h8V400h-8H608V216v-3.3l-2.3-2.3-112-112L491.3 96H488 416V16 0H400 80 64V16 96H8 0v16H8 216h8V96h-8H80V16zM416 216V112h68.7l104 104H416zm0 16H592V400H572.7c-10.4-36.9-44.4-64-84.7-64c-29.8 0-56.1 14.8-72 37.4V232zM80 424a72 72 0 1 1 144 0A72 72 0 1 1 80 424zm408-72a72 72 0 1 1 0 144 72 72 0 1 1 0-144zM40 160H32v16h8H280h8V160h-8H40zM8 224H0v16H8 216h8V224h-8H8z"/></svg>