<svg xmlns="http://www.w3.org/2000/svg" viewBox="0 0 640 512"><!--! Font Awesome Pro 6.5.1 by @fontawesome - https://fontawesome.com License - https://fontawesome.com/license (Commercial License) Copyright 2023 Fonticons, Inc. --><path d="M448 128h8H560h4l2.4 3.2 72 96 1.6 2.1V232 400v8h-8H607.6c-4 40.4-38.1 72-79.6 72s-75.6-31.6-79.6-72H448v-8H304c0 44.2-35.8 80-80 80c-31.7 0-59-18.4-72-45.1C139 461.6 111.7 480 80 480c-44.2 0-80-35.8-80-80s35.8-80 80-80c31.7 0 59 18.4 72 45.1c13-26.7 40.3-45.1 72-45.1c38.7 0 71 27.5 78.4 64H448V352 136v-8zM624 392V240H464V352c14.6-19.4 37.8-32 64-32c41.5 0 75.6 31.6 79.6 72H624zm-8-168l-60-80H464v80H616zM528 464a64 64 0 1 0 0-128 64 64 0 1 0 0 128zM288 400a64 64 0 1 0 -128 0 64 64 0 1 0 128 0zM80 464a64 64 0 1 0 0-128 64 64 0 1 0 0 128z"/></svg>