<svg xmlns="http://www.w3.org/2000/svg" viewBox="0 0 640 512"><!--! Font Awesome Pro 6.5.1 by @fontawesome - https://fontawesome.com License - https://fontawesome.com/license (Commercial License) Copyright 2023 Fonticons, Inc. --><path d="M16 16V400H67.3c10.4-36.9 44.4-64 84.7-64s74.2 27.1 84.7 64H400V16H16zM64.4 416H16 0V400 16 0H16 400h16V16 96h72 3.3l2.3 2.3 112 112 2.3 2.3V216 400h24 8v16h-8H575.6c.2 2.6 .4 5.3 .4 8c0 48.6-39.4 88-88 88s-88-39.4-88-88c0-2.7 .1-5.4 .4-8H400 239.6c.2 2.6 .4 5.3 .4 8c0 48.6-39.4 88-88 88s-88-39.4-88-88c0-2.7 .1-5.4 .4-8zM416 216H588.7l-104-104H416V216zm0 16V373.4c15.9-22.6 42.2-37.4 72-37.4c40.3 0 74.2 27.1 84.7 64H592V232H416zM224 424A72 72 0 1 0 80 424a72 72 0 1 0 144 0zm264 72a72 72 0 1 0 0-144 72 72 0 1 0 0 144zM320 128v8V240v16 56 8H304v-8V256H256 240V240 144c0-38.7 27.5-71 64-78.4c5.2-1 10.5-1.6 16-1.6V80v48zM304 240V136v-8V82c-27.6 7.1-48 32.2-48 62v96h48zM152 200v0 96 8H136v-8V200v-.5c-31-4.1-54.3-31.8-52-63.9l4-56.1 .6-8 16 1.1-.6 8-4 56.1c-1.8 25.6 18.4 47.3 44 47.3s45.9-21.7 44-47.3l-4-56.1-.6-8 16-1.1 .6 8 4 56.1c2.3 32.1-21 59.8-52 63.9v.5zm0-120v64 8H136v-8V80 72h16v8z"/></svg>