<svg xmlns="http://www.w3.org/2000/svg" viewBox="0 0 640 512"><!--! Font Awesome Pro 6.5.1 by @fontawesome - https://fontawesome.com License - https://fontawesome.com/license (Commercial License) Copyright 2023 Fonticons, Inc. --><path d="M448 48V384H302.4c-7.4-36.5-39.7-64-78.4-64c-31.7 0-59 18.4-72 45.1C139 338.4 111.7 320 80 320c-26.2 0-49.4 12.6-64 32V304 48H448zM152 434.9c13 26.7 40.3 45.1 72 45.1c44.2 0 80-35.8 80-80H448c0 44.2 35.8 80 80 80c41.5 0 75.6-31.6 79.6-72H640v-8-8V232v-2.7l-1.6-2.1-72-96L564 128h-4H464V48 32H448 16 0V48 304v80 16c0 44.2 35.8 80 80 80c31.7 0 59-18.4 72-45.1zM624 240V392H607.6c-4-40.4-38.1-72-79.6-72c-26.2 0-49.4 12.6-64 32V240H624zm-68-96l60 80H464V144h92zM528 336a64 64 0 1 1 0 128 64 64 0 1 1 0-128zM160 400a64 64 0 1 1 128 0 64 64 0 1 1 -128 0zM80 336a64 64 0 1 1 0 128 64 64 0 1 1 0-128z"/></svg>