<svg xmlns="http://www.w3.org/2000/svg" viewBox="0 0 640 512"><!--! Font Awesome Pro 6.5.1 by @fontawesome - https://fontawesome.com License - https://fontawesome.com/license (Commercial License) Copyright 2023 Fonticons, Inc. --><path d="M145.7 36.1C135 53.6 128 75.4 128 92v95.3L3.4 276.3 0 278.7v4.1 88 11.1l10.5-3.5L128 339.2l0 52.3L82.3 437.1 80 439.5v3.3 56 10.8l10.4-3.2L192 475.2l64 19.7V478.1l-61.6-19-2.4-.7-2.4 .7L96 488V446.1l45.7-45.7 2.3-2.3v-3.3V336l0-7.9V317l0-121.5V192v-.6V92c0-13 5.7-31.9 15.3-47.5c9.9-16.1 21.8-25.7 32.7-25.7c11.3 0 23.2 9.6 33 25.6c9.5 15.6 15 34.5 15 47.5l0 94.8v4.5l3.9 2.3 12.1 7.3 0-18.7L256 96l0-4c0-16.6-6.7-38.3-17.3-55.8C228.3 19 212.2 2.8 192 2.8c-19.8 0-35.8 16.2-46.3 33.3zM128 322.4L16 359.7V286.9l112-80V322.4zM304 144H624V448H608V328v-8h-8H576.7l-1.4-4.6-19.2-64L552.7 240H540.8 387.2 375.3l-3.4 11.4-19.2 64-1.4 4.6H328h-8v8V448H304V144zM600 464h8 16 16V448 144 128H624 304 288v16V448v16h16 16 8 8v40 8h16v-8V464H576v40 8h16v-8V464h8zm-8-16H576 352 336V336h10.5H368 560h21.5H592V448zM555.2 304l4.8 16H543.3 384.7 368l4.8-16 14.4-48H540.8l14.4 48zM388 384a12 12 0 1 1 0 24 12 12 0 1 1 0-24zm0 40a28 28 0 1 0 0-56 28 28 0 1 0 0 56zm140-28a12 12 0 1 1 24 0 12 12 0 1 1 -24 0zm40 0a28 28 0 1 0 -56 0 28 28 0 1 0 56 0z"/></svg>