<svg xmlns="http://www.w3.org/2000/svg" viewBox="0 0 640 512"><!--! Font Awesome Pro 6.5.1 by @fontawesome - https://fontawesome.com License - https://fontawesome.com/license (Commercial License) Copyright 2023 Fonticons, Inc. --><path d="M400 16V400H236.7c-10.4-36.9-44.4-64-84.7-64s-74.2 27.1-84.7 64H16V16H400zM16 416H64.4c-.2 2.6-.4 5.3-.4 8c0 48.6 39.4 88 88 88s88-39.4 88-88c0-2.7-.1-5.4-.4-8H400h.4c-.2 2.6-.4 5.3-.4 8c0 48.6 39.4 88 88 88s88-39.4 88-88c0-2.7-.1-5.4-.4-8H632h8V400h-8H608V216v-3.3l-2.3-2.3-112-112L491.3 96H488 416V16 0H400 16 0V16 400v16H16zM416 112h68.7l104 104H416V112zm0 261.4V232H592V400H572.7c-10.4-36.9-44.4-64-84.7-64c-29.8 0-56.1 14.8-72 37.4zM152 352a72 72 0 1 1 0 144 72 72 0 1 1 0-144zm264 72a72 72 0 1 1 144 0 72 72 0 1 1 -144 0zM272 211c0 33.1-28.1 61-64 61s-64-27.9-64-61c0-6.8 3.5-18.5 10.9-34c7.1-14.9 16.7-31.4 26.5-46.8c9.6-15 19.2-28.9 26.5-39.1c7.3 10.2 16.9 24.1 26.5 39.1c9.8 15.4 19.4 31.9 26.5 46.8c7.4 15.6 10.9 27.3 10.9 34zm-144 0c0 42.5 35.8 77 80 77s80-34.5 80-77c0-33.2-48.6-104-70.1-133.6C211.9 69.1 208 64 208 64s-3.9 5.1-9.9 13.4C176.6 107 128 177.8 128 211z"/></svg>