<svg xmlns="http://www.w3.org/2000/svg" viewBox="0 0 640 512"><!--! Font Awesome Pro 6.5.1 by @fontawesome - https://fontawesome.com License - https://fontawesome.com/license (Commercial License) Copyright 2023 Fonticons, Inc. --><path d="M209.9 256H366.1L152.8 16H89.9l4.4 8.8L209.9 256zM384 252V120v-8h8H512h3.6l2.4 2.7 120 136 2 2.3v3V408v8h-8H576c0 53-43 96-96 96s-96-43-96-96H256c0 53-43 96-96 96s-96-43-96-96H8 0v-8V264v-8H8 192L80 32V168c0 22.1-17.9 40-40 40s-40-17.9-40-40V152c0-4.4 3.6-8 8-8s8 3.6 8 8v16c0 13.3 10.7 24 24 24s24-10.7 24-24V32 16 0H80h80L384 252zm1.3 148c7.6-45.4 47.1-80 94.7-80s87.1 34.6 94.7 80H624V272H16V400H65.3c7.6-45.4 47.1-80 94.7-80s87.1 34.6 94.7 80H385.3zM508.4 128H400V256H621.3L508.4 128zM240 416A80 80 0 1 0 80 416a80 80 0 1 0 160 0zm240 80a80 80 0 1 0 0-160 80 80 0 1 0 0 160z"/></svg>