<svg xmlns="http://www.w3.org/2000/svg" viewBox="0 0 640 512"><!--! Font Awesome Pro 6.5.1 by @fontawesome - https://fontawesome.com License - https://fontawesome.com/license (Commercial License) Copyright 2023 Fonticons, Inc. --><path d="M400 16V400H236.7c-10.4-36.9-44.4-64-84.7-64s-74.2 27.1-84.7 64H16V16H400zM16 416H64.4c-.2 2.6-.4 5.3-.4 8c0 48.6 39.4 88 88 88s88-39.4 88-88c0-2.7-.1-5.4-.4-8H400h.4c-.2 2.6-.4 5.3-.4 8c0 48.6 39.4 88 88 88s88-39.4 88-88c0-2.7-.1-5.4-.4-8H632h8V400h-8H608V216v-3.3l-2.3-2.3-112-112L491.3 96H488 416V16 0H400 16 0V16 400v16H16zM416 112h68.7l104 104H416V112zm0 261.4V232H592V400H572.7c-10.4-36.9-44.4-64-84.7-64c-29.8 0-56.1 14.8-72 37.4zM152 352a72 72 0 1 1 0 144 72 72 0 1 1 0-144zm264 72a72 72 0 1 1 144 0 72 72 0 1 1 -144 0zM254.2 81.9l6.1-24.3L241.2 73.9 106.8 189.1 90.4 203.2H112h66.6l-16.7 66.9-6.1 24.3 19.1-16.3L309.2 162.9l16.4-14.1H304 237.4l16.7-66.9zM188.8 187.2H133.6l98.9-84.8-13.1 52.5-2.5 9.9h10.2 55.2l-98.9 84.8 13.1-52.5 2.5-9.9H188.8z"/></svg>