<svg xmlns="http://www.w3.org/2000/svg" viewBox="0 0 640 512"><!--! Font Awesome Pro 6.5.1 by @fontawesome - https://fontawesome.com License - https://fontawesome.com/license (Commercial License) Copyright 2023 Fonticons, Inc. --><path d="M224 0h8H384h3.8l2.4 3L491.8 128H600h8v8V251.8c2 1.9 3.9 3.9 5.8 5.9l5.5 5.8-11.6 11-5.5-5.8C571.5 236.2 528.1 216 480 216c-59 0-110.8 30.4-140.8 76.4l-2.4 3.6h-4.3H307.5h-4.3l-2.4-3.6C270.8 246.4 219 216 160 216c-48.1 0-91.5 20.2-122.2 52.7l-5.5 5.8-11.6-11 5.5-5.8c1.9-2 3.8-4 5.8-5.9V136v-8h8H224V8 0zM48 238c31-23.8 69.9-38 112-38c63 0 118.7 31.7 151.8 80h16.4c33.1-48.3 88.8-80 151.8-80c42.1 0 81 14.2 112 38V144H488.1h-.1H232 48v94zM380.2 16H240V128H471.2l-91-112zM122 248h8 60 8v8 13.6c3.6 1.3 7 2.7 10.4 4.3l9.6-9.6 5.7-5.7 5.7 5.7 42.4 42.4 5.7 5.7-5.7 5.7-9.6 9.6c1.6 3.4 3 6.8 4.3 10.4H280h8v8 60 8h-8H266.4c-1.3 3.6-2.7 7-4.3 10.4l9.6 9.6 5.7 5.7-5.7 5.7-42.4 42.4-5.7 5.7-5.7-5.7-9.6-9.6c-3.4 1.6-6.8 3-10.4 4.3V496v8h-8H130h-8v-8V482.4c-3.6-1.3-7-2.7-10.4-4.3l-9.6 9.6-5.7 5.7-5.7-5.7L48.3 445.3l-5.7-5.7 5.7-5.7 9.6-9.6c-1.6-3.4-3-6.8-4.3-10.4H40 32v-8V346v-8h8H53.6c1.3-3.6 2.7-7 4.3-10.4L48.3 318l-5.7-5.7 5.7-5.7 42.4-42.4 5.7-5.7 5.7 5.7 9.6 9.6c3.4-1.6 6.8-3 10.4-4.3V256v-8zm16 16v11.3 6l-5.7 1.7c-6.4 1.9-12.6 4.5-18.4 7.6l-5.2 2.8-4.2-4.2-8-8L65.2 312.4l8 8 4.2 4.2-2.8 5.2c-3.1 5.8-5.7 12-7.6 18.4L65.3 354h-6H48v44H59.3h6l1.7 5.7c1.9 6.4 4.5 12.6 7.6 18.4l2.8 5.2-4.2 4.2-8 8 31.1 31.1 8-8 4.2-4.2 5.2 2.8c5.8 3.1 12 5.7 18.4 7.6l5.7 1.7v6V488h44V476.7v-6l5.7-1.7c6.4-1.9 12.6-4.5 18.4-7.6l5.2-2.8 4.2 4.2 8 8 31.1-31.1-8-8-4.2-4.2 2.8-5.2c3.1-5.8 5.7-12 7.6-18.4l1.7-5.7h6H272V354H260.7h-6l-1.7-5.7c-1.9-6.4-4.5-12.6-7.6-18.4l-2.8-5.2 4.2-4.2 8-8-31.1-31.1-8 8-4.2 4.2-5.2-2.8c-5.8-3.1-12-5.7-18.4-7.6l-5.7-1.7v-6V264H138zm22 72a40 40 0 1 0 0 80 40 40 0 1 0 0-80zm56 40a56 56 0 1 1 -112 0 56 56 0 1 1 112 0zM450 248h60 8v8 13.6c3.6 1.3 7 2.7 10.4 4.3l9.6-9.6 5.7-5.7 5.7 5.7 42.4 42.4 5.7 5.7-5.7 5.7-9.6 9.6c1.6 3.4 3 6.8 4.3 10.4H600h8v8 60 8h-8H586.5c-1.3 3.6-2.7 7-4.3 10.4l9.6 9.6 5.7 5.7-5.7 5.7-42.4 42.4-5.7 5.7-5.7-5.7-9.6-9.6c-3.4 1.6-6.8 3-10.4 4.3V496v8h-8H450h-8v-8V482.4c-3.6-1.3-7-2.7-10.4-4.3l-9.6 9.6-5.7 5.7-5.7-5.7-42.4-42.4-5.7-5.7 5.7-5.7 9.6-9.6c-1.6-3.4-3-6.8-4.3-10.4H360h-8v-8V346v-8h8 13.6c1.3-3.6 2.7-7 4.3-10.4l-9.6-9.6-5.7-5.7 5.7-5.7 42.4-42.4 5.7-5.7 5.7 5.7 9.6 9.6c3.4-1.6 6.8-3 10.4-4.3V256v-8h8zm8 27.3v6l-5.7 1.7c-6.4 1.9-12.6 4.5-18.4 7.6l-5.2 2.8-4.2-4.2-8-8-31.1 31.1 8 8 4.2 4.2-2.8 5.2c-3.1 5.8-5.7 12-7.6 18.4l-1.7 5.7h-6H368v44h11.3 6l1.7 5.7c1.9 6.4 4.5 12.6 7.6 18.4l2.8 5.2-4.2 4.2-8 8 31.1 31.1 8-8 4.2-4.2 5.2 2.8c5.8 3.1 12 5.7 18.4 7.6l5.7 1.7v6V488h44V476.7v-6l5.7-1.7c6.4-1.9 12.6-4.5 18.4-7.6l5.2-2.8 4.2 4.2 8 8 31.1-31.1-8-8-4.2-4.2 2.8-5.2c3.1-5.8 5.7-12 7.6-18.4l1.7-5.7h6H592V354H580.7h-6l-1.7-5.7c-1.9-6.4-4.5-12.6-7.6-18.4l-2.8-5.2 4.2-4.2 8-8-31.1-31.1-8 8-4.2 4.2-5.2-2.8c-5.8-3.1-12-5.7-18.4-7.6l-5.7-1.7v-6V264H458v11.3zM440 376a40 40 0 1 0 80 0 40 40 0 1 0 -80 0zm40 56a56 56 0 1 1 0-112 56 56 0 1 1 0 112z"/></svg>