<svg xmlns="http://www.w3.org/2000/svg" viewBox="0 0 640 512"><!--! Font Awesome Pro 6.5.1 by @fontawesome - https://fontawesome.com License - https://fontawesome.com/license (Commercial License) Copyright 2023 Fonticons, Inc. --><path d="M128 32h8H288h4.4l2.4 3.7 96 152 2.7 4.3H480h16v16V368h32V200v-3.1l2.1-2.3 88-96 5.4-5.9 11.8 10.8-5.4 5.9L544 203.1V368v4.9l85.9 93.7 5.4 5.9-11.8 10.8-5.4-5.9L532.5 384H496 480 464c0 53-43 96-96 96s-96-43-96-96H224c0 53-43 96-96 96s-96-43-96-96H16 0V368 208 192H16 128v-8V40 32zM462.7 368H480V208H16V368H33.3c7.6-45.4 47.1-80 94.7-80s87.1 34.6 94.7 80h50.7c7.6-45.4 47.1-80 94.7-80s87.1 34.6 94.7 80zM144 192H374.5L283.6 48H144V184v8zm64 192A80 80 0 1 0 48 384a80 80 0 1 0 160 0zm160 80a80 80 0 1 0 0-160 80 80 0 1 0 0 160z"/></svg>