<svg xmlns="http://www.w3.org/2000/svg" viewBox="0 0 640 512"><!--! Font Awesome Pro 6.5.1 by @fontawesome - https://fontawesome.com License - https://fontawesome.com/license (Commercial License) Copyright 2023 Fonticons, Inc. --><path d="M352 32V48H328V160h24v16H232 216 136 120 40 24 0V160H24V48H0V32H352zM312 48H232V160h80V48zm-96 0H136V160h80V48zm-96 0H40V160h80V48zM384 96h8H504h3.3l2.3 2.3 128 128 2.3 2.3V232 408v8h-8H575.6c.2 2.6 .4 5.3 .4 8c0 48.6-39.4 88-88 88s-88-39.4-88-88c0-2.7 .1-5.4 .4-8H239.6c.2 2.6 .4 5.3 .4 8c0 48.6-39.4 88-88 88s-88-39.4-88-88c0-2.7 .1-5.4 .4-8H8 0v-8V232v-8H8 384V104 96zm0 144H16V400H67.3c10.4-36.9 44.4-64 84.7-64s74.2 27.1 84.7 64H403.3c10.4-36.9 44.4-64 84.7-64s74.2 27.1 84.7 64H624V240H400 384zm228.7-16l-112-112H400V224H612.7zM224 424A72 72 0 1 0 80 424a72 72 0 1 0 144 0zm264 72a72 72 0 1 0 0-144 72 72 0 1 0 0 144z"/></svg>