<svg xmlns="http://www.w3.org/2000/svg" viewBox="0 0 640 512"><!--! Font Awesome Pro 6.5.1 by @fontawesome - https://fontawesome.com License - https://fontawesome.com/license (Commercial License) Copyright 2023 Fonticons, Inc. --><path d="M640 0H0V16H80V96H16 0v16V400v16H16 64.4c-.2 2.6-.4 5.3-.4 8c0 48.6 39.4 88 88 88s88-39.4 88-88c0-2.7-.1-5.4-.4-8H400.4c-.2 2.6-.4 5.3-.4 8c0 48.6 39.4 88 88 88s88-39.4 88-88c0-2.7-.1-5.4-.4-8H624h16V400 112 96H624 560V88c0-22.1-17.9-40-40-40s-40 17.9-40 40v8H384V16H640V0zM368 16V96H288V16h80zm-96 0V96H192V16h80zm-96 0V96H96V16h80zM544 96H496V88c0-13.3 10.7-24 24-24s24 10.7 24 24v8zm0 16h16 64V400H572.7c-10.4-36.9-44.4-64-84.7-64s-74.2 27.1-84.7 64H236.7c-10.4-36.9-44.4-64-84.7-64s-74.2 27.1-84.7 64H16V272H424h8v-8V112h48 16 48zm-128 0V256H16V112H416zm160 48v96H480V160h96zm-96-16H464v16 96 16h16 96 16V256 160 144H576 480zM152 352a72 72 0 1 1 0 144 72 72 0 1 1 0-144zm264 72a72 72 0 1 1 144 0 72 72 0 1 1 -144 0z"/></svg>