<svg xmlns="http://www.w3.org/2000/svg" viewBox="0 0 640 512"><!--! Font Awesome Pro 6.5.1 by @fontawesome - https://fontawesome.com License - https://fontawesome.com/license (Commercial License) Copyright 2023 Fonticons, Inc. --><path d="M232 32h-8v8V192H48 32v16V368H8 0v16H8 32 48 80c0 53 43 96 96 96s96-43 96-96h96c0 53 43 96 96 96s96-43 96-96h32 16 24 8V368h-8H608V208 192H592 514.2l-3.9-5L390.3 35l-2.4-3H384 232zM592 208V368H558.7c-7.6-45.4-47.1-80-94.7-80s-87.1 34.6-94.7 80H270.7c-7.6-45.4-47.1-80-94.7-80s-87.1 34.6-94.7 80H48V208H592zm-98.2-16H240V48H380.1L493.8 192zM96 384a80 80 0 1 1 160 0A80 80 0 1 1 96 384zm368-80a80 80 0 1 1 0 160 80 80 0 1 1 0-160z"/></svg>