<svg xmlns="http://www.w3.org/2000/svg" viewBox="0 0 640 512"><!--! Font Awesome Pro 6.5.1 by @fontawesome - https://fontawesome.com License - https://fontawesome.com/license (Commercial License) Copyright 2023 Fonticons, Inc. --><path d="M48 48v80 16V272v16 80H75.3c10.4-36.9 44.4-64 84.7-64s74.2 27.1 84.7 64H368V224 208 104 48H48zM32 368V288H16 0V272 144 128H16 32V48 32H48 368h16V48 96h72c3 0 5.8 1.7 7.2 4.4L516.9 208H592h16v16V368h24c4.4 0 8 3.6 8 8s-3.6 8-8 8H608 592 567.6c.2 2.6 .4 5.3 .4 8c0 48.6-39.4 88-88 88s-88-39.4-88-88c0-2.7 .1-5.4 .4-8H384 368 247.6c.2 2.6 .4 5.3 .4 8c0 48.6-39.4 88-88 88s-88-39.4-88-88c0-2.7 .1-5.4 .4-8H48 32 8c-4.4 0-8-3.6-8-8s3.6-8 8-8H32zm0-224H16V272H32V144zm352-32v96H499.1l-48-96H384zm0 112V368h11.3c10.4-36.9 44.4-64 84.7-64s74.2 27.1 84.7 64H592V224H512.2h-.3H384zM246.9 132L304 231.9V136v-8h16v8V248v8h-8-8-4.6l-2.3-4L240 152.1V248v8H224v-8V136v-8l8 0 8 0 4.6 0 2.3 4zM112 136v72c0 17.7 14.3 32 32 32s32-14.3 32-32V136v-8h16v8 72c0 26.5-21.5 48-48 48s-48-21.5-48-48V136v-8h16v8zM232 392A72 72 0 1 0 88 392a72 72 0 1 0 144 0zm248 72a72 72 0 1 0 0-144 72 72 0 1 0 0 144z"/></svg>