<svg xmlns="http://www.w3.org/2000/svg" viewBox="0 0 640 512"><!--! Font Awesome Pro 6.5.1 by @fontawesome - https://fontawesome.com License - https://fontawesome.com/license (Commercial License) Copyright 2023 Fonticons, Inc. --><path d="M368 48v56V208v16V368H244.7c-10.4-36.9-44.4-64-84.7-64s-74.2 27.1-84.7 64H48V288 272 144 128 48H368zM32 288v80H8c-4.4 0-8 3.6-8 8s3.6 8 8 8H32 48 72.4c-.2 2.6-.4 5.3-.4 8c0 48.6 39.4 88 88 88s88-39.4 88-88c0-2.7-.1-5.4-.4-8H368h16 8.4c-.2 2.6-.4 5.3-.4 8c0 48.6 39.4 88 88 88s88-39.4 88-88c0-2.7-.1-5.4-.4-8H592h16 24c4.4 0 8-3.6 8-8s-3.6-8-8-8H608V224 208H592 516.9L463.2 100.4C461.8 97.7 459 96 456 96H384V48 32H368 48 32V48v80H16 0v16V272v16H16 32zm0-16H16V144H32V272zm352-64V112h67.1l48 96H384zm0 160V224H511.8h.3H592V368H564.7c-10.4-36.9-44.4-64-84.7-64s-74.2 27.1-84.7 64H384zM88 392a72 72 0 1 1 144 0A72 72 0 1 1 88 392zm392-72a72 72 0 1 1 0 144 72 72 0 1 1 0-144z"/></svg>