<svg xmlns="http://www.w3.org/2000/svg" viewBox="0 0 640 512"><!--! Font Awesome Pro 6.5.1 by @fontawesome - https://fontawesome.com License - https://fontawesome.com/license (Commercial License) Copyright 2023 Fonticons, Inc. --><path d="M603.1 64H608h24 8v8V224 392v8h-8H608h-4.9l-2.2-4.4 0 0 0 0 0 0 0 0-.1-.2c-.1-.2-.3-.5-.5-1c-.5-.9-1.2-2.2-2.2-3.8c-1.9-3.3-4.9-8.2-8.9-14c-8-11.6-20.1-27.2-36.6-42.7c-33-31-83.1-61.8-152.5-61.8H368V400h32c35.3 0 64-28.7 64-64c0-7.8-1.4-15.2-3.9-22.1c6.5 2.2 12.7 4.8 18.6 7.6c.9 4.7 1.3 9.6 1.3 14.6c0 44.2-35.8 80-80 80H368 352 280 264 192 176 144c-44.2 0-80-35.8-80-80c0-26.2 12.6-49.4 32-64H16v8 8H0v-8V184v-8H16v8 8H176V160v-8h16v8 32h72V160v-8h16v8 32h72V160v-8h16v8 32h32c69.4 0 119.5-30.8 152.5-61.8c16.5-15.5 28.6-31.1 36.6-42.7c4-5.8 7-10.6 8.9-14c1-1.7 1.7-3 2.2-3.8c.2-.4 .4-.8 .5-1l.1-.2 0 0 0 0 0 0 0 0 2.2-4.4zM144 256h32 16 72 16 72 16 32c74.6 0 128.5 33.2 163.5 66.2c17.5 16.5 30.4 32.9 38.9 45.3c4.3 6.2 7.4 11.4 9.5 15l.9 1.5H624V224 80H612.8l-.9 1.5c-2.1 3.7-5.3 8.8-9.5 15c-8.5 12.4-21.4 28.8-38.9 45.3c-35 33-88.9 66.2-163.5 66.2H368 352 280 264 192 176 16v48H144zm0 16c-35.3 0-64 28.7-64 64s28.7 64 64 64h32V272H144zm48 0V400h72V272H192zm88 0V400h72V272H280z"/></svg>