<svg xmlns="http://www.w3.org/2000/svg" viewBox="0 0 640 512"><!--! Font Awesome Pro 6.5.1 by @fontawesome - https://fontawesome.com License - https://fontawesome.com/license (Commercial License) Copyright 2023 Fonticons, Inc. --><path d="M448 512C200.6 512 0 311.4 0 64L0 32 144 0l80 144-83.8 67c36.1 68.4 92.3 124.6 160.8 160.8L368 288l144 80L480 512H448zM16 64l0 0c0 238.6 193.4 432 432 432h19.2l26.6-119.8L372 308.6l-58.6 73.2-8.3 10.3-11.7-6.2C222.2 348.3 163.7 289.8 126 218.5l-6.2-11.7 10.3-8.3L203.4 140 135.8 18.2 16 44.8 16 64zM304 80v32h32V80H304zM288 64h16 32 16V80v32 16H336 304 288V112 80 64zm48 112H304v32h32V176zm-32-16h32 16v16 32 16H336 304 288V208 176 160h16zm96-80v32h32V80H400zM384 64h16 32 16V80v32 16H432 400 384V112 80 64zM528 80H496v32h32V80zM496 64h32 16V80v32 16H528 496 480V112 80 64h16zm96 16v32h32V80H592zM576 64h16 32 16V80v32 16H624 592 576V112 80 64zm48 112H592v32h32V176zm-32-16h32 16v16 32 16H624 592 576V208 176 160h16zM400 176v32H528V176H400zm-16-16h16H528h16v16 32 16H528 400 384V208 176 160z"/></svg>