<svg xmlns="http://www.w3.org/2000/svg" viewBox="0 0 512 512"><!--! Font Awesome Pro 6.5.1 by @fontawesome - https://fontawesome.com License - https://fontawesome.com/license (Commercial License) Copyright 2023 Fonticons, Inc. --><path d="M338 237.2V148.8c-53.3-17.4-110.7-17.4-164 0v88.4L32 256-8 152.6C22.8 112.4 118.7 32 256 32s233.2 80.4 264 120.6L480 256 338 237.2zM158 148.8c0-6.9 4.4-13.1 11-15.2c56.5-18.5 117.4-18.5 173.9 0c6.6 2.2 11 8.3 11 15.2v74.4l115.6 15.3 32.1-82.9C468 116.5 379.6 48 256 48S44 116.5 10.3 155.5l32.1 82.9L158 223.2V148.8zM56 288h64 8v8 64 8h-8H56 48v-8V296v-8h8zm8 64h48V304H64v48zm-8 48h64 8v8 64 8h-8H56 48v-8V408v-8h8zm8 64h48V416H64v48zm328-64h64 8v8 64 8h-8H392h-8v-8V408v-8h8zm8 64h48V416H400v48zM160 400h8H344h8v8 64 8h-8H168h-8v-8V408v-8zm16 16v48H336V416H176zM160 288h8 64 8v8 64 8h-8H168h-8v-8V296v-8zm16 16v48h48V304H176zm104-16h64 8v8 64 8h-8H280h-8v-8V296v-8h8zm8 64h48V304H288v48zm96-64h8 64 8v8 64 8h-8H392h-8v-8V296v-8zm16 16v48h48V304H400z"/></svg>