<svg xmlns="http://www.w3.org/2000/svg" viewBox="0 0 384 512"><!--! Font Awesome Pro 6.5.1 by @fontawesome - https://fontawesome.com License - https://fontawesome.com/license (Commercial License) Copyright 2023 Fonticons, Inc. --><path d="M8 32H0V48H8 184V217.8L62.1 248.2l-7.8 1.9 3.9 15.5 7.8-1.9L184 234.2v79.5L62.1 344.2l-7.8 1.9 3.9 15.5 7.8-1.9L184 330.2V472v8h16v-8V326.2l121.9-30.5 7.8-1.9-3.9-15.5-7.8 1.9L200 309.8V230.2l121.9-30.5 7.8-1.9-3.9-15.5-7.8 1.9L200 213.8V48H376h8V32h-8H192 8z"/></svg>