<svg xmlns="http://www.w3.org/2000/svg" viewBox="0 0 384 512"><!--! Font Awesome Pro 6.5.1 by @fontawesome - https://fontawesome.com License - https://fontawesome.com/license (Commercial License) Copyright 2023 Fonticons, Inc. --><path d="M96 32v8 91.1L278.2 88.2l7.8-1.8 3.7 15.6-7.8 1.8L96 147.5v79.6l182.2-42.9 7.8-1.8 3.7 15.6-7.8 1.8L96 243.5V464H216c83.9 0 152-68.1 152-152V264v-8h16v8 48c0 92.8-75.2 168-168 168H88 80v-8V247.3L9.8 263.8 2 265.6-1.6 250l7.8-1.8L80 230.8V151.3L9.8 167.8 2 169.6-1.6 154l7.8-1.8L80 134.8V40 32H96z"/></svg>