<svg xmlns="http://www.w3.org/2000/svg" viewBox="0 0 576 512"><!--! Font Awesome Pro 6.5.1 by @fontawesome - https://fontawesome.com License - https://fontawesome.com/license (Commercial License) Copyright 2023 Fonticons, Inc. --><path d="M560 48V464H16V48H560zM16 32H0V48 464v16H16 560h16V464 48 32H560 16zM224 400a144 144 0 1 1 0-288 144 144 0 1 1 0 288zM64 256a160 160 0 1 0 320 0A160 160 0 1 0 64 256zm144 0a16 16 0 1 1 32 0 16 16 0 1 1 -32 0zm48 0a32 32 0 1 0 -64 0 32 32 0 1 0 64 0zm194.5 79.2l28.6 14.3-16.8 33.7-7.2 14.3-28.6-14.3 7.2-14.3 16.8-33.7zM436.2 328l-16.8 33.7L412.2 376l-7.2 14.3 14.3 7.2L448 411.8l14.3 7.2 7.2-14.3 7.2-14.3 16.8-33.7 7.2-14.3-14.3-7.2-7.2-3.6 32-64 .8-1.7V264 104 96H496v8V262.1l-31.2 62.3-7.2-3.6-14.3-7.2L436.2 328z"/></svg>