<svg xmlns="http://www.w3.org/2000/svg" viewBox="0 0 576 512"><!--! Font Awesome Pro 6.5.1 by @fontawesome - https://fontawesome.com License - https://fontawesome.com/license (Commercial License) Copyright 2023 Fonticons, Inc. --><path d="M208 48C119.6 48 48 119.6 48 208v56 8H32v-8V208c0-97.2 78.8-176 176-176s176 78.8 176 176v56 8H368v-8V208c0-88.4-71.6-160-160-160zm208 80h8 64c48.6 0 88 39.4 88 88v64 8h-8H488v88 8h-8H336v88 8h-8H248h-8v-8V384H176v88 8h-8H88 80v-8V384H8 0v-8V312v-8H8 416V136v-8zM240 368h16v16 32 48h64V416 384 368h16H472V280v-8h8 80V216c0-39.8-32.2-72-72-72H432V312v8h-8H320 256 160 96 16v48H80 96v16 32 48h64V416 384 368h16 64zM496 192a16 16 0 1 1 0 32 16 16 0 1 1 0-32z"/></svg>