<svg xmlns="http://www.w3.org/2000/svg" viewBox="0 0 640 512"><!--! Font Awesome Pro 6.5.1 by @fontawesome - https://fontawesome.com License - https://fontawesome.com/license (Commercial License) Copyright 2023 Fonticons, Inc. --><path d="M16 16V432H624V16H16zM0 0H16 624h16V16 432v16H624 16 0V432 16 0zM104 496H536h8v16h-8H104 96V496h8zM560 80H80V368H560V80zM80 64H560h16V80 368v16H560 80 64V368 80 64H80zm336 36.5V112 264c0 22.1-21.5 40-48 40s-48-17.9-48-40s21.5-40 48-40c12.3 0 23.5 3.9 32 10.2V123.5l-112 42V296c0 22.1-21.5 40-48 40s-48-17.9-48-40s21.5-40 48-40c12.3 0 23.5 3.9 32 10.2V160v-5.5l5.2-1.9 128-48 10.8-4.1zM368 240c-20.5 0-32 13.4-32 24s11.5 24 32 24s32-13.4 32-24s-11.5-24-32-24zM240 272c-20.5 0-32 13.4-32 24s11.5 24 32 24s32-13.4 32-24s-11.5-24-32-24z"/></svg>