<svg xmlns="http://www.w3.org/2000/svg" viewBox="0 0 512 512"><!--! Font Awesome Pro 6.5.1 by @fontawesome - https://fontawesome.com License - https://fontawesome.com/license (Commercial License) Copyright 2023 Fonticons, Inc. --><path d="M64 0V8 160H80V16H372.7L432 75.3V160h16V72 68.7l-2.3-2.3-64-64L379.3 0H376 72 64zM331.3 235.3L358.6 208H496v64H16V208H153.4l27.3 27.3c3 3 7.1 4.7 11.3 4.7H320c4.2 0 8.3-1.7 11.3-4.7zM352 192l-32 32H192l-32-32H16 0v16 64 16H16 32V496v16H48 464h16V496 288h16 16V272 208 192H496 352zm112 96V496H48V288H464zM160 448h-8v16h8H352h8V448h-8H160zM112 320v32h32V320H112zm64 64H144v32h32V384zm32-64H176v32h32V320zm32 64H208v32h32V384zm0-64v32h32V320H240zm64 64H272v32h32V384zm32-64H304v32h32V320zm32 96V384H336v32h32zm0-96v32h32V320H368z"/></svg>