<svg xmlns="http://www.w3.org/2000/svg" viewBox="0 0 512 512"><!--! Font Awesome Pro 6.5.1 by @fontawesome - https://fontawesome.com License - https://fontawesome.com/license (Commercial License) Copyright 2023 Fonticons, Inc. --><path d="M264 8V0H248V8 32.1C115.7 36.2 8.6 140.7 .5 272c-.3 5.3-.5 10.6-.5 16H16 496h16c0-5.4-.2-10.7-.5-16C503.4 140.7 396.3 36.2 264 32.1V8zm-8 40c127.2 0 231.2 98.9 239.5 224H16.5C24.8 146.9 128.8 48 256 48zm8 414.2V320H248V462.2c0 18.7-15.2 33.8-33.8 33.8c-14.6 0-27.5-9.3-32.1-23.1l-6.5-19.4-2.5-7.6-15.2 5.1 2.5 7.6 6.5 19.4c6.8 20.4 25.8 34.1 47.3 34.1c27.5 0 49.8-22.3 49.8-49.8z"/></svg>