<svg xmlns="http://www.w3.org/2000/svg" viewBox="0 0 576 512"><!--! Font Awesome Pro 6.5.1 by @fontawesome - https://fontawesome.com License - https://fontawesome.com/license (Commercial License) Copyright 2023 Fonticons, Inc. --><path d="M296 0V8 48.1c142.8 3.7 260.8 105.4 277.9 237.8l.3 2.1 2.1 16H560.1 558h-6.5-7.2l-4.8-5.3C525 282.3 503.7 272 480 272c-44.2 0-80 35.8-80 80H384h0H368c0-44.2-35.8-80-80-80s-80 35.8-80 80H192h0H176c0-44.2-35.8-80-80-80c-23.7 0-45 10.3-59.6 26.7L31.6 304H24.4 18 15.9-.2l2.1-16 .3-2.1C19.2 153.5 137.2 51.8 280 48.1V8 0h16zM280 304.7c2.6-.4 5.3-.7 8-.7s5.4 .2 8 .7V462.2c0 27.5-22.3 49.8-49.8 49.8c-21.5 0-40.5-13.7-47.3-34.1l-6.5-19.4-2.5-7.6 15.2-5.1 2.5 7.6 6.5 19.4c4.6 13.8 17.5 23.1 32.1 23.1c18.7 0 33.8-15.2 33.8-33.8V304.7zM385.3 336c7.6-45.4 47.1-80 94.7-80c28.4 0 54 12.4 71.6 32H558C541.7 161.8 427 64 288 64S34.3 161.8 18 288h6.5C42 268.4 67.6 256 96 256c47.6 0 87.1 34.6 94.7 80H192h1.3c7.6-45.4 47.1-80 94.7-80s87.1 34.6 94.7 80H384h1.3z"/></svg>