<svg xmlns="http://www.w3.org/2000/svg" viewBox="0 0 640 512"><!--! Font Awesome Pro 6.5.1 by @fontawesome - https://fontawesome.com License - https://fontawesome.com/license (Commercial License) Copyright 2023 Fonticons, Inc. --><path d="M448 16h8 16 43.7l33.8 50.8 10 104.5-67.9 34-28.4-56.8-2.2-4.4H456 440h-8v8 87.5 .2l0 .3c-.2 25.4-11.6 47.6-29.2 62.5l-2.8 2.4v3.7V496H328V325.7v-6.4l-6.3-1.4-120-26.3-9.7-2.1v9.9V304v40 8.2l-3.2 7.5-17.4 40.5-1.1 2.6 .8 2.7L196.2 496h-83L89.5 410.7l-3.8-13.5 5.5-12.9 20.1-46.9 .6-1.5v-1.6V314.4v-1.7l-.7-1.6L77.9 237.7c-3.9-8.6-5.9-18-5.9-27.4c0-36.6 29.7-66.3 66.3-66.3h53.5H248h72 8v-8c0-66.3 53.7-120 120-120zm97.6 16L534.9 16H552h8V0h-8H524.3 520 472 456h-8C375.6 0 316.4 56.6 312.2 128H248 191.8 138.3c-26.5 0-50.1 12.5-65.1 32H72 64c-35.3 0-64 28.7-64 64v88 8H16v-8V224c0-26.3 21.2-47.7 47.5-48c-4.8 10.4-7.5 22.1-7.5 34.3c0 11.7 2.5 23.4 7.4 34.1L96 316.1v16.4L76.5 377.9l-6.6 15.5L68.8 396l.8 2.7L74 415l25.3 91.2L101 512h6.1 99.6 10.5l-2.8-10.1L187.2 404l16.2-37.9 3.9-9.1 .6-1.5v-1.6V344 309.3l104 22.8V504v8h8 88 8v-8V312.1c17.3-15.8 29.1-37.9 31.5-63l.5 .1V240v-.5V160h3.1l29.8 59.6 3.6 7.2 7.2-3.6 80-40 4.9-2.5-.5-5.5-8.6-89.8 67.8-30.1 4.8-2.1V48 40 32h-8H545.6zm10.7 16h56L565.8 68.7l-.5-5.4-.2-2L564 59.6 556.3 48zM496 96a16 16 0 1 0 0-32 16 16 0 1 0 0 32z"/></svg>