<svg xmlns="http://www.w3.org/2000/svg" viewBox="0 0 640 512"><!--! Font Awesome Pro 6.5.1 by @fontawesome - https://fontawesome.com License - https://fontawesome.com/license (Commercial License) Copyright 2023 Fonticons, Inc. --><path d="M235.1 16H192 168 144 120.3L109 36.7l-88 160-5 9V216 400H96V228.3v-2.1l1-1.8 64-116.4 15 3.9V304H160V143.1l-48 87.3V408v8h-8H8 0v-8V216 203.7v-2.1l1-1.8L6.9 189l88-160L108.6 4.1 110.9 0h4.7H144h24 24 47.8 .2 .2H399.8h.3H448h24 24 28.4 4.7l2.3 4.1L545.1 29l88 160 5.9 10.8 1 1.8v2.1V216 408v8h-8H536h-8v-8V230.4l-48-87.3V304H464V112l15-3.9 64 116.4 1 1.8v2.1V400h80V216 205.7l-5-9-88-160L519.7 16H496 472 448 404.9L327.2 171.5 264.1 304H246.4l64.7-135.9L235.1 16zM160 504V384h16V496H464V384h16V504v8h-8H168h-8v-8zM387.1 16H252.9L320 150.1 387.1 16zM160 336H320 480h8v16h-8H334.9l55.7 83.6 4.4 6.7-13.3 8.9-4.4-6.7-57.3-86-57.3 86-4.4 6.7-13.3-8.9 4.4-6.7L305.1 352H160h-8V336h8z"/></svg>