<svg xmlns="http://www.w3.org/2000/svg" viewBox="0 0 448 512"><!--! Font Awesome Pro 6.5.1 by @fontawesome - https://fontawesome.com License - https://fontawesome.com/license (Commercial License) Copyright 2023 Fonticons, Inc. --><path d="M224 16c-61.9 0-112 50.1-112 112v64H432h16v16V496v16H432 16 0V496 208 192H16 96V128C96 57.3 153.3 0 224 0c58.9 0 108.5 39.8 123.4 93.9L332 98.1C318.9 50.8 275.5 16 224 16zM16 208V496H432V208H112 96 16zM272 336H176v32h96V336zm16-16v16 32 16H272 176 160V368 336 320h16 96 16z"/></svg>