<svg xmlns="http://www.w3.org/2000/svg" viewBox="0 0 512 512"><!--! Font Awesome Pro 6.5.1 by @fontawesome - https://fontawesome.com License - https://fontawesome.com/license (Commercial License) Copyright 2023 Fonticons, Inc. --><path d="M256 22.6l80 80V112l-160 0v-9.4l80-80zM160 96v16 16h16 72V248H128V176 160H112 96L11.3 244.7 0 256l11.3 11.3L96 352h16 16V336 264H248V384H176 160v16 16l84.7 84.7L256 512l11.3-11.3L352 416V400 384H336 264V264H384v72 16h16 16l84.7-84.7L512 256l-11.3-11.3L416 160H400 384v16 72H264V128l72 0h16V112 96L267.3 11.3 256 0 244.7 11.3 160 96zm-57.4 80H112V336h-9.4l-80-80 80-80zM256 489.4l-80-80V400H336v9.4l-80 80zM409.4 176l80 80-80 80H400V176h9.4z"/></svg>