<svg xmlns="http://www.w3.org/2000/svg" viewBox="0 0 256 512"><!--! Font Awesome Pro 6.5.1 by @fontawesome - https://fontawesome.com License - https://fontawesome.com/license (Commercial License) Copyright 2023 Fonticons, Inc. --><path d="M192 352H176V336 176 160h16 48 16V144 128L139.3 11.3 128 0 116.7 11.3 0 128v16 16H16 64 80v16V336v16H64 16 0v16 16L116.7 500.7 128 512l11.3-11.3L256 384V368 352H240 192zm48 16v9.4l-112 112L16 377.4V368H80 96V352 160 144H80 16v-9.4l112-112 112 112V144H176 160v16V352v16h16 64z"/></svg>