<svg xmlns="http://www.w3.org/2000/svg" viewBox="0 0 448 512"><!--! Font Awesome Pro 6.5.1 by @fontawesome - https://fontawesome.com License - https://fontawesome.com/license (Commercial License) Copyright 2023 Fonticons, Inc. --><path d="M16 480V448H48v32H16zm128 0H112V448h32v32zm96 0H208V448h32v32zm96 0H304V448h32v32zm64 0V448h32v32H400zM160 240H144 80 64V224 208L212.7 59.3 224 48l11.3 11.3L384 208v16 16H368 304 288v16V384v16H272 176 160V384 256 240zm0-16h16v16V384h96V240 224h16 80v-9.4L224 70.6 80 214.6V224h80z"/></svg>