<svg xmlns="http://www.w3.org/2000/svg" viewBox="0 0 512 512"><!--! Font Awesome Pro 6.5.1 by @fontawesome - https://fontawesome.com License - https://fontawesome.com/license (Commercial License) Copyright 2023 Fonticons, Inc. --><path d="M331.3 43.3l21.4 21.4L364 76 352.7 87.3l-85.4 85.4L256 184l11.3 11.3 49.4 49.4L328 256l11.3-11.3 85.4-85.4L436 148l11.3 11.3 21.4 21.4L480 192l11.3-11.3L512 160V16 0H496 352L331.3 20.7 320 32l11.3 11.3zm44 44L386.6 76 375.3 64.7 342.6 32l16-16H496V153.4l-16 16-32.7-32.7L436 125.4l-11.3 11.3L328 233.4 278.6 184l96.7-96.7zM180.7 468.7l-21.4-21.4L148 436l11.3-11.3 85.4-85.4L256 328l-11.3-11.3-49.4-49.4L184 256l-11.3 11.3L87.3 352.7 76 364 64.7 352.7 43.3 331.3 32 320 20.7 331.3 0 352V496v16H16 160l20.7-20.7L192 480l-11.3-11.3zm-44-44L125.4 436l11.3 11.3L169.4 480l-16 16H16V358.6l16-16 32.7 32.7L76 386.6l11.3-11.3L184 278.6 233.4 328l-96.7 96.7z"/></svg>