<svg xmlns="http://www.w3.org/2000/svg" viewBox="0 0 512 512"><!--! Font Awesome Pro 6.5.1 by @fontawesome - https://fontawesome.com License - https://fontawesome.com/license (Commercial License) Copyright 2023 Fonticons, Inc. --><path d="M352 16H488h8v8V160v3.3l-2.3 2.3-24 24-5.7 5.7-5.7-5.7L396 127.3 213.7 309.7l-5.7 5.7L196.7 304l5.7-5.7L384.7 116 322.3 53.7 316.7 48l5.7-5.7 24-24 2.3-2.3H352zM339.3 48L464 172.7l16-16V32H355.3l-16 16zM0 32H8 200h8V48h-8H16V496H464V312v-8h16v8V504v8h-8H8 0v-8V40 32z"/></svg>