<svg xmlns="http://www.w3.org/2000/svg" viewBox="0 0 448 512"><!--! Font Awesome Pro 6.5.1 by @fontawesome - https://fontawesome.com License - https://fontawesome.com/license (Commercial License) Copyright 2023 Fonticons, Inc. --><path d="M16 48H48V80H16V48zm128 0V80H112V48h32zm96 0V80H208V48h32zm96 0V80H304V48h32zm64 0h32V80H400V48zM160 320H144 80 64V304 288L212.7 139.3 224 128l11.3 11.3L384 288v16 16H368 304 288v16V464v16H272 176 160V464 336 320zm0-16h16v16V464h96V320 304h16 80v-9.4l-144-144L80 294.6V304h80z"/></svg>