<svg xmlns="http://www.w3.org/2000/svg" viewBox="0 0 512 512"><!--! Font Awesome Pro 6.5.1 by @fontawesome - https://fontawesome.com License - https://fontawesome.com/license (Commercial License) Copyright 2023 Fonticons, Inc. --><path d="M264 376v8H248v-8V35.3L133.7 149.7l-5.7 5.7L116.7 144l5.7-5.7 128-128L256 4.7l5.7 5.7 128 128 5.7 5.7L384 155.3l-5.7-5.7L264 35.3V376zm-48-40H16V496H496V336H296V320H496h16v16V496v16H496 16 0V496 336 320H16 216v16zm216 64a16 16 0 1 0 0 32 16 16 0 1 0 0-32zm32 16a32 32 0 1 1 -64 0 32 32 0 1 1 64 0z"/></svg>