<svg xmlns="http://www.w3.org/2000/svg" viewBox="0 0 640 512"><!--! Font Awesome Pro 6.5.1 by @fontawesome - https://fontawesome.com License - https://fontawesome.com/license (Commercial License) Copyright 2023 Fonticons, Inc. --><path d="M16 112V400H432V112H16zM0 96H16 432h16v16V400v16H432 16 0V400 112 96zM624 384H480V368H624V144H480V128H624h16v16V368v16H624zm-48-96H544v32h32V288zm-32-16h32 16v16 32 16H576 544 528V320 288 272h16zm0-80v32h32V192H544zm-16-16h16 32 16v16 32 16H576 544 528V224 192 176z"/></svg>