<svg xmlns="http://www.w3.org/2000/svg" viewBox="0 0 448 512"><!--! Font Awesome Pro 6.5.1 by @fontawesome - https://fontawesome.com License - https://fontawesome.com/license (Commercial License) Copyright 2023 Fonticons, Inc. --><path d="M174.3 7.2L224 32 273.7 7.2 288 0l6.5 14.6 44.9 101.1c3-1.1 5.9-2.1 8.7-3.2c15.2-5.9 27.1-11.7 35.2-16.1c4.1-2.2 7.2-4 9.2-5.2c1-.6 1.8-1.1 2.3-1.4l.6-.4 .1-.1 0 0 0 0 0 0 0 0 6.6-4.4 8.9 13.3-6.7 4.4L400 96c4.4 6.7 4.4 6.7 4.4 6.7l0 0 0 0-.1 0-.2 .1-.7 .4c-.6 .4-1.5 .9-2.6 1.6c-2.3 1.4-5.6 3.3-9.9 5.6c-8.6 4.6-21.2 10.8-37 16.9C322.2 139.7 277.2 152 224 152c-57.2 0-102.2-12.3-133-24.6c-15.4-6.2-27.2-12.3-35.3-17c-4-2.3-7.1-4.3-9.2-5.7c-1-.7-1.9-1.3-2.4-1.7l-.6-.5-.2-.1-.1 0 0 0 0 0s0 0 4.8-6.4l-4.8 6.4-6.4-4.8 9.6-12.8 6.4 4.8 0 0 0 0 .1 .1 .5 .3c.4 .3 1.1 .8 2 1.4c1.8 1.2 4.6 3 8.4 5.2c7.5 4.3 18.6 10.1 33.2 16c3.5 1.4 7.2 2.8 11.1 4.2L153.5 14.6 160 0l14.3 7.2zM280.2 21.8l-49 24.5L224 49.9l-7.2-3.6-49-24.5-44.4 100c26.7 8 60.5 14.2 100.6 14.2c38.6 0 72.7-6.8 100.2-15.2l-44-99zM96 192c0-9.5 1-18.7 3-27.6c4.9 1.6 10 3.2 15.4 4.7c-1.5 7.4-2.3 15-2.3 22.9c0 61.9 50.1 112 112 112s112-50.1 112-112c0-8.2-.9-16.2-2.5-23.9c5.3-1.6 10.4-3.2 15.3-4.8c2.1 9.2 3.2 18.8 3.2 28.7c0 11-1.4 21.8-4 32h66.7H432l-6.5 16-32.7 80-6.5 16h17.3H416l29.1 160 2.9 16H431.7 16.3 0l2.9-16L32 336H44.5 61.8l-6.5-16L22.5 240 16 224H33.3 100c-2.6-10.2-4-21-4-32zm9.3 48H39.8l36.8 89.9 9 22.1H61.8 45.4L19.2 496H167.7L136.3 386.2l-2.2-7.7 15.4-4.4 2.2 7.7 29.1 101.9 33.8-74.4-36.8-44.1L166.9 352H184h80 17.1l-10.9 13.1-36.8 44.1 33.8 74.4 29.1-101.9 2.2-7.7 15.4 4.4-2.2 7.7L280.3 496H428.8L402.6 352H386.2 362.3l9-22.1L408.2 240H342.7c-19 46.9-65 80-118.7 80s-99.7-33.1-118.7-80zM224 427.3L192.8 496h62.4L224 427.3zM128 186.7v-14c5.2 1.3 10.5 2.4 16 3.5v10.4c0 17.7 14.3 32 32 32h4.5c13.8 0 26-8.8 30.4-21.9l4.3-12.9c2.9 .1 5.9 .1 8.8 .1s5.9 0 8.8-.1l4.3 12.9c4.4 13.1 16.6 21.9 30.4 21.9H272c17.7 0 32-14.3 32-32V175.6c5.5-1.2 10.8-2.4 16-3.7v14.8c0 26.5-21.5 48-48 48h-4.5c-18.8 0-35.7-11-43.5-27.7c-7.8 16.7-24.7 27.7-43.5 27.7H176c-26.5 0-48-21.5-48-48zm96 208.8L246.9 368H201.1L224 395.5z"/></svg>