<svg xmlns="http://www.w3.org/2000/svg" viewBox="0 0 448 512"><!--! Font Awesome Pro 6.5.1 by @fontawesome - https://fontawesome.com License - https://fontawesome.com/license (Commercial License) Copyright 2023 Fonticons, Inc. --><path d="M333.4 104H259.3L229.7 74.3 224 68.7l-5.7 5.7L188.7 104H114.6c11-50.3 55.8-88 109.4-88s98.4 37.7 109.4 88zm2.3 16c.2 2.6 .3 5.3 .3 8v16c0 61.9-50.1 112-112 112s-112-50.1-112-112V128c0-2.7 .1-5.4 .3-8H192h3.3l2.3-2.3L224 91.3l26.3 26.3 2.3 2.3H256h79.7zM224 272c48.2 0 90.2-26.6 112-66v2 16h16 48 16V208 80 64H400 352 336v2C314.2 26.6 272.2 0 224 0s-90.2 26.6-112 66V64H96 48 32V80 208v16H48 96h16V208v-2c21.8 39.4 63.8 66 112 66zm128-64V144 128 80h48V208H352zM75.8 320H372.2l54.2 176H21.7L75.8 320zM384 304H64L4.9 496 0 512H16.7 431.3 448l-4.9-16L384 304zM48 80H96v48 16 64H48V80z"/></svg>