<svg xmlns="http://www.w3.org/2000/svg" viewBox="0 0 448 512"><!--! Font Awesome Pro 6.5.1 by @fontawesome - https://fontawesome.com License - https://fontawesome.com/license (Commercial License) Copyright 2023 Fonticons, Inc. --><path d="M224 240a112 112 0 1 0 0-224 112 112 0 1 0 0 224zM352 128A128 128 0 1 1 96 128a128 128 0 1 1 256 0zM168.5 304H184h80 15.5l-9 12.6-37.2 52.1 23.2 46.3L304 320h80l58.7 176 5.3 16H431.1 225.9h-3.8H16.9 0l5.3-16L64 320h80l47.5 95.1 23.2-46.3-37.2-52.1-9-12.6zm80 16H199.5l23.2 32.5 1.2-2.4 1.2 2.4L248.5 320zM209.7 487.2L134.1 336H75.5L22.2 496H214.1l-4.4-8.8zm-9.2-54.2l14.6 29.2L224 480l8.9-17.9 14.6-29.2L224 385.9l-23.5 47.1zM233.9 496H425.8L372.5 336H313.9L238.3 487.2l-4.4 8.8z"/></svg>