<svg xmlns="http://www.w3.org/2000/svg" viewBox="0 0 448 512"><!--! Font Awesome Pro 6.5.1 by @fontawesome - https://fontawesome.com License - https://fontawesome.com/license (Commercial License) Copyright 2023 Fonticons, Inc. --><path d="M331.4 160c-13.8 46.3-56.6 80-107.4 80s-93.6-33.7-107.4-80H331.4zM96 160h4c14.2 55.2 64.3 96 124 96s109.8-40.8 124-96h4 16V144 80 64H352 334.9C312.7 25.7 271.4 0 224 0s-88.7 25.7-110.9 64H96 80V80v64 16H96zM224 16c38.1 0 71.7 19 91.9 48H132.1c20.2-29 53.9-48 91.9-48zM352 80v64H96V80H352zM128 104h-8v16h8H320h8V104h-8H128zM75.8 320H372.2l54.2 176H21.7L75.8 320zM384 304H64L4.9 496 0 512H16.7 431.3 448l-4.9-16L384 304zm-56.7 60.7l-7.3-16-7.3 16-40 88-2.3 5 3.9 3.9 8 8 4.4 4.4 5.4-3.2 34.6-20.8 19.6 19.6 5.7 5.7 5.7-5.7 8-8 3.9-3.9-2.3-5-40-88zm-3.4 68.5l-34 20.4L320 387.3l27.8 61.1-14.1-14.1-4.4-4.4-5.4 3.2z"/></svg>