<svg xmlns="http://www.w3.org/2000/svg" viewBox="0 0 448 512"><!--! Font Awesome Pro 6.5.1 by @fontawesome - https://fontawesome.com License - https://fontawesome.com/license (Commercial License) Copyright 2023 Fonticons, Inc. --><path d="M336 128v16c0 61.9-50.1 112-112 112s-112-50.1-112-112V128l104 0h3.8l2.4-2.9 33.2-40.6 18.2 24.3L276 112h4 54.9c.7 5.2 1.1 10.6 1.1 16zM284 96L265.8 71.8l26.6-32.5c18.4 14.2 32.2 33.9 39 56.7H284zm-5-65.6L212.2 112H113.1c7.8-54.3 54.4-96 110.9-96c20 0 38.7 5.2 55 14.4zM96 128v16c0 70.7 57.3 128 128 128s128-57.3 128-128V128C352 57.3 294.7 0 224 0S96 57.3 96 128zM211.9 410.4L224 424.6l12.1-14.2L313.6 320h58.5l54.2 176H21.7L75.8 320h58.5l77.5 90.4zM384 304H306.3l-71.8 83.7L224 400l-10.5-12.3L141.7 304H64L4.9 496 0 512H16.7 431.3 448l-4.9-16L384 304z"/></svg>