<svg xmlns="http://www.w3.org/2000/svg" viewBox="0 0 640 512"><!--! Font Awesome Pro 6.5.1 by @fontawesome - https://fontawesome.com License - https://fontawesome.com/license (Commercial License) Copyright 2023 Fonticons, Inc. --><path d="M112 128a112 112 0 1 1 224 0 112 112 0 1 1 -224 0zm240 0A128 128 0 1 0 96 128a128 128 0 1 0 256 0zM21.7 496L75.8 320H320V304H64L4.9 496 0 512H16.7 431.3 448l-4.9-16-3.4-11.1-24.2-24.2L426.3 496H21.7zm607-123.3L480 224H384l-32 32v96L500.7 500.7 512 512l11.3-11.3L628.7 395.3 640 384l-11.3-11.3zM473.4 240l144 144L512 489.4l-144-144V262.6L390.6 240h82.7zM440 296a16 16 0 1 0 -32 0 16 16 0 1 0 32 0z"/></svg>