<svg xmlns="http://www.w3.org/2000/svg" viewBox="0 0 448 512"><!--! Font Awesome Pro 6.5.1 by @fontawesome - https://fontawesome.com License - https://fontawesome.com/license (Commercial License) Copyright 2023 Fonticons, Inc. --><path d="M224 240a112 112 0 1 0 0-224 112 112 0 1 0 0 224zM352 128A128 128 0 1 1 96 128a128 128 0 1 1 256 0zM21.7 496H426.3L372.2 320H312v48.7c22.7 3.8 40 23.6 40 47.3v40 8h-8H328h-8V448h8 8V416c0-17.7-14.3-32-32-32s-32 14.3-32 32v32h8 8v16h-8H264h-8v-8V416c0-23.8 17.3-43.5 40-47.3V320H152v48.7c22.7 3.8 40 23.6 40 47.3c0 26.5-21.5 48-48 48s-48-21.5-48-48c0-23.8 17.3-43.5 40-47.3V320H75.8L21.7 496zM144 384a32 32 0 1 0 0 64 32 32 0 1 0 0-64zM64 304H384l59.1 192 4.9 16H431.3 16.7 0l4.9-16L64 304z"/></svg>