<svg xmlns="http://www.w3.org/2000/svg" viewBox="0 0 448 512"><!--! Font Awesome Pro 6.5.1 by @fontawesome - https://fontawesome.com License - https://fontawesome.com/license (Commercial License) Copyright 2023 Fonticons, Inc. --><path d="M312 104v64c0 45.9-35.1 83.6-80 87.6V224v-8H216v8 31.6c-44.9-4-80-41.7-80-87.6V104c0-48.6 39.4-88 88-88s88 39.4 88 88zM112 128c0-8.1 3-15.5 8-21.2V168c0 57.4 46.6 104 104 104s104-46.6 104-104V106.8c5 5.6 8 13.1 8 21.2v24 4.8l2.7 4 29.3 44V240H326.5c-3.5 5.8-7.7 11.2-12.4 16H368h16V240 200l-32-48V128c0-18.4-10.4-34.4-25.6-42.5C317.6 36.9 275.1 0 224 0s-93.6 36.9-102.4 85.5c-15.2 8-25.6 24-25.6 42.5v24L64 200v40 16H80h53.9c-4.7-4.8-8.9-10.2-12.4-16H80V204.8l29.3-44 2.7-4V152 128zM236 416a12 12 0 1 0 -24 0 12 12 0 1 0 24 0zm0 48a12 12 0 1 0 -24 0 12 12 0 1 0 24 0zm-6.3-293.7l-5.7-5.7-5.7 5.7C203.8 184.9 188.5 188 184 188h-8v16h8c7.9 0 24.2-3.9 40.1-17.2c3.5 2.8 7.7 5.9 12.4 8.6c7.7 4.5 17.5 8.6 27.5 8.6h8V188h-8c-6 0-12.8-2.6-19.5-6.4c-6.5-3.8-12-8.4-14.9-11.2zM204 128a12 12 0 1 0 -24 0 12 12 0 1 0 24 0zm52 12a12 12 0 1 0 0-24 12 12 0 1 0 0 24zM144 304h-3.3l-2.3 2.3L124.7 320H64L5.3 496 0 512H16.9 431.1 448l-5.3-16L384 320H323.3l-13.7-13.7-2.3-2.3H304 144zM98.3 346.3L96 348.7V352v56 16.6l13-10.4L146.8 384H301.2L339 414.2l13 10.4V408 352v-3.3l-2.3-2.3L339.3 336h33.2l53.3 160H22.2L75.5 336h33.2L98.3 346.3zm13.7 9L147.3 320H216v48H144h-2.8l-2.2 1.8-27 21.6v-36zM232 368V320h68.7L336 355.3v36l-27-21.6-2.2-1.8H304 232z"/></svg>