<svg xmlns="http://www.w3.org/2000/svg" viewBox="0 0 640 512"><!--! Font Awesome Pro 6.5.1 by @fontawesome - https://fontawesome.com License - https://fontawesome.com/license (Commercial License) Copyright 2023 Fonticons, Inc. --><path d="M112 128a112 112 0 1 1 224 0 112 112 0 1 1 -224 0zm240 0A128 128 0 1 0 96 128a128 128 0 1 0 256 0zM21.7 496L75.8 320H326.6c1.5-5.4 3.3-10.8 5.4-16H64L4.9 496 0 512H16.7h378c-6.9-4.9-13.4-10.2-19.6-16H21.7zM496 240a128 128 0 1 1 0 256 128 128 0 1 1 0-256zm0 272a144 144 0 1 0 0-288 144 144 0 1 0 0 288zm8-224H488v8 72 8h8 56 8V360h-8H504V296v-8z"/></svg>