<svg xmlns="http://www.w3.org/2000/svg" viewBox="0 0 640 512"><!--! Font Awesome Pro 6.5.1 by @fontawesome - https://fontawesome.com License - https://fontawesome.com/license (Commercial License) Copyright 2023 Fonticons, Inc. --><path d="M336 128a112 112 0 1 0 -224 0 112 112 0 1 0 224 0zM96 128a128 128 0 1 1 256 0A128 128 0 1 1 96 128zM21.7 496H322.1l-2.5 16H16.7 0l4.9-16L64 304H384l12.6 40.9-12.8 12.8L372.2 320H75.8L21.7 496zM562.9 223.9l11.3 11.3 54.5 54.5L640 300.9l-11.3 11.3L443.3 497.6l-74.7 11.6L352 511.9l2.6-16.6 11.6-74.7L562.9 223.9zM381.2 428.2l-10 64.5 64.5-10L573.5 344.8 519 290.4 381.2 428.2zM617.4 300.9l-54.5-54.5L530.4 279l54.5 54.5 32.5-32.5z"/></svg>