<svg xmlns="http://www.w3.org/2000/svg" viewBox="0 0 640 512"><!--! Font Awesome Pro 6.5.1 by @fontawesome - https://fontawesome.com License - https://fontawesome.com/license (Commercial License) Copyright 2023 Fonticons, Inc. --><path d="M208 80A64 64 0 1 0 80 80a64 64 0 1 0 128 0zM64 80a80 80 0 1 1 160 0A80 80 0 1 1 64 80zM320 304a80 80 0 1 0 0-160 80 80 0 1 0 0 160zm0-176a96 96 0 1 1 0 192 96 96 0 1 1 0-192zM187.9 368L149.5 496H448v16H144.7 128l4.8-16L176 352H384v16H187.9zM196 192c-1.3 5.2-2.4 10.6-3 16H59.1l-36 96H6L48 192H196zM444 192H592l42 112H616.9l-36-96H447c-.7-5.4-1.7-10.8-3-16zM576 80A64 64 0 1 0 448 80a64 64 0 1 0 128 0zM432 80a80 80 0 1 1 160 0A80 80 0 1 1 432 80zm64 208h64 8v8 64h64 8v8 64 8h-8H568v64 8h-8H496h-8v-8V440H424h-8v-8V368v-8h8 64V296v-8h8zm8 80v8h-8H432v48h64 8v8 64h48V432v-8h8 64V376H560h-8v-8V304H504v64z"/></svg>