<svg xmlns="http://www.w3.org/2000/svg" viewBox="0 0 640 512"><!--! Font Awesome Pro 6.5.1 by @fontawesome - https://fontawesome.com License - https://fontawesome.com/license (Commercial License) Copyright 2023 Fonticons, Inc. --><path d="M321.6 208a64 64 0 1 0 0-128 64 64 0 1 0 0 128zm0-144a80 80 0 1 1 0 160 80 80 0 1 1 0-160zM440.9 368l-36-96H235.1l-36 96H440.9zM224 256H416l42 112 6 16H446.9 193.1 176l6-16 42-112zM8 448H632h8v16h-8H8 0V448H8zM195.2 128a48 48 0 1 0 -96 0 48 48 0 1 0 96 0zm-112 0a64 64 0 1 1 128 0 64 64 0 1 1 -128 0zM496 176a48 48 0 1 0 0-96 48 48 0 1 0 0 96zm0-112a64 64 0 1 1 0 128 64 64 0 1 1 0-128zM75.5 240L54.2 304H171.8l-6 16H48.9 32l5.3-16L64 224H201.8l-6 16H75.5zm392.6 64H585.8l-21.3-64H444.2l-6-16H576l26.7 80 5.3 16H591.1h-117l-6-16z"/></svg>