<svg xmlns="http://www.w3.org/2000/svg" viewBox="0 0 640 512"><!--! Font Awesome Pro 6.5.1 by @fontawesome - https://fontawesome.com License - https://fontawesome.com/license (Commercial License) Copyright 2023 Fonticons, Inc. --><path d="M112 128a112 112 0 1 1 224 0 112 112 0 1 1 -224 0zm240 0A128 128 0 1 0 96 128a128 128 0 1 0 256 0zM21.7 496L75.8 320H372.2L384 358.4l0-54.4H64L4.9 496 0 512H16.7 384l0-16H21.7zM528 208c26.5 0 48 21.5 48 48v64H480V256c0-26.5 21.5-48 48-48zm-64 48v64H432 416v16V496v16h16H624h16V496 336 320H624 592V256c0-35.3-28.7-64-64-64s-64 28.7-64 64zm-32 80h32 16 96 16 32V496H432V336z"/></svg>