<svg xmlns="http://www.w3.org/2000/svg" viewBox="0 0 448 512"><!--! Font Awesome Pro 6.5.1 by @fontawesome - https://fontawesome.com License - https://fontawesome.com/license (Commercial License) Copyright 2023 Fonticons, Inc. --><path d="M336 128c0-8.2-.9-16.3-2.6-24H192 114.6c-1.7 7.7-2.6 15.8-2.6 24c0 61.9 50.1 112 112 112s112-50.1 112-112zM188.7 88L256 20.6c-10.2-3-20.9-4.6-32-4.6c-47.8 0-88.5 29.9-104.6 72h69.3zm140 0c-10.3-26.8-30.6-48.7-56.3-61l-61 61H328.6zM96 128a128 128 0 1 1 256 0A128 128 0 1 1 96 128zM21.7 496H80V320H75.8L21.7 496zM96 496h72 16 43.7 21.5L134.4 320H96V496zm172.3 0H336V416H216.2l52.2 80zm-62.6-96H344h8v8 88h74.3L372.2 320H153.6l52.2 80zM168 512H16.7 0l4.9-16L64 304H384l59.1 192 4.9 16H431.3 352h-8H176h-8z"/></svg>