<svg xmlns="http://www.w3.org/2000/svg" viewBox="0 0 448 512"><!--! Font Awesome Pro 6.5.1 by @fontawesome - https://fontawesome.com License - https://fontawesome.com/license (Commercial License) Copyright 2023 Fonticons, Inc. --><path d="M336 128c0-5.4-.4-10.8-1.1-16H280h-4l-2.4-3.2L255.4 84.5l-33.2 40.6-2.4 2.9H216l-104 0v16c0 61.9 50.1 112 112 112s112-50.1 112-112V128zM284 96h47.4c-6.8-22.8-20.6-42.5-39-56.7L265.8 71.8 284 96zm-5-65.6C262.7 21.2 244 16 224 16c-56.4 0-103.1 41.7-110.9 96h99.1L279 30.4zM96 128C96 57.3 153.3 0 224 0s128 57.3 128 128v16c0 70.7-57.3 128-128 128s-128-57.3-128-128V128zM21.7 496H426.3L372.2 320H312v48.7c22.7 3.8 40 23.6 40 47.3v40 8h-8H328h-8V448h8 8V416c0-17.7-14.3-32-32-32s-32 14.3-32 32v32h8 8v16h-8H264h-8v-8V416c0-23.8 17.3-43.5 40-47.3V320H152v48.7c22.7 3.8 40 23.6 40 47.3c0 26.5-21.5 48-48 48s-48-21.5-48-48c0-23.8 17.3-43.5 40-47.3V320H75.8L21.7 496zM112 416a32 32 0 1 0 64 0 32 32 0 1 0 -64 0zM64 304H384l59.1 192 4.9 16H431.3 16.7 0l4.9-16L64 304z"/></svg>