<svg xmlns="http://www.w3.org/2000/svg" viewBox="0 0 448 512"><!--! Font Awesome Pro 6.5.1 by @fontawesome - https://fontawesome.com License - https://fontawesome.com/license (Commercial License) Copyright 2023 Fonticons, Inc. --><path d="M30.2 72L224 16.6 417.8 72 224 127.4 30.2 72zM224 144L448 80V64L224 0 0 64V80l32 9.1v77.7L3.5 261.7 .4 272H11.2 68.8 79.6l-3.1-10.3L48 166.8V93.7L224 144zm8 352V438.8l3.7-3.9 93.1-99h43.7l53.3 160H232zM22.2 496L75.5 336h43.7l93.1 99 3.7 3.9V496H22.2zM321.9 320L235 412.3 224 424l-11-11.7L126.1 320H64L5.3 496 0 512H16.9 431.1 448l-5.3-16L384 320H321.9zM96 176c0 70.7 57.3 128 128 128s128-57.3 128-128V140.7l-16 4.6V176c0 61.9-50.1 112-112 112s-112-50.1-112-112V145.3l-16-4.6V176zM22 256l18-60.2L58 256H22z"/></svg>