<svg xmlns="http://www.w3.org/2000/svg" viewBox="0 0 448 512"><!--! Font Awesome Pro 6.5.1 by @fontawesome - https://fontawesome.com License - https://fontawesome.com/license (Commercial License) Copyright 2023 Fonticons, Inc. --><path d="M232 8V0H216V8 64H80 64V80 304v16H80 368h16V304 80 64H368 232V8zM80 80H368V304H80V80zM32 128H16V256H32V128zm400 0H416V256h16V128zM160 184a24 24 0 1 1 0-48 24 24 0 1 1 0 48zm-40-24a40 40 0 1 0 80 0 40 40 0 1 0 -80 0zm192 0a24 24 0 1 1 -48 0 24 24 0 1 1 48 0zm-24-40a40 40 0 1 0 0 80 40 40 0 1 0 0-80zM232 232H216v48h16V232zM21.5 496L59.9 368H388.1l38.4 128H368V432 416H352 96 80v16 64H21.5zm409.8 16H448l-4.8-16L400 352H48L4.8 496 0 512H16.7 80 96 352h16 63.3zM352 432v64H296V432h56zm-72 0v64H232V432h48zm-64 0v64H168V432h48zm-64 0v64H96V432h56zm0-200v48h16V232H152zm128 0v48h16V232H280z"/></svg>