<svg xmlns="http://www.w3.org/2000/svg" viewBox="0 0 640 512"><!--! Font Awesome Pro 6.5.1 by @fontawesome - https://fontawesome.com License - https://fontawesome.com/license (Commercial License) Copyright 2023 Fonticons, Inc. --><path d="M80 80a64 64 0 1 1 128 0A64 64 0 1 1 80 80zm144 0A80 80 0 1 0 64 80a80 80 0 1 0 160 0zm96 64a80 80 0 1 1 0 160 80 80 0 1 1 0-160zm0 176a96 96 0 1 0 0-192 96 96 0 1 0 0 192zM187.9 368H452.1l38.4 128h-341l38.4-128zM464 352H176L132.8 496 128 512h16.7H495.3 512l-4.8-16L464 352zM196 192H48L6 304H23.1l36-96H193c.7-5.4 1.7-10.8 3-16zM444 192c1.3 5.2 2.4 10.6 3 16H580.9l36 96H634L592 192H444zm4-112a64 64 0 1 1 128 0A64 64 0 1 1 448 80zm144 0A80 80 0 1 0 432 80a80 80 0 1 0 160 0z"/></svg>