<svg xmlns="http://www.w3.org/2000/svg" viewBox="0 0 640 512"><!--! Font Awesome Pro 6.5.1 by @fontawesome - https://fontawesome.com License - https://fontawesome.com/license (Commercial License) Copyright 2023 Fonticons, Inc. --><path d="M112 128a112 112 0 1 1 224 0 112 112 0 1 1 -224 0zm240 0A128 128 0 1 0 96 128a128 128 0 1 0 256 0zM21.7 496L75.8 320H321.1c-.5-5.4-.8-10.7-1-16H64L4.9 496 0 512H16.7 426.1c-7-5-13.7-10.3-19.9-16H21.7zM624 290.7V296c0 76.9-40.9 162.4-120 195.9V244.3l120 46.5zm-256 0l120-46.5V491.9c-79.1-33.5-120-119-120-195.9v-5.3zM496 512c96-32 144-130.2 144-216V279.8L496 224 352 279.8V296c0 85.8 48 184 144 216z"/></svg>