<svg xmlns="http://www.w3.org/2000/svg" viewBox="0 0 448 512"><!--! Font Awesome Pro 6.5.1 by @fontawesome - https://fontawesome.com License - https://fontawesome.com/license (Commercial License) Copyright 2023 Fonticons, Inc. --><path d="M336 144v-8-8c0-5.4-.4-10.8-1.1-16H280h-4l-2.4-3.2L255.4 84.5l-33.2 40.6-2.4 2.9H216l-104 0v8 8c0 61.9 50.1 112 112 112s112-50.1 112-112zm8.6 43.1C326.9 236.6 279.6 272 224 272s-102.9-35.4-120.6-84.9L48 235.6V256h72 8v16h-8H40 32v-8V232v-3.6l2.7-2.4L96 172.4V144v-8-8C96 57.3 153.3 0 224 0s128 57.3 128 128v8 8 28.4L413.3 226l2.7 2.4V232v32 8h-8H328h-8V256h8 72V235.6l-55.4-48.5zM284 96h47.4c-6.8-22.8-20.6-42.5-39-56.7L265.8 71.8 284 96zm-5-65.6C262.7 21.2 244 16 224 16c-56.4 0-103.1 41.7-110.9 96h99.1L279 30.4zm-67.1 380L134.4 320H75.8L21.7 496H426.3L372.2 320H313.6l-77.5 90.4L224 424.6l-12.1-14.2zM384 304l59.1 192 4.9 16H431.3 16.7 0l4.9-16L64 304h77.7l71.8 83.7L224 400l10.5-12.3L306.3 304H384z"/></svg>