<svg xmlns="http://www.w3.org/2000/svg" viewBox="0 0 640 512"><!--! Font Awesome Pro 6.5.1 by @fontawesome - https://fontawesome.com License - https://fontawesome.com/license (Commercial License) Copyright 2023 Fonticons, Inc. --><path d="M21.7 10.3l72 72L99.3 88 88 99.3l-5.7-5.7-72-72L4.7 16 16 4.7l5.7 5.7zm608 11.3l-72 72L552 99.3 540.7 88l5.7-5.7 72-72L624 4.7 635.3 16l-5.7 5.7zm-536 408l-72 72L16 507.3 4.7 496l5.7-5.7 72-72 5.7-5.7L99.3 424l-5.7 5.7zm464-11.3l72 72 5.7 5.7L624 507.3l-5.7-5.7-72-72-5.7-5.7L552 412.7l5.7 5.7zM176 208a32 32 0 1 0 0-64 32 32 0 1 0 0 64zm0-80a48 48 0 1 1 0 96 48 48 0 1 1 0-96zm192 64a48 48 0 1 0 -96 0 48 48 0 1 0 96 0zm-112 0a64 64 0 1 1 128 0 64 64 0 1 1 -128 0zM214.2 368H425.8l-21.3-64H235.5l-21.3 64zm9.8-80H416l26.7 80 5.3 16H431.1 208.9 192l5.3-16L224 288zM432 176a32 32 0 1 0 64 0 32 32 0 1 0 -64 0zm80 0a48 48 0 1 1 -96 0 48 48 0 1 1 96 0zM132.2 272l-15.3 56h60l-5.3 16h-59H96l4.4-16L120 256h80.9l-5.3 16H132.2zm330.8 56h60l-15.3-56H444.4l-5.3-16H520l19.6 72 4.4 16H527.4h-59l-5.3-16z"/></svg>