<svg xmlns="http://www.w3.org/2000/svg" viewBox="0 0 640 512"><!--! Font Awesome Pro 6.5.1 by @fontawesome - https://fontawesome.com License - https://fontawesome.com/license (Commercial License) Copyright 2023 Fonticons, Inc. --><path d="M528.1 512l-20.3-16H117.7l54.2-176H284.9l-20.3-16H160L100.9 496 96 512h16.7H527.3h.8zM448 128C448 57.3 390.7 0 320 0c-51 0-95 29.8-115.6 73l12.9 10.2C234.6 43.6 274.1 16 320 16c61.9 0 112 50.1 112 112c0 36.6-17.5 69-44.6 89.5l12.9 10.2C429.4 204.2 448 168.3 448 128zM16.2 5L9.9 0 0 12.5l6.3 5L623.8 507l6.3 5 9.9-12.5-6.3-5L16.2 5z"/></svg>