<svg xmlns="http://www.w3.org/2000/svg" viewBox="0 0 448 512"><!--! Font Awesome Pro 6.5.1 by @fontawesome - https://fontawesome.com License - https://fontawesome.com/license (Commercial License) Copyright 2023 Fonticons, Inc. --><path d="M224 16a160 160 0 1 1 0 320 160 160 0 1 1 0-320zm0 336A176 176 0 1 0 224 0a176 176 0 1 0 0 352zM184 144H168v8 16H152h-8v16h8 16v16 8h16v-8V184h16 8V168h-8H184V152v-8zM16 112V240H32V112H16zm400 0V240h16V112H416zM60 304H48L3.7 496 0 512H16.4 431.6 448l-3.7-16L400 304H388c-4.4 5.6-9 10.9-13.9 16h13.2l40.6 176H352V416v-8h-8H104 96v8 80H20.1L60.7 320H73.9c-4.9-5.1-9.5-10.4-13.9-16zm52 192V424H336v72H280V464v-8H264v8 32H184V464v-8H168v8 32H112zM240 272H208c-53 0-96-43-96-96V150.6L150.6 112H297.4L336 150.6V176c0 53-43 96-96 96zM144 96L96 144v32c0 61.9 50.1 112 112 112h32c61.9 0 112-50.1 112-112V144L304 96H144z"/></svg>