<svg xmlns="http://www.w3.org/2000/svg" viewBox="0 0 448 512"><!--! Font Awesome Pro 6.5.1 by @fontawesome - https://fontawesome.com License - https://fontawesome.com/license (Commercial License) Copyright 2023 Fonticons, Inc. --><path d="M232 8V0H216V8 64H80 64V80 304v16H80 368h16V304 80 64H368 232V8zM80 80H368V304H80V80zM32 128H16V256H32V128zm400 0H416V256h16V128zM232 232H216v48h16V232zM21.5 496L59.9 368H388.1l38.4 128H368V432 416H352 96 80v16 64H21.5zm409.8 16H448l-4.8-16L400 352H48L4.8 496 0 512H16.7 80 96 352h16 63.3zM280 232v48h16V232H280zm-128 0v48h16V232H152zM352 432v64H296V432h56zm-72 0v64H232V432h48zm-64 0v64H168V432h48zm-64 0v64H96V432h56zM128 116.7L116.7 128l5.7 5.7L148.7 160l-26.3 26.3-5.7 5.7L128 203.3l5.7-5.7L160 171.3l26.3 26.3 5.7 5.7L203.3 192l-5.7-5.7L171.3 160l26.3-26.3 5.7-5.7L192 116.7l-5.7 5.7L160 148.7l-26.3-26.3-5.7-5.7zm133.7 5.7l-5.7-5.7L244.7 128l5.7 5.7L276.7 160l-26.3 26.3-5.7 5.7L256 203.3l5.7-5.7L288 171.3l26.3 26.3 5.7 5.7L331.3 192l-5.7-5.7L299.3 160l26.3-26.3 5.7-5.7L320 116.7l-5.7 5.7L288 148.7l-26.3-26.3z"/></svg>