<svg xmlns="http://www.w3.org/2000/svg" viewBox="0 0 448 512"><!--! Font Awesome Pro 6.5.1 by @fontawesome - https://fontawesome.com License - https://fontawesome.com/license (Commercial License) Copyright 2023 Fonticons, Inc. --><path d="M112 144v0H336v0V66.5l-112-49-112 49V144zm224 16H244.9l-21.8 43.6-2.2 4.4H216 116.6c13.8 46.3 56.6 80 107.4 80c61.9 0 112-50.1 112-112V160v0zm.8 76.6C315.2 276.7 272.8 304 224 304s-91.2-27.3-112.8-67.4l-2.4 1.8L48 284v20h72 8v16h-8H40 32v-8V280v-4l3.2-2.4L96 228V176 160v0-8-8 0V56L224 0 352 56v88 0 8 8 0 16 52l60.8 45.6L416 276v4 32 8h-8H328h-8V304h8 72V284l-60.8-45.6-2.4-1.8zM112 160v16c0 5.4 .4 10.8 1.1 16h97.9l16-32H112v0zM224 452.6l-11.3-11.3L139.4 368H74.8L23.6 496H424.4L373.2 368H308.6l-73.2 73.2L224 452.6zM301.9 352H384l57.6 144 6.4 16H430.8 17.2 0l6.4-16L64 352h82.1l66.6 66.6L224 429.9l11.3-11.3L301.9 352zM232 48V72h24 8V88h-8H232v24 8H216v-8V88H192h-8V72h8 24V48 40h16v8z"/></svg>