<svg xmlns="http://www.w3.org/2000/svg" viewBox="0 0 640 512"><!--! Font Awesome Pro 6.5.1 by @fontawesome - https://fontawesome.com License - https://fontawesome.com/license (Commercial License) Copyright 2023 Fonticons, Inc. --><path d="M336 128a112 112 0 1 1 -224 0 112 112 0 1 1 224 0zM224 0a128 128 0 1 0 0 256A128 128 0 1 0 224 0zM75.8 320H136v48.7c-22.7 3.8-40 23.6-40 47.3c0 26.5 21.5 48 48 48s48-21.5 48-48c0-23.8-17.3-43.5-40-47.3V320H296v48.7c-22.7 3.8-40 23.6-40 47.3v40 8h8 16 8V448h-8-8V416c0-17.7 14.3-32 32-32s32 14.3 32 32v32h-8-8v16h8 16 8v-8V416c0-23.8-17.3-43.5-40-47.3V320h60.2l54.2 176H21.7L75.8 320zM176 416a32 32 0 1 1 -64 0 32 32 0 1 1 64 0zM384 304H64L4.9 496 0 512H16.7 431.3 448l-4.9-16L384 304zm240-80h16V208 16 0H624 400 384V16 208v16h16 32 16v16 36 4 16l12.8-9.6L464 284l80-60h80zm-89.6-12.8L464 264V224 208H448 400V16H624V208H544h-5.3l-4.3 3.2z"/></svg>