<svg xmlns="http://www.w3.org/2000/svg" viewBox="0 0 640 512"><!--! Font Awesome Pro 6.5.1 by @fontawesome - https://fontawesome.com License - https://fontawesome.com/license (Commercial License) Copyright 2023 Fonticons, Inc. --><path d="M224 240a112 112 0 1 0 0-224 112 112 0 1 0 0 224zM224 0a128 128 0 1 1 0 256A128 128 0 1 1 224 0zM75.8 320L21.7 496H384l0 16H16.7 0l4.9-16L64 304H384l0 54.4L372.2 320H75.8zM480 256v64h32 64 16 32 16v16V496v16H624 432 416V496 336 320h16 32V256c0-35.3 28.7-64 64-64s64 28.7 64 64v16H576V256c0-26.5-21.5-48-48-48s-48 21.5-48 48zm-16 80H432V496H624V336H592 576 480 464z"/></svg>