<svg xmlns="http://www.w3.org/2000/svg" viewBox="0 0 640 512"><!--! Font Awesome Pro 6.5.1 by @fontawesome - https://fontawesome.com License - https://fontawesome.com/license (Commercial License) Copyright 2023 Fonticons, Inc. --><path d="M224 16a112 112 0 1 1 0 224 112 112 0 1 1 0-224zm0 240A128 128 0 1 0 224 0a128 128 0 1 0 0 256zM75.8 320H372.2l54.2 176H21.7L75.8 320zM384 304H64L4.9 496 0 512H16.7 431.3 448l-4.9-16L384 304zM623.1 512H640l-5.3-16L576 320H422.4l4.9 16H564.5l53.3 160H476.6l2 6.6 2.9 9.4H623.1zM432 256c61.9 0 112-50.1 112-112s-50.1-112-112-112c-24.8 0-47.7 8.1-66.3 21.7c2.5 4.8 4.8 9.8 6.9 14.9C388.9 55.7 409.6 48 432 48c53 0 96 43 96 96s-43 96-96 96c-27.7 0-52.7-11.8-70.2-30.6c-2.8 4.7-5.8 9.3-9.1 13.7C373 243.4 401 256 432 256z"/></svg>