<svg xmlns="http://www.w3.org/2000/svg" viewBox="0 0 448 512"><!--! Font Awesome Pro 6.5.1 by @fontawesome - https://fontawesome.com License - https://fontawesome.com/license (Commercial License) Copyright 2023 Fonticons, Inc. --><path d="M112 66.5l112-49 112 49V144H112V66.5zM96 56v88 16 0 16c0 70.7 57.3 128 128 128s128-57.3 128-128V160v0V144 56L224 0 96 56zm16 104v0H336v0 16c0 61.9-50.1 112-112 112s-112-50.1-112-112V160zM212.3 435L224 447.3 235.7 435l93.1-99h43.7l53.3 160H22.2L75.5 336h43.7l93.1 99zM384 320H321.9L235 412.3 224 424l-11-11.7L126.1 320H64L5.3 496 0 512H16.9 431.1 448l-5.3-16L384 320zM232 40H216v8V72H192h-8V88h8 24v24 8h16v-8V88h24 8V72h-8H232V48 40z"/></svg>