<svg xmlns="http://www.w3.org/2000/svg" viewBox="0 0 640 512"><!--! Font Awesome Pro 6.5.1 by @fontawesome - https://fontawesome.com License - https://fontawesome.com/license (Commercial License) Copyright 2023 Fonticons, Inc. --><path d="M416 224c0-53-43-96-96-96c-13 0-25.4 2.6-36.7 7.3L298.2 147c6.9-2 14.3-3 21.8-3c44.2 0 80 35.8 80 80c0 1.1 0 2.3-.1 3.4l14.9 11.8c.8-4.9 1.2-10 1.2-15.1zM224 80c0-44.2-35.8-80-80-80c-9.3 0-18.1 1.6-26.4 4.5l15.7 12.4c3.5-.6 7-.9 10.7-.9c33.9 0 61.7 26.4 63.9 59.7l15.7 12.4c.3-2.7 .4-5.4 .4-8.2zM48 192L6 304H23.1l36-96H143l-20.3-16H48zM176 352L132.8 496 128 512h16.7H495.3 512l-4.8-16-.2-.6-21.9-17.3 5.4 17.9h-341l38.4-128H345.7l-20.3-16H176zM444 192c1.3 5.2 2.4 10.6 3 16H580.9l36 96H634L592 192H444zm4-112a64 64 0 1 1 128 0A64 64 0 1 1 448 80zm144 0A80 80 0 1 0 432 80a80 80 0 1 0 160 0zM16.2 5L9.9 0 0 12.5l6.3 5L623.8 507l6.3 5 9.9-12.5-6.3-5L16.2 5z"/></svg>