<svg xmlns="http://www.w3.org/2000/svg" viewBox="0 0 448 512"><!--! Font Awesome Pro 6.5.1 by @fontawesome - https://fontawesome.com License - https://fontawesome.com/license (Commercial License) Copyright 2023 Fonticons, Inc. --><path d="M64 192c0-88.4 71.6-160 160-160s160 71.6 160 160V304H272V272 256H256 192 176v16 32 16h16 32 32 16H392h8v-8V192c0-97.2-78.8-176-176-176S48 94.8 48 192v16 8H64v-8V192zM256 304H224 192V272h64v32zM59.9 368H388.1l38.4 128H21.5L59.9 368zM400 352H48L4.8 496 0 512H16.7 431.3 448l-4.8-16L400 352zm-96-81.6v21.5c29.3-23.5 48-59.5 48-99.9c0-70.7-57.3-128-128-128S96 121.3 96 192c0 40.4 18.7 76.5 48 99.9V270.4c-19.8-20.2-32-47.9-32-78.4c0-61.9 50.1-112 112-112s112 50.1 112 112c0 30.5-12.2 58.2-32 78.4z"/></svg>