<svg xmlns="http://www.w3.org/2000/svg" viewBox="0 0 640 512"><!--! Font Awesome Pro 6.5.1 by @fontawesome - https://fontawesome.com License - https://fontawesome.com/license (Commercial License) Copyright 2023 Fonticons, Inc. --><path d="M272.1 45.9L224 18.4 175.9 45.9l-7 4-7.4-3.3L112 24.6V112H336V24.6l-49.5 22-7.4 3.3-7-4zM112 144c0 61.9 50.1 112 112 112s112-50.1 112-112V128H112v16zM352 0V17.5 144c0 70.7-57.3 128-128 128s-128-57.3-128-128V17.5 0l16 7.1L168 32 224 0l56 32L336 7.1 352 0zM21.7 496H426.3L372.2 320H75.8L21.7 496zM64 304H384l59.1 192 4.9 16H431.3 16.7 0l4.9-16L64 304zM623.1 512H481.5l-2.9-9.4-2-6.6H617.8L564.5 336H427.3l-4.9-16H576l58.7 176 5.3 16H623.1zM432 256c-27.7 0-53-10.1-72.6-26.7c2.9-4.6 5.6-9.4 8-14.3c17.1 15.5 39.7 25 64.6 25c53 0 96-43 96-96s-43-96-96-96c-17.5 0-33.9 4.7-48 12.8V53.7 42.8C398.6 35.9 414.8 32 432 32c61.9 0 112 50.1 112 112s-50.1 112-112 112z"/></svg>