<svg xmlns="http://www.w3.org/2000/svg" viewBox="0 0 448 512"><!--! Font Awesome Pro 6.5.1 by @fontawesome - https://fontawesome.com License - https://fontawesome.com/license (Commercial License) Copyright 2023 Fonticons, Inc. --><path d="M336 128c0-5.4-.4-10.8-1.1-16H280h-4l-2.4-3.2L255.4 84.5l-33.2 40.6-2.4 2.9H216 112v16c0 61.9 50.1 112 112 112s112-50.1 112-112V128zM284 96h47.4c-6.8-22.8-20.6-42.5-39-56.7L265.8 71.8 284 96zm-5-65.6C262.7 21.2 244 16 224 16c-56.4 0-103.1 41.7-110.9 96h99.1L279 30.4zM96 128C96 57.3 153.3 0 224 0s128 57.3 128 128v16c0 70.7-57.3 128-128 128s-128-57.3-128-128V128zm72.5 176H184h80 15.5l-9 12.6-37.2 52.1 23.2 46.3L304 320h80l58.7 176 5.3 16H431.1 225.9h-3.8H16.9 0l5.3-16L64 320h80l47.5 95.1 23.2-46.3-37.2-52.1-9-12.6zm80 16H199.5l23.2 32.5 1.2-2.4 1.2 2.4L248.5 320zM209.7 487.2L134.1 336H75.5L22.2 496H214.1l-4.4-8.8zm-9.2-54.2l14.6 29.2L224 480l8.9-17.9 14.6-29.2L224 385.9l-23.5 47.1zM233.9 496H425.8L372.5 336H313.9L238.3 487.2l-4.4 8.8z"/></svg>