<svg xmlns="http://www.w3.org/2000/svg" viewBox="0 0 640 512"><!--! Font Awesome Pro 6.5.1 by @fontawesome - https://fontawesome.com License - https://fontawesome.com/license (Commercial License) Copyright 2023 Fonticons, Inc. --><path d="M72 136a88 88 0 1 1 176 0A88 88 0 1 1 72 136zm192 0A104 104 0 1 0 56 136a104 104 0 1 0 208 0zm128 0a88 88 0 1 1 176 0 88 88 0 1 1 -176 0zm192 0a104 104 0 1 0 -208 0 104 104 0 1 0 208 0zM75.5 304H244.5l53.3 160H22.2L75.5 304zM256 288H64L5.3 464 0 480H16.9 303.1 320l-5.3-16L256 288zm86.2 16H617.8L564.5 464H395.5L342.2 304zM384 480H576l58.7-176 5.3-16H623.1 336.9 320l5.3 16L384 480z"/></svg>