<svg xmlns="http://www.w3.org/2000/svg" viewBox="0 0 448 512"><!--! Font Awesome Pro 6.5.1 by @fontawesome - https://fontawesome.com License - https://fontawesome.com/license (Commercial License) Copyright 2023 Fonticons, Inc. --><path d="M80 167C80 83 145.1 16 224 16s144 67 144 151c0 52.9-35.9 103.1-75.2 141.8c-19.3 19-38.7 34.4-53.3 45.1c-6.2 4.6-11.5 8.2-15.5 10.9c-4-2.7-9.3-6.4-15.5-10.9c-14.6-10.7-33.9-26.2-53.3-45.1C115.9 270.1 80 219.9 80 167zM224 0C135.6 0 64 74.8 64 167c0 119.3 160 217 160 217s160-97.7 160-217C384 74.8 312.4 0 224 0zM388.1 368l38.4 128H21.5L59.9 368h89c-5.8-5-11.9-10.3-18-16H48L4.8 496 0 512H16.7 431.3 448l-4.8-16L400 352H317.1c-6.1 5.7-12.1 11-18 16h89zM208 240c0-35.3-28.7-64-64-64H120h-8v8 8c0 35.3 28.7 64 64 64h24 8v-8-8zm-64-48c26.5 0 48 21.5 48 48H176c-26.5 0-48-21.5-48-48h16zm160-16c-35.3 0-64 28.7-64 64v8 8h8 24c35.3 0 64-28.7 64-64v-8-8h-8H304zm-48 64c0-26.5 21.5-48 48-48h16c0 26.5-21.5 48-48 48H256z"/></svg>