<svg xmlns="http://www.w3.org/2000/svg" viewBox="0 0 448 512"><!--! Font Awesome Pro 6.5.1 by @fontawesome - https://fontawesome.com License - https://fontawesome.com/license (Commercial License) Copyright 2023 Fonticons, Inc. --><path d="M336 144v-8-8c0-5.4-.4-10.8-1.1-16H280h-4l-2.4-3.2L255.4 84.5l-33.2 40.6-2.4 2.9H216l-104 0v8 8c0 61.9 50.1 112 112 112s112-50.1 112-112zm3.7 54.9C319.1 242.1 275.1 272 224 272s-95.1-29.9-115.7-73.1L48 251.6V272h72 8v16h-8H40 32v-8V248v-3.6l2.7-2.4L96 188.4V144v-8-8C96 57.3 153.3 0 224 0s128 57.3 128 128v8 8 44.4L413.3 242l2.7 2.4V248v32 8h-8H328h-8V272h8 72V251.6l-60.3-52.8zM331.4 96c-6.8-22.8-20.6-42.5-39-56.7L265.8 71.8 284 96h47.4zM212.2 112L279 30.4C262.7 21.2 244 16 224 16c-56.4 0-103.1 41.7-110.9 96h99.1zM22.2 496H425.8L372.5 336H75.5L22.2 496zM64 320H384l58.7 176 5.3 16H431.1 16.9 0l5.3-16L64 320z"/></svg>