<svg xmlns="http://www.w3.org/2000/svg" viewBox="0 0 640 512"><!--! Font Awesome Pro 6.5.1 by @fontawesome - https://fontawesome.com License - https://fontawesome.com/license (Commercial License) Copyright 2023 Fonticons, Inc. --><path d="M528.1 512l-20.3-16H88l66.7-160H305.1l-20.3-16H144L70.7 496 64 512H81.3 528.1zM464 144C464 64.5 399.5 0 320 0c-51.5 0-96.8 27.1-122.2 67.8l12.6 10C232.9 40.7 273.5 16 320 16c70.7 0 128 57.3 128 128c0 35.7-14.6 68-38.2 91.2l12.6 10c25.7-26 41.5-61.7 41.5-101.2zM16.2 5L9.9 0 0 12.5l6.3 5L623.8 507l6.3 5 9.9-12.5-6.3-5L16.2 5z"/></svg>