<svg xmlns="http://www.w3.org/2000/svg" viewBox="0 0 448 512"><!--! Font Awesome Pro 6.5.1 by @fontawesome - https://fontawesome.com License - https://fontawesome.com/license (Commercial License) Copyright 2023 Fonticons, Inc. --><path d="M279.1 49.9l7.4-3.3 49.5-22V112H112V24.6l49.5 22 7.4 3.3 7-4L224 18.4l48.1 27.5 7 4zM336 128v16c0 61.9-50.1 112-112 112s-112-50.1-112-112V128H336zM336 7.1L280 32 224 0 168 32 112 7.1 96 0V17.5 144c0 70.7 57.3 128 128 128s128-57.3 128-128V17.5 0L336 7.1zM75.8 320H372.2l54.2 176H21.7L75.8 320zM384 304H64L4.9 496 0 512H16.7 431.3 448l-4.9-16L384 304z"/></svg>