<svg xmlns="http://www.w3.org/2000/svg" viewBox="0 0 448 512"><!--! Font Awesome Pro 6.5.1 by @fontawesome - https://fontawesome.com License - https://fontawesome.com/license (Commercial License) Copyright 2023 Fonticons, Inc. --><path d="M279 30.4L212.2 112H113.1c7.8-54.3 54.4-96 110.9-96c20 0 38.7 5.2 55 14.4zm13.4 8.9c18.4 14.2 32.2 33.9 39 56.7H284L265.8 71.8l26.6-32.5zm-70.2 85.8l33.2-40.6 18.2 24.3L276 112h4 54.9c.7 5.2 1.1 10.6 1.1 16v8 8c0 61.9-50.1 112-112 112s-112-50.1-112-112v-8-8l104 0h3.8l2.4-2.9zM224 0C153.3 0 96 57.3 96 128v8 8 36L35.2 225.6 32 228v4 32 8h8 80 8V256h-8H48V236l57.6-43.2c19.2 46.5 65 79.2 118.4 79.2s99.2-32.7 118.4-79.2L400 236v20H328h-8v16h8 80 8v-8V232v-4l-3.2-2.4L352 180V144v-8-8C352 57.3 294.7 0 224 0zM21.7 496L75.8 320H136v48.7c-22.7 3.8-40 23.6-40 47.3c0 26.5 21.5 48 48 48s48-21.5 48-48c0-23.8-17.3-43.5-40-47.3V320H296v48.7c-22.7 3.8-40 23.6-40 47.3v40 8h8 16 8V448h-8-8V416c0-17.7 14.3-32 32-32s32 14.3 32 32v32h-8-8v16h8 16 8v-8V416c0-23.8-17.3-43.5-40-47.3V320h60.2l54.2 176H21.7zM176 416a32 32 0 1 1 -64 0 32 32 0 1 1 64 0zM64 304L4.9 496 0 512H16.7 431.3 448l-4.9-16L384 304H64z"/></svg>