<svg xmlns="http://www.w3.org/2000/svg" viewBox="0 0 448 512"><!--! Font Awesome Pro 6.5.1 by @fontawesome - https://fontawesome.com License - https://fontawesome.com/license (Commercial License) Copyright 2023 Fonticons, Inc. --><path d="M400 80L368 99.2V144c-16 10.7-67.2 32-144 32s-128-21.3-144-32V99.2L48 80V48L224 0 400 48V80zM352 99.2V90.1l7.8-4.7L384 70.9V60.2L224 16.6 64 60.2V70.9L88.2 85.5 96 90.1v9.1 35.6c19.2 9.7 63.8 25.2 128 25.2s108.8-15.5 128-25.2V99.2zM96.3 183.3c4.8 2.3 10.1 4.5 15.7 6.7c0 .7 0 1.3 0 2c0 61.9 50.1 112 112 112s112-50.1 112-112c0-.7 0-1.3 0-2c5.7-2.2 10.9-4.4 15.7-6.7c.2 2.9 .3 5.8 .3 8.7c0 70.7-57.3 128-128 128s-128-57.3-128-128c0-2.9 .1-5.8 .3-8.7zM216 430.4l-2.9-2.6L148.4 368H59.9L21.5 496H216V430.4zm16 0V496H426.5L388.1 368H299.6l-64.7 59.8-2.9 2.6zM224 416l69.3-64H400l43.2 144 4.8 16H431.3 224 16.7 0l4.8-16L48 352H154.7L224 416zm96 16h8 48 8v16h-8H328h-8V432zM163.6 64.8L224 95.1l60.4-30.2 7.2-3.6 7.2 14.3-7.2 3.6-64 32-3.6 1.8-3.6-1.8-64-32-7.2-3.6 7.2-14.3 7.2 3.6z"/></svg>