<svg xmlns="http://www.w3.org/2000/svg" viewBox="0 0 448 512"><!--! Font Awesome Pro 6.5.1 by @fontawesome - https://fontawesome.com License - https://fontawesome.com/license (Commercial License) Copyright 2023 Fonticons, Inc. --><path d="M400 80V48L224 0 48 48V80L80 99.2V144c16 10.7 67.2 32 144 32s128-21.3 144-32V99.2L400 80zM352 99.2v35.6c-16.2 8.2-50.5 20.5-99.4 24.2c21.5-20.4 27.4-48.8 27.4-67.7V85.8l-5-2L227 64.6l-3-1.2-3 1.2L173 83.8l-5 2v5.4c0 19 5.9 47.4 27.4 67.7c-48.9-3.6-83.2-16-99.4-24.2V99.2 90.1l-7.8-4.7L64 70.9V60.2L224 16.6 384 60.2V70.9L359.8 85.5 352 90.1v9.1zM96.3 183.3c-.2 2.9-.3 5.8-.3 8.7c0 70.7 57.3 128 128 128s128-57.3 128-128c0-2.9-.1-5.8-.3-8.7c-4.8 2.3-10.1 4.5-15.7 6.7c0 .7 0 1.3 0 2c0 61.9-50.1 112-112 112s-112-50.1-112-112c0-.7 0-1.3 0-2c-5.7-2.2-10.9-4.4-15.7-6.7zm87.9-86.8L224 80.6l39.8 15.9c-1.3 20.9-10.8 49-39.8 62.7c-29-13.7-38.5-41.8-39.8-62.7zm29 331.2l2.9 2.6V496H21.5L59.9 368h88.5l64.7 59.8zM232 496V430.4l2.9-2.6L299.6 368h88.5l38.4 128H232zm61.3-144L224 416l-69.3-64H48L4.8 496 0 512H16.7 224 431.3 448l-4.8-16L400 352H293.3zM360 424v-8H344v8 16H328h-8v16h8 16v16 8h16v-8V456h16 8V440h-8H360V424z"/></svg>