<svg xmlns="http://www.w3.org/2000/svg" viewBox="0 0 448 512"><!--! Font Awesome Pro 6.5.1 by @fontawesome - https://fontawesome.com License - https://fontawesome.com/license (Commercial License) Copyright 2023 Fonticons, Inc. --><path d="M124 0C90.9 0 64 26.9 64 60c0 23 13 43 32 53.1V152v8 16c0 70.7 57.3 128 128 128s128-57.3 128-128V160v-8V113.1C371 103 384 83 384 60c0-33.1-26.9-60-60-60c-21.4 0-40.2 11.2-50.8 28.1C262.6 11.2 243.8 0 222.4 0C202 0 184 10.1 173.2 25.7C162.4 10.1 144.4 0 124 0zM112 176V160H336v16c0 61.9-50.1 112-112 112s-112-50.1-112-112zM80 60c0-24.3 19.7-44 44-44c19.3 0 35.7 12.4 41.6 29.7h15.1C186.7 28.4 203.1 16 222.4 16c21 0 38.7 14.8 43 34.6H281C285.3 30.8 303 16 324 16c24.3 0 44 19.7 44 44c0 18.3-11.2 34-27.1 40.6l-4.9 2.1V108v36H112V108v-5.3l-4.9-2.1C91.2 94 80 78.3 80 60zM352 368h16 20.1l38.4 128H144V410.2l174.4-69.8L352 327.4V352v16zm-39.5-42.4L224 360 96 310.2 80 304v17.2V336v16H64 48L4.8 496 0 512H16.7 431.3 448l-4.8-16L400 352H384 368V336 321.2 304l-16 6.2-26.9 10.5 0-.1-12.5 5zm-109 43.6L133 397.4l-5 2v5.4V496H21.5L59.9 368H80 96V352 327.4l107.5 41.8zM240 444a12 12 0 1 0 0-24 12 12 0 1 0 0 24zm76-12a12 12 0 1 0 -24 0 12 12 0 1 0 24 0z"/></svg>