<svg xmlns="http://www.w3.org/2000/svg" viewBox="0 0 448 512"><!--! Font Awesome Pro 6.5.1 by @fontawesome - https://fontawesome.com License - https://fontawesome.com/license (Commercial License) Copyright 2023 Fonticons, Inc. --><path d="M224 16a112 112 0 1 1 0 224 112 112 0 1 1 0-224zM96 128a128 128 0 1 0 256 0A128 128 0 1 0 96 128zM211.9 410.4L224 424.6l12.1-14.2L313.6 320h58.5l54.2 176H21.7L75.8 320h58.5l77.5 90.4zM384 304H306.3l-71.8 83.7L224 400l-10.5-12.3L141.7 304H64L4.9 496 0 512H16.7 431.3 448l-4.9-16L384 304z"/></svg>