<svg xmlns="http://www.w3.org/2000/svg" viewBox="0 0 448 512"><!--! Font Awesome Pro 6.5.1 by @fontawesome - https://fontawesome.com License - https://fontawesome.com/license (Commercial License) Copyright 2023 Fonticons, Inc. --><path d="M184 0V8 22C128.4 39.1 88 90.8 88 152v8l-16 0H64v16h8H376h8V160h-8l-16 0v-8c0-61.2-40.4-112.9-96-130V8 0h-8H192h-8zm0 38.8V88v8h16V88 16h48V88v8h16V88 38.8c46.6 16.5 80 60.9 80 113.2v8H104v-8c0-52.2 33.4-96.7 80-113.2zM224 320c65.3 0 119.1-48.9 127-112H334.9c-7.8 54.3-54.4 96-110.9 96s-103.1-41.7-110.9-96H97c7.9 63.1 61.7 112 127 112zM59.9 368H388.1l38.4 128H21.5L59.9 368zM443.2 496L400 352H48L4.8 496 0 512H16.7 431.3 448l-4.8-16z"/></svg>