<svg xmlns="http://www.w3.org/2000/svg" viewBox="0 0 448 512"><!--! Font Awesome Pro 6.5.1 by @fontawesome - https://fontawesome.com License - https://fontawesome.com/license (Commercial License) Copyright 2023 Fonticons, Inc. --><path d="M190.8 0H174.6l1.6 9.3 0 0 23.1 138.8c.5 3 .8 6.1 .8 9.2V168c0 30.9-25.1 56-56 56H80c-30.9 0-56-25.1-56-56V157.3c0-3.1 .3-6.2 .8-9.2L35.9 81.3l6-36 6-36 0 0L49.4 0H33.2L32.1 6.7l0 0-6 36-6 36L9 145.5c-.7 3.9-1 7.9-1 11.8V168c0 39.8 32.2 72 72 72h24V504v8h16v-8V240h24c39.8 0 72-32.2 72-72V157.3c0-4-.3-7.9-1-11.8L191.9 6.7l0 0L190.8 0zM143.6 0h-16l.4 8.4 8 160 .4 7.6h16l-.4-8.4-8-160L143.6 0zM96.4 0h-16L80 7.6l-1 20-1 20-2 40-4 80-.4 8.4h16l.4-7.6 4-80 2-40 1-20 1-20L96.4 0zM304 176c0-67.7 24.2-107.4 48.9-130.3c12.5-11.6 25.5-19.2 36-23.8c5.3-2.3 9.9-3.8 13.4-4.8c3.7-1 5.6-1.1 5.7-1.1l0 0h8V336H304V176zM432 336V16 0H416h-8C392 0 288 32 288 176V336v16h16H416V504v8h16v-8V352v-8-8z"/></svg>