<svg xmlns="http://www.w3.org/2000/svg" viewBox="0 0 640 512"><!--! Font Awesome Pro 6.5.1 by @fontawesome - https://fontawesome.com License - https://fontawesome.com/license (Commercial License) Copyright 2023 Fonticons, Inc. --><path d="M286.8 0H270.6l1.6 9.3 22.5 134.9L312 158v-.7c0-4-.3-7.9-1-11.8L287.9 6.7v0L286.8 0zM160.5 221.8c-14.2-4.1-26.1-13.7-33.3-26.3l-22.6-17.8c4.7 35.2 34.9 62.3 71.3 62.3h7.5l-23-18.2zM173.9 49l15.4 12.2 .6-12.7 1-20 1-20 .4-8.4h-16L176 7.6l-1 20-1 20-.1 1.4zm54.2 42.8l16.7 13.2L240 7.6 239.6 0h-16l.4 8.4 4.2 83.4zm-101-79.7l14.3 11.3 2.3-14.1 0 0L145.4 0H129.2l-1.1 6.7 0 0-.9 5.4zM200 504v8h16v-8V265.6L200 253V504zM528 16V0H512h-8C488 0 384 32 384 176v38.8l16 12.6V176c0-67.7 24.2-107.4 48.9-130.3c12.5-11.6 25.5-19.2 36-23.8c5.3-2.3 9.9-3.8 13.4-4.8c3.7-1 5.6-1.1 5.7-1.1l0 0h8V315.8l16 12.6V16zM16.2 5L9.9 0 0 12.5l6.3 5L623.8 507l6.3 5 9.9-12.5-6.3-5L16.2 5z"/></svg>