<svg xmlns="http://www.w3.org/2000/svg" viewBox="0 0 512 512"><!--! Font Awesome Pro 6.5.1 by @fontawesome - https://fontawesome.com License - https://fontawesome.com/license (Commercial License) Copyright 2023 Fonticons, Inc. --><path d="M272 16V80H240V16h32zm-48 0V80H80V40 32H64v8V80H16V40 32H0v8V80v8 8 32 16H16h85.5L224 228.2V272H80V232v-8H64v8 40H16V232v-8H0v8 40 8 8 32 16H16h85.5L224 420.2V504v8h16v-8V336h32V504v8h16v-8V420.2L410.5 336H496h16V320 288v-8-8V232v-8H496v8 40H448V232v-8H432v8 40H288V228.2L410.5 144H496h16V128 96 88 80 40 32H496v8V80H448V40 32H432v8V80H288V16 0H272 240 224V16zM382.2 144L288 208.8V144h94.2zm0 192L288 400.8V336h94.2zM224 400.8L129.8 336H224v64.8zm0-192L129.8 144H224v64.8zM240 320H224 16V288H224h16 32 16H496v32H288 272 240zm32-176V272H240V144h32zm16-16H272 240 224 16V96H224h16 32 16H496v32H288z"/></svg>