<svg xmlns="http://www.w3.org/2000/svg" viewBox="0 0 512 512"><!--! Font Awesome Pro 6.5.1 by @fontawesome - https://fontawesome.com License - https://fontawesome.com/license (Commercial License) Copyright 2023 Fonticons, Inc. --><path d="M240 16V80h32V16H240zM224 80V16 0h16 32 16V16 80H432V40 32h16v8V80h48V40 32h16v8V80 96v32 16H496 410.5L288 228.2V504v8H272v-8V224.1c0-.1 0-.1 0-.2V144H240v79.9c0 .1 0 .1 0 .2V504v8H224v-8V228.2L101.5 144H16 0V128 96 80 40 32H16v8V80H64V40 32H80v8V80H224zM104.1 128H224h16 32 16H407.9c.1 0 .1 0 .2 0H496V96H288 272 240 224 16v32h87.9c.1 0 .1 0 .2 0zm25.6 16L224 208.8V144H129.8zm252.5 0H288v64.8L382.2 144z"/></svg>