<svg xmlns="http://www.w3.org/2000/svg" viewBox="0 0 640 512"><!--! Font Awesome Pro 6.5.1 by @fontawesome - https://fontawesome.com License - https://fontawesome.com/license (Commercial License) Copyright 2023 Fonticons, Inc. --><path d="M232 0h-6.4l-1.4 6.2L173.9 224h16.4l48-208H528c53 0 96 43 96 96c0 39.5-23.9 73.4-58 88.2c-35.2-44-89.3-72.2-150-72.2H368 352v16V292c5.2-1.3 10.6-2.4 16-3V144h48c97.2 0 176 78.8 176 176V496H483.9c-4.6 5.8-9.7 11.1-15.3 16H592h16V496 320c0-39.5-11.9-76.1-32.3-106.6c38-17.9 64.3-56.6 64.3-101.4C640 50.1 589.9 0 528 0H232zM183 256H166.6L129.6 416H48L0 464v32 16H16 208h16V496 432 416H208 146.1L183 256zM135.8 432h.3H208v64H16V470.6L54.6 432h81.2zM384 336a80 80 0 1 1 0 160 80 80 0 1 1 0-160zm0 176a96 96 0 1 0 0-192 96 96 0 1 0 0 192zm-16-96a16 16 0 1 1 32 0 16 16 0 1 1 -32 0zm48 0a32 32 0 1 0 -64 0 32 32 0 1 0 64 0z"/></svg>