<svg xmlns="http://www.w3.org/2000/svg" viewBox="0 0 512 512"><!--! Font Awesome Pro 6.5.1 by @fontawesome - https://fontawesome.com License - https://fontawesome.com/license (Commercial License) Copyright 2023 Fonticons, Inc. --><path d="M16 32H0v8V472v8H16v-8V40 32zM149.7 138.3l-5.7-5.7L132.7 144l5.7 5.7L244.7 256 138.3 362.3l-5.7 5.7L144 379.3l5.7-5.7L256 267.3 362.3 373.7l5.7 5.7L379.3 368l-5.7-5.7L267.3 256 373.7 149.7l5.7-5.7L368 132.7l-5.7 5.7L256 244.7 149.7 138.3zM512 40V32H496v8V472v8h16v-8V40z"/></svg>