<svg xmlns="http://www.w3.org/2000/svg" viewBox="0 0 640 512"><!--! Font Awesome Pro 6.5.1 by @fontawesome - https://fontawesome.com License - https://fontawesome.com/license (Commercial License) Copyright 2023 Fonticons, Inc. --><path d="M8 32H0v8V376v8H8 64c0 53 43 96 96 96s96-43 96-96H384c0 53 43 96 96 96s96-43 96-96h56 8v-8V200v-3.2l-2.2-2.3-152-160L483.4 32H480 376 168 8zM480 288c-47.6 0-87.1 34.6-94.7 80H254.7c-7.6-45.4-47.1-80-94.7-80s-87.1 34.6-94.7 80H16V208H168 376 624V368H574.7c-7.6-45.4-47.1-80-94.7-80zM16 192V48H160V192H16zm160 0V48H368V192H176zm208 0V48h92.6L613.4 192H384zm16 192a80 80 0 1 1 160 0 80 80 0 1 1 -160 0zM160 304a80 80 0 1 1 0 160 80 80 0 1 1 0-160z"/></svg>