<svg xmlns="http://www.w3.org/2000/svg" viewBox="0 0 576 512"><!--! Font Awesome Pro 6.5.1 by @fontawesome - https://fontawesome.com License - https://fontawesome.com/license (Commercial License) Copyright 2023 Fonticons, Inc. --><path d="M16 16V464H64 80 496h16 48V16H16zM64 480H16 0V464 16 0H16 560h16V16 464v16H560 512v24 8H496v-8V480H80v24 8H64v-8V480zM368 240A144 144 0 1 0 80 240a144 144 0 1 0 288 0zM64 240a160 160 0 1 1 320 0A160 160 0 1 1 64 240zm160 48a48 48 0 1 0 0-96 48 48 0 1 0 0 96zm0-112a64 64 0 1 1 0 128 64 64 0 1 1 0-128zm272 0a32 32 0 1 0 -64 0 32 32 0 1 0 64 0zm16 0c0 23.8-17.3 43.5-40 47.3V344v8H456v-8V223.3c-22.7-3.8-40-23.6-40-47.3c0-26.5 21.5-48 48-48s48 21.5 48 48z"/></svg>