<svg xmlns="http://www.w3.org/2000/svg" viewBox="0 0 512 512"><!--! Font Awesome Pro 6.5.1 by @fontawesome - https://fontawesome.com License - https://fontawesome.com/license (Commercial License) Copyright 2023 Fonticons, Inc. --><path d="M288 16H224V42.4s0 0 0 0V58.5s0 0 0 0V80h64V16zM208 45.4V16 0h16 64 16V16 45.4C384.8 63.7 448.3 127.2 466.6 208H496h16v16 64 16H496 466.6C448.3 384.8 384.8 448.3 304 466.6V496v16H288 224 208V496 466.6C127.2 448.3 63.7 384.8 45.4 304H16 0V288 224 208H16 45.4C63.7 127.2 127.2 63.7 208 45.4zM61.8 208H80 96v16 64 16H80 61.8C79.5 375.9 136.1 432.5 208 450.2V432 416h16 64 16v16 18.2c71.9-17.7 128.5-74.3 146.2-146.2H432 416V288 224 208h16 18.2C432.5 136.1 375.9 79.5 304 61.8V80 96H288 224 208V80 61.8C136.1 79.5 79.5 136.1 61.8 208zm-3.3 80H80V224H16v64H42.4s0 0 0 0H58.5s0 0 0 0zM224 469.6V496h64V432H224v21.5s0 0 0 0v16.2s0 0 0 0zM469.6 288H496V224H432v64h21.5s0 0 0 0h16.2s0 0 0 0z"/></svg>