<svg xmlns="http://www.w3.org/2000/svg" viewBox="0 0 448 512"><!--! Font Awesome Pro 6.5.1 by @fontawesome - https://fontawesome.com License - https://fontawesome.com/license (Commercial License) Copyright 2023 Fonticons, Inc. --><path d="M432 48v64H368V48h64zM368 32H352V48 72H96V48 32H80 16 0V48v64 16H16 40l0 256H16 0v16 64 16H16 80 96V464 440H352v24 16h16 64 16V464 400 384H432 408V128h24 16V112 48 32H432 368zM56 384l0-256H80 96V112 88H352v24 16h16 24V384H368 352v16 24H96V400 384H80 56zM16 400H80v64H16V400zm352 0h64v64H368V400zM16 48H80v64H16V48z"/></svg>