<svg xmlns="http://www.w3.org/2000/svg" viewBox="0 0 640 512"><!--! Font Awesome Pro 6.5.1 by @fontawesome - https://fontawesome.com License - https://fontawesome.com/license (Commercial License) Copyright 2023 Fonticons, Inc. --><path d="M80 80v56V376v56H560V376 136 80H80zm496 0v48h56c4.4 0 8 3.6 8 8V376c0 4.4-3.6 8-8 8H576v48 16H560 80 64V432 384H8c-4.4 0-8-3.6-8-8V136c0-4.4 3.6-8 8-8H64V80 64H80 560h16V80zm0 288h48V144H576V368zM64 144H16V368H64V144zm64-16V384H512V128H128zm-16-16h16H512h16v16V384v16H512 128 112V384 128 112zm72 64H456h8v16h-8H184h-8V176h8zm0 72H456h8v16h-8H184h-8V248h8zm0 72H456h8v16h-8H184h-8V320h8z"/></svg>