<svg xmlns="http://www.w3.org/2000/svg" viewBox="0 0 448 512"><!--! Font Awesome Pro 6.5.1 by @fontawesome - https://fontawesome.com License - https://fontawesome.com/license (Commercial License) Copyright 2023 Fonticons, Inc. --><path d="M143 0h-1.5H136 104 56 48V8 197.8L1.1 275.9 0 277.8V280 504v8H8 160V496H16V467.5L125.4 365.9l5.9-5.4-10.9-11.7-5.9 5.4L16 445.7V282.2l46.9-78.1 1.1-1.9V200 16h40 26.4l64.1 172.7 8.7-22.6L154.9 35.8c.7 .7 1.5 1.4 2.3 2.1C171.4 50.9 193.5 64 224 64s52.6-13.1 66.9-26.1l.9-.8L192.6 285l-.6 1.4V288 504v8h8H440h8v-8V280v-2.2l-1.1-1.9L400 197.8V8 0h-8H344 312h-5.4H305h-4.9l-2.2 4.3 0 0 0 0 0 0 0 0 0 0 0 0-.2 .3c-.2 .3-.4 .7-.8 1.3c-.7 1.2-1.8 2.9-3.3 4.9c-3 4.1-7.5 9.7-13.6 15.2C267.9 37.1 249.5 48 224 48s-43.9-10.9-56.1-21.9c-6.1-5.5-10.6-11.1-13.6-15.2c-1.5-2.1-2.6-3.8-3.3-4.9c-.3-.6-.6-1-.8-1.3l-.2-.3 0 0 0 0 0 0 0 0L147.9 0H143zm65 289.5L317.4 16H344h40V200v2.2l1.1 1.9L432 282.2V445.7l-98.6-91.5-5.9-5.4-10.9 11.7 5.9 5.4L432 467.5V496H208V289.5z"/></svg>