<svg xmlns="http://www.w3.org/2000/svg" viewBox="0 0 448 512"><!--! Font Awesome Pro 6.5.1 by @fontawesome - https://fontawesome.com License - https://fontawesome.com/license (Commercial License) Copyright 2023 Fonticons, Inc. --><path d="M143 0h-1.5H136 104 56 48V8 197.8L1.1 275.9 0 277.8V280 504v8H8 160V496H16V282.2l46.9-78.1 1.1-1.9V200 16h40 26.4l64.1 172.7 8.7-22.6L154.9 35.8c.7 .7 1.5 1.4 2.3 2.1C171.4 50.9 193.5 64 224 64s52.6-13.1 66.9-26.1l.9-.8L192.6 285l-.6 1.4V288 504v8h8H440h8v-8V280v-2.2l-1.1-1.9L400 197.8V8 0h-8H344 312h-5.4H305h-4.9l-2.2 4.3 0 0 0 0 0 0 0 0 0 0 0 0-.2 .3c-.2 .3-.4 .7-.8 1.3c-.7 1.2-1.8 2.9-3.3 4.9c-3 4.1-7.5 9.7-13.6 15.2C267.9 37.1 249.5 48 224 48s-43.9-10.9-56.1-21.9c-6.1-5.5-10.6-11.1-13.6-15.2c-1.5-2.1-2.6-3.8-3.3-4.9c-.3-.6-.6-1-.8-1.3l-.2-.3 0 0 0 0 0 0 0 0L147.9 0H143zm65 289.5L317.4 16H344h40V200v2.2l1.1 1.9L432 282.2V496H208V289.5zM80 400a32 32 0 1 1 64 0 32 32 0 1 1 -64 0zm80 0a48 48 0 1 0 -96 0 48 48 0 1 0 96 0zM88 236.7L76.7 248l5.7 5.7L100.7 272 82.3 290.3 76.7 296 88 307.3l5.7-5.7L112 283.3l18.3 18.3 5.7 5.7L147.3 296l-5.7-5.7L123.3 272l18.3-18.3 5.7-5.7L136 236.7l-5.7 5.7L112 260.7 93.7 242.3 88 236.7zM320 256c-17.7 0-32 14.3-32 32v8 48 8h8 48 8c17.7 0 32-14.3 32-32s-14.3-32-32-32c0-17.7-14.3-32-32-32zm-16 32c0-8.8 7.2-16 16-16s16 7.2 16 16v8 8h8 8c8.8 0 16 7.2 16 16s-7.2 16-16 16h-8H304V296v-8z"/></svg>