<svg xmlns="http://www.w3.org/2000/svg" viewBox="0 0 512 512"><!--! Font Awesome Pro 6.5.1 by @fontawesome - https://fontawesome.com License - https://fontawesome.com/license (Commercial License) Copyright 2023 Fonticons, Inc. --><path d="M0 32H8 32 48 208h16 24 8V48h-8H224V266.8c-6.1 8.7-11.5 18-16 27.8V208H48V384c0 44.2 35.8 80 80 80c31.4 0 58.6-18.1 71.7-44.4c2 6.6 4.4 13 7.1 19.2C189.5 463.7 160.6 480 128 480c-53 0-96-43-96-96V48H8 0V32zM48 48V192H208V48H48zM368 496a128 128 0 1 0 0-256 128 128 0 1 0 0 256zm0-272a144 144 0 1 1 0 288 144 144 0 1 1 0-288zm75.3 104l-5.7 5.7-80 80-5.7 5.7-5.7-5.7-48-48-5.7-5.7L304 348.7l5.7 5.7L352 396.7l74.3-74.3 5.7-5.7L443.3 328z"/></svg>