<svg xmlns="http://www.w3.org/2000/svg" viewBox="0 0 576 512"><!--! Font Awesome Pro 6.5.1 by @fontawesome - https://fontawesome.com License - https://fontawesome.com/license (Commercial License) Copyright 2023 Fonticons, Inc. --><path d="M368 80v88V344v88H16V80H368zm16 352V352 334.1 177.9 160 80 64H368 16 0V80 432v16H16 368h16V432zm176-9.9l-144-72V368l144 72 16 8V430.1 81.9 64l-16 8L416 144v17.9l144-72V422.1zM152 160h-8v16h8H260.7L98.3 338.3 92.7 344 104 355.3l5.7-5.7L272 187.3V296v8h16v-8V168v-8h-8H152z"/></svg>