<svg xmlns="http://www.w3.org/2000/svg" viewBox="0 0 576 512"><!--! Font Awesome Pro 6.5.1 by @fontawesome - https://fontawesome.com License - https://fontawesome.com/license (Commercial License) Copyright 2023 Fonticons, Inc. --><path d="M368 80v88V344v88H16V80H368zm16 352V352 334.1 177.9 160 80 64H368 16 0V80 432v16H16 368h16V432zm176-9.9l-144-72V368l144 72 16 8V430.1 81.9 64l-16 8L416 144v17.9l144-72V422.1zM232 352h8V336h-8H123.3L285.7 173.7l5.7-5.7L280 156.7l-5.7 5.7L112 324.7V216v-8H96v8V344v8h8H232z"/></svg>