<svg xmlns="http://www.w3.org/2000/svg" viewBox="0 0 640 512"><!--! Font Awesome Pro 6.5.1 by @fontawesome - https://fontawesome.com License - https://fontawesome.com/license (Commercial License) Copyright 2023 Fonticons, Inc. --><path d="M320 3.9l6 6.8c25.9 29.2 49.3 52.5 76.8 69.5c27.3 16.9 59.1 27.9 102 31.8l8 .7-1.4 15.9-8-.7c-8.1-.7-15.8-1.7-23.3-2.9v51l34.9 30.6c19.1 16.7 41.9 28.7 66.6 34.8L608 248v8 16H592 544v48l25.3 33.8c14.9 19.9 34.2 36 56.4 47.1L640 408v8 16H624 576v72 8H560v-8V432H416v72 8H400v-8V432H240v72 8H224v-8V432H80v72 8H64v-8V432H16 0V416v-8l14.2-7.1c22.2-11.1 41.5-27.2 56.4-47.1L96 320V272H48 32V256v-8l26.5-6.6c24.6-6.2 47.4-18.1 66.6-34.8L160 176V124.3c-7.6 1.5-15.3 2.7-23.1 3.6l-8 .9-1.8-15.9 8-.9C204.6 104.3 262.9 68.4 314 10.7l6-6.8zM104 336L83.5 363.4C67.1 385.2 45.8 403 21.4 415.2l-1.6 .8H72 568h52.2l-1.6-.8c-24.4-12.2-45.7-30-62.1-51.8L536 336H104zm424-16V272H112v48H528zM464 121.9c-26.8-6-49.3-15.5-69.7-28.1C367 76.9 343.9 54.5 320 28c-41.9 45.5-89.3 77.8-144 92.6V176H464V121.9zM574.2 256c-25.8-7-49.7-19.8-69.8-37.4L474 192h-2H168h-2l-30.4 26.6c-20.1 17.6-44 30.4-69.8 37.4H104 536h38.2z"/></svg>