<svg xmlns="http://www.w3.org/2000/svg" viewBox="0 0 512 512"><!--! Font Awesome Pro 6.5.1 by @fontawesome - https://fontawesome.com License - https://fontawesome.com/license (Commercial License) Copyright 2023 Fonticons, Inc. --><path d="M216 8h-8V24h8 32V72.2c-44.8 1.9-85.4 19.8-116.3 48.2L97.6 86.3l0 0 22.6-22.6 5.7-5.7L114.6 46.7l-5.7 5.7L52.4 108.9l-5.7 5.7L58 125.9l5.7-5.7L86.3 97.6l0 0 34.1 34.1C92 162.6 74.1 203.2 72.2 248H24l0-32v-8H8v8 80 8H24l0-8 0-32H72.2c1.9 44.8 19.8 85.4 48.2 116.3L86.3 414.4l0 0L63.7 391.8 58 386.1 46.7 397.4l5.7 5.7 56.6 56.6 5.7 5.7L125.9 454l-5.7-5.7L97.6 425.7l0 0 34.1-34.1c30.9 28.4 71.5 46.3 116.3 48.2V488H216h-8v16h8 80 8V488h-8H264V439.8c44.8-1.9 85.4-19.8 116.3-48.2l34.1 34.1 0 0-22.6 22.6-5.7 5.7 11.3 11.3 5.7-5.7 56.6-56.6 5.7-5.7L454 386.1l-5.7 5.7-22.6 22.6 0 0-34.1-34.1c28.4-30.9 46.3-71.5 48.2-116.3H488v32 8h16v-8V216v-8H488v8 32H439.8c-1.9-44.8-19.8-85.4-48.2-116.3l34.1-34.1 0 0 22.6 22.6 5.7 5.7 11.3-11.3-5.7-5.7L403.1 52.4l-5.7-5.7L386.1 58l5.7 5.7 22.6 22.6 0 0-34.1 34.1C349.4 92 308.8 74.1 264 72.2V24l32 0h8V8h-8H216zm40 80a168 168 0 1 1 0 336 168 168 0 1 1 0-336zM192 192a32 32 0 1 1 0 64 32 32 0 1 1 0-64zm0 80a48 48 0 1 0 0-96 48 48 0 1 0 0 96zm112 48a16 16 0 1 0 0-32 16 16 0 1 0 0 32z"/></svg>