<svg xmlns="http://www.w3.org/2000/svg" viewBox="0 0 640 512"><!--! Font Awesome Pro 6.5.1 by @fontawesome - https://fontawesome.com License - https://fontawesome.com/license (Commercial License) Copyright 2023 Fonticons, Inc. --><path d="M532.5 288H560h16V272 240 224H560 532.5c-49.9 0-74.9-60.3-39.6-95.6l19.5-19.5 11.3-11.3L512.3 86.3 489.7 63.7 478.4 52.4 467.1 63.7 447.6 83.1C412.3 118.4 352 93.4 352 43.5V16 0H336 304 288V16 43.5c0 31.3-23.8 52.9-50.3 55.8L254 112.1c27.7-9 50-34.2 50-68.6V16h32V43.5c0 64.2 77.6 96.2 122.9 50.9l0 0L478.4 75 501 97.6l-19.5 19.5C436.2 162.4 468.3 240 532.5 240H560v32H532.5c-20.6 0-37.8 8-50.3 20.3l12.7 10c9.6-8.7 22.4-14.3 37.6-14.3zM145.1 209.7c-9.6 8.7-22.4 14.3-37.6 14.3H80 64v16 32 16H80h27.5c49.9 0 74.9 60.3 39.6 95.6l-19.5 19.5-11.3 11.3 11.3 11.3L139 437l11.3 11.3 11.3 11.3 11.3-11.3 19.5-19.5 0 0c35.3-35.2 95.6-10.3 95.6 39.6V496v16h16 32 16V496 468.5c0-31.3 23.8-52.9 50.3-55.8L386 399.9c-27.7 9-50 34.2-50 68.6V496H304V468.5c0-64.1-77.5-96.3-122.9-50.9l0 0 0 0 0 0L161.6 437l-11.3-11.3L139 414.4l19.5-19.5C203.8 349.6 171.7 272 107.5 272H80V240h27.5c20.6 0 37.8-8 50.3-20.3l-12.7-10zM16.2 5L9.9 0 0 12.5l6.3 5L623.8 507l6.3 5 9.9-12.5-6.3-5L16.2 5z"/></svg>