<svg xmlns="http://www.w3.org/2000/svg" viewBox="0 0 576 512"><!--! Font Awesome Pro 6.5.1 by @fontawesome - https://fontawesome.com License - https://fontawesome.com/license (Commercial License) Copyright 2023 Fonticons, Inc. --><path d="M170.6 340l-4.5-4H160 48V176H160h6.1l4.5-4L310.1 48H336V464H310.1L170.6 340zM32 352H48 160L304 480h32 16V464 48 32H336 304L160 160H48 32v16V336v16zm409.6-19.2C464.9 315.3 480 287.4 480 256s-15.1-59.3-38.4-76.8L432 192c19.4 14.6 32 37.8 32 64s-12.6 49.4-32 64l9.6 12.8zm57.6 76.8c46.6-35 76.8-90.8 76.8-153.6s-30.2-118.6-76.8-153.6l-9.6 12.8C532.4 147.3 560 198.4 560 256s-27.6 108.7-70.4 140.8l9.6 12.8z"/></svg>