<svg xmlns="http://www.w3.org/2000/svg" viewBox="0 0 576 512"><!--! Font Awesome Pro 6.5.1 by @fontawesome - https://fontawesome.com License - https://fontawesome.com/license (Commercial License) Copyright 2023 Fonticons, Inc. --><path d="M138.6 340l-4.5-4H128 16V176H128h6.1l4.5-4L278.1 48H304V464H278.1L138.6 340zM0 352H16 128L272 480h32 16V464 48 32H304 272L128 160H16 0v16V336v16zm413.7-18.3L480 267.3l66.3 66.3 11.3-11.3L491.3 256l66.3-66.3-11.3-11.3L480 244.7l-66.3-66.3-11.3 11.3L468.7 256l-66.3 66.3 11.3 11.3z"/></svg>