<svg xmlns="http://www.w3.org/2000/svg" viewBox="0 0 640 512"><!--! Font Awesome Pro 6.5.1 by @fontawesome - https://fontawesome.com License - https://fontawesome.com/license (Commercial License) Copyright 2023 Fonticons, Inc. --><path d="M524.8 486.4C594.8 433.9 640 350.2 640 256s-45.2-177.9-115.2-230.4l-9.6 12.8C581.3 88 624 167 624 256s-42.7 168-108.8 217.6l9.6 12.8zM544 256c0-62.8-30.2-118.6-76.8-153.6l-9.6 12.8C500.4 147.3 528 198.4 528 256s-27.6 108.7-70.4 140.8l9.6 12.8c46.6-35 76.8-90.8 76.8-153.6zm-96 0c0-31.4-15.1-59.3-38.4-76.8L400 192c19.4 14.6 32 37.8 32 64s-12.6 49.4-32 64l9.6 12.8C432.9 315.3 448 287.4 448 256zM138.6 340l-4.5-4H128 16V176H128h6.1l4.5-4L278.1 48H304V464H278.1L138.6 340zM0 352H16 128L272 480h32 16V464 48 32H304 272L128 160H16 0v16V336v16z"/></svg>