<svg xmlns="http://www.w3.org/2000/svg" viewBox="0 0 640 512"><!--! Font Awesome Pro 6.5.1 by @fontawesome - https://fontawesome.com License - https://fontawesome.com/license (Commercial License) Copyright 2023 Fonticons, Inc. --><path d="M16.2 5L9.9 0 0 12.5l6.3 5L623.8 507l6.3 5 9.9-12.5-6.3-5L16.2 5zM576 256c0-62.8-30.2-118.6-76.8-153.6l-9.6 12.8C532.4 147.3 560 198.4 560 256c0 29.5-7.3 57.4-20.1 81.8l12.8 10.1C567.5 320.6 576 289.3 576 256zM352 48V32H336 304L232.7 95.4l12.8 10.1L310.1 48H336V176.9l16 12.6V48zM48 176h54.5L82.2 160H48 32v16V336v16H48 160L304 480h32 16V464 373l-16-12.6V464H310.1L170.6 340l-4.5-4H160 48V176zm416 80c0 6.9-.9 13.6-2.5 20L475 286.6c3.2-9.6 5-19.9 5-30.6c0-31.4-15.1-59.3-38.4-76.8L432 192c19.4 14.6 32 37.8 32 64z"/></svg>