<svg xmlns="http://www.w3.org/2000/svg" viewBox="0 0 448 512"><!--! Font Awesome Pro 6.5.1 by @fontawesome - https://fontawesome.com License - https://fontawesome.com/license (Commercial License) Copyright 2023 Fonticons, Inc. --><path d="M138.6 340l-4.5-4H128 16V176H128h6.1l4.5-4L278.1 48H304V464H278.1L138.6 340zM0 352H16 128L272 480h32 16V464 48 32H304 272L128 160H16 0v16V336v16zm409.6-19.2C432.9 315.3 448 287.4 448 256s-15.1-59.3-38.4-76.8L400 192c19.4 14.6 32 37.8 32 64s-12.6 49.4-32 64l9.6 12.8z"/></svg>