<svg xmlns="http://www.w3.org/2000/svg" viewBox="0 0 640 512"><!--! Font Awesome Pro 6.5.1 by @fontawesome - https://fontawesome.com License - https://fontawesome.com/license (Commercial License) Copyright 2023 Fonticons, Inc. --><path d="M294.1 304H304h32 9.9l4.4 8.8L409.9 432H624V80H16V432H230.1l59.6-119.2 4.4-8.8zM240 448H16 0V432 80 64H16 624h16V80 432v16H624 400L336 320H304L240 448zM176 304a64 64 0 1 0 0-128 64 64 0 1 0 0 128zm0-144a80 80 0 1 1 0 160 80 80 0 1 1 0-160zm352 80a64 64 0 1 0 -128 0 64 64 0 1 0 128 0zm-144 0a80 80 0 1 1 160 0 80 80 0 1 1 -160 0z"/></svg>