<svg xmlns="http://www.w3.org/2000/svg" viewBox="0 0 512 512"><!--! Font Awesome Pro 6.5.1 by @fontawesome - https://fontawesome.com License - https://fontawesome.com/license (Commercial License) Copyright 2023 Fonticons, Inc. --><path d="M496 256A240 240 0 1 0 16 256a240 240 0 1 0 480 0zM0 256a256 256 0 1 1 512 0A256 256 0 1 1 0 256zM264 72v80h80V104 96h16v8 48h48 8v16h-8H360v80h80 8v16h-8H360v80h48 8v16h-8H360v48 8H344v-8V360H264v80 8H248v-8V360H168v48 8H152v-8V360H104 96V344h8 48V264H72 64V248h8 80V168H104 96V152h8 48V104 96h16v8 48l80 0V72 64h16v8zm-96 96v80h80V168l-80 0zm0 96v80h80V264H168zm96 0v80h80V264H264zm0-16h80V168H264v80z"/></svg>