<svg xmlns="http://www.w3.org/2000/svg" viewBox="0 0 640 512"><!--! Font Awesome Pro 6.5.1 by @fontawesome - https://fontawesome.com License - https://fontawesome.com/license (Commercial License) Copyright 2023 Fonticons, Inc. --><path d="M13.2 4.8L1.7 4.3l3.5 11L77 240H72 64v8 40 8H80v-8V256H560v32 8h16v-8V248v-8h-8-5L634.8 15.2l3.5-11-11.5 .5L391.9 16H248.2L13.2 4.8zM256 32H384V240H256V32zm-16-.4V240H93.8L23.9 21.3 240 31.6zM353.1 416c7.8 54.3 54.4 96 110.9 96c61.9 0 112-50.1 112-112s-50.1-112-112-112s-112 50.1-112 112H288c0-61.9-50.1-112-112-112s-112 50.1-112 112s50.1 112 112 112c56.4 0 103.1-41.7 110.9-96h66.3zM368 400h0c0-53 43-96 96-96s96 43 96 96s-43 96-96 96c-52.9 0-95.8-42.8-96-95.6V400zm-96 0l0 .1c0 53-43 95.9-96 95.9c-53 0-96-43-96-96s43-96 96-96s96 43 96 96zm-88-72v-8H168v8 64H104 96v16h8 64v64 8h16v-8V408h64 8V392h-8H184V328zm288-8H456v8 64H392h-8v16h8 64v64 8h16v-8V408h64 8V392h-8H472V328v-8zM616.1 21.3L546.2 240H400V31.6L616.1 21.3z"/></svg>