<svg xmlns="http://www.w3.org/2000/svg" viewBox="0 0 384 512"><!--! Font Awesome Pro 6.5.1 by @fontawesome - https://fontawesome.com License - https://fontawesome.com/license (Commercial License) Copyright 2023 Fonticons, Inc. --><path d="M96 8V0H80V8 96H8c-4.4 0-8 3.6-8 8V312c0 2.1 .8 4.2 2.3 5.7L32 347.3V504c0 4.4 3.6 8 8 8H344c4.4 0 8-3.6 8-8V347.3l29.7-29.7c1.5-1.5 2.3-3.5 2.3-5.7V104c0-4.4-3.6-8-8-8H320V64 56h-8H264h-8v8V96H224V64 56h-8H168h-8v8V96H96V8zM272 96V72h32V96H272zM208 72V96H176V72h32zM80 112H96 368V308.7l-29.7 29.7c-1.5 1.5-2.3 3.5-2.3 5.7V496H48V344c0-2.1-.8-4.2-2.3-5.7L16 308.7V112H80zm16 64v16h8H280h8V176h-8H104 96zm0 64v16h8H280h8V240h-8H104 96zm0 64v16h8H280h8V304h-8H104 96z"/></svg>