<svg xmlns="http://www.w3.org/2000/svg" viewBox="0 0 512 512"><!--! Font Awesome Pro 6.5.1 by @fontawesome - https://fontawesome.com License - https://fontawesome.com/license (Commercial License) Copyright 2023 Fonticons, Inc. --><path d="M378.6 176h7H416V142v-6.3l4.3-4.6 69.5-74.7L455.6 22.2l-264 245.5L187 272h-6.3H128v47.9 7l-5.1 4.7L23 424.4 87.6 489 373.8 181.1l4.7-5.1zM98.9 500.3L88 512 76.7 500.7 11.3 435.3 0 424l11.7-10.9L112 319.9V272 256h16 52.7L456 0l56 56-80 86v34 16H416 385.5L98.9 500.3z"/></svg>