<svg xmlns="http://www.w3.org/2000/svg" viewBox="0 0 576 512"><!--! Font Awesome Pro 6.5.1 by @fontawesome - https://fontawesome.com License - https://fontawesome.com/license (Commercial License) Copyright 2023 Fonticons, Inc. --><path d="M123.3 500.7L112 512l-11.3-11.3L43.3 443.3 32 432l11.3-11.3L452.7 11.3 464 0l11.3 11.3 57.4 57.4L544 80 532.7 91.3 123.3 500.7zM521.4 80L464 22.6l-135 135L386.3 215l135-135zM54.6 432L112 489.4l263-263L317.7 169 54.6 432zM104 64v56h56 8v16h-8H104v56 8H88v-8V136H32 24V120h8H88V64 56h16v8zM488 312v8 56h56 8v16h-8H488v56 8H472v-8V392H416h-8V376h8 56V320v-8h16zM232 32V56h24 8V72h-8H232V96v8H216V96 72H192h-8V56h8 24V32 24h16v8z"/></svg>