<svg xmlns="http://www.w3.org/2000/svg" viewBox="0 0 512 512"><!--! Font Awesome Pro 6.5.1 by @fontawesome - https://fontawesome.com License - https://fontawesome.com/license (Commercial License) Copyright 2023 Fonticons, Inc. --><path d="M385.5 176h-7l-4.7 5.1L87.6 489 23 424.4l99.8-92.8 5.1-4.7v-7V272h52.7H187l4.6-4.3 264-245.5 34.2 34.2-69.5 74.7-4.3 4.6V142v34H385.5zM88 512l10.9-11.7L385.5 192H416h16V176 142l80-86L456 0 180.7 256H128 112v16 47.9L11.7 413.1 0 424l11.3 11.3 65.4 65.4L88 512zM248 32V24H232v8V72H192h-8V88h8 40v40 8h16v-8V88h40 8V72h-8H248V32zM88 80V72H72v8 56H16 8v16h8H72v56 8H88v-8V152h56 8V136h-8H88V80zM440 304v-8H424v8 56H368h-8v16h8 56v56 8h16v-8V376h56 8V360h-8H440V304z"/></svg>