<svg xmlns="http://www.w3.org/2000/svg" viewBox="0 0 640 512"><!--! Font Awesome Pro 6.5.1 by @fontawesome - https://fontawesome.com License - https://fontawesome.com/license (Commercial License) Copyright 2023 Fonticons, Inc. --><path d="M320 7.4l2.9 1.1 312 120 5.1 2V136 504v8H624v-8V141.5L320 24.6 16 141.5V504v8H0v-8V136v-5.5l5.1-2 312-120L320 7.4zM96 192h8H536h8v8V504v8H528v-8V208H112V504v8H96v-8V200v-8zM336 384h16H464h16v16 96 16H464 176 160V496 400 384 304 288h16H320h16v16 64 16zm-16 0V368 304H176v80H320zm0 16H176v96H320V400zm16 96H464V400H336v96z"/></svg>