<svg xmlns="http://www.w3.org/2000/svg" viewBox="0 0 384 512"><!--! Font Awesome Pro 6.5.1 by @fontawesome - https://fontawesome.com License - https://fontawesome.com/license (Commercial License) Copyright 2023 Fonticons, Inc. --><path d="M64 0h8H312h8V8 112h-1c39.9 35.2 65 86.7 65 144c0 56.9-24.7 108-64 143.1V504v8h-8L72 512H64v-8l0-104.9C24.7 364 0 312.9 0 256c0-57.3 25.1-108.8 65-144H64V8 0zM80 412l0 84 224 0V412c-31.5 22.7-70.2 36-112 36s-80.5-13.4-112-36zM304 16H80v84c31.5-22.7 70.2-36 112-36s80.5 13.4 112 36V16zm64 240A176 176 0 1 0 16 256a176 176 0 1 0 352 0zM200 160v92l60.8 45.6 6.4 4.8-9.6 12.8-6.4-4.8-64-48L184 260v-4V160v-8h16v8z"/></svg>