<svg xmlns="http://www.w3.org/2000/svg" viewBox="0 0 384 512"><!--! Font Awesome Pro 6.5.1 by @fontawesome - https://fontawesome.com License - https://fontawesome.com/license (Commercial License) Copyright 2023 Fonticons, Inc. --><path d="M72 0H64V8 64H16 0V80 432v16H16 64l0 56v8h8l240 0h8v-8V448h48 16V432 80 64H368 320V8 0h-8H72zM320 432H304L80 432H64l-48 0V80H64 80 304h16 48V432H320zM80 496l0-48H304v48L80 496zM304 64H80V16H304V64zM184.3 177.2c-11.5-11-26.8-17.2-42.7-17.2h-2.4C106.5 160 80 186.5 80 219.2c0 16.1 6.6 31.5 18.2 42.7l82.8 79.6L192 352.1l11.1-10.7 82.8-79.6c11.6-11.2 18.2-26.6 18.2-42.7c0-32.7-26.5-59.2-59.2-59.2h-2.4c-15.9 0-31.2 6.2-42.7 17.2l-7.7 7.4-7.7-7.4zm-3.4 18.9L192 206.8l11.1-10.7 7.7-7.4c8.5-8.2 19.8-12.7 31.6-12.7h2.4c23.9 0 43.2 19.3 43.2 43.2c0 11.7-4.8 23-13.2 31.1L192 329.9l-82.8-79.6c-8.5-8.1-13.2-19.4-13.2-31.1c0-23.9 19.3-43.2 43.2-43.2h2.4c11.8 0 23.1 4.6 31.6 12.7l7.7 7.4z"/></svg>