<svg xmlns="http://www.w3.org/2000/svg" viewBox="0 0 384 512"><!--! Font Awesome Pro 6.5.1 by @fontawesome - https://fontawesome.com License - https://fontawesome.com/license (Commercial License) Copyright 2023 Fonticons, Inc. --><path d="M72 0H64V8 64H16 0V80 432v16H16 64l0 56v8h8l240 0h8v-8V448h48 16V432 80 64H368 320V8 0h-8H72zM304 432L80 432H64l-48 0V80H64 80 304h16 48V432H320 304zM80 448H304v48L80 496l0-48zM304 64H80V16H304V64zM80 144H304v64H80V144zM64 128v16 64 16H80 304h16V208 144 128H304 80 64zm8 120v8 48 8h8 48 8v-8V256v-8h-8H80 72zm16 16h32v32H88V264zm80-16h-8v8 48 8h8 48 8v-8V256v-8h-8H168zm8 48V264h32v32H176zm72-48v8 48 8h8 48 8v-8V256v-8h-8H256h-8zm16 16h32v32H264V264zM80 328H72v8 48 8h8 48 8v-8V336v-8h-8H80zm8 48V344h32v32H88zm72-48v8 48 8h8 48 8v-8V336v-8h-8H168h-8zm16 16h32v32H176V344zm80-16h-8v8 48 8h8 48 8v-8V336v-8h-8H256zm8 48V344h32v32H264z"/></svg>