<svg xmlns="http://www.w3.org/2000/svg" viewBox="0 0 384 512"><!--! Font Awesome Pro 6.5.1 by @fontawesome - https://fontawesome.com License - https://fontawesome.com/license (Commercial License) Copyright 2023 Fonticons, Inc. --><path d="M72 0H64V8 64H16 0V80 432v16H16 64l0 56v8h8l240 0h8v-8V448h48 16V432 80 64H368 320V8 0h-8H72zM304 432L80 432H64l-48 0V80H64 80 304h16 48V432H320 304zM80 448H304v48L80 496l0-48zM304 64H80V16H304V64zM200 160v-8H184v8 96 4l3.2 2.4 64 48 6.4 4.8 9.6-12.8-6.4-4.8L200 252V160z"/></svg>