<svg xmlns="http://www.w3.org/2000/svg" viewBox="0 0 640 512"><!--! Font Awesome Pro 6.5.1 by @fontawesome - https://fontawesome.com License - https://fontawesome.com/license (Commercial License) Copyright 2023 Fonticons, Inc. --><path d="M441.1 64H455l.9 7 41.3 316.3 38.9-220.6 1.2-6.6h12.9l1.6 5.9L582.1 280H632h8v16h-8H576h-6.1l-1.6-5.9-22.7-85L503.9 441.4l-1.2 6.6H489l-.9-7L447.5 130 391.9 505.2l-1 6.8H377l-.9-7L320 70.5 263.9 505l-.9 7H249.1l-1-6.8L192.5 130 151.9 441l-.9 7H137.3l-1.2-6.6L94.4 205l-22.7 85L70.1 296H64 8 0V280H8 57.9L88.3 165.9l1.6-5.9h12.9l1.2 6.6 38.9 220.6L184.1 71l.9-7h13.9l1 6.8 55.5 374.9L312.1 7l.9-7H327l.9 7 56.6 438.7L440.1 70.8l1-6.8z"/></svg>