<svg xmlns="http://www.w3.org/2000/svg" viewBox="0 0 448 512"><!--! Font Awesome Pro 6.5.1 by @fontawesome - https://fontawesome.com License - https://fontawesome.com/license (Commercial License) Copyright 2023 Fonticons, Inc. --><path d="M400 52a36 36 0 1 0 -72 0 36 36 0 1 0 72 0zm-88 0a52 52 0 1 1 104 0A52 52 0 1 1 312 52zm-8 300A144 144 0 1 0 16 352a144 144 0 1 0 288 0zM0 352a160 160 0 1 1 320 0A160 160 0 1 1 0 352zm160-88a88 88 0 1 0 0 176 88 88 0 1 0 0-176zm104 88A104 104 0 1 1 56 352a104 104 0 1 1 208 0zm62.3-96c-3.2-5.5-6.6-10.9-10.3-16h92 21.6 16.2l-2.7 16-3.5 21.3-24 144L412.9 437l-2.6 15.8-15.8-2.6L363 444.9l-15.8-2.6 2.6-15.8 2.6-15.8L367.6 320l2.7-16H354 346c-1.4-5.4-3-10.8-4.9-16h29.1 18.9L386 306.6 368.2 413.4l-2.6 15.8 31.6 5.3 2.6-15.8 24-144 3.1-18.6H408 326.3zM232.1 155.6L244 143.7l-14.8-7.8-35.9-19L145 147.1l-13.6 8.5-13.6 8.5-8.5-13.6-17-27.1-8.5-13.6 13.6-8.5L111 92.9l64-40 15.6-9.8L207 51.7l136 72 23.5 12.4 14.8 7.8-11.8 11.8-18.8 18.8L302.2 223c-3.6-4-7.3-7.8-11.2-11.4l48.3-48.3L354.6 148l-19.1-10.1-136-72-8.1-4.3-7.8 4.9-64 40L106 114.9l17 27.1 13.6-8.5 48.4-30.2 7.8-4.9 8.1 4.3 50.7 26.8 19.1 10.1L255.3 155l-20.2 20.2c-5.4-2.3-10.9-4.3-16.5-6.1l13.5-13.5z"/></svg>