<svg xmlns="http://www.w3.org/2000/svg" viewBox="0 0 512 512"><!--! Font Awesome Pro 6.5.1 by @fontawesome - https://fontawesome.com License - https://fontawesome.com/license (Commercial License) Copyright 2023 Fonticons, Inc. --><path d="M192 80a32 32 0 1 0 0-64 32 32 0 1 0 0 64zm0-80a48 48 0 1 1 0 96 48 48 0 1 1 0-96zM137.3 209.8C68.5 220.7 16 280.2 16 352c0 79.5 64.5 144 144 144c66.4 0 122.4-45 139-106.2l15.4 4.2C296 462 233.8 512 160 512C71.6 512 0 440.4 0 352c0-79.8 58.4-145.9 134.8-158l2.5 15.8zM336 240H289 272.6l3.2 16 6.4 32H384h22.2l7.8 20.8 37.1 99 10.7-3.6 15.2-5.1 15.2-5.1 5.1 15.2 10.2 30.3 5.1 15.2-15.2 5.1-15.2 5.1-40 13.5-29.3 9.9-10.9-29L361.8 352H256.6c-.4 0-.8 0-1.3 0H224 197.8l-5.1-25.7-32-160L156.2 144 153 128h16.3H192h32 26.2l5.1 25.7 4.5 22.3H336h16 16v16 32 16H352 336zm48 64H282.2 269.1l-2.6-12.9-9.6-48L253.1 224h19.5H336h16V192H336 259.8 246.7l-2.6-12.9-4.5-22.3L237.1 144H224 192 172.5l3.8 19.1 32 160 2.6 12.9H224h31.3 .3l0 0c.1 0 .1 0 .2 0c.1 0 .3 0 .4 0l.3 0v0H361.8h11.1l3.9 10.4L417 453.6l5.4 14.5 14.7-5 40-13.5 15.2-5.1L482 414.2l-15.2 5.1-10.7 3.6-14.7 5-5.4-14.5-37.1-99L395.1 304H384z"/></svg>