<svg xmlns="http://www.w3.org/2000/svg" viewBox="0 0 512 512"><!--! Font Awesome Pro 6.5.1 by @fontawesome - https://fontawesome.com License - https://fontawesome.com/license (Commercial License) Copyright 2023 Fonticons, Inc. --><path d="M77.9 464H434.1L493.6 48H18.4L77.9 464zM448 480H64L2.3 48 0 32H16.2 495.8 512l-2.3 16L448 480zM255.4 195.3L242.7 208H112V368h89.8l16 16H112 96V368 208 192h16H258.9c-1.2 1.1-2.4 2.2-3.5 3.3zM312 206.6L210.2 308.5 312 410.3 413.8 308.5 312 206.6zm0-22.6l11.3 11.3L425.1 297.1l11.3 11.3-11.3 11.3L323.3 421.6 312 432.9l-11.3-11.3L198.9 319.8l-11.3-11.3 11.3-11.3L300.7 195.3 312 184z"/></svg>