<svg xmlns="http://www.w3.org/2000/svg" viewBox="0 0 640 512"><!--! Font Awesome Pro 6.5.1 by @fontawesome - https://fontawesome.com License - https://fontawesome.com/license (Commercial License) Copyright 2023 Fonticons, Inc. --><path d="M329.3 304H310.7L289.4 48h61.2L329.3 304zM296 320h48L366.7 48 368 32H351.9 288.1 272l1.3 16L296 320zm-40 96a64 64 0 1 0 128 0 64 64 0 1 0 -128 0zM386.1 199.6l-1.3 16.1c46.4 11.3 88.1 34.6 121.7 66.3l11-11.6c-36.2-34.1-81.3-59-131.3-70.7zM255.2 215.8l-1.3-16.1c-50.1 11.8-95.1 36.6-131.3 70.7l11 11.6c33.6-31.7 75.3-54.9 121.7-66.3zm371.1-40.4l11.3-11.3C574.3 100.4 491.8 55.6 399.5 39l-1.3 16c88.4 16.2 167.3 59.2 228.1 120.3zM241.8 55.1l-1.3-16C148.2 55.6 65.7 100.4 2.3 164.1l11.3 11.3C74.5 114.2 153.4 71.2 241.8 55.1zM272 416a48 48 0 1 1 96 0 48 48 0 1 1 -96 0z"/></svg>