<svg xmlns="http://www.w3.org/2000/svg" viewBox="0 0 640 512"><!--! Font Awesome Pro 6.5.1 by @fontawesome - https://fontawesome.com License - https://fontawesome.com/license (Commercial License) Copyright 2023 Fonticons, Inc. --><path d="M224 464c86.5 0 160.7-52.8 192.1-128h17.2C401.1 420.2 319.5 480 224 480C100.3 480 0 379.7 0 256S100.3 32 224 32s224 100.3 224 224H432c0-114.9-93.1-208-208-208S16 141.1 16 256s93.1 208 208 208zm8-336v8V296v8H216v-8V136v-8h16zM208 368V336h32v32H208zM480 480V464h8 56c44.2 0 80-35.8 80-80s-35.8-80-80-80H328h-8V288h8H544c53 0 96 43 96 96s-43 96-96 96H488h-8zm64-256H478c-.7-5.4-1.5-10.7-2.5-16H544c44.2 0 80-35.8 80-80s-35.8-80-80-80H488h-8V32h8 56c53 0 96 43 96 96s-43 96-96 96z"/></svg>