<svg xmlns="http://www.w3.org/2000/svg" viewBox="0 0 512 512"><!--! Font Awesome Pro 6.5.1 by @fontawesome - https://fontawesome.com License - https://fontawesome.com/license (Commercial License) Copyright 2023 Fonticons, Inc. --><path d="M288 0V16h8 64c39.8 0 72 32.2 72 72s-32.2 72-72 72H8 0v16H8 360c48.6 0 88-39.4 88-88s-39.4-88-88-88H296h-8zm64 416h8 68c46.4 0 84-37.6 84-84s-37.6-84-84-84H8 0v16H8 428c37.6 0 68 30.4 68 68s-30.4 68-68 68H360h-8v16zM104 512h64c48.6 0 88-39.4 88-88s-39.4-88-88-88H8 0v16H8 168c39.8 0 72 32.2 72 72s-32.2 72-72 72H104 96v16h8z"/></svg>