<svg xmlns="http://www.w3.org/2000/svg" viewBox="0 0 320 512"><!--! Font Awesome Pro 6.5.1 by @fontawesome - https://fontawesome.com License - https://fontawesome.com/license (Commercial License) Copyright 2023 Fonticons, Inc. --><path d="M46.6 16L30.4 194.1C23.5 270.3 83.5 336 160 336s136.5-65.7 129.6-141.9L273.4 16H168.6l30.8 77 2.7 6.8-6.6 3.3-54.1 27 56.2 56.2 5.7 5.7L192 203.3l-5.7-5.7-64-64-7.8-7.8 9.9-5 57.4-28.7L152.6 19l-1.2-3H46.6zM305.5 192.7c7.5 82.9-55.5 154.7-137.5 159.1V496h80 8v16h-8H160 72 64V496h8 80V351.8C69.9 347.4 7 275.5 14.5 192.7L32 0H288l17.5 192.7z"/></svg>