<svg xmlns="http://www.w3.org/2000/svg" viewBox="0 0 512 512"><!--! Font Awesome Pro 6.5.1 by @fontawesome - https://fontawesome.com License - https://fontawesome.com/license (Commercial License) Copyright 2023 Fonticons, Inc. --><path d="M83.1 272L19.9 32H36.5L99.6 272h90.4L244.2 38.2l1.4-6.2H252h8 6.4l1.4 6.2L321.9 272h90.4L475.5 32h16.5L428.9 272H504h8v16h-8H424.7l-49 186-1.6 6H368h-8-6.4l-1.4-6.2L309.2 288H202.8l-43 185.8-1.4 6.2H152h-8-6.2l-1.6-6-49-186H8 0V272H8 83.1zm20.8 16l43.9 166.8L186.4 288H103.9zm102.7-16h99L256 58.2 206.5 272zm119.1 16l38.6 166.8L408.1 288H325.6z"/></svg>