<svg xmlns="http://www.w3.org/2000/svg" viewBox="0 0 512 512"><!--! Font Awesome Pro 6.5.1 by @fontawesome - https://fontawesome.com License - https://fontawesome.com/license (Commercial License) Copyright 2023 Fonticons, Inc. --><path d="M0 32H8 40 472h32 8V48h-8H480V464h24 8v16h-8H472 40 8 0V464H8 32V48H8 0V32zM48 48V464H464V48H48zM264 96v8 40h80 8v16h-8H264v48H376h8v16h-8H264v80 1.5l72-25.1 1.3-.4h1.4H392h8v8 65.6 2.8l-1.7 2.2-42.7 54.4-2.4 3.1h-3.9H162.7h-3.9l-2.4-3.1-42.7-54.4-1.7-2.2v-2.8V288v-8h8 53.3 1.4l1.3 .4 72 25.1V304 224H144h-8V208h8H248V160H176h-8V144h8 72V104 96h16zM128 350.8L166.6 400H345.4L384 350.8V296H340l-81.4 28.4-2.6 .9-2.6-.9L172 296H128v54.8zm64 1.2a16 16 0 1 1 32 0 16 16 0 1 1 -32 0zm112-16a16 16 0 1 1 0 32 16 16 0 1 1 0-32z"/></svg>