<svg xmlns="http://www.w3.org/2000/svg" viewBox="0 0 512 512"><!--! Font Awesome Pro 6.5.1 by @fontawesome - https://fontawesome.com License - https://fontawesome.com/license (Commercial License) Copyright 2023 Fonticons, Inc. --><path d="M406.7 202.6c-7.7-21.8-20.2-42.3-37.8-59.8c-62.5-62.5-163.8-62.5-226.3 0L125.5 160h34.3 32v64h-32H47.8h-32V192 80 48h64V80v35.2L97.4 97.6c87.5-87.5 229.3-87.5 316.8 0c24.4 24.4 42.1 53.1 52.9 83.7l-60.4 21.3zm25.1 194.3l-17.6 17.5 0 0c-87.5 87.4-229.3 87.4-316.7 0C73 390 55.3 361.3 44.5 330.6l60.4-21.3c7.7 21.8 20.2 42.3 37.8 59.8c62.5 62.5 163.8 62.5 226.3 0l.1-.1L386.2 352H351.8h-32V288h32 112 32v32V432v32h-64V432 396.9z"/></svg>