<svg xmlns="http://www.w3.org/2000/svg" viewBox="0 0 640 512"><!--! Font Awesome Pro 6.5.1 by @fontawesome - https://fontawesome.com License - https://fontawesome.com/license (Commercial License) Copyright 2023 Fonticons, Inc. --><path d="M0 32H32 416h32V64v58.1l-17 10.6c-24.1 15-58.9 43-88.1 79.6c-17.1 21.5-33.2 47-43.4 75.7H64v64 64H299c8.5 23.9 21.5 45.5 38 64H32 0V448 352 256 224 64 32zM288 351.8c0 11 .9 21.7 2.7 32.2H128 96V320h32H290.9c-1.9 10.3-2.9 21-2.9 31.8zM448 160l64 64 32-32c76.8 64 96 133.3 96 160c0 88.4-71.6 160-160 160s-160-71.6-160-160c0-89.6 85.3-165.3 128-192zm96 240.2c0-48-64-96-64-96s-64 48-64 96c0 35.3 28.7 64 64 64s64-28.7 64-64z"/></svg>