<svg xmlns="http://www.w3.org/2000/svg" viewBox="0 0 640 512"><!--! Font Awesome Pro 6.5.1 by @fontawesome - https://fontawesome.com License - https://fontawesome.com/license (Commercial License) Copyright 2023 Fonticons, Inc. --><path d="M128 32v80H384V32H128zM96 112V32H32v80H96zM32 144v96H240V144H32zm0 224H96V272H32v96zm0 32v80H240V400H32zm240 0v80h65c-20.2-22.5-35.1-49.8-42.9-80H272zM480 144h-2.6l2.6 2.6V144zm-208 0v96h51.2c6.2-9.8 12.9-19.1 19.7-27.7c23-28.8 49.5-52.3 71.4-68.3H272zM128 272v96H288.7c-.4-5.3-.7-10.7-.7-16.2c0-28.7 7.1-55.5 18-79.8H128zM480 112V32H416v80h64zm-32 48c-42.7 26.7-128 102.4-128 192c0 88.4 71.6 160 160 160s160-71.6 160-160c0-26.7-19.2-96-96-160l-32 32-64-64zm96 240.2c0 35.3-28.7 64-64 64s-64-28.7-64-64c0-48 64-96 64-96s64 48 64 96z"/></svg>