<svg xmlns="http://www.w3.org/2000/svg" viewBox="0 0 640 512"><!--! Font Awesome Pro 6.5.1 by @fontawesome - https://fontawesome.com License - https://fontawesome.com/license (Commercial License) Copyright 2023 Fonticons, Inc. --><path d="M235.4 160L48.4 14.8 29.4 .1 0 38 19 52.7 591.5 497.2l19 14.7L639.9 474l-19-14.7L477.6 348c1.6-9.1 2.4-18.4 2.4-28h64 32V256H544 480V205.3l54.6-54.6L557.3 128 512 82.7l-22.6 22.6L434.7 160H235.4zM430.8 435.4L336 360.7V479.2c36.6-3.6 69.7-19.6 94.8-43.8zM160 222.1V256H96 64v64H96h64c0 24.2 5.4 47.2 15 67.7l-53.6 53.6L98.7 464 144 509.3l22.6-22.6 47.1-47.1c24.5 21.8 55.8 36.2 90.3 39.6V335.5L160 222.1zM320 0c-53 0-96 43-96 96v32H416V96c0-53-43-96-96-96z"/></svg>