<svg xmlns="http://www.w3.org/2000/svg" viewBox="0 0 640 512"><!--! Font Awesome Pro 6.5.1 by @fontawesome - https://fontawesome.com License - https://fontawesome.com/license (Commercial License) Copyright 2023 Fonticons, Inc. --><path d="M384 0H0V512H144V384h96V512h48V288H256V224h32V160H256V96h32V64h96V0zM64 224h64v64H64V224zm160 0v64H160V224h64zM128 96v64H64V96h64zm32 0h64v64H160V96zm480 0H320V512H640V96zM400 184a24 24 0 1 1 0 48 24 24 0 1 1 0-48zM376 304a24 24 0 1 1 48 0 24 24 0 1 1 -48 0zm24 72a24 24 0 1 1 0 48 24 24 0 1 1 0-48zm64-184h16 96 16v32H576 480 464V192zm16 96h96 16v32H576 480 464V288h16zm-16 96h16 96 16v32H576 480 464V384z"/></svg>