<svg xmlns="http://www.w3.org/2000/svg" viewBox="0 0 576 512"><!--! Font Awesome Pro 6.5.1 by @fontawesome - https://fontawesome.com License - https://fontawesome.com/license (Commercial License) Copyright 2023 Fonticons, Inc. --><path d="M0 0H384V193.6c-16.3 16.6-27.4 38.3-30.9 62.4H320V224H256v64h64v32l0 192H240V384H144V512H0V0zM128 224H64v64h64V224zm32 0v64h64V224H160zM64 96v64h64V96H64zm160 0H160v64h64V96zm32 0v64h64V96H256zM464 240c-17.7 0-32 14.3-32 32v48h64V272c0-17.7-14.3-32-32-32zm-80 32c0-44.2 35.8-80 80-80s80 35.8 80 80v48h32V512H352V320h32V272z"/></svg>