<svg xmlns="http://www.w3.org/2000/svg" viewBox="0 0 640 512"><!--! Font Awesome Pro 6.5.1 by @fontawesome - https://fontawesome.com License - https://fontawesome.com/license (Commercial License) Copyright 2023 Fonticons, Inc. --><path d="M384 0H0V512H144V384h96V512H384V466.7C327.5 442 288 385.6 288 320c0-11 1.1-21.7 3.2-32H256V224h64c16.5-22 38.5-39.6 64-50.7V0zM64 224h64v64H64V224zm160 0v64H160V224h64zM128 96v64H64V96h64zm32 0h64v64H160V96zm160 0v64H256V96h64zM448 240.1a80 80 0 1 1 0 160 80 80 0 1 1 0-160zm0 208c26.7 0 51.5-8.2 72-22.1l63.1 62.7 17 16.9 33.8-34-17-16.9-63-62.6c13.9-20.5 22.1-45.3 22.1-71.9c0-70.7-57.3-128-128-128s-128 57.3-128 128s57.3 128 128 128z"/></svg>