<svg xmlns="http://www.w3.org/2000/svg" viewBox="0 0 640 512"><!--! Font Awesome Pro 6.5.1 by @fontawesome - https://fontawesome.com License - https://fontawesome.com/license (Commercial License) Copyright 2023 Fonticons, Inc. --><path d="M32 32H64 192h19.8l8.8 17.7L291.8 192H320V128 96h64v32 64h64v96h64V224 212.8l7-8.8 64-80 50 40-57 71.2V288v64 50.7l54.6 54.6-45.3 45.3-64-64-9.4-9.4V416 352H469.2c6.9 14.5 10.8 30.8 10.8 48c0 61.9-50.1 112-112 112H112C50.1 512 0 461.9 0 400c0-30.5 12.2-58.2 32-78.4V256 192 64 32zm80 320c-26.5 0-48 21.5-48 48s21.5 48 48 48H368c26.5 0 48-21.5 48-48s-21.5-48-48-48H112zM172.2 96H96v96H220.2l-48-96zM120 376a24 24 0 1 1 0 48 24 24 0 1 1 0-48zm216 24a24 24 0 1 1 48 0 24 24 0 1 1 -48 0zm-56-24a24 24 0 1 1 0 48 24 24 0 1 1 0-48zM176 400a24 24 0 1 1 48 0 24 24 0 1 1 -48 0z"/></svg>