<svg xmlns="http://www.w3.org/2000/svg" viewBox="0 0 640 512"><!--! Font Awesome Pro 6.5.1 by @fontawesome - https://fontawesome.com License - https://fontawesome.com/license (Commercial License) Copyright 2023 Fonticons, Inc. --><path d="M32 32L0 160H114.9L140.5 32H32zM272 160V32H173.1L147.5 160H272zm32 0h56.5c19.7-21.2 40.4-38.5 57.8-50.8L402.9 32H304V160zm260.5-24.7c2.3 1.9 4.6 3.8 6.8 5.8L544 32H435.5l11.7 58.6 5.4-3.4L512 146.6l30-30 22.5 18.7zM288 319.8c0-49.2 20.9-93.1 46.1-127.8H32l4 32H0v64H44L64 448l0 32h64V448H337c-30.5-34-49-78.9-49-128.2zM448 128c-42.7 26.7-128 102.4-128 192c0 88.4 71.6 160 160 160s160-71.6 160-160c0-26.7-19.2-96-96-160l-32 32-64-64zm96 240.2c0 35.3-28.7 64-64 64s-64-28.7-64-64c0-48 64-96 64-96s64 48 64 96z"/></svg>