<svg xmlns="http://www.w3.org/2000/svg" viewBox="0 0 640 512"><!--! Font Awesome Pro 6.5.1 by @fontawesome - https://fontawesome.com License - https://fontawesome.com/license (Commercial License) Copyright 2023 Fonticons, Inc. --><path d="M96 0h32H256h16.6l9.6 13.5 96 136 5.9 8.3V160v8 56 96H0V160H96V32 0zM239.4 64H160v96H307.2L239.4 64zM80 416c-8.8 0-16 7.2-16 16s7.2 16 16 16H336c8.8 0 16-7.2 16-16s-7.2-16-16-16H80zM0 432c0-44.2 35.8-80 80-80H336c44.2 0 80 35.8 80 80s-35.8 80-80 80H80c-44.2 0-80-35.8-80-80zM640 320v64 48c0 44.2-35.8 80-80 80H448V464L576 336V128L416 288V160L576 0h64V320z"/></svg>