<svg xmlns="http://www.w3.org/2000/svg" viewBox="0 0 512 512"><!--! Font Awesome Pro 6.5.1 by @fontawesome - https://fontawesome.com License - https://fontawesome.com/license (Commercial License) Copyright 2023 Fonticons, Inc. --><path d="M0 0H224V160H384V304H80V512H0V0zM384 128H256V0L384 128zM256 368V496v16H224V496 421.8l-17.9 33.7-13.9 26.2-14.3-26L160 423v73 16H128V496 368 352l16 0 4 0 9.5 0 4.6 8.3 29.7 54 28.5-53.8 4.5-8.5 9.6 0 5.6 0 16 0v16zm48-16h32c30.9 0 56 25.1 56 56s-25.1 56-56 56H320v32 16H288V496 448 368 352h16zm32 80c13.3 0 24-10.7 24-24s-10.7-24-24-24H320v48h16zm80 16V432 368 352h32v16 48h32V368 352h32v16 64 64 16H480V496 448H432 416z"/></svg>