<svg xmlns="http://www.w3.org/2000/svg" viewBox="0 0 512 512"><!--! Font Awesome Pro 6.5.1 by @fontawesome - https://fontawesome.com License - https://fontawesome.com/license (Commercial License) Copyright 2023 Fonticons, Inc. --><path d="M0 0H224V160H384V304H112V512H0V0zM384 128H256V0L384 128zm32 224v16V496v16H384V496 421.8l-17.9 33.7-13.9 26.2-14.3-26L320 423v73 16H288V496 368 352l16 0 4 0 9.5 0 4.6 8.3 29.7 54 28.5-53.8 4.5-8.5 9.6 0 5.6 0 16 0zm-224 0v16c0 7.3 2.2 14.4 6.2 20.4l9.8 14.7 9.8-14.7c4-6.1 6.2-13.2 6.2-20.4V352h32v16c0 13.6-4 26.9-11.6 38.2L227.2 432l17.2 25.8C252 469.1 256 482.4 256 496v16H224V496c0-7.3-2.2-14.4-6.2-20.4L208 460.8l-9.8 14.7c-4 6.1-6.2 13.2-6.2 20.4v16H160V496c0-13.6 4-26.9 11.6-38.2L188.8 432l-17.2-25.8C164 394.9 160 381.6 160 368V352h32zM448 512V496 368 352h32v16V480h16 16v32H496 464 448z"/></svg>