<svg xmlns="http://www.w3.org/2000/svg" viewBox="0 0 512 512"><!--! Font Awesome Pro 6.5.1 by @fontawesome - https://fontawesome.com License - https://fontawesome.com/license (Commercial License) Copyright 2023 Fonticons, Inc. --><path d="M0 0H224V160H384V304H112V512H0V0zM384 128H256V0L384 128zM208 512c-26.5 0-48-21.5-48-48V448 432h32v16 16c0 8.8 7.2 16 16 16s16-7.2 16-16V368 352h32v16 96c0 26.5-21.5 48-48 48zM456 352h16c22.1 0 40 17.9 40 40v16H480V392c0-4.4-3.6-8-8-8H456c-4.4 0-8 3.6-8 8v80c0 4.4 3.6 8 8 8h16c4.4 0 8-3.6 8-8v-8H464V432h16 16 16v16 24c0 22.1-17.9 40-40 40H456c-22.1 0-40-17.9-40-40V392c0-22.1 17.9-40 40-40zm-168 0h16 32c30.9 0 56 25.1 56 56s-25.1 56-56 56H320v32 16H288V496 448 368 352zm32 80h16c13.3 0 24-10.7 24-24s-10.7-24-24-24H320v48z"/></svg>