<svg xmlns="http://www.w3.org/2000/svg" viewBox="0 0 512 512"><!--! Font Awesome Pro 6.5.1 by @fontawesome - https://fontawesome.com License - https://fontawesome.com/license (Commercial License) Copyright 2023 Fonticons, Inc. --><path d="M0 0H224V160H384V304H112V512H0V0zM384 128H256V0L384 128zM288 352h16 32c30.9 0 56 25.1 56 56s-25.1 56-56 56H320v32 16H288V496 448 368 352zm32 80h16c13.3 0 24-10.7 24-24s-10.7-24-24-24H320v48zM160 352h16 32c30.9 0 56 25.1 56 56s-25.1 56-56 56H192v32 16H160V496 448 368 352zm32 80h16c13.3 0 24-10.7 24-24s-10.7-24-24-24H192v48zm224-80h16 32 32 16v32H496 480V496v16H448V496 384H432 416V352z"/></svg>