<svg xmlns="http://www.w3.org/2000/svg" viewBox="0 0 640 512"><!--! Font Awesome Pro 6.5.1 by @fontawesome - https://fontawesome.com License - https://fontawesome.com/license (Commercial License) Copyright 2023 Fonticons, Inc. --><path d="M0 0V96H640V0H0zM608 128H32V512H160V352c0-88.4 71.6-160 160-160s160 71.6 160 160V512H608V128zM297.5 265.6c-29.9 18.7-89.6 71.7-89.6 134.4c0 61.9 50.1 112 112 112s112-50.1 112-112c0-18.7-13.4-67.2-67.2-112l-22.4 22.4-44.8-44.8zm67.2 168.1c0 24.7-20.1 44.8-44.8 44.8s-44.8-20.1-44.8-44.8c0-33.6 44.8-67.2 44.8-67.2s44.8 33.6 44.8 67.2z"/></svg>