<svg xmlns="http://www.w3.org/2000/svg" viewBox="0 0 640 512"><!--! Font Awesome Pro 6.5.1 by @fontawesome - https://fontawesome.com License - https://fontawesome.com/license (Commercial License) Copyright 2023 Fonticons, Inc. --><path d="M559.4 411.5C569.8 397 576 379.2 576 360V224 192 168 128L464 16 432 48l48 48V224h48V360c0 8.1-2.4 15.7-6.6 22L384 275.4V0H96V51.8l-47.6-37L29.4 .1 0 38 19 52.7 591.5 497.2l19 14.7L639.9 474l-19-14.7-61.6-47.8zM96 171.6V416H384V398.5L96 171.6zM64 448v64H416V480 448H64z"/></svg>