<svg xmlns="http://www.w3.org/2000/svg" viewBox="0 0 384 512"><!--! Font Awesome Pro 6.5.1 by @fontawesome - https://fontawesome.com License - https://fontawesome.com/license (Commercial License) Copyright 2023 Fonticons, Inc. --><path d="M96 304c20.1 10.1 43.9 10.1 64 0s43.9-10.1 64 0s43.9 10.1 64 0l8.4-4.2L314.8 64H69.2L87.6 299.8 96 304zM344 512H40L5 64 0 0H64.2 319.8 384l-5 64L344 512zM192 96l47.9 53.9c10.4 11.7 16.1 26.7 16.1 42.4c0 35.2-28.8 63.8-64 63.8s-64-28.5-64-63.8c0-15.6 5.7-30.7 16.1-42.4L192 96z"/></svg>