<svg xmlns="http://www.w3.org/2000/svg" viewBox="0 0 576 512"><!--! Font Awesome Pro 6.5.1 by @fontawesome - https://fontawesome.com License - https://fontawesome.com/license (Commercial License) Copyright 2023 Fonticons, Inc. --><path d="M32 0H0V64H32v64 13.3l9.4 9.4L146.7 256 41.4 361.4 32 370.7V384v64H0v64H32 330.8c-23.3-16.4-42.5-38.4-55.6-64H96V397.3l96-96 64 64c.4-26.2 6.5-51.1 17.2-73.3l-36-36L342.6 150.6l9.4-9.4V128 64h32V0H352 32zM288 64v50.7l-96 96-96-96V64H288zM576 368a144 144 0 1 0 -288 0 144 144 0 1 0 288 0zM448 288v16 48h32 16v32H480 432 416V368 304 288h32z"/></svg>