<svg xmlns="http://www.w3.org/2000/svg" viewBox="0 0 640 512"><!--! Font Awesome Pro 6.5.1 by @fontawesome - https://fontawesome.com License - https://fontawesome.com/license (Commercial License) Copyright 2023 Fonticons, Inc. --><path d="M440.4 126.8L288.4 0 0 240v47.6H64.1V512H224V352h64l0-.2c0-54.9 26-103.1 55-139.5c29.2-36.6 64-64.6 88.1-79.6l9.4-5.9zM320 352c0 88.4 71.6 160 160 160s160-71.6 160-160c0-26.7-19.2-96-96-160l-32 32-64-64c-42.7 26.7-128 102.4-128 192zM480 464.2c-35.3 0-64-28.7-64-64c0-48 64-96 64-96s64 48 64 96c0 35.3-28.7 64-64 64z"/></svg>