<svg xmlns="http://www.w3.org/2000/svg" viewBox="0 0 640 512"><!--! Font Awesome Pro 6.5.1 by @fontawesome - https://fontawesome.com License - https://fontawesome.com/license (Commercial License) Copyright 2023 Fonticons, Inc. --><path d="M192 64l32-16L320 0l96 48 32 16v48H424h-8v7.6V160h32v64H427.6l40.7 224H480h32v64H480 352V448c0-17.7-14.3-32-32-32s-32 14.3-32 32v64H160 128V448h32 11.6l40.7-224H192V160h32V119.6 112h-8H192V64zm160 48V87.6l-32-16-32 16V112v48h64V112zM145.5 49.9l22.1 9.5-18.9 44.1-22.1-9.5-112-48L33.5 1.9l112 48zm0 156.1l-112 48L14.6 209.9l112-48 22.1-9.5 18.9 44.1-22.1 9.5zM606.6 1.9l18.9 44.1-112 48-22.1 9.5L472.5 59.4l22.1-9.5 112-48zM472.5 196.6l18.9-44.1 22.1 9.5 112 48-18.9 44.1-112-48-22.1-9.5z"/></svg>