<svg xmlns="http://www.w3.org/2000/svg" viewBox="0 0 512 512"><!--! Font Awesome Pro 6.5.1 by @fontawesome - https://fontawesome.com License - https://fontawesome.com/license (Commercial License) Copyright 2023 Fonticons, Inc. --><path d="M413.6 240c-5.2 33.6-18.4 64.5-37.6 90.7L486.6 441.4 509.3 464 464 509.3l-22.6-22.6L330.7 376c-34.4 25.2-76.8 40-122.7 40c-53.4 0-102-20.1-138.9-53.1L24 408 0 384V240H144l24 24-53.5 53.5C139.6 339 172.3 352 208 352c68.5 0 125.9-47.9 140.4-112h65.1zM346.9 53.1L392 8l24 24V176H272l-24-24 53.5-53.5C276.4 77 243.7 64 208 64C139.5 64 82.1 111.9 67.6 176H2.4C17.8 76.3 104 0 208 0c53.4 0 102 20.1 138.9 53.1z"/></svg>