<svg xmlns="http://www.w3.org/2000/svg" viewBox="0 0 512 512"><!--! Font Awesome Pro 6.5.1 by @fontawesome - https://fontawesome.com License - https://fontawesome.com/license (Commercial License) Copyright 2023 Fonticons, Inc. --><path d="M416 208c0 45.9-14.9 88.3-40 122.7L486.6 441.4 509.3 464 464 509.3l-22.6-22.6L330.7 376c-34.4 25.2-76.8 40-122.7 40C93.1 416 0 322.9 0 208S93.1 0 208 0S416 93.1 416 208zM288 86.7L256.4 97.2l-48 16L192 118.7V136v32 57.5c-5.1-1-10.5-1.5-16-1.5c-35.3 0-64 21.5-64 48s28.7 48 64 48s64-21.5 64-48V185.3l31.6-10.5 16.4-5.5V152 120 86.7z"/></svg>