<svg xmlns="http://www.w3.org/2000/svg" viewBox="0 0 512 512"><!--! Font Awesome Pro 6.5.1 by @fontawesome - https://fontawesome.com License - https://fontawesome.com/license (Commercial License) Copyright 2023 Fonticons, Inc. --><path d="M368 0H496V128l-32 32-47-47-25.6 25.6C407 163.3 416 192.6 416 224c0 80.2-59 146.6-136 158.2V384v24h24 24v48H304 280v32 24H232V488 456H208 184V408h24 24V384v-1.8C155 370.6 96 304.2 96 224c0-88.4 71.6-160 160-160c39.6 0 75.9 14.4 103.8 38.2L383 79 336 32 368 0zM352 224a96 96 0 1 0 -192 0 96 96 0 1 0 192 0z"/></svg>