<svg xmlns="http://www.w3.org/2000/svg" viewBox="0 0 512 512"><!--! Font Awesome Pro 6.5.1 by @fontawesome - https://fontawesome.com License - https://fontawesome.com/license (Commercial License) Copyright 2023 Fonticons, Inc. --><path d="M64 64H288V331c18.2-22.6 39.8-42.3 64-58.5V64 0H288 64 0V64 448v64H64 224c0-22 2.5-43.4 7.1-64H64V64zm80 320H128v32h16 64 16V384H208 144zm368-80V256c-141.4 0-256 114.6-256 256h48c0-114.9 93.1-208 208-208zM480 512a32 32 0 1 0 0-64 32 32 0 1 0 0 64zm-80 0c0-61.9 50.1-112 112-112V352c-88.4 0-160 71.6-160 160h48z"/></svg>