<svg xmlns="http://www.w3.org/2000/svg" viewBox="0 0 640 512"><!--! Font Awesome Pro 6.5.1 by @fontawesome - https://fontawesome.com License - https://fontawesome.com/license (Commercial License) Copyright 2023 Fonticons, Inc. --><path d="M0 32H448v90.1l-17 10.6c-13.3 8.3-29.9 20.6-47 36.1V96H64V224H334.1c-15.2 21-28.8 45.2-37.2 72H264v48h24.2c-.1 2.6-.2 5.2-.2 7.8c0 49.2 18.5 94.2 49 128.2H0V32zM168 296v48h48V296H168zm-96 0v48h48V296H72zM448 160l64 64 32-32c76.8 64 96 133.3 96 160c0 88.4-71.6 160-160 160s-160-71.6-160-160c0-89.6 85.3-165.3 128-192zm96 240.2c0-48-64-96-64-96s-64 48-64 96c0 35.3 28.7 64 64 64s64-28.7 64-64z"/></svg>