<svg xmlns="http://www.w3.org/2000/svg" viewBox="0 0 640 512"><!--! Font Awesome Pro 6.5.1 by @fontawesome - https://fontawesome.com License - https://fontawesome.com/license (Commercial License) Copyright 2023 Fonticons, Inc. --><path d="M320 0a64 64 0 1 1 0 128A64 64 0 1 1 320 0zM448 384H384V512H256V384H192l64-224H384l64 224zM34.9 32c78.3 0 149.3 31.6 200.8 82.7L149.6 416H224v31.3C191.7 468 153.2 480 112 480H96 64V448c0-45.7 14.7-88 39.7-122.3C40.6 275.9 0 198.7 0 112V64 32H32h2.9zM528 480c-41.2 0-79.7-12-112-32.7V416h74.4L404.3 114.7C455.9 63.6 526.8 32 605.1 32H608h32V64v48c0 86.7-40.6 163.9-103.7 213.7C561.3 360 576 402.3 576 448v32H544 528z"/></svg>