<svg xmlns="http://www.w3.org/2000/svg" viewBox="0 0 640 512"><!--! Font Awesome Pro 6.5.1 by @fontawesome - https://fontawesome.com License - https://fontawesome.com/license (Commercial License) Copyright 2023 Fonticons, Inc. --><path d="M320 0a64 64 0 1 1 0 128A64 64 0 1 1 320 0zM424 352H384V512H256V352H216l8-192H416l8 192zM34.9 32c84.9 0 161.1 37.1 213.4 96H193.3L182.6 384H224v63.3C191.7 468 153.2 480 112 480H96 64V448c0-45.7 14.7-88 39.7-122.3C40.6 275.9 0 198.7 0 112V64 32H32h2.9zm411.8 96h-55C444 69.1 520.2 32 605.1 32H608h32V64v48c0 86.7-40.6 163.9-103.7 213.7C561.3 360 576 402.3 576 448v32H544 528c-41.2 0-79.7-12-112-32.7V384h41.4L446.7 128z"/></svg>