<svg xmlns="http://www.w3.org/2000/svg" viewBox="0 0 512 512"><!--! Font Awesome Pro 6.5.1 by @fontawesome - https://fontawesome.com License - https://fontawesome.com/license (Commercial License) Copyright 2023 Fonticons, Inc. --><path d="M288.4 0L288 .5V0H224h-9.9l-4.4 8.8-16 32-3 5.9 2.1 6.3 15.3 45.8-28.5 35.1-3.6 4.4V144v40 11.9l11.4 3.4 77.7 23.3 46 30.7 4 2.7H320h32 4.8l4-2.7 46-30.7 77.7-23.3 11.4-3.4V184 144v-5.7l-3.6-4.4L463.9 98.8l15.3-45.8 2.1-6.3-3-5.9-16-32L457.9 0H448 384V.5l-.4-.5H376 296h-7.6zm19 32h57.2c1.3 0 2.6 .1 3.9 .2l49.2 60.5-31.5-7.3c-20.2-4.7-39.7 4.2-50.2 19.9c-10.5-15.7-30.1-24.6-50.2-19.9l-31.5 7.3 49.2-60.5c1.3-.1 2.6-.2 3.9-.2zm45.4 141.5l38.6 21-.2 .1L360 215.4c-.3-13-10.9-23.4-24-23.4s-23.7 10.4-24 23.4l-31.1-20.8-.2-.1 38.6-21c6.9-3.8 12.6-9.1 16.8-15.3c4.2 6.3 9.9 11.6 16.8 15.3zM288 112a16 16 0 1 1 0 32 16 16 0 1 1 0-32zm80 16a16 16 0 1 1 32 0 16 16 0 1 1 -32 0zM182.4 231.2C130.1 269 96 330.5 96 400v16H64V400c0-16.4 1.7-32.5 4.8-48H0v48c0 61.9 50.1 112 112 112H240h80V496c0-26.5-21.5-48-48-48H240 224V416h16 32c44.2 0 80 35.8 80 80v16h24l.1 0H416h64V495.6c-.2-26.3-21.6-47.6-48-47.6H416l0 0V376l-6.4 4.8-12.8 9.6-19.2-25.6 12.8-9.6L448 312v-9.3c0-19.7-7.2-38.5-20.1-53l-7.3 2.2-42 28L366.5 288H352 320 305.5l-12.1-8.1-42-28-68.9-20.7zM0 128H128V32H0v96zm0 32v64H128V160H0zM0 320H77.7c8.2-23.2 19.8-44.7 34.3-64H0v64zm480-24l-.2-.6 0 .8 .2-.2zM326 362.5L309.5 390l-13.7-8.2-80-48L202 325.5 218.5 298l13.7 8.2 80 48 13.7 8.2z"/></svg>