<svg xmlns="http://www.w3.org/2000/svg" viewBox="0 0 640 512"><!--! Font Awesome Pro 6.5.1 by @fontawesome - https://fontawesome.com License - https://fontawesome.com/license (Commercial License) Copyright 2023 Fonticons, Inc. --><path d="M448 32H0V480H336.8C306.5 446.1 288 401.3 288 352.2c0-56.8 36.1-108.8 71.8-150.1c26.7-30.8 56.6-57.5 88.2-83.1V32zM112 120V264v24H64V264 120 96h48v24zm96 0V264v24H160V264 120 96h48v24zm240 40c-42.7 26.7-128 102.4-128 192c0 88.4 71.6 160 160 160s160-71.6 160-160c0-26.7-19.2-96-96-160l-32 32-64-64zm96 240.2c0 35.3-28.7 64-64 64s-64-28.7-64-64c0-48 64-96 64-96s64 48 64 96z"/></svg>