<svg xmlns="http://www.w3.org/2000/svg" viewBox="0 0 640 512"><!--! Font Awesome Pro 6.5.1 by @fontawesome - https://fontawesome.com License - https://fontawesome.com/license (Commercial License) Copyright 2023 Fonticons, Inc. --><path d="M126.2 75.2L48.4 14.8 29.4 .1 0 38 19 52.7 591.5 497.2l19 14.7L639.9 474l-19-14.7L496.8 363c9.8-16.1 18.2-32.5 25.3-49c32.4-74.7 40.2-151 37.3-200.9l-1.2-20.5L539.1 85 331.6 4.5 320 0 308.4 4.5 126.2 75.2zM435.5 439.1L80.9 159.7c2.9 45.2 13.5 100.1 37 154.2c32.7 75.3 91 150 189.4 192.6L320 512l12.7-5.5c40.8-17.7 74.8-40.9 102.8-67.3z"/></svg>