<svg xmlns="http://www.w3.org/2000/svg" viewBox="0 0 640 512"><!--! Font Awesome Pro 6.5.1 by @fontawesome - https://fontawesome.com License - https://fontawesome.com/license (Commercial License) Copyright 2023 Fonticons, Inc. --><path d="M64 0l0 32H0V416H384c-20.1-26.7-32-60-32-96c0-47.8 21-90.7 54.2-120l9.1-8h12.1H448h32v32 64l32 24 32-24V224 192l32 0h0V32H512l0-32H448l0 32H128l0-32H64zm0 448l0 64h64l0-64H64zM427.3 224c-26.6 23.5-43.3 57.8-43.3 96c0 40.4 18.7 76.5 48 99.9V512H592V419.9c29.3-23.5 48-59.5 48-99.9c0-38.2-16.8-72.5-43.3-96L576 224v80l-64 48-64-48V224H427.3z"/></svg>