<svg xmlns="http://www.w3.org/2000/svg" viewBox="0 0 640 512"><!--! Font Awesome Pro 6.5.1 by @fontawesome - https://fontawesome.com License - https://fontawesome.com/license (Commercial License) Copyright 2023 Fonticons, Inc. --><path d="M528 512h16v0H96V384 252.6c3.9 1 7.9 1.7 12 2.3l.1 0c5.3 .7 10.7 1.1 16.3 1.1c12.5 0 24.4-1.9 35.6-5.4V384H365.5L528 512zm16-112.4l76.9 59.7 19 14.7-29.4 37.9-19-14.7L19 52.7 0 38 29.4 .1l19 14.7L94.8 50.9 128 0H512l67.6 103.8c29.7 46.9 3.4 112-52.1 119.4c-4 .5-7.9 .8-12.1 .8c-26.1 0-49.2-11.4-65.2-29c-15.9 17.6-39 29-65.2 29c-26.1 0-49.3-11.4-65.2-29c-5.5 6.1-11.9 11.4-19 15.8L480 349.9V250.7c11.2 3.5 23.1 5.3 35.4 5.3c5.6 0 10.9-.4 16.2-1.1l.1 0c4.2-.6 8.3-1.3 12.3-2.3V384v15.6zM48.9 134.5l106.4 83.9c-9.6 3.6-20 5.6-31 5.6c-4.1 0-8.2-.3-12.1-.8c-43.9-5.9-69.4-48.1-63.3-88.7z"/></svg>