<svg xmlns="http://www.w3.org/2000/svg" viewBox="0 0 640 512"><!--! Font Awesome Pro 6.5.1 by @fontawesome - https://fontawesome.com License - https://fontawesome.com/license (Commercial License) Copyright 2023 Fonticons, Inc. --><path d="M29.4 .1l19 14.7L70.5 32H608V449.3l12.9 10 19 14.7-29.4 37.9-19-14.7L19 52.7 0 38 29.4 .1zM384 275.4L400.3 288H408h80 24V240H488 408 384v35.4zm128 99.4V336H488 462.1L512 374.7zM32 121.2L182.8 240H152 128v48h24 91.7l60.9 48H288v48h24 53.5l121.8 96H32V121.2zM128 336v48h24 80 24V336H232 152 128z"/></svg>