<svg xmlns="http://www.w3.org/2000/svg" viewBox="0 0 640 512"><!--! Font Awesome Pro 6.5.1 by @fontawesome - https://fontawesome.com License - https://fontawesome.com/license (Commercial License) Copyright 2023 Fonticons, Inc. --><path d="M128 2.7l22.6 22.6 80 80L253.3 128 208 173.3l-22.6-22.6L160 125.3V416H288V64 32h32l192 0 32 0V64 386.7l25.4-25.4L592 338.7 637.3 384l-22.6 22.6-80 80L512 509.3l-22.6-22.6-80-80L386.7 384 432 338.7l22.6 22.6L480 386.7 480 96 352 96V448v32H320 128 96V448 125.3L70.6 150.6 48 173.3 2.7 128l22.6-22.6 80-80L128 2.7z"/></svg>