<svg xmlns="http://www.w3.org/2000/svg" viewBox="0 0 640 512"><!--! Font Awesome Pro 6.5.1 by @fontawesome - https://fontawesome.com License - https://fontawesome.com/license (Commercial License) Copyright 2023 Fonticons, Inc. --><path d="M112 288H80L48 192H32l-6.3 9.4C9 226.6 0 256.1 0 286.4C0 358 58 416 129.6 416H184l72 96H384V496c0-26.5-21.5-48-48-48l-18.6-49.6 41.9-37.7L368 352V320c0-35.3-28.7-64-64-64H288 272V224h16 16c34.8 0 65.3 18.5 82.1 46.3L432 300.8V320v24h48V320 288 275.2L469.3 268l-44.4-29.6L464 208H576l21.3-32H552h-3.3l-2.3-2.3L516.7 144H488h-8V128h8 32 3.3l2.3 2.3L555.3 160H608h24 8V112c0-44.2-35.8-80-80-80H544L528 0H440.3 440l0 0c-33.5 .1-63.2 21.6-73.8 53.4L352 96l-32 32H279c-70.7 0-132.9 46.3-153.3 114L112 288zM480 56a16 16 0 1 1 32 0 16 16 0 1 1 -32 0z"/></svg>