<svg xmlns="http://www.w3.org/2000/svg" viewBox="0 0 640 512"><!--! Font Awesome Pro 6.5.1 by @fontawesome - https://fontawesome.com License - https://fontawesome.com/license (Commercial License) Copyright 2023 Fonticons, Inc. --><path d="M512 374.7l108.9 84.6 19 14.7-29.4 37.9-19-14.7L19 52.7 0 38 29.4 .1l19 14.7L96 51.8V32H224L240 0H400l16 32H544V96H153l41.2 32H512V374.7zM304 213.2l32 24.8V208 192H304v16 5.2zm96 74.5l32 24.8V208 192H400v16 79.8zM512 499.4V512H128V196.8l80 63V432v16h32V432 285.1l64 50.4V432v16h32V432 360.7l64 50.4V432v16h32V436.4l80 63z"/></svg>