<svg xmlns="http://www.w3.org/2000/svg" viewBox="0 0 640 512"><!--! Font Awesome Pro 6.5.1 by @fontawesome - https://fontawesome.com License - https://fontawesome.com/license (Commercial License) Copyright 2023 Fonticons, Inc. --><path d="M0 0V48H32v96H0v48H352V144H320V48h32V0H0zM272 144H240V48h32v96zM160 48h32v96H160V48zm-48 96H80V48h32v96zM416 96H384v32 96H0V416H64c0 53 43 96 96 96s96-43 96-96H384c0 53 43 96 96 96s96-43 96-96h64V288 256 224 210.7l-9.4-9.4-96-96L525.3 96H512 416zM576 256H448V224 160h50.7L576 237.3V256zM112 416a48 48 0 1 1 96 0 48 48 0 1 1 -96 0zm368-48a48 48 0 1 1 0 96 48 48 0 1 1 0-96z"/></svg>