<svg xmlns="http://www.w3.org/2000/svg" viewBox="0 0 640 512"><!--! Font Awesome Pro 6.5.1 by @fontawesome - https://fontawesome.com License - https://fontawesome.com/license (Commercial License) Copyright 2023 Fonticons, Inc. --><path d="M416 0H0V416H64c0 53 43 96 96 96s96-43 96-96H384c0 53 43 96 96 96s96-43 96-96h32 32V352H608V288 256 224 210.7l-9.4-9.4-96-96L493.3 96H480 416V0zM544 240v16H416V160h48 2.7L544 237.3V240zM160 368a48 48 0 1 1 0 96 48 48 0 1 1 0-96zm272 48a48 48 0 1 1 96 0 48 48 0 1 1 -96 0zM81.2 151.7L96 64h16l5.3 94.9H128L136 64h16l8 94.9h10.7L176 64h16l14.8 87.7c.8 4.8 1.2 9.6 1.2 14.5c0 27.9-21 50.9-48 54.2V304v16H128V304 220.4c-27-3.2-48-26.3-48-54.2c0-4.9 .4-9.7 1.2-14.5zM320 112v16 96 80 16H288V304 224H256v-69C256 84.2 308 64 308 64h12v48z"/></svg>