<svg xmlns="http://www.w3.org/2000/svg" viewBox="0 0 640 512"><!--! Font Awesome Pro 6.5.1 by @fontawesome - https://fontawesome.com License - https://fontawesome.com/license (Commercial License) Copyright 2023 Fonticons, Inc. --><path d="M0 0V48H32V96H0V224H384V96 80 48H640V0H0zM0 256V416H64c0 53 43 96 96 96s96-43 96-96H384c0 53 43 96 96 96s96-43 96-96h64V256 128 96H608 560c0-17.7-14.3-32-32-32s-32 14.3-32 32H448 416V240v16H400 0zM280 48h56V96H280V48zM232 96H184V48h48V96zM80 48h56V96H80V48zM576 160v96H480V160h96zM160 368a48 48 0 1 1 0 96 48 48 0 1 1 0-96zm272 48a48 48 0 1 1 96 0 48 48 0 1 1 -96 0z"/></svg>