<svg xmlns="http://www.w3.org/2000/svg" viewBox="0 0 640 512"><!--! Font Awesome Pro 6.5.1 by @fontawesome - https://fontawesome.com License - https://fontawesome.com/license (Commercial License) Copyright 2023 Fonticons, Inc. --><path d="M384 275.4V176C384 32 512 0 544 0V208v32V352v47.6l76.9 59.7 19 14.7-29.4 37.9-19-14.7L19 52.7 0 38 29.4 .1l19 14.7 66.4 51.5L128 0h32V101.4l20.3 15.7L192 0h32l16 160h16V0h32l32 160c0 19.7-5.9 38-16.1 53.2L384 275.4zm-144 9.7V480v32H176V480 254.7c-41.4-7-73.9-40.5-79.2-82.4L240 285.1z"/></svg>