<svg xmlns="http://www.w3.org/2000/svg" viewBox="0 0 512 512"><!--! Font Awesome Pro 6.5.1 by @fontawesome - https://fontawesome.com License - https://fontawesome.com/license (Commercial License) Copyright 2023 Fonticons, Inc. --><defs><style>.fa-secondary{opacity:.4}</style></defs><path class="fa-secondary" d="M246.6 150.6c-12.5 12.5-32.8 12.5-45.3 0s-12.5-32.8 0-45.3l96-96c12.5-12.5 32.8-12.5 45.3 0l96 96c12.5 12.5 12.5 32.8 0 45.3s-32.8 12.5-45.3 0L352 109.3V384c0-47.4-25.7-88.7-64-110.9V109.3l-41.4 41.4z"/><path class="fa-primary" d="M9.4 310.6c-12.5-12.5-12.5-32.8 0-45.3l96-96c12.5-12.5 32.8-12.5 45.3 0s12.5 32.8 0 45.3L109.3 256 224 256c70.7 0 128 57.3 128 128c0 35.3 28.7 64 64 64l64 0c17.7 0 32 14.3 32 32s-14.3 32-32 32l-64 0c-70.7 0-128-57.3-128-128c0-35.3-28.7-64-64-64l-114.7 0 41.4 41.4c12.5 12.5 12.5 32.8 0 45.3s-32.8 12.5-45.3 0l-96-96z"/></svg>