<svg xmlns="http://www.w3.org/2000/svg" viewBox="0 0 384 512"><!--! Font Awesome Pro 6.5.1 by @fontawesome - https://fontawesome.com License - https://fontawesome.com/license (Commercial License) Copyright 2023 Fonticons, Inc. --><defs><style>.fa-secondary{opacity:.4}</style></defs><path class="fa-secondary" d="M224 112l0 306.7c0 17.7 14.3 32 32 32h96c17.7 0 32 14.3 32 32s-14.3 32-32 32H256c-53 0-96-43-96-96V112l32-32 32 32z"/><path class="fa-primary" d="M342.6 182.6c12.5-12.5 12.5-32.8 0-45.3l-128-128c-12.5-12.5-32.8-12.5-45.3 0l-128 128c-12.5 12.5-12.5 32.8 0 45.3s32.8 12.5 45.3 0L192 77.3 297.4 182.6c12.5 12.5 32.8 12.5 45.3 0z"/></svg>