<svg xmlns="http://www.w3.org/2000/svg" viewBox="0 0 512 512"><!--! Font Awesome Pro 6.5.1 by @fontawesome - https://fontawesome.com License - https://fontawesome.com/license (Commercial License) Copyright 2023 Fonticons, Inc. --><defs><style>.fa-secondary{opacity:.4}</style></defs><path class="fa-secondary" d="M402.7 256H96c-17.7 0-32 14.3-32 32V448c0 17.7-14.3 32-32 32s-32-14.3-32-32V288c0-53 43-96 96-96H402.7l32 32-32 32z"/><path class="fa-primary" d="M329.4 374.6c12.5 12.5 32.8 12.5 45.3 0l128-128c12.5-12.5 12.5-32.8 0-45.3l-128-128c-12.5-12.5-32.8-12.5-45.3 0s-12.5 32.8 0 45.3L434.7 224 329.4 329.4c-12.5 12.5-12.5 32.8 0 45.3z"/></svg>