<svg xmlns="http://www.w3.org/2000/svg" viewBox="0 0 448 512"><!--! Font Awesome Pro 6.5.1 by @fontawesome - https://fontawesome.com License - https://fontawesome.com/license (Commercial License) Copyright 2023 Fonticons, Inc. --><defs><style>.fa-secondary{opacity:.4}</style></defs><path class="fa-secondary" d="M48 160c-26.5 0-48 21.5-48 48V416c0 53 43 96 96 96H352c53 0 96-43 96-96V208c0-26.5-21.5-48-48-48H48zm96 152H304c13.3 0 24 10.7 24 24s-10.7 24-24 24H144c-13.3 0-24-10.7-24-24s10.7-24 24-24z"/><path class="fa-primary" d="M160 112c0-35.3 28.7-64 64-64s64 28.7 64 64v48h48V112C336 50.1 285.9 0 224 0S112 50.1 112 112v48h48V112zM144 312c-13.3 0-24 10.7-24 24s10.7 24 24 24H304c13.3 0 24-10.7 24-24s-10.7-24-24-24H144z"/></svg>