<svg xmlns="http://www.w3.org/2000/svg" viewBox="0 0 448 512"><!--! Font Awesome Pro 6.5.1 by @fontawesome - https://fontawesome.com License - https://fontawesome.com/license (Commercial License) Copyright 2023 Fonticons, Inc. --><defs><style>.fa-secondary{opacity:.4}</style></defs><path class="fa-secondary" d="M0 208c0-26.5 21.5-48 48-48H400c26.5 0 48 21.5 48 48V416c0 53-43 96-96 96H96c-53 0-96-43-96-96V208zM120 336c0 13.3 10.7 24 24 24h56v56c0 13.3 10.7 24 24 24s24-10.7 24-24V360h56c13.3 0 24-10.7 24-24s-10.7-24-24-24H248V256c0-13.3-10.7-24-24-24s-24 10.7-24 24v56H144c-13.3 0-24 10.7-24 24z"/><path class="fa-primary" d="M224 48c-35.3 0-64 28.7-64 64v48H112V112C112 50.1 162.1 0 224 0s112 50.1 112 112v48H288V112c0-35.3-28.7-64-64-64zM120 336c0-13.3 10.7-24 24-24h56V256c0-13.3 10.7-24 24-24s24 10.7 24 24v56h56c13.3 0 24 10.7 24 24s-10.7 24-24 24H248v56c0 13.3-10.7 24-24 24s-24-10.7-24-24V360H144c-13.3 0-24-10.7-24-24z"/></svg>