<svg xmlns="http://www.w3.org/2000/svg" viewBox="0 0 512 512"><!--! Font Awesome Pro 6.5.1 by @fontawesome - https://fontawesome.com License - https://fontawesome.com/license (Commercial License) Copyright 2023 Fonticons, Inc. --><defs><style>.fa-secondary{opacity:.4}</style></defs><path class="fa-secondary" d="M256 0c-17.7 0-32 14.3-32 32V51.2C151 66 96 130.6 96 208v18.8c0 47-17.3 92.4-48.5 127.6l-7.4 8.3c-8.4 9.4-10.4 22.9-5.3 34.4S51.4 416 64 416H448c12.6 0 24-7.4 29.2-18.9s3.1-25-5.3-34.4l-7.4-8.3C433.3 319.2 416 273.9 416 226.8V208c0-77.4-55-142-128-156.8V32c0-17.7-14.3-32-32-32z"/><path class="fa-primary" d="M113.4 15.4c9.1 9.6 8.8 24.8-.8 33.9C72.8 87.3 48 140.7 48 200c0 13.3-10.7 24-24 24s-24-10.7-24-24C0 127.1 30.5 61.2 79.4 14.6c9.6-9.1 24.8-8.8 33.9 .8zM320 448c0 17-6.7 33.3-18.7 45.3s-28.3 18.7-45.3 18.7s-33.3-6.7-45.3-18.7s-18.7-28.3-18.7-45.3h64 64zM399.4 49.4c-9.6-9.1-10-24.3-.8-33.9s24.3-10 33.9-.8C481.5 61.2 512 127.1 512 200c0 13.3-10.7 24-24 24s-24-10.7-24-24c0-59.3-24.8-112.7-64.6-150.6z"/></svg>