<svg xmlns="http://www.w3.org/2000/svg" viewBox="0 0 640 512"><!--! Font Awesome Pro 6.5.1 by @fontawesome - https://fontawesome.com License - https://fontawesome.com/license (Commercial License) Copyright 2023 Fonticons, Inc. --><defs><style>.fa-secondary{opacity:.4}</style></defs><path class="fa-secondary" d="M0 320V96C0 43 43 0 96 0H352c53 0 96 43 96 96v32.2c-12.6-1.2-25.5 2.7-35.5 11.7c-35.4 31.6-65.6 67.7-87.3 102.8c-2.7 4.4-5.3 8.8-7.8 13.3H128c-35.3 0-64 28.7-64 64s28.7 64 64 64H291c4 22.8 12.1 44.5 23.4 64H128C57.3 448 0 390.7 0 320zm288 32H128c-17.7 0-32-14.3-32-32s14.3-32 32-32H301.8c-8.5 20.8-13.8 41.9-13.8 62.1c0 .6 0 1.3 0 1.9z"/><path class="fa-primary" d="M640 352c0 88.4-71.6 160-160 160s-160-71.6-160-160c0-76.7 62.5-144.7 107.2-179.4c5-3.9 10.9-5.8 16.8-5.8c7.9-.1 16 3.1 22 9.2l46 46 11.3-11.3c11.7-11.7 30.6-12.7 42.3-1C624.5 268 640 320.2 640 352zM480 464.2c35.3 0 64-28.7 64-64c0-36.5-37-73-54.8-88.4c-5.4-4.7-13.1-4.7-18.5 0C453 327.1 416 363.6 416 400.2c0 35.3 28.7 64 64 64z"/></svg>