<svg xmlns="http://www.w3.org/2000/svg" viewBox="0 0 640 512"><!--! Font Awesome Pro 6.5.1 by @fontawesome - https://fontawesome.com License - https://fontawesome.com/license (Commercial License) Copyright 2023 Fonticons, Inc. --><defs><style>.fa-secondary{opacity:.4}</style></defs><path class="fa-secondary" d="M384 32H128v80H384V32zM96 32C60.7 32 32 60.7 32 96v16H96V32zM32 240H240V144H32v96zm0 32v96H96V272H32zm0 144c0 35.3 28.7 64 64 64H240V400H32v16zm240 64h65.6c-20.2-22.6-35.1-50-43.1-80H272v80zM480 144.6V144h-.6c.2 .2 .4 .4 .6 .6zm-72.1-.6H272v96h54.9c20.6-32.8 48.5-66.2 81-96zM309 272H128v96H288.8c-.5-5.9-.8-11.9-.8-17.9c0-25.4 8.5-52.4 21-78.1zM480 96c0-35.3-28.7-64-64-64v80h64V96z"/><path class="fa-primary" d="M640 352c0 88.4-71.6 160-160 160s-160-71.6-160-160c0-76.7 62.5-144.7 107.2-179.4c5-3.9 10.9-5.8 16.8-5.8c7.9-.1 16 3.1 22 9.2l46 46 11.3-11.3c11.7-11.7 30.6-12.7 42.3-1C624.5 268 640 320.2 640 352zM480 464.2c35.3 0 64-28.7 64-64c0-36.5-37-73-54.8-88.4c-5.4-4.7-13.1-4.7-18.5 0C453 327.1 416 363.6 416 400.2c0 35.3 28.7 64 64 64z"/></svg>