<svg xmlns="http://www.w3.org/2000/svg" viewBox="0 0 603 512"><!--! Font Awesome Pro 6.5.1 by @fontawesome - https://fontawesome.com License - https://fontawesome.com/license (Commercial License) Copyright 2023 Fonticons, Inc. --><defs><style>.fa-secondary{opacity:.4}</style></defs><path class="fa-secondary" d="M.3 45.2C.3 20.2 20.5 0 45.5 0H316.6c24.9 0 45.2 20.2 45.2 45.2V163.1c-25.9 11.3-48.1 29.8-64 52.9c-2.8-3.2-6.8-5.2-11.3-5.2H256.3c-8.3 0-15.1 6.7-15.1 15.1V256c0 8.3 6.7 15.1 15.1 15.1h18.1c-2 9.7-3 19.8-3 30.1c0 61.7 37.1 114.8 90.3 138c-1.3 23.8-21 42.7-45.1 42.7H226.2V406.6c0-24.9-20.2-45.2-45.2-45.2s-45.2 20.2-45.2 45.2v75.3H45.5c-25 0-45.2-20.2-45.2-45.2V45.2zM75.6 210.8c-8.3 0-15.1 6.7-15.1 15.1V256c0 8.3 6.7 15.1 15.1 15.1h30.1c8.3 0 15.1-6.7 15.1-15.1V225.9c0-8.3-6.7-15.1-15.1-15.1H75.6zm75.3 15.1V256c0 8.3 6.7 15.1 15.1 15.1h30.1c8.3 0 15.1-6.7 15.1-15.1V225.9c0-8.3-6.7-15.1-15.1-15.1H166c-8.3 0-15.1 6.7-15.1 15.1zM60.6 105.4v30.1c0 8.3 6.7 15.1 15.1 15.1h30.1c8.3 0 15.1-6.7 15.1-15.1V105.4c0-8.3-6.7-15.1-15.1-15.1H75.6c-8.3 0-15.1 6.7-15.1 15.1zM166 90.4c-8.3 0-15.1 6.7-15.1 15.1v30.1c0 8.3 6.7 15.1 15.1 15.1h30.1c8.3 0 15.1-6.7 15.1-15.1V105.4c0-8.3-6.7-15.1-15.1-15.1H166zm75.3 15.1v30.1c0 8.3 6.7 15.1 15.1 15.1h30.1c8.3 0 15.1-6.7 15.1-15.1V105.4c0-8.3-6.7-15.1-15.1-15.1H256.3c-8.3 0-15.1 6.7-15.1 15.1z"/><path class="fa-primary" d="M497.3 301.3a75.3 75.3 0 1 0 -150.6 0 75.3 75.3 0 1 0 150.6 0zM489.7 401c-19.3 13.1-42.6 20.8-67.7 20.8c-66.5 0-120.5-53.9-120.5-120.5s53.9-120.5 120.5-120.5s120.5 53.9 120.5 120.5c0 25.1-7.7 48.4-20.8 67.7l74.4 74.4c8.8 8.8 8.8 23.1 0 31.9s-23.1 8.8-31.9 0L489.7 401z"/></svg>