<svg xmlns="http://www.w3.org/2000/svg" viewBox="0 0 448 512"><!--! Font Awesome Pro 6.5.1 by @fontawesome - https://fontawesome.com License - https://fontawesome.com/license (Commercial License) Copyright 2023 Fonticons, Inc. --><defs><style>.fa-secondary{opacity:.4}</style></defs><path class="fa-secondary" d="M448 192H0V464c0 26.5 21.5 48 48 48H400c26.5 0 48-21.5 48-48V192zM233.3 250.9l23.6 47.8 52.7 7.7c8.5 1.2 11.9 11.7 5.8 17.7l-38.2 37.2 9 52.5c1.5 8.5-7.5 15-15.1 11L224 400l-47.2 24.8c-7.6 4-16.5-2.5-15.1-11l9-52.5-38.2-37.2c-6.2-6-2.8-16.5 5.8-17.7l52.7-7.7 23.6-47.8c3.8-7.7 14.8-7.7 18.7 0z"/><path class="fa-primary" d="M128 0C110.3 0 96 14.3 96 32V64H48C21.5 64 0 85.5 0 112v80H448V112c0-26.5-21.5-48-48-48H352V32c0-17.7-14.3-32-32-32s-32 14.3-32 32V64H160V32c0-17.7-14.3-32-32-32zM233.3 250.9c-3.8-7.7-14.8-7.7-18.7 0l-23.6 47.8-52.7 7.7c-8.5 1.2-11.9 11.7-5.8 17.7l38.2 37.2-9 52.5c-1.5 8.5 7.5 15 15.1 11L224 400l47.2 24.8c7.6 4 16.5-2.5 15.1-11l-9-52.5 38.2-37.2c6.2-6 2.8-16.5-5.8-17.7l-52.7-7.7-23.6-47.8z"/></svg>