<svg xmlns="http://www.w3.org/2000/svg" viewBox="0 0 512 512"><!--! Font Awesome Pro 6.5.1 by @fontawesome - https://fontawesome.com License - https://fontawesome.com/license (Commercial License) Copyright 2023 Fonticons, Inc. --><defs><style>.fa-secondary{opacity:.4}</style></defs><path class="fa-secondary" d="M402.9 174.5c0 80.3-65.1 145.5-145.5 145.5S112 254.9 112 174.5c0-69.7 56.8-131.5 97.5-163.1c4.6-3.5 9.9-5.2 15.2-5.3c7.2-.1 14.5 2.9 20 8.4l41.8 41.8L296.9 46c10.6-10.6 27.8-11.5 38.5-.9c53.5 53.1 67.6 100.5 67.6 129.5zm-145.5 102c32.1 0 58.2-26 58.2-58.2c0-33.2-33.7-66.4-49.8-80.4c-4.9-4.2-11.9-4.2-16.8 0c-16.1 14-49.8 47.2-49.8 80.4c0 32.1 26 58.2 58.2 58.2z"/><path class="fa-primary" d="M1.9 309.2c5.9-16.6 24.3-25.3 40.9-19.4L256 366l213.2-76.2c16.6-5.9 35 2.7 40.9 19.4s-2.7 35-19.4 40.9L351.1 400l139.6 49.9c16.6 5.9 25.3 24.3 19.4 40.9s-24.3 25.3-40.9 19.4L256 434 42.8 510.1c-16.6 5.9-35-2.7-40.9-19.4s2.7-35 19.4-40.9L160.9 400 21.2 350.1C4.6 344.2-4.1 325.9 1.9 309.2z"/></svg>