<svg xmlns="http://www.w3.org/2000/svg" viewBox="0 0 640 512"><!--! Font Awesome Pro 6.5.1 by @fontawesome - https://fontawesome.com License - https://fontawesome.com/license (Commercial License) Copyright 2023 Fonticons, Inc. --><defs><style>.fa-secondary{opacity:.4}</style></defs><path class="fa-secondary" d="M288 368a112 112 0 1 1 224 0 112 112 0 1 1 -224 0zm144 0a32 32 0 1 0 -64 0 32 32 0 1 0 64 0zM63.2 400.4c7.5 15 17.3 28.2 28.8 39.3L69.5 450.9c-23.7 11.9-52.5 2.2-64.4-21.5s-2.2-52.5 21.5-64.4l22.5-11.3c2 15.8 6.6 31.6 14.1 46.6z"/><path class="fa-primary" d="M256.4 464.8c-71.1 35.6-157.6 6.7-193.2-64.4s-6.7-157.6 64.4-193.2c49.5-24 287.2-107.9 394.6-145.5c30.3-10.6 63.6 3.1 78 31.8L630.9 155c14.4 28.7 5.3 63.6-21.4 81.5C580.3 256.1 540 283 496.8 311.6C477.4 278.4 441.3 256 400 256c-61.9 0-112 50.1-112 112c0 24.5 7.8 47.1 21.2 65.5c-23.4 14.6-42 25.7-52.7 31.3z"/></svg>