<svg xmlns="http://www.w3.org/2000/svg" viewBox="0 0 512 512"><!--! Font Awesome Pro 6.5.1 by @fontawesome - https://fontawesome.com License - https://fontawesome.com/license (Commercial License) Copyright 2023 Fonticons, Inc. --><defs><style>.fa-secondary{opacity:.4}</style></defs><path class="fa-secondary" d="M94.1 385.5l-48 112c-5.2 12.2-19.3 17.8-31.5 12.6S-3.3 490.7 1.9 478.5l48-112c5.2-12.2 19.3-17.8 31.5-12.6s17.8 19.3 12.6 31.5zm120 0l-48 112c-5.2 12.2-19.3 17.8-31.5 12.6s-17.8-19.3-12.6-31.5l48-112c5.2-12.2 19.3-17.8 31.5-12.6s17.8 19.3 12.6 31.5zm219.4-31.5c12.2 5.2 17.8 19.3 12.6 31.5l-48 112c-5.2 12.2-19.3 17.8-31.5 12.6s-17.8-19.3-12.6-31.5l48-112c5.2-12.2 19.3-17.8 31.5-12.6zM326.1 385.5l-48 112c-5.2 12.2-19.3 17.8-31.5 12.6s-17.8-19.3-12.6-31.5l48-112c5.2-12.2 19.3-17.8 31.5-12.6s17.8 19.3 12.6 31.5z"/><path class="fa-primary" d="M0 224c0 53 43 96 96 96H416c53 0 96-43 96-96s-43-96-96-96c-.5 0-1.1 0-1.6 0c1.1-5.2 1.6-10.5 1.6-16c0-44.2-35.8-80-80-80c-24.3 0-46.1 10.9-60.8 28C256.5 24.3 219.1 0 176 0C114.1 0 64 50.1 64 112c0 7.1 .7 14.1 1.9 20.8C27.6 145.4 0 181.5 0 224z"/></svg>