<svg xmlns="http://www.w3.org/2000/svg" viewBox="0 0 448 512"><!--! Font Awesome Pro 6.5.1 by @fontawesome - https://fontawesome.com License - https://fontawesome.com/license (Commercial License) Copyright 2023 Fonticons, Inc. --><defs><style>.fa-secondary{opacity:.4}</style></defs><path class="fa-secondary" d="M128 128H48c-26.5 0-48 21.5-48 48V464c0 26.5 21.5 48 48 48H272c26.5 0 48-21.5 48-48V416H256v32H64V192h64V128z"/><path class="fa-primary" d="M160 48c0-26.5 21.5-48 48-48H332.1c12.7 0 24.9 5.1 33.9 14.1l67.9 67.9c9 9 14.1 21.2 14.1 33.9V336c0 26.5-21.5 48-48 48H208c-26.5 0-48-21.5-48-48V48z"/></svg>