<svg xmlns="http://www.w3.org/2000/svg" viewBox="0 0 640 512"><!--! Font Awesome Pro 6.5.1 by @fontawesome - https://fontawesome.com License - https://fontawesome.com/license (Commercial License) Copyright 2023 Fonticons, Inc. --><defs><style>.fa-secondary{opacity:.4}</style></defs><path class="fa-secondary" d="M140.5 32L114.9 160h-94C9.3 160 0 150.7 0 139.1c0-2.1 .3-4.1 .9-6.1L26.8 48.9C29.9 38.9 39.2 32 49.7 32h90.8zm7 128L173.1 32H272V160H147.5zM304 32h98.9l14.4 72.1c-1.7 1.1-3.3 2.4-4.8 3.8c-18.4 16.4-35.4 34-50.5 52.1H304V32zM575.6 135.1c-17.8-15-44.3-14.6-61.7 1.2c-1.7 1.6-3.4 3.2-5 4.8C498 129.6 486.7 118.6 475 108c-7.6-6.9-17-10.8-26.6-11.8L435.5 32h90.8c10.5 0 19.8 6.9 22.9 16.9L575.1 133c.2 .7 .4 1.4 .5 2.1zM337.5 192c-4.4 6.2-8.5 12.5-12.3 18.7C304.3 244.5 288 282.9 288 318.1c0 49.3 18.6 95.2 49.6 129.9H128c0 17.7-14.3 32-32 32s-32-14.3-32-32L44 288H32c-17.7 0-32-14.3-32-32s14.3-32 32-32h4l-4-32H337.5z"/><path class="fa-primary" d="M640 320c0 88.4-71.6 160-160 160s-160-71.6-160-160c0-76.7 62.5-144.7 107.2-179.4c5-3.9 10.9-5.8 16.8-5.8c7.9-.1 16 3.1 22 9.2l46 46 11.3-11.3c11.7-11.7 30.6-12.7 42.3-1C624.5 236 640 288.2 640 320zM480 432.2c35.3 0 64-28.7 64-64c0-36.5-37-73-54.8-88.4c-5.4-4.7-13.1-4.7-18.5 0C453 295.1 416 331.6 416 368.2c0 35.3 28.7 64 64 64z"/></svg>