<svg xmlns="http://www.w3.org/2000/svg" viewBox="0 0 512 512"><!--! Font Awesome Pro 6.5.1 by @fontawesome - https://fontawesome.com License - https://fontawesome.com/license (Commercial License) Copyright 2023 Fonticons, Inc. --><defs><style>.fa-secondary{opacity:.4}</style></defs><path class="fa-secondary" d="M0 64C0 28.7 28.7 0 64 0H224V128c0 17.7 14.3 32 32 32H384V304H176c-35.3 0-64 28.7-64 64V512H64c-35.3 0-64-28.7-64-64V64z"/><path class="fa-primary" d="M384 160L224 0V128c0 17.7 14.3 32 32 32H384zM205.7 352c-25.2 0-45.7 20.4-45.7 45.7c0 17.3 9.8 33.1 25.2 40.8l31.2 15.6c4.6 2.3 7.6 7 7.6 12.2c0 7.5-6.1 13.7-13.7 13.7H176c-8.8 0-16 7.2-16 16s7.2 16 16 16h34.3c25.2 0 45.7-20.4 45.7-45.7c0-17.3-9.8-33.1-25.2-40.8l-31.2-15.6c-4.6-2.3-7.6-7-7.6-12.2c0-7.5 6.1-13.7 13.7-13.7H232c8.8 0 16-7.2 16-16s-7.2-16-16-16H205.7zM456 352c-22.1 0-40 17.9-40 40v80c0 22.1 17.9 40 40 40h16c22.1 0 40-17.9 40-40V448c0-8.8-7.2-16-16-16H480c-8.8 0-16 7.2-16 16s7.2 16 16 16v8c0 4.4-3.6 8-8 8H456c-4.4 0-8-3.6-8-8V392c0-4.4 3.6-8 8-8h16c4.4 0 8 3.6 8 8v8c0 8.8 7.2 16 16 16s16-7.2 16-16v-8c0-22.1-17.9-40-40-40H456zm-152 0c-8.8 0-16 7.2-16 16v31.6c0 34.7 10.3 68.7 29.6 97.6l5.1 7.7c3 4.5 8 7.1 13.3 7.1s10.3-2.7 13.3-7.1l5.1-7.7c19.3-28.9 29.6-62.9 29.6-97.6V368c0-8.8-7.2-16-16-16s-16 7.2-16 16v31.6c0 23-5.5 45.6-16 66c-10.5-20.3-16-42.9-16-66V368c0-8.8-7.2-16-16-16z"/></svg>