<svg xmlns="http://www.w3.org/2000/svg" viewBox="0 0 512 512"><!--! Font Awesome Pro 6.5.1 by @fontawesome - https://fontawesome.com License - https://fontawesome.com/license (Commercial License) Copyright 2023 Fonticons, Inc. --><defs><style>.fa-secondary{opacity:.4}</style></defs><path class="fa-secondary" d="M0 64C0 28.7 28.7 0 64 0H224V128c0 17.7 14.3 32 32 32H384V304H240c-35.3 0-64 28.7-64 64V512H64c-35.3 0-64-28.7-64-64V64z"/><path class="fa-primary" d="M384 160L224 0V128c0 17.7 14.3 32 32 32H384zM224 392v80c0 22.1 17.9 40 40 40h16c22.1 0 40-17.9 40-40V448c0-8.8-7.2-16-16-16H288c-8.8 0-16 7.2-16 16s7.2 16 16 16v8c0 4.4-3.6 8-8 8H264c-4.4 0-8-3.6-8-8V392c0-4.4 3.6-8 8-8h16c4.4 0 8 3.6 8 8v8c0 8.8 7.2 16 16 16s16-7.2 16-16v-8c0-22.1-17.9-40-40-40H264c-22.1 0-40 17.9-40 40zm160-24c0-8.8-7.2-16-16-16s-16 7.2-16 16V496c0 8.8 7.2 16 16 16s16-7.2 16-16V368zm48-16c-8.8 0-16 7.2-16 16v64 64c0 8.8 7.2 16 16 16s16-7.2 16-16V448h32c8.8 0 16-7.2 16-16s-7.2-16-16-16H448V384h32c8.8 0 16-7.2 16-16s-7.2-16-16-16H432z"/></svg>