<svg xmlns="http://www.w3.org/2000/svg" viewBox="0 0 512 512"><!--! Font Awesome Pro 6.5.1 by @fontawesome - https://fontawesome.com License - https://fontawesome.com/license (Commercial License) Copyright 2023 Fonticons, Inc. --><defs><style>.fa-secondary{opacity:.4}</style></defs><path class="fa-secondary" d="M0 64C0 28.7 28.7 0 64 0H224V128c0 17.7 14.3 32 32 32H384V304H176c-35.3 0-64 28.7-64 64V512H64c-35.3 0-64-28.7-64-64V64z"/><path class="fa-primary" d="M384 160L224 0V128c0 17.7 14.3 32 32 32H384zM160 368v64 64c0 8.8 7.2 16 16 16h64c8.8 0 16-7.2 16-16s-7.2-16-16-16H192V448h32c8.8 0 16-7.2 16-16s-7.2-16-16-16H192V384h48c8.8 0 16-7.2 16-16s-7.2-16-16-16H176c-8.8 0-16 7.2-16 16zm144-16c-8.8 0-16 7.2-16 16v80 48c0 8.8 7.2 16 16 16s16-7.2 16-16V464h16c30.9 0 56-25.1 56-56s-25.1-56-56-56H304zm32 80H320V384h16c13.3 0 24 10.7 24 24s-10.7 24-24 24zm117.7-80c-25.2 0-45.7 20.4-45.7 45.7c0 17.3 9.8 33.1 25.2 40.8l31.2 15.6c4.6 2.3 7.6 7 7.6 12.2c0 7.5-6.1 13.7-13.7 13.7H424c-8.8 0-16 7.2-16 16s7.2 16 16 16h34.3c25.2 0 45.7-20.4 45.7-45.7c0-17.3-9.8-33.1-25.2-40.8l-31.2-15.6c-4.6-2.3-7.6-7-7.6-12.2c0-7.5 6.1-13.7 13.7-13.7H480c8.8 0 16-7.2 16-16s-7.2-16-16-16H453.7z"/></svg>