<svg xmlns="http://www.w3.org/2000/svg" viewBox="0 0 640 512"><!--! Font Awesome Pro 6.5.1 by @fontawesome - https://fontawesome.com License - https://fontawesome.com/license (Commercial License) Copyright 2023 Fonticons, Inc. --><defs><style>.fa-secondary{opacity:.4}</style></defs><path class="fa-secondary" d="M56 256c-13.3 0-24 10.7-24 24V384c-17.7 0-32 14.3-32 32v64c0 17.7 14.3 32 32 32H608c17.7 0 32-14.3 32-32V416c0-17.7-14.3-32-32-32V280c0-13.3-10.7-24-24-24H536c-13.3 0-24 10.7-24 24s10.7 24 24 24h24v80H80V304h24c13.3 0 24-10.7 24-24s-10.7-24-24-24H56zM288 448a32 32 0 1 1 64 0 32 32 0 1 1 -64 0zm160-32a32 32 0 1 1 0 64 32 32 0 1 1 0-64zM160 448a32 32 0 1 1 64 0 32 32 0 1 1 -64 0z"/><path class="fa-primary" d="M480 192c0 88.4-71.6 160-160 160s-160-71.6-160-160c0-76.7 62.5-144.7 107.2-179.4c5-3.9 10.9-5.8 16.8-5.8c7.9-.1 16 3.1 22 9.2l46 46 11.3-11.3c11.7-11.7 30.6-12.7 42.3-1C464.5 108 480 160.2 480 192zM320 304.2c35.3 0 64-28.7 64-64c0-36.5-37-73-54.8-88.4c-5.4-4.7-13.1-4.7-18.5 0C293 167.1 256 203.6 256 240.2c0 35.3 28.7 64 64 64z"/></svg>