<svg xmlns="http://www.w3.org/2000/svg" viewBox="0 0 512 512"><!--! Font Awesome Pro 6.5.1 by @fontawesome - https://fontawesome.com License - https://fontawesome.com/license (Commercial License) Copyright 2023 Fonticons, Inc. --><defs><style>.fa-secondary{opacity:.4}</style></defs><path class="fa-secondary" d="M352 256c0 22.1-1.2 43.6-3.3 64H163.3c-2.2-20.4-3.3-41.9-3.3-64s1.2-43.6 3.3-64H348.7c2.2 20.4 3.3 41.9 3.3 64zm28.8-64H503.9c5.3 20.5 8.1 41.9 8.1 64s-2.8 43.5-8.1 64H380.8c2.1-20.6 3.2-42 3.2-64s-1.1-43.4-3.2-64zm112.6-32H376.7C366.9 96.7 347.5 43.3 322.5 8.7c77.8 20.9 141 77.5 170.9 151.3zm-149.1 0H167.7c6.1-36.7 15.5-69.2 27.1-95.5c10.5-23.8 22.2-41.2 33.6-52.1c6.8-6.5 12.8-10.2 18.1-12.2c3.2-.1 6.3-.2 9.5-.2s6.3 .1 9.5 .2c5.3 1.9 11.4 5.7 18.1 12.2c11.4 10.9 23.1 28.3 33.6 52.1c11.6 26.3 21 58.8 27.1 95.5zm-209.1 0H18.6C48.5 86.3 111.6 29.6 189.5 8.7c-25 34.6-44.4 88-54.2 151.3zM8.1 192H131.2c-2.1 20.6-3.2 42-3.2 64s1.1 43.4 3.2 64H8.1C2.8 299.5 0 278.1 0 256s2.8-43.5 8.1-64zM194.8 447.5c-11.6-26.3-21-58.8-27.1-95.5H344.3c-6.1 36.7-15.5 69.2-27.1 95.5c-10.5 23.8-22.2 41.2-33.6 52.1c-6.8 6.5-12.8 10.2-18.1 12.2c-3.2 .1-6.3 .2-9.5 .2s-6.3-.1-9.5-.2c-5.3-1.9-11.4-5.7-18.1-12.2c-11.4-10.9-23.1-28.3-33.6-52.1zM135.3 352c9.9 63.3 29.2 116.7 54.2 151.3C111.6 482.4 48.5 425.7 18.6 352H135.3zm358.1 0c-29.8 73.7-93 130.4-170.9 151.3c25-34.6 44.4-88 54.2-151.3H493.4z"/><path class="fa-primary" d="M344.3 352c-6.1 36.7-15.5 69.2-27.1 95.5c-10.5 23.8-22.2 41.2-33.6 52.1c-6.8 6.5-12.8 10.2-18.1 12.2c19.7-.7 38.7-3.6 57-8.6c25-34.6 44.3-88 54.2-151.3H493.4c4.2-10.3 7.7-21 10.5-32H380.8c2.1-20.6 3.2-42 3.2-64s-1.1-43.4-3.2-64H503.9c-2.8-11-6.4-21.7-10.5-32H376.7C366.9 96.7 347.5 43.3 322.5 8.7c-18.3-4.9-37.4-7.8-57-8.6c5.3 1.9 11.4 5.7 18.1 12.2c11.4 10.9 23.1 28.3 33.6 52.1c11.6 26.3 21 58.8 27.1 95.5H167.7c6.1-36.7 15.5-69.2 27.1-95.5c10.5-23.8 22.2-41.2 33.6-52.1c6.8-6.5 12.8-10.2 18.1-12.2c-19.7 .7-38.7 3.6-57 8.6c-25 34.6-44.4 88-54.2 151.3H18.6c-4.2 10.3-7.7 21-10.5 32H131.2c-2.1 20.6-3.2 42-3.2 64s1.1 43.4 3.2 64H8.1c2.8 11 6.4 21.7 10.5 32H135.3c9.9 63.3 29.2 116.7 54.2 151.3c18.3 4.9 37.4 7.8 57 8.6c-5.3-1.9-11.4-5.7-18.1-12.2c-11.4-10.9-23.1-28.3-33.6-52.1c-11.6-26.3-21-58.8-27.1-95.5H344.3zm7.7-96c0 22.1-1.2 43.6-3.3 64H163.3c-2.2-20.4-3.3-41.9-3.3-64s1.2-43.6 3.3-64H348.7c2.2 20.4 3.3 41.9 3.3 64z"/></svg>