<svg xmlns="http://www.w3.org/2000/svg" viewBox="0 0 640 512"><!--! Font Awesome Pro 6.5.1 by @fontawesome - https://fontawesome.com License - https://fontawesome.com/license (Commercial License) Copyright 2023 Fonticons, Inc. --><defs><style>.fa-secondary{opacity:.4}</style></defs><path class="fa-secondary" d="M0 144C0 64.5 64.5 0 144 0h54.1c21.9 0 42 12.4 51.8 32L288 32c0-17.7 14.3-32 32-32s32 14.3 32 32v96c0 17.7-14.3 32-32 32s-32-14.3-32-32H249.9c-9.8 19.6-29.9 32-51.8 32H131.8c-22.5 0-43.5-10.3-57.4-27.3L23.2 158.3c-5 2.5-10.9 2.2-15.6-.7S0 149.5 0 144zM409.1 512H400c-26.5 0-48-21.5-48-48V320H640V464c0 26.5-21.5 48-48 48H486.9c-4.1 0-7.8-2.6-9.1-6.6l-20.7-62.1c-2.9-8.8-15.3-8.8-18.2 0l-20.7 62.1c-1.3 3.9-5 6.6-9.1 6.6z"/><path class="fa-primary" d="M352 464l0 .2V320H640V290.3c0-21.4-10.7-41.4-28.5-53.3l-65.1-43.4c-.8-.5-1.6-.9-2.4-1.2V48c0-26.5-21.5-48-48-48s-48 21.5-48 48V192.5c-.9 .3-1.7 .7-2.4 1.2L380.5 237c-17.8 11.9-28.5 31.9-28.5 53.3V464zM496 64a16 16 0 1 1 0-32 16 16 0 1 1 0 32zM131.8 160c-6.9 0-13.6-1-20-2.8L98.8 448.1C97.3 482.9 125.1 512 160 512s62.7-29.1 61.2-63.9l-12.8-289c-3.3 .6-6.7 .9-10.2 .9H131.8z"/></svg>