<svg xmlns="http://www.w3.org/2000/svg" viewBox="0 0 512 512"><!--! Font Awesome Pro 6.5.1 by @fontawesome - https://fontawesome.com License - https://fontawesome.com/license (Commercial License) Copyright 2023 Fonticons, Inc. --><defs><style>.fa-secondary{opacity:.4}</style></defs><path class="fa-secondary" d="M0 168c0-22.1 17.9-40 40-40l200 0 7 0 73 0c8.8 0 16-7.2 16-16s-7.2-16-16-16l-55.7 0c1.4-2 3-3.9 4.5-5.8l16-19.2C297 56.4 315 48 334 48L372 48c38 0 74 16.9 98.3 46.1l4.5 5.4c24 28.8 37.1 65 37.1 102.4L512 320c0 70.7-57.3 128-128 128l-64 0-32 0c-26.5 0-48-21.5-48-48c0-12.4 4.7-23.6 12.3-32.1C227.5 366 208 345.3 208 320c0-12.4 4.7-23.6 12.3-32.1C195.5 286 176 265.3 176 240c0-12.3 4.6-23.5 12.2-32L40 208c-22.1 0-40-17.9-40-40z"/><path class="fa-primary" d=""/></svg>