<svg xmlns="http://www.w3.org/2000/svg" viewBox="0 0 384 512"><!--! Font Awesome Pro 6.5.1 by @fontawesome - https://fontawesome.com License - https://fontawesome.com/license (Commercial License) Copyright 2023 Fonticons, Inc. --><defs><style>.fa-secondary{opacity:.4}</style></defs><path class="fa-secondary" d="M320 64L64 64v0H32V75c0 42.4 16.9 83.1 46.9 113.1L146.7 256 78.9 323.9C48.9 353.9 32 394.6 32 437v11l32 0 32 0H288l32 0 32 0V437c0-42.4-16.9-83.1-46.9-113.1L237.3 256l67.9-67.9c30-30 46.9-70.7 46.9-113.1V64l-32 0z"/><path class="fa-primary" d="M32 0C14.3 0 0 14.3 0 32S14.3 64 32 64H352c17.7 0 32-14.3 32-32s-14.3-32-32-32H32zm0 448c-17.7 0-32 14.3-32 32s14.3 32 32 32H352c17.7 0 32-14.3 32-32s-14.3-32-32-32H32z"/></svg>