<svg xmlns="http://www.w3.org/2000/svg" viewBox="0 0 640 512"><!--! Font Awesome Pro 6.5.1 by @fontawesome - https://fontawesome.com License - https://fontawesome.com/license (Commercial License) Copyright 2023 Fonticons, Inc. --><defs><style>.fa-secondary{opacity:.4}</style></defs><path class="fa-secondary" d="M384 274.7c19.6 8.6 41.2 13.3 64 13.3V420.3c.6 .3 1.2 .7 1.8 1.1l48 32c11.7 7.8 17 22.4 12.9 35.9S494.1 512 480 512H32c-14.1 0-26.5-9.2-30.6-22.7s1.1-28.1 12.9-35.9l48-32c.6-.4 1.2-.7 1.8-1.1V224h64V416h40V224h64V416h48V224h40c7.1 9.4 15.1 18 24 25.6V416h40V274.7zM301.3 192H32c-14.5 0-27.2-9.8-30.9-23.8s2.5-28.8 15.1-36L64 104.9V104l4.4-1.6L240.1 4.2c9.8-5.6 21.9-5.6 31.8 0l48.3 27.6C300 58.6 288 91.9 288 128c0 22.8 4.8 44.4 13.3 64z"/><path class="fa-primary" d="M528 128.1a80 80 0 1 0 -160 0 80 80 0 1 0 160 0zM519.9 234c-20.5 14-45.3 22.1-71.9 22.1c-70.7 0-128-57.3-128-128s57.3-128 128-128s128 57.3 128 128c0 26.7-8.2 51.4-22.1 71.9L633 279.2c9.4 9.4 9.4 24.6 0 33.9s-24.6 9.4-33.9 0L519.9 234z"/></svg>