<svg xmlns="http://www.w3.org/2000/svg" viewBox="0 0 512 512"><!--! Font Awesome Pro 6.5.1 by @fontawesome - https://fontawesome.com License - https://fontawesome.com/license (Commercial License) Copyright 2023 Fonticons, Inc. --><defs><style>.fa-secondary{opacity:.4}</style></defs><path class="fa-secondary" d="M208 416A208 208 0 1 0 208 0a208 208 0 1 0 0 416zm70-315.5c6.3 4.5 10 11.8 10 19.5v32c0 10.3-6.6 19.5-16.4 22.8L240 185.3V272l0 .1c-.1 26.5-28.7 47.9-64 47.9c-35.3 0-64-21.5-64-48s28.7-48 64-48c5.5 0 10.9 .5 16 1.5V168 136c0-10.3 6.6-19.5 16.4-22.8l48-16c7.3-2.4 15.4-1.2 21.6 3.3z"/><path class="fa-primary" d="M278 100.5c6.3 4.5 10 11.8 10 19.5v32c0 10.3-6.6 19.5-16.4 22.8L240 185.3V272l0 .1c-.1 26.5-28.7 47.9-64 47.9c-35.3 0-64-21.5-64-48s28.7-48 64-48c5.5 0 10.9 .5 16 1.5V168 136c0-10.3 6.6-19.5 16.4-22.8l48-16c7.3-2.4 15.4-1.2 21.6 3.3zM457.4 502.6L330.7 376C348 363.3 363.3 348 376 330.7L502.6 457.4c12.5 12.5 12.5 32.8 0 45.3s-32.8 12.5-45.3 0z"/></svg>