<svg xmlns="http://www.w3.org/2000/svg" viewBox="0 0 512 512"><!--! Font Awesome Pro 6.5.1 by @fontawesome - https://fontawesome.com License - https://fontawesome.com/license (Commercial License) Copyright 2023 Fonticons, Inc. --><defs><style>.fa-secondary{opacity:.4}</style></defs><path class="fa-secondary" d="M73.8 155.6C69 168 57.2 175.7 44.7 176H43.3c-3.6-.1-7.3-.8-10.9-2.2c-16.5-6.4-24.6-25-18.2-41.4C44.4 54.9 119.8 0 208 0c52.9 0 101.1 19.7 137.8 52.2L300.5 97.6C275.4 76.6 243.2 64 208 64c-61 0-113.2 37.9-134.2 91.6zM342.2 260.4c4.8-12.4 16.6-20.1 29.1-20.4h1.5c3.6 .1 7.3 .8 10.9 2.2c16.5 6.4 24.6 25 18.2 41.4c-6.6 16.9-15.3 32.7-25.8 47.1L502.6 457.4c12.5 12.5 12.5 32.8 0 45.3s-32.8 12.5-45.3 0L330.7 376c-34.4 25.2-76.8 40-122.7 40c-52.9 0-101.1-19.7-137.8-52.2l45.4-45.4c25 21 57.3 33.6 92.5 33.6c61 0 113.2-37.9 134.2-91.6z"/><path class="fa-primary" d="M280 176H392c13.3 0 24-10.7 24-24V40c0-9.7-5.8-18.5-14.8-22.2s-19.3-1.7-26.2 5.2L263 135c-6.9 6.9-8.9 17.2-5.2 26.2s12.5 14.8 22.2 14.8zm88-48v0H337.9l0 0H368zM136 240H24c-13.3 0-24 10.7-24 24V376c0 9.7 5.8 18.5 14.8 22.2s19.3 1.7 26.2-5.2L153 281c6.9-6.9 8.9-17.2 5.2-26.2s-12.5-14.8-22.2-14.8z"/></svg>