<svg xmlns="http://www.w3.org/2000/svg" viewBox="0 0 640 512"><!--! Font Awesome Pro 6.5.1 by @fontawesome - https://fontawesome.com License - https://fontawesome.com/license (Commercial License) Copyright 2023 Fonticons, Inc. --><defs><style>.fa-secondary{opacity:.4}</style></defs><path class="fa-secondary" d="M176 8c6.6 0 12.4 4 14.9 10.1l29.4 74 76.2-23.1c6.3-1.9 13.1 .2 17.2 5.3c3 3.7 4.1 8.5 3.2 13C270.7 115.4 240 166.1 240 224c0 27.8 7.1 53.9 19.5 76.7l1.9 26.4c.5 6.5-3.1 12.7-9 15.5s-12.9 1.8-17.8-2.6L176 286.1l-58.6 53.9c-4.8 4.4-11.9 5.5-17.8 2.6s-9.5-9-9-15.5l5.6-79.4L17.6 235.4c-6.5-1-11.7-5.9-13.1-12.2s1.1-13 6.5-16.7l65.6-45.1L37 92.2c-3.3-5.7-2.7-12.8 1.4-17.9s10.9-7.2 17.2-5.3l76.2 23.1 29.4-74C163.6 12 169.4 8 176 8z"/><path class="fa-primary" d="M481.8 14.8C485.5 5.8 494.3 0 504 0H616c13.3 0 24 10.7 24 24V136c0 9.7-5.8 18.5-14.8 22.2s-19.3 1.7-26.2-5.2l-39-39-24.7 24.7C551 163.3 560 192.6 560 224c0 80.2-59 146.6-136 158.2V408h24c13.3 0 24 10.7 24 24s-10.7 24-24 24H424v32c0 13.3-10.7 24-24 24s-24-10.7-24-24V456H352c-13.3 0-24-10.7-24-24s10.7-24 24-24h24V382.2c-77-11.6-136-78-136-158.2c0-88.4 71.6-160 160-160c39.6 0 75.9 14.4 103.8 38.2L526.1 80 487 41c-6.9-6.9-8.9-17.2-5.2-26.2zM592 48l0 0h0v0zM496 224a96 96 0 1 0 -192 0 96 96 0 1 0 192 0z"/></svg>