<svg xmlns="http://www.w3.org/2000/svg" viewBox="0 0 512 512"><!--! Font Awesome Pro 6.5.1 by @fontawesome - https://fontawesome.com License - https://fontawesome.com/license (Commercial License) Copyright 2023 Fonticons, Inc. --><defs><style>.fa-secondary{opacity:.4}</style></defs><path class="fa-secondary" d="M0 64C0 28.7 28.7 0 64 0H448c35.3 0 64 28.7 64 64V352c0 35.3-28.7 64-64 64H309.3L185.6 508.8c-4.8 3.6-11.3 4.2-16.8 1.5s-8.8-8.2-8.8-14.3V416H64c-35.3 0-64-28.7-64-64V64zM96 180.8c0 12.3 6.2 23.8 16.4 30.7l29.4 19.6c1.3 .9 2.2 2.4 2.2 4c0 2.7-2.2 4.8-4.8 4.8H112c-8.8 0-16 7.2-16 16s7.2 16 16 16h27.2c20.3 0 36.8-16.5 36.8-36.8c0-12.3-6.2-23.8-16.4-30.7l-29.4-19.6c-1.3-.9-2.2-2.4-2.2-4c0-2.7 2.2-4.8 4.8-4.8H152c8.8 0 16-7.2 16-16s-7.2-16-16-16H132.8C112.5 144 96 160.5 96 180.8zM372.8 144c-20.3 0-36.8 16.5-36.8 36.8c0 12.3 6.2 23.8 16.4 30.7l29.4 19.6c1.3 .9 2.2 2.4 2.2 4c0 2.7-2.2 4.8-4.8 4.8H352c-8.8 0-16 7.2-16 16s7.2 16 16 16h27.2c20.3 0 36.8-16.5 36.8-36.8c0-12.3-6.2-23.8-16.4-30.7l-29.4-19.6c-1.3-.9-2.2-2.4-2.2-4c0-2.7 2.2-4.8 4.8-4.8H392c8.8 0 16-7.2 16-16s-7.2-16-16-16H372.8zm-152 6.4c-4.1-5.5-11.3-7.8-17.9-5.6S192 153.1 192 160v96c0 8.8 7.2 16 16 16s16-7.2 16-16V208l19.2 25.6c3 4 7.8 6.4 12.8 6.4s9.8-2.4 12.8-6.4L288 208v48c0 8.8 7.2 16 16 16s16-7.2 16-16V160c0-6.9-4.4-13-10.9-15.2s-13.7 .1-17.9 5.6L256 197.3l-35.2-46.9z"/><path class="fa-primary" d="M132.8 144H152c8.8 0 16 7.2 16 16s-7.2 16-16 16H132.8c-2.7 0-4.8 2.2-4.8 4.8c0 1.6 .8 3.1 2.2 4l29.4 19.6c10.2 6.8 16.4 18.3 16.4 30.7c0 20.3-16.5 36.8-36.8 36.8H112c-8.8 0-16-7.2-16-16s7.2-16 16-16h27.2c2.7 0 4.8-2.2 4.8-4.8c0-1.6-.8-3.1-2.2-4l-29.4-19.6C102.2 204.7 96 193.2 96 180.8c0-20.3 16.5-36.8 36.8-36.8zM336 180.8c0-20.3 16.5-36.8 36.8-36.8H392c8.8 0 16 7.2 16 16s-7.2 16-16 16H372.8c-2.7 0-4.8 2.2-4.8 4.8c0 1.6 .8 3.1 2.2 4l29.4 19.6c10.2 6.8 16.4 18.3 16.4 30.7c0 20.3-16.5 36.8-36.8 36.8H352c-8.8 0-16-7.2-16-16s7.2-16 16-16h27.2c2.7 0 4.8-2.2 4.8-4.8c0-1.6-.8-3.1-2.2-4l-29.4-19.6c-10.2-6.8-16.4-18.3-16.4-30.7zm-133.1-36c6.5-2.2 13.7 .1 17.9 5.6L256 197.3l35.2-46.9c4.1-5.5 11.3-7.8 17.9-5.6s10.9 8.3 10.9 15.2v96c0 8.8-7.2 16-16 16s-16-7.2-16-16V208l-19.2 25.6c-3 4-7.8 6.4-12.8 6.4s-9.8-2.4-12.8-6.4L224 208v48c0 8.8-7.2 16-16 16s-16-7.2-16-16V160c0-6.9 4.4-13 10.9-15.2z"/></svg>