<svg xmlns="http://www.w3.org/2000/svg" viewBox="0 0 640 512"><!--! Font Awesome Pro 6.5.1 by @fontawesome - https://fontawesome.com License - https://fontawesome.com/license (Commercial License) Copyright 2023 Fonticons, Inc. --><defs><style>.fa-secondary{opacity:.4}</style></defs><path class="fa-secondary" d="M351.1 493.7C321.7 505.5 289.6 512 256 512C114.6 512 0 397.4 0 256S114.6 0 256 0C361.7 0 452.5 64.1 491.5 155.5c-5.4-5.3-10.9-10.4-16.6-15.5c-17.7-16-44.7-16-62.5-.1c-9.9 8.9-19.4 18.1-28.5 27.5V160c0-17.7-14.3-32-32-32s-32 14.3-32 32v32c0 13.2 7.9 24.5 19.3 29.4c-5 7.1-9.8 14.2-14.1 21.3C304.3 276.5 288 314.9 288 350.1c0 56.1 24.1 107.8 63.1 143.7zM160 128c-17.7 0-32 14.3-32 32v32c0 17.7 14.3 32 32 32s32-14.3 32-32V160c0-17.7-14.3-32-32-32zm96 0c-17.7 0-32 14.3-32 32v32c0 17.7 14.3 32 32 32s32-14.3 32-32V160c0-17.7-14.3-32-32-32z"/><path class="fa-primary" d="M640 351.9c0 88.4-71.6 160-160 160s-160-71.6-160-160c0-76.7 62.5-144.7 107.2-179.4c5-3.9 10.9-5.8 16.8-5.8c7.9-.1 16 3.1 22 9.2l46 46 11.3-11.3c11.7-11.7 30.6-12.7 42.3-1C624.5 267.8 640 320 640 351.9zM480 464c35.3 0 64-28.7 64-64c0-36.5-37-73-54.8-88.4c-5.4-4.7-13.1-4.7-18.5 0C453 327 416 363.5 416 400c0 35.3 28.7 64 64 64z"/></svg>