<svg xmlns="http://www.w3.org/2000/svg" viewBox="0 0 640 512"><!--! Font Awesome Pro 6.5.1 by @fontawesome - https://fontawesome.com License - https://fontawesome.com/license (Commercial License) Copyright 2023 Fonticons, Inc. --><defs><style>.fa-secondary{opacity:.4}</style></defs><path class="fa-secondary" d="M544 208c0 45.9-14.9 88.3-40 122.7L630.6 457.4c12.5 12.5 12.5 32.8 0 45.3s-32.8 12.5-45.3 0L458.7 376c-30.8 22.5-68.1 36.8-108.5 39.6c1.1-4.9 1.8-10.1 1.8-15.5c0-1.4 0-2.8-.1-4.2c.1-1.3 .1-2.5 .1-3.8V184c0-18-8.7-34.9-23.3-45.4s-33.4-13.4-50.5-7.7L129.8 180.4C143.3 78.6 230.5 0 336 0C450.9 0 544 93.1 544 208z"/><path class="fa-primary" d="M320 184c0-7.7-3.7-15-10-19.5s-14.3-5.7-21.6-3.3l-192 64C86.6 228.5 80 237.7 80 248v48V417.5c-5.1-1-10.5-1.5-16-1.5c-35.3 0-64 21.5-64 48s28.7 48 64 48s64-21.5 64-48V313.3l144-48v88.2c-5.1-1-10.5-1.5-16-1.5c-35.3 0-64 21.5-64 48s28.7 48 64 48s64-21.5 64-48c0-1.5-.1-3-.3-4.4c.2-1.2 .3-2.4 .3-3.6V232 184z"/></svg>