<svg xmlns="http://www.w3.org/2000/svg" viewBox="0 0 384 512"><!--! Font Awesome Pro 6.5.1 by @fontawesome - https://fontawesome.com License - https://fontawesome.com/license (Commercial License) Copyright 2023 Fonticons, Inc. --><defs><style>.fa-secondary{opacity:.4}</style></defs><path class="fa-secondary" d="M224 64c0-17.7-14.3-32-32-32s-32 14.3-32 32c0 .3 0 .7 0 1c.4 13.9 9.7 26.6 22.4 31H136.6c-5.4-9.4-8.6-20.3-8.6-32c0-35.3 28.7-64 64-64s64 28.7 64 64c0 11.7-3.1 22.6-8.6 32H201.6c12.8-4.4 22.1-17.2 22.4-31.2c0-.3 0-.5 0-.8zM384 320c0 22.4-3.8 44-10.9 64H10.9C3.8 364 0 342.4 0 320s3.8-44 10.9-64H373.1c7.1 20 10.9 41.6 10.9 64z"/><path class="fa-primary" d="M96 128c0-17.7 14.3-32 32-32H256c17.7 0 32 14.3 32 32v25.7c39.3 22.7 69.7 58.9 85.1 102.3H10.9C26.3 212.6 56.7 176.4 96 153.7V128zM10.9 384H373.1C346.7 458.6 275.6 512 192 512s-154.7-53.4-181.1-128z"/></svg>