<svg xmlns="http://www.w3.org/2000/svg" viewBox="0 0 640 512"><!--! Font Awesome Pro 6.5.1 by @fontawesome - https://fontawesome.com License - https://fontawesome.com/license (Commercial License) Copyright 2023 Fonticons, Inc. --><defs><style>.fa-secondary{opacity:.4}</style></defs><path class="fa-secondary" d="M64 32C28.7 32 0 60.7 0 96V416c0 35.3 28.7 64 64 64H337.6c-31-34.7-49.6-80.6-49.6-129.9c0-2 .1-4 .2-6.1c-.1 0-.1 0-.2 0c-13.3 0-24-10.7-24-24s10.7-24 24-24c3.5 0 6.9 .8 9.9 2.1c6.7-19 16.4-37.8 27.2-55.4c3.8-6.2 7.9-12.5 12.3-18.7H96c-17.7 0-32-14.3-32-32V128c0-17.7 14.3-32 32-32H352c17.7 0 32 14.3 32 32v39.4c9-9.4 18.5-18.6 28.5-27.5c10-8.9 23-12.8 35.5-11.7V96c0-35.3-28.7-64-64-64H64zM96 296a24 24 0 1 1 0 48 24 24 0 1 1 0-48zm72 24a24 24 0 1 1 48 0 24 24 0 1 1 -48 0z"/><path class="fa-primary" d="M640 351.9c0 88.4-71.6 160-160 160s-160-71.6-160-160c0-76.7 62.5-144.7 107.2-179.4c5-3.9 10.9-5.8 16.8-5.8c7.9-.1 16 3.1 22 9.2l46 46 11.3-11.3c11.7-11.7 30.6-12.7 42.3-1C624.5 267.8 640 320 640 351.9zM480 464c35.3 0 64-28.7 64-64c0-36.5-37-73-54.8-88.4c-5.4-4.7-13.1-4.7-18.5 0C453 327 416 363.5 416 400c0 35.3 28.7 64 64 64z"/></svg>