<svg xmlns="http://www.w3.org/2000/svg" viewBox="0 0 640 512"><!--! Font Awesome Pro 6.5.1 by @fontawesome - https://fontawesome.com License - https://fontawesome.com/license (Commercial License) Copyright 2023 Fonticons, Inc. --><defs><style>.fa-secondary{opacity:.4}</style></defs><path class="fa-secondary" d="M275.8 166.7c-15.8 7.8-28 22-33.1 39.8L203.7 343.2c-5.8 20.4 9.5 40.8 30.8 40.8H256v38.1C218.6 458 167.9 480 112 480H96c-17.7 0-32-14.3-32-32c0-45.7 14.7-88 39.7-122.3C40.6 275.9 0 198.7 0 112V64C0 46.3 14.3 32 32 32c102.7 0 192.8 53.8 243.8 134.7zm88.3 0C415.2 85.8 505.3 32 608 32c17.7 0 32 14.3 32 32v48c0 86.7-40.6 163.9-103.7 213.7C561.3 360 576 402.3 576 448c0 17.7-14.3 32-32 32H528c-55.9 0-106.6-22-144-57.9V384h21.6c21.3 0 36.6-20.3 30.8-40.8L397.3 206.4c-5.1-17.7-17.3-31.9-33.1-39.8z"/><path class="fa-primary" d="M256 64a64 64 0 1 1 128 0A64 64 0 1 1 256 64zM242.7 206.4c7.8-27.5 33-46.4 61.5-46.4h31.5c28.6 0 53.7 18.9 61.5 46.4l39.1 136.8c5.8 20.4-9.5 40.8-30.8 40.8H384v80c0 26.5-21.5 48-48 48H304c-26.5 0-48-21.5-48-48V384H234.4c-21.3 0-36.6-20.3-30.8-40.8l39.1-136.8z"/></svg>