<svg xmlns="http://www.w3.org/2000/svg" viewBox="0 0 640 512"><!--! Font Awesome Pro 6.5.1 by @fontawesome - https://fontawesome.com License - https://fontawesome.com/license (Commercial License) Copyright 2023 Fonticons, Inc. --><defs><style>.fa-secondary{opacity:.4}</style></defs><path class="fa-secondary" d="M273.9 163.6c-30.4 9.4-53.2 36.5-56 69.8l-4.1 49.3c-2.5 29.8 15.7 56.1 42.2 65.6v73.8C218.6 458 167.9 480 112 480H96c-17.7 0-32-14.3-32-32c0-45.7 14.7-88 39.7-122.3C40.6 275.9 0 198.7 0 112V64C0 46.3 14.3 32 32 32c101.4 0 190.5 52.4 241.9 131.6zm92.3 0C417.5 84.4 506.6 32 608 32c17.7 0 32 14.3 32 32v48c0 86.7-40.6 163.9-103.7 213.7C561.3 360 576 402.3 576 448c0 17.7-14.3 32-32 32H528c-55.9 0-106.6-22-144-57.9V348.3c26.5-9.5 44.7-35.8 42.2-65.6l-4.1-49.3c-2.8-33.2-25.6-60.3-56-69.8z"/><path class="fa-primary" d="M256 64a64 64 0 1 1 128 0A64 64 0 1 1 256 64zM217.9 233.4c3.5-41.5 38.1-73.4 79.7-73.4h44.8c41.6 0 76.3 31.9 79.7 73.4l4.1 49.3c2.5 29.8-15.7 56.1-42.2 65.6V464c0 26.5-21.5 48-48 48H304c-26.5 0-48-21.5-48-48V348.3c-26.5-9.5-44.7-35.8-42.2-65.6l4.1-49.3z"/></svg>