<svg xmlns="http://www.w3.org/2000/svg" viewBox="0 0 576 512"><!--! Font Awesome Pro 6.5.1 by @fontawesome - https://fontawesome.com License - https://fontawesome.com/license (Commercial License) Copyright 2023 Fonticons, Inc. --><defs><style>.fa-secondary{opacity:.4}</style></defs><path class="fa-secondary" d="M266.1 290c14.1-5.1 29.6-5.1 43.7 0l30 10.9c22.9 8.3 47.9 9 71.2 1.8l41.6-12.8c15.7-4.8 32.7-3.4 47.4 3.9l26.8 13.4-32.3 97c-8.7 26.1-33.2 43.8-60.7 43.8H142.1c-27.5 0-52-17.6-60.7-43.8l-32.3-97 26.8-13.4c14.7-7.4 31.7-8.8 47.4-3.9l41.6 12.8c23.3 7.2 48.3 6.5 71.2-1.8l30-10.9z"/><path class="fa-primary" d="M542.1 243.3c-7.5-3.8-13.2-10.4-16.3-18.2C488.1 130.7 395.8 64 288 64S87.9 130.7 50.2 225.1c-3.1 7.8-8.8 14.4-16.3 18.2l-16.2 8.1C1.9 259.3-4.5 278.5 3.4 294.3s27.1 22.2 42.9 14.3l29.6-14.8c14.7-7.4 31.7-8.8 47.4-3.9l41.6 12.8c23.3 7.2 48.3 6.5 71.2-1.8l30-10.9c14.1-5.1 29.6-5.1 43.7 0l30 10.9c22.9 8.3 47.9 9 71.2 1.8l41.6-12.8c15.7-4.8 32.7-3.4 47.4 3.9l29.6 14.8c15.8 7.9 35 1.5 42.9-14.3s1.5-35-14.3-42.9l-16.2-8.1zM206.3 151.2l-16 32c-4 7.9-13.6 11.1-21.5 7.2s-11.1-13.6-7.2-21.5l16-32c4-7.9 13.6-11.1 21.5-7.2s11.1 13.6 7.2 21.5zm192-14.3l16 32c4 7.9 .7 17.5-7.2 21.5s-17.5 .7-21.5-7.2l-16-32c-4-7.9-.7-17.5 7.2-21.5s17.5-.7 21.5 7.2zM304 144v32c0 8.8-7.2 16-16 16s-16-7.2-16-16V144c0-8.8 7.2-16 16-16s16 7.2 16 16z"/></svg>