<svg xmlns="http://www.w3.org/2000/svg" viewBox="0 0 512 512"><!--! Font Awesome Pro 6.5.1 by @fontawesome - https://fontawesome.com License - https://fontawesome.com/license (Commercial License) Copyright 2023 Fonticons, Inc. --><defs><style>.fa-secondary{opacity:.4}</style></defs><path class="fa-secondary" d="M290.7 10.9C304.5 3.8 320 0 336 0s31.5 3.8 45.3 10.9l44.1-9.8c3.2-.7 6.5-1.1 9.7-1.1h1.3c24 0 43.5 19.5 43.5 43.5c0 4.7-.8 9.3-2.2 13.8L463.9 98.8 478 116.2 391.6 86.1c-21.7-7.5-44 1.4-55.6 18.6c-11.5-17.3-33.9-26.2-55.6-18.6L194 116.2l14.1-17.3L194.2 57.3c-1.5-4.4-2.2-9.1-2.2-13.8C192 19.5 211.5 0 235.5 0h1.3c3.3 0 6.5 .4 9.7 1.1l44.1 9.8zm62.7 162.6l78.2 41.7-8.7 2.6c-10.6 3.2-20.6 7.9-29.8 14l-18.8 12.6C362.9 252 349.6 256 336 256c13.3 0 24-10.7 24-24s-10.7-24-24-24s-24 10.7-24 24s10.7 24 24 24c-13.6 0-26.9-4-38.2-11.6L279 231.9c-9.2-6.1-19.2-10.9-29.8-14l-8.7-2.6 78.2-41.7c7.1-3.8 13-9.2 17.3-15.7c4.3 6.5 10.2 11.9 17.3 15.7zm-94.6-137l-19.1-4.2c-.9-.2-1.8-.3-2.8-.3h-1.3c-6.4 0-11.5 5.2-11.5 11.5c0 1.2 .2 2.5 .6 3.6L232 69.4 258.4 37l.3-.4zM440 69.4l7.4-22.2c.4-1.2 .6-2.4 .6-3.6c0-6.4-5.2-11.5-11.5-11.5h-1.3c-.9 0-1.9 .1-2.8 .3l-19.1 4.2 .3 .4L440 69.4zM96 400c0-70.6 35.2-133.1 89.1-170.7c5.9 3.5 12.3 6.4 19.1 8.4L240 248.5c7.5 2.3 14.7 5.6 21.3 10l18.8 12.6c16.6 11 36 16.9 55.9 16.9s39.4-5.9 55.9-16.9l18.8-12.6c5.8-3.9 12.1-7 18.7-9.2c11.7 9.3 18.5 23.4 18.5 38.3c0 15.4-7.2 29.9-19.5 39.1l-38.1 28.5c-7.1 5.3-8.5 15.3-3.2 22.4s15.3 8.5 22.4 3.2L416 376v72l0 0h16c26.4 0 47.8 21.3 48 47.6V512H416 376.1l-.1 0H352V496c0-44.2-35.8-80-80-80H240c-8.8 0-16 7.2-16 16s7.2 16 16 16h32c26.5 0 48 21.5 48 48v16H240 112C50.1 512 0 461.9 0 400V320H77.7C68.8 345 64 371.9 64 400c0 8.8 7.2 16 16 16s16-7.2 16-16zM0 256V224H128v12.8c-5.7 6.1-11 12.5-16 19.2H0zm128-96H0V128H128v32zM479.5 296.4c0-.4 .1-.8 .1-1.3l.3 .9-.5 .4zM295.8 381.7c7.6 4.5 17.4 2.1 22-5.5s2.1-17.4-5.5-21.9l-80-48c-7.6-4.5-17.4-2.1-22 5.5s-2.1 17.4 5.5 22l80 48z"/><path class="fa-primary" d="M64 32c35.3 0 64 28.7 64 64v32H0V96C0 60.7 28.7 32 64 32zm64 192H0V160H128v64zm-16 32c-14.5 19.3-26.1 40.8-34.3 64H0V256H112zM391.6 86.1L478 116.2l6.3 7.7c7.6 9.3 11.7 21 11.7 33c0 23.1-15.2 43.5-37.3 50.2l-27.1 8.1-78.2-41.7c-7.1-3.8-13-9.2-17.3-15.7c-4.3 6.5-10.2 11.9-17.3 15.7l-78.2 41.7-27.1-8.1c-22.2-6.6-37.3-27-37.3-50.2c0-12 4.1-23.7 11.7-33l6.3-7.7 86.4-30.1c21.7-7.5 44 1.4 55.6 18.6c11.5-17.3 33.9-26.2 55.6-18.6zM312 232a24 24 0 1 1 48 0 24 24 0 1 1 -48 0zm-8-104a16 16 0 1 0 -32 0 16 16 0 1 0 32 0zm80 16a16 16 0 1 0 0-32 16 16 0 1 0 0 32z"/></svg>