<svg xmlns="http://www.w3.org/2000/svg" viewBox="0 0 512 512"><!--! Font Awesome Pro 6.5.1 by @fontawesome - https://fontawesome.com License - https://fontawesome.com/license (Commercial License) Copyright 2023 Fonticons, Inc. --><defs><style>.fa-secondary{opacity:.4}</style></defs><path class="fa-secondary" d="M98.4 19.8c-5 12-2.2 25.7 6.9 34.9l128 128c12.5 12.5 32.8 12.5 45.3 0l128-128c6.1-6.1 9.4-14.3 9.4-22.6c0-4.1-.8-8.3-2.4-12.2C408.6 7.8 396.9 0 384 0L128 0c-12.9 0-24.6 7.8-29.6 19.8zm0 472.5c-5-12-2.2-25.7 6.9-34.9l128-128c12.5-12.5 32.8-12.5 45.3 0l128 128c6.1 6.1 9.4 14.3 9.4 22.6c0 4.1-.8 8.3-2.4 12.2c-5 12-16.6 19.8-29.6 19.8l-256 0c-12.9 0-24.6-7.8-29.6-19.8z"/><path class="fa-primary" d="M0 256c0-13.3 10.7-24 24-24l464 0c13.3 0 24 10.7 24 24s-10.7 24-24 24L24 280c-13.3 0-24-10.7-24-24z"/></svg>