<svg xmlns="http://www.w3.org/2000/svg" viewBox="0 0 512 512"><!--! Font Awesome Pro 6.5.1 by @fontawesome - https://fontawesome.com License - https://fontawesome.com/license (Commercial License) Copyright 2023 Fonticons, Inc. --><defs><style>.fa-secondary{opacity:.4}</style></defs><path class="fa-secondary" d="M495.8 319.6V312c0-13.3-10.7-24-24-24h-7.6c-.2 0-.5 0-.7 0H343.8c-9.7 0-18.5 5.8-22.2 14.8s-1.7 19.3 5.2 26.2l41.1 41.1c-62.6 61.5-163.1 61.2-225.3-1c-17.5-17.5-30.1-38-37.8-59.8c-5.9-16.7-24.2-25.4-40.8-19.5s-25.4 24.2-19.5 40.8C55.3 361.3 73 390 97.4 414.4c87.2 87.2 228.3 87.5 315.8 1L454.8 457c6.9 6.9 17.2 8.9 26.2 5.2s14.8-12.5 14.8-22.2V320.4c0-.2 0-.5 0-.7z"/><path class="fa-primary" d="M406.6 202.6c-7.7-21.8-20.2-42.3-37.8-59.8c-62.2-62.2-162.7-62.5-225.3-1L184.7 183c6.9 6.9 8.9 17.2 5.2 26.2s-12.5 14.8-22.2 14.8H48.3c0 0 0 0 0 0H39.8c-13.3 0-24-10.7-24-24V72c0-9.7 5.8-18.5 14.8-22.2s19.3-1.7 26.2 5.2L98.3 96.6c87.6-86.5 228.7-86.2 315.8 1c24.4 24.4 42.1 53.1 52.9 83.7c5.9 16.7-2.9 34.9-19.5 40.8s-34.9-2.9-40.8-19.5z"/></svg>