<svg xmlns="http://www.w3.org/2000/svg" viewBox="0 0 640 512"><!--! Font Awesome Pro 6.5.1 by @fontawesome - https://fontawesome.com License - https://fontawesome.com/license (Commercial License) Copyright 2023 Fonticons, Inc. --><defs><style>.fa-secondary{opacity:.4}</style></defs><path class="fa-secondary" d="M13.5 253.6C5.5 249.7 0 241.5 0 232c0-13.3 10.7-24 24-24H232c13.3 0 24 10.7 24 24s-10.7 24-24 24h-2.7l-49.2 73.8c-2.7 4-4.1 8.8-4.1 13.6v1.9c0 12.5 10.1 22.6 22.6 22.6c6 0 11.8-2.4 16-6.6L493.3 82.7c12-12 28.3-18.7 45.3-18.7h30.3c15 0 29.5 5.2 41 14.8l24.3 20.3c3.7 3.1 5.9 7.7 5.9 12.6c0 9-7.3 16.3-16.3 16.3H559.5c-9.8 0-19 4.5-25.1 12.1L288.6 450.6C257.9 489.4 211.2 512 161.8 512C72.4 512 0 439.6 0 350.2v-7C0 333.1 .9 323 2.7 313l10.8-59.4zM120 256a24 24 0 1 0 0 48 24 24 0 1 0 0-48zM88 392a24 24 0 1 0 0-48 24 24 0 1 0 0 48z"/><path class="fa-primary" d="M256 153.6c0 7.6-.7 15.1-2 22.4H176.4c-7.7-23.3-29.5-44.6-41-54.6c-4.3-3.7-10.5-3.7-14.8 0c-11.6 10-33.4 31.3-41 54.6H2c-1.3-7.3-2-14.8-2-22.4C0 92.3 50 37.9 85.8 10.1c4-3.1 8.7-4.6 13.4-4.7c6.4-.1 12.8 2.5 17.6 7.4l36.8 36.8 9.1-9.1c9.4-9.4 24.4-10.1 33.8-.8C243.6 86.4 256 128.1 256 153.6zM353 223L319 257l-8-8c-9.4-9.4-9.4-24.6 0-33.9s24.6-9.4 33.9 0l8 8zm48-48L367 209l-8-8c-9.4-9.4-9.4-24.6 0-33.9s24.6-9.4 33.9 0l8 8zm48-48L415 161l-8-8c-9.4-9.4-9.4-24.6 0-33.9s24.6-9.4 33.9 0l8 8zM120 256a24 24 0 1 1 0 48 24 24 0 1 1 0-48zM88 344a24 24 0 1 1 0 48 24 24 0 1 1 0-48z"/></svg>