<svg xmlns="http://www.w3.org/2000/svg" viewBox="0 0 512 512"><!--! Font Awesome Pro 6.5.1 by @fontawesome - https://fontawesome.com License - https://fontawesome.com/license (Commercial License) Copyright 2023 Fonticons, Inc. --><defs><style>.fa-secondary{opacity:.4}</style></defs><path class="fa-secondary" d="M256 0c-17.7 0-32 14.3-32 32V64h64V32c0-17.7-14.3-32-32-32zm32 480V256H224V480c0 17.7 14.3 32 32 32s32-14.3 32-32z"/><path class="fa-primary" d="M441.6 75.5l61.9 74.2c4.9 5.9 4.9 14.6 0 20.5l-61.9 74.2c-6.1 7.3-15.1 11.5-24.6 11.5H64c-17.7 0-32-14.3-32-32V96c0-17.7 14.3-32 32-32H417c9.5 0 18.5 4.2 24.6 11.5z"/></svg>