<svg xmlns="http://www.w3.org/2000/svg" viewBox="0 0 640 512"><!--! Font Awesome Pro 6.5.1 by @fontawesome - https://fontawesome.com License - https://fontawesome.com/license (Commercial License) Copyright 2023 Fonticons, Inc. --><defs><style>.fa-secondary{opacity:.4}</style></defs><path class="fa-secondary" d="M64 32C64 14.3 78.3 0 96 0s32 14.3 32 32l320 0c0-17.7 14.3-32 32-32s32 14.3 32 32h16c26.5 0 48 21.5 48 48V187.9c-3.2 .8-6.4 2.1-9.3 3.7c-13.6 7.3-22.7 21.7-22.7 38.3V288c0 17.7-14.3 32-32 32s-32-14.3-32-32V229.9c0-16.6-9.1-31-22.7-38.3c-14.1-7.6-32.4-7.1-46.7 4.6C374.9 225.5 352 270.1 352 320c0 36 11.9 69.3 32 96H48c-26.5 0-48-21.5-48-48V80C0 53.5 21.5 32 48 32l16 0zm0 416h64l0 32c0 17.7-14.3 32-32 32s-32-14.3-32-32l0-32zM512 192l-.3 0h.7l-.3 0z"/><path class="fa-primary" d="M592 419.9c29.3-23.5 48-59.5 48-99.9c0-39.9-18.3-75.6-46.9-99c-7.1-5.9-17.1-.3-17.1 9V288c0 35.3-28.7 64-64 64s-64-28.7-64-64V229.9c0-9.2-9.9-14.8-17.1-9c-28.6 23.5-46.9 59.1-46.9 99c0 40.4 18.7 76.5 48 99.9V476c0 19.9 16.1 36 36 36h88c19.9 0 36-16.1 36-36V419.9zM512 192l-.3 0h.7l-.3 0z"/></svg>