<svg xmlns="http://www.w3.org/2000/svg" viewBox="0 0 576 512"><!--! Font Awesome Pro 6.5.1 by @fontawesome - https://fontawesome.com License - https://fontawesome.com/license (Commercial License) Copyright 2023 Fonticons, Inc. --><defs><style>.fa-secondary{opacity:.4}</style></defs><path class="fa-secondary" d="M128 32H64C64 14.3 78.3 0 96 0s32 14.3 32 32zM64 416h64l0 64c0 17.7-14.3 32-32 32s-32-14.3-32-32l0-64zm384 0h64l0 64c0 17.7-14.3 32-32 32s-32-14.3-32-32l0-64zm0-384c0-17.7 14.3-32 32-32s32 14.3 32 32H448z"/><path class="fa-primary" d="M0 80C0 53.5 21.5 32 48 32H528c26.5 0 48 21.5 48 48V368c0 26.5-21.5 48-48 48H48c-26.5 0-48-21.5-48-48V80z"/></svg>