<svg xmlns="http://www.w3.org/2000/svg" viewBox="0 0 512 512"><!--! Font Awesome Pro 6.5.1 by @fontawesome - https://fontawesome.com License - https://fontawesome.com/license (Commercial License) Copyright 2023 Fonticons, Inc. --><defs><style>.fa-secondary{opacity:.4}</style></defs><path class="fa-secondary" d="M431.4 80.6a56 56 0 1 0 -79.2 79.2 56 56 0 1 0 79.2-79.2zM142.9 369.1A32 32 0 1 0 97.6 414.4a32 32 0 1 0 45.3-45.3zm271.5 0a32 32 0 1 0 -45.3 45.3 32 32 0 1 0 45.3-45.3zm-260.2-215A48 48 0 1 0 86.3 86.3a48 48 0 1 0 67.9 67.9z"/><path class="fa-primary" d="M256 12a52 52 0 1 0 0 104 52 52 0 1 0 0-104zm0 404a32 32 0 1 0 0 64 32 32 0 1 0 0-64zM448 224a32 32 0 1 0 0 64 32 32 0 1 0 0-64zM96 256a32 32 0 1 0 -64 0 32 32 0 1 0 64 0z"/></svg>