<svg xmlns="http://www.w3.org/2000/svg" viewBox="0 0 640 512"><!--! Font Awesome Pro 6.5.1 by @fontawesome - https://fontawesome.com License - https://fontawesome.com/license (Commercial License) Copyright 2023 Fonticons, Inc. --><defs><style>.fa-secondary{opacity:.4}</style></defs><path class="fa-secondary" d="M600.8 445.6c4.6-8.8 7.2-18.9 7.2-29.6V96c0-35.3-28.7-64-64-64H96c-6.7 0-13.1 1-19.2 2.9L392.6 282.4c-5.3-4.4-8.6-11-8.6-18.4c0-13.3 10.7-24 24-24h80c13.3 0 24 10.7 24 24s-10.7 24-24 24H408c-5.3 0-10.2-1.7-14.2-4.6L461 336h27c13.3 0 24 10.7 24 24c0 4.8-1.4 9.3-3.8 13l92.6 72.6zM487.4 480L365.5 384H312c-13.3 0-24-10.7-24-24c0-11.1 7.5-20.4 17.7-23.2l-62-48.8H152c-13.3 0-24-10.7-24-24s10.7-24 24-24h30.8L32 121.2V416c0 35.3 28.7 64 64 64H487.4zM152 336h80c13.3 0 24 10.7 24 24s-10.7 24-24 24H152c-13.3 0-24-10.7-24-24s10.7-24 24-24z"/><path class="fa-primary" d="M5.1 9.2C13.3-1.2 28.4-3.1 38.8 5.1l592 464c10.4 8.2 12.3 23.3 4.1 33.7s-23.3 12.3-33.7 4.1L9.2 42.9C-1.2 34.7-3.1 19.6 5.1 9.2z"/></svg>