<svg xmlns="http://www.w3.org/2000/svg" viewBox="0 0 640 512"><!--! Font Awesome Pro 6.5.1 by @fontawesome - https://fontawesome.com License - https://fontawesome.com/license (Commercial License) Copyright 2023 Fonticons, Inc. --><defs><style>.fa-secondary{opacity:.4}</style></defs><path class="fa-secondary" d="M534.6 502.6c-12.5 12.5-32.8 12.5-45.3 0l-96-96c-12.5-12.5-12.5-32.8 0-45.3s32.8-12.5 45.3 0L480 402.7V160c0-35.3-28.7-64-64-64s-64 28.7-64 64v96l-64 0V160c0-70.7 57.3-128 128-128s128 57.3 128 128V402.7l41.4-41.4c12.5-12.5 32.8-12.5 45.3 0s12.5 32.8 0 45.3l-96 96z"/><path class="fa-primary" d="M150.6 9.4c-12.5-12.5-32.8-12.5-45.3 0l-96 96c-12.5 12.5-12.5 32.8 0 45.3s32.8 12.5 45.3 0L96 109.3V352c0 70.7 57.3 128 128 128s128-57.3 128-128V256l-64 0v96c0 35.3-28.7 64-64 64s-64-28.7-64-64V109.3l41.4 41.4c12.5 12.5 32.8 12.5 45.3 0s12.5-32.8 0-45.3l-96-96z"/></svg>