<svg xmlns="http://www.w3.org/2000/svg" viewBox="0 0 576 512"><!--! Font Awesome Pro 6.5.1 by @fontawesome - https://fontawesome.com License - https://fontawesome.com/license (Commercial License) Copyright 2023 Fonticons, Inc. --><defs><style>.fa-secondary{opacity:.4}</style></defs><path class="fa-secondary" d="M268.6 166.5c11.5-8.7 27.3-8.7 38.8 0l168 128c6.6 5 11 12.5 12.3 20.7l24 160c1.4 9.2-1.3 18.6-7.4 25.6s-14.9 11.1-24.2 11.1H464 403.8c-12.1 0-23.2-6.8-28.6-17.7L306.7 357.5c-1.7-3.4-5.1-5.5-8.8-5.5c-5.5 0-9.9 4.4-9.9 9.9V480c0 17.7-14.3 32-32 32H240 96c-9.3 0-18.2-4.1-24.2-11.1s-8.8-16.4-7.4-25.6l24-160c1.2-8.2 5.6-15.7 12.3-20.7l168-128z"/><path class="fa-primary" d="M454.2 7.9c8.9-9.9 24-10.7 33.9-1.8l80 72c5.1 4.6 7.9 11 7.9 17.8s-2.9 13.3-7.9 17.8l-80 72c-9.9 8.9-25 8.1-33.9-1.8s-8.1-25 1.8-33.9L489.5 120 86.5 120l33.5 30.2c9.9 8.9 10.7 24 1.8 33.9s-24 10.7-33.9 1.8l-80-72C2.9 109.3 0 102.8 0 96s2.9-13.3 7.9-17.8l80-72c9.9-8.9 25-8.1 33.9 1.8s8.1 25-1.8 33.9L86.5 72l402.9 0L455.9 41.8c-9.9-8.9-10.7-24-1.8-33.9z"/></svg>