<svg xmlns="http://www.w3.org/2000/svg" viewBox="0 0 640 512"><!--! Font Awesome Pro 6.5.1 by @fontawesome - https://fontawesome.com License - https://fontawesome.com/license (Commercial License) Copyright 2023 Fonticons, Inc. --><defs><style>.fa-secondary{opacity:.4}</style></defs><path class="fa-secondary" d="M96 96c0-35.3 28.7-64 64-64H576c35.3 0 64 28.7 64 64v48c0 8.8-7.4 15.7-15.7 18.6C605.5 169.1 592 187 592 208s13.5 38.9 32.3 45.4c8.3 2.9 15.7 9.8 15.7 18.6v48c0 35.3-28.7 64-64 64H160c-35.3 0-64-28.7-64-64V96zm448 16a16 16 0 1 0 -32 0 16 16 0 1 0 32 0zm0 64a16 16 0 1 0 -32 0 16 16 0 1 0 32 0zm-16 80a16 16 0 1 0 0-32 16 16 0 1 0 0 32zm16 48a16 16 0 1 0 -32 0 16 16 0 1 0 32 0z"/><path class="fa-primary" d="M48 120c0-13.3-10.7-24-24-24S0 106.7 0 120V360c0 66.3 53.7 120 120 120H520c13.3 0 24-10.7 24-24s-10.7-24-24-24H120c-39.8 0-72-32.2-72-72V120zm496-8a16 16 0 1 0 -32 0 16 16 0 1 0 32 0zm0 64a16 16 0 1 0 -32 0 16 16 0 1 0 32 0zm-16 80a16 16 0 1 0 0-32 16 16 0 1 0 0 32zm16 48a16 16 0 1 0 -32 0 16 16 0 1 0 32 0z"/></svg>