<svg xmlns="http://www.w3.org/2000/svg" viewBox="0 0 640 512"><!--! Font Awesome Pro 6.5.1 by @fontawesome - https://fontawesome.com License - https://fontawesome.com/license (Commercial License) Copyright 2023 Fonticons, Inc. --><defs><style>.fa-secondary{opacity:.4}</style></defs><path class="fa-secondary" d="M176 512a80 80 0 1 0 0-160 80 80 0 1 0 0 160zm288 0a80 80 0 1 0 0-160 80 80 0 1 0 0 160z"/><path class="fa-primary" d="M48 0C21.5 0 0 21.5 0 48V368c0 26.5 21.5 48 48 48H65.1c7.8-54.3 54.4-96 110.9-96s103.1 41.7 110.9 96h66.3c7.8-54.3 54.4-96 110.9-96s103.1 41.7 110.9 96H576h32c17.7 0 32-14.3 32-32s-14.3-32-32-32V288 256 237.3c0-17-6.7-33.3-18.7-45.3L512 114.7c-12-12-28.3-18.7-45.3-18.7H416V48c0-26.5-21.5-48-48-48H48zM416 160h50.7L544 237.3V256H416V160zM89.5 77.5c.7-5.9 5.6-10.3 11.6-10.3c6.2 0 11.3 4.8 11.6 11l4.4 75.5c.2 3 2.6 5.3 5.6 5.3s5.5-2.3 5.6-5.3l4.4-75.8c.3-6 5.3-10.6 11.3-10.6s10.9 4.7 11.3 10.6l4.4 75.8c.2 3 2.6 5.3 5.6 5.3s5.5-2.3 5.6-5.3l4.4-75.5c.4-6.2 5.5-11 11.6-11c5.9 0 10.9 4.4 11.6 10.3l9.5 81.4c0 29.4-20.5 54-48 60.3V272c0 8.8-7.2 16-16 16s-16-7.2-16-16V219.2c-27.5-6.3-48-30.9-48-60.3l9.5-81.4zM256 154.9c0-63.1 41.3-86 50.3-90.2c1.1-.5 2.3-.8 3.6-.8c5.6 0 10.1 4.5 10.1 10.1V128v96 80c0 8.8-7.2 16-16 16s-16-7.2-16-16V224c-17.7 0-32-14.3-32-32v-37z"/></svg>