<svg xmlns="http://www.w3.org/2000/svg" viewBox="0 0 640 512"><!--! Font Awesome Pro 6.5.1 by @fontawesome - https://fontawesome.com License - https://fontawesome.com/license (Commercial License) Copyright 2023 Fonticons, Inc. --><defs><style>.fa-secondary{opacity:.4}</style></defs><path class="fa-secondary" d="M0 24C0 10.7 10.7 0 24 0H328c13.3 0 24 10.7 24 24s-10.7 24-24 24h-8v96h8c13.3 0 24 10.7 24 24s-10.7 24-24 24H24c-13.3 0-24-10.7-24-24s10.7-24 24-24h8V48H24C10.7 48 0 37.3 0 24zM80 144h32V48H80v96zm80 0h32V48H160v96zm80 0h32V48H240v96zM160 352a80 80 0 1 1 0 160 80 80 0 1 1 0-160zm320 0a80 80 0 1 1 0 160 80 80 0 1 1 0-160z"/><path class="fa-primary" d="M416 96c-17.7 0-32 14.3-32 32v96H48c-26.5 0-48 21.5-48 48v96c0 26.5 21.5 48 48 48h1.1c7.8-54.3 54.4-96 110.9-96s103.1 41.7 110.9 96h98.3c7.8-54.3 54.4-96 110.9-96s103.1 41.7 110.9 96H592c26.5 0 48-21.5 48-48V288 256 237.3c0-17-6.7-33.3-18.7-45.3L544 114.7c-12-12-28.3-18.7-45.3-18.7H416zM576 256H448V160h50.7L576 237.3V256z"/></svg>