<svg xmlns="http://www.w3.org/2000/svg" viewBox="0 0 640 512"><!--! Font Awesome Pro 6.5.1 by @fontawesome - https://fontawesome.com License - https://fontawesome.com/license (Commercial License) Copyright 2023 Fonticons, Inc. --><defs><style>.fa-secondary{opacity:.4}</style></defs><path class="fa-secondary" d="M24 0C10.7 0 0 10.7 0 24S10.7 48 24 48h8V98.7C37 97 42.4 96 48 96H80V48h56V96h48V48h48V96h48V48h56V96h48V48H616c13.3 0 24-10.7 24-24s-10.7-24-24-24H24zM240 432A80 80 0 1 0 80 432a80 80 0 1 0 160 0zm240 80a80 80 0 1 0 0-160 80 80 0 1 0 0 160z"/><path class="fa-primary" d="M496 96c0-17.7 14.3-32 32-32s32 14.3 32 32h16c35.3 0 64 28.7 64 64v96V368c0 26.5-21.5 48-48 48h-1.1c-7.8-54.3-54.4-96-110.9-96s-103.1 41.7-110.9 96H270.9c-7.8-54.3-54.4-96-110.9-96s-103.1 41.7-110.9 96H48c-26.5 0-48-21.5-48-48V256H400h16V240 96h32 48zM384 96V224H0V144c0-26.5 21.5-48 48-48H384zM576 256V160H480v96h96z"/></svg>