<svg xmlns="http://www.w3.org/2000/svg" viewBox="0 0 640 512"><!--! Font Awesome Pro 6.5.1 by @fontawesome - https://fontawesome.com License - https://fontawesome.com/license (Commercial License) Copyright 2023 Fonticons, Inc. --><defs><style>.fa-secondary{opacity:.4}</style></defs><path class="fa-secondary" d="M224 448c64.7 0 121.9-32 156.7-81L529 444.4c4.6 2.4 9.6 3.6 14.8 3.6h2c9 0 17.6-3.8 23.7-10.5l63.3-69.6c4.6-5.1 7.2-11.7 7.2-18.5c0-8.4-3.9-16.4-10.5-21.6l-127-100.4c-5.2-4.1-12.4-4.6-18.2-1.2l-19.3 11.6c-10.3 6.2-23.4 5.5-33-1.7c-9.7-7.3-14-19.8-10.8-31.5l6.5-24c1.7-6.2-.5-12.8-5.5-16.8l-69.8-55.2C322.4 84.8 286.4 70 248.6 65.5c-.6-.1-1.1-.1-1.7-.1c-7.5-.9-15.2-1.4-22.9-1.4C118 64 32 150 32 256s86 192 192 192zm0-256a64 64 0 1 1 0 128 64 64 0 1 1 0-128z"/><path class="fa-primary" d="M0 128c0 28.4 18.5 52.5 44.1 60.8c6.1-16.3 14.4-31.6 24.4-45.5c-1.4 .4-2.9 .6-4.5 .6c-8.8 0-16-7.2-16-16s7.2-16 16-16s16 7.2 16 16c0 .3 0 .7 0 1c11.4-12.9 24.5-24.3 39-33.8C107.8 76.5 87.4 64 64 64C28.7 64 0 92.7 0 128zM224 320a64 64 0 1 0 0-128 64 64 0 1 0 0 128z"/></svg>