<svg xmlns="http://www.w3.org/2000/svg" viewBox="0 0 512 512"><!--! Font Awesome Pro 6.5.1 by @fontawesome - https://fontawesome.com License - https://fontawesome.com/license (Commercial License) Copyright 2023 Fonticons, Inc. --><path d="M379.3 363.3c-6.2 6.2-16.4 6.2-22.6 0s-6.2-16.4 0-22.6L457.4 240H80c-26.5 0-48 21.5-48 48V464c0 8.8-7.2 16-16 16s-16-7.2-16-16V288c0-44.2 35.8-80 80-80H457.4L356.7 107.3c-6.2-6.2-6.2-16.4 0-22.6s16.4-6.2 22.6 0l128 128c6.2 6.2 6.2 16.4 0 22.6l-128 128z"/></svg>