<svg xmlns="http://www.w3.org/2000/svg" viewBox="0 0 512 512"><!--! Font Awesome Pro 6.5.1 by @fontawesome - https://fontawesome.com License - https://fontawesome.com/license (Commercial License) Copyright 2023 Fonticons, Inc. --><path d="M442.6 210.6C422.2 126.5 346.4 64 256 64c-71.1 0-133.1 38.6-166.3 96H144c8.8 0 16 7.2 16 16s-7.2 16-16 16H63.3 48c-8.8 0-16-7.2-16-16V80c0-8.8 7.2-16 16-16s16 7.2 16 16v60.6C103.2 75.5 174.5 32 256 32c106.4 0 195.5 74.2 218.3 173.6c2.2 9.6-5.4 18.4-15.3 18.4c-7.9 0-14.6-5.7-16.5-13.4zM69.4 301.4C89.8 385.5 165.6 448 256 448c71.1 0 133.1-38.6 166.3-96H367.8c-8.8 0-16-7.2-16-16s7.2-16 16-16h80.9 15.1c8.8 0 16 7.2 16 16v96c0 8.8-7.2 16-16 16s-16-7.2-16-16V371.8C408.6 436.6 337.3 480 256 480C149.6 480 60.5 405.8 37.7 306.4C35.5 296.8 43.1 288 53 288c7.9 0 14.6 5.7 16.5 13.4z"/></svg>