<svg xmlns="http://www.w3.org/2000/svg" viewBox="0 0 576 512"><!--! Font Awesome Pro 6.5.1 by @fontawesome - https://fontawesome.com License - https://fontawesome.com/license (Commercial License) Copyright 2023 Fonticons, Inc. --><path d="M322.2 24.1c-4.5-7.6-1.9-17.4 5.8-21.9s17.4-1.9 21.9 5.8L457.2 192H511h33 16c8.8 0 16 7.2 16 16s-7.2 16-16 16H536L476.1 463.5C469 492 443.4 512 414 512H162c-29.4 0-55-20-62.1-48.5L40 224H16c-8.8 0-16-7.2-16-16s7.2-16 16-16H32 65h53.8L226.2 7.9c4.5-7.6 14.2-10.2 21.9-5.8s10.2 14.2 5.8 21.9L155.9 192H420.1l-98-167.9zM503 224H73l57.9 231.8c3.6 14.2 16.4 24.2 31 24.2H414c14.7 0 27.5-10 31-24.2L503 224zM192 352c0-8.8 7.2-16 16-16h64V272c0-8.8 7.2-16 16-16s16 7.2 16 16v64h64c8.8 0 16 7.2 16 16s-7.2 16-16 16H304v64c0 8.8-7.2 16-16 16s-16-7.2-16-16V368H208c-8.8 0-16-7.2-16-16z"/></svg>