<svg xmlns="http://www.w3.org/2000/svg" viewBox="0 0 640 512"><!--! Font Awesome Pro 6.5.1 by @fontawesome - https://fontawesome.com License - https://fontawesome.com/license (Commercial License) Copyright 2023 Fonticons, Inc. --><path d="M320 32H64C46.3 32 32 46.3 32 64V448c0 17.7 14.3 32 32 32h64V416c0-35.3 28.7-64 64-64s64 28.7 64 64v64h35.3c3.4 11.9 9.2 22.7 16.8 32H256 224 160 128 64c-35.3 0-64-28.7-64-64V64C0 28.7 28.7 0 64 0H320c35.3 0 64 28.7 64 64h-8c-8.3 0-16.4 1.2-24 3.3V64c0-17.7-14.3-32-32-32zM306.3 98.3c-6.7 8.7-11.9 18.8-15 29.7H288 256v32h32v32H248c-13.3 0-24-10.7-24-24V120c0-13.3 10.7-24 24-24h48c3.7 0 7.2 .8 10.3 2.3zM288 224v32H256v32h32v32H248c-13.3 0-24-10.7-24-24V248c0-13.3 10.7-24 24-24h40zM192 384c-17.7 0-32 14.3-32 32v64h64V416c0-17.7-14.3-32-32-32zM88 96h48c13.3 0 24 10.7 24 24v48c0 13.3-10.7 24-24 24H88c-13.3 0-24-10.7-24-24V120c0-13.3 10.7-24 24-24zm8 64h32V128H96v32zm-8 64h48c13.3 0 24 10.7 24 24v48c0 13.3-10.7 24-24 24H88c-13.3 0-24-10.7-24-24V248c0-13.3 10.7-24 24-24zm8 64h32V256H96v32zM384 128c-17.7 0-32 14.3-32 32V448c0 17.7 14.3 32 32 32H576c17.7 0 32-14.3 32-32V160c0-17.7-14.3-32-32-32H384zm-64 32c0-35.3 28.7-64 64-64H576c35.3 0 64 28.7 64 64V448c0 35.3-28.7 64-64 64H384c-35.3 0-64-28.7-64-64V160zm56 48a24 24 0 1 1 48 0 24 24 0 1 1 -48 0zm24 72a24 24 0 1 1 0 48 24 24 0 1 1 0-48zM376 400a24 24 0 1 1 48 0 24 24 0 1 1 -48 0zm88-208h96c8.8 0 16 7.2 16 16s-7.2 16-16 16H464c-8.8 0-16-7.2-16-16s7.2-16 16-16zM448 304c0-8.8 7.2-16 16-16h96c8.8 0 16 7.2 16 16s-7.2 16-16 16H464c-8.8 0-16-7.2-16-16zm16 80h96c8.8 0 16 7.2 16 16s-7.2 16-16 16H464c-8.8 0-16-7.2-16-16s7.2-16 16-16z"/></svg>