<svg xmlns="http://www.w3.org/2000/svg" viewBox="0 0 603 512"><!--! Font Awesome Pro 6.5.1 by @fontawesome - https://fontawesome.com License - https://fontawesome.com/license (Commercial License) Copyright 2023 Fonticons, Inc. --><path d="M60.6 30.1H301.5c16.6 0 30.1 13.5 30.1 30.1V180.7c9.3-7 19.4-12.9 30.1-17.6V60.2C361.7 27 334.8 0 301.5 0H60.6C27.3 0 .3 27 .3 60.2V421.6c0 33.3 27 60.2 60.2 60.2h60.2 30.1 60.2 30.1 60.2c27.5 0 50.7-18.5 57.9-43.7c-9.9-4.5-19.2-10.1-27.8-16.5c0 16.6-13.5 30.1-30.1 30.1H241.3V391.5c0-33.3-27-60.2-60.2-60.2s-60.2 27-60.2 60.2v60.2H60.6c-16.6 0-30.1-13.5-30.1-30.1V60.2c0-16.6 13.5-30.1 30.1-30.1zM278.9 210.8H233.7c-12.5 0-22.6 10.1-22.6 22.6v45.2c0 12.5 10.1 22.6 22.6 22.6h37.6c0-30.5 9.1-58.8 24.6-82.5c-4.1-4.8-10.3-7.8-17.1-7.8zM211.1 391.5v60.2H150.9V391.5c0-16.6 13.5-30.1 30.1-30.1s30.1 13.5 30.1 30.1zM60.6 112.9v45.2c0 12.5 10.1 22.6 22.6 22.6h45.2c12.5 0 22.6-10.1 22.6-22.6V112.9c0-12.5-10.1-22.6-22.6-22.6H83.1c-12.5 0-22.6 10.1-22.6 22.6zm30.1 7.5h30.1v30.1H90.7V120.5zM233.7 90.4c-12.5 0-22.6 10.1-22.6 22.6v45.2c0 12.5 10.1 22.6 22.6 22.6h45.2c12.5 0 22.6-10.1 22.6-22.6V112.9c0-12.5-10.1-22.6-22.6-22.6H233.7zm7.5 60.2V120.5h30.1v30.1H241.3zM60.6 233.4v45.2c0 12.5 10.1 22.6 22.6 22.6h45.2c12.5 0 22.6-10.1 22.6-22.6V233.4c0-12.5-10.1-22.6-22.6-22.6H83.1c-12.5 0-22.6 10.1-22.6 22.6zm30.1 7.5h30.1v30.1H90.7V240.9zm150.6 30.1V240.9h30.1v30.1H241.3zM422 211a90.4 90.4 0 1 1 0 180.7A90.4 90.4 0 1 1 422 211zm0 210.8c27.8 0 53.5-9.4 73.9-25.3L577 477.6c5.9 5.9 15.4 5.9 21.3 0s5.9-15.4 0-21.3l-81.1-81.1c15.9-20.4 25.3-46 25.3-73.9c0-66.5-53.9-120.5-120.5-120.5s-120.5 53.9-120.5 120.5s53.9 120.5 120.5 120.5z"/></svg>