<svg xmlns="http://www.w3.org/2000/svg" viewBox="0 0 512 512"><!--! Font Awesome Pro 6.5.1 by @fontawesome - https://fontawesome.com License - https://fontawesome.com/license (Commercial License) Copyright 2023 Fonticons, Inc. --><path d="M226.4 30.2l42.5 45.2c2.8 3 6.7 4.6 10.8 4.6s8-1.9 10.7-4.9l18.8-21.4c14.9 14.4 30.2 33.8 41.9 55.1c12.3 22.3 20 45.5 20 66c0 28.8-10.2 55.1-27.2 75.3c.5-3.7 .8-7.4 .8-11.3c0-52.2-58-100.4-79.4-116.5c-4.7-3.5-11-3.5-15.7 0c-21.5 16.1-79.4 64.4-79.4 116.5c0 5.4 .6 10.7 1.6 15.8c-19.2-20.7-30.9-48.7-30.9-79.8c0-25.9 11.1-53 28.3-78.9c16.5-24.9 37.7-47.7 57.2-65.6zM256 290.9c-1.2 0-2.4 0-3.6-.1c-31.4-2.4-53.1-26.5-53.1-52.2c0-15.8 9.2-34.3 24.9-53.2c11-13.2 23.5-24.5 33.3-32.6c9.8 8 22.2 19.3 33.3 32.6c15.7 18.9 24.9 37.4 24.9 53.2c0 24.6-20 47.8-49.3 51.8c-3.4 .3-6.9 .5-10.4 .5zM111.9 174.7c0 78.7 60.7 142.6 139.2 145.2c2.1 .1 4.3 .2 6.4 .2c4 0 7.8-.2 11.7-.7c73.8-6.6 131-68.7 131-144.7c0-27.2-9.9-55.3-23.6-80.1C362.9 69.7 344.8 47 327.1 30.4c-10.1-9.5-25.9-9.5-36-.1c-.4 .3-.7 .7-1 1.1L279.1 43.8l-34-36.1c-.2-.3-.5-.5-.7-.7c-10.1-9.2-25.6-9.3-35.7-.1c-21.1 19.2-45 44.4-63.8 72.9c-18.7 28.3-33.1 61-33.1 94.9zM21.9 289.1c-8.2-3.3-17.5 .7-20.8 8.9s.7 17.5 8.9 20.8L212.9 400 10.1 481.1c-8.2 3.3-12.2 12.6-8.9 20.8s12.6 12.2 20.8 8.9L256 417.2l234.1 93.6c8.2 3.3 17.5-.7 20.8-8.9s-.7-17.5-8.9-20.8L299.1 400l202.9-81.1c8.2-3.3 12.2-12.6 8.9-20.8s-12.6-12.2-20.8-8.9L256 382.8 21.9 289.1z"/></svg>