<svg xmlns="http://www.w3.org/2000/svg" viewBox="0 0 448 512"><!--! Font Awesome Pro 6.5.1 by @fontawesome - https://fontawesome.com License - https://fontawesome.com/license (Commercial License) Copyright 2023 Fonticons, Inc. --><path d="M368 448c-8.8 0-16-7.2-16-16l0-352c0-8.8 7.2-16 16-16h32c8.8 0 16 7.2 16 16l0 352c0 8.8-7.2 16-16 16H368zm-48-16c0 26.5 21.5 48 48 48h32c26.5 0 48-21.5 48-48l0-352c0-26.5-21.5-48-48-48H368c-26.5 0-48 21.5-48 48l0 352zM80 384H48c-8.8 0-16-7.2-16-16L32 80c0-8.8 7.2-16 16-16H80c8.8 0 16 7.2 16 16l0 288c0 8.8-7.2 16-16 16zM48 416H80c26.5 0 48-21.5 48-48l0-288c0-26.5-21.5-48-48-48H48C21.5 32 0 53.5 0 80L0 368c0 26.5 21.5 48 48 48zM240 256H208c-8.8 0-16-7.2-16-16l0-160c0-8.8 7.2-16 16-16h32c8.8 0 16 7.2 16 16V240c0 8.8-7.2 16-16 16zm-32 32h32c26.5 0 48-21.5 48-48V80c0-26.5-21.5-48-48-48H208c-26.5 0-48 21.5-48 48l0 160c0 26.5 21.5 48 48 48z"/></svg>