<svg xmlns="http://www.w3.org/2000/svg" viewBox="0 0 512 512"><!--! Font Awesome Pro 6.5.1 by @fontawesome - https://fontawesome.com License - https://fontawesome.com/license (Commercial License) Copyright 2023 Fonticons, Inc. --><path d="M480 244v12H413.3c-6.6-18.6-24.4-32-45.3-32s-38.7 13.4-45.3 32H32c0-9.3 4.6-18 12.4-23.1l148.7-99.2c-.7 3.3-1.1 6.7-1.1 10.3c0 26.5 21.5 48 48 48s48-21.5 48-48c0-23.6-17-43.2-39.4-47.2l47.2-31.5c1.3-.8 2.8-1.3 4.3-1.3c99.4 0 180 80.6 180 180zM322.7 288c6.6 18.6 24.4 32 45.3 32s38.7-13.4 45.3-32H480V416c0 17.7-14.3 32-32 32H64c-17.7 0-32-14.3-32-32V288H322.7zM512 256V244c0-117.1-94.9-212-212-212c-7.8 0-15.5 2.3-22 6.7L26.6 206.2C10 217.3 0 236 0 256V416c0 35.3 28.7 64 64 64H448c35.3 0 64-28.7 64-64V256zM160 368a16 16 0 1 1 32 0 16 16 0 1 1 -32 0zm64 0a48 48 0 1 0 -96 0 48 48 0 1 0 96 0zm16-240a16 16 0 1 1 0 32 16 16 0 1 1 0-32zM352 272a16 16 0 1 1 32 0 16 16 0 1 1 -32 0z"/></svg>