<svg xmlns="http://www.w3.org/2000/svg" viewBox="0 0 512 512"><!--! Font Awesome Pro 6.5.1 by @fontawesome - https://fontawesome.com License - https://fontawesome.com/license (Commercial License) Copyright 2023 Fonticons, Inc. --><path d="M480 244v12H32c0-9.3 4.6-18 12.4-23.1L295.7 65.3c1.3-.8 2.8-1.3 4.3-1.3c99.4 0 180 80.6 180 180zM32 288H480V416c0 17.7-14.3 32-32 32H64c-17.7 0-32-14.3-32-32V288zm480-32V244c0-117.1-94.9-212-212-212c-7.8 0-15.5 2.3-22 6.7L26.6 206.2C10 217.3 0 236 0 256V416c0 35.3 28.7 64 64 64H448c35.3 0 64-28.7 64-64V256z"/></svg>