<svg xmlns="http://www.w3.org/2000/svg" viewBox="0 0 640 512"><!--! Font Awesome Pro 6.5.1 by @fontawesome - https://fontawesome.com License - https://fontawesome.com/license (Commercial License) Copyright 2023 Fonticons, Inc. --><path d="M64 64C46.3 64 32 78.3 32 96v32H64c35.3 0 64 28.7 64 64V320c0 35.3-28.7 64-64 64H32v32c0 17.7 14.3 32 32 32H304V350.7c-45.4-7.6-80-47.1-80-94.7s34.6-87.1 80-94.7V64H64zM336 350.7V448H576c17.7 0 32-14.3 32-32V384H576c-35.3 0-64-28.7-64-64V192c0-35.3 28.7-64 64-64h32V96c0-17.7-14.3-32-32-32H336v97.3c45.4 7.6 80 47.1 80 94.7s-34.6 87.1-80 94.7zM336 194V318c27.6-7.1 48-32.2 48-62s-20.4-54.9-48-62zm-32 0c-27.6 7.1-48 32.2-48 62s20.4 54.9 48 62V194zM32 160V352H64c17.7 0 32-14.3 32-32V192c0-17.7-14.3-32-32-32H32zM576 352h32V160H576c-17.7 0-32 14.3-32 32V320c0 17.7 14.3 32 32 32zM0 96C0 60.7 28.7 32 64 32H576c35.3 0 64 28.7 64 64V416c0 35.3-28.7 64-64 64H64c-35.3 0-64-28.7-64-64V96z"/></svg>