<svg xmlns="http://www.w3.org/2000/svg" viewBox="0 0 512 512"><!--! Font Awesome Pro 6.5.1 by @fontawesome - https://fontawesome.com License - https://fontawesome.com/license (Commercial License) Copyright 2023 Fonticons, Inc. --><path d="M507.3 4.7c6.2 6.2 6.2 16.4 0 22.6L354.6 180l34.1 34.1c18.7 18.7 18.7 49.1 0 67.9l-33.3 33.3c0 0 0 0 0 0L172.7 497.9c-9 9-21.2 14.1-33.9 14.1H136C60.9 512 0 451.1 0 376l0-2.7c0-12.7 5.1-24.9 14.1-33.9L196.7 156.7c0 0 0 0 0 0l33.4-33.4c18.7-18.7 49.1-18.7 67.9 0L332 157.4 484.7 4.7c6.2-6.2 16.4-6.2 22.6 0zM192 206.6L36.7 361.9c-3 3-4.7 7.1-4.7 11.3l0 2.7c0 57.4 46.6 104 104 104h2.7c4.2 0 8.3-1.7 11.3-4.7L305.4 320H240c-26.5 0-48-21.5-48-48V206.6zM337.4 288l28.7-28.7c6.2-6.2 6.2-16.4 0-22.6l-90.7-90.7c-6.2-6.2-16.4-6.2-22.6 0L224 174.6V272c0 8.8 7.2 16 16 16h97.4zM480 432a48 48 0 1 0 -96 0 48 48 0 1 0 96 0zm-128 0a80 80 0 1 1 160 0 80 80 0 1 1 -160 0z"/></svg>