<svg xmlns="http://www.w3.org/2000/svg" viewBox="0 0 640 512"><!--! Font Awesome Pro 6.5.1 by @fontawesome - https://fontawesome.com License - https://fontawesome.com/license (Commercial License) Copyright 2023 Fonticons, Inc. --><path d="M128 0C110.3 0 96 14.3 96 32V160H48c-26.5 0-48 21.5-48 48v64c0 26.5 21.5 48 48 48H336c26.5 0 48-21.5 48-48V224 208 189.3c0-11.6-3.2-23-9.1-32.9L295 23.3C286.4 8.8 270.7 0 253.9 0H128zM339.8 160.2c-1.3-.1-2.5-.2-3.8-.2H128V32H253.9c5.6 0 10.8 2.9 13.7 7.8l72.2 120.4zM32 272V208c0-8.8 7.2-16 16-16H336c8.8 0 16 7.2 16 16v16 48c0 8.8-7.2 16-16 16H48c-8.8 0-16-7.2-16-16zM336 384c26.5 0 48 21.5 48 48s-21.5 48-48 48H80c-26.5 0-48-21.5-48-48s21.5-48 48-48H336zM80 352c-44.2 0-80 35.8-80 80s35.8 80 80 80H336c44.2 0 80-35.8 80-80s-35.8-80-80-80H80zM480.6 476.7L608 349.3V352v32 48c0 26.5-21.5 48-48 48H481.9c-1.1 0-1.9-.9-1.9-1.9c0-.5 .2-1 .6-1.4zm-22.6-22.6c-6.4 6.4-9.9 15-9.9 24c0 18.7 15.2 33.9 33.9 33.9H560c44.2 0 80-35.8 80-80V384 352 320v-2.7V272 128 57.1 46.6C640 20.9 619.1 0 593.4 0c-11.2 0-22.1 4-30.5 11.4L416 138.7V181L583.8 35.6c2.7-2.3 6.1-3.6 9.6-3.6c8.1 0 14.6 6.5 14.6 14.6V85.3L586.8 104 416 254.7v42.7L576 156.2 608 128v42.7V304L457.9 454.1zM112 456a24 24 0 1 0 0-48 24 24 0 1 0 0 48zm120-24a24 24 0 1 0 -48 0 24 24 0 1 0 48 0zm72 24a24 24 0 1 0 0-48 24 24 0 1 0 0 48z"/></svg>