<svg xmlns="http://www.w3.org/2000/svg" viewBox="0 0 512 512"><!--! Font Awesome Pro 6.5.1 by @fontawesome - https://fontawesome.com License - https://fontawesome.com/license (Commercial License) Copyright 2023 Fonticons, Inc. --><path d="M480 256A224 224 0 1 0 32 256a224 224 0 1 0 448 0zM0 256a256 256 0 1 1 512 0A256 256 0 1 1 0 256zm275.6 50.7c-10.5-5.1-24.8-9-37.9-10.8c-8.8-1.2-14.8-9.3-13.6-18.1s9.3-14.8 18.1-13.6c15.4 2.2 33.1 6.7 47.5 13.8c7.2 3.5 14.3 8 19.9 13.9c5.6 5.9 10.4 14.1 10.4 24.2s-4.8 18.3-10.4 24.2c-4.5 4.7-10.1 8.6-15.9 11.8c5.8 3.2 11.4 7.1 15.9 11.8c5.6 5.9 10.4 14.1 10.4 24.2s-4.8 18.3-10.4 24.2c-5.6 5.8-12.7 10.3-19.9 13.9c-14.4 7-32.1 11.6-47.5 13.8c-8.8 1.2-16.8-4.9-18.1-13.6s4.9-16.8 13.6-18.1c13.1-1.8 27.3-5.7 37.9-10.8c5.3-2.6 8.8-5.1 10.8-7.2c1.1-1.1 1.4-1.8 1.6-2.1c-.1-.3-.5-1-1.6-2.1c-2-2.1-5.5-4.6-10.8-7.2c-10.4-5.1-24.5-8.9-37.5-10.8c-1.2-.1-2.4-.4-3.6-.8c-2.2-.8-4.2-2.1-5.9-3.7s-2.9-3.6-3.7-5.9c-.6-1.7-1-3.5-.9-5.4s.3-3.7 1-5.4c.8-2.2 2.1-4.2 3.7-5.9s3.6-2.9 5.9-3.7c1.1-.4 2.3-.7 3.5-.8c13-1.9 27.1-5.7 37.5-10.8c5.3-2.6 8.8-5.1 10.8-7.2c1.1-1.1 1.4-1.8 1.6-2.1c-.1-.3-.5-1-1.6-2.1c-2-2.1-5.5-4.6-10.8-7.2zm12.4 9.5a0 0 0 1 0 -.1 0 0 0 0 1 0 .1 0zm0-.3a.1 .1 0 1 0 0-.1 .1 .1 0 1 0 0 .1zm0 72.2l0 0s0 0 0 0l0-.1 0 .1zm0-.3l0 0c0-.1 0-.1 0-.1l0 0zM156.5 194.5c-6.2 7.2-10.8 16.8-12.9 25.4c-2.1 8.6-10.8 13.8-19.4 11.6s-13.8-10.8-11.6-19.4c3.2-12.7 9.8-27.1 19.9-38.6C142.4 161.9 157.2 152 176 152s33.6 9.9 43.7 21.5c10 11.5 16.7 25.9 19.9 38.6c2.1 8.6-3.1 17.3-11.6 19.4s-17.3-3.1-19.4-11.6c-2.1-8.6-6.7-18.2-12.9-25.4c-6.2-7.1-12.8-10.5-19.5-10.5s-13.4 3.4-19.5 10.5zm147.1 25.4c-2.1 8.6-10.8 13.8-19.4 11.6s-13.8-10.8-11.6-19.4c3.2-12.7 9.8-27.1 19.9-38.6C302.4 161.9 317.2 152 336 152s33.6 9.9 43.7 21.5c10 11.5 16.7 25.9 19.9 38.6c2.1 8.6-3.1 17.3-11.6 19.4s-17.3-3.1-19.4-11.6c-2.1-8.6-6.7-18.2-12.9-25.4c-6.2-7.1-12.8-10.5-19.5-10.5s-13.4 3.4-19.5 10.5c-6.2 7.2-10.8 16.8-12.9 25.4z"/></svg>