<svg xmlns="http://www.w3.org/2000/svg" viewBox="0 0 512 512"><!--! Font Awesome Pro 6.5.1 by @fontawesome - https://fontawesome.com License - https://fontawesome.com/license (Commercial License) Copyright 2023 Fonticons, Inc. --><path d="M32 448c0 17.7 14.3 32 32 32v32c-35.3 0-64-28.7-64-64V64C0 28.7 28.7 0 64 0H220.1c12.7 0 24.9 5.1 33.9 14.1L369.9 129.9c9 9 14.1 21.2 14.1 33.9V288H352V192H240c-26.5 0-48-21.5-48-48V32H64C46.3 32 32 46.3 32 64V448zM351.5 160c-.7-2.8-2.1-5.4-4.2-7.4L231.4 36.7c-2.1-2.1-4.6-3.5-7.4-4.2V144c0 8.8 7.2 16 16 16H351.5zM157.7 359.8L192 416.9l34.3-57.1c3.7-6.2 11.1-9.1 18-7.2s11.7 8.2 11.7 15.4V496c0 8.8-7.2 16-16 16s-16-7.2-16-16V425.8l-18.3 30.5c-2.9 4.8-8.1 7.8-13.7 7.8s-10.8-3-13.7-7.8L160 425.8V496c0 8.8-7.2 16-16 16s-16-7.2-16-16V368c0-7.2 4.8-13.5 11.7-15.4s14.3 1 18 7.2zM304 352h32c30.9 0 56 25.1 56 56s-25.1 56-56 56H320v32c0 8.8-7.2 16-16 16s-16-7.2-16-16V448 368c0-8.8 7.2-16 16-16zm32 80c13.3 0 24-10.7 24-24s-10.7-24-24-24H320v48h16zm84.7 11.3c-3-3-4.7-7.1-4.7-11.3V368c0-8.8 7.2-16 16-16s16 7.2 16 16v48h32V368c0-8.8 7.2-16 16-16s16 7.2 16 16v64 64c0 8.8-7.2 16-16 16s-16-7.2-16-16V448H432c-4.2 0-8.3-1.7-11.3-4.7z"/></svg>