<svg xmlns="http://www.w3.org/2000/svg" viewBox="0 0 640 512"><!--! Font Awesome Pro 6.5.1 by @fontawesome - https://fontawesome.com License - https://fontawesome.com/license (Commercial License) Copyright 2023 Fonticons, Inc. --><path d="M0 32C0 14.3 14.3 0 32 0H608c17.7 0 32 14.3 32 32V96c0 17.7-14.3 32-32 32V480c0 17.7-14.3 32-32 32H512c-17.7 0-32-14.3-32-32V352c0-88.4-71.6-160-160-160s-160 71.6-160 160V480c0 17.7-14.3 32-32 32H64c-17.7 0-32-14.3-32-32V128C14.3 128 0 113.7 0 96V32zm64 96V480h64V352c0-106 86-192 192-192s192 86 192 192V480h64V128H64zM608 32H32V96H608V32zM296.8 287.5c-14 13.1-28.8 29.2-40.4 46.6c-13.1 19.6-21.2 39.5-21.2 58c0 19.8 6.5 37.8 17.7 52.2c0-1-.1-1.9-.1-2.9c0-40.2 44.6-77.3 61.1-89.7c3.6-2.7 8.5-2.7 12.1 0c16.5 12.4 61.1 49.6 61.1 89.7c0 .9 0 1.8-.1 2.7c11.1-14.3 17.7-32.3 17.7-51.9c0-14.7-5.6-31.7-14.9-48.5c-8-14.3-18.1-27.5-28.3-37.9l-11.4 12.8c-3 3.3-7.2 5.3-11.7 5.4s-8.8-1.7-11.9-5l-29.9-31.5zm-16.6-28.2c9.6-8.7 24.4-8.7 33.9 .1c.3 .3 .6 .5 .8 .8l23 24.1 5.1-5.8c.4-.4 .7-.8 1.1-1.2c9.7-8.9 24.7-8.9 34.3 .1c14.2 13.1 28.5 31 39.4 50.6c10.8 19.5 18.9 41.9 18.9 64c0 64.7-52.1 116.7-116.8 116.7c-65.4 0-116.8-52.1-116.8-116.7c0-27.5 11.8-53.6 26.6-75.8c14.9-22.3 33.8-42.1 50.4-57zM320 472.1c21.6 0 35.2-15.8 35.2-30.7c0-8.8-5.3-20.8-17-34.8c-5.9-7-12.4-13.4-18.2-18.6c-5.9 5.2-12.4 11.5-18.2 18.6c-11.6 13.9-17 26-17 34.8c0 14.9 13.6 30.7 35.2 30.7z"/></svg>