<svg xmlns="http://www.w3.org/2000/svg" viewBox="0 0 640 512"><!--! Font Awesome Pro 6.5.1 by @fontawesome - https://fontawesome.com License - https://fontawesome.com/license (Commercial License) Copyright 2023 Fonticons, Inc. --><path d="M287.1 33.1l47.4 49.8c3.1 3.2 7.4 5 11.9 5s8.7-2 11.7-5.4l21-23.7c16.6 15.9 33.7 37.3 46.7 60.7c13.7 24.6 22.2 50 22.2 72.6c0 25.4-7.3 49.1-20 68.9c7.3 5.7 14.2 12 20.6 18.8c2.8-1.9 5.8-3.7 8.7-5.4c14.4-24 22.7-52.2 22.7-82.4c0-30-11-60.9-26.2-88.1c-15.2-27.4-35.3-52.3-55-70.6C387.6 23 370.3 23 359.1 33.3c-.4 .4-.8 .7-1.1 1.2L345.7 48.3 307.8 8.4c-.3-.3-.5-.5-.8-.8c-11.1-10.1-28.1-10.1-39.3-.1c-23.4 21.1-50 48.9-70.9 80.2C176 118.8 160 154.8 160 192.2c0 30.1 8.1 58.2 22.4 82.2c3.1 1.7 6.1 3.6 9 5.5c6.3-6.8 13.1-13 20.4-18.7c-12.6-19.9-19.8-43.5-19.8-69c0-28.4 12.4-58.2 31.4-86.7c18.4-27.5 42-52.6 63.7-72.3zm-23.2 200c4.7-9.4 11.3-19.2 19.5-29.1c12.1-14.5 25.8-27 36.6-35.8c10.7 8.8 24.5 21.3 36.6 35.8c8.2 9.9 14.8 19.6 19.5 29.1c13.9 4.7 27.1 11.1 39.2 18.9c-7-53.2-64.5-101-86.6-117.6c-5.2-3.9-12.1-3.9-17.3 0C289.2 151 231.7 198.8 224.7 252c12.1-7.8 25.3-14.2 39.2-18.9zM213.9 364c15-44.2 56.9-76 106.1-76s91.1 31.8 106.1 76c2.1 6.2 7.7 10.5 14.2 10.8s12.6-3.2 15.4-9.1C468.6 338.7 496.1 320 528 320c44.2 0 80 35.8 80 80s-35.8 80-80 80l-123.3 0-169.3 0L112 480c-44.2 0-80-35.8-80-80s35.8-80 80-80c31.9 0 59.4 18.7 72.3 45.7c2.8 5.9 8.9 9.5 15.4 9.1s12.1-4.7 14.2-10.8zM320 256c-52.6 0-98.6 28.2-123.7 70.3C175.8 302.8 145.6 288 112 288C50.1 288 0 338.1 0 400s50.1 112 112 112l123.3 0 169.3 0L528 512c61.9 0 112-50.1 112-112s-50.1-112-112-112c-33.6 0-63.8 14.8-84.3 38.3C418.6 284.2 372.6 256 320 256z"/></svg>