<svg xmlns="http://www.w3.org/2000/svg" viewBox="0 0 384 512"><!--! Font Awesome Pro 6.5.1 by @fontawesome - https://fontawesome.com License - https://fontawesome.com/license (Commercial License) Copyright 2023 Fonticons, Inc. --><path d="M132.6 32.1c.2 .1 .4 .4 .5 .7C145 62.6 183.4 144.5 268 208.6c-47.9 .3-112.8 17-193.6 73.9c-1.8 1.3-3.9 1.2-5.4 .2c-1.5-1-2.3-2.9-1.8-4.7L132.3 32c.1 0 .2 0 .3 .1zM36.3 269.8c-4 15 2 30.9 15 39.5c12.8 8.5 29.3 7.9 41.6-.7c112.2-79 186.5-72.7 221.9-61.4c11.9 3.8 20.1 16.1 21.1 33.4c-1.5 21.9-19.7 39.2-42 39.3l-.2 0H176c-8.8 0-16 7.2-16 16s7.2 16 16 16H293.7l.2 0 6.4 0c37.4 0 67.7-30.3 67.7-67.7c0-1.1 0-2.3-.1-3.4c0-1.1 .1-2.1 .1-3.2c0-29.5-17.6-54.9-41.6-68.7C220.9 148.4 175.4 52.4 162.9 21C158 8.8 146.2 0 132.3 0c-14.5 0-27.2 9.8-30.9 23.8l-65.1 246zM304 416c8.8 0 16 7.2 16 16v48H64V432c0-8.8 7.2-16 16-16H304zM80 384c-26.5 0-48 21.5-48 48v48 0H16c-8.8 0-16 7.2-16 16s7.2 16 16 16H368c8.8 0 16-7.2 16-16s-7.2-16-16-16H352v0V432c0-26.5-21.5-48-48-48H80z"/></svg>