<svg xmlns="http://www.w3.org/2000/svg" viewBox="0 0 576 512"><!--! Font Awesome Pro 6.5.1 by @fontawesome - https://fontawesome.com License - https://fontawesome.com/license (Commercial License) Copyright 2023 Fonticons, Inc. --><path d="M408 64H40c-4.4 0-8 3.6-8 8V96c0 106 86 192 192 192c4.7 0 9.4-.2 14-.5c-4.4 10.8-8 21.7-10.5 32.5c-1.2 0-2.4 0-3.6 0c-19.9 0-39.2-2.6-57.6-7.5l-26.1 57.3c4.3 4.2 8.1 8.9 11.1 14.1H227c1.9 11 4.8 21.7 8.5 32H160c0 35.3-28.7 64-64 64s-64-28.7-64-64s28.7-64 64-64c5.7 0 11.1 .7 16.4 2.1l23.7-52C56 267.9 0 188.5 0 96V72C0 49.9 17.9 32 40 32H408c22.1 0 40 17.9 40 40V96c0 24.1-3.8 47.3-10.9 69.1c-8.5-8.6-17.2-17-26.2-25.1l0 0c3.3-14.1 5.1-28.8 5.1-44V72c0-4.4-3.6-8-8-8zM96 384a32 32 0 1 0 0 64 32 32 0 1 0 0-64zM383.1 193.1c-21.7 19.8-45.3 44.8-63.7 72.3c-19 28.5-31.4 58.3-31.4 86.7c0 33.7 12.7 64.2 33.6 87c-1.1-5.4-1.6-10.9-1.6-16.6c0-57.4 63.8-110.5 87.4-128.2c5.2-3.9 12.1-3.9 17.3 0c23.6 17.7 87.4 70.8 87.4 128.2c0 5.5-.5 10.9-1.6 16.2C531.3 416 544 385.7 544 352.2c0-22.6-8.5-48-22.2-72.6c-13-23.4-30.1-44.9-46.7-60.7l-21 23.7c-3 3.3-7.2 5.3-11.7 5.4s-8.8-1.7-11.9-5l-47.4-49.8zM416 480c2.4 0 4.8-.1 7.1-.2c33.7-3.3 56.9-29.4 56.9-57.3c0-17.4-10.1-37.7-27.4-58.5c-12.1-14.5-25.8-27-36.6-35.8c-10.7 8.8-24.5 21.3-36.6 35.8c-17.3 20.7-27.4 41.1-27.4 58.5c0 27.9 23.3 54 57 57.3c2.3 .1 4.7 .2 7 .2zM256 352.2c0-37.3 16-73.4 36.8-104.5c20.9-31.3 47.5-59 70.9-80.2c11.1-10.1 28.2-10 39.3 .1c.3 .3 .6 .5 .8 .8l37.9 39.9L454 194.5c.4-.4 .7-.8 1.1-1.2c11.2-10.3 28.5-10.3 39.7 .1c19.7 18.3 39.8 43.2 55 70.6C565 291.2 576 322.2 576 352.2c0 85.6-66.4 154.9-150.8 159.6c-3 .3-6.1 .4-9.2 .4c-3.1 0-6.1-.1-9.1-.4c-85.2-4.6-150.9-74-150.9-159.6z"/></svg>