<svg xmlns="http://www.w3.org/2000/svg" viewBox="0 0 384 512"><!--! Font Awesome Pro 6.5.1 by @fontawesome - https://fontawesome.com License - https://fontawesome.com/license (Commercial License) Copyright 2023 Fonticons, Inc. --><path d="M16 512c-8.8 0-16-7.2-16-16s7.2-16 16-16H32V438.4c0-49.4 22.8-96 61.8-126.3L165.9 256 93.8 199.9C54.8 169.6 32 122.9 32 73.6V32H16C7.2 32 0 24.8 0 16S7.2 0 16 0H48 336h32c8.8 0 16 7.2 16 16s-7.2 16-16 16H352V73.6c0 49.4-22.8 96-61.8 126.3L218.1 256l72.2 56.1c39 30.3 61.8 76.9 61.8 126.3V480h16c8.8 0 16 7.2 16 16s-7.2 16-16 16H336 48 16zm304-32V438.4c0-7.6-.7-15.1-2-22.4H66c-1.3 7.3-2 14.8-2 22.4V480H320zM113.4 337.4C97.3 349.9 84.6 366 76.1 384H307.9c-8.5-18-21.1-34.1-37.3-46.6L192 276.3l-78.6 61.1zM192 235.7l78.6-61.1c5.7-4.5 11-9.3 15.8-14.6H97.6c4.8 5.3 10.1 10.2 15.8 14.6L192 235.7zM307.9 128c7.9-16.8 12.1-35.4 12.1-54.4V32H64V73.6c0 19.1 4.2 37.6 12.1 54.4H307.9z"/></svg>