<svg xmlns="http://www.w3.org/2000/svg" viewBox="0 0 384 512"><!--! Font Awesome Pro 6.5.1 by @fontawesome - https://fontawesome.com License - https://fontawesome.com/license (Commercial License) Copyright 2023 Fonticons, Inc. --><path d="M16 0C7.2 0 0 7.2 0 16s7.2 16 16 16H32V73.6c0 49.4 22.8 96 61.8 126.3L165.9 256 93.8 312.1C54.8 342.4 32 389.1 32 438.4V480H16c-8.8 0-16 7.2-16 16s7.2 16 16 16H48 336h32c8.8 0 16-7.2 16-16s-7.2-16-16-16H352V438.4c0-49.4-22.8-96-61.8-126.3L218.1 256l72.2-56.1c39-30.3 61.8-76.9 61.8-126.3V32h16c8.8 0 16-7.2 16-16s-7.2-16-16-16H336 48 16zM320 32V73.6c0 39.5-18.2 76.8-49.4 101L192 235.7l-78.6-61.1C82.2 150.4 64 113.1 64 73.6V32H320zM192 276.3l78.6 61.1c31.2 24.2 49.4 61.5 49.4 101V480H64V438.4c0-39.5 18.2-76.8 49.4-101L192 276.3z"/></svg>