<svg xmlns="http://www.w3.org/2000/svg" viewBox="0 0 640 512"><!--! Font Awesome Pro 6.5.1 by @fontawesome - https://fontawesome.com License - https://fontawesome.com/license (Commercial License) Copyright 2023 Fonticons, Inc. --><path d="M23.2 1.7C15.3-2.3 5.6 .9 1.7 8.8s-.7 17.5 7.2 21.5l128 64c7.9 4 17.5 .7 21.5-7.2s.7-17.5-7.2-21.5l-128-64zm128 188.6c7.9-4 11.1-13.6 7.2-21.5s-13.6-11.1-21.5-7.2l-128 64c-7.9 4-11.1 13.6-7.2 21.5s13.6 11.1 21.5 7.2l128-64zM312.1 2.1l-112 64c-7.7 4.4-10.3 14.2-6 21.8s14.2 10.3 21.8 6l8.1-4.6V128h32V71l64-36.6L384 71v57h32V89.3l8.1 4.6c7.7 4.4 17.4 1.7 21.8-6s1.7-17.4-6-21.8l-112-64c-4.9-2.8-11-2.8-15.9 0zM250.2 192H389.8l57.6 288H384V416c0-35.3-28.7-64-64-64s-64 28.7-64 64v64H192.6l57.6-288zm-32.6 0l-57 285.2c-.2 .9-.3 1.9-.4 2.8H144c-8.8 0-16 7.2-16 16s7.2 16 16 16h45.1H256h32 64 32 66.9H496c8.8 0 16-7.2 16-16s-7.2-16-16-16H479.9c-.1-.9-.2-1.9-.4-2.8L422.4 192H432c8.8 0 16-7.2 16-16s-7.2-16-16-16H416 224 208c-8.8 0-16 7.2-16 16s7.2 16 16 16h9.6zM352 416v64H288V416c0-17.7 14.3-32 32-32s32 14.3 32 32zM638.3 8.9c-4-7.9-13.6-11.1-21.5-7.2l-128 64c-7.9 4-11.1 13.6-7.2 21.5s13.6 11.1 21.5 7.2l128-64c7.9-4 11.1-13.6 7.2-21.5zm-156.6 160c-4 7.9-.7 17.5 7.2 21.5l128 64c7.9 4 17.5 .7 21.5-7.2s.7-17.5-7.2-21.5l-128-64c-7.9-4-17.5-.7-21.5 7.2z"/></svg>