<svg xmlns="http://www.w3.org/2000/svg" viewBox="0 0 640 512"><!--! Font Awesome Pro 6.5.1 by @fontawesome - https://fontawesome.com License - https://fontawesome.com/license (Commercial License) Copyright 2023 Fonticons, Inc. --><path d="M512 96H64c-17.7 0-32 14.3-32 32V384c0 17.7 14.3 32 32 32H338.2l-8 32H64c-35.3 0-64-28.7-64-64V128C0 92.7 28.7 64 64 64H512c35.3 0 64 28.7 64 64v64c-10.9-.3-21.8 1.5-32 5.6V128c0-17.7-14.3-32-32-32zM256 304c0-8.8 7.2-16 16-16h96c8.8 0 16 7.2 16 16s-7.2 16-16 16H272c-8.8 0-16-7.2-16-16zm16-112H464c8.8 0 16 7.2 16 16s-7.2 16-16 16H272c-8.8 0-16-7.2-16-16s7.2-16 16-16zM144 136c8.8 0 16 7.2 16 16v17.3c8.5 1.2 16.7 3.1 24.1 5.1c8.5 2.3 13.6 11 11.3 19.6s-11 13.6-19.6 11.3c-11.1-3-22-5.2-32.1-5.3c-8.4-.1-17.4 1.8-23.6 5.5c-5.7 3.4-8.1 7.3-8.1 12.8c0 3.7 1.3 6.5 7.3 10.1c6.9 4.1 16.6 7.1 29.2 10.9l.5 .1 0 0 0 0c11.3 3.4 25.3 7.6 36.3 14.6c12.1 7.6 22.4 19.7 22.7 38.2c.3 19.3-9.6 33.3-22.9 41.6c-7.7 4.8-16.4 7.6-25.1 9.1V360c0 8.8-7.2 16-16 16s-16-7.2-16-16V342.2c-11.2-2.1-21.7-5.7-30.9-8.9l0 0c-2.1-.7-4.2-1.4-6.2-2.1c-8.4-2.8-12.9-11.9-10.1-20.2s11.9-12.9 20.2-10.1c2.5 .8 4.8 1.6 7.1 2.4l0 0 0 0 0 0c13.6 4.6 24.6 8.4 36.3 8.7c9.1 .3 17.9-1.7 23.7-5.3c5.1-3.2 7.9-7.3 7.8-14c-.1-4.6-1.8-7.8-7.7-11.6c-6.8-4.3-16.5-7.4-29-11.2l-1.6-.5 0 0 0 0c-11-3.3-24.3-7.3-34.8-13.7c-12-7.2-22.6-18.9-22.7-37.3c-.1-19.4 10.8-32.8 23.8-40.5c7.5-4.4 15.8-7.2 24.1-8.7V152c0-8.8 7.2-16 16-16zM582.8 264c-6.2-6.2-16.4-6.2-22.6 0l-24.8 24.8 40 40L600.2 304c6.2-6.2 6.2-16.4 0-22.6L582.8 264zM406.5 417.7c-2.1 2.1-3.5 4.6-4.2 7.4l-12.3 49 49-12.3c2.8-.7 5.4-2.2 7.4-4.2L552.7 351.4l-40-40L406.5 417.7zM537.5 241.4c18.7-18.7 49.1-18.7 67.9 0l17.4 17.4c18.7 18.7 18.7 49.1 0 67.9L469.1 480.3c-6.2 6.2-13.9 10.5-22.3 12.6l-74.9 18.7c-5.5 1.4-11.2-.2-15.2-4.2s-5.6-9.7-4.2-15.2l18.7-74.9c2.1-8.4 6.5-16.1 12.6-22.3L537.5 241.4z"/></svg>