<svg xmlns="http://www.w3.org/2000/svg" viewBox="0 0 512 512"><!--! Font Awesome Pro 6.5.1 by @fontawesome - https://fontawesome.com License - https://fontawesome.com/license (Commercial License) Copyright 2023 Fonticons, Inc. --><path d="M161.5 43.7L43.7 161.5C36.2 169 32 179.2 32 189.8V322.2c0 10.6 4.2 20.8 11.7 28.3L161.5 468.3c7.5 7.5 17.7 11.7 28.3 11.7H322.2c10.6 0 20.8-4.2 28.3-11.7L468.3 350.5c7.5-7.5 11.7-17.7 11.7-28.3V189.8c0-10.6-4.2-20.8-11.7-28.3L350.5 43.7C343 36.2 332.8 32 322.2 32H189.8c-10.6 0-20.8 4.2-28.3 11.7zM21.1 138.9L138.9 21.1C152.4 7.6 170.7 0 189.8 0H322.2c19.1 0 37.4 7.6 50.9 21.1L490.9 138.9c13.5 13.5 21.1 31.8 21.1 50.9V322.2c0 19.1-7.6 37.4-21.1 50.9L373.1 490.9c-13.5 13.5-31.8 21.1-50.9 21.1H189.8c-19.1 0-37.4-7.6-50.9-21.1L21.1 373.1C7.6 359.6 0 341.3 0 322.2V189.8c0-19.1 7.6-37.4 21.1-50.9z"/></svg>