<svg xmlns="http://www.w3.org/2000/svg" viewBox="0 0 512 512"><!--! Font Awesome Pro 6.5.1 by @fontawesome - https://fontawesome.com License - https://fontawesome.com/license (Commercial License) Copyright 2023 Fonticons, Inc. --><path d="M128 32a32 32 0 1 1 0 64 32 32 0 1 1 0-64zm0 96A64 64 0 1 0 128 0a64 64 0 1 0 0 128zm-22.4 64h44.8c25 0 45.8 19.1 47.8 44l4.1 49.3c1.6 18.7-13.2 34.7-31.9 34.7H85.6c-18.7 0-33.4-16-31.9-34.7L57.8 236c2.1-24.9 22.9-44 47.8-44zm0-32c-41.6 0-76.3 31.9-79.7 73.4l-4.1 49.3c-2.5 29.8 15.7 56.1 42.2 65.6V496c0 8.8 7.2 16 16 16s16-7.2 16-16V352h64V496c0 8.8 7.2 16 16 16s16-7.2 16-16V348.3c26.5-9.5 44.7-35.8 42.2-65.6l-4.1-49.3C226.7 191.9 192 160 150.4 160H105.6zM384 32a32 32 0 1 1 0 64 32 32 0 1 1 0-64zm0 96A64 64 0 1 0 384 0a64 64 0 1 0 0 128zm-22.4 64h44.8c25 0 45.8 19.1 47.8 44l4.1 49.3c1.6 18.7-13.2 34.7-31.9 34.7H341.6c-18.7 0-33.4-16-31.9-34.7l4.1-49.3c2.1-24.9 22.9-44 47.8-44zm0-32c-41.6 0-76.3 31.9-79.7 73.4l-4.1 49.3c-2.5 29.8 15.7 56.1 42.2 65.6V496c0 8.8 7.2 16 16 16s16-7.2 16-16V352h64V496c0 8.8 7.2 16 16 16s16-7.2 16-16V348.3c26.5-9.5 44.7-35.8 42.2-65.6l-4.1-49.3C482.7 191.9 448 160 406.4 160H361.6z"/></svg>