<svg xmlns="http://www.w3.org/2000/svg" viewBox="0 0 512 512"><!--! Font Awesome Pro 6.5.1 by @fontawesome - https://fontawesome.com License - https://fontawesome.com/license (Commercial License) Copyright 2023 Fonticons, Inc. --><path d="M128 32a32 32 0 1 1 0 64 32 32 0 1 1 0-64zm0 96A64 64 0 1 0 128 0a64 64 0 1 0 0 128zm-15.7 64h31.4c14.3 0 26.8 9.5 30.8 23.2L213.6 352H42.4L81.5 215.2C85.4 201.5 98 192 112.3 192zm0-32c-28.6 0-53.7 18.9-61.5 46.4L11.7 343.2C5.8 363.7 21.2 384 42.4 384H64V496c0 8.8 7.2 16 16 16s16-7.2 16-16V384h64V496c0 8.8 7.2 16 16 16s16-7.2 16-16V384h21.6c21.3 0 36.6-20.3 30.8-40.8L205.3 206.4c-7.9-27.5-33-46.4-61.5-46.4H112.3zM384 32a32 32 0 1 1 0 64 32 32 0 1 1 0-64zm0 96A64 64 0 1 0 384 0a64 64 0 1 0 0 128zm-15.7 64h31.4c14.3 0 26.8 9.5 30.8 23.2L469.6 352H298.4l39.1-136.8c3.9-13.7 16.5-23.2 30.8-23.2zm0-32c-28.6 0-53.7 18.9-61.5 46.4L267.7 343.2c-5.8 20.4 9.5 40.8 30.8 40.8H320V496c0 8.8 7.2 16 16 16s16-7.2 16-16V384h64V496c0 8.8 7.2 16 16 16s16-7.2 16-16V384h21.6c21.3 0 36.6-20.3 30.8-40.8L461.3 206.4c-7.8-27.5-33-46.4-61.5-46.4H368.3z"/></svg>