<svg xmlns="http://www.w3.org/2000/svg" viewBox="0 0 640 512"><!--! Font Awesome Pro 6.5.1 by @fontawesome - https://fontawesome.com License - https://fontawesome.com/license (Commercial License) Copyright 2023 Fonticons, Inc. --><path d="M320 96a32 32 0 1 0 0-64 32 32 0 1 0 0 64zm0-96a64 64 0 1 1 0 128A64 64 0 1 1 320 0zM304.3 192c-14.3 0-26.8 9.5-30.8 23.2L234.4 352H405.6L366.5 215.2C362.6 201.5 350 192 335.7 192H304.3zm0-32h31.5c28.6 0 53.7 18.9 61.5 46.4l39.1 136.8c5.8 20.4-9.5 40.8-30.8 40.8H384V496c0 8.8-7.2 16-16 16s-16-7.2-16-16V384H288V496c0 8.8-7.2 16-16 16s-16-7.2-16-16V384H234.4c-21.3 0-36.6-20.3-30.8-40.8l39.1-136.8c7.8-27.5 33-46.4 61.5-46.4zM32 32c91.1 0 172.4 42.3 225.1 108.4c-9.3 5.3-17.8 12.1-24.9 20.1C185.4 101.7 113.1 64 32 64v48c0 76.5 35.7 144.6 91.5 188.6l12.1 9.5c6.8 5.3 8.1 15 3 22l-9.1 12.4C108.5 373.6 96 409.3 96 448h16c39.2 0 75.4-12.8 104.7-34.5c2.4 .7 4.8 1.2 7.3 1.6v32.1C191.7 468 153.2 480 112 480H96c-17.7 0-32-14.3-32-32c0-45.7 14.7-88 39.7-122.3C40.6 275.9 0 198.7 0 112V64C0 46.3 14.3 32 32 32zM407.7 160.5c-7.1-8.1-15.5-14.9-24.9-20.1C435.6 74.3 516.9 32 608 32c17.7 0 32 14.3 32 32v48c0 86.7-40.6 163.9-103.7 213.7C561.3 360 576 402.3 576 448c0 17.7-14.3 32-32 32H528c-41.2 0-79.7-12-112-32.7V415.2c2.5-.4 5-1 7.3-1.6C452.6 435.2 488.8 448 528 448h16c0-38.7-12.5-74.4-33.6-103.5l-9.1-12.4c-5.1-7-3.7-16.7 3-22l12.1-9.5C572.3 256.6 608 188.5 608 112V64c-81.1 0-153.4 37.7-200.3 96.5z"/></svg>