<svg xmlns="http://www.w3.org/2000/svg" viewBox="0 0 512 512"><!--! Font Awesome Pro 6.5.1 by @fontawesome - https://fontawesome.com License - https://fontawesome.com/license (Commercial License) Copyright 2023 Fonticons, Inc. --><path d="M169.1 17.3C183.8 6.3 203.2 0 224 0s40.2 6.3 54.9 17.3S304 44.6 304 64c0 19.5-10.6 35.9-25.3 46.8c-5.2 3.8-6.7 7.7-6.7 10c0 4 3.2 7.2 7.2 7.2H336c26.5 0 48 21.5 48 48v56.8c0 4 3.2 7.2 7.2 7.2c2.3 0 6.1-1.6 10-6.7c11-14.7 27.4-25.3 46.8-25.3c19.4 0 35.8 10.5 46.7 25.1s17.3 34.1 17.3 54.9s-6.3 40.2-17.3 54.9s-27.3 25.1-46.7 25.1c-19.5 0-35.9-10.6-46.8-25.3c-3.8-5.2-7.7-6.7-10-6.7c-4 0-7.2 3.2-7.2 7.2V464c0 26.5-21.5 48-48 48H279.2c-21.6 0-39.2-17.5-39.2-39.2c0-16.2 9.9-28.4 19.6-35.6c8.6-6.4 12.4-14.1 12.4-21.2c0-7.1-3.8-14.7-12.3-21.1s-21.1-10.9-35.7-10.9s-27.1 4.4-35.7 10.9s-12.3 14.1-12.3 21.1c0 7.1 3.8 14.8 12.4 21.2c9.7 7.2 19.6 19.4 19.6 35.6c0 21.7-17.5 39.2-39.2 39.2H48c-26.5 0-48-21.5-48-48V343.2C0 321.5 17.5 304 39.2 304c16.2 0 28.4 9.9 35.6 19.6C81.2 332.2 88.9 336 96 336c7.1 0 14.7-3.8 21.1-12.3s10.9-21.1 10.9-35.7s-4.4-27.1-10.9-35.7S103.1 240 96 240c-7.1 0-14.8 3.8-21.2 12.4C67.6 262.1 55.4 272 39.2 272C17.5 272 0 254.5 0 232.8V176c0-26.5 21.5-48 48-48H168.8c4 0 7.2-3.2 7.2-7.2c0-2.3-1.6-6.1-6.7-10C154.6 99.9 144 83.5 144 64c0-19.4 10.5-35.8 25.1-46.7zm19.2 25.6C179.8 49.3 176 56.9 176 64c0 7.1 3.8 14.8 12.4 21.2c9.7 7.2 19.6 19.4 19.6 35.6c0 21.6-17.5 39.2-39.2 39.2H48c-8.8 0-16 7.2-16 16v56.8c0 4 3.2 7.2 7.2 7.2c2.3 0 6.1-1.6 10-6.7C60.1 218.6 76.5 208 96 208c19.4 0 35.8 10.5 46.7 25.1s17.3 34.1 17.3 54.9s-6.3 40.2-17.3 54.9S115.4 368 96 368c-19.5 0-35.9-10.6-46.8-25.3c-3.8-5.2-7.7-6.7-10-6.7c-4 0-7.2 3.2-7.2 7.2V464c0 8.8 7.2 16 16 16H168.8c4 0 7.2-3.2 7.2-7.2c0-2.3-1.6-6.1-6.7-10c-14.7-11-25.3-27.4-25.3-46.8c0-19.4 10.5-35.8 25.1-46.7s34.1-17.3 54.9-17.3s40.2 6.3 54.9 17.3s25.1 27.3 25.1 46.7c0 19.5-10.6 35.9-25.3 46.8c-5.2 3.8-6.7 7.7-6.7 10c0 4 3.2 7.2 7.2 7.2H336c8.8 0 16-7.2 16-16V343.2c0-21.7 17.5-39.2 39.2-39.2c16.2 0 28.4 9.9 35.6 19.6c6.4 8.6 14.1 12.4 21.2 12.4c7.1 0 14.7-3.8 21.1-12.3s10.9-21.1 10.9-35.7s-4.4-27.1-10.9-35.7s-14.1-12.3-21.1-12.3c-7.1 0-14.8 3.8-21.2 12.4c-7.2 9.7-19.4 19.6-35.6 19.6c-21.7 0-39.2-17.5-39.2-39.2V176c0-8.8-7.2-16-16-16H279.2c-21.6 0-39.2-17.5-39.2-39.2c0-16.2 9.9-28.4 19.6-35.6C268.2 78.8 272 71.1 272 64c0-7.1-3.8-14.7-12.3-21.1S238.5 32 224 32s-27.1 4.4-35.7 10.9z"/></svg>