<svg xmlns="http://www.w3.org/2000/svg" viewBox="0 0 640 512"><!--! Font Awesome Pro 6.5.1 by @fontawesome - https://fontawesome.com License - https://fontawesome.com/license (Commercial License) Copyright 2023 Fonticons, Inc. --><path d="M64 64H48c-8.8 0-16 7.2-16 16V368c0 8.8 7.2 16 16 16H332c4.4 11.3 9.9 22 16.5 32H96l0 80c0 8.8-7.2 16-16 16s-16-7.2-16-16l0-80H48c-26.5 0-48-21.5-48-48V80C0 53.5 21.5 32 48 32H64l0-16C64 7.2 71.2 0 80 0s16 7.2 16 16l0 16H480l0-16c0-8.8 7.2-16 16-16s16 7.2 16 16l0 16h16c26.5 0 48 21.5 48 48v83.2c-10.1-5.2-20.8-9.4-32-12.6V80c0-8.8-7.2-16-16-16H512 480 96 64zM464 201.3V288c0 17.7 14.3 32 32 32s32-14.3 32-32V201.3c0-5.3 2.6-10.3 7.1-13.3s10-3.6 14.9-1.6c52.7 21.4 90 73.1 90 133.5c0 42.7-18.6 81-48 107.3V496c0 8.8-7.2 16-16 16s-16-7.2-16-16V419.9c0-4.9 2.2-9.4 6-12.5c25.6-20.6 42-52.1 42-87.4c0-38-19-71.7-48-91.9V288c0 35.3-28.7 64-64 64s-64-28.7-64-64V228.1c-29 20.2-48 53.9-48 91.9c0 35.4 16.4 66.9 42 87.4c3.8 3 6 7.6 6 12.5V496c0 8.8-7.2 16-16 16s-16-7.2-16-16V427.3C370.6 401 352 362.7 352 320c0-60.5 37.3-112.2 90-133.5c4.9-2 10.5-1.4 14.9 1.6s7.1 7.9 7.1 13.3z"/></svg>