<svg xmlns="http://www.w3.org/2000/svg" viewBox="0 0 512 512"><!--! Font Awesome Pro 6.5.1 by @fontawesome - https://fontawesome.com License - https://fontawesome.com/license (Commercial License) Copyright 2023 Fonticons, Inc. --><path d="M128 32V96H96V32c0-17.7 14.3-32 32-32h64c17.7 0 32 14.3 32 32V96H192V32H128zM96 160c-35.3 0-64 28.7-64 64V440c0 22.1 17.9 40 40 40H248c22.1 0 40-17.9 40-40V224c0-35.3-28.7-64-64-64H96zM0 224c0-53 43-96 96-96H224c53 0 96 43 96 96V440c0 39.8-32.2 72-72 72H72c-39.8 0-72-32.2-72-72V224zm208 96a48 48 0 1 0 -96 0 48 48 0 1 0 96 0zM80 320a80 80 0 1 1 160 0A80 80 0 1 1 80 320zM336 0c8.8 0 16 7.2 16 16V32h16c8.8 0 16 7.2 16 16s-7.2 16-16 16H352V80c0 8.8-7.2 16-16 16s-16-7.2-16-16V64H304c-8.8 0-16-7.2-16-16s7.2-16 16-16h16V16c0-8.8 7.2-16 16-16zM480 16V32h16c8.8 0 16 7.2 16 16s-7.2 16-16 16H480V80c0 8.8-7.2 16-16 16s-16-7.2-16-16V64H432c-8.8 0-16-7.2-16-16s7.2-16 16-16h16V16c0-8.8 7.2-16 16-16s16 7.2 16 16zm0 192v16h16c8.8 0 16 7.2 16 16s-7.2 16-16 16H480v16c0 8.8-7.2 16-16 16s-16-7.2-16-16V256H432c-8.8 0-16-7.2-16-16s7.2-16 16-16h16V208c0-8.8 7.2-16 16-16s16 7.2 16 16zm-64-96v16h16c8.8 0 16 7.2 16 16s-7.2 16-16 16H416v16c0 8.8-7.2 16-16 16s-16-7.2-16-16V160H368c-8.8 0-16-7.2-16-16s7.2-16 16-16h16V112c0-8.8 7.2-16 16-16s16 7.2 16 16z"/></svg>