<svg xmlns="http://www.w3.org/2000/svg" viewBox="0 0 640 512"><!--! Font Awesome Pro 6.5.1 by @fontawesome - https://fontawesome.com License - https://fontawesome.com/license (Commercial License) Copyright 2023 Fonticons, Inc. --><path d="M208 126.7c0 18.4-14.9 33.3-33.3 33.3H128V360c0 48.6 39.4 88 88 88s88-39.4 88-88V152c0-66.3 53.7-120 120-120s120 53.7 120 120V352h46.7c18.4 0 33.3 14.9 33.3 33.3c0 8.3-3.1 16.3-8.7 22.4l-75.5 83c-3 3.3-7.3 5.2-11.8 5.2s-8.8-1.9-11.8-5.2l-75.5-83c-5.6-6.1-8.7-14.1-8.7-22.4c0-18.4 14.9-33.3 33.3-33.3H512V152c0-48.6-39.4-88-88-88s-88 39.4-88 88V360c0 66.3-53.7 120-120 120s-120-53.7-120-120V160H49.3C30.9 160 16 145.1 16 126.7c0-8.3 3.1-16.3 8.7-22.4l75.5-83c3-3.3 7.3-5.2 11.8-5.2s8.8 1.9 11.8 5.2l75.5 83c5.6 6.1 8.7 14.1 8.7 22.4zM112 128s0 0 0 0s0 0 0 0h62.7c.7 0 1.3-.6 1.3-1.3c0-.3-.1-.6-.3-.9L112 55.8l-63.7 70c-.2 .2-.3 .6-.3 .9c0 .7 .6 1.3 1.3 1.3H112zM528 384H465.3c-.7 0-1.3 .6-1.3 1.3c0 .3 .1 .6 .3 .9l63.7 70 63.7-70c.2-.2 .3-.6 .3-.9c0-.7-.6-1.3-1.3-1.3H528z"/></svg>