<svg xmlns="http://www.w3.org/2000/svg" viewBox="0 0 640 512"><!--! Font Awesome Pro 6.5.1 by @fontawesome - https://fontawesome.com License - https://fontawesome.com/license (Commercial License) Copyright 2023 Fonticons, Inc. --><path d="M32 128c0-17.7 14.3-32 32-32H576c17.7 0 32 14.3 32 32v49.6c-36.5 7.4-64 39.7-64 78.4s27.5 71 64 78.4V384c0 17.7-14.3 32-32 32H64c-17.7 0-32-14.3-32-32V128zM64 64C28.7 64 0 92.7 0 128V384c0 35.3 28.7 64 64 64H576c35.3 0 64-28.7 64-64V317.6c0-8-8-13.6-16-13.6c-26.5 0-48-21.5-48-48s21.5-48 48-48c8 0 16-5.6 16-13.6V128c0-35.3-28.7-64-64-64H64zm416 96a16 16 0 1 0 -32 0 16 16 0 1 0 32 0zm0 64a16 16 0 1 0 -32 0 16 16 0 1 0 32 0zm-16 80a16 16 0 1 0 0-32 16 16 0 1 0 0 32zm16 48a16 16 0 1 0 -32 0 16 16 0 1 0 32 0z"/></svg>