<svg xmlns="http://www.w3.org/2000/svg" viewBox="0 0 640 512"><!--! Font Awesome Pro 6.5.1 by @fontawesome - https://fontawesome.com License - https://fontawesome.com/license (Commercial License) Copyright 2023 Fonticons, Inc. --><path d="M160 64c-17.7 0-32 14.3-32 32v47.5c23.7 11.8 40 36.2 40 64.5s-16.3 52.8-40 64.5V320c0 17.7 14.3 32 32 32H576c17.7 0 32-14.3 32-32V272.5c-23.7-11.8-40-36.2-40-64.5s16.3-52.8 40-64.5V96c0-17.7-14.3-32-32-32H160zm452.2 77.5l0 0-.1 0c.1 0 .1 0 .1 0zm0 132.9l-.1 0c.1 0 .1 0 .1 0zm-488.4 0a0 0 0 1 0 0-.1 0 0 0 1 0 0 .1zm0-132.9a0 0 0 1 0 0 .1 0 0 0 1 0 0-.1zM160 32H576c35.3 0 64 28.7 64 64v56c0 8.8-7.4 15.7-15.6 19.1C610.1 177.2 600 191.4 600 208s10.1 30.8 24.4 36.9c8.1 3.4 15.6 10.3 15.6 19.1v56c0 35.3-28.7 64-64 64H160c-35.3 0-64-28.7-64-64V264c0-8.8 7.4-15.7 15.6-19.1c14.4-6.1 24.4-20.3 24.4-36.9s-10.1-30.8-24.4-36.9C103.4 167.7 96 160.8 96 152V96c0-35.3 28.7-64 64-64zM16 96c8.8 0 16 7.2 16 16V368c0 44.2 35.8 80 80 80H528c8.8 0 16 7.2 16 16s-7.2 16-16 16H112C50.1 480 0 429.9 0 368V112c0-8.8 7.2-16 16-16zm240 64v96H480V160H256zm-32 0c0-17.7 14.3-32 32-32H480c17.7 0 32 14.3 32 32v96c0 17.7-14.3 32-32 32H256c-17.7 0-32-14.3-32-32V160z"/></svg>