<svg xmlns="http://www.w3.org/2000/svg" viewBox="0 0 640 512"><!--! Font Awesome Pro 6.5.1 by @fontawesome - https://fontawesome.com License - https://fontawesome.com/license (Commercial License) Copyright 2023 Fonticons, Inc. --><path d="M160 64H576c17.7 0 32 14.3 32 32v47.5c-23.7 11.8-40 36.2-40 64.5s16.3 52.8 40 64.5V320c0 17.7-14.3 32-32 32H160c-17.7 0-32-14.3-32-32V96c0-17.7 14.3-32 32-32zm452.2 77.5s0 0-.1 0l.1 0 0 0zm0 132.9s0 0-.1 0l.1 0zM96 96V320c0 35.3 28.7 64 64 64H576c35.3 0 64-28.7 64-64V264c0-8.8-7.4-15.7-15.6-19.1C610.1 238.8 600 224.6 600 208s10.1-30.8 24.4-36.9c8.1-3.4 15.6-10.3 15.6-19.1V96c0-35.3-28.7-64-64-64H160c-35.3 0-64 28.7-64 64zm400 32a16 16 0 1 0 0-32 16 16 0 1 0 0 32zm0 64a16 16 0 1 0 0-32 16 16 0 1 0 0 32zm16 48a16 16 0 1 0 -32 0 16 16 0 1 0 32 0zm-16 80a16 16 0 1 0 0-32 16 16 0 1 0 0 32zM32 112c0-8.8-7.2-16-16-16s-16 7.2-16 16V368c0 61.9 50.1 112 112 112H528c8.8 0 16-7.2 16-16s-7.2-16-16-16H112c-44.2 0-80-35.8-80-80V112z"/></svg>