<svg xmlns="http://www.w3.org/2000/svg" viewBox="0 0 640 512"><!--! Font Awesome Pro 6.5.1 by @fontawesome - https://fontawesome.com License - https://fontawesome.com/license (Commercial License) Copyright 2023 Fonticons, Inc. --><path d="M64 32C46.3 32 32 46.3 32 64V352c0 17.7 14.3 32 32 32h5.5c13.2-37.3 48.7-64 90.5-64s77.4 26.7 90.5 64H384V64c0-17.7-14.3-32-32-32H64zm0 384c-35.3 0-64-28.7-64-64V64C0 28.7 28.7 0 64 0H352c35.3 0 64 28.7 64 64V96h65.3c14 0 27.3 6.1 36.4 16.8l78.7 91.8c7.5 8.7 11.6 19.8 11.6 31.2V384h16c8.8 0 16 7.2 16 16s-7.2 16-16 16H576c0 53-43 96-96 96s-96-43-96-96H256c0 53-43 96-96 96s-96-43-96-96zM570.9 224l-77.5-90.4c-3-3.5-7.5-5.6-12.1-5.6H416v96H570.9zM416 256v88.4c17-15.2 39.4-24.4 64-24.4c41.8 0 77.4 26.7 90.5 64H576V256H416zM224 416A64 64 0 1 0 96 416a64 64 0 1 0 128 0zm256 64a64 64 0 1 0 0-128 64 64 0 1 0 0 128zM288 224V128 97.3c-18.4 4.7-32 21.4-32 41.3V224h32zm0 80V256H256c-17.7 0-32-14.3-32-32V138.7C224 97.4 257.4 64 298.7 64c11.8 0 21.3 9.6 21.3 21.3V128v96 32 48c0 8.8-7.2 16-16 16s-16-7.2-16-16zM160 206.1V272c0 8.8-7.2 16-16 16s-16-7.2-16-16V206.1c-31.6-7.6-54.4-37.2-52-71.1l4-56.1C80.7 70 88.3 63.4 97.1 64s15.4 8.3 14.8 17.1l-4 56.1C106.5 158.2 123 176 144 176s37.5-17.8 36.1-38.7l-4-56.1c-.6-8.8 6-16.5 14.8-17.1s16.5 6 17.1 14.8l4 56.1c2.4 33.9-20.4 63.5-52 71.1zM160 80v64c0 8.8-7.2 16-16 16s-16-7.2-16-16V80c0-8.8 7.2-16 16-16s16 7.2 16 16z"/></svg>