<svg xmlns="http://www.w3.org/2000/svg" viewBox="0 0 640 512"><!--! Font Awesome Pro 6.5.1 by @fontawesome - https://fontawesome.com License - https://fontawesome.com/license (Commercial License) Copyright 2023 Fonticons, Inc. --><path d="M16 0C7.2 0 0 7.2 0 16s7.2 16 16 16H64V96H48C21.5 96 0 117.5 0 144V368c0 26.5 21.5 48 48 48H64c0 53 43 96 96 96s96-43 96-96H384c0 53 43 96 96 96s96-43 96-96h16c26.5 0 48-21.5 48-48V144c0-26.5-21.5-48-48-48H544c0-17.7-14.3-32-32-32s-32 14.3-32 32H384V32H624c8.8 0 16-7.2 16-16s-7.2-16-16-16H16zM352 32V96H288V32h64zm0 96h32V256H32V144c0-8.8 7.2-16 16-16H64 96 352zm64 0h64 64 48c8.8 0 16 7.2 16 16V368c0 8.8-7.2 16-16 16H570.5c-13.2-37.3-48.7-64-90.5-64s-77.4 26.7-90.5 64H250.5c-13.2-37.3-48.7-64-90.5-64s-77.4 26.7-90.5 64H48c-8.8 0-16-7.2-16-16V288H392c13.3 0 24-10.7 24-24V128zM256 32V96H192V32h64zm-96 0V96H96V32h64zM480 192h64v64H480V192zm-8-32c-13.3 0-24 10.7-24 24v80c0 13.3 10.7 24 24 24h80c13.3 0 24-10.7 24-24V184c0-13.3-10.7-24-24-24H472zM160 352a64 64 0 1 1 0 128 64 64 0 1 1 0-128zm256 64a64 64 0 1 1 128 0 64 64 0 1 1 -128 0z"/></svg>