<svg xmlns="http://www.w3.org/2000/svg" viewBox="0 0 640 512"><!--! Font Awesome Pro 6.5.1 by @fontawesome - https://fontawesome.com License - https://fontawesome.com/license (Commercial License) Copyright 2023 Fonticons, Inc. --><path d="M16 32H336c8.8 0 16 7.2 16 16s-7.2 16-16 16v96c8.8 0 16 7.2 16 16s-7.2 16-16 16H16c-8.8 0-16-7.2-16-16s7.2-16 16-16l0-96C7.2 64 0 56.8 0 48s7.2-16 16-16zM304 64H240v96h64V64zm-96 0H144v96h64V64zm-96 0H48v96h64V64zm272 72c0-22.1 17.9-40 40-40h58.7c12.7 0 24.9 5.1 33.9 14.1L625.9 219.3c9 9 14.1 21.2 14.1 33.9V368c0 26.5-21.5 48-48 48H576c0 53-43 96-96 96s-96-43-96-96H256c0 53-43 96-96 96s-96-43-96-96H48c-26.5 0-48-21.5-48-48V272c0-26.5 21.5-48 48-48H384V136zm32 88H585.4l-91.3-91.3c-3-3-7.1-4.7-11.3-4.7H424c-4.4 0-8 3.6-8 8v88zm192 32H48c-8.8 0-16 7.2-16 16v96c0 8.8 7.2 16 16 16H69.5c13.2-37.3 48.7-64 90.5-64s77.4 26.7 90.5 64H389.5c13.2-37.3 48.7-64 90.5-64s77.4 26.7 90.5 64H592c8.8 0 16-7.2 16-16V256zM224 416A64 64 0 1 0 96 416a64 64 0 1 0 128 0zm256 64a64 64 0 1 0 0-128 64 64 0 1 0 0 128z"/></svg>