<svg xmlns="http://www.w3.org/2000/svg" viewBox="0 0 384 512"><!--! Font Awesome Pro 6.5.1 by @fontawesome - https://fontawesome.com License - https://fontawesome.com/license (Commercial License) Copyright 2023 Fonticons, Inc. --><path d="M256 160h57.3c3.7 0 6.7-3 6.7-6.7c0-1.9-.8-3.7-2.2-5L192 35.8 66.2 148.3c-1.4 1.3-2.2 3.1-2.2 5c0 3.7 3 6.7 6.7 6.7H128c17.7 0 32 14.3 32 32V368c0 61.9 50.1 112 112 112h64c8.8 0 16-7.2 16-16V432c0-8.8-7.2-16-16-16l-64 0c-26.5 0-48-21.5-48-48V192c0-17.7 14.3-32 32-32zM178 5.3c3.8-3.4 8.8-5.3 14-5.3s10.1 1.9 14 5.3L339.1 124.5c8.2 7.3 12.9 17.8 12.9 28.8c0 21.4-17.3 38.7-38.7 38.7H288 256v32V368c0 8.8 7.2 16 16 16l64 0c26.5 0 48 21.5 48 48v32c0 26.5-21.5 48-48 48H272c-79.5 0-144-64.5-144-144V224 192H96 70.7C49.3 192 32 174.7 32 153.3c0-11 4.7-21.5 12.9-28.8L178 5.3z"/></svg>