<svg xmlns="http://www.w3.org/2000/svg" viewBox="0 0 640 512"><!--! Font Awesome Pro 6.5.1 by @fontawesome - https://fontawesome.com License - https://fontawesome.com/license (Commercial License) Copyright 2023 Fonticons, Inc. --><path d="M128 128a96 96 0 1 1 192 0 96 96 0 1 1 -192 0zm224 0A128 128 0 1 0 96 128a128 128 0 1 0 256 0zM32 480c1.2-79.7 66.2-144 146.3-144h91.4c17.7 0 34.6 3.1 50.3 8.9l0-.7v-33c-15.9-4.7-32.8-7.2-50.3-7.2H178.3C79.8 304 0 383.8 0 482.3C0 498.7 13.3 512 29.7 512H418.3c10 0 18.8-4.9 24.2-12.5l-26.8-26.8c.2 2.4 .2 4.8 .3 7.2H32zm513.9 11.3l73.4-73.4c18.7-18.7 18.7-49.1 0-67.9L512 242.7c-12-12-28.3-18.7-45.3-18.7H384c-17.7 0-32 14.3-32 32v82.7c0 17 6.7 33.3 18.7 45.3L478.1 491.3c18.7 18.7 49.1 18.7 67.9 0zM384 256h82.7c8.5 0 16.6 3.4 22.6 9.4L596.7 372.7c6.2 6.2 6.2 16.4 0 22.6l-73.4 73.4c-6.2 6.2-16.4 6.2-22.6 0L393.4 361.4c-6-6-9.4-14.1-9.4-22.6V256zm56 40a16 16 0 1 0 -32 0 16 16 0 1 0 32 0z"/></svg>