<svg xmlns="http://www.w3.org/2000/svg" viewBox="0 0 640 512"><!--! Font Awesome Pro 6.5.1 by @fontawesome - https://fontawesome.com License - https://fontawesome.com/license (Commercial License) Copyright 2023 Fonticons, Inc. --><path d="M128 128a96 96 0 1 1 192 0 96 96 0 1 1 -192 0zm224 0A128 128 0 1 0 96 128a128 128 0 1 0 256 0zM32 480c1.2-79.7 66.2-144 146.3-144h91.4c16.1 0 31.7 2.6 46.2 7.4c-8.4-9.5-13.2-22.4-11.6-36.1c-11.2-2.2-22.7-3.3-34.5-3.3H178.3C79.8 304 0 383.8 0 482.3C0 498.7 13.3 512 29.7 512H411.9c-5.1-7.8-7.9-17.1-7.9-26.3v-.9c-16.1 8.9-37.4 8.3-53-4.8H32zm341.5-85.9c12.8-11.4 18.5-27.7 18.5-42.4s-5.7-31-18.5-42.4l17.2-30.5c15.9 6.3 33 3.7 46-3.7c12.6-7.2 23.6-20.1 26.6-36.7H497c3 16.6 13.9 29.5 26.5 36.7c12.9 7.4 30 9.9 45.9 3.6l17.2 30.5C573.7 320.7 568 337 568 351.7s5.7 31 18.5 42.4l-17.2 30.5c-15.9-6.3-32.9-3.7-45.9 3.6c-12.6 7.2-23.5 20.2-26.5 36.7H463.3c-3.1-16.6-14-29.5-26.6-36.7c-13-7.4-30-9.9-46-3.7l-17.2-30.5zm26.1 61.7c6.5-3.9 14.6-3.4 21.2 .3c6.6 3.8 11.3 10.6 11.3 18.2v1.4c0 11.7 9.5 21.3 21.3 21.3h53.4c11.8 0 21.4-9.6 21.4-21.4V474c0-7.5 4.6-14.2 11.1-18c6.5-3.7 14.5-4.2 21-.3l1.8 1c10.7 6.3 24.4 2.6 30.5-8.2L619 401.7c5.7-10.2 2.3-23.1-7.8-29c-7.3-4.3-11.2-12.6-11.2-21s3.9-16.7 11.2-21c10-5.9 13.5-18.8 7.8-29l-26.4-46.9c-6.1-10.8-19.9-14.5-30.5-8.2l-1.8 1c-6.5 3.8-14.5 3.4-21-.3c-6.5-3.7-11.1-10.4-11.1-18v-1.6c0-11.8-9.6-21.4-21.4-21.4H453.4c-11.7 0-21.3 9.5-21.3 21.3V229c0 7.6-4.6 14.4-11.3 18.2c-6.6 3.7-14.7 4.2-21.2 .3l-1.6-1c-10.7-6.3-24.4-2.6-30.5 8.2L341 301.7c-5.7 10.2-2.3 23.1 7.8 29c7.3 4.3 11.2 12.6 11.2 21s-3.9 16.7-11.2 21c-10 5.9-13.5 18.8-7.8 29l26.4 46.9c6.1 10.8 19.9 14.5 30.5 8.2l1.6-1zm80.5-48.1a56 56 0 1 0 0-112 56 56 0 1 0 0 112zm0-80a24 24 0 1 1 0 48 24 24 0 1 1 0-48z"/></svg>