<svg xmlns="http://www.w3.org/2000/svg" viewBox="0 0 512 512"><!--! Font Awesome Pro 6.5.1 by @fontawesome - https://fontawesome.com License - https://fontawesome.com/license (Commercial License) Copyright 2023 Fonticons, Inc. --><path d="M467.3 224c4.9 0 8.7-4.3 7.8-9.2c-9.7-51.8-37.5-100.4-82.3-135.3C295.3 3.3 154.5 20.6 78.3 118.1l-.1 .1 0 0 0 0L46.9 160V72c0-4.4-3.6-8-8-8s-8 3.6-8 8V184c0 4.4 3.6 8 8 8h112c4.4 0 8-3.6 8-8s-3.6-8-8-8h-96L91 127.9C161.7 37.4 292.4 21.4 382.9 92.1c41.4 32.3 67.2 77.2 76.3 125.1c.7 3.9 4.1 6.8 8.1 6.8zm3.4 96h-112c-4.4 0-8 3.6-8 8s3.6 8 8 8H456l-36.1 48.1c-70.7 90.5-201.4 106.5-291.9 35.8c-41.4-32.4-67.2-77.3-76.3-125.1c-.7-3.9-4.1-6.8-8.1-6.8c-4.9 0-8.7 4.3-7.8 9.2c9.7 51.8 37.5 100.4 82.3 135.4c97.5 76.2 238.3 58.9 314.4-38.6l.1-.1 0 0 0 0 30.1-40V440c0 4.4 3.6 8 8 8s8-3.6 8-8V328c0-4.4-3.6-8-8-8z"/></svg>