<svg xmlns="http://www.w3.org/2000/svg" viewBox="0 0 448 512"><!--! Font Awesome Pro 6.5.1 by @fontawesome - https://fontawesome.com License - https://fontawesome.com/license (Commercial License) Copyright 2023 Fonticons, Inc. --><path d="M224 16c44.2 0 80 35.8 80 80v32H144V96c0-44.2 35.8-80 80-80zM128 96v32H48c-26.5 0-48 21.5-48 48V416c0 53 43 96 96 96H352c53 0 96-43 96-96V176c0-26.5-21.5-48-48-48H320V96c0-53-43-96-96-96s-96 43-96 96zM48 144h88H312h88c17.7 0 32 14.3 32 32V416c0 44.2-35.8 80-80 80H96c-44.2 0-80-35.8-80-80V176c0-17.7 14.3-32 32-32zm96 168c-4.4 0-8 3.6-8 8s3.6 8 8 8H304c4.4 0 8-3.6 8-8s-3.6-8-8-8H144z"/></svg>