<svg xmlns="http://www.w3.org/2000/svg" viewBox="0 0 512 512"><!--! Font Awesome Pro 6.5.1 by @fontawesome - https://fontawesome.com License - https://fontawesome.com/license (Commercial License) Copyright 2023 Fonticons, Inc. --><path d="M160 32c0-4.4-3.6-8-8-8s-8 3.6-8 8V75.3 91.7v51.5 16V224H112V161.3v-16V98.4 82 48c0-4.4-3.6-8-8-8s-8 3.6-8 8V85.4L6.4 104.2c-4.3 .9-7.1 5.1-6.2 9.5s5.1 7.1 9.5 6.2L96 101.7v44.6L7.5 152c-4.4 .3-7.8 4.1-7.5 8.5s4.1 7.8 8.5 7.5L96 162.3V224H33.9C15.5 224 .9 239.5 2 257.9l1.6 27.3c4.9 83.3 54.8 153.7 125.3 188.2c4.3 22 23.8 38.7 47.1 38.7H336c23.3 0 42.8-16.6 47.1-38.7c70.5-34.5 120.4-104.9 125.3-188.2l1.6-27.3c1.1-18.4-13.5-33.9-31.9-33.9H192 160V158.2v-16V88.3 72 32zm32 33.2V81.6L505.6 15.8c4.3-.9 7.1-5.1 6.2-9.5s-5.1-7.1-9.5-6.2L192 65.2zm0 74.9v16L504.5 136c4.4-.3 7.8-4.1 7.5-8.5s-4.1-7.8-8.5-7.5L192 140.1zM104 240h48H478.1c9.2 0 16.5 7.7 16 16.9l-1.6 27.3c-4.5 77.3-50.9 142.7-116.4 174.7c-4.5 2.2-7.7 6.4-8.7 11.3C364.5 484.9 351.5 496 336 496H176c-15.5 0-28.5-11.1-31.4-25.8c-1-4.9-4.2-9.1-8.7-11.3c-65.5-32-111.8-97.4-116.4-174.7L18 256.9c-.5-9.2 6.8-16.9 16-16.9H104z"/></svg>