<svg xmlns="http://www.w3.org/2000/svg" viewBox="0 0 603 512"><!--! Font Awesome Pro 6.5.1 by @fontawesome - https://fontawesome.com License - https://fontawesome.com/license (Commercial License) Copyright 2023 Fonticons, Inc. --><path d="M45.5 15.1H316.6c16.6 0 30.1 13.5 30.1 30.1V170.7c4.9-2.8 9.9-5.4 15.1-7.6V45.2c0-25-20.2-45.2-45.2-45.2H45.5C20.5 0 .3 20.2 .3 45.2V436.7c0 24.9 20.2 45.2 45.2 45.2h90.4 15.1 60.2 15.1 90.4c24.1 0 43.8-18.9 45.1-42.7c-5.2-2.3-10.2-4.8-15-7.6v5.1c0 16.6-13.5 30.1-30.1 30.1H226.2V391.5c0-24.9-20.2-45.2-45.2-45.2s-45.2 20.2-45.2 45.2v75.3H45.5c-16.6 0-30.1-13.5-30.1-30.1V45.2c0-16.6 13.5-30.1 30.1-30.1zM263.9 218.4H233.7c-12.5 0-22.6 10.1-22.6 22.6v30.1c0 12.5 10.1 22.6 22.6 22.6h30.1c2.7 0 5.4-.5 7.8-1.4c1.2-19.9 6.2-38.8 14.3-55.9c-2.1-10.3-11.2-18.1-22.1-18.1zM211.1 466.8H150.9V391.5c0-16.6 13.5-30.1 30.1-30.1s30.1 13.5 30.1 30.1v75.3zM98.2 218.4c-12.5 0-22.6 10.1-22.6 22.6v30.1c0 12.5 10.1 22.6 22.6 22.6h30.1c12.5 0 22.6-10.1 22.6-22.6V240.9c0-12.5-10.1-22.6-22.6-22.6H98.2zm-7.5 22.6c0-4.2 3.4-7.5 7.5-7.5h30.1c4.2 0 7.5 3.4 7.5 7.5v30.1c0 4.2-3.4 7.5-7.5 7.5H98.2c-4.2 0-7.5-3.4-7.5-7.5V240.9zm143.1-7.5h30.1c4.2 0 7.5 3.4 7.5 7.5v30.1c0 4.2-3.4 7.5-7.5 7.5H233.7c-4.2 0-7.5-3.4-7.5-7.5V240.9c0-4.2 3.4-7.5 7.5-7.5zM98.2 97.9c-12.5 0-22.6 10.1-22.6 22.6v30.1c0 12.5 10.1 22.6 22.6 22.6h30.1c12.5 0 22.6-10.1 22.6-22.6V120.5c0-12.5-10.1-22.6-22.6-22.6H98.2zm-7.5 22.6c0-4.2 3.4-7.5 7.5-7.5h30.1c4.2 0 7.5 3.4 7.5 7.5v30.1c0 4.2-3.4 7.5-7.5 7.5H98.2c-4.2 0-7.5-3.4-7.5-7.5V120.5zm120.5 0v30.1c0 12.5 10.1 22.6 22.6 22.6h30.1c12.5 0 22.6-10.1 22.6-22.6V120.5c0-12.5-10.1-22.6-22.6-22.6H233.7c-12.5 0-22.6 10.1-22.6 22.6zm22.6-7.5h30.1c4.2 0 7.5 3.4 7.5 7.5v30.1c0 4.2-3.4 7.5-7.5 7.5H233.7c-4.2 0-7.5-3.4-7.5-7.5V120.5c0-4.2 3.4-7.5 7.5-7.5zm188.2 83a105.4 105.4 0 1 1 0 210.8 105.4 105.4 0 1 1 0-210.8zm0 225.9c30.6 0 58.5-11.4 79.7-30.1l88.2 88.2c2.9 2.9 7.7 2.9 10.6 0s2.9-7.7 0-10.6L512.3 381c18.7-21.2 30.1-49.1 30.1-79.7c0-66.5-53.9-120.5-120.5-120.5s-120.5 53.9-120.5 120.5s53.9 120.5 120.5 120.5z"/></svg>