<svg xmlns="http://www.w3.org/2000/svg" viewBox="0 0 640 512"><!--! Font Awesome Pro 6.5.1 by @fontawesome - https://fontawesome.com License - https://fontawesome.com/license (Commercial License) Copyright 2023 Fonticons, Inc. --><path d="M336 16H48C30.3 16 16 30.3 16 48V464c0 17.7 14.3 32 32 32h96V416c0-26.5 21.5-48 48-48s48 21.5 48 48v80h57.6c2.9 5.7 6.5 11.1 10.5 16H240 224 160 144 48c-26.5 0-48-21.5-48-48V48C0 21.5 21.5 0 48 0H336c26.5 0 48 21.5 48 48V64h-8c-2.7 0-5.4 .1-8 .4V48c0-17.7-14.3-32-32-32zm-38.3 95.8c-1.4 2.7-2.6 5.4-3.7 8.2H280 256h-8c-4.4 0-8 3.6-8 8v32c0 4.4 3.6 8 8 8h8 24 8v14.6c-2.5 .9-5.2 1.4-8 1.4H248c-13.3 0-24-10.7-24-24V128c0-13.3 10.7-24 24-24h32c7 0 13.3 3 17.7 7.8zM288 233.4V248h-8H256h-8c-4.4 0-8 3.6-8 8v32c0 4.4 3.6 8 8 8h8 24 8v14.6c-2.5 .9-5.2 1.4-8 1.4H248c-13.3 0-24-10.7-24-24V256c0-13.3 10.7-24 24-24h32c2.8 0 5.5 .5 8 1.4zM224 416c0-17.7-14.3-32-32-32s-32 14.3-32 32v80h64V416zM80 256c0-13.3 10.7-24 24-24h32c13.3 0 24 10.7 24 24v32c0 13.3-10.7 24-24 24H104c-13.3 0-24-10.7-24-24V256zm24-8c-4.4 0-8 3.6-8 8v32c0 4.4 3.6 8 8 8h32c4.4 0 8-3.6 8-8V256c0-4.4-3.6-8-8-8H104zM80 128c0-13.3 10.7-24 24-24h32c13.3 0 24 10.7 24 24v32c0 13.3-10.7 24-24 24H104c-13.3 0-24-10.7-24-24V128zm24-8c-4.4 0-8 3.6-8 8v32c0 4.4 3.6 8 8 8h32c4.4 0 8-3.6 8-8V128c0-4.4-3.6-8-8-8H104zm280-8c-26.5 0-48 21.5-48 48V448c0 26.5 21.5 48 48 48H576c26.5 0 48-21.5 48-48V160c0-26.5-21.5-48-48-48H384zm-64 48c0-35.3 28.7-64 64-64H576c35.3 0 64 28.7 64 64V448c0 35.3-28.7 64-64 64H384c-35.3 0-64-28.7-64-64V160zm64 48a16 16 0 1 1 32 0 16 16 0 1 1 -32 0zm16 80a16 16 0 1 1 0 32 16 16 0 1 1 0-32zM384 400a16 16 0 1 1 32 0 16 16 0 1 1 -32 0zm72-200H576c4.4 0 8 3.6 8 8s-3.6 8-8 8H456c-4.4 0-8-3.6-8-8s3.6-8 8-8zm0 96H576c4.4 0 8 3.6 8 8s-3.6 8-8 8H456c-4.4 0-8-3.6-8-8s3.6-8 8-8zm0 96H576c4.4 0 8 3.6 8 8s-3.6 8-8 8H456c-4.4 0-8-3.6-8-8s3.6-8 8-8z"/></svg>