<svg xmlns="http://www.w3.org/2000/svg" viewBox="0 0 640 512"><!--! Font Awesome Pro 6.5.1 by @fontawesome - https://fontawesome.com License - https://fontawesome.com/license (Commercial License) Copyright 2023 Fonticons, Inc. --><path d="M48 72c0-13.3 10.7-24 24-24H173.1c8.8 0 16.8 4.8 21 12.4L266.5 192H48V72zm0 136H279.9h.3H352h40c22.1 0 40 17.9 40 40v56 4.1c-18.1-12.7-40.2-20.1-64-20.1H112c-23.8 0-45.9 7.4-64 20.1V224 208zm400 96V248c0-30.9-25.1-56-56-56H360V128c0-4.4-3.6-8-8-8s-8 3.6-8 8v64H284.7L208.1 52.7c-7-12.8-20.5-20.7-35-20.7H72C49.9 32 32 49.9 32 72V192v8 24 96h1.6C12.9 340.3 0 368.7 0 400c0 61.9 50.1 112 112 112H368c61.9 0 112-50.1 112-112c0-31.3-12.9-59.7-33.6-80H448h88v56.6c0 17 6 33.5 17 46.5l72.9 86.1c2.9 3.4 7.9 3.8 11.3 .9s3.8-7.9 .9-11.3l-72.9-86.1c-8.6-10.1-13.3-22.9-13.3-36.2V263.4c0-13.2 4.7-26.1 13.3-36.2l72.9-86.1c2.9-3.4 2.4-8.4-.9-11.3s-8.4-2.4-11.3 .9L553 216.9c-11 13-17 29.5-17 46.5V304H448zm-336 0H368c53 0 96 43 96 96s-43 96-96 96H112c-53 0-96-43-96-96s43-96 96-96zM96 416a16 16 0 1 0 0-32 16 16 0 1 0 0 32zm304-16a16 16 0 1 0 -32 0 16 16 0 1 0 32 0zM288 416a16 16 0 1 0 0-32 16 16 0 1 0 0 32zm-80-16a16 16 0 1 0 -32 0 16 16 0 1 0 32 0z"/></svg>