<svg xmlns="http://www.w3.org/2000/svg" viewBox="0 0 512 512"><!--! Font Awesome Pro 6.5.1 by @fontawesome - https://fontawesome.com License - https://fontawesome.com/license (Commercial License) Copyright 2023 Fonticons, Inc. --><path d="M294.3 51.3c2.8-2.1 6.2-3.3 9.7-3.3c79.5 0 192 69.9 192 208H26.6L294.3 51.3zM16 272H496v.4 .4 .4 .4 .4 .4 .4 .4 .4 .4 .4 .4 .4 .4 .4 .4 .4 .4 .4 .4 .4 .4 .4 .4 .4 .4 .4 .4 .4 .4 .4 .4 .4 .4 .4 .4 .4 .4 .4 .4 .4 .4 .4 .4 .4 .4 .4 .4 .4 .4 .4 .4 .4 .4 .4 .4 .4 .4 .4 .4 .4 .4 .4 .4 .4 .4 .4 .4 .4 .4 .4 .4 .4 .4 .4 .4 .4 .4 .4 .4 .4 .4 .4 .4 .4 .4 .4 .4 .4 .4 .4 .4 .4 .4 .4 .4 .4 .4 .4 .4 .4 .4 .4 .4 .4 .4 .4 .4 .4 .4 .4 .4 .4 .4 .4 .4 .4 .4 .4 .4 .4 .4 .4 .4 .4 .4 .4 .4 .4 .4 .4 .4 .4 .4 .4 .4 .4 .4 .4 .4 .4 .4 .4 .4 .4 .4 .4 .4 .4 .4 .3 .3 .3 .3 .3 .3 .3 .3 .3 .3 .3 .3 .3 .3 .3 .3 .3 .3 .3 .3 .3 .3 .3 .3 .3 .3 .3 .3 .3 .3 .3 .3 .3 .3 .3 .3 .3 .3 .3 .3 .3 .3 .3 .3 .3 .3 .3 .3 .3 .3 .3 .3 .3 .3 .3 .3 .3 .3 .3 .3 .3 .3H16V272zm480 96v.1 .3 .3 .3 .3 .3 .3 .3 .3 .3 .3 .3 .3 .3 .3 .3 .3 .3 .3 .3 .3 .3 .3 .3 .3 .3 .3 .3 .3 .3 .3 .3 .3 .3 .3 .3 .3 .3 .3 .3 .3 .3 .3 .3 .3 .3 .3 .3 .3 .3 .3 .3 .3 .3 .3 .3 .3 .3 .3 .2 .3 .2 .2 .2 .2 .2 .2 .2 .2 .2 .2 .2 .2 .2 .2 .2 .2 .2 .2 .2 .2 .2 .2 .2 .2 .2 .2 .2 .2 .2 .2 .2 .2 .2 .2 .2 .2 .2 .2 .2 .2 .2 .2 .2 .2 .2 .2 .2 .2 .2 .2 .2 .2 .2 .2 .2 .2 .2 .2 .2 .2 .2 .2 .2 .2 .2 .2 .2 .2 .2 .2 .2 .2 .2 .2 .2 .2 .2 .2 .2 .2 .2 .2 .2 .2 .2 .2 .2 .2 .2 .2 .2 .2 .2 .2 .2 .2 .2 .2 .2 .2 .2 .2 .2 .2 .2 .2 .2 .2 .2 .2 .2 .2 .2 .2 .2 .2 .2 .2 .2 .2 .2 .2 .2 .2 .2 .2 .2 .2 .2 .2 .2 .2 .2 .2 .2 .2 .2 .2 .2 .2 .2 .2 .2 .2 .2 .2 .2 .2 .2 .2 .2c0 26.5-21.5 48-48 48H64c-26.5 0-48-21.5-48-48V368H496zM304 32c-7 0-13.9 2.3-19.4 6.6l-272 208C4.6 252.6 0 262 0 272V416c0 35.3 28.7 64 64 64H448c35.3 0 64-28.6 64-64v-.2-.2-.2-.2-.2V415v-.2-.2-.2-.2-.2-.2-.2-.2-.2-.2V413v-.2-.2-.2-.2-.2-.2-.2-.2-.2-.2V411v-.2-.2-.2-.2V410v-.2-.2-.2-.2-.2-.2-.2-.2-.2-.2-.2-.2-.2-.2-.2-.2-.2-.2-.2-.2V406v-.2-.2-.2-.2-.2-.2-.2-.2-.2-.2-.2-.2-.2-.2-.2-.2-.2-.2-.2-.2-.2-.2-.2V401v-.2-.2-.2-.2-.2-.2-.2-.2-.2-.2-.2-.2-.2V398v-.2-.2-.2-.2-.2-.2-.2-.2V396v-.2-.2-.2-.2-.2-.2-.2-.2V394v-.2-.2-.2V393v-.2-.2-.2-.2-.2-.2-.2-.2-.2-.2-.2-.2V390v-.2-.2-.2V389v-.2-.2-.2-.2-.2-.2-.2-.2-.2-.2-.2-.2-.2-.2-.2-.2-.2-.2-.2-.2-.3-.2-.3-.3-.3-.3-.3-.3-.3-.3-.3-.3-.3-.3-.3-.3-.3-.3-.3V379v-.3-.3-.3V378v-.3-.3-.3-.3-.3-.3-.3-.3-.3-.3-.3-.3-.3-.3V374v-.3-.3-.3-.3-.3-.3-.3-.3-.3-.3V371v-.3-.3-.3-.3-.3-.3V369v-.3-.3-.3-.3-.3-.3V367v-.3-.3-.3-.3-.3-.3V365v-.3-.3-.3-.3-.3-.3V363v-.3-.3-.3-.3-.3-.3-.3-.3-.3V360v-.3-.3-.3-.3-.3-.3-.3-.3-.3V357v-.3-.3-.3-.3-.3-.3-.3-.3-.3-.3-.3-.3V353v-.3-.3V352v-.3-.3-.3-.3-.3-.3-.3-.3-.3-.3-.3-.3-.3-.3-.3-.3-.3-.3V346v-.3-.3V345v-.3-.3V344v-.3-.3V343v-.3-.3V342v-.3-.3V341v-.3-.3V340v-.3-.3V339v-.3-.3V338v-.3-.3V337v-.3-.3-.3-.3-.3-.3-.3-.3-.3-.3-.3-.3-.3-.3-.3-.3-.4-.4-.4V330v-.4-.4V329v-.4-.4-.4-.4-.4-.4-.4-.4-.4-.4V325v-.4-.4V324v-.4-.4-.4-.4-.4-.4-.4V321v-.4-.4-.4-.4-.4-.4-.4-.4-.4-.4-.4-.4-.4-.4-.4-.4-.4-.4-.4-.4-.4-.4-.4V312v-.4-.4-.4-.4-.4-.4-.4-.4-.4-.4-.4-.4V307v-.4-.4-.4-.4V305v-.4-.4-.4-.4-.4-.4-.4-.4-.4-.4-.4-.4-.4-.4-.4-.4-.4-.4-.4V297v-.4-.4-.4-.4V295v-.4-.4-.4-.4-.4-.4-.4-.4-.4-.4-.4V290v-.4-.4-.4-.4-.4-.4-.4-.4-.4-.4-.4V285v-.4-.4-.4-.4-.4-.4V282v-.4-.4-.4-.4-.4-.4V279v-.4-.4-.4-.4-.4-.4-.4-.4V275v-.4-.4-.4-.4-.4-.4-.4-.4-.4-.4-.4-.4-.4-.4-.4-.4-.5V267v-.5-.5-.5-.5-.5-.5-.5-.5-.5-.5V262v-.5-.5-.5-.5-.5-.5-.5-.5-.5-.5-.5-.5V256C512 107.7 390.9 32 304 32z"/></svg>