<svg xmlns="http://www.w3.org/2000/svg" viewBox="0 0 448 512"><!--! Font Awesome Pro 6.5.1 by @fontawesome - https://fontawesome.com License - https://fontawesome.com/license (Commercial License) Copyright 2023 Fonticons, Inc. --><path d="M120 0c4.4 0 8 3.6 8 8V64H320V8c0-4.4 3.6-8 8-8s8 3.6 8 8V64h48c35.3 0 64 28.7 64 64v48 16V448c0 35.3-28.7 64-64 64H64c-35.3 0-64-28.7-64-64V192 176 128C0 92.7 28.7 64 64 64h48V8c0-4.4 3.6-8 8-8zM432 192H16V448c0 26.5 21.5 48 48 48H384c26.5 0 48-21.5 48-48V192zM112 120V80H64c-26.5 0-48 21.5-48 48v48H432V128c0-26.5-21.5-48-48-48H336v40c0 4.4-3.6 8-8 8s-8-3.6-8-8V80H128v40c0 4.4-3.6 8-8 8s-8-3.6-8-8zM301.7 413.7c-3.1 3.1-8.2 3.1-11.3 0L224 347.3l-66.3 66.3c-3.1 3.1-8.2 3.1-11.3 0s-3.1-8.2 0-11.3L212.7 336l-66.3-66.3c-3.1-3.1-3.1-8.2 0-11.3s8.2-3.1 11.3 0L224 324.7l66.3-66.3c3.1-3.1 8.2-3.1 11.3 0s3.1 8.2 0 11.3L235.3 336l66.3 66.3c3.1 3.1 3.1 8.2 0 11.3z"/></svg>