<svg xmlns="http://www.w3.org/2000/svg" viewBox="0 0 448 512"><!--! Font Awesome Pro 6.5.1 by @fontawesome - https://fontawesome.com License - https://fontawesome.com/license (Commercial License) Copyright 2023 Fonticons, Inc. --><path d="M120 0c4.4 0 8 3.6 8 8V64H320V8c0-4.4 3.6-8 8-8s8 3.6 8 8V64h48c35.3 0 64 28.7 64 64v48 16V448c0 35.3-28.7 64-64 64H64c-35.3 0-64-28.7-64-64V192 176 128C0 92.7 28.7 64 64 64h48V8c0-4.4 3.6-8 8-8zM432 192H16V448c0 26.5 21.5 48 48 48H384c26.5 0 48-21.5 48-48V192zM112 120V80H64c-26.5 0-48 21.5-48 48v48H432V128c0-26.5-21.5-48-48-48H336v40c0 4.4-3.6 8-8 8s-8-3.6-8-8V80H128v40c0 4.4-3.6 8-8 8s-8-3.6-8-8zM376 280c0 4.4-3.6 8-8 8H176c-4.4 0-8-3.6-8-8s3.6-8 8-8H368c4.4 0 8 3.6 8 8zM272 416H80c-4.4 0-8-3.6-8-8s3.6-8 8-8H272c4.4 0 8 3.6 8 8s-3.6 8-8 8zM72 288a24 24 0 1 0 48 0 24 24 0 1 0 -48 0zm24 40a40 40 0 1 1 0-80 40 40 0 1 1 0 80zM352 440a24 24 0 1 0 0-48 24 24 0 1 0 0 48zm40-24a40 40 0 1 1 -80 0 40 40 0 1 1 80 0z"/></svg>