<svg xmlns="http://www.w3.org/2000/svg" viewBox="0 0 640 512"><!--! Font Awesome Pro 6.5.1 by @fontawesome - https://fontawesome.com License - https://fontawesome.com/license (Commercial License) Copyright 2023 Fonticons, Inc. --><path d="M8 0C3.6 0 0 3.6 0 8s3.6 8 8 8H45.7C57.1 16 67 24.1 69.2 35.4l59.4 303.4c5.1 26.3 28.2 45.2 55 45.2H320.7c-.5-5.3-.7-10.6-.7-16H183.5c-19.1 0-35.6-13.5-39.3-32.3L134.9 288H339.2c2.8-5.5 5.9-10.8 9.3-16H131.8L88 48H527.7c15.5 0 26.9 14.4 23.4 29.5L523.8 194.2c5.3 .8 10.5 1.9 15.7 3.2L566.6 81.1C572.5 56 553.4 32 527.7 32H84.8C81 13.4 64.7 0 45.7 0H8zM144 464a32 32 0 1 1 64 0 32 32 0 1 1 -64 0zm80 0a48 48 0 1 0 -96 0 48 48 0 1 0 96 0zm400-96a128 128 0 1 1 -256 0 128 128 0 1 1 256 0zm-272 0a144 144 0 1 0 288 0 144 144 0 1 0 -288 0zm213.7 2.3c-3.1-3.1-8.2-3.1-11.3 0L504 420.7V296c0-4.4-3.6-8-8-8s-8 3.6-8 8V420.7l-50.3-50.3c-3.1-3.1-8.2-3.1-11.3 0s-3.1 8.2 0 11.3l64 64c3.1 3.1 8.2 3.1 11.3 0l64-64c3.1-3.1 3.1-8.2 0-11.3z"/></svg>