<svg xmlns="http://www.w3.org/2000/svg" viewBox="0 0 448 512"><!--! Font Awesome Pro 6.5.1 by @fontawesome - https://fontawesome.com License - https://fontawesome.com/license (Commercial License) Copyright 2023 Fonticons, Inc. --><path d="M368 464c-17.7 0-32-14.3-32-32l0-352c0-17.7 14.3-32 32-32h32c17.7 0 32 14.3 32 32l0 352c0 17.7-14.3 32-32 32H368zm-48-32c0 26.5 21.5 48 48 48h32c26.5 0 48-21.5 48-48l0-352c0-26.5-21.5-48-48-48H368c-26.5 0-48 21.5-48 48l0 352zM80 400H48c-17.7 0-32-14.3-32-32L16 80c0-17.7 14.3-32 32-32H80c17.7 0 32 14.3 32 32l0 288c0 17.7-14.3 32-32 32zM48 416H80c26.5 0 48-21.5 48-48l0-288c0-26.5-21.5-48-48-48H48C21.5 32 0 53.5 0 80L0 368c0 26.5 21.5 48 48 48zM240 272H208c-17.7 0-32-14.3-32-32l0-160c0-17.7 14.3-32 32-32h32c17.7 0 32 14.3 32 32V240c0 17.7-14.3 32-32 32zm-32 16h32c26.5 0 48-21.5 48-48V80c0-26.5-21.5-48-48-48H208c-26.5 0-48 21.5-48 48l0 160c0 26.5 21.5 48 48 48z"/></svg>