<svg xmlns="http://www.w3.org/2000/svg" viewBox="0 0 640 512"><!--! Font Awesome Pro 6.5.1 by @fontawesome - https://fontawesome.com License - https://fontawesome.com/license (Commercial License) Copyright 2023 Fonticons, Inc. --><path d="M64 48C37.5 48 16 69.5 16 96v32H64c35.3 0 64 28.7 64 64V320c0 35.3-28.7 64-64 64H16v32c0 26.5 21.5 48 48 48H312V351.7c-49.3-4.1-88-45.3-88-95.7s38.7-91.6 88-95.7V48H64zM328 351.7V464H576c26.5 0 48-21.5 48-48V384H576c-35.3 0-64-28.7-64-64V192c0-35.3 28.7-64 64-64h48V96c0-26.5-21.5-48-48-48H328V160.3c49.3 4.1 88 45.3 88 95.7s-38.7 91.6-88 95.7zm0-175.3V335.6c40.4-4 72-38.1 72-79.6s-31.6-75.6-72-79.6zm-16 0c-40.4 4-72 38.1-72 79.6s31.6 75.6 72 79.6V176.4zM16 144V368H64c26.5 0 48-21.5 48-48V192c0-26.5-21.5-48-48-48H16zM576 368h48V144H576c-26.5 0-48 21.5-48 48V320c0 26.5 21.5 48 48 48zM0 96C0 60.7 28.7 32 64 32H576c35.3 0 64 28.7 64 64V416c0 35.3-28.7 64-64 64H64c-35.3 0-64-28.7-64-64V96z"/></svg>