<svg xmlns="http://www.w3.org/2000/svg" viewBox="0 0 448 512"><!--! Font Awesome Pro 6.5.1 by @fontawesome - https://fontawesome.com License - https://fontawesome.com/license (Commercial License) Copyright 2023 Fonticons, Inc. --><path d="M32 80c5.5 0 10.6-2.8 13.6-7.5l30.6-49c2.9-4.7 8.1-7.5 13.6-7.5H358.3c5.5 0 10.6 2.8 13.6 7.5l30.6 49c2.9 4.7 8.1 7.5 13.6 7.5c8.8 0 16 7.2 16 16s-7.2 16-16 16H32c-8.8 0-16-7.2-16-16s7.2-16 16-16zM385.4 15c-5.8-9.4-16.1-15-27.1-15H89.7c-11 0-21.3 5.7-27.1 15L32 64C14.3 64 0 78.3 0 96s14.3 32 32 32H416c17.7 0 32-14.3 32-32s-14.3-32-32-32L385.4 15zM47.4 160L74.6 453.9c3 32.9 30.7 58.1 63.7 58.1H309.7c33.1 0 60.7-25.2 63.7-58.1L400.6 160H384.5l-5.9 64H69.4l-5.9-64H47.4zm23.5 80H377.1L363.8 384H84.2L70.9 240zM85.7 400H362.3l-4.9 52.4c-2.3 24.7-23 43.6-47.8 43.6H138.3c-24.8 0-45.5-18.9-47.8-43.6L85.7 400z"/></svg>