<svg xmlns="http://www.w3.org/2000/svg" viewBox="0 0 512 512"><!--! Font Awesome Pro 6.5.1 by @fontawesome - https://fontawesome.com License - https://fontawesome.com/license (Commercial License) Copyright 2023 Fonticons, Inc. --><path d="M176 496H64c-26.5 0-48-21.5-48-48V64c0-26.5 21.5-48 48-48H204.1c1.3 0 2.6 .1 3.9 .2V136c0 22.1 17.9 40 40 40H367.8c.2 1.3 .2 2.6 .2 3.9V304h16V179.9c0-12.7-5.1-24.9-14.1-33.9L238.1 14.1c-9-9-21.2-14.1-33.9-14.1H64C28.7 0 0 28.7 0 64V448c0 35.3 28.7 64 64 64H176V496zM361.1 160H248c-13.3 0-24-10.7-24-24V22.9c1 .8 1.9 1.6 2.7 2.4L358.6 157.3c.9 .9 1.7 1.8 2.4 2.7zM232 400v80c0 17.7 14.3 32 32 32h16c17.7 0 32-14.3 32-32V456c0-4.4-3.6-8-8-8H288c-4.4 0-8 3.6-8 8s3.6 8 8 8h8v16c0 8.8-7.2 16-16 16H264c-8.8 0-16-7.2-16-16V400c0-8.8 7.2-16 16-16h16c8.8 0 16 7.2 16 16v8c0 4.4 3.6 8 8 8s8-3.6 8-8v-8c0-17.7-14.3-32-32-32H264c-17.7 0-32 14.3-32 32zm144-24c0-4.4-3.6-8-8-8s-8 3.6-8 8V504c0 4.4 3.6 8 8 8s8-3.6 8-8V376zm56-8c-4.4 0-8 3.6-8 8v64 64c0 4.4 3.6 8 8 8s8-3.6 8-8V448h40c4.4 0 8-3.6 8-8s-3.6-8-8-8H440V384h40c4.4 0 8-3.6 8-8s-3.6-8-8-8H432z"/></svg>