<svg xmlns="http://www.w3.org/2000/svg" viewBox="0 0 512 512"><!--! Font Awesome Pro 6.5.1 by @fontawesome - https://fontawesome.com License - https://fontawesome.com/license (Commercial License) Copyright 2023 Fonticons, Inc. --><path d="M64 496h48v16H64c-35.3 0-64-28.7-64-64V64C0 28.7 28.7 0 64 0H204.1c12.7 0 24.9 5.1 33.9 14.1L369.9 145.9c9 9 14.1 21.2 14.1 33.9V304H368V179.9c0-1.3-.1-2.6-.2-3.9H248c-22.1 0-40-17.9-40-40V16.2c-1.3-.2-2.6-.2-3.9-.2H64C37.5 16 16 37.5 16 64V448c0 26.5 21.5 48 48 48zM361.1 160c-.8-1-1.6-1.9-2.4-2.7L226.7 25.4c-.9-.9-1.8-1.7-2.7-2.4V136c0 13.3 10.7 24 24 24H361.1zM205.7 368H232c4.4 0 8 3.6 8 8s-3.6 8-8 8H205.7c-12 0-21.7 9.7-21.7 21.7c0 8.2 4.6 15.7 12 19.4l31.2 15.6c12.8 6.4 20.8 19.4 20.8 33.7c0 20.8-16.9 37.7-37.7 37.7H176c-4.4 0-8-3.6-8-8s3.6-8 8-8h34.3c12 0 21.7-9.7 21.7-21.7c0-8.2-4.6-15.7-12-19.4l-31.2-15.6C176.1 433 168 419.9 168 405.7c0-20.8 16.9-37.7 37.7-37.7zM456 368h16c17.7 0 32 14.3 32 32v8c0 4.4-3.6 8-8 8s-8-3.6-8-8v-8c0-8.8-7.2-16-16-16H456c-8.8 0-16 7.2-16 16v80c0 8.8 7.2 16 16 16h16c8.8 0 16-7.2 16-16V464h-8c-4.4 0-8-3.6-8-8s3.6-8 8-8h16c4.4 0 8 3.6 8 8v24c0 17.7-14.3 32-32 32H456c-17.7 0-32-14.3-32-32V400c0-17.7 14.3-32 32-32zm-152 0c4.4 0 8 3.6 8 8v31.6c0 29.1 8.3 57.5 24 82c15.7-24.5 24-52.9 24-82V376c0-4.4 3.6-8 8-8s8 3.6 8 8v31.6c0 33.2-9.8 65.6-28.2 93.2l-5.1 7.7c-1.5 2.2-4 3.6-6.7 3.6s-5.2-1.3-6.7-3.6l-5.1-7.7c-18.4-27.6-28.2-60-28.2-93.2V376c0-4.4 3.6-8 8-8z"/></svg>