<svg xmlns="http://www.w3.org/2000/svg" viewBox="0 0 512 512"><!--! Font Awesome Pro 6.5.1 by @fontawesome - https://fontawesome.com License - https://fontawesome.com/license (Commercial License) Copyright 2023 Fonticons, Inc. --><path d="M64 496H80v16H64c-35.3 0-64-28.7-64-64V64C0 28.7 28.7 0 64 0H204.1c12.7 0 24.9 5.1 33.9 14.1L369.9 145.9c9 9 14.1 21.2 14.1 33.9V304H368V179.9c0-1.3-.1-2.6-.2-3.9H248c-22.1 0-40-17.9-40-40V16.2c-1.3-.2-2.6-.2-3.9-.2H64C37.5 16 16 37.5 16 64V448c0 26.5 21.5 48 48 48zM361.1 160c-.8-1-1.6-1.9-2.4-2.7L226.7 25.4c-.9-.9-1.8-1.7-2.7-2.4V136c0 13.3 10.7 24 24 24H361.1zM141.7 368.3c3.4-1 7 .3 9 3.2l41.3 62 41.3-62c2-2.9 5.6-4.2 9-3.2s5.7 4.1 5.7 7.7V504c0 4.4-3.6 8-8 8s-8-3.6-8-8V402.4l-33.3 50c-1.5 2.2-4 3.6-6.7 3.6s-5.2-1.3-6.7-3.6l-33.3-50V504c0 4.4-3.6 8-8 8s-8-3.6-8-8V376c0-3.5 2.3-6.6 5.7-7.7zM296 376c0-4.4 3.6-8 8-8h32c26.5 0 48 21.5 48 48s-21.5 48-48 48H312v40c0 4.4-3.6 8-8 8s-8-3.6-8-8V456 376zm16 72h24c17.7 0 32-14.3 32-32s-14.3-32-32-32H312v64zm152 64H432c-4.4 0-8-3.6-8-8s3.6-8 8-8h32c13.3 0 24-10.7 24-24s-10.7-24-24-24H440c-4.4 0-8-3.6-8-8s3.6-8 8-8h24c13.3 0 24-10.7 24-24s-10.7-24-24-24H432c-4.4 0-8-3.6-8-8s3.6-8 8-8h32c22.1 0 40 17.9 40 40c0 13.1-6.3 24.7-16 32c9.7 7.3 16 18.9 16 32c0 22.1-17.9 40-40 40z"/></svg>