<svg xmlns="http://www.w3.org/2000/svg" viewBox="0 0 512 512"><!--! Font Awesome Pro 6.5.1 by @fontawesome - https://fontawesome.com License - https://fontawesome.com/license (Commercial License) Copyright 2023 Fonticons, Inc. --><path d="M64 496h80v16H64c-35.3 0-64-28.7-64-64V64C0 28.7 28.7 0 64 0H204.1c12.7 0 24.9 5.1 33.9 14.1L369.9 145.9c9 9 14.1 21.2 14.1 33.9V304H368V179.9c0-1.3-.1-2.6-.2-3.9H248c-22.1 0-40-17.9-40-40V16.2c-1.3-.2-2.6-.2-3.9-.2H64C37.5 16 16 37.5 16 64V448c0 26.5 21.5 48 48 48zM361.1 160c-.8-1-1.6-1.9-2.4-2.7L226.7 25.4c-.9-.9-1.8-1.7-2.7-2.4V136c0 13.3 10.7 24 24 24H361.1zM216 376c0 8.9 2.6 17.5 7.5 24.9L240 425.6l16.5-24.7c4.9-7.4 7.5-16 7.5-24.9c0-4.4 3.6-8 8-8s8 3.6 8 8c0 12-3.6 23.8-10.2 33.8L249.6 440l20.2 30.2c6.7 10 10.2 21.7 10.2 33.8c0 4.4-3.6 8-8 8s-8-3.6-8-8c0-8.9-2.6-17.5-7.5-24.9L240 454.4l-16.5 24.7c-4.9 7.4-7.5 16-7.5 24.9c0 4.4-3.6 8-8 8s-8-3.6-8-8c0-12 3.6-23.8 10.2-33.8L230.4 440l-20.2-30.2C203.6 399.8 200 388 200 376c0-4.4 3.6-8 8-8s8 3.6 8 8zM328 504V376c0-4.4 3.6-8 8-8s8 3.6 8 8V496h40c4.4 0 8 3.6 8 8s-3.6 8-8 8H336c-4.4 0-8-3.6-8-8zm88-98.3c0-20.8 16.9-37.7 37.7-37.7H480c4.4 0 8 3.6 8 8s-3.6 8-8 8H453.7c-12 0-21.7 9.7-21.7 21.7c0 8.2 4.6 15.7 12 19.4l31.2 15.6c12.8 6.4 20.8 19.4 20.8 33.7c0 20.8-16.9 37.7-37.7 37.7H432c-4.4 0-8-3.6-8-8s3.6-8 8-8h26.3c12 0 21.7-9.7 21.7-21.7c0-8.2-4.6-15.7-12-19.4l-31.2-15.6C424.1 433 416 419.9 416 405.7z"/></svg>