<svg xmlns="http://www.w3.org/2000/svg" viewBox="0 0 384 512"><!--! Font Awesome Pro 6.5.1 by @fontawesome - https://fontawesome.com License - https://fontawesome.com/license (Commercial License) Copyright 2023 Fonticons, Inc. --><path d="M64 496c-26.5 0-48-21.5-48-48V64c0-26.5 21.5-48 48-48H204.1c1.3 0 2.6 .1 3.9 .2V136c0 22.1 17.9 40 40 40H367.8c.2 1.3 .2 2.6 .2 3.9V448c0 26.5-21.5 48-48 48H64zM358.6 157.3c.9 .9 1.7 1.8 2.4 2.7H248c-13.3 0-24-10.7-24-24V22.9c1 .8 1.9 1.6 2.7 2.4L358.6 157.3zM64 0C28.7 0 0 28.7 0 64V448c0 35.3 28.7 64 64 64H320c35.3 0 64-28.7 64-64V179.9c0-12.7-5.1-24.9-14.1-33.9L238.1 14.1c-9-9-21.2-14.1-33.9-14.1H64zM96 240h32v8 16 8h-8H104 96V240zm8 48v96H96c-8.8 0-16 7.2-16 16v32c0 8.8 7.2 16 16 16h32c8.8 0 16-7.2 16-16v-8h96v8c0 8.8 7.2 16 16 16h32c8.8 0 16-7.2 16-16V400c0-8.8-7.2-16-16-16h-8V288h8c8.8 0 16-7.2 16-16V240c0-8.8-7.2-16-16-16H256c-8.8 0-16 7.2-16 16v8H144v-8c0-8.8-7.2-16-16-16H96c-8.8 0-16 7.2-16 16v32c0 8.8 7.2 16 16 16h8zm160 0v96h-8c-8.8 0-16 7.2-16 16v8H144v-8c0-8.8-7.2-16-16-16h-8V288h8c8.8 0 16-7.2 16-16v-8h96v8c0 8.8 7.2 16 16 16h8zm-8 144v-8V408v-8h8 16 8v32H256zm-128-8v8H96V400h8 16 8v8 16zM288 272h-8H264h-8v-8V248v-8h32v32z"/></svg>