<svg xmlns="http://www.w3.org/2000/svg" viewBox="0 0 512 512"><!--! Font Awesome Pro 6.5.1 by @fontawesome - https://fontawesome.com License - https://fontawesome.com/license (Commercial License) Copyright 2023 Fonticons, Inc. --><path d="M64 496h48v16H64c-35.3 0-64-28.7-64-64V64C0 28.7 28.7 0 64 0H204.1c12.7 0 24.9 5.1 33.9 14.1L369.9 145.9c9 9 14.1 21.2 14.1 33.9V320H368V179.9c0-1.3-.1-2.6-.2-3.9H248c-22.1 0-40-17.9-40-40V16.2c-1.3-.2-2.6-.2-3.9-.2H64C37.5 16 16 37.5 16 64V448c0 26.5 21.5 48 48 48zM361.1 160c-.8-1-1.6-1.9-2.4-2.7L226.7 25.4c-.9-.9-1.8-1.7-2.7-2.4V136c0 13.3 10.7 24 24 24H361.1zM184 376c0 8.9 2.6 17.5 7.5 24.9L208 425.6l16.5-24.7c4.9-7.4 7.5-16 7.5-24.9c0-4.4 3.6-8 8-8s8 3.6 8 8c0 12-3.6 23.8-10.2 33.8L217.6 440l20.2 30.2c6.7 10 10.2 21.7 10.2 33.8c0 4.4-3.6 8-8 8s-8-3.6-8-8c0-8.9-2.6-17.5-7.5-24.9L208 454.4l-16.5 24.7c-4.9 7.4-7.5 16-7.5 24.9c0 4.4-3.6 8-8 8s-8-3.6-8-8c0-12 3.6-23.8 10.2-33.8L198.4 440l-20.2-30.2C171.6 399.8 168 388 168 376c0-4.4 3.6-8 8-8s8 3.6 8 8zM456 504V376c0-4.4 3.6-8 8-8s8 3.6 8 8V496h24c4.4 0 8 3.6 8 8s-3.6 8-8 8H464c-4.4 0-8-3.6-8-8zM301.9 368.3c3.5-1 7.1 .5 9 3.6L352 440.5l41.1-68.6c1.8-3.1 5.5-4.6 9-3.6s5.9 4.1 5.9 7.7V504c0 4.4-3.6 8-8 8s-8-3.6-8-8V404.9l-33.1 55.2c-1.4 2.4-4.1 3.9-6.9 3.9s-5.4-1.5-6.9-3.9L312 404.9V504c0 4.4-3.6 8-8 8s-8-3.6-8-8V376c0-3.6 2.4-6.8 5.9-7.7z"/></svg>