<svg xmlns="http://www.w3.org/2000/svg" viewBox="0 0 448 512"><!--! Font Awesome Pro 6.5.1 by @fontawesome - https://fontawesome.com License - https://fontawesome.com/license (Commercial License) Copyright 2023 Fonticons, Inc. --><path d="M384 496H128c-26.5 0-48-21.5-48-48V336H64V448c0 35.3 28.7 64 64 64H384c35.3 0 64-28.7 64-64V179.9c0-12.7-5.1-24.9-14.1-33.9L302.1 14.1c-9-9-21.2-14.1-33.9-14.1H128C92.7 0 64 28.7 64 64V256H80V64c0-26.5 21.5-48 48-48H268.1c1.3 0 2.6 .1 3.9 .2V136c0 22.1 17.9 40 40 40H431.8c.2 1.3 .2 2.6 .2 3.9V448c0 26.5-21.5 48-48 48zm41.1-336H312c-13.3 0-24-10.7-24-24V22.9c1 .8 1.9 1.6 2.7 2.4L422.6 157.3c.9 .9 1.7 1.8 2.4 2.7zM263.2 228.4c-1.4-2.8-4.2-4.5-7.3-4.4s-5.9 1.9-7.1 4.7L190.9 358.7l-40.1-66.8c-1.4-2.4-4-3.9-6.9-3.9H8c-4.4 0-8 3.6-8 8s3.6 8 8 8H139.5l45.7 76.1c1.5 2.6 4.4 4.1 7.3 3.9s5.6-2 6.8-4.7l57.1-128.5 24.4 48.8c1.4 2.7 4.1 4.4 7.2 4.4h64c4.4 0 8-3.6 8-8s-3.6-8-8-8H292.9l-29.8-59.6z"/></svg>