<svg xmlns="http://www.w3.org/2000/svg" viewBox="0 0 640 512"><!--! Font Awesome Pro 6.5.1 by @fontawesome - https://fontawesome.com License - https://fontawesome.com/license (Commercial License) Copyright 2023 Fonticons, Inc. --><path d="M285.5 16c1.5 0 2.9 .5 4 1.5c16.1 14.6 31.3 30.1 45.6 46.8c6.6 7.6 18.4 7.5 24.8-.3c5.8-7 11.9-13.9 18.2-19.6c2.3-2.1 5.9-2.1 8.2 0c18.9 17.4 38.4 41.2 53.2 67.2c14.8 26.1 24.5 54 24.5 79.7c0 29.5-8.8 56.9-24 79.9c3 2.8 5.8 5.6 8.6 8.6c2.6-1.7 5.3-3.4 8.1-5c14.8-24.4 23.3-53 23.3-83.5c0-29.5-11-60.1-26.6-87.6c-15.6-27.6-36.2-52.6-56.3-71.1c-8.4-7.7-21.4-7.8-29.8-.1c-7.1 6.5-13.8 14-19.7 21.3c0 0-.1 0-.1 .1s-.1 0-.1 0s-.1 0-.1 0c0 0 0 0 0 0l-.1 0c-14.8-17.2-30.5-33.2-47-48.3C296.1 1.9 290.8 0 285.6 0c-5.3 0-10.6 1.8-14.9 5.6c-24.3 21.8-51.8 50-73.3 81.6C176 118.8 160 154.6 160 191.4c0 30.4 8.4 58.9 23 83.3c2.9 1.6 5.6 3.3 8.4 5.1c2.7-2.9 5.5-5.7 8.4-8.4c-15.1-23-23.8-50.5-23.8-80c0-32.3 14.1-64.9 34.7-95.2c20.5-30.2 47-57.4 70.8-78.7c1.1-1 2.6-1.5 4.1-1.5zM415.3 252c-7-53.2-64.5-101-86.6-117.7c-5.2-3.9-12.1-3.9-17.3 0C289.2 151 231.7 198.8 224.7 252c6-3.9 12.2-7.4 18.6-10.5c5-16.3 15.1-32.6 27.8-47.7c17.3-20.7 37.4-37.2 48.9-45.9c11.5 8.7 31.6 25.2 48.9 45.9c12.6 15.2 22.8 31.4 27.8 47.7c6.4 3.1 12.7 6.6 18.6 10.5zM204.7 344.3C225.4 301.5 269.3 272 320 272s94.6 29.5 115.3 72.3c1.2 2.6 3.7 4.3 6.6 4.5s5.6-1.1 7.2-3.4c17.3-25 46.2-41.4 78.9-41.4c53 0 96 43 96 96s-43 96-96 96l-416 0c-53 0-96-43-96-96s43-96 96-96c32.7 0 61.6 16.4 78.9 41.4c1.6 2.3 4.4 3.6 7.2 3.4s5.3-1.9 6.6-4.5zM320 256c-52.6 0-98.6 28.2-123.7 70.3C175.8 302.8 145.6 288 112 288C50.1 288 0 338.1 0 400s50.1 112 112 112l416 0c61.9 0 112-50.1 112-112s-50.1-112-112-112c-33.6 0-63.8 14.8-84.3 38.3C418.6 284.2 372.6 256 320 256z"/></svg>