<svg xmlns="http://www.w3.org/2000/svg" viewBox="0 0 640 512"><!--! Font Awesome Pro 6.5.1 by @fontawesome - https://fontawesome.com License - https://fontawesome.com/license (Commercial License) Copyright 2023 Fonticons, Inc. --><path d="M0 136C0 60.9 60.9 0 136 0h56c22.7 0 44 10.7 57.6 28.8L252 32h36c0-17.7 14.3-32 32-32s32 14.3 32 32V160c0 17.7-14.3 32-32 32s-32-14.3-32-32H251.3l-2.9 2.9c-9 9-20.1 15.3-32.1 18.6L222.5 448c.8 35.1-27.4 64-62.5 64s-63.3-28.9-62.5-64l6.2-267.1c-14.4-4.6-26.9-14.1-35.3-27L10.8 175.5c-2.5 .9-5.2 .6-7.4-.9s-3.4-4-3.4-6.6V136zm237.1 15.6l5.3-5.3c1.5-1.5 3.5-2.3 5.7-2.3h48c4.4 0 8 3.6 8 8v8c0 8.8 7.2 16 16 16s16-7.2 16-16V32c0-8.8-7.2-16-16-16s-16 7.2-16 16v8c0 4.4-3.6 8-8 8H248c-2.5 0-4.9-1.2-6.4-3.2l-4.8-6.4C226.2 24.3 209.6 16 192 16H136C69.7 16 16 69.7 16 136v20.5l53.2-19.9c3.8-1.4 8.1 .3 10 3.9c8.5 16.9 25.7 27.6 44.6 27.6h73.7c14.9 0 29.1-5.9 39.6-16.4zM119.6 184l-6.1 264.4c-.6 26.1 20.4 47.6 46.5 47.6s47.1-21.5 46.5-47.6L200.4 184h-2.9H123.8h-4.1zm421.1 27.3l-4.7-4.7V200 56c0-22.1-17.9-40-40-40s-40 17.9-40 40V200v6.6l-4.7 4.7-73.9 73.9c-.9 .9-1.7 1.8-2.4 2.7H617.1c-.8-1-1.6-1.9-2.4-2.7l-73.9-73.9zM368 307.9V352H624V307.9c0-1.3-.1-2.6-.2-3.9H368.2c-.2 1.3-.2 2.6-.2 3.9zm0 60.1v96c0 17.7 14.3 32 32 32h48V416c0-4.4 3.6-8 8-8s8 3.6 8 8v80H592c17.7 0 32-14.3 32-32V368H368zm257.9-94.1c9 9 14.1 21.2 14.1 33.9V464c0 26.5-21.5 48-48 48H400c-26.5 0-48-21.5-48-48V307.9c0-12.7 5.1-24.9 14.1-33.9L440 200V56c0-30.9 25.1-56 56-56s56 25.1 56 56V200l73.9 73.9zM496 80a16 16 0 1 1 0-32 16 16 0 1 1 0 32z"/></svg>