<svg xmlns="http://www.w3.org/2000/svg" viewBox="0 0 543 512"><!--! Font Awesome Pro 6.5.1 by @fontawesome - https://fontawesome.com License - https://fontawesome.com/license (Commercial License) Copyright 2023 Fonticons, Inc. --><path d="M198.7 1.8c24-6.9 49 6.9 56 30.8l59.8 206.7 41-174.4c5.7-24.3 30-39.3 54.3-33.6s39.3 30 33.6 54.3l-3.2 13.7c10.6-7.9 24.4-11.1 38.2-7.6c24.2 6.2 38.8 30.8 32.6 55L451.7 378.9c-15.4 60.4-69.4 102.9-131.5 104c-.2 0-.4 0-.6 0h-1.5 0l-.3 0h0l-.3 0h0H300.1c-53.6 0-105.5-19.1-146.3-53.8l-105.8-90c-19-16.2-21.3-44.7-5.2-63.7s44.7-21.3 63.7-5.2l59.3 50.4L107.9 133.8c-7.4-23.8 6-49.1 29.8-56.5c13-4 26.5-1.9 37.3 4.8l-7.1-24.4c-6.9-24 6.9-49 30.8-56zm41.5 35c-4.6-16-21.3-25.2-37.3-20.6s-25.2 21.3-20.6 37.3l58.4 201.8c1.5 5-2.3 10-7.5 10c-3.4 0-6.5-2.2-7.5-5.5L179.8 111.6c-4.9-15.9-21.8-24.8-37.7-19.9s-24.8 21.8-19.9 37.7l57.9 186.9c4.5 14.4-12.7 25.7-24.1 15.9L96.7 281.8C84 271 65 272.6 54.2 285.3s-9.2 31.7 3.4 42.5l105.8 90c38.1 32.4 86.5 50.2 136.5 50.2h17.4 0l.3 0h0l.3 0h0 1.1c.1 0 .2 0 .3 0c55.5-.8 103.8-38.7 117.6-92.6L496.4 143c4.1-16.1-5.6-32.5-21.7-36.6s-32.5 5.6-36.6 21.7L404.7 259c-1 3.8-4.3 6.4-8.2 6.4c-5.5 0-9.5-5.1-8.3-10.4L428.8 82.2c3.8-16.2-6.2-32.4-22.4-36.2s-32.4 6.2-36.2 22.4L325.9 256.6c-1.2 5.1-5.8 8.7-11 8.7c-5 0-9.5-3.3-10.9-8.2L240.2 36.8z"/></svg>