<svg xmlns="http://www.w3.org/2000/svg" viewBox="0 0 640 512"><!--! Font Awesome Pro 6.5.1 by @fontawesome - https://fontawesome.com License - https://fontawesome.com/license (Commercial License) Copyright 2023 Fonticons, Inc. --><path d="M222.9 16h16.8c71.6 0 137.5 43.3 166.4 105c3.5 7.4 6.9 15.1 10.4 22.9c6.4 14.3 12.9 28.9 20.1 42.7c11.3 21.6 24.8 42.2 43.5 58.9l3.8 3.4c7.7 6.9 12.1 16.7 12.1 27c0 8.1-2.7 15.6-7.2 21.7l12.6 9.9c6.7-8.8 10.7-19.7 10.7-31.6c0-14.9-6.4-29.1-17.5-39l-3.8-3.4c-16.7-14.9-29.2-33.6-40-54.4c-7-13.4-13.1-27.1-19.3-41c-3.5-7.9-7.1-15.9-10.8-23.9C389.1 46.9 317.6 0 239.7 0H222.9c-31.3 0-61.1 6.4-88.1 18.1l14.4 11.4C172.2 20.8 197 16 222.9 16zM27 116.4C9.8 148.1 0 184.4 0 222.9c0 52.8 16.9 101.5 47.4 139.9C57.5 375.5 64 390.2 64 405.3V504c0 4.4 3.6 8 8 8s8-3.6 8-8V405.3c0-19.8-8.5-37.8-20.1-52.4C31.8 317.5 16 272.3 16 222.9c0-34.8 8.6-67.6 23.8-96.4L27 116.4zM546.6 343.2l25 19.8c2.7-2.9 4.3-6.7 4.3-11c0-8.8-7.2-16-16-16c-5.6 0-10.5 2.9-13.4 7.2zm63 49.7l24.6 19.4c3.5-2.9 5.8-7.4 5.8-12.3c0-8.8-7.2-16-16-16c-6.3 0-11.7 3.6-14.4 8.9zM431.8 436l-27.5-21.7-55.2-4.6c-7.5-.6-13.2-6.9-13.2-14.3c0-7.2 5.3-13.2 12.3-14.2l11.9-1.7L343 365.9c-13.4 3.3-23 15.4-23 29.5c0 15.8 12.1 29 27.9 30.3l68.1 5.7v.6c0 17.7-14.3 32-32 32H312c-4.4 0-8 3.6-8 8v32c0 4.4 3.6 8 8 8s8-3.6 8-8V480h64c25.2 0 45.8-19.4 47.8-44zM624 320a16 16 0 1 0 0-32 16 16 0 1 0 0 32zM13 1.7C9.5-1 4.5-.4 1.7 3S-.4 11.5 3 14.3l624 496c3.5 2.7 8.5 2.2 11.2-1.3s2.2-8.5-1.3-11.2L13 1.7z"/></svg>