<svg xmlns="http://www.w3.org/2000/svg" viewBox="0 0 384 512"><!--! Font Awesome Pro 6.5.1 by @fontawesome - https://fontawesome.com License - https://fontawesome.com/license (Commercial License) Copyright 2023 Fonticons, Inc. --><path d="M8 0C3.6 0 0 3.6 0 8s3.6 8 8 8H32V71.2c0 48.3 23 93.7 61.8 122.4L178.5 256 93.8 318.4C55 347 32 392.5 32 440.8V496H8c-4.4 0-8 3.6-8 8s3.6 8 8 8H376c4.4 0 8-3.6 8-8s-3.6-8-8-8H352V440.8c0-48.3-23-93.7-61.8-122.4L205.5 256l84.7-62.4C329 165 352 119.5 352 71.2V16h24c4.4 0 8-3.6 8-8s-3.6-8-8-8H8zM336 16V71.2c0 43.2-20.5 83.9-55.3 109.5L192 246.1l-88.7-65.3C68.5 155.1 48 114.4 48 71.2V16H336zM192 265.9l88.7 65.3c34.8 25.6 55.3 66.3 55.3 109.5V496H48V440.8c0-43.2 20.5-83.9 55.3-109.5L192 265.9z"/></svg>