<svg xmlns="http://www.w3.org/2000/svg" viewBox="0 0 384 512"><!--! Font Awesome Pro 6.5.1 by @fontawesome - https://fontawesome.com License - https://fontawesome.com/license (Commercial License) Copyright 2023 Fonticons, Inc. --><path d="M0 8C0 3.6 3.6 0 8 0H376c4.4 0 8 3.6 8 8s-3.6 8-8 8H352V71.2c0 48.3-23 93.7-61.8 122.4L205.5 256l84.7 62.4C329 347 352 392.5 352 440.8V496h24c4.4 0 8 3.6 8 8s-3.6 8-8 8H8c-4.4 0-8-3.6-8-8s3.6-8 8-8H32V440.8c0-48.3 23-93.7 61.8-122.4L178.5 256 93.8 193.6C55 165 32 119.5 32 71.2V16H8c-4.4 0-8-3.6-8-8zm48 8V64H336V16H48zm.3 64c2.6 39.9 22.6 76.8 55 100.7L192 246.1l88.7-65.3c32.4-23.9 52.5-60.8 55-100.7H48.3zm55 251.3C68.5 356.9 48 397.6 48 440.8V496H336V440.8c0-43.2-20.5-83.9-55.3-109.5L192 265.9l-88.7 65.3z"/></svg>