<svg xmlns="http://www.w3.org/2000/svg" viewBox="0 0 384 512"><!--! Font Awesome Pro 6.5.1 by @fontawesome - https://fontawesome.com License - https://fontawesome.com/license (Commercial License) Copyright 2023 Fonticons, Inc. --><path d="M8 0C3.6 0 0 3.6 0 8s3.6 8 8 8H32V71.2c0 48.3 23 93.7 61.8 122.4L178.5 256 93.8 318.4C55 347 32 392.5 32 440.8V496H8c-4.4 0-8 3.6-8 8s3.6 8 8 8H376c4.4 0 8-3.6 8-8s-3.6-8-8-8H352V440.8c0-48.3-23-93.7-61.8-122.4L205.5 256l84.7-62.4C329 165 352 119.5 352 71.2V16h24c4.4 0 8-3.6 8-8s-3.6-8-8-8H8zM336 16V71.2c0 19.9-4.3 39.2-12.4 56.8H60.4C52.3 110.4 48 91.1 48 71.2V16H336zM314.9 144c-8.9 14.1-20.5 26.6-34.2 36.7L192 246.1l-88.7-65.3C89.6 170.6 78 158.1 69.1 144H314.9zM192 265.9l88.7 65.3c28 20.7 46.8 51.1 53.1 84.7H50.3c6.2-33.7 25-64.1 53.1-84.7L192 265.9zM48 440.8c0-2.9 .1-5.9 .3-8.8H335.7c.2 2.9 .3 5.8 .3 8.8V496H48V440.8z"/></svg>