<svg xmlns="http://www.w3.org/2000/svg" viewBox="0 0 384 512"><!--! Font Awesome Pro 6.5.1 by @fontawesome - https://fontawesome.com License - https://fontawesome.com/license (Commercial License) Copyright 2023 Fonticons, Inc. --><path d="M0 8C0 3.6 3.6 0 8 0H376c4.4 0 8 3.6 8 8s-3.6 8-8 8H352V71.2c0 48.3-23 93.7-61.8 122.4L205.5 256l84.7 62.4C329 347 352 392.5 352 440.8V496h24c4.4 0 8 3.6 8 8s-3.6 8-8 8H8c-4.4 0-8-3.6-8-8s3.6-8 8-8H32V440.8c0-48.3 23-93.7 61.8-122.4L178.5 256 93.8 193.6C55 165 32 119.5 32 71.2V16H8c-4.4 0-8-3.6-8-8zm48 8V71.2c0 43.2 20.5 83.9 55.3 109.5L192 246.1l88.7-65.3C315.5 155.1 336 114.4 336 71.2V16H48zm55.3 315.3C95 337.4 87.5 344.4 81 352h.2 .6 .6H83h.6 .6 .6 .6H86h.6 .6 .6 .6 .6 .6 .6 .6 .6 .6 .6H93h.6 .6 .6 .6 .6 .6 .6 .6 .6 .6 .6 .6 .6 .6 .6 .6 .6 .6 .6 .6 .6 .5 .5 .5 .5 .5 .5 .5 .5 .5 .5 .5 .5 .5 .5 .5 .5 .5 .5 .5 .5 .5 .5 .5 .5 .5 .5 .5 .5 .5 .5 .5 .5 .5 .5 .5 .5 .5 .5 .5 .5 .5 .5 .5 .5 .5 .5 .5 .5 .5 .5 .5 .5 .5 .5 .5 .5 .5 .5 .5 .5 .5 .5 .5 .5 .5 .5 .5 .5 .5 .5 .5 .5 .5 .5 .5 .5 .5 .5 .5 .5 .5 .5 .5 .5 .5 .5 .5 .5 .5 .5 .5 .5 .5 .5 .5 .5 .5 .5 .4 .4 .4 .4 .4 .4 .4 .4 .4 .4 .4 .4 .4 .4 .4 .4 .4 .4 .4 .4 .4 .4 .4 .4 .4 .4 .4 .4 .4 .4 .4 .4 .4 .4 .4 .4 .4 .4 .4 .4 .4 .4 .4 .4 .4 .4 .4 .4 .4 .4 .4 .4 .4 .4 .4 .4 .4 .4 .4 .4 .4 .4 .4 .4 .4 .4 .4 .4 .4 .4 .4 .4 .4 .4 .4 .4 .4 .4 .4 .4 .4 .4 .4 .4 .4 .4 .4 .4 .4 .4 .4 .4 .4 .4 .4 .4 .4 .4 .4 .4 .4 .4 .4 .4 .4 .4 .4 .4 .4 .4 .4 .4 .4 .4 .4 .4 .4 .4 .4 .4 .4 .4 .4 .4 .4 .4 .4 .4 .4 .4 .4 .4 .4 .4 .4 .4 .4 .4 .4 .4 .4 .4 .4 .4 .4 .4 .4 .4 .4 .4 .4 .4 .4 .4 .4 .4 .4 .4 .4 .4 .4 .4 .4 .4 .4 .4 .4 .4 .4 .4 .4 .4 .4 .4 .4 .4 .4 .4 .4 .4 .5 .5 .5 .5 .5 .5 .5 .5 .5 .5 .5 .5 .5 .5 .5 .5 .5 .5 .5 .5 .5 .5 .5 .5 .5 .5 .5 .5 .5 .5 .5 .5 .5 .5 .5 .5 .5 .5 .5 .5 .5 .5 .5 .5 .5 .5 .5 .5 .5 .5 .5 .5 .5 .5 .5 .5 .5 .5 .5 .5 .5 .5 .5 .5 .5 .5 .5 .5 .5 .5 .5 .5 .5 .5 .5 .5 .5 .5 .5 .5 .5 .5 .5 .5 .5 .5 .5 .5 .5 .5 .5 .5 .5 .5 .5 .5 .5 .5 .6 .6 .6 .6 .6 .6 .6 .6 .6 .6 .6 .6 .6 .6 .6 .6 .6 .6 .6 .6 .6 .6 .6 .6 .6 .6 .6 .6 .6 .6 .6 .6 .6 .6 .6 .6 .6 .6 .6 .6 .6 .2c-6.6-7.6-14.1-14.6-22.4-20.7L192 265.9l-88.7 65.3zM69.1 368C55.5 389.5 48 414.7 48 440.8V496H336V440.8c0-26.1-7.5-51.3-21.1-72.8h-.1-.6-.6-.6-.6-.6H311h-.6-.6-.6-.6-.6-.6-.6-.6-.6-.6-.6-.6-.6-.6-.6H301h-.6-.6-.6-.6H298h-.6-.6-.6-.6-.6-.6-.6-.6-.6-.6-.6H291h-.6-.6-.6-.6-.6-.6-.6-.6-.6-.6-.6-.6-.6H283h-.6-.6-.6-.6-.6-.6-.6-.5H278h-.5-.5-.5-.5-.5-.5-.5-.5-.5-.5-.5-.5H271h-.5H270h-.5-.5-.5-.5-.5-.5-.5-.5-.5-.5-.5-.5-.5-.5-.5-.5-.5-.5-.5-.5-.5-.5-.5-.5-.5-.5-.5-.5-.5-.5-.5-.5-.5-.5-.5-.5-.5-.5-.5-.5-.5-.5-.5-.5-.5-.5-.5H246h-.5H245h-.5-.5-.5-.5-.5-.5-.5-.5-.5-.5-.5-.5-.5-.5H238h-.5-.5-.5-.5-.5-.5-.5-.5-.5-.5H233h-.5-.5-.5-.5-.5-.4-.4-.4-.4-.4H228h-.4-.4-.4-.4-.4-.4-.4-.4H224h-.4-.4-.4-.4-.4-.4H221h-.4-.4-.4-.4-.4-.4-.4-.4-.4-.4-.4-.4-.4-.4-.4H214h-.4-.4-.4-.4-.4-.4H211h-.4-.4-.4-.4-.4-.4H208h-.4-.4-.4-.4-.4-.4-.4-.4-.4-.4-.4H203h-.4-.4-.4-.4-.4-.4H200h-.4-.4-.4-.4-.4-.4H197h-.4-.4-.4-.4-.4-.4-.4-.4-.4-.4-.4H192h-.4-.4-.4-.4-.4-.4-.4-.4-.4-.4-.4H187h-.4-.4-.4-.4-.4-.4H184h-.4-.4-.4-.4-.4-.4H181h-.4-.4-.4-.4-.4-.4-.4-.4-.4-.4-.4H176h-.4-.4-.4-.4-.4-.4H173h-.4-.4-.4-.4-.4-.4H170h-.4-.4-.4-.4-.4-.4-.4-.4-.4-.4-.4-.4-.4-.4-.4H163h-.4-.4-.4-.4-.4-.4H160h-.4-.4-.4-.4-.4-.4-.4-.4H156h-.4-.4-.4-.4-.4-.4-.5-.5-.5-.5H151h-.5-.5-.5-.5-.5-.5-.5-.5-.5-.5H146h-.5-.5-.5-.5-.5-.5-.5-.5-.5-.5-.5-.5-.5-.5H139h-.5H138h-.5-.5-.5-.5-.5-.5-.5-.5-.5-.5-.5-.5-.5-.5-.5-.5-.5-.5-.5-.5-.5-.5-.5-.5-.5-.5-.5-.5-.5-.5-.5-.5-.5-.5-.5-.5-.5-.5-.5-.5-.5-.5-.5-.5-.5-.5-.5H114h-.5H113h-.5-.5-.5-.5-.5-.5-.5-.5-.5-.5-.5-.5H106h-.5-.5-.6-.6-.6-.6-.6-.6H101h-.6-.6-.6-.6-.6-.6-.6-.6-.6-.6-.6-.6-.6H93h-.6-.6-.6-.6-.6-.6-.6-.6-.6-.6-.6H86h-.6-.6-.6-.6H83h-.6-.6-.6-.6-.6-.6-.6-.6-.6-.6-.6-.6-.6-.6-.6H73h-.6-.6-.6-.6-.6-.6-.1z"/></svg>