<svg xmlns="http://www.w3.org/2000/svg" viewBox="0 0 576 512"><!--! Font Awesome Pro 6.5.1 by @fontawesome - https://fontawesome.com License - https://fontawesome.com/license (Commercial License) Copyright 2023 Fonticons, Inc. --><path d="M282.7 2c3-2.7 7.6-2.7 10.6 0L384 82.3V56c0-13.3 10.7-24 24-24h80c13.3 0 24 10.7 24 24V195.7L573.3 250c3.3 2.9 3.6 8 .7 11.3s-8 3.6-11.3 .7L512 217.1V448c0 35.3-28.7 64-64 64H128c-35.3 0-64-28.7-64-64V217.1L13.3 262c-3.3 2.9-8.4 2.6-11.3-.7S-.6 252.9 2.7 250L282.7 2zM496 181.5V56c0-4.4-3.6-8-8-8H408c-4.4 0-8 3.6-8 8V96.5l96 85zM384 103.7l-96-85L80 202.9V448c0 26.5 21.5 48 48 48H448c26.5 0 48-21.5 48-48V202.9L384.3 104H384v-.3zM272 192c-4.4 0-8 3.6-8 8v56c0 4.4-3.6 8-8 8H200c-4.4 0-8 3.6-8 8v32c0 4.4 3.6 8 8 8h56c4.4 0 8 3.6 8 8v56c0 4.4 3.6 8 8 8h32c4.4 0 8-3.6 8-8V320c0-4.4 3.6-8 8-8h56c4.4 0 8-3.6 8-8V272c0-4.4-3.6-8-8-8H320c-4.4 0-8-3.6-8-8V200c0-4.4-3.6-8-8-8H272zm-24 8c0-13.3 10.7-24 24-24h32c13.3 0 24 10.7 24 24v48h48c13.3 0 24 10.7 24 24v32c0 13.3-10.7 24-24 24H328v48c0 13.3-10.7 24-24 24H272c-13.3 0-24-10.7-24-24V328H200c-13.3 0-24-10.7-24-24V272c0-13.3 10.7-24 24-24h48V200z"/></svg>