<svg xmlns="http://www.w3.org/2000/svg" viewBox="0 0 640 512"><!--! Font Awesome Pro 6.5.1 by @fontawesome - https://fontawesome.com License - https://fontawesome.com/license (Commercial License) Copyright 2023 Fonticons, Inc. --><path d="M11.3 .7l144 64c4 1.8 5.9 6.5 4.1 10.6s-6.5 5.9-10.6 4.1l-144-64C.7 13.5-1.1 8.8 .7 4.8S7.2-1.1 11.3 .7zm144 190.6l-144 64c-4 1.8-8.8 0-10.6-4.1s0-8.8 4.1-10.6l144-64c4-1.8 8.8 0 10.6 4.1s0 8.8-4.1 10.6zM315.7 1.3c2.6-1.7 6-1.7 8.7 0l112 72c3.7 2.4 4.8 7.3 2.4 11.1s-7.3 4.8-11.1 2.4L416 79.2V128H400V68.9L320 17.5 240 68.9V128H224V79.2l-11.7 7.5c-3.7 2.4-8.7 1.3-11.1-2.4s-1.3-8.7 2.4-11.1l112-72zM176.3 496H272V432c0-26.5 21.5-48 48-48s48 21.5 48 48v64h95.7l-61-320H237.2l-61 320zM419 176l61 320h16c4.4 0 8 3.6 8 8s-3.6 8-8 8H480 464 368 352 288 272 176 160 144c-4.4 0-8-3.6-8-8s3.6-8 8-8h16l61-320h-5c-4.4 0-8-3.6-8-8s3.6-8 8-8h8H416h8c4.4 0 8 3.6 8 8s-3.6 8-8 8h-5zM352 432c0-17.7-14.3-32-32-32s-32 14.3-32 32v64h64V432zM639.3 4.8c1.8 4 0 8.8-4.1 10.6l-144 64c-4 1.8-8.8 0-10.6-4.1s0-8.8 4.1-10.6l144-64c4-1.8 8.8 0 10.6 4.1zm-158.6 176c1.8-4 6.5-5.9 10.6-4.1l144 64c4 1.8 5.9 6.5 4.1 10.6s-6.5 5.9-10.6 4.1l-144-64c-4-1.8-5.9-6.5-4.1-10.6z"/></svg>