<svg xmlns="http://www.w3.org/2000/svg" viewBox="0 0 512 512"><!--! Font Awesome Pro 6.5.1 by @fontawesome - https://fontawesome.com License - https://fontawesome.com/license (Commercial License) Copyright 2023 Fonticons, Inc. --><path d="M464 208v48c0 76-39.4 134.9-113.2 161.2c-4.9 1.7-8.6 5.7-10 10.7s-.3 10.3 2.9 14.4c9.7 12.2 17 26.5 20.9 42.1c.7 2.8 0 5.3-2 7.4c-2.2 2.4-6 4.3-10.5 4.3H160c-4.5 0-8.3-1.9-10.5-4.3c-2-2.2-2.7-4.6-2-7.4c4-15.6 11.2-29.8 20.9-42.1c3.2-4 4.3-9.4 2.9-14.4s-5.2-9-10-10.7C87.4 390.9 48 332 48 256V208H464zM371.6 426.1C442.1 395 480 333.1 480 256V224 208h16 8c4.4 0 8-3.6 8-8s-3.6-8-8-8H480 32 8c-4.4 0-8 3.6-8 8s3.6 8 8 8h8H32v16 32c0 77.1 37.9 139 108.4 170.1c5 2.2 10.1 4.2 15.5 6.1c-3.4 4.3-6.6 8.8-9.5 13.6c-6.4 10.6-11.3 22.2-14.5 34.5C127.6 497.4 142.3 512 160 512H352c17.7 0 32.4-14.6 28.1-31.7c-3.1-12.3-8.1-23.9-14.5-34.5c-2.9-4.7-6-9.3-9.5-13.6c5.3-1.9 10.5-3.9 15.5-6.1z"/></svg>