<svg xmlns="http://www.w3.org/2000/svg" viewBox="0 0 576 512"><!--! Font Awesome Pro 6.5.1 by @fontawesome - https://fontawesome.com License - https://fontawesome.com/license (Commercial License) Copyright 2023 Fonticons, Inc. --><path d="M16 104c0-30.9 25.1-56 56-56s56 25.1 56 56v81.4c0 6.4 2.5 12.5 7 17l16 16c3.1 3.1 3.1 8.2 0 11.3l-16 16c-4.5 4.5-7 10.6-7 17V400c0 44.2 35.8 80 80 80H496c44.2 0 80-35.8 80-80V368c0-17.7-14.3-32-32-32H423.7c-7.3 0-14.2 3.3-18.7 9l-14.7 18.4c-3.2 4-9.3 4-12.5 0L363 345c-4.6-5.7-11.4-9-18.7-9H304c-17.7 0-32 14.3-32 32v32c0 35.3-28.7 64-64 64s-64-28.7-64-64V262.6c0-2.1 .8-4.2 2.3-5.7l16-16c9.4-9.4 9.4-24.6 0-33.9l-16-16c-1.5-1.5-2.3-3.5-2.3-5.7V104c0-22.6-10.4-42.8-26.7-56H408c30.9 0 56 25.1 56 56v17.4c0 2.1-.8 4.2-2.3 5.7l-16 16c-9.4 9.4-9.4 24.6 0 33.9l16 16c1.5 1.5 2.3 3.5 2.3 5.7v18.7c0 2.1-.8 4.2-2.3 5.7l-16 16c-9.4 9.4-9.4 24.6 0 33.9l16 16c1.5 1.5 2.3 3.5 2.3 5.7V304h16v-9.4c0-6.4-2.5-12.5-7-17l-16-16c-3.1-3.1-3.1-8.2 0-11.3l16-16c4.5-4.5 7-10.6 7-17V198.6c0-6.4-2.5-12.5-7-17l-16-16c-3.1-3.1-3.1-8.2 0-11.3l16-16c4.5-4.5 7-10.6 7-17V104c0-39.8-32.2-72-72-72H72C32.2 32 0 64.2 0 104v72c0 17.7 14.3 32 32 32H96V192H32c-8.8 0-16-7.2-16-16V104zM496 464H256c19.4-14.6 32-37.8 32-64V368c0-8.8 7.2-16 16-16h40.3c2.4 0 4.7 1.1 6.2 3l14.7 18.4c9.6 12 27.9 12 37.5 0L417.4 355c1.5-1.9 3.8-3 6.2-3H544c8.8 0 16 7.2 16 16v32c0 35.3-28.7 64-64 64z"/></svg>