<svg xmlns="http://www.w3.org/2000/svg" viewBox="0 0 576 512"><!--! Font Awesome Pro 6.5.1 by @fontawesome - https://fontawesome.com License - https://fontawesome.com/license (Commercial License) Copyright 2023 Fonticons, Inc. --><path d="M80 32L80 8c0-4.4 3.6-8 8-8s8 3.6 8 8l0 24H480l0-24c0-4.4 3.6-8 8-8s8 3.6 8 8l0 24h32c26.5 0 48 21.5 48 48V368c0 26.5-21.5 48-48 48H496l0 88c0 4.4-3.6 8-8 8s-8-3.6-8-8l0-88H96l0 88c0 4.4-3.6 8-8 8s-8-3.6-8-8l0-88H48c-26.5 0-48-21.5-48-48V80C0 53.5 21.5 32 48 32H80zM528 48H48C30.3 48 16 62.3 16 80V368c0 17.7 14.3 32 32 32H528c17.7 0 32-14.3 32-32V80c0-17.7-14.3-32-32-32z"/></svg>