<svg xmlns="http://www.w3.org/2000/svg" viewBox="0 0 640 512"><!--! Font Awesome Pro 6.5.1 by @fontawesome - https://fontawesome.com License - https://fontawesome.com/license (Commercial License) Copyright 2023 Fonticons, Inc. --><path d="M80 32L80 8c0-4.4 3.6-8 8-8s8 3.6 8 8l0 24H480l0-24c0-4.4 3.6-8 8-8s8 3.6 8 8l0 24h32c26.5 0 48 21.5 48 48v83.2c-5.2-2.7-10.5-5.1-16-7.2V80c0-17.7-14.3-32-32-32H48C30.3 48 16 62.3 16 80V368c0 17.7 14.3 32 32 32H339.2c2.8 5.5 5.9 10.8 9.3 16H96l0 88c0 4.4-3.6 8-8 8s-8-3.6-8-8l0-88H48c-26.5 0-48-21.5-48-48V80C0 53.5 21.5 32 48 32H80zM456 192.7V288c0 22.1 17.9 40 40 40s40-17.9 40-40V192.7c0-2.6 1.3-5.1 3.4-6.6s4.9-1.8 7.4-.9C601.3 205.8 640 258.3 640 320c0 46.4-21.9 87.7-56 114v70c0 4.4-3.6 8-8 8s-8-3.6-8-8V430c0-2.6 1.2-5 3.3-6.5c32-23.3 52.7-61 52.7-103.5c0-50.6-29.4-94.4-72-115.1V288c0 30.9-25.1 56-56 56s-56-25.1-56-56V204.9c-42.6 20.8-72 64.5-72 115.1c0 42.5 20.7 80.2 52.7 103.5c2.1 1.5 3.3 3.9 3.3 6.5v74c0 4.4-3.6 8-8 8s-8-3.6-8-8V434c-34.1-26.3-56-67.6-56-114c0-61.7 38.7-114.2 93.2-134.8c2.5-.9 5.2-.6 7.4 .9s3.4 4 3.4 6.6z"/></svg>