<svg xmlns="http://www.w3.org/2000/svg" viewBox="0 0 512 512"><!--! Font Awesome Pro 6.5.1 by @fontawesome - https://fontawesome.com License - https://fontawesome.com/license (Commercial License) Copyright 2023 Fonticons, Inc. --><path d="M248 8c0-4.4 3.6-8 8-8s8 3.6 8 8V64H417c9.5 0 18.5 4.2 24.6 11.5l61.9 74.2c4.9 5.9 4.9 14.6 0 20.5l-61.9 74.2c-6.1 7.3-15.1 11.5-24.6 11.5H264V504c0 4.4-3.6 8-8 8s-8-3.6-8-8V256H64c-17.7 0-32-14.3-32-32V96c0-17.7 14.3-32 32-32H248V8zM429.3 85.8c-3-3.6-7.5-5.8-12.3-5.8H64c-8.8 0-16 7.2-16 16V224c0 8.8 7.2 16 16 16H417c4.7 0 9.3-2.1 12.3-5.8L491.2 160 429.3 85.8z"/></svg>