<svg xmlns="http://www.w3.org/2000/svg" viewBox="0 0 576 512"><!--! Font Awesome Pro 6.5.1 by @fontawesome - https://fontawesome.com License - https://fontawesome.com/license (Commercial License) Copyright 2023 Fonticons, Inc. --><path d="M64 48C37.5 48 16 69.5 16 96V416c0 26.5 21.5 48 48 48H512c26.5 0 48-21.5 48-48V96c0-26.5-21.5-48-48-48H64zM0 96C0 60.7 28.7 32 64 32H512c35.3 0 64 28.7 64 64V416c0 35.3-28.7 64-64 64H64c-35.3 0-64-28.7-64-64V96zM112 272H304c4.4 0 8 3.6 8 8s-3.6 8-8 8H112c-4.4 0-8-3.6-8-8s3.6-8 8-8zm256 0h96c4.4 0 8 3.6 8 8s-3.6 8-8 8H368c-4.4 0-8-3.6-8-8s3.6-8 8-8zM112 368h96c4.4 0 8 3.6 8 8s-3.6 8-8 8H112c-4.4 0-8-3.6-8-8s3.6-8 8-8zm160 0H464c4.4 0 8 3.6 8 8s-3.6 8-8 8H272c-4.4 0-8-3.6-8-8s3.6-8 8-8z"/></svg>