<svg xmlns="http://www.w3.org/2000/svg" viewBox="0 0 576 512"><!--! Font Awesome Pro 6.5.1 by @fontawesome - https://fontawesome.com License - https://fontawesome.com/license (Commercial License) Copyright 2023 Fonticons, Inc. --><path d="M16 480c0 8.8 7.2 16 16 16H272V208H16V480zm272 16H426.7L288 232.4V496zM560 192V160c0-5-2.4-9.8-6.4-12.8l-33.3-24.9c-12.9-9.7-24.7-20.8-35-33.2l-56-67.3c-3-3.6-7.5-5.8-12.3-5.8h-3.8c-4.2 0-8.3 1.7-11.3 4.7L380.1 42.5c-24 24-56.6 37.5-90.5 37.5h-3.2c-33.9 0-66.5-13.5-90.5-37.5L174.1 20.7c-3-3-7.1-4.7-11.3-4.7H159c-4.7 0-9.3 2.1-12.3 5.8L90.6 89c-10.3 12.4-22.1 23.6-35 33.2L22.4 147.2c-4 3-6.4 7.8-6.4 12.8v32H560zM293.3 208L444.8 496H544c8.8 0 16-7.2 16-16V208H293.3zM0 480V160c0-10.1 4.7-19.6 12.8-25.6l33.3-24.9C58 100.5 68.8 90.2 78.4 78.8l56-67.3C140.5 4.2 149.5 0 159 0h3.8c8.5 0 16.6 3.4 22.6 9.4l21.8 21.8c21 21 49.5 32.8 79.2 32.8h3.2c29.7 0 58.2-11.8 79.2-32.8L390.6 9.4c6-6 14.1-9.4 22.6-9.4H417c9.5 0 18.5 4.2 24.6 11.5l56 67.3c9.5 11.4 20.4 21.7 32.3 30.7l33.3 24.9c8.1 6 12.8 15.5 12.8 25.6V480c0 17.7-14.3 32-32 32H32c-17.7 0-32-14.3-32-32z"/></svg>