<svg xmlns="http://www.w3.org/2000/svg" viewBox="0 0 640 512"><!--! Font Awesome Pro 6.5.1 by @fontawesome - https://fontawesome.com License - https://fontawesome.com/license (Commercial License) Copyright 2023 Fonticons, Inc. --><path d="M160 48c-26.5 0-48 21.5-48 48v49.9c.3 .1 .6 .3 .9 .4C140 153.6 160 178.5 160 208s-20 54.4-47.1 61.8c-.3 .1-.6 .2-.9 .4V320c0 26.5 21.5 48 48 48H576c26.5 0 48-21.5 48-48V270.1c-.3-.1-.6-.3-.9-.4C596 262.4 576 237.5 576 208s20-54.4 47.1-61.8c.3-.1 .6-.2 .9-.4V96c0-26.5-21.5-48-48-48H160zm0-16H576c35.3 0 64 28.7 64 64v51.2c0 7.1-5.8 12.6-12.7 14.5C607 167.2 592 185.9 592 208s15 40.8 35.3 46.3c6.8 1.9 12.7 7.4 12.7 14.5V320c0 35.3-28.7 64-64 64H160c-35.3 0-64-28.7-64-64V268.8c0-7.1 5.8-12.6 12.7-14.5C129 248.8 144 230.1 144 208s-15-40.8-35.3-46.3c-6.8-1.9-12.7-7.4-12.7-14.5V96c0-35.3 28.7-64 64-64zM8 88c4.4 0 8 3.6 8 8V376c0 48.6 39.4 88 88 88H552c4.4 0 8 3.6 8 8s-3.6 8-8 8H104C46.6 480 0 433.4 0 376V96c0-4.4 3.6-8 8-8zm232 40c-8.8 0-16 7.2-16 16V272c0 8.8 7.2 16 16 16H496c8.8 0 16-7.2 16-16V144c0-8.8-7.2-16-16-16H240zm-32 16c0-17.7 14.3-32 32-32H496c17.7 0 32 14.3 32 32V272c0 17.7-14.3 32-32 32H240c-17.7 0-32-14.3-32-32V144z"/></svg>