<svg xmlns="http://www.w3.org/2000/svg" viewBox="0 0 640 512"><!--! Font Awesome Pro 6.5.1 by @fontawesome - https://fontawesome.com License - https://fontawesome.com/license (Commercial License) Copyright 2023 Fonticons, Inc. --><path d="M160 48H576c26.5 0 48 21.5 48 48v49.9c-.3 .1-.6 .3-.9 .4C596 153.6 576 178.5 576 208s20 54.4 47.1 61.8c.3 .1 .6 .2 .9 .4V320c0 26.5-21.5 48-48 48H160c-26.5 0-48-21.5-48-48V96c0-26.5 21.5-48 48-48zM96 96V320c0 35.3 28.7 64 64 64H576c35.3 0 64-28.7 64-64V268.8c0-7.1-5.8-12.6-12.7-14.5C607 248.8 592 230.1 592 208s15-40.8 35.3-46.3c6.8-1.9 12.7-7.4 12.7-14.5V96c0-35.3-28.7-64-64-64H160c-35.3 0-64 28.7-64 64zm400 32a16 16 0 1 0 0-32 16 16 0 1 0 0 32zm0 64a16 16 0 1 0 0-32 16 16 0 1 0 0 32zm16 48a16 16 0 1 0 -32 0 16 16 0 1 0 32 0zm-16 80a16 16 0 1 0 0-32 16 16 0 1 0 0 32zM16 96c0-4.4-3.6-8-8-8s-8 3.6-8 8V376c0 57.4 46.6 104 104 104H552c4.4 0 8-3.6 8-8s-3.6-8-8-8H104c-48.6 0-88-39.4-88-88V96z"/></svg>