<svg xmlns="http://www.w3.org/2000/svg" viewBox="0 0 640 512"><!--! Font Awesome Pro 6.5.1 by @fontawesome - https://fontawesome.com License - https://fontawesome.com/license (Commercial License) Copyright 2023 Fonticons, Inc. --><path d="M16 128c0-26.5 21.5-48 48-48H576c26.5 0 48 21.5 48 48v64c-35.3 0-64 28.7-64 64s28.7 64 64 64v64c0 26.5-21.5 48-48 48H64c-26.5 0-48-21.5-48-48V128zM64 64C28.7 64 0 92.7 0 128V384c0 35.3 28.7 64 64 64H576c35.3 0 64-28.7 64-64V317.6c0-8-8-13.6-16-13.6c-26.5 0-48-21.5-48-48s21.5-48 48-48c8 0 16-5.6 16-13.6V128c0-35.3-28.7-64-64-64H64zm416 96a16 16 0 1 0 -32 0 16 16 0 1 0 32 0zm0 64a16 16 0 1 0 -32 0 16 16 0 1 0 32 0zm-16 80a16 16 0 1 0 0-32 16 16 0 1 0 0 32zm16 48a16 16 0 1 0 -32 0 16 16 0 1 0 32 0z"/></svg>