<svg xmlns="http://www.w3.org/2000/svg" viewBox="0 0 576 512"><!--! Font Awesome Pro 6.5.1 by @fontawesome - https://fontawesome.com License - https://fontawesome.com/license (Commercial License) Copyright 2023 Fonticons, Inc. --><path d="M0 128C0 92.7 28.7 64 64 64H512c35.3 0 64 28.7 64 64v72.6c0 4-2.9 7.4-6.9 7.9C545.9 211.8 528 231.8 528 256s17.9 44.2 41.1 47.5c3.9 .6 6.9 3.9 6.9 7.9V384c0 35.3-28.7 64-64 64H64c-35.3 0-64-28.7-64-64V311.4c0-4 2.9-7.4 6.9-7.9C30.1 300.2 48 280.2 48 256s-17.9-44.2-41.1-47.5c-3.9-.6-6.9-3.9-6.9-7.9V128zM64 80c-26.5 0-48 21.5-48 48v66c27.6 7.1 48 32.2 48 62s-20.4 54.9-48 62v66c0 26.5 21.5 48 48 48H512c26.5 0 48-21.5 48-48V318c-27.6-7.1-48-32.2-48-62s20.4-54.9 48-62V128c0-26.5-21.5-48-48-48H64z"/></svg>