<svg xmlns="http://www.w3.org/2000/svg" viewBox="0 0 640 512"><!--! Font Awesome Pro 6.5.1 by @fontawesome - https://fontawesome.com License - https://fontawesome.com/license (Commercial License) Copyright 2023 Fonticons, Inc. --><path d="M64 16C37.5 16 16 37.5 16 64V352c0 26.5 21.5 48 48 48h3.3c10.4-36.9 44.4-64 84.7-64s74.2 27.1 84.7 64H400V64c0-26.5-21.5-48-48-48H64zm.4 400H64c-35.3 0-64-28.7-64-64V64C0 28.7 28.7 0 64 0H352c35.3 0 64 28.7 64 64V96h58.7c10.6 0 20.8 4.2 28.3 11.7L596.3 201c7.5 7.5 11.7 17.7 11.7 28.3V400h24c4.4 0 8 3.6 8 8s-3.6 8-8 8H575.6c.2 2.6 .4 5.3 .4 8c0 48.6-39.4 88-88 88s-88-39.4-88-88c0-2.7 .1-5.4 .4-8H400 239.6c.2 2.6 .4 5.3 .4 8c0 48.6-39.4 88-88 88s-88-39.4-88-88c0-2.7 .1-5.4 .4-8zM416 216H588c-.9-1.3-1.9-2.6-3-3.7L491.7 119c-4.5-4.5-10.6-7-17-7H416V216zm0 16V373.4c15.9-22.6 42.2-37.4 72-37.4c40.3 0 74.2 27.1 84.7 64H592V232H416zM224 424A72 72 0 1 0 80 424a72 72 0 1 0 144 0zm264 72a72 72 0 1 0 0-144 72 72 0 1 0 0 144zM304 240V136 81.8c0-1-.8-1.8-1.8-1.8c-25.5 0-46.2 20.7-46.2 46.2V224c0 8.8 7.2 16 16 16h32zm0 72V256H272c-17.7 0-32-14.3-32-32V126.2C240 91.9 267.9 64 302.2 64C312 64 320 72 320 81.8V136 240v16 56c0 4.4-3.6 8-8 8s-8-3.6-8-8zM152 199.5c0 .2 0 .4 0 .5v96c0 4.4-3.6 8-8 8s-8-3.6-8-8V200c0-.2 0-.4 0-.5c-31-4.1-54.3-31.8-52-63.9l4-56.1c.3-4.4 4.1-7.7 8.5-7.4s7.7 4.1 7.4 8.5l-4 56.1c-1.8 25.6 18.4 47.3 44 47.3s45.9-21.7 44-47.3l-4-56.1c-.3-4.4 3-8.2 7.4-8.5s8.2 3 8.5 7.4l4 56.1c2.3 32.1-21 59.8-52 63.9zM152 80v64c0 4.4-3.6 8-8 8s-8-3.6-8-8V80c0-4.4 3.6-8 8-8s8 3.6 8 8z"/></svg>