<svg xmlns="http://www.w3.org/2000/svg" viewBox="0 0 640 512"><!--! Font Awesome Pro 6.5.1 by @fontawesome - https://fontawesome.com License - https://fontawesome.com/license (Commercial License) Copyright 2023 Fonticons, Inc. --><path d="M8 32H344c4.4 0 8 3.6 8 8s-3.6 8-8 8H328V160h16c4.4 0 8 3.6 8 8s-3.6 8-8 8H232 216 136 120 40 24 8c-4.4 0-8-3.6-8-8s3.6-8 8-8H24V48H8c-4.4 0-8-3.6-8-8s3.6-8 8-8zM312 48H232V160h80V48zm-96 0H136V160h80V48zm-96 0H40V160h80V48zm264 80c0-17.7 14.3-32 32-32h74.7c10.6 0 20.8 4.2 28.3 11.7L633 221.7c4.5 4.5 7 10.6 7 17V376c0 22.1-17.9 40-40 40H575.6c.2 2.6 .4 5.3 .4 8c0 48.6-39.4 88-88 88s-88-39.4-88-88c0-2.7 .1-5.4 .4-8H239.6c.2 2.6 .4 5.3 .4 8c0 48.6-39.4 88-88 88s-88-39.4-88-88c0-2.7 .1-5.4 .4-8H40c-22.1 0-40-17.9-40-40V264c0-22.1 17.9-40 40-40H384V128zm16 112H384 40c-13.3 0-24 10.7-24 24V376c0 13.3 10.7 24 24 24H67.3c10.4-36.9 44.4-64 84.7-64s74.2 27.1 84.7 64H403.3c10.4-36.9 44.4-64 84.7-64s74.2 27.1 84.7 64H600c13.3 0 24-10.7 24-24V240H400zm212.7-16l-105-105c-4.5-4.5-10.6-7-17-7H416c-8.8 0-16 7.2-16 16v96H612.7zM224 424A72 72 0 1 0 80 424a72 72 0 1 0 144 0zm264 72a72 72 0 1 0 0-144 72 72 0 1 0 0 144z"/></svg>