<svg xmlns="http://www.w3.org/2000/svg" viewBox="0 0 384 512"><!--! Font Awesome Pro 6.5.1 by @fontawesome - https://fontawesome.com License - https://fontawesome.com/license (Commercial License) Copyright 2023 Fonticons, Inc. --><path d="M240 336h89.1c3.8 0 6.9 3.1 6.9 6.9c0 1.8-.7 3.5-1.9 4.7L193.9 495.2c-.5 .5-1.2 .8-1.9 .8s-1.4-.3-1.9-.8L49.9 347.6c-1.2-1.3-1.9-3-1.9-4.7c0-3.8 3.1-6.9 6.9-6.9H144c8.8 0 16-7.2 16-16V112c0-53 43-96 96-96h88c13.3 0 24 10.7 24 24V56c0 13.3-10.7 24-24 24l-88 0c-17.7 0-32 14.3-32 32V320c0 8.8 7.2 16 16 16zM205.5 506.2L345.7 358.6c4-4.2 6.3-9.9 6.3-15.8c0-12.6-10.2-22.9-22.9-22.9H256 240V304 112c0-8.8 7.2-16 16-16l88 0c22.1 0 40-17.9 40-40V40c0-22.1-17.9-40-40-40H256C194.1 0 144 50.1 144 112V304v16H128 54.9C42.2 320 32 330.2 32 342.9c0 5.9 2.3 11.5 6.3 15.8L178.5 506.2c3.5 3.7 8.4 5.8 13.5 5.8s10-2.1 13.5-5.8z"/></svg>