<svg xmlns="http://www.w3.org/2000/svg" viewBox="0 0 384 512"><!--! Font Awesome Pro 6.5.1 by @fontawesome - https://fontawesome.com License - https://fontawesome.com/license (Commercial License) Copyright 2023 Fonticons, Inc. --><path d="M208 176h89.1c3.8 0 6.9-3.1 6.9-6.9c0-1.8-.7-3.5-1.9-4.7L161.9 16.8c-.5-.5-1.2-.8-1.9-.8s-1.4 .3-1.9 .8L17.9 164.4c-1.2 1.3-1.9 3-1.9 4.7c0 3.8 3.1 6.9 6.9 6.9H112c8.8 0 16 7.2 16 16V400c0 53 43 96 96 96h88c13.3 0 24-10.7 24-24V456c0-13.3-10.7-24-24-24l-88 0c-17.7 0-32-14.3-32-32V192c0-8.8 7.2-16 16-16zM173.5 5.8L313.7 153.4c4 4.3 6.3 9.9 6.3 15.8c0 12.6-10.2 22.9-22.9 22.9H224 208v16V400c0 8.8 7.2 16 16 16l88 0c22.1 0 40 17.9 40 40v16c0 22.1-17.9 40-40 40H224c-61.9 0-112-50.1-112-112V208 192H96 22.9C10.2 192 0 181.8 0 169.1c0-5.9 2.3-11.5 6.3-15.8L146.5 5.8C150 2.1 154.9 0 160 0s10 2.1 13.5 5.8z"/></svg>