<svg xmlns="http://www.w3.org/2000/svg" viewBox="0 0 640 512"><!--! Font Awesome Pro 6.5.1 by @fontawesome - https://fontawesome.com License - https://fontawesome.com/license (Commercial License) Copyright 2023 Fonticons, Inc. --><path d="M112 128a112 112 0 1 1 224 0 112 112 0 1 1 -224 0zm240 0A128 128 0 1 0 96 128a128 128 0 1 0 256 0zM16 482.3C16 392.7 88.7 320 178.3 320h91.4c17.6 0 34.5 2.8 50.3 7.9V311.2c-15.9-4.7-32.8-7.2-50.3-7.2H178.3C79.8 304 0 383.8 0 482.3C0 498.7 13.3 512 29.7 512H418.3c10 0 18.8-4.9 24.2-12.5l-11.7-11.7c-2.1 4.8-6.9 8.1-12.5 8.1H29.7c-7.6 0-13.7-6.1-13.7-13.7zM384 240h82.7c12.7 0 24.9 5.1 33.9 14.1L608 361.4c12.5 12.5 12.5 32.8 0 45.3L534.6 480c-12.5 12.5-32.8 12.5-45.3 0L382.1 372.7c-9-9-14.1-21.2-14.1-33.9V256c0-8.8 7.2-16 16-16zm-32 16v82.7c0 17 6.7 33.3 18.7 45.3L478.1 491.3c18.7 18.7 49.1 18.7 67.9 0l73.4-73.4c18.7-18.7 18.7-49.1 0-67.9L512 242.7c-12-12-28.3-18.7-45.3-18.7H384c-17.7 0-32 14.3-32 32zm88 40a16 16 0 1 0 -32 0 16 16 0 1 0 32 0z"/></svg>