<svg xmlns="http://www.w3.org/2000/svg" viewBox="0 0 640 512"><!--! Font Awesome Pro 6.5.1 by @fontawesome - https://fontawesome.com License - https://fontawesome.com/license (Commercial License) Copyright 2023 Fonticons, Inc. --><path d="M208 80A64 64 0 1 0 80 80a64 64 0 1 0 128 0zM64 80a80 80 0 1 1 160 0A80 80 0 1 1 64 80zM320 304a80 80 0 1 0 0-160 80 80 0 1 0 0 160zm0-176a96 96 0 1 1 0 192 96 96 0 1 1 0-192zM261.3 368C196.5 368 144 420.5 144 485.3c0 5.9 4.8 10.7 10.7 10.7H401.2c12.6 8.5 27.4 11.5 41.3 10c.9 2 1.9 4.1 3 6H154.7c-14.7 0-26.7-11.9-26.7-26.7C128 411.7 187.7 352 261.3 352h98.7c.4 5.6 1.6 10.9 3.5 16H261.3zM536 192c54.1 0 98.6 41.3 103.5 94.1l-.8-1c-5.5-7-12-12.4-19-16.2c-11.4-35.4-44.6-61-83.8-61H447c-.7-5.4-1.7-10.8-3-16h92zm-24-48a64 64 0 1 0 0-128 64 64 0 1 0 0 128zM512 0a80 80 0 1 1 0 160A80 80 0 1 1 512 0zM193 208H104c-48.6 0-88 39.4-88 88c0 4.4-3.6 8-8 8s-8-3.6-8-8c0-57.4 46.6-104 104-104h92c-1.3 5.2-2.4 10.6-3 16zm303 65.1v4.2c0 16.7-10.8 30.2-23.8 37.8c-13 7.5-30.1 10.1-44.6 1.7l-3.7-2.1c-2.9 3.7-5.6 7.5-8 11.5l-2.1 3.7c-2.2 4-4.2 8.2-5.9 12.5l3.6 2.1c14.6 8.4 20.4 24.6 20.4 39.5s-5.8 31.1-20.4 39.5l-3.6 2.1c1.7 4.3 3.7 8.4 5.9 12.4l2.2 3.8c2.4 4 5.1 7.8 7.9 11.5l3.7-2.1c14.5-8.3 31.6-5.8 44.6 1.7c13 7.5 23.8 21.1 23.8 37.8v4.2c5.2 .7 10.6 1.1 16 1.1s10.8-.4 16-1.1v-4.2c0-16.7 10.8-30.2 23.8-37.8c13-7.5 30.1-10.1 44.6-1.7l3.7 2.1c2.9-3.6 5.5-7.5 7.9-11.4l2.2-3.9c2.2-4 4.2-8.1 5.9-12.4l-3.6-2.1C597.8 415.1 592 398.9 592 384s5.8-31.1 20.4-39.5l3.6-2.1c-1.7-4.3-3.7-8.4-5.9-12.4l-2.2-3.7c-2.4-4-5.1-7.9-8-11.5l-3.7 2.1c-14.5 8.3-31.6 5.8-44.6-1.7c-13-7.5-23.8-21.1-23.8-37.8v-4.2c-5.2-.7-10.6-1.1-16-1.1s-10.8 .4-16 1.1zm-3.9-15.6c6.5-1 13.1-1.5 19.9-1.5s13.4 .5 19.9 1.5c7.1 1.1 12.1 7.5 12.1 14.9v4.9c0 9.4 6.2 18.4 15.8 23.9s20.4 6.4 28.6 1.7l4.3-2.5c6.4-3.7 14.5-2.5 19 3c3.7 4.6 7.1 9.4 10.1 14.5l.1 .1 0 0L624 322l.1 .1 0 0c2.8 5.1 5.3 10.3 7.4 15.8c2.6 6.7-.4 14.2-6.8 18l-4.2 2.4c-8 4.6-12.4 14.3-12.4 25.6s4.4 21 12.4 25.6l4.2 2.4c6.4 3.7 9.4 11.3 6.8 17.9c-2.1 5.4-4.5 10.7-7.3 15.7l-.1 .1 0 0-2.3 4-.1 .1 0 0c-3 5-6.4 9.8-10.1 14.4c-4.5 5.6-12.5 6.8-19 3l-4.3-2.5c-8.1-4.7-19-3.8-28.6 1.7s-15.8 14.5-15.8 23.9v4.9c0 7.4-5.1 13.8-12.1 14.9c-6.5 1-13.1 1.5-19.9 1.5s-13.4-.5-19.9-1.5c-7.1-1.1-12.1-7.5-12.1-14.9v-4.9c0-9.4-6.2-18.4-15.8-23.9s-20.4-6.4-28.6-1.7l-4.3 2.5c-6.4 3.7-14.5 2.5-19-3c-3.7-4.6-7.1-9.4-10.1-14.4l-.1-.1 0 0-2.3-4-.1-.1 0 0c-2.8-5-5.2-10.3-7.3-15.7c-2.6-6.7 .4-14.2 6.8-17.9l4.2-2.4c8-4.6 12.4-14.3 12.4-25.6s-4.4-21-12.4-25.6l-4.2-2.4c-6.4-3.7-9.4-11.3-6.8-17.9c2.1-5.5 4.6-10.8 7.4-15.8l.1-.1 0 0 2.2-3.8 .1-.1 0 0c3.1-5.1 6.5-9.9 10.2-14.5c4.5-5.6 12.5-6.8 19-3l4.3 2.5c8.2 4.7 19 3.8 28.6-1.7s15.8-14.5 15.8-23.9v-4.9c0-7.4 5.1-13.8 12.1-14.9zM512 408a24 24 0 1 0 0-48 24 24 0 1 0 0 48zm0-64a40 40 0 1 1 0 80 40 40 0 1 1 0-80z"/></svg>