<svg xmlns="http://www.w3.org/2000/svg" viewBox="0 0 512 512"><!--! Font Awesome Pro 6.5.1 by @fontawesome - https://fontawesome.com License - https://fontawesome.com/license (Commercial License) Copyright 2023 Fonticons, Inc. --><path d="M32 256C32 132.3 132.3 32 256 32h16V0H256C114.6 0 0 114.6 0 256S114.6 512 256 512h16V480H256C132.3 480 32 379.7 32 256zM309.4 116l-144 128-13.5 12 13.5 12 144 128 12 10.6 21.3-23.9-12-10.6L218.1 272H496h16V240H496 218.1L330.6 140l12-10.6-21.3-23.9-12 10.6z"/></svg>