<svg xmlns="http://www.w3.org/2000/svg" viewBox="0 0 512 512"><!--! Font Awesome Pro 6.5.1 by @fontawesome - https://fontawesome.com License - https://fontawesome.com/license (Commercial License) Copyright 2023 Fonticons, Inc. --><path d="M480.1 256c0-123.7-100.3-224-224-224h-16V0h16c141.4 0 256 114.6 256 256s-114.6 256-256 256h-16V480h16c123.7 0 224-100.3 224-224zM157.5 116l12-10.6 21.3 23.9-12 10.6L66.2 240H336.1h16v32h-16H66.2L178.7 372l12 10.6-21.3 23.9-12-10.6L13.5 268 0 256l13.5-12 144-128z"/></svg>