<svg xmlns="http://www.w3.org/2000/svg" viewBox="0 0 512 512"><!--! Font Awesome Pro 6.5.1 by @fontawesome - https://fontawesome.com License - https://fontawesome.com/license (Commercial License) Copyright 2023 Fonticons, Inc. --><path d="M445.4 224C430.1 133.2 351.1 64 256 64c-71.1 0-133.1 38.6-166.3 96H144h16v32H144 74.9 48 41.3 32V176 80 64H64V80v60.5C103.2 75.5 174.5 32 256 32c112.8 0 206.2 83.4 221.7 192H445.4zM256 448c71.1 0 133.1-38.6 166.3-96H367.8h-16V320h16 69.3 26.7 6.9 9.1v16 96 16h-32V432 371.8C408.6 436.6 337.4 480 256 480C143.2 480 49.8 396.6 34.3 288H66.7C81.9 378.8 160.9 448 256 448z"/></svg>