<svg xmlns="http://www.w3.org/2000/svg" viewBox="0 0 448 512"><!--! Font Awesome Pro 6.5.1 by @fontawesome - https://fontawesome.com License - https://fontawesome.com/license (Commercial License) Copyright 2023 Fonticons, Inc. --><path d="M160 96v32H288V96c0-35.3-28.7-64-64-64s-64 28.7-64 64zm-32 32V96c0-53 43-96 96-96h16V1.3c45.4 7.6 80 47.1 80 94.7v32h96 32v32V480v32H416 32 0V480 160 128H32h96zm0 32H32V480H416V160H320 288 160 128zm0 144h16 64V240 224h32v16 64h64 16v32H304 240v64 16H208l0-16V336H144 128V304z"/></svg>