<svg xmlns="http://www.w3.org/2000/svg" viewBox="0 0 576 512"><!--! Font Awesome Pro 6.5.1 by @fontawesome - https://fontawesome.com License - https://fontawesome.com/license (Commercial License) Copyright 2023 Fonticons, Inc. --><path d="M253.8 17.9l-7.9 13.9L155.4 192H420.6L330.1 31.9l-7.9-13.9L350.1 2.2l7.9 13.9L457.3 192H511h33 32v32H536L464 512H112L40 224H0V192H32 65h53.7L218.1 16.1l7.9-13.9 27.9 15.7zM503 224H73l64 256H439l64-256zM192 336h16 64V272 256h32v16 64h64 16v32H368 304v64 16H272V432 368H208 192V336z"/></svg>