<svg xmlns="http://www.w3.org/2000/svg" viewBox="0 0 512 512"><!--! Font Awesome Pro 6.5.1 by @fontawesome - https://fontawesome.com License - https://fontawesome.com/license (Commercial License) Copyright 2023 Fonticons, Inc. --><path d="M240 0h32V32.8c80.9 8 144 76.2 144 159.2v97.4l59.3 59.3 4.7 4.7V360v40 16H464 48 32V400 360v-6.6l4.7-4.7L96 289.4V192c0-83 63.1-151.2 144-159.2V0zm16 64c-70.7 0-128 57.3-128 128V296v6.6l-4.7 4.7L64 366.6V384H448V366.6l-59.3-59.3-4.7-4.7V296 192c0-70.7-57.3-128-128-128zM192 448h32c0 17.7 14.3 32 32 32s32-14.3 32-32h32c0 35.3-28.7 64-64 64s-64-28.7-64-64zM117.3 44.3C74.9 79.5 48 132.6 48 192H16C16 122.7 47.5 60.8 96.9 19.7l20.5 24.6zM467.1 192c0-59.4-26.9-112.5-69.3-147.7l20.5-24.6c49.4 41.1 80.9 103 80.9 172.3h-32z"/></svg>