<svg xmlns="http://www.w3.org/2000/svg" viewBox="0 0 320 512"><!--! Font Awesome Pro 6.5.1 by @fontawesome - https://fontawesome.com License - https://fontawesome.com/license (Commercial License) Copyright 2023 Fonticons, Inc. --><path d="M128 32V80h64V32H128zM96 83.4V80 32 0h32 64 32V32 80v3.4c7.6 2.1 14.9 5 21.8 8.9l6.2 3.4c27.1 15.1 44 43.7 44 74.8c0 15.9-4.3 30.8-11.9 43.5c7.5 12.2 11.9 26.6 11.9 42c0 18-6 34.6-16 48c10 13.4 16 30 16 48c0 17-5.3 32.7-14.3 45.6c9 14.6 14.3 31.9 14.3 50.4v32 32H264 56 24V480 448c0-18.5 5.2-35.7 14.3-50.4C29.3 384.7 24 369 24 352c0-18 6-34.6 16-48c-10-13.4-16-30-16-48c0-15.4 4.4-29.8 11.9-42C28.3 201.3 24 186.4 24 170.5c0-31.1 16.8-59.7 44-74.8l6.2-3.4c6.9-3.8 14.3-6.8 21.8-8.9zM121.6 112c-11.1 0-22.1 2.8-31.8 8.3l-6.2 3.4C66.5 133.1 56 151 56 170.5c0 10 2.7 19.3 7.4 27.2c6.1 10.2 5.9 23-.3 33.1C58.6 238.1 56 246.7 56 256c0 10.8 3.6 20.8 9.6 28.8c8.6 11.4 8.6 27.1 0 38.4c-6 8-9.6 17.9-9.6 28.8c0 10.2 3.2 19.6 8.5 27.3c7.3 10.5 7.6 24.2 1 35.1c-6 9.7-9.5 21.2-9.5 33.6v32H264V448c0-12.4-3.5-23.8-9.5-33.6c-6.7-10.8-6.3-24.6 1-35.1c5.4-7.8 8.5-17.1 8.5-27.3c0-10.8-3.6-20.8-9.6-28.8c-8.6-11.4-8.6-27.1 0-38.4c6-8 9.6-17.9 9.6-28.8c0-9.3-2.6-17.9-7.1-25.2c-6.3-10.1-6.4-22.9-.3-33.1c4.7-8 7.4-17.2 7.4-27.2c0-19.4-10.5-37.3-27.5-46.8l-6.2-3.4c-9.7-5.4-20.7-8.3-31.8-8.3H192 128h-6.4zM112 224h96c8.8 0 16 7.2 16 16s-7.2 16-16 16H112c-8.8 0-16-7.2-16-16s7.2-16 16-16zM96 368c0-8.8 7.2-16 16-16h96c8.8 0 16 7.2 16 16s-7.2 16-16 16H112c-8.8 0-16-7.2-16-16z"/></svg>