<svg xmlns="http://www.w3.org/2000/svg" viewBox="0 0 640 512"><!--! Font Awesome Pro 6.5.1 by @fontawesome - https://fontawesome.com License - https://fontawesome.com/license (Commercial License) Copyright 2023 Fonticons, Inc. --><path d="M560 304h16V272H560 480V192v-9.4l59.3-59.3L550.6 112 528 89.4l-11.3 11.3L457.4 160H448 301.7l40.5 32H448v80 3.5L484.1 304H560zM411.4 409.7c-19.7 20.1-46 33.7-75.4 37.4V350.2l-32-25.3V447c-63.1-7.9-112-61.7-112-127V304 272 236.5l-32-25.3V272H80 64v32H80h80v16c0 30.2 8.4 58.4 22.9 82.5l-74.2 74.2L97.4 488 120 510.6l11.3-11.3 71-71C231.5 460.1 273.4 480 320 480c46 0 87.4-19.4 116.6-50.4l-25.2-19.9zM224 98.7L261.2 128H384h32V96c0-53-43-96-96-96s-96 43-96 96v2.7zM320 32c35.3 0 64 28.7 64 64H256c0-35.3 28.7-64 64-64zM40.4 18L27.8 8.1 8.1 33.4l12.6 9.8L599.8 494.3l12.6 9.8 19.7-25.2L619.5 469 40.4 18z"/></svg>