<svg xmlns="http://www.w3.org/2000/svg" viewBox="0 0 640 512"><!--! Font Awesome Pro 6.5.1 by @fontawesome - https://fontawesome.com License - https://fontawesome.com/license (Commercial License) Copyright 2023 Fonticons, Inc. --><path d="M352 32H32V480h96V400 368h32 64 32v32 80h32v32H256 224 160 128 32 0V480 32 0H32 352h32V32 64H352V32zM288 96v32H256v32h32v32H240 224V176 112 96h16 48zm0 128v32H256v32h32v32H240 224V304 240 224h16 48zM224 480V400H160v80h64zM80 96h64 16v16 64 16H144 80 64V176 112 96H80zm16 64h32V128H96v32zM80 224h64 16v16 64 16H144 80 64V304 240 224H80zm16 64h32V256H96v32zM352 128V480H608V128H352zM320 96h32H608h32v32V480v32H608 352 320V480 128 96zm56 112a24 24 0 1 1 48 0 24 24 0 1 1 -48 0zm24 72a24 24 0 1 1 0 48 24 24 0 1 1 0-48zM376 400a24 24 0 1 1 48 0 24 24 0 1 1 -48 0zm88-208h96 16v32H560 464 448V192h16zm-16 96h16 96 16v32H560 464 448V288zm16 96h96 16v32H560 464 448V384h16z"/></svg>