<svg xmlns="http://www.w3.org/2000/svg" viewBox="0 0 640 512"><!--! Font Awesome Pro 6.5.1 by @fontawesome - https://fontawesome.com License - https://fontawesome.com/license (Commercial License) Copyright 2023 Fonticons, Inc. --><path d="M32 32H352V192c9.8-7.4 20.6-13.7 32-18.7V32 0H352 32 0V32 480v32H32h96 32 64 32 96 32V480 466.7c-11.4-5-22.2-11.3-32-18.7v32H256V400 368H224 160 128v32 80H32V32zM304 224H240 224v16 64 16h16 48c0-36 11.9-69.3 32-96H304zM160 480V400h64v80H160zM64 96v16 64 16H80h64 16V176 112 96H144 80 64zm32 32h32v32H96V128zM240 96H224v16 64 16h16 64 16V176 112 96H304 240zm16 64V128h32v32H256zM64 224v16 64 16H80h64 16V304 240 224H144 80 64zm32 32h32v32H96V256zm160 32V256h32v32H256zm192-63.9a96 96 0 1 1 0 192 96 96 0 1 1 0-192zm0 224c29.6 0 56.8-10 78.5-26.9L604.7 499l11.3 11.3 22.6-22.7-11.3-11.3-78.1-77.7C566 376.9 576 349.7 576 320.2c0-70.7-57.3-128-128-128s-128 57.3-128 128s57.3 128 128 128z"/></svg>