<svg xmlns="http://www.w3.org/2000/svg" viewBox="0 0 448 512"><!--! Font Awesome Pro 6.5.1 by @fontawesome - https://fontawesome.com License - https://fontawesome.com/license (Commercial License) Copyright 2023 Fonticons, Inc. --><path d="M128 16V0H96V16 64H32 0V96v64 32V480v32H32 416h32V480 192 160 96 64H416 352V16 0H320V16 64H128V16zM32 192H416V480H32V192zm0-96H416v64H32V96zM299.3 283.3L310.6 272 288 249.4l-11.3 11.3L224 313.4l-52.7-52.7L160 249.4 137.4 272l11.3 11.3L201.4 336l-52.7 52.7L137.4 400 160 422.6l11.3-11.3L224 358.6l52.7 52.7L288 422.6 310.6 400l-11.3-11.3L246.6 336l52.7-52.7z"/></svg>