<svg xmlns="http://www.w3.org/2000/svg" viewBox="0 0 448 512"><!--! Font Awesome Pro 6.5.1 by @fontawesome - https://fontawesome.com License - https://fontawesome.com/license (Commercial License) Copyright 2023 Fonticons, Inc. --><path d="M128 16V0H96V16 64H32 0V96v64 32V480v32H32 416h32V480 192 160 96 64H416 352V16 0H320V16 64H128V16zM32 192H416V480H32V192zm0-96H416v64H32V96zM238.4 240.9L224 211.7l-14.4 29.2-23.5 47.7-52.5 7.7-32 4.7 23.1 22.6 38 37.2-9 52.5-5.5 32 28.7-15.1L224 405.4l46.9 24.8 28.7 15.1-5.5-32-9-52.5 38-37.2L346.3 301l-32-4.7-52.5-7.7-23.5-47.7zm-27.2 69.4L224 284.3l12.8 26.1 3.7 7.6 8.3 1.2 28.8 4.2-20.9 20.4-6 5.9 1.4 8.3 4.9 28.8-25.7-13.6-7.5-3.9-7.5 3.9-25.7 13.6 4.9-28.8 1.4-8.3-6-5.9-20.9-20.4 28.8-4.2 8.3-1.2 3.7-7.6z"/></svg>