<svg xmlns="http://www.w3.org/2000/svg" viewBox="0 0 448 512"><!--! Font Awesome Pro 6.5.1 by @fontawesome - https://fontawesome.com License - https://fontawesome.com/license (Commercial License) Copyright 2023 Fonticons, Inc. --><path d="M128 0V16 64H320V16 0h32V16 64h64 32V96v64 32V480v32H416 32 0V480 192 160 96 64H32 96V16 0h32zM416 192H32V480H416V192zm0-96H32v64H416V96zM384 288H368 208 192V256h16H368h16v32zM240 416H80 64V384H80 240h16v32H240zM128 256H96v32h32V256zM96 224h32 32v32 32 32H128 96 64V288 256 224H96zM320 384v32h32V384H320zm-32-32h32 32 32v32 32 32H352 320 288V416 384 352z"/></svg>