<svg xmlns="http://www.w3.org/2000/svg" viewBox="0 0 640 512"><!--! Font Awesome Pro 6.5.1 by @fontawesome - https://fontawesome.com License - https://fontawesome.com/license (Commercial License) Copyright 2023 Fonticons, Inc. --><path d="M32 64v64H96h32v32V352v32H96 32v64H304V350.7c-45.4-7.6-80-47.1-80-94.7s34.6-87.1 80-94.7V64H32zM336 350.7V448H608V384H544 512V352 160 128h32 64V64H336v97.3c45.4 7.6 80 47.1 80 94.7s-34.6 87.1-80 94.7zM336 194V318c27.6-7.1 48-32.2 48-62s-20.4-54.9-48-62zm-32 0c-27.6 7.1-48 32.2-48 62s20.4 54.9 48 62V194zM32 160V352H96V160H32zM544 352h64V160H544V352zM0 32H32 608h32V64 448v32H608 32 0V448 64 32z"/></svg>