<svg xmlns="http://www.w3.org/2000/svg" viewBox="0 0 640 512"><!--! Font Awesome Pro 6.5.1 by @fontawesome - https://fontawesome.com License - https://fontawesome.com/license (Commercial License) Copyright 2023 Fonticons, Inc. --><path d="M304 64H410.4l8.5 44.8c4.3-3 8.3-5.7 12.1-8L448 90.1 443 64h74.8l12.8 64L542 116.6l22.5 18.7 .2 .2L544 32H424c-.2 0-.4 0-.6 0H288l0 0 0 0H152.3c-.2 0-.4 0-.6 0H32L6.4 160 0 192H32.6h1.1H66h61.7 .6L288 192h46.1c2.9-4 5.9-7.9 8.9-11.7c5.7-7.1 11.5-13.9 17.5-20.3H304V64zm33 384c-8.8-9.8-16.6-20.5-23.3-32H92.3L69.8 224H37.5l3.8 32H16 0v32H16 45.1L64 448.9V464v16H96V464 448H337zM272 64v96H147.3l18-96H272zM132.7 64l-18 96H39L58.2 64h74.5zM489.4 169.4L448 128c-42.7 26.7-128 102.4-128 192c0 85.2 66.6 154.9 150.7 159.7c3.1 .3 6.2 .4 9.3 .4s6.3-.1 9.3-.4C573.4 474.9 640 405.2 640 320c0-26.7-19.2-96-96-160l-9.4 9.4L512 192l-22.6-22.6zM480 448c-2.4 0-4.8-.1-7.2-.2c-33.6-3.3-56.8-29.4-56.8-57.2c0-21.9 15.9-47.5 39-71.3c8.8-9 17.6-16.9 25-23c7.4 6.1 16.2 13.9 25 23c23.1 23.8 39 49.5 39 71.3c0 27.8-23.2 54-56.8 57.2c-2.4 .1-4.8 .2-7.2 .2zm96-57.4c0-70.4-96-134.4-96-134.4s-96 64-96 134.4c0 5.4 .5 10.6 1.5 15.8C364.7 383.6 352 353.3 352 320c0-34.7 16.7-69.1 41-99.7c16.4-20.6 35.2-38 51.4-50.7l45 45L512 237.3l22.6-22.6L545 204.2C597 256.3 608 305.9 608 320c0 33.3-12.7 63.6-33.5 86.3c1-5.1 1.5-10.4 1.5-15.8z"/></svg>