<svg xmlns="http://www.w3.org/2000/svg" viewBox="0 0 512 512"><!--! Font Awesome Pro 6.5.1 by @fontawesome - https://fontawesome.com License - https://fontawesome.com/license (Commercial License) Copyright 2023 Fonticons, Inc. --><path d="M112 256H32c0-38.7 9.8-75 27-106.8l67 44.7c-9 18.8-14 39.9-14 62.1zm74.7-126.2c-16.9 9.3-31.8 21.9-43.7 37L76.3 122.3C97.3 94 124.9 70.9 156.8 55.1l29.9 74.7zm29.6-12.2L186.4 43c21.9-7.1 45.3-11 69.6-11s47.7 3.9 69.6 11l-29.8 74.5c-12.6-3.6-26-5.6-39.7-5.6s-27.1 1.9-39.7 5.6zm109.1 12.2l29.9-74.7c31.9 15.8 59.5 38.9 80.5 67.2L369 166.8c-11.9-15.1-26.8-27.7-43.7-37zM386 193.9l67-44.7c17.2 31.7 27 68.1 27 106.8H400c0-22.2-5-43.3-14-62.1zM480 288v80H400V288h80zM400 480V400h80v80H400zM112 288v80H32V288h80zM32 480V400h80v80H32zm112 0V256c0-61.9 50.1-112 112-112s112 50.1 112 112V480v32h32 80 32V480 256C512 114.6 397.4 0 256 0S0 114.6 0 256V480v32H32h80 32V480zM272 192V176H240v16V464v16h32V464 192zm-64 32V208H176v16V464v16h32V464 224zm128 0V208H304v16V464v16h32V464 224z"/></svg>