<svg xmlns="http://www.w3.org/2000/svg" viewBox="0 0 640 512"><!--! Font Awesome Pro 6.5.1 by @fontawesome - https://fontawesome.com License - https://fontawesome.com/license (Commercial License) Copyright 2023 Fonticons, Inc. --><path d="M112 0H96V16 160H32 0v32 96 32H32 352h32V288 224 192 160v-4.8l-2.7-4-96-144L280.6 0H272 112zM348.8 160H128V32H263.4l85.3 128zM32 288V192H352v32 64H32zm304 96c26.5 0 48 21.5 48 48s-21.5 48-48 48H80c-26.5 0-48-21.5-48-48s21.5-48 48-48H336zM80 352c-44.2 0-80 35.8-80 80s35.8 80 80 80H336c44.2 0 80-35.8 80-80s-35.8-80-80-80H80zM480 477.3l128-128V352v32 48c0 26.5-21.5 48-48 48H480v-2.7zM640 432V384 352 320v-2.7V272 128 57.1 32 0H608 576L416 138.7V181L587.9 32H608V85.3L586.8 104 416 254.7v42.7L576 156.2 608 128v42.7V304L448 464v16 32h32 80c44.2 0 80-35.8 80-80zM112 456a24 24 0 1 0 0-48 24 24 0 1 0 0 48zm120-24a24 24 0 1 0 -48 0 24 24 0 1 0 48 0zm72 24a24 24 0 1 0 0-48 24 24 0 1 0 0 48z"/></svg>