<svg xmlns="http://www.w3.org/2000/svg" viewBox="0 0 512 512"><!--! Font Awesome Pro 6.5.1 by @fontawesome - https://fontawesome.com License - https://fontawesome.com/license (Commercial License) Copyright 2023 Fonticons, Inc. --><path d="M480 256A224 224 0 1 0 32 256a224 224 0 1 0 448 0zM0 256a256 256 0 1 1 512 0A256 256 0 1 1 0 256zm238.1 29.5l3.8-26.9c15.2 2.1 32.7 6.6 46.8 13.6c7 3.4 13.9 7.8 19.2 13.4c5.4 5.6 9.8 13.2 9.8 22.5s-4.4 16.9-9.8 22.5c-5.3 5.5-12.2 9.9-19.2 13.4l-.2 .1 .2 .1c7 3.4 13.9 7.8 19.2 13.4c5.4 5.6 9.8 13.2 9.8 22.5s-4.4 16.9-9.8 22.5c-5.3 5.5-12.2 9.9-19.2 13.4c-14.1 6.9-31.6 11.4-46.8 13.6l-3.8-26.9c13.3-1.9 27.8-5.8 38.6-11c5.4-2.7 9.2-5.3 11.5-7.7c2.2-2.3 2.2-3.5 2.2-3.8s-.1-1.5-2.2-3.8c-2.3-2.4-6.1-5.1-11.5-7.7c-10.8-5.3-25.3-9.2-38.6-11V330.5c13.3-1.9 27.8-5.8 38.6-11c5.4-2.7 9.2-5.3 11.5-7.7c2.2-2.3 2.2-3.5 2.2-3.8s-.1-1.5-2.2-3.8c-2.3-2.4-6.1-5.1-11.5-7.7c-10.8-5.3-25.3-9.2-38.6-11zM152.4 208a24 24 0 1 1 48 0 24 24 0 1 1 -48 0zm184-24a24 24 0 1 1 0 48 24 24 0 1 1 0-48z"/></svg>