<svg xmlns="http://www.w3.org/2000/svg" viewBox="0 0 512 512"><!--! Font Awesome Pro 6.5.1 by @fontawesome - https://fontawesome.com License - https://fontawesome.com/license (Commercial License) Copyright 2023 Fonticons, Inc. --><path d="M325.2 469.1C303.4 476.2 280.2 480 256 480C132.3 480 32 379.7 32 256S132.3 32 256 32s224 100.3 224 224c0 25.9-4.4 50.8-12.5 73.9c10.9 1.2 21.2 4.5 30.6 9.5c9-26.2 13.9-54.2 13.9-83.4C512 114.6 397.4 0 256 0S0 114.6 0 256S114.6 512 256 512c26.9 0 52.8-4.1 77.2-11.8l-2.1-8.2-5.8-22.8zM260.7 304.5c5.4 2.7 9.2 5.3 11.5 7.7c2.2 2.3 2.2 3.5 2.2 3.8s-.1 1.5-2.2 3.8c-2.3 2.4-6.1 5.1-11.5 7.7c-10.8 5.3-25.3 9.2-38.6 11v26.9c13.3 1.9 27.8 5.8 38.6 11c5.4 2.7 9.2 5.3 11.5 7.7c2.2 2.3 2.2 3.5 2.2 3.8s-.1 1.5-2.2 3.8c-2.3 2.4-6.1 5.1-11.5 7.7c-10.8 5.3-25.3 9.2-38.6 11l3.8 26.9c15.2-2.1 32.7-6.6 46.8-13.6c7-3.4 13.9-7.8 19.2-13.4c5.4-5.6 9.8-13.2 9.8-22.5s-4.4-16.9-9.8-22.5c-5.3-5.5-12.2-9.9-19.2-13.4l-.2-.1 .2-.1c7-3.4 13.9-7.8 19.2-13.4c5.4-5.6 9.8-13.2 9.8-22.5s-4.4-16.9-9.8-22.5c-5.3-5.5-12.2-9.9-19.2-13.4c-14.1-6.9-31.6-11.4-46.8-13.6l-3.8 26.9c13.3 1.9 27.8 5.8 38.6 11zM176.4 232a24 24 0 1 0 0-48 24 24 0 1 0 0 48zm202.8 5.6l25.6-19.2c-34.4-45.9-103.2-45.9-137.6 0l25.6 19.2c21.6-28.8 64.8-28.8 86.4 0zm62.1 123.5c-7.4-29-36.5-47.3-65.8-39.2c-28.9 8.1-45.1 38.6-37.7 67.4L362.1 484l4.1 15.8 15.8-4.4L472.5 470c28.9-8.1 45.1-38.6 37.7-67.4c-7.4-29-36.5-47.3-65.8-39.2l-2.4 .7-.8-3zm-57.1-8.3c10.8-3 22.9 3.5 26.1 16.3l4.8 18.9 4.1 15.8 15.8-4.4 18.1-5.1c10.8-3 22.9 3.5 26.1 16.3c3.3 13-4.2 25.5-15.3 28.6l-74.9 21-20.2-78.8c-3.3-13 4.2-25.5 15.3-28.6z"/></svg>