<svg xmlns="http://www.w3.org/2000/svg" viewBox="0 0 512 512"><!--! Font Awesome Pro 6.5.1 by @fontawesome - https://fontawesome.com License - https://fontawesome.com/license (Commercial License) Copyright 2023 Fonticons, Inc. --><path d="M352 192v96h32V152L232 0H32 0V32 480v32H32 64V480H32V32H192V176v16h16H352zm-5.3-32H224V37.3L346.7 160zM256 368V352l-16 0-5.6 0-9.6 0-4.5 8.5-28.5 53.8-29.7-54-4.6-8.3-9.5 0-4 0-16 0v16V496v16h32V496 423l18 32.7 14.3 26 13.9-26.2L224 421.8V496v16h32V496 368zm48-16H288v16 80 48 16h32V496 464h16c30.9 0 56-25.1 56-56s-25.1-56-56-56H304zm32 80H320V384h16c13.3 0 24 10.7 24 24s-10.7 24-24 24zm80 16h16 48v48 16h32V496 432 368 352H480v16 48H448V368 352H416v16 64 16z"/></svg>