<svg xmlns="http://www.w3.org/2000/svg" viewBox="0 0 512 512"><!--! Font Awesome Pro 6.5.1 by @fontawesome - https://fontawesome.com License - https://fontawesome.com/license (Commercial License) Copyright 2023 Fonticons, Inc. --><path d="M352 192v96h32V152L232 0H32 0V32 480v32H32 96V480H32V32H192V176v16h16H352zm-5.3-32H224V37.3L346.7 160zM416 352l-16 0-5.6 0-9.6 0-4.5 8.5-28.5 53.8-29.7-54-4.6-8.3-9.5 0-4 0-16 0v16V496v16h32V496 423l18 32.7 14.3 26 13.9-26.2L384 421.8V496v16h32V496 368 352zm-224 0H160v16c0 13.6 4 26.9 11.6 38.2L188.8 432l-17.2 25.8C164 469.1 160 482.4 160 496v16h32V496c0-7.3 2.2-14.4 6.2-20.4l9.8-14.7 9.8 14.7c4 6.1 6.2 13.2 6.2 20.4v16h32V496c0-13.6-4-26.9-11.6-38.2L227.2 432l17.2-25.8C252 394.9 256 381.6 256 368V352H224v16c0 7.3-2.2 14.4-6.2 20.4L208 403.2l-9.8-14.7c-4-6.1-6.2-13.2-6.2-20.4V352zM448 512h16 32 16V480H496 480V368 352H448v16V496v16z"/></svg>