<svg xmlns="http://www.w3.org/2000/svg" viewBox="0 0 512 512"><!--! Font Awesome Pro 6.5.1 by @fontawesome - https://fontawesome.com License - https://fontawesome.com/license (Commercial License) Copyright 2023 Fonticons, Inc. --><path d="M352 192v96h32V152L232 0H32 0V32 480v32H32 64V480H32V32H192V176v16h16H352zm-5.3-32H224V37.3L346.7 160zM256 368V352l-16 0-5.6 0-9.6 0-4.5 8.5-28.5 53.8-29.7-54-4.6-8.3-9.5 0-4 0-16 0v16V496v16h32V496 423l18 32.7 14.3 26 13.9-26.2L224 421.8V496v16h32V496 368zm192 0V352H416v16 35c0 21.1 3.8 42 11.2 61.8L441 501.6l3.9 10.4H456h16 11.1l3.9-10.4 13.8-36.8C508.2 445 512 424.1 512 403V368 352H480v16 35c0 17.3-3.1 34.4-9.2 50.6L464 471.8l-6.8-18.2c-6.1-16.2-9.2-33.3-9.2-50.6V368zM288 392v80c0 22.1 17.9 40 40 40h16c22.1 0 40-17.9 40-40V392c0-22.1-17.9-40-40-40H328c-22.1 0-40 17.9-40 40zm40-8h16c4.4 0 8 3.6 8 8v80c0 4.4-3.6 8-8 8H328c-4.4 0-8-3.6-8-8V392c0-4.4 3.6-8 8-8z"/></svg>