<svg xmlns="http://www.w3.org/2000/svg" viewBox="0 0 640 512"><!--! Font Awesome Pro 6.5.1 by @fontawesome - https://fontawesome.com License - https://fontawesome.com/license (Commercial License) Copyright 2023 Fonticons, Inc. --><path d="M512 326l-32-25.3V192H352h-9.8H320V174.5 160 32H160V48.1L128 22.9V0h32H360L512 152V326zM352 160H474.7L352 37.3V160zM160 211.2V480H480V463.9l32 25.3V512H480 160 128V480 186l32 25.3zM27.8 8.1L40.4 18 619.5 469l12.6 9.8-19.7 25.2-12.6-9.8L20.7 43.2 8.1 33.4 27.8 8.1z"/></svg>