<svg xmlns="http://www.w3.org/2000/svg" viewBox="0 0 512 512"><!--! Font Awesome Pro 6.5.1 by @fontawesome - https://fontawesome.com License - https://fontawesome.com/license (Commercial License) Copyright 2023 Fonticons, Inc. --><path d="M352 192v96h32V152L232 0H32 0V32 480v32H32 96V480H32V32H192V176v16h16H352zm-5.3-32H224V37.3L346.7 160zM208 512c26.5 0 48-21.5 48-48V368 352H224v16 96c0 8.8-7.2 16-16 16s-16-7.2-16-16V448 432H160v16 16c0 26.5 21.5 48 48 48zM456 352c-22.1 0-40 17.9-40 40v80c0 22.1 17.9 40 40 40h16c22.1 0 40-17.9 40-40V448 432H496 480 464v32h16v8c0 4.4-3.6 8-8 8H456c-4.4 0-8-3.6-8-8V392c0-4.4 3.6-8 8-8h16c4.4 0 8 3.6 8 8v16h32V392c0-22.1-17.9-40-40-40H456zm-168 0v16 80 48 16h32V496 464h16c30.9 0 56-25.1 56-56s-25.1-56-56-56H304 288zm32 80V384h16c13.3 0 24 10.7 24 24s-10.7 24-24 24H320z"/></svg>