<svg xmlns="http://www.w3.org/2000/svg" viewBox="0 0 512 512"><!--! Font Awesome Pro 6.5.1 by @fontawesome - https://fontawesome.com License - https://fontawesome.com/license (Commercial License) Copyright 2023 Fonticons, Inc. --><path d="M352 192v96h32V152L232 0H32 0V32 480v32H32 96V480H32V32H192V176v16h16H352zm-5.3-32H224V37.3L346.7 160zM205.7 352c-25.2 0-45.7 20.4-45.7 45.7c0 17.3 9.8 33.1 25.2 40.8l31.2 15.6c4.6 2.3 7.6 7 7.6 12.2c0 7.5-6.1 13.7-13.7 13.7H176 160v32h16 34.3c25.2 0 45.7-20.4 45.7-45.7c0-17.3-9.8-33.1-25.2-40.8l-31.2-15.6c-4.6-2.3-7.6-7-7.6-12.2c0-7.5 6.1-13.7 13.7-13.7H232h16V352H232 205.7zM320 368V352H288v16 35c0 21.1 3.8 42 11.2 61.8L313 501.6l3.9 10.4H328h16 11.1l3.9-10.4 13.8-36.8C380.2 445 384 424.1 384 403V368 352H352v16 35c0 17.3-3.1 34.4-9.2 50.6L336 471.8l-6.8-18.2c-6.1-16.2-9.2-33.3-9.2-50.6V368zm96 24v80c0 22.1 17.9 40 40 40h16c22.1 0 40-17.9 40-40V448 432H496 480 464v32h16v8c0 4.4-3.6 8-8 8H456c-4.4 0-8-3.6-8-8V392c0-4.4 3.6-8 8-8h16c4.4 0 8 3.6 8 8v16h32V392c0-22.1-17.9-40-40-40H456c-22.1 0-40 17.9-40 40z"/></svg>