<svg xmlns="http://www.w3.org/2000/svg" viewBox="0 0 512 512"><!--! Font Awesome Pro 6.5.1 by @fontawesome - https://fontawesome.com License - https://fontawesome.com/license (Commercial License) Copyright 2023 Fonticons, Inc. --><path d="M352 192v96h32V152L232 0H32 0V32 480v32H32 96V480H32V32H192V176v16h16H352zm-5.3-32H224V37.3L346.7 160zM288 352v16 80 48 16h32V496 464h16c30.9 0 56-25.1 56-56s-25.1-56-56-56H304 288zm32 80V384h16c13.3 0 24 10.7 24 24s-10.7 24-24 24H320zM160 352v16 80 48 16h32V496 464h16c30.9 0 56-25.1 56-56s-25.1-56-56-56H176 160zm32 80V384h16c13.3 0 24 10.7 24 24s-10.7 24-24 24H192zm224-80v32h16 16V496v16h32V496 384h16 16V352H496 464 432 416z"/></svg>