<svg xmlns="http://www.w3.org/2000/svg" viewBox="0 0 512 512"><!--! Font Awesome Pro 6.5.1 by @fontawesome - https://fontawesome.com License - https://fontawesome.com/license (Commercial License) Copyright 2023 Fonticons, Inc. --><path d="M352 192v96h32V152L232 0H32 0V32 480v32H32h96V480H32V32H192V176v16h16H352zm-5.3-32H224V37.3L346.7 160zM224 368V352H192v16c0 13.6 4 26.9 11.6 38.2L220.8 432l-17.2 25.8C196 469.1 192 482.4 192 496v16h32V496c0-7.3 2.2-14.4 6.2-20.4l9.8-14.7 9.8 14.7c4 6.1 6.2 13.2 6.2 20.4v16h32V496c0-13.6-4-26.9-11.6-38.2L259.2 432l17.2-25.8C284 394.9 288 381.6 288 368V352H256v16c0 7.3-2.2 14.4-6.2 20.4L240 403.2l-9.8-14.7c-4-6.1-6.2-13.2-6.2-20.4zm96 144h16 40 16V480H376 352V368 352H320v16V496v16zm88-114.3c0 17.3 9.8 33.1 25.2 40.8l31.2 15.6c4.6 2.3 7.6 7 7.6 12.2c0 7.5-6.1 13.7-13.7 13.7H432 416v32h16 26.3c25.2 0 45.7-20.4 45.7-45.7c0-17.3-9.8-33.1-25.2-40.8l-31.2-15.6c-4.6-2.3-7.6-7-7.6-12.2c0-7.5 6.1-13.7 13.7-13.7H480h16V352H480 453.7c-25.2 0-45.7 20.4-45.7 45.7z"/></svg>