<svg xmlns="http://www.w3.org/2000/svg" viewBox="0 0 576 512"><!--! Font Awesome Pro 6.5.1 by @fontawesome - https://fontawesome.com License - https://fontawesome.com/license (Commercial License) Copyright 2023 Fonticons, Inc. --><path d="M416 64H32V96c0 106 86 192 192 192c3.9 0 7.8-.1 11.7-.3c-3.8 10.4-6.7 21.2-8.8 32.3c-1 0-1.9 0-2.9 0c-19.9 0-39.2-2.6-57.6-7.5l-26.1 57.3c4.3 4.2 8.1 8.9 11.1 14.1h75.2c1.9 11 4.7 21.7 8.3 32H160c0 35.3-28.7 64-64 64s-64-28.7-64-64s28.7-64 64-64c5.7 0 11.1 .7 16.4 2.1l23.7-52C56 267.9 0 188.5 0 96V64 32H32 416h32V64 96c0 24.8-4 48.7-11.5 71.1l-25.8-25.8c3.5-14.5 5.4-29.7 5.4-45.2V64zM96 384a32 32 0 1 0 0 64 32 32 0 1 0 0-64zM425.4 201.4L448 224l22.6-22.6L480 192c76.8 64 96 133.3 96 160c0 85.2-66.6 154.9-150.7 159.7c-3.1 .3-6.2 .4-9.3 .4s-6.3-.1-9.3-.4C322.6 506.9 256 437.2 256 352c0-89.6 85.3-165.3 128-192l41.4 41.4zM416 480c2.4 0 4.8-.1 7.2-.2c33.6-3.3 56.8-29.4 56.8-57.3c0-21.9-15.9-47.5-39-71.3c-8.8-9-17.6-16.9-25-23c-7.4 6.1-16.2 13.9-25 23c-23.1 23.8-39 49.5-39 71.3c0 27.8 23.2 54 56.8 57.3c2.4 .1 4.8 .2 7.2 .2zm96-57.4c0 5.4-.5 10.6-1.5 15.8C531.3 415.6 544 385.3 544 352c0-14.1-11-63.7-63-115.8l-10.4 10.4L448 269.3l-22.6-22.6-45-45c-16.2 12.7-34.9 30-51.4 50.7c-24.3 30.5-41 65-41 99.7c0 33.3 12.7 63.6 33.5 86.3c-1-5.1-1.5-10.4-1.5-15.8c0-70.4 96-134.4 96-134.4s96 64 96 134.4z"/></svg>