<svg xmlns="http://www.w3.org/2000/svg" viewBox="0 0 640 512"><!--! Font Awesome Pro 6.5.1 by @fontawesome - https://fontawesome.com License - https://fontawesome.com/license (Commercial License) Copyright 2023 Fonticons, Inc. --><path d="M128 0C57.3 0 0 57.3 0 128v40 23.1L21.6 183 72.1 164l9.6 19.1 4.4 8.8H96h7.3L96.7 480 96 512h32 64 32l-.7-32-6.5-288H240h16V176 160h64v32h32V0H320V32H256V16 0H240 128zM320 64v64H240 224v16 16h-8H105.9L94.3 136.8 87.9 124 74.4 129 32 144.9V128c0-53 43-96 96-96h96V48 64h16 80zM184.7 192l6.5 288H128.7l6.5-288h49.4zM560 205.3V32 0H528 464 432V32 205.3L352 272V480v32h32H608h32V480 272l-80-66.7zM528 32V205.3v15l11.5 9.6L608 287v1H384v-1l68.5-57.1 11.5-9.6v-15V32h64zM384 320H608V480H480V416 400H448v16 64H384V320zM512 80a16 16 0 1 0 -32 0 16 16 0 1 0 32 0z"/></svg>