<svg xmlns="http://www.w3.org/2000/svg" viewBox="0 0 640 512"><!--! Font Awesome Pro 6.5.1 by @fontawesome - https://fontawesome.com License - https://fontawesome.com/license (Commercial License) Copyright 2023 Fonticons, Inc. --><path d="M295 59.9l-9.3-11.6c-8.3-10.4-20.8-16.4-34.1-16.4c-24.1 0-43.6 19.5-43.6 43.6v3.6c0 12.5 5 24.5 13.8 33.4l24.8 24.8L320 210.7l73.4-73.4 24.8-24.8C427 103.6 432 91.6 432 79.1V75.6c0-24.1-19.5-43.6-43.6-43.6c-13.3 0-25.8 6-34.1 16.4L345 59.9 320 91.1 295 59.9zm121 100l-73.4 73.4L320 255.9l-22.6-22.6L224 159.9l-24.8-24.8c-14.9-14.9-23.2-35-23.2-56V75.6C176 33.8 209.9-.1 251.6-.1c17 0 33.4 5.7 46.6 16c4.6 3.6 8.8 7.7 12.5 12.4L320 39.9l9.3-11.6c3.7-4.6 7.9-8.8 12.5-12.4C355 5.6 371.3-.1 388.4-.1C430.1-.1 464 33.8 464 75.6v3.6c0 21-8.3 41.1-23.2 56L416 159.9zM112 64h16V80 265.4l36.7-36.7L176 217.4l11.3 11.3L320 361.4 452.7 228.7 464 217.4l11.3 11.3L512 265.4V80 64h16 96 16V80 384v6.6l-4.7 4.7-104 104L520 510.6 497.4 488l11.3-11.3L608 377.4V96H544V288v6.6l-1.4 1.4-3.3 3.3-8 8-72 72L448 390.6l-4.7 4.7L432 406.6 409.4 384l11.3-11.3 4.7-4.7 11.3-11.3L497.4 296 464 262.6l-128 128V496v16H304V496 390.6l-128-128L142.6 296l60.7 60.7 0 0 16 16L230.6 384 208 406.6l-11.3-11.3-16-16 0 0-72-72-8-8L97.4 296 96 294.6V288 96H32V377.4l99.3 99.3L142.6 488 120 510.6l-11.3-11.3-104-104L0 390.6V384 80 64H16h96z"/></svg>