<svg xmlns="http://www.w3.org/2000/svg" viewBox="0 0 512 512"><!--! Font Awesome Pro 6.5.1 by @fontawesome - https://fontawesome.com License - https://fontawesome.com/license (Commercial License) Copyright 2023 Fonticons, Inc. --><path d="M32 224C32 118 118 32 224 32h24c88.4 0 160 71.6 160 160v7.2l5.4 4.8L480 263.2V304H432 416v16 96H304 288v16 64 16h32V496 448H432h16V432 336h48 16V320 256v-7.2l-5.4-4.8-66.8-59.3C436 82 351.6 0 248 0H224C100.3 0 0 100.3 0 224c0 61 24.4 116.4 64 156.8V496v16H96V496 374.1v-6.8l-4.9-4.7C54.6 327.6 32 278.4 32 224zM337.1 117.5L314.5 94.9l-11.3 11.3C279.9 129.5 240 113 240 80V64H208V80c0 33-39.9 49.5-63.2 26.2L133.5 94.9l-22.6 22.6 11.3 11.3C145.5 152.1 129 192 96 192H80v32H96c33 0 49.5 39.9 26.2 63.2l-11.3 11.3 22.6 22.6 11.3-11.3C168.1 286.5 208 303 208 336v16h32V336c0-33 39.9-49.5 63.2-26.2l11.3 11.3 22.6-22.6-11.3-11.3C302.5 263.9 319 224 352 224h16V192H352c-33 0-49.5-39.9-26.2-63.2l11.3-11.3zm-54.1 31.4c-1.8 22.3 7.4 44.6 24.5 59.1c-17 14.5-26.3 36.8-24.5 59.1c-22.3-1.8-44.6 7.4-59.1 24.5c-14.5-17-36.8-26.3-59.1-24.5c1.8-22.3-7.4-44.6-24.5-59.1c17-14.5 26.3-36.8 24.5-59.1c22.3 1.8 44.6-7.4 59.1-24.5c7.4 8.7 16.8 15.3 27.2 19.5c10 4.1 21 5.8 31.9 4.9zM208 216a24 24 0 1 0 0-48 24 24 0 1 0 0 48zm32 40a16 16 0 1 0 0-32 16 16 0 1 0 0 32z"/></svg>