<svg xmlns="http://www.w3.org/2000/svg" viewBox="0 0 512 512"><!--! Font Awesome Pro 6.5.1 by @fontawesome - https://fontawesome.com License - https://fontawesome.com/license (Commercial License) Copyright 2023 Fonticons, Inc. --><path d="M32 224C32 118 118 32 224 32h24c88.4 0 160 71.6 160 160v7.2l5.4 4.8L480 263.2V304H432 416v16 96H304 288v16 64 16h32V496 448H432h16V432 336h48 16V320 256v-7.2l-5.4-4.8-66.8-59.3C436 82 351.6 0 248 0H224C100.3 0 0 100.3 0 224c0 61 24.4 116.4 64 156.8V496v16H96V496 374.1v-6.8l-4.9-4.7C54.6 327.6 32 278.4 32 224zM176 104v16 20.8c-.8 .5-1.6 1-2.4 1.4l-15-8.1-13.7-7.4-7.8 13.5-32 55.4L96.9 210l14.5 7.8 11.5 6.2-11.5 6.2L96.9 238l8.2 14.3 32 55.4 7.8 13.5 13.7-7.4 15-8.1c.8 .5 1.6 1 2.4 1.4V328v16h16 64 16V328 307.2c.8-.5 1.6-1 2.4-1.4l15 8.1 13.7 7.4 7.8-13.5 32-55.4 8.2-14.3-14.5-7.8L325.1 224l11.5-6.2 14.5-7.8-8.2-14.3-32-55.4-7.8-13.5-13.7 7.4-15 8.1c-.8-.5-1.6-1-2.4-1.4V120 104H256 192 176zm32 32h32v14.7 10.5l9.6 4.2c5 2.2 9.6 5 13.9 8.3l8.2 6.5 9.2-5 10-5.4 16 27.7-10.8 5.8-9.2 5 .9 10.4c.1 1.8 .2 3.5 .2 5.3s-.1 3.6-.2 5.3l-.9 10.4 9.2 5 10.8 5.8-16 27.7-10-5.4-9.2-5-8.2 6.5c-4.2 3.3-8.9 6.1-13.9 8.3l-9.6 4.2v10.5V312H208V297.3 286.9l-9.6-4.2c-5-2.2-9.6-5-13.9-8.3l-8.2-6.5-9.2 5-10 5.4-16-27.7 10.8-5.8 9.2-5-.9-10.4c-.1-1.8-.2-3.5-.2-5.3s.1-3.6 .2-5.3l.9-10.4-9.2-5-10.8-5.8 16-27.7 10 5.4 9.2 5 8.2-6.5c4.2-3.3 8.9-6.1 13.9-8.3l9.6-4.2V150.7 136zm40 88a24 24 0 1 0 -48 0 24 24 0 1 0 48 0z"/></svg>