<svg xmlns="http://www.w3.org/2000/svg" viewBox="0 0 384 512"><!--! Font Awesome Pro 6.5.1 by @fontawesome - https://fontawesome.com License - https://fontawesome.com/license (Commercial License) Copyright 2023 Fonticons, Inc. --><path d="M16 0H0V32H16 32V144v7.8l6.2 4.8L165.9 256 38.2 355.4 32 360.2V368 480H16 0v32H16 48 336h32 16V480H368 352V368v-7.8l-6.2-4.8L218.1 256l127.8-99.4 6.2-4.8V144 32h16 16V0H368 336 48 16zM320 32V136.2L192 235.7 64 136.2V32H320zM192 276.3l128 99.6V480H64V375.8l128-99.6z"/></svg>