<svg xmlns="http://www.w3.org/2000/svg" viewBox="0 0 576 512"><!--! Font Awesome Pro 6.5.1 by @fontawesome - https://fontawesome.com License - https://fontawesome.com/license (Commercial License) Copyright 2023 Fonticons, Inc. --><path d="M16 512H0V480H16 32V368v-7.8l6.2-4.8L165.9 256 38.2 156.6 32 151.8V144 32H16 0V0H16 48 336h32 16V32H368 352V144v7.8l-6.2 4.8L218.1 256l52.8 41.1c-4.5 10.3-8.1 21.1-10.6 32.3L192 276.3 64 375.8V480H296.2c10 12.1 21.7 22.9 34.6 32H48 16zM192 235.7l128-99.6V32H64V136.2l128 99.6zM432 480a112 112 0 1 0 0-224 112 112 0 1 0 0 224zm0-256a144 144 0 1 1 0 288 144 144 0 1 1 0-288zm16 64v16 48h32 16v32H480 432 416V368 304 288h32z"/></svg>