<svg xmlns="http://www.w3.org/2000/svg" viewBox="0 0 384 512"><!--! Font Awesome Pro 6.5.1 by @fontawesome - https://fontawesome.com License - https://fontawesome.com/license (Commercial License) Copyright 2023 Fonticons, Inc. --><path d="M0 0H16 48 336h32 16V32H368 352V144v7.8l-6.2 4.8L218.1 256l127.8 99.4 6.2 4.8V368 480h16 16v32H368 336 48 16 0V480H16 32V368v-7.8l6.2-4.8L165.9 256 38.2 156.6 32 151.8V144 32H16 0V0zM64 32V136.2l128 99.6 128-99.6V32H64zM94.6 352h.2 .5 .5 .5 .5 .5 .5 .5 .5 .5 .5 .5 .5 .5 .5 .5 .5 .5 .5 .5 .5 .5 .5 .5 .5 .5 .5 .5 .5 .5 .5 .5 .5 .5 .5 .6 .6 .6 .6 .6 .6 .6 .6 .6 .6 .6 .6 .6 .6 .6 .6 .6 .6 .6 .6 .6 .6 .6 .6 .6 .6 .6 .6 .6 .6 .6 .6 .6 .6 .6 .6 .6 .6 .6 .6 .6 .6 .6 .6 .6 .6 .6 .6 .6 .6 .6 .6 .6 .6 .6 .6 .6 .6 .6 .6 .6 .6 .6 .6 .6 .7 .7 .7 .7 .7 .7 .7 .7 .7 .7 .7 .7 .7 .7 .7 .7 .7 .7 .7 .7 .7 .7 .7 .7 .7 .7 .7 .7 .7 .7 .7 .7 .7 .7 .7 .7 .7 .7 .7 .7 .7 .7 .7 .7 .7 .7 .7 .7 .7 .7 .7 .7 .7 .7 .7 .7 .7 .7 .7 .7 .7 .7 .7 .7 .7 .7 .7 .7 .7 .7 .7 .7 .7 .7 .7 .7 .7 .7 .7 .7 .7 .7 .7 .7 .7 .7 .7 .7 .7 .7 .7 .7 .7 .7 .7 .7 .7 .7 .7 .7 .7 .7 .7 .7 .7 .7 .7 .7 .7 .7 .7 .7 .7 .7 .7 .7 .7 .7 .7 .7 .7 .7 .7 .7 .7 .7 .7 .7 .7 .7 .7 .7 .7 .7 .7 .7 .7 .7 .7 .7 .7 .7 .7 .7 .7 .7 .7 .7 .7 .7 .7 .7 .7 .7 .7 .7 .7 .7 .7 .7 .7 .7 .7 .7 .7 .7 .7 .7 .7 .7 .7 .7 .7 .7 .7 .7 .7 .7 .7 .7 .7 .7 .7 .7 .7 .7 .7 .7 .7 .7 .7 .7 .7 .7 .7 .7 .7 .7 .7 .6L192 276.3 94.6 352zM64 384v96H320V384h-.4H319h-.6-.6-.6-.6-.6-.6-.6-.6-.6-.6-.6-.6-.6-.6-.6-.6-.6-.6-.6-.6-.6-.6-.6-.6H304h-.6-.6-.6-.6-.6-.6-.6H299h-.6-.6-.6-.6-.6-.6-.6-.6-.6-.6H292h-.6-.6-.6-.6-.6-.7-.7-.7-.7-.7-.7-.7-.7-.7-.7-.7-.7-.7-.7-.7-.7-.7-.7-.7-.7-.7-.7-.7-.7-.7-.7-.7-.7-.7-.7-.7-.7-.7H266h-.7-.7H264h-.7-.7-.7-.7-.7-.7-.7-.7-.7-.7-.7-.7H255h-.7-.7-.7-.7-.7-.7-.7-.7-.7-.7-.7-.7H246h-.7-.7-.7-.7-.7-.7H241h-.7-.7-.7-.7-.7-.7-.7-.7-.7H234h-.7-.7-.7-.7-.7-.7H229h-.7-.7-.7-.7-.7-.7-.7-.7-.7H222h-.7-.7-.7-.7-.7-.7H217h-.7-.7-.7-.7-.7-.7H212h-.7-.7-.7-.7-.7-.7-.7-.7-.7H205h-.7-.7-.7-.7-.7-.7H200h-.7-.7-.7-.7-.7-.7-.7-.7-.7H193h-.7-.7-.7-.7-.7-.7-.7-.7-.7-.7-.7-.7H184h-.7-.7-.7-.7-.7-.7-.7-.7-.7-.7-.7-.7H175h-.7-.7H173h-.7-.7-.7-.7-.7-.7-.7-.7-.7-.7-.7-.7-.7-.7-.7-.7-.7-.7-.7-.7-.7-.7-.7-.7-.7-.7-.7-.7-.7-.7-.7-.7H151h-.6-.6H149h-.6-.6-.6-.6-.6-.6-.6-.6-.6-.6H142h-.6-.6-.6-.6-.6-.6-.6H137h-.6-.6-.6-.6-.6-.6-.6-.6-.6-.6-.6-.6H129h-.6-.6-.6-.6-.6-.6-.6-.6-.6-.6-.6-.6-.6-.6-.6-.6-.6-.6-.6-.6-.6-.6-.6-.6-.6H114h-.6-.6-.6-.5-.5-.5-.5-.5-.5-.5H108h-.5-.5-.5-.5-.5-.5-.5-.5-.5-.5-.5-.5-.5-.5-.5-.5-.5-.5-.5-.5-.5-.5-.5-.5-.5-.5-.5-.5-.5-.5-.5H92h-.5-.5-.5-.5-.5-.5-.4-.4-.4-.4H87h-.4-.4-.4-.4-.4-.4-.4-.4-.4-.4-.4H82h-.4-.4-.4-.4H80h-.4-.4-.4-.4-.4-.4-.4H77h-.4-.4-.4-.4-.4-.4-.4-.3-.3-.3-.3-.3-.3-.3-.3-.3-.3-.3-.3-.3-.3-.3-.3-.3-.3-.3-.3-.3-.3-.3-.3-.3-.3-.3-.3-.3-.3-.3-.3-.2-.2-.2H64z"/></svg>