<svg xmlns="http://www.w3.org/2000/svg" viewBox="0 0 640 512"><!--! Font Awesome Pro 6.5.1 by @fontawesome - https://fontawesome.com License - https://fontawesome.com/license (Commercial License) Copyright 2023 Fonticons, Inc. --><path d="M298.6 12L288 2.7 277.4 12 5.4 252l21.2 24L64 243V496v16H80 374.1c-14.1-9.3-26.9-20.5-38.1-33.1V480H240V320h50.9c2-11 4.9-21.7 8.6-32H224 208v16V480H96V214.7L288 45.3 406.5 149.9c8.9-6.9 17.2-12.6 24.5-17.2l2.5-1.6L298.6 12zM489.4 201.4L448 160c-42.7 26.7-128 102.4-128 192c0 85.2 66.6 154.9 150.7 159.7c3.1 .3 6.2 .4 9.3 .4s6.3-.1 9.3-.4C573.4 506.9 640 437.2 640 352c0-26.7-19.2-96-96-160l-9.4 9.4L512 224l-22.6-22.6zM480 480c-2.4 0-4.8-.1-7.2-.2c-33.6-3.3-56.8-29.4-56.8-57.3c0-21.9 15.9-47.5 39-71.3c8.8-9 17.6-16.9 25-23c7.4 6.1 16.2 13.9 25 23c23.1 23.8 39 49.5 39 71.3c0 27.8-23.2 54-56.8 57.3c-2.4 .1-4.8 .2-7.2 .2zm96-57.4c0-70.4-96-134.4-96-134.4s-96 64-96 134.4c0 5.4 .5 10.6 1.5 15.8C364.7 415.6 352 385.3 352 352c0-34.7 16.7-69.1 41-99.7c16.4-20.6 35.2-38 51.4-50.7l45 45L512 269.3l22.6-22.6L545 236.2C597 288.3 608 337.9 608 352c0 33.3-12.7 63.6-33.5 86.3c1-5.1 1.5-10.4 1.5-15.8z"/></svg>