<svg xmlns="http://www.w3.org/2000/svg" viewBox="0 0 640 512"><!--! Font Awesome Pro 6.5.1 by @fontawesome - https://fontawesome.com License - https://fontawesome.com/license (Commercial License) Copyright 2023 Fonticons, Inc. --><path d="M448 288c-11 0-21.7-1.1-32-3.2V352H336V242.3c-5.8-5.7-11.1-11.8-16-18.3H304V352H208V224H176V352H96V224H64V352H48v32H64 448h16V352H448V288zM256 0L0 144v16 32H32 301.3c-4.4-10.2-7.9-20.9-10.1-32H36.8L256 36.7l46 25.8c4.4-9.8 9.8-19.1 16-27.7L256 0zM24 448H40 472h16V416H472 40 24v32zM0 480v32H16 496h16V480H496 16 0zM448 32.1a96 96 0 1 1 0 192 96 96 0 1 1 0-192zm0 224c29.6 0 56.8-10 78.5-26.9L604.7 307l11.3 11.3 22.6-22.7-11.3-11.3-78.1-77.7C566 184.9 576 157.7 576 128.2c0-70.7-57.3-128-128-128s-128 57.3-128 128s57.3 128 128 128z"/></svg>