<svg xmlns="http://www.w3.org/2000/svg" viewBox="0 0 640 512"><!--! Font Awesome Pro 6.5.1 by @fontawesome - https://fontawesome.com License - https://fontawesome.com/license (Commercial License) Copyright 2023 Fonticons, Inc. --><path d="M256 96V67.8l64-32 64 32V96v32h32V96h32V64L320 0 192 64V96h32v32h32V96zm192 64H432 416 384 256 224 208 192v32h16 10.2L165.8 480H144 128v32h16 16 32.5H256h32 64 32 63.5H480h16 16V480H496 474.2L421.8 192H432h16V160zm-64 32h5.3l52.4 288H384V416c0-35.3-28.7-64-64-64s-64 28.7-64 64v64H198.3l52.4-288H256 384zM352 480H288V416c0-17.7 14.3-32 32-32s32 14.3 32 32v64zM151.2 65.7l-128-64L8.9 30.3l128 64 14.3 7.2 14.3-28.6-14.3-7.2zm0 124.6l14.3-7.2-14.3-28.6-14.3 7.2-128 64 14.3 28.6 128-64zM616.9 1.7l-128 64-14.3 7.2 14.3 28.6 14.3-7.2 128-64L616.9 1.7zM474.5 183.2l14.3 7.2 128 64 14.3-28.6-128-64-14.3-7.2-14.3 28.6z"/></svg>