<svg xmlns="http://www.w3.org/2000/svg" viewBox="0 0 640 512"><!--! Font Awesome Pro 6.5.1 by @fontawesome - https://fontawesome.com License - https://fontawesome.com/license (Commercial License) Copyright 2023 Fonticons, Inc. --><path d="M40.4 18L27.8 8.1 8.1 33.4l12.6 9.8L599.8 494.3l12.6 9.8 19.7-25.2L619.5 469 40.4 18zM608 256c0-88.4-71.6-160-160-160H368 352v32h16 80c70.7 0 128 57.3 128 128c0 35.5-14.4 67.6-37.7 90.8l25.3 19.9C591.1 338 608 299 608 256zM456 272h16V240H456 403l40.5 32H456zM196.4 240H184 168v32h16 53l-40.5-32zm-94.7-74.8L76.5 145.3C48.9 174 32 213 32 256c0 88.4 71.6 160 160 160h80 16V384H272 192c-70.7 0-128-57.3-128-128c0-35.5 14.4-67.6 37.7-90.8z"/></svg>