<svg xmlns="http://www.w3.org/2000/svg" viewBox="0 0 640 512"><!--! Font Awesome Pro 6.5.1 by @fontawesome - https://fontawesome.com License - https://fontawesome.com/license (Commercial License) Copyright 2023 Fonticons, Inc. --><path d="M40.4 18L27.8 8.1 8.1 33.4l12.6 9.8L599.8 494.3l12.6 9.8 19.7-25.2L619.5 469 40.4 18zM640 320c0-70.7-57.3-128-128-128H480v32h32c53 0 96 43 96 96c0 24.2-8.9 46.3-23.7 63.1L609.5 403c19-22.3 30.5-51.3 30.5-83zM459.9 448l-40.5-32H335.9c-52.9 0-95.9-42.9-95.9-95.9c0-13.9 3-27.2 8.4-39.2l-25.7-20.3c-9.4 17.8-14.6 38.1-14.6 59.5C208 390.8 265.2 448 335.9 448H459.9zM400 191.9c0 13.9-3 27.2-8.4 39.2l25.7 20.3c9.4-17.8 14.6-38.1 14.6-59.5C432 121.2 374.8 64 304.1 64H180.1l40.5 32h83.5c52.9 0 95.9 42.9 95.9 95.9zm-344.3-63L30.5 109C11.5 131.4 0 160.3 0 192c0 70.7 57.3 128 128 128h32V288H128c-53 0-96-43-96-96c0-24.2 8.9-46.3 23.7-63.1z"/></svg>