<svg xmlns="http://www.w3.org/2000/svg" viewBox="0 0 640 512"><!--! Font Awesome Pro 6.5.1 by @fontawesome - https://fontawesome.com License - https://fontawesome.com/license (Commercial License) Copyright 2023 Fonticons, Inc. --><path d="M336 16V144H304V16 0h32V16zM256 128v60.1l-32-32V128H168.1c-22.5 30.9-43.2 62.8-62.1 96C69.2 288.4 32 358.3 32 423c0 31.5 25.5 57 57 57c22.8 0 47.9-5.4 75.5-13.3c9.7-2.8 20.2-6 31.1-9.4c3.2-1 6.5-2 9.8-3L231 479.9c-8 2.4-16.1 4.9-24.3 7.4l0 0C167.8 499.4 127.2 512 89 512c-49.1 0-89-39.8-89-89c0-74.6 42.3-152 78.2-214.9C100.5 169.2 125.1 131.8 152 96h72 32v32zM444.4 457.3c10.9 3.4 21.4 6.6 31.1 9.4c27.6 7.9 52.7 13.3 75.5 13.3c31.5 0 57-25.5 57-57c0-64.7-37.2-134.6-74-199c-18.9-33.2-39.7-65.1-62.1-96H416v28.1l-32 32V128 96h32 72c26.9 35.8 51.5 73.2 73.8 112.1C597.7 271.1 640 348.4 640 423c0 49.1-39.8 89-89 89c-38.2 0-78.8-12.6-117.7-24.7c-8.2-2.5-16.3-5.1-24.3-7.4l25.7-25.7c3.3 1 6.5 2 9.8 3zM433.1 229.5l-11.3 11.3C398.5 264.1 415 304 448 304h16v32H448c-33 0-49.5 39.9-26.2 63.2l11.3 11.3-22.6 22.6-11.3-11.3C375.9 398.5 336 415 336 448v16H304V448c0-33-39.9-49.5-63.2-26.2l-11.3 11.3-22.6-22.6 11.3-11.3C241.5 375.9 225 336 192 336H176V304h16c33 0 49.5-39.9 26.2-63.2l-11.3-11.3 22.6-22.6 11.3 11.3C264.1 241.5 304 225 304 192V176h32v16c0 33 39.9 49.5 63.2 26.2l11.3-11.3 22.6 22.6zm-54.1 31.4c-10.9 .9-21.9-.9-31.9-4.9c-10.4-4.2-19.8-10.9-27.2-19.5c-14.5 17-36.8 26.3-59.1 24.5c1.8 22.3-7.4 44.6-24.5 59.1c17 14.5 26.3 36.8 24.5 59.1c22.3-1.8 44.6 7.4 59.1 24.5c14.5-17 36.8-26.3 59.1-24.5c-1.8-22.3 7.4-44.6 24.5-59.1c-17-14.5-26.3-36.8-24.5-59.1zM304 280a24 24 0 1 1 0 48 24 24 0 1 1 0-48zm32 56a16 16 0 1 1 0 32 16 16 0 1 1 0-32z"/></svg>