<svg xmlns="http://www.w3.org/2000/svg" viewBox="0 0 512 512"><!--! Font Awesome Pro 6.5.1 by @fontawesome - https://fontawesome.com License - https://fontawesome.com/license (Commercial License) Copyright 2023 Fonticons, Inc. --><path d="M294.6 97.4L272 120l22.6 22.6L296 144h88 32V112 24l-1.4-1.4L392 0 369.4 22.6 342.6 49.4C306.3 18.6 259.3 0 208 0C93.1 0 0 93.1 0 208H32c0-97.2 78.8-176 176-176c42.5 0 81.5 15.1 111.9 40.1L294.6 97.4zM384 53.3V112H325.3L384 53.3zM121.4 318.6L144 296l-22.6-22.6L120 272H32 0v32 88l1.4 1.4L24 416l22.6-22.6 26.8-26.8C109.7 397.4 156.7 416 208 416c51.7 0 99-18.8 135.3-50L487.9 510.5l22.6-22.6L366 343.3c31.2-36.4 50-83.7 50-135.3H384c0 97.2-78.8 176-176 176c-42.5 0-81.5-15.1-111.9-40.1l25.2-25.2zM32 362.7L32 304H90.7L32 362.7z"/></svg>