<svg xmlns="http://www.w3.org/2000/svg" viewBox="0 0 512 512"><!--! Font Awesome Pro 6.5.1 by @fontawesome - https://fontawesome.com License - https://fontawesome.com/license (Commercial License) Copyright 2023 Fonticons, Inc. --><path d="M208 32a176 176 0 1 1 0 352 176 176 0 1 1 0-352zm0 384c51.7 0 99-18.8 135.3-50L487.9 510.5l22.6-22.6L366 343.3c31.2-36.4 50-83.7 50-135.3C416 93.1 322.9 0 208 0S0 93.1 0 208S93.1 416 208 416zM192 112V96H160v16V304v16h32V304 112zm-64 32V128H96v16V272v16h32V272 144zm128 0V128H224v16V272v16h32V272 144zm64 32V160H288v16 64 16h32V240 176z"/></svg>