<svg xmlns="http://www.w3.org/2000/svg" viewBox="0 0 512 512"><!--! Font Awesome Pro 6.5.1 by @fontawesome - https://fontawesome.com License - https://fontawesome.com/license (Commercial License) Copyright 2023 Fonticons, Inc. --><path d="M208 32a176 176 0 1 1 0 352 176 176 0 1 1 0-352zm0 384c51.7 0 99-18.8 135.3-50L487.9 510.5l22.6-22.6L366 343.3c31.2-36.4 50-83.7 50-135.3C416 93.1 322.9 0 208 0S0 93.1 0 208S93.1 416 208 416zM288 90.8l-20.4 5.8-56 16L200 115.9V128v63.6c0 .2 0 .5 0 .7v21.2c-8.4-3.5-17.9-5.5-28-5.5c-33.1 0-60 21.5-60 48s26.9 48 60 48s60-21.5 60-48v0V204.1l44.4-12.7 11.6-3.3V176 112 90.8zM194.4 247c4.7 3.8 5.6 7.2 5.6 9v0c0 1.8-.8 5.2-5.6 8.9c-4.8 3.8-12.6 7-22.4 7s-17.6-3.2-22.4-7c-4.7-3.8-5.6-7.2-5.6-9s.8-5.2 5.6-9c4.8-3.8 12.6-7 22.4-7s17.6 3.2 22.4 7zM232 170.8V140.1l24-6.9v30.7l-24 6.9z"/></svg>