<svg xmlns="http://www.w3.org/2000/svg" viewBox="0 0 512 512"><!--! Font Awesome Pro 6.5.1 by @fontawesome - https://fontawesome.com License - https://fontawesome.com/license (Commercial License) Copyright 2023 Fonticons, Inc. --><path d="M160 448V416H128 32 0V384 32 0H32 480h32V32 384v32H480 304L192 490.7 160 512V473.5 448zm0-64h32v32 36.2l94.2-62.8 8.1-5.4H304 480V32H32V384H160zm-8-240h8v0h8v32H152 132.8c-2.7 0-4.8 2.2-4.8 4.8c0 1.6 .8 3.1 2.2 4l29.4 19.6c10.2 6.8 16.4 18.3 16.4 30.7c0 20.3-16.5 36.8-36.8 36.8H112 96V240h16 27.2c2.7 0 4.8-2.2 4.8-4.8c0-1.6-.8-3.1-2.2-4l-29.4-19.6C102.2 204.7 96 193.2 96 180.8c0-20.3 16.5-36.8 36.8-36.8H152zm40 16V144h24l4.8 6.4L256 197.3l35.2-46.9L296 144h24v16 96 16H288V256 208l-19.2 25.6L256 250.7l-12.8-17.1L224 208v48 16H192V256 160zm144 20.8c0-20.3 16.4-36.7 36.7-36.8H384v0h8 16v32H392 372.8c-2.7 0-4.8 2.2-4.8 4.8c0 1.6 .8 3.1 2.2 4l29.4 19.6c10.2 6.8 16.4 18.3 16.4 30.7c0 20.3-16.5 36.8-36.8 36.8H352 336V240h16 27.2c2.7 0 4.8-2.2 4.8-4.8c0-1.6-.8-3.1-2.2-4l-29.4-19.6c-10.2-6.8-16.4-18.3-16.4-30.7z"/></svg>