<svg xmlns="http://www.w3.org/2000/svg" viewBox="0 0 640 512"><!--! Font Awesome Pro 6.5.1 by @fontawesome - https://fontawesome.com License - https://fontawesome.com/license (Commercial License) Copyright 2023 Fonticons, Inc. --><path d="M576 32V0H544 99l40.5 32H544V351.3l32 25.3V32zM64 135.4V384v32H96h96 32v32 25.5V512l32-21.3L368 416h51.4l-40.5-32H368h-9.7l-8.1 5.4L256 452.2V416 384H224 96V160.7L64 135.4zM40.4 18L27.8 8.1 8.1 33.4l12.6 9.8L599.8 494.3l12.6 9.8 19.7-25.2L619.5 469 40.4 18z"/></svg>