<svg xmlns="http://www.w3.org/2000/svg" viewBox="0 0 640 512"><!--! Font Awesome Pro 6.5.1 by @fontawesome - https://fontawesome.com License - https://fontawesome.com/license (Commercial License) Copyright 2023 Fonticons, Inc. --><path d="M512 208c0 91.8-70.3 167.2-160 175.3v17.8c0 5-.5 9.8-1.5 14.4c46-3.2 87.9-21.3 120.8-49.5L615.9 510.5l22.6-22.6L494 343.3c31.2-36.4 50-83.7 50-135.3C544 93.1 450.9 0 336 0C229 0 140.9 80.8 129.3 184.7l34.1-11.4C179.5 92.7 250.7 32 336 32c97.2 0 176 78.8 176 176zM320 155.1l-21.1 7-192 64L96 229.8v11.5 72V422.5c-9.4-4.1-20.3-6.4-32-6.4c-35.3 0-64 21.5-64 48s28.7 48 64 48c33.7 0 61.4-19.6 63.8-44.4c.1-.8 .2-1.6 .2-2.4v-1.2V324.8l160-53.3v87c-9.4-4.1-20.3-6.4-32-6.4c-35.3 0-64 21.5-64 48s28.7 48 64 48s64-21.5 64-48V249.3v-72V155.1zM282.1 391.8c5.5 4.1 5.9 7.4 5.9 8.3s-.4 4.2-5.9 8.3c-5.5 4.1-14.6 7.7-26.1 7.7s-20.5-3.5-26.1-7.7c-5.5-4.1-5.9-7.4-5.9-8.3s.4-4.2 5.9-8.3c5.5-4.1 14.6-7.7 26.1-7.7s20.5 3.5 26.1 7.7zm-192 64c5.5 4.1 5.9 7.4 5.9 8.3s-.4 4.2-5.9 8.3c-5.5 4.1-14.6 7.7-26.1 7.7s-20.5-3.5-26.1-7.7c-5.5-4.1-5.9-7.4-5.9-8.3s.4-4.2 5.9-8.3c5.5-4.1 14.6-7.7 26.1-7.7s20.5 3.5 26.1 7.7zM128 291.1V252.8l160-53.3v38.3L128 291.1z"/></svg>