<svg xmlns="http://www.w3.org/2000/svg" viewBox="0 0 512 512"><!--! Font Awesome Pro 6.5.1 by @fontawesome - https://fontawesome.com License - https://fontawesome.com/license (Commercial License) Copyright 2023 Fonticons, Inc. --><path d="M128 32a32 32 0 1 1 0 64 32 32 0 1 1 0-64zm0 96A64 64 0 1 0 128 0a64 64 0 1 0 0 128zM88.1 192h79.7l45.7 160H42.4L88.1 192zM192 160H64L9.1 352 0 384H33.3 64V496v16H96V496 384h64V496v16h32V496 384h30.7H256h33.3H320V496v16h32V496 384h64V496v16h32V496 384h30.7H512l-9.1-32L448 160H320L265.1 352 256 384l-9.1-32L192 160zM384 32a32 32 0 1 1 0 64 32 32 0 1 1 0-64zm0 96A64 64 0 1 0 384 0a64 64 0 1 0 0 128zm-39.9 64h79.7l45.7 160H298.4l45.7-160z"/></svg>