<svg xmlns="http://www.w3.org/2000/svg" viewBox="0 0 512 512"><!--! Font Awesome Pro 6.5.1 by @fontawesome - https://fontawesome.com License - https://fontawesome.com/license (Commercial License) Copyright 2023 Fonticons, Inc. --><path d="M128 32a32 32 0 1 1 0 64 32 32 0 1 1 0-64zm0 96A64 64 0 1 0 128 0a64 64 0 1 0 0 128zM62.7 192H193.3l5.3 128H192 160 96 64 57.4l5.3-128zM56 352h8V496v16H96V496 352h64V496v16h32V496 352h8 32l-1.3-32L224 160H32L25.3 320 24 352H56zM384 32a32 32 0 1 1 0 64 32 32 0 1 1 0-64zm0 96A64 64 0 1 0 384 0a64 64 0 1 0 0 128zm-65.3 64H449.3l5.3 128H448 416 352 320h-6.6l5.3-128zM312 352h8V496v16h32V496 352h64V496v16h32V496 352h8 32l-1.3-32L480 160H288l-6.7 160L280 352h32z"/></svg>