<svg xmlns="http://www.w3.org/2000/svg" viewBox="0 0 640 512"><!--! Font Awesome Pro 6.5.1 by @fontawesome - https://fontawesome.com License - https://fontawesome.com/license (Commercial License) Copyright 2023 Fonticons, Inc. --><path d="M320 96a32 32 0 1 0 0-64 32 32 0 1 0 0 64zm0-96a64 64 0 1 1 0 128A64 64 0 1 1 320 0zM254.7 192l-5.3 128H256h32 64 32 6.6l-5.3-128H254.7zM248 352H216l1.3-32L224 160H416l6.7 160 1.3 32H392h-8V496v16H352V496 352H288V496v16H256V496 352h-8zm.2-224H203.1C158.4 88.2 99.5 64 34.9 64H32v48c0 76.5 35.7 144.6 91.5 188.6l12.1 9.5 12.1 9.5-9.1 12.4-9.1 12.4C108.5 373.6 96 409.3 96 448h16c42.5 0 81.6-15.1 112-40.2v39.5C191.7 468 153.2 480 112 480H80 64V464 448c0-45.7 14.7-88 39.7-122.3C40.6 275.9 0 198.7 0 112V48 32H16 34.9c84.9 0 161.1 37.1 213.4 96zM605.1 64c-64.6 0-123.5 24.2-168.2 64H391.7C444 69.1 520.2 32 605.1 32H624h16V48v64c0 86.7-40.6 163.9-103.7 213.7C561.3 360 576 402.3 576 448v16 16H560 528c-41.2 0-79.7-12-112-32.7V407.8c30.4 25.1 69.5 40.2 112 40.2h16c0-38.7-12.5-74.4-33.6-103.5l-9.1-12.4-9.1-12.4 12.1-9.5 12.1-9.5C572.3 256.6 608 188.5 608 112V64h-2.9z"/></svg>