<svg xmlns="http://www.w3.org/2000/svg" viewBox="0 0 640 512"><!--! Font Awesome Pro 6.5.1 by @fontawesome - https://fontawesome.com License - https://fontawesome.com/license (Commercial License) Copyright 2023 Fonticons, Inc. --><path d="M320 32a32 32 0 1 1 0 64 32 32 0 1 1 0-64zm0 96A64 64 0 1 0 320 0a64 64 0 1 0 0 128zm-39.9 64h79.7l45.7 160H234.4l45.7-160zM384 160H256L201.1 352 192 384h33.3H256V496v16h32V496 384h64V496v16h32V496 384h30.7H448l-9.1-32L384 160zM34.9 32H16 0V48v64c0 86.7 40.6 163.9 103.7 213.7C78.7 360 64 402.3 64 448v16 16H80h32c41.2 0 79.7-12 112-32.7V416H213.2c-28.6 20.2-63.6 32-101.2 32H96c0-38.7 12.5-74.4 33.6-103.5l9.1-12.4 9.1-12.4-12.1-9.5-12.1-9.5C67.7 256.6 32 188.5 32 112V64h2.9c76 0 144.1 33.5 190.6 86.5l10.2-35.8C184.1 63.6 113.2 32 34.9 32zM528 448c-37.7 0-72.6-11.8-101.2-32H416v31.3C448.3 468 486.8 480 528 480h32 16V464 448c0-45.7-14.7-88-39.7-122.3C599.4 275.9 640 198.7 640 112V48 32H624 605.1c-78.3 0-149.3 31.6-200.8 82.7l10.2 35.8C461 97.5 529.2 64 605.1 64H608v48c0 76.5-35.7 144.6-91.5 188.6l-12.1 9.5-12.1 9.5 9.1 12.4 9.1 12.4c21.1 29 33.6 64.7 33.6 103.5H528z"/></svg>