<svg xmlns="http://www.w3.org/2000/svg" viewBox="0 0 512 512"><!--! Font Awesome Pro 6.5.1 by @fontawesome - https://fontawesome.com License - https://fontawesome.com/license (Commercial License) Copyright 2023 Fonticons, Inc. --><path d="M169.1 17.3C183.8 6.3 203.2 0 224 0s40.2 6.3 54.9 17.3S304 44.6 304 64c0 22.4-13.7 40.4-32 51.3V128h96 16v16 96h12.7c10.9-18.3 28.9-32 51.3-32c19.4 0 35.8 10.5 46.7 25.1s17.3 34.1 17.3 54.9s-6.3 40.2-17.3 54.9s-27.3 25.1-46.7 25.1c-22.4 0-40.4-13.7-51.3-32H384V496v16H368 256 240V496 457.6 447.1l9.6-4.2C265 436.2 272 425.4 272 416c0-7.1-3.8-14.7-12.3-21.1s-21.1-10.9-35.7-10.9s-27.1 4.4-35.7 10.9s-12.3 14.1-12.3 21.1c0 9.4 7 20.2 22.4 26.9l9.6 4.2v10.5V496v16H192 16 0V496 320 304H16 54.4 64.9l4.2 9.6C75.8 329 86.6 336 96 336c7.1 0 14.7-3.8 21.1-12.3s10.9-21.1 10.9-35.7s-4.4-27.1-10.9-35.7S103.1 240 96 240c-9.4 0-20.2 7-26.9 22.4L64.9 272H54.4 16 0V256 144 128H16 176V115.3c-18.3-10.9-32-28.9-32-51.3c0-19.4 10.5-35.8 25.1-46.7zm19.2 25.6C179.8 49.3 176 56.9 176 64c0 9.4 7 20.2 22.4 26.9l9.6 4.2v10.5V144v16H192 32v80H44.7c10.9-18.3 28.9-32 51.3-32c19.4 0 35.8 10.5 46.7 25.1s17.3 34.1 17.3 54.9s-6.3 40.2-17.3 54.9S115.4 368 96 368c-22.4 0-40.4-13.7-51.3-32H32V480H176V467.3c-18.3-10.9-32-28.9-32-51.3c0-19.4 10.5-35.8 25.1-46.7s34.1-17.3 54.9-17.3s40.2 6.3 54.9 17.3s25.1 27.3 25.1 46.7c0 22.4-13.7 40.4-32 51.3V480h80V320 304h16 38.4 10.5l4.2 9.6C427.8 329 438.6 336 448 336c7.1 0 14.7-3.8 21.1-12.3s10.9-21.1 10.9-35.7s-4.4-27.1-10.9-35.7s-14.1-12.3-21.1-12.3c-9.4 0-20.2 7-26.9 22.4l-4.2 9.6H406.4 368 352V256 160H256 240V144 105.6 95.1l9.6-4.2C265 84.2 272 73.4 272 64c0-7.1-3.8-14.7-12.3-21.1S238.5 32 224 32s-27.1 4.4-35.7 10.9z"/></svg>