<svg xmlns="http://www.w3.org/2000/svg" viewBox="0 0 512 512"><!--! Font Awesome Pro 6.5.1 by @fontawesome - https://fontawesome.com License - https://fontawesome.com/license (Commercial License) Copyright 2023 Fonticons, Inc. --><path d="M296 0h80 7.6l.4 .5V0h64 9.9l4.4 8.8 16 32 3 5.9-2.1 6.3L463.9 98.8l28.5 35.1 3.6 4.4V144v40 11.9l-11.4 3.4-77.7 23.3-46 30.7-4 2.7H352 320h-4.8l-4-2.7-46-30.7-77.7-23.3L176 195.9V184 144v-5.7l3.6-4.4 28.5-35.1L192.8 53.1l-2.1-6.3 3-5.9 16-32L214.1 0H224h64V.5l.4-.5H296zM233.9 32l-8.6 17.2L232 69.4 262.4 32H233.9zM446.7 49.2L438.1 32H409.6L440 69.4l6.7-20.2zM208 149.7v22.4l48.9 14.7 50-40c7.1-5.7 10.4-14.8 8.6-23.7c-3.3-16.4-21.9-24.7-36.2-16l-71 42.6-.1-.2-.1 .1zM336 93.1c15.9-20.2 44.8-27.9 69.4-15.5L368.4 32H303.6l-37 45.6c24.6-12.4 53.5-4.7 69.4 15.5zm0 69.5c-2.6 3.4-5.7 6.5-9.1 9.2L290.4 201 312 215.4c.3-13 10.9-23.4 24-23.4s23.7 10.4 24 23.4L381.6 201l-36.5-29.2c-3.4-2.7-6.5-5.8-9.1-9.2zm79.1 24.2L464 172.1V149.7l-.1-.1-.1 .2-71-42.6c-14.4-8.6-32.9-.4-36.2 16c-1.8 8.9 1.5 18 8.6 23.7l50 40zM128 267.1c12.5-15 27-28.2 43.2-39.2l7 2.1 35.2 10.6C153.5 268.6 112 329.5 112 400v16H80V400c0-16.5 1.9-32.6 5.6-48H32v48c0 44.2 35.8 80 80 80H320c0-17.7-14.3-32-32-32H240 224V416h16 48c35.3 0 64 28.7 64 64h96c0-17.7-14.3-32-32-32H400 384V416h16 16c35.3 0 64 28.7 64 64v16 16H464 112C50.1 512 0 461.9 0 400V48 32H16h96 16V48 267.1zm320 51.2c0-24.7-8.2-48.5-22.8-67.8l32.2-9.7C472 263.7 480 290.6 480 318.3l0 17.7 0 9.9-8.8 4.4-64 32-10.3 5.2-8.2-8.2-32-32L345.4 336l11.3-11.3 32-32L400 281.4 422.6 304l-11.3 11.3L390.6 336l12.5 12.5L448 326.1l0-7.8zM95.9 320l.1-.1V256H32v64H95.9zM96 160H32v64H96V160zm0-32V64H32v64H96zM315.3 347.3l-32 32-8.2 8.2-10.3-5.2-64-32-14.3-7.2 14.3-28.6 14.3 7.2 53.7 26.8 11.9-11.9-38.1-34L230.7 292 252 268.2l11.9 10.6 50.7 45.3 12.6 11.3-12 12zM272 128a16 16 0 1 1 32 0 16 16 0 1 1 -32 0zm112-16a16 16 0 1 1 0 32 16 16 0 1 1 0-32z"/></svg>