<svg xmlns="http://www.w3.org/2000/svg" viewBox="0 0 512 512"><!--! Font Awesome Pro 6.5.1 by @fontawesome - https://fontawesome.com License - https://fontawesome.com/license (Commercial License) Copyright 2023 Fonticons, Inc. --><path d="M82.9 288C98 369.9 169.7 432 256 432c52.7 0 99.9-23.1 132.2-59.8l-37.6-37.6L328 312l22.6-22.6L352 288h96 32v32 96l-1.4 1.4L456 440l-22.6-22.6-22.5-22.5C372.8 437.3 317.5 464 256 464C152 464 65.8 387.7 50.4 288H82.9zm18.2-170.9C139.2 74.7 194.5 48 256 48c104 0 190.2 76.3 205.6 176H429.1C414.1 142.1 342.3 80 256 80c-52.7 0-99.9 23.1-132.2 59.8l37.6 37.6L184 200l-22.6 22.6L160 224H64 32V192 96l1.4-1.4L56 72 78.6 94.6l22.5 22.5zM381.3 320L448 386.7V320H381.3zM64 192h66.7L64 125.3V192z"/></svg>