<svg xmlns="http://www.w3.org/2000/svg" viewBox="0 0 640 512"><!--! Font Awesome Pro 6.5.1 by @fontawesome - https://fontawesome.com License - https://fontawesome.com/license (Commercial License) Copyright 2023 Fonticons, Inc. --><path d="M64 64H32V384H332c4.4 11.3 9.9 22 16.5 32H96l0 96H64l0-96H32 0V384 64 32H32 64L64 0H96l0 32H480l0-32h32l0 32h32 32V64v96H544V64H512 480 96 64zM434 192h14 16v16 87.4l32 21.3 32-21.3V208 192h16 14 4.1l3.6 2C610 218.6 640 265.8 640 320c0 42.7-18.6 81-48 107.3V496v16H560V496 419.9v-7.7l6-4.8c25.6-20.6 42-52.1 42-87.4c0-38-19-71.7-48-91.9V304v8.6l-7.1 4.7-48 32-8.9 5.9-8.9-5.9-48-32-7.1-4.7V304 228.1c-29 20.3-48 53.9-48 91.9c0 35.4 16.4 66.9 42 87.4l6 4.8v7.7V496v16H400V496 427.3C370.6 401 352 362.7 352 320c0-54.2 30-101.4 74.2-126l3.6-2H434z"/></svg>