<svg xmlns="http://www.w3.org/2000/svg" viewBox="0 0 640 512"><!--! Font Awesome Pro 6.5.1 by @fontawesome - https://fontawesome.com License - https://fontawesome.com/license (Commercial License) Copyright 2023 Fonticons, Inc. --><path d="M256 0V32H32V480H256v32H32 0V480 32 0H32 256zm0 256.8v63.6C248.5 284 215.3 256 176 256c-44.2 0-80 35.8-80 80s35.8 80 80 80c39.3 0 72.5-28 80-64.4v63.6c-20.7 20.3-49.1 32.8-80 32.8c-61.9 0-112-50.1-112-112s50.1-112 112-112c30.9 0 59.3 12.5 80 32.8zM176 160a32 32 0 1 0 0-64 32 32 0 1 0 0 64zm0-96a64 64 0 1 1 0 128 64 64 0 1 1 0-128zM152 336a24 24 0 1 1 48 0 24 24 0 1 1 -48 0zM320 32V480H608V32H320zM288 0h32H608h32V32 480v32H608 320 288V480 32 0zM464 160a32 32 0 1 0 0-64 32 32 0 1 0 0 64zm0-96a64 64 0 1 1 0 128 64 64 0 1 1 0-128zm0 352a80 80 0 1 0 0-160 80 80 0 1 0 0 160zm0-192a112 112 0 1 1 0 224 112 112 0 1 1 0-224zM440 336a24 24 0 1 1 48 0 24 24 0 1 1 -48 0z"/></svg>