<svg xmlns="http://www.w3.org/2000/svg" viewBox="0 0 512 512"><!--! Font Awesome Pro 6.5.1 by @fontawesome - https://fontawesome.com License - https://fontawesome.com/license (Commercial License) Copyright 2023 Fonticons, Inc. --><path d="M192 0h16 96 16V16 145.1L431.8 80.6l13.9-8 8 13.9 48 83.1 8 13.9-13.9 8L384 256l111.8 64.6 13.9 8-8 13.9-48 83.1-8 13.9-13.9-8L320 366.9V496v16H304 208 192V496 366.9L80.2 431.4l-13.9 8-8-13.9-48-83.1-8-13.9 13.9-8L128 256 16.2 191.4l-13.9-8 8-13.9 48-83.1 8-13.9 13.9 8L192 145.1V16 0zm32 32V172.9v27.7l-24-13.9L78 116.3 46 171.7l122 70.4L192 256l-24 13.9L46 340.3l32 55.4 122-70.4 24-13.9v27.7V480h64V339.1 311.4l24 13.9 122 70.4 32-55.4L344 269.9 320 256l24-13.9 122-70.4-32-55.4L312 186.7l-24 13.9V172.9 32H224z"/></svg>