<svg xmlns="http://www.w3.org/2000/svg" viewBox="0 0 640 512"><!--! Font Awesome Pro 6.5.1 by @fontawesome - https://fontawesome.com License - https://fontawesome.com/license (Commercial License) Copyright 2023 Fonticons, Inc. --><path d="M40.4 18L27.8 8.1 8.1 33.4l12.6 9.8L599.8 494.3l12.6 9.8 19.7-25.2L619.5 469 40.4 18zM459.9 448H64V135.4L32 110.2V448v32H64 500.4l-40.5-32zM576 32H139.6l40.5 32H576V376.6l32 25.3V64 32H576zM423.3 256l40.5 32H496h16V256H496 423.3zM144 256H128v32h16H257.2l-40.5-32H144zm160 96H288v32h16 74.8l-40.5-32H304zm-160 0H128v32h16 96 16V352H240 144z"/></svg>