<svg xmlns="http://www.w3.org/2000/svg" viewBox="0 0 640 512"><!--! Font Awesome Pro 6.5.1 by @fontawesome - https://fontawesome.com License - https://fontawesome.com/license (Commercial License) Copyright 2023 Fonticons, Inc. --><path d="M48 160H16V128v-8L90.2 39.6 112 16l21.8 23.6L208 120v8 32H176 128V448H304V48 32l16 0 208 0h16V48l0 304h48 32v32 8l-74.2 80.4L528 496l-21.8-23.6L432 392v-8V352h32 48V64L336 64l0 400v16H320 112 96V464 160H48zM528 384H468.2L528 448.8 587.8 384H528s0 0 0 0s0 0 0 0zM171.8 128L112 63.2 52.2 128H171.8z"/></svg>