<svg xmlns="http://www.w3.org/2000/svg" viewBox="0 0 640 512"><!--! Font Awesome Pro 6.5.1 by @fontawesome - https://fontawesome.com License - https://fontawesome.com/license (Commercial License) Copyright 2023 Fonticons, Inc. --><path d="M112 17.4l11.3 11.3 80 80L214.6 120 192 142.6l-11.3-11.3L128 78.6V448H304V48 32l16 0 208 0 16 0V48 433.4l52.7-52.7L608 369.4 630.6 392l-11.3 11.3-80 80L528 494.6l-11.3-11.3-80-80L425.4 392 448 369.4l11.3 11.3L512 433.4V64L336 64V464v16H320 112 96V464 78.6L43.3 131.3 32 142.6 9.4 120l11.3-11.3 80-80L112 17.4z"/></svg>