<svg xmlns="http://www.w3.org/2000/svg" viewBox="0 0 640 512"><!--! Font Awesome Pro 6.5.1 by @fontawesome - https://fontawesome.com License - https://fontawesome.com/license (Commercial License) Copyright 2023 Fonticons, Inc. --><path d="M432 32c-26.5 0-48 21.5-48 48V96v8l-6.4 4.8-64 48-4.3 3.2H304 272c-61.9 0-112 50.1-112 112v16 16H144 96 83.9l-3.3-11.6L55.6 205l-5 8.4C38.4 233.7 32 256.9 32 280.6C32 346.6 85.4 400 151.4 400H192V368 352h32v16 41.4L294.6 480H384v-8c0-13.3-10.7-24-24-24h-8H340.5l-3.6-10.9-16-48-2.3-6.8 3.6-6.2L352 323.8V312c0-30.9-25.1-56-56-56l-24 0 0-32 24 0c48.6 0 88 39.4 88 88v16 4.2l-2.1 3.7-28.5 49.8 10.1 30.4C392.8 418 416 442.3 416 472v24 16H400 288h-6.6l-4.7-4.7L201.4 432h-50C67.8 432 0 364.2 0 280.6c0-29.5 8-58.4 23.2-83.7l17.5-29.2 4.7-7.8h9.1H64 76.1l3.3 11.6L108.1 272H128c0-79.5 64.5-144 144-144h26.7L352 88V80c0-44.2 35.8-80 80-80h2.9H528h10.4l4.2 9.5 10 22.5H560c44.2 0 80 35.8 80 80v64 16H624 608h-9.4l-27.3 27.3-4.7 4.7H560 470.6L429 265.6l42.9 24.5 8.1 4.6V304v32 16H448V336 313.3l-33.3-19c-2.3-15.8-7.8-30.7-15.7-43.9l53.7-53.7 4.7-4.7H464h73.4l-4.7-4.7L505.4 160H480 464V128h16 32 6.6l4.7 4.7L550.6 160h34.7H592h16V112c0-26.5-21.5-48-48-48H542.2 531.8l-4.2-9.5L517.6 32H434.9 432zm48 48a16 16 0 1 1 32 0 16 16 0 1 1 -32 0z"/></svg>