<svg xmlns="http://www.w3.org/2000/svg" viewBox="0 0 576 512"><!--! Font Awesome Pro 6.5.1 by @fontawesome - https://fontawesome.com License - https://fontawesome.com/license (Commercial License) Copyright 2023 Fonticons, Inc. --><path d="M7.9 142.7c52.3-27.8 97.5-67.2 132-115.2c3.6-5 7-10 10.4-15.2l8-12.3 8.5 9.5c4.5 5.1 9.3 9.8 14.3 14.2C210.4 49.5 248.4 64 288 64s77.6-14.5 107-40.3c5-4.4 9.8-9.1 14.3-14.2L417.8 0l8 12.3c3.3 5.2 6.8 10.2 10.4 15.2c34.5 48 79.6 87.4 132 115.2l7.9 4.2V480v32H544 32 0V480 146.9l7.9-4.2zM32 166v26H544V166c-51.4-28.9-95.9-68.3-130.8-115.7C378.4 79.6 334.1 96 288 96s-90.4-16.4-125.2-45.7C127.9 97.7 83.4 137.1 32 166zm0 58V480H272V224H32zM406.1 480L304 275.8V480H406.1zm35.8 0H544V224H313.9l128 256z"/></svg>