<svg xmlns="http://www.w3.org/2000/svg" viewBox="0 0 640 512"><!--! Font Awesome Pro 6.5.1 by @fontawesome - https://fontawesome.com License - https://fontawesome.com/license (Commercial License) Copyright 2023 Fonticons, Inc. --><path d="M0 64V96 416v32H32 608h32V416 336 304H624c-26.5 0-48-21.5-48-48s21.5-48 48-48h16V176 96 64H608 32 0zM608 416H32V96H608v81.6c-36.5 7.4-64 39.7-64 78.4s27.5 71 64 78.4V416zM480 160a16 16 0 1 0 -32 0 16 16 0 1 0 32 0zm0 64a16 16 0 1 0 -32 0 16 16 0 1 0 32 0zm-16 80a16 16 0 1 0 0-32 16 16 0 1 0 0 32zm16 48a16 16 0 1 0 -32 0 16 16 0 1 0 32 0z"/></svg>