<svg xmlns="http://www.w3.org/2000/svg" viewBox="0 0 640 512"><!--! Font Awesome Pro 6.5.1 by @fontawesome - https://fontawesome.com License - https://fontawesome.com/license (Commercial License) Copyright 2023 Fonticons, Inc. --><path d="M96 64V32h32H608h32V64v72 32c-22.1 0-40 17.9-40 40s17.9 40 40 40v32 72 32H608 128 96V352 280 248c22.1 0 40-17.9 40-40s-17.9-40-40-40V136 64zm32 79.5c23.7 11.8 40 36.2 40 64.5s-16.3 52.7-40 64.5V352H608V272.5c-23.7-11.8-40-36.2-40-64.5s16.3-52.7 40-64.5V64H128v79.5zM32 96v16V448H528h16v32H528 16 0V464 112 96H32zm224 64v96H480V160H256zm-32-32h32H480h32v32 96 32H480 256 224V256 160 128z"/></svg>