<svg xmlns="http://www.w3.org/2000/svg" viewBox="0 0 640 512"><!--! Font Awesome Pro 6.5.1 by @fontawesome - https://fontawesome.com License - https://fontawesome.com/license (Commercial License) Copyright 2023 Fonticons, Inc. --><path d="M96 32V64v72 32c22.1 0 40 17.9 40 40s-17.9 40-40 40v32 72 32h32H608h32V352 280 248c-22.1 0-40-17.9-40-40s17.9-40 40-40V136 64 32H608 128 96zm72 176c0-28.3-16.3-52.7-40-64.5V64H608v79.5c-23.7 11.8-40 36.2-40 64.5s16.3 52.7 40 64.5V352H128V272.5c23.7-11.8 40-36.2 40-64.5zM32 112V96H0v16V464v16H16 528h16V448H528 32V112z"/></svg>