<svg xmlns="http://www.w3.org/2000/svg" viewBox="0 0 640 512"><!--! Font Awesome Pro 6.5.1 by @fontawesome - https://fontawesome.com License - https://fontawesome.com/license (Commercial License) Copyright 2023 Fonticons, Inc. --><path d="M509.7 96H544V64H512 479.9h-47L397.6 7.5 392.9 0H384 256h-8.9l-4.7 7.5L207.1 64h-27l40.5 32h257L463.9 288.1l30.4 24L509.7 96zM452.9 442.5L450.2 480H189.8L171.2 220.1l-34-26.8L160 512H480l3.3-45.6-30.4-24zM244.9 64l20-32H375.1l20 32H244.9zM40.4 18L27.8 8.1 8.1 33.4l12.6 9.8L599.8 494.3l12.6 9.8 19.7-25.2L619.5 469 40.4 18z"/></svg>