<svg xmlns="http://www.w3.org/2000/svg" viewBox="0 0 640 512"><!--! Font Awesome Pro 6.5.1 by @fontawesome - https://fontawesome.com License - https://fontawesome.com/license (Commercial License) Copyright 2023 Fonticons, Inc. --><path d="M32 32V384H69.5c13.2-37.3 48.7-64 90.5-64s77.4 26.7 90.5 64H384V32H32zM64 416H32 0V384 32 0H32 384h32V32 96h80 7.4l4.8 5.6 96 112 3.9 4.5V224 384h16 16v32H624 608 576c0 53-43 96-96 96s-96-43-96-96H256c0 53-43 96-96 96s-96-43-96-96zM570.9 224l-82.3-96H416v96H570.9zM416 256v88.4c17-15.2 39.4-24.4 64-24.4c41.8 0 77.4 26.7 90.5 64H576V256H416zM224 416A64 64 0 1 0 96 416a64 64 0 1 0 128 0zm256 64a64 64 0 1 0 0-128 64 64 0 1 0 0 128zM320 112v16 96 32 48 16H288V304 256H256 224V224 160c0-41.8 26.7-77.4 64-90.5c10-3.5 20.8-5.5 32-5.5V96v16zM288 224V128 112v-7.4c-19.1 11.1-32 31.7-32 55.4v64h32zM160 206.1V208v64 16H128V272 206.1c-31.6-7.6-54.4-37.2-52-71.1l4-56.1 1.1-16 31.9 2.3-1.1 16-4 56.1C106.5 158.2 123 176 144 176s37.5-17.8 36.1-38.7l-4-56.1-1.1-16 31.9-2.3 1.1 16 4 56.1c2.4 33.9-20.4 63.5-52 71.1zM160 80v48 16H128V128 80 64h32V80z"/></svg>