<svg xmlns="http://www.w3.org/2000/svg" viewBox="0 0 640 512"><!--! Font Awesome Pro 6.5.1 by @fontawesome - https://fontawesome.com License - https://fontawesome.com/license (Commercial License) Copyright 2023 Fonticons, Inc. --><path d="M352 32V64H336v96h16v32H0V160H16V64H0V32H352zM304 64H240v96h64V64zm-96 0H144v96h64V64zm-96 0H48v96h64V64zM384 96h16 96 6.6l4.7 4.7 128 128 4.7 4.7V240 400v16H624 576c0 53-43 96-96 96s-96-43-96-96H256c0 53-43 96-96 96s-96-43-96-96H16 0V400 240 224H16 384V112 96zm32 128H585.4l-96-96H416v96zm192 32H32V384H69.5c13.2-37.3 48.7-64 90.5-64s77.4 26.7 90.5 64H389.5c13.2-37.3 48.7-64 90.5-64s77.4 26.7 90.5 64H608V256zM224 416A64 64 0 1 0 96 416a64 64 0 1 0 128 0zm256 64a64 64 0 1 0 0-128 64 64 0 1 0 0 128z"/></svg>