<svg xmlns="http://www.w3.org/2000/svg" viewBox="0 0 640 512"><!--! Font Awesome Pro 6.5.1 by @fontawesome - https://fontawesome.com License - https://fontawesome.com/license (Commercial License) Copyright 2023 Fonticons, Inc. --><path d="M224 32a96 96 0 1 1 0 192 96 96 0 1 1 0-192zm0 224A128 128 0 1 0 224 0a128 128 0 1 0 0 256zM87.6 336H360.4l44.3 144H43.3L87.6 336zM384 304H64L9.8 480 0 512H33.5h381H448l-9.8-32L384 304zM544 112H512v16 64H448 432v32h16 64v64 16h32V288 224h64 16V192H608 544V128 112z"/></svg>