<svg xmlns="http://www.w3.org/2000/svg" viewBox="0 0 640 512"><!--! Font Awesome Pro 6.5.1 by @fontawesome - https://fontawesome.com License - https://fontawesome.com/license (Commercial License) Copyright 2023 Fonticons, Inc. --><path d="M224 32a96 96 0 1 1 0 192 96 96 0 1 1 0-192zm0 224A128 128 0 1 0 224 0a128 128 0 1 0 0 256zM87.6 336H360.4l44.3 144H43.3L87.6 336zM384 304H64L9.8 480 0 512H33.5h381H448l-9.8-32L384 304zM627.3 187.3L638.6 176 616 153.4l-11.3 11.3L488 281.4l-52.7-52.7L424 217.4 401.4 240l11.3 11.3 64 64L488 326.6l11.3-11.3 128-128z"/></svg>