<svg xmlns="http://www.w3.org/2000/svg" viewBox="0 0 640 512"><!--! Font Awesome Pro 6.5.1 by @fontawesome - https://fontawesome.com License - https://fontawesome.com/license (Commercial License) Copyright 2023 Fonticons, Inc. --><path d="M224 32a96 96 0 1 1 0 192 96 96 0 1 1 0-192zm0 224A128 128 0 1 0 224 0a128 128 0 1 0 0 256zM87.6 336H360.4l44.3 144H43.3L87.6 336zM384 304H64L9.8 480 0 512H33.5h381H448l-9.8-32L384 304zm95.4-167.2l-22.6 22.6 11.3 11.3L521.4 224l-53.3 53.3-11.3 11.3 22.6 22.6 11.3-11.3L544 246.6l53.3 53.3 11.3 11.3 22.6-22.6-11.3-11.3L566.6 224l53.3-53.3 11.3-11.3-22.6-22.6-11.3 11.3L544 201.4l-53.3-53.3-11.3-11.3z"/></svg>